<svg xmlns="http://www.w3.org/2000/svg" viewBox="0 0 320 180" width="320" height="180" fill="none" stroke="currentColor" stroke-width="1.5" stroke-linecap="round" stroke-linejoin="round">
<rect x="0.5" y="0.5" width="319" height="179" rx="6" stroke-opacity="0.25"/>
<rect x="12" y="12" width="80" height="6" rx="3" fill="currentColor" stroke="none" fill-opacity="0.55"/>
<rect x="12" y="22" width="140" height="4" rx="2" fill="currentColor" stroke="none" fill-opacity="0.2"/>
<line x1="30" y1="150" x2="300" y2="150" stroke-opacity="0.35"/>
<line x1="30" y1="150" x2="30" y2="50" stroke-opacity="0.35"/>

<g fill="currentColor" stroke="none">
  <rect x="40" y="64" width="20" height="86" rx="2" fill-opacity="0.85"/>
  <rect x="72" y="76" width="20" height="74" rx="2" fill-opacity="0.55"/>
  <rect x="104" y="84" width="20" height="66" rx="2" fill-opacity="0.55"/>
  <rect x="136" y="96" width="20" height="54" rx="2" fill-opacity="0.55"/>
  <rect x="168" y="104" width="20" height="46" rx="2" fill-opacity="0.55"/>
  <rect x="200" y="112" width="20" height="38" rx="2" fill-opacity="0.55"/>
  <rect x="232" y="120" width="20" height="30" rx="2" fill-opacity="0.55"/>
  <rect x="264" y="128" width="20" height="22" rx="2" fill-opacity="0.55"/>
</g>
<text x="40" y="168" font-family="system-ui,Segoe UI,Arial" font-size="8" fill="currentColor" fill-opacity="0.55" stroke="none">A   B   C   D   E   F   G   H</text>
</svg>
