<svg xmlns="http://www.w3.org/2000/svg" viewBox="0 0 320 180" width="320" height="180" fill="none" stroke="currentColor" stroke-width="1.5" stroke-linecap="round" stroke-linejoin="round">
<style id="preview-theme">
  svg { color: #24292f; background: #ffffff; }
  @media (prefers-color-scheme: dark) {
    svg { color: #e6edf3; background: #0d1117; }
  }
</style>
<rect x="0.5" y="0.5" width="319" height="179" rx="6" stroke-opacity="0.25"/>
<rect x="12" y="12" width="80" height="6" rx="3" fill="currentColor" stroke="none" fill-opacity="0.55"/>
<rect x="12" y="22" width="140" height="4" rx="2" fill="currentColor" stroke="none" fill-opacity="0.2"/>

<g font-family="system-ui,Segoe UI,Arial" font-size="8" fill="currentColor" fill-opacity="0.65" stroke="none">
  <text x="12" y="56">Revenue</text>
  <text x="12" y="80">Margin</text>
  <text x="12" y="104">NPS</text>
  <text x="12" y="128">Quality</text>
  <text x="12" y="152">On-time</text>
</g>
<rect x="60"       y="48" width="200"  height="10" fill="currentColor" fill-opacity="0.12" stroke="none"/>
<rect x="60"       y="48" width="140" height="10" fill="currentColor" fill-opacity="0.22" stroke="none"/>
<rect x="60"       y="48" width="80" height="10" fill="currentColor" fill-opacity="0.32" stroke="none"/>
<rect x="60"       y="50" width="165" height="6" fill="currentColor" fill-opacity="0.95" stroke="none"/>
<line x1="210" y1="46.5" x2="210" y2="59.5" stroke="currentColor" stroke-width="2"/>
<rect x="60"       y="72" width="200"  height="10" fill="currentColor" fill-opacity="0.12" stroke="none"/>
<rect x="60"       y="72" width="140" height="10" fill="currentColor" fill-opacity="0.22" stroke="none"/>
<rect x="60"       y="72" width="80" height="10" fill="currentColor" fill-opacity="0.32" stroke="none"/>
<rect x="60"       y="74" width="120" height="6" fill="currentColor" fill-opacity="0.95" stroke="none"/>
<line x1="190" y1="70.5" x2="190" y2="83.5" stroke="currentColor" stroke-width="2"/>
<rect x="60"       y="96" width="200"  height="10" fill="currentColor" fill-opacity="0.12" stroke="none"/>
<rect x="60"       y="96" width="140" height="10" fill="currentColor" fill-opacity="0.22" stroke="none"/>
<rect x="60"       y="96" width="80" height="10" fill="currentColor" fill-opacity="0.32" stroke="none"/>
<rect x="60"       y="98" width="185" height="6" fill="currentColor" fill-opacity="0.95" stroke="none"/>
<line x1="230" y1="94.5" x2="230" y2="107.5" stroke="currentColor" stroke-width="2"/>
<rect x="60"       y="120" width="200"  height="10" fill="currentColor" fill-opacity="0.12" stroke="none"/>
<rect x="60"       y="120" width="140" height="10" fill="currentColor" fill-opacity="0.22" stroke="none"/>
<rect x="60"       y="120" width="80" height="10" fill="currentColor" fill-opacity="0.32" stroke="none"/>
<rect x="60"       y="122" width="85" height="6" fill="currentColor" fill-opacity="0.95" stroke="none"/>
<line x1="190" y1="118.5" x2="190" y2="131.5" stroke="currentColor" stroke-width="2"/>
<rect x="60"       y="144" width="200"  height="10" fill="currentColor" fill-opacity="0.12" stroke="none"/>
<rect x="60"       y="144" width="140" height="10" fill="currentColor" fill-opacity="0.22" stroke="none"/>
<rect x="60"       y="144" width="80" height="10" fill="currentColor" fill-opacity="0.32" stroke="none"/>
<rect x="60"       y="146" width="145" height="6" fill="currentColor" fill-opacity="0.95" stroke="none"/>
<line x1="210" y1="142.5" x2="210" y2="155.5" stroke="currentColor" stroke-width="2"/></svg>
