<svg xmlns="http://www.w3.org/2000/svg" viewBox="0 0 320 180" width="320" height="180" fill="none" stroke="currentColor" stroke-width="1.5" stroke-linecap="round" stroke-linejoin="round">
<style id="preview-theme">
  svg { color: #24292f; background: #ffffff; }
  @media (prefers-color-scheme: dark) {
    svg { color: #e6edf3; background: #0d1117; }
  }
</style>
<rect x="0.5" y="0.5" width="319" height="179" rx="6" stroke-opacity="0.25"/>
<g stroke="currentColor" fill="none" stroke-width="2">
  <polyline points="40,40 120,40 200,100 280,60" stroke-opacity="0.85"/>
  <polyline points="40,70 120,100 200,40 280,100" stroke-opacity="0.65"/>
  <polyline points="40,100 120,70 200,130 280,130" stroke-opacity="0.45"/>
  <polyline points="40,130 120,130 200,70 280,40" stroke-opacity="0.3"/>
</g>
<g fill="currentColor" stroke="none">
  <circle cx="40" cy="40" r="4" fill-opacity="0.85"/><circle cx="120" cy="40" r="4" fill-opacity="0.85"/><circle cx="200" cy="100" r="4" fill-opacity="0.85"/><circle cx="280" cy="60" r="4" fill-opacity="0.85"/>
  <circle cx="40" cy="70" r="4" fill-opacity="0.65"/><circle cx="120" cy="100" r="4" fill-opacity="0.65"/><circle cx="200" cy="40" r="4" fill-opacity="0.65"/><circle cx="280" cy="100" r="4" fill-opacity="0.65"/>
  <circle cx="40" cy="100" r="4" fill-opacity="0.45"/><circle cx="120" cy="70" r="4" fill-opacity="0.45"/><circle cx="200" cy="130" r="4" fill-opacity="0.45"/><circle cx="280" cy="130" r="4" fill-opacity="0.45"/>
  <circle cx="40" cy="130" r="4" fill-opacity="0.3"/><circle cx="120" cy="130" r="4" fill-opacity="0.3"/><circle cx="200" cy="70" r="4" fill-opacity="0.3"/><circle cx="280" cy="40" r="4" fill-opacity="0.3"/>
</g>
<line x1="16" y1="160" x2="304" y2="160" stroke="currentColor" stroke-opacity="0.4"/>
</svg>
