<svg xmlns="http://www.w3.org/2000/svg" viewBox="0 0 320 180" width="320" height="180" fill="none" stroke="currentColor" stroke-width="1.5" stroke-linecap="round" stroke-linejoin="round">
<style id="preview-theme">
  svg { color: #24292f; background: #ffffff; }
  @media (prefers-color-scheme: dark) {
    svg { color: #e6edf3; background: #0d1117; }
  }
</style>
<rect x="0.5" y="0.5" width="319" height="179" rx="6" stroke-opacity="0.25"/>
<g transform="translate(160 90)" stroke="currentColor" fill="none">
  <circle r="60" stroke-opacity="0.2"/>
  <path d="M 0,-60 A 60,60 0 0 1 42,-42" stroke-width="8" stroke-opacity="0.75"/>
  <path d="M 42,-42 A 60,60 0 0 1 60,0" stroke-width="8" stroke-opacity="0.55"/>
  <path d="M 60,0 A 60,60 0 0 1 -60,0" stroke-width="8" stroke-opacity="0.4"/>
  <path d="M -60,0 A 60,60 0 0 1 0,-60" stroke-width="8" stroke-opacity="0.6"/>
  <path d="M 0,-55 Q -30,0 -40,40" stroke-opacity="0.5" stroke-width="2.5" fill="none"/>
  <path d="M 45,-35 Q 10,0 -25,50" stroke-opacity="0.4" stroke-width="2" fill="none"/>
  <path d="M 55,5 Q 10,-20 -45,-30" stroke-opacity="0.45" stroke-width="2.5" fill="none"/>
  <path d="M 35,45 Q -5,-10 -55,5" stroke-opacity="0.35" stroke-width="2" fill="none"/>
</g>
</svg>
