<svg xmlns="http://www.w3.org/2000/svg" viewBox="0 0 320 180" width="320" height="180" fill="none" stroke="currentColor" stroke-width="1.5" stroke-linecap="round" stroke-linejoin="round">
<style id="preview-theme">
  svg { color: #24292f; background: #ffffff; }
  @media (prefers-color-scheme: dark) {
    svg { color: #e6edf3; background: #0d1117; }
  }
</style>
<rect x="0.5" y="0.5" width="319" height="179" rx="6" stroke-opacity="0.25"/>
<rect x="12" y="12" width="80" height="6" rx="3" fill="currentColor" stroke="none" fill-opacity="0.55"/>
<rect x="12" y="22" width="140" height="4" rx="2" fill="currentColor" stroke="none" fill-opacity="0.2"/>

<g fill="currentColor" stroke="none">
  <rect x="16"  y="80"  width="52" height="24" rx="4" fill-opacity="0.85"/>
  <rect x="92"  y="48"  width="52" height="18" rx="4" fill-opacity="0.6"/>
  <rect x="92"  y="78"  width="52" height="18" rx="4" fill-opacity="0.75"/>
  <rect x="92"  y="108" width="52" height="18" rx="4" fill-opacity="0.45"/>
  <rect x="168" y="36"  width="52" height="14" rx="3" fill-opacity="0.55"/>
  <rect x="168" y="58"  width="52" height="14" rx="3" fill-opacity="0.4"/>
  <rect x="168" y="82"  width="52" height="14" rx="3" fill-opacity="0.7"/>
  <rect x="168" y="104" width="52" height="14" rx="3" fill-opacity="0.5"/>
  <rect x="168" y="126" width="52" height="14" rx="3" fill-opacity="0.35"/>
  <rect x="244" y="48"  width="56" height="12" rx="3" fill-opacity="0.55"/>
  <rect x="244" y="68"  width="56" height="12" rx="3" fill-opacity="0.35"/>
  <rect x="244" y="88"  width="56" height="12" rx="3" fill-opacity="0.7"/>
  <rect x="244" y="108" width="56" height="12" rx="3" fill-opacity="0.45"/>
  <rect x="244" y="128" width="56" height="12" rx="3" fill-opacity="0.3"/>
</g>
<g stroke="currentColor" stroke-opacity="0.45" fill="none">
  <path d="M68,92 C80,92 80,57 92,57"/>
  <path d="M68,92 C80,92 80,87 92,87"/>
  <path d="M68,92 C80,92 80,117 92,117"/>
  <path d="M144,57 C158,57 158,43 168,43"/>
  <path d="M144,57 C158,57 158,65 168,65"/>
  <path d="M144,87 C158,87 158,89 168,89"/>
  <path d="M144,117 C158,117 158,111 168,111"/>
  <path d="M144,117 C158,117 158,133 168,133"/>
  <path d="M220,43 C232,43 232,54 244,54"/>
  <path d="M220,65 C232,65 232,74 244,74"/>
  <path d="M220,89 C232,89 232,94 244,94"/>
  <path d="M220,111 C232,111 232,114 244,114"/>
  <path d="M220,133 C232,133 232,134 244,134"/>
</g>
</svg>
