<svg xmlns="http://www.w3.org/2000/svg" viewBox="0 0 320 180" width="320" height="180" fill="none" stroke="currentColor" stroke-width="1.5" stroke-linecap="round" stroke-linejoin="round">
<style id="preview-theme">
  svg { color: #24292f; background: #ffffff; }
  @media (prefers-color-scheme: dark) {
    svg { color: #e6edf3; background: #0d1117; }
  }
</style>
<rect x="0.5" y="0.5" width="319" height="179" rx="6" stroke-opacity="0.25"/>
<g fill="currentColor" stroke="none" fill-opacity="0.6">
  <circle cx="50" cy="40" r="3"/><circle cx="80" cy="40" r="3"/><circle cx="95" cy="40" r="3"/><circle cx="130" cy="40" r="3"/><circle cx="150" cy="40" r="3"/><circle cx="180" cy="40" r="3"/><circle cx="220" cy="40" r="3"/><circle cx="260" cy="40" r="3"/>
  <circle cx="60" cy="75" r="3"/><circle cx="70" cy="75" r="3"/><circle cx="100" cy="75" r="3"/><circle cx="120" cy="75" r="3"/><circle cx="145" cy="75" r="3"/><circle cx="170" cy="75" r="3"/><circle cx="175" cy="75" r="3"/><circle cx="210" cy="75" r="3"/><circle cx="245" cy="75" r="3"/>
  <circle cx="55" cy="110" r="3"/><circle cx="90" cy="110" r="3"/><circle cx="115" cy="110" r="3"/><circle cx="135" cy="110" r="3"/><circle cx="160" cy="110" r="3"/><circle cx="190" cy="110" r="3"/><circle cx="230" cy="110" r="3"/><circle cx="265" cy="110" r="3"/>
  <circle cx="45" cy="145" r="3"/><circle cx="75" cy="145" r="3"/><circle cx="105" cy="145" r="3"/><circle cx="135" cy="145" r="3"/><circle cx="165" cy="145" r="3"/><circle cx="195" cy="145" r="3"/><circle cx="240" cy="145" r="3"/>
</g>
<g stroke="currentColor" stroke-opacity="0.3">
  <line x1="30" y1="40" x2="290" y2="40"/>
  <line x1="30" y1="75" x2="290" y2="75"/>
  <line x1="30" y1="110" x2="290" y2="110"/>
  <line x1="30" y1="145" x2="290" y2="145"/>
</g>
</svg>
