<svg xmlns="http://www.w3.org/2000/svg" viewBox="0 0 320 180" width="320" height="180" fill="none" stroke="currentColor" stroke-width="1.5" stroke-linecap="round" stroke-linejoin="round">
<style id="preview-theme">
  svg { color: #24292f; background: #ffffff; }
  @media (prefers-color-scheme: dark) {
    svg { color: #e6edf3; background: #0d1117; }
  }
</style>
<rect x="0.5" y="0.5" width="319" height="179" rx="6" stroke-opacity="0.25"/>
<g fill="currentColor" stroke="none">
  <path d="M 160,90 Q 200,75 240,60 T 304,40 L 304,120 Q 260,110 220,110 T 160,90 Z" fill-opacity="0.1"/>
  <path d="M 160,90 Q 200,80 240,72 T 304,58 L 304,100 Q 260,95 220,97 T 160,90 Z" fill-opacity="0.2"/>
  <path d="M 160,90 Q 200,85 240,82 T 304,72 L 304,88 Q 260,88 220,89 T 160,90 Z" fill-opacity="0.35"/>
</g>
<polyline points="16,120 40,110 70,114 100,102 130,96 160,90" fill="none" stroke="currentColor" stroke-width="2" stroke-opacity="0.85"/>
<polyline points="160,90 200,82 240,74 280,68 304,65" fill="none" stroke="currentColor" stroke-width="2" stroke-opacity="0.85" stroke-dasharray="4 2"/>
<line x1="160" y1="20" x2="160" y2="160" stroke="currentColor" stroke-opacity="0.4" stroke-dasharray="2 2"/>
<g fill="currentColor" stroke="none" fill-opacity="0.45" font-family="system-ui" font-size="8">
  <text x="80" y="170">actuals</text>
  <text x="215" y="170">projection</text>
</g>
</svg>
