<svg xmlns="http://www.w3.org/2000/svg" viewBox="0 0 320 180" width="320" height="180" fill="none" stroke="currentColor" stroke-width="1.5" stroke-linecap="round" stroke-linejoin="round">
<rect x="0.5" y="0.5" width="319" height="179" rx="6" stroke-opacity="0.25"/>
<rect x="12" y="12" width="80" height="6" rx="3" fill="currentColor" stroke="none" fill-opacity="0.55"/>
<rect x="12" y="22" width="140" height="4" rx="2" fill="currentColor" stroke="none" fill-opacity="0.2"/>
<line x1="30" y1="150" x2="300" y2="150" stroke-opacity="0.35"/>
<line x1="30" y1="150" x2="30" y2="50" stroke-opacity="0.35"/>

<rect x="36" y="140" width="20" height="10" rx="1.5" fill="currentColor" fill-opacity="0.8" stroke="none"/>
<rect x="60" y="126" width="20" height="24" rx="1.5" fill="currentColor" fill-opacity="0.8" stroke="none"/>
<rect x="84" y="104" width="20" height="46" rx="1.5" fill="currentColor" fill-opacity="0.8" stroke="none"/>
<rect x="108" y="80" width="20" height="70" rx="1.5" fill="currentColor" fill-opacity="0.8" stroke="none"/>
<rect x="132" y="58" width="20" height="92" rx="1.5" fill="currentColor" fill-opacity="0.8" stroke="none"/>
<rect x="156" y="54" width="20" height="96" rx="1.5" fill="currentColor" fill-opacity="0.8" stroke="none"/>
<rect x="180" y="72" width="20" height="78" rx="1.5" fill="currentColor" fill-opacity="0.8" stroke="none"/>
<rect x="204" y="96" width="20" height="54" rx="1.5" fill="currentColor" fill-opacity="0.8" stroke="none"/>
<rect x="228" y="120" width="20" height="30" rx="1.5" fill="currentColor" fill-opacity="0.8" stroke="none"/>
<rect x="252" y="134" width="20" height="16" rx="1.5" fill="currentColor" fill-opacity="0.8" stroke="none"/>
<rect x="276" y="144" width="20" height="6" rx="1.5" fill="currentColor" fill-opacity="0.8" stroke="none"/>
<!-- normal curve overlay -->
<path d="M40,142 Q80,128 110,108 Q140,82 160,62 Q180,82 210,108 Q240,128 282,142"
      stroke="currentColor" stroke-opacity="0.7" stroke-width="1.6" fill="none"/>
<!-- mean line -->
<line x1="160" y1="48" x2="160" y2="150" stroke="currentColor" stroke-dasharray="3 2" stroke-opacity="0.55"/>
<text x="164" y="54" font-family="system-ui,Segoe UI,Arial" font-size="7" fill="currentColor" fill-opacity="0.6" stroke="none">mean</text>
</svg>
