<svg xmlns="http://www.w3.org/2000/svg" viewBox="0 0 320 180" width="320" height="180" fill="none" stroke="currentColor" stroke-width="1.5" stroke-linecap="round" stroke-linejoin="round">
<style id="preview-theme">
  svg { color: #24292f; background: #ffffff; }
  @media (prefers-color-scheme: dark) {
    svg { color: #e6edf3; background: #0d1117; }
  }
</style>
<rect x="0.5" y="0.5" width="319" height="179" rx="6" stroke-opacity="0.25"/>
<g fill="currentColor" stroke="none">
  <rect x="16" y="24" width="100" height="8" rx="3" fill-opacity="0.7"/>
  <rect x="16" y="48" width="180" height="10" rx="2" fill-opacity="0.85"/>
  <rect x="16" y="66" width="140" height="10" rx="2" fill-opacity="0.7"/>
  <rect x="16" y="84" width="110" height="10" rx="2" fill-opacity="0.55"/>
  <rect x="16" y="102" width="88" height="10" rx="2" fill-opacity="0.4"/>
  <rect x="16" y="120" width="70" height="10" rx="2" fill-opacity="0.3"/>
  <rect x="220" y="48" width="80" height="100" rx="4" fill-opacity="0.08"/>
  <rect x="228" y="58" width="60" height="6" rx="2" fill-opacity="0.55"/>
  <circle cx="236" cy="82" r="4" fill-opacity="0.7"/>
  <circle cx="236" cy="100" r="4" fill-opacity="0.5"/>
  <circle cx="236" cy="118" r="4" fill-opacity="0.3"/>
  <rect x="248" y="78" width="40" height="6" rx="2" fill-opacity="0.5"/>
  <rect x="248" y="96" width="32" height="6" rx="2" fill-opacity="0.35"/>
  <rect x="248" y="114" width="28" height="6" rx="2" fill-opacity="0.25"/>
  <text x="16" y="160" font-family="system-ui,Segoe UI" font-size="9" fill-opacity="0.4">Key Influencers · AI</text>
</g>
</svg>
