<svg xmlns="http://www.w3.org/2000/svg" viewBox="0 0 320 180" width="320" height="180" fill="none" stroke="currentColor" stroke-width="1.5" stroke-linecap="round" stroke-linejoin="round">
<rect x="0.5" y="0.5" width="319" height="179" rx="6" stroke-opacity="0.25"/>

<g font-family="system-ui,Segoe UI,Arial" fill="currentColor" stroke="none">
  <!-- tile 1 -->
  <rect x="16" y="40" width="66" height="100" rx="6" fill-opacity="0.06"/>
  <rect x="24" y="52" width="28" height="4" rx="2" fill-opacity="0.45"/>
  <rect x="24" y="70" width="44" height="14" rx="2" fill-opacity="0.9"/>
  <polygon points="24,108 30,98 36,108" fill-opacity="0.75"/>
  <rect x="40" y="102" width="28" height="4" rx="2" fill-opacity="0.45"/>
  <polyline points="24,128 32,122 40,126 48,118 56,124 64,116 72,120" fill="none" stroke="currentColor" stroke-opacity="0.55" stroke-width="1.3"/>
  <!-- tile 2 -->
  <rect x="92" y="40" width="66" height="100" rx="6" fill-opacity="0.06"/>
  <rect x="100" y="52" width="28" height="4" rx="2" fill-opacity="0.45"/>
  <rect x="100" y="70" width="52" height="14" rx="2" fill-opacity="0.9"/>
  <polygon points="100,108 106,98 112,108" fill-opacity="0.75"/>
  <rect x="116" y="102" width="24" height="4" rx="2" fill-opacity="0.45"/>
  <polyline points="100,130 108,120 116,124 124,114 132,120 140,108 148,114" fill="none" stroke="currentColor" stroke-opacity="0.55" stroke-width="1.3"/>
  <!-- tile 3 -->
  <rect x="168" y="40" width="66" height="100" rx="6" fill-opacity="0.06"/>
  <rect x="176" y="52" width="28" height="4" rx="2" fill-opacity="0.45"/>
  <rect x="176" y="70" width="48" height="14" rx="2" fill-opacity="0.9"/>
  <polygon points="176,100 182,108 188,100" fill-opacity="0.75"/>
  <rect x="192" y="102" width="28" height="4" rx="2" fill-opacity="0.45"/>
  <polyline points="176,122 184,128 192,126 200,132 208,126 216,130 224,124" fill="none" stroke="currentColor" stroke-opacity="0.55" stroke-width="1.3"/>
  <!-- tile 4 -->
  <rect x="244" y="40" width="60" height="100" rx="6" fill-opacity="0.06"/>
  <rect x="252" y="52" width="28" height="4" rx="2" fill-opacity="0.45"/>
  <rect x="252" y="70" width="40" height="14" rx="2" fill-opacity="0.9"/>
  <polygon points="252,108 258,98 264,108" fill-opacity="0.75"/>
  <rect x="268" y="102" width="24" height="4" rx="2" fill-opacity="0.45"/>
  <polyline points="252,126 260,120 268,122 276,114 284,118 292,112 300,116" fill="none" stroke="currentColor" stroke-opacity="0.55" stroke-width="1.3"/>
</g>
<g fill="currentColor" stroke="none" fill-opacity="0.55">
  <rect x="12" y="12" width="80" height="6" rx="3"/>
  <rect x="12" y="22" width="120" height="4" rx="2" fill-opacity="0.25"/>
</g>
</svg>
