<svg xmlns="http://www.w3.org/2000/svg" viewBox="0 0 320 180" width="320" height="180" fill="none" stroke="currentColor" stroke-width="1.5" stroke-linecap="round" stroke-linejoin="round">
<style id="preview-theme">
  svg { color: #24292f; background: #ffffff; }
  @media (prefers-color-scheme: dark) {
    svg { color: #e6edf3; background: #0d1117; }
  }
</style>
<rect x="0.5" y="0.5" width="319" height="179" rx="6" stroke-opacity="0.25"/>
<rect x="12" y="12" width="80" height="6" rx="3" fill="currentColor" stroke="none" fill-opacity="0.55"/>
<rect x="12" y="22" width="140" height="4" rx="2" fill="currentColor" stroke="none" fill-opacity="0.2"/>

<g stroke="currentColor" stroke-opacity="0.25">
  <line x1="16"  y1="44"  x2="304" y2="44"/>
  <line x1="16"  y1="66"  x2="304" y2="66"/>
  <line x1="16"  y1="88"  x2="304" y2="88"/>
  <line x1="16"  y1="110" x2="304" y2="110"/>
  <line x1="16"  y1="132" x2="304" y2="132"/>
  <line x1="16"  y1="154" x2="304" y2="154"/>
  <line x1="96"  y1="40"  x2="96"  y2="158"/>
  <line x1="152" y1="40"  x2="152" y2="158"/>
  <line x1="200" y1="40"  x2="200" y2="158"/>
  <line x1="244" y1="40"  x2="244" y2="158"/>
</g>
<g fill="currentColor" stroke="none">
  <rect x="20" y="48" width="60" height="5" rx="2" fill-opacity="0.65"/>
  <rect x="100" y="48" width="40" height="5" rx="2" fill-opacity="0.35"/>
  <rect x="156" y="48" width="36" height="5" rx="2" fill-opacity="0.35"/>
  <rect x="204" y="48" width="30" height="5" rx="2" fill-opacity="0.35"/>
</g>
<g fill="currentColor" stroke="none">
  <rect x="20" y="70" width="70" height="5" rx="2" fill-opacity="0.55"/>
  <rect x="100" y="70" width="44" height="5" rx="2" fill-opacity="0.35"/>
  <rect x="156" y="70" width="40" height="5" rx="2" fill-opacity="0.35"/>
  <circle cx="222" cy="72" r="4" fill-opacity="0.9"/>
  <rect x="20" y="92" width="70" height="5" rx="2" fill-opacity="0.55"/>
  <rect x="100" y="92" width="44" height="5" rx="2" fill-opacity="0.35"/>
  <rect x="156" y="92" width="40" height="5" rx="2" fill-opacity="0.35"/>
  <circle cx="222" cy="94" r="4" fill-opacity="0.55"/>
  <rect x="20" y="114" width="70" height="5" rx="2" fill-opacity="0.55"/>
  <rect x="100" y="114" width="44" height="5" rx="2" fill-opacity="0.35"/>
  <rect x="156" y="114" width="40" height="5" rx="2" fill-opacity="0.35"/>
  <circle cx="222" cy="116" r="4" fill-opacity="0.3"/>
  <rect x="20" y="136" width="70" height="5" rx="2" fill-opacity="0.55"/>
  <rect x="100" y="136" width="44" height="5" rx="2" fill-opacity="0.35"/>
  <rect x="156" y="136" width="40" height="5" rx="2" fill-opacity="0.35"/>
  <circle cx="222" cy="138" r="4" fill-opacity="0.9"/>
</g>
<g fill="none" stroke="currentColor" stroke-opacity="0.65" stroke-width="1.2">
  <polyline points="250,75 258,72 266,74 274,70 282,72 290,68 298,70"/>
  <polyline points="250,97 258,99 266,94 274,96 282,92 290,94 298,90"/>
  <polyline points="250,119 258,118 266,120 274,116 282,120 290,114 298,118"/>
  <polyline points="250,141 258,138 266,144 274,140 282,146 290,142 298,148"/>
</g>
</svg>
