<svg xmlns="http://www.w3.org/2000/svg" viewBox="0 0 320 180" width="320" height="180" fill="none" stroke="currentColor" stroke-width="1.5" stroke-linecap="round" stroke-linejoin="round">
<style id="preview-theme">
  svg { color: #24292f; background: #ffffff; }
  @media (prefers-color-scheme: dark) {
    svg { color: #e6edf3; background: #0d1117; }
  }
</style>
<rect x="0.5" y="0.5" width="319" height="179" rx="6" stroke-opacity="0.25"/>
<g stroke="currentColor" stroke-opacity="0.45" stroke-width="1.2" fill="none">
  <line x1="160" y1="90" x2="80" y2="40"/>
  <line x1="160" y1="90" x2="240" y2="40"/>
  <line x1="160" y1="90" x2="60" y2="130"/>
  <line x1="160" y1="90" x2="260" y2="130"/>
  <line x1="80" y1="40" x2="240" y2="40"/>
  <line x1="80" y1="40" x2="60" y2="130"/>
  <line x1="240" y1="40" x2="260" y2="130"/>
  <line x1="60" y1="130" x2="260" y2="130"/>
  <line x1="80" y1="40" x2="110" y2="60"/>
  <line x1="240" y1="40" x2="200" y2="60"/>
</g>
<g fill="currentColor" stroke="currentColor" stroke-width="1" stroke-opacity="0.7">
  <circle cx="160" cy="90" r="10" fill-opacity="0.85"/>
  <circle cx="80" cy="40" r="7" fill-opacity="0.7"/>
  <circle cx="240" cy="40" r="7" fill-opacity="0.7"/>
  <circle cx="60" cy="130" r="6" fill-opacity="0.55"/>
  <circle cx="260" cy="130" r="6" fill-opacity="0.55"/>
  <circle cx="110" cy="60" r="4" fill-opacity="0.45"/>
  <circle cx="200" cy="60" r="4" fill-opacity="0.45"/>
</g>
</svg>
