<svg xmlns="http://www.w3.org/2000/svg" viewBox="0 0 320 180" width="320" height="180" fill="none" stroke="currentColor" stroke-width="1.5" stroke-linecap="round" stroke-linejoin="round">
<rect x="0.5" y="0.5" width="319" height="179" rx="6" stroke-opacity="0.25"/>
<rect x="12" y="12" width="80" height="6" rx="3" fill="currentColor" stroke="none" fill-opacity="0.55"/>
<rect x="12" y="22" width="140" height="4" rx="2" fill="currentColor" stroke="none" fill-opacity="0.2"/>
<line x1="30" y1="150" x2="300" y2="150" stroke-opacity="0.35"/>
<line x1="30" y1="150" x2="30" y2="50" stroke-opacity="0.35"/>

<g fill="currentColor" stroke="none">
  <rect x="40" y="60" width="14" height="90" rx="1.5" fill-opacity="0.85"/>
  <rect x="62" y="72" width="14" height="78" rx="1.5" fill-opacity="0.85"/>
  <rect x="84" y="92" width="14" height="58" rx="1.5" fill-opacity="0.85"/>
  <rect x="106" y="104" width="14" height="46" rx="1.5" fill-opacity="0.85"/>
  <rect x="128" y="116" width="14" height="34" rx="1.5" fill-opacity="0.35"/>
  <rect x="150" y="124" width="14" height="26" rx="1.5" fill-opacity="0.35"/>
  <rect x="172" y="132" width="14" height="18" rx="1.5" fill-opacity="0.35"/>
  <rect x="194" y="138" width="14" height="12" rx="1.5" fill-opacity="0.35"/>
  <rect x="216" y="142" width="14" height="8" rx="1.5" fill-opacity="0.35"/>
  <rect x="238" y="144" width="14" height="6" rx="1.5" fill-opacity="0.35"/>
</g>
<!-- 80% reference -->
<line x1="30" y1="70" x2="300" y2="70" stroke="currentColor" stroke-opacity="0.45" stroke-dasharray="3 2"/>
<text x="298" y="66" font-family="system-ui,Segoe UI,Arial" font-size="7" fill="currentColor" fill-opacity="0.55" stroke="none" text-anchor="end">80%</text>
<!-- cumulative % line -->
<polyline points="47,126 69,105 91,90 113,80 135,74 157,68 179,64 201,62 223,60 245,58 267,56"
          stroke="currentColor" stroke-width="2" fill="none"/>
<g fill="currentColor" stroke="none" fill-opacity="0.85">
  <circle cx="47" cy="126" r="2"/>
  <circle cx="113" cy="80" r="2"/>
  <circle cx="157" cy="68" r="2"/>
  <circle cx="245" cy="58" r="2"/>
</g>
</svg>
