<svg xmlns="http://www.w3.org/2000/svg" viewBox="0 0 320 180" width="320" height="180" fill="none" stroke="currentColor" stroke-width="1.5" stroke-linecap="round" stroke-linejoin="round">
<style id="preview-theme">
  svg { color: #24292f; background: #ffffff; }
  @media (prefers-color-scheme: dark) {
    svg { color: #e6edf3; background: #0d1117; }
  }
</style>
<rect x="0.5" y="0.5" width="319" height="179" rx="6" stroke-opacity="0.25"/>
<line x1="160" y1="20" x2="160" y2="160" stroke="currentColor" stroke-opacity="0.35" stroke-dasharray="3 3"/>
<g fill="currentColor" stroke="none" fill-opacity="0.85">
  <rect x="90" y="28" width="70" height="12"/>
  <rect x="160" y="28" width="90" height="12" fill-opacity="0.6"/>
  <rect x="70" y="46" width="90" height="12"/>
  <rect x="160" y="46" width="104" height="12" fill-opacity="0.6"/>
  <rect x="50" y="64" width="110" height="12"/>
  <rect x="160" y="64" width="118" height="12" fill-opacity="0.6"/>
  <rect x="40" y="82" width="120" height="12"/>
  <rect x="160" y="82" width="126" height="12" fill-opacity="0.6"/>
  <rect x="60" y="100" width="100" height="12"/>
  <rect x="160" y="100" width="110" height="12" fill-opacity="0.6"/>
  <rect x="90" y="118" width="70" height="12"/>
  <rect x="160" y="118" width="82" height="12" fill-opacity="0.6"/>
  <rect x="110" y="136" width="50" height="12"/>
  <rect x="160" y="136" width="62" height="12" fill-opacity="0.6"/>
</g>
<g fill="currentColor" stroke="none" fill-opacity="0.45" font-family="system-ui" font-size="8">
  <text x="100" y="18">Male</text>
  <text x="180" y="18">Female</text>
</g>
</svg>
