<svg xmlns="http://www.w3.org/2000/svg" viewBox="0 0 320 180" width="320" height="180" fill="none" stroke="currentColor" stroke-width="1.5" stroke-linecap="round" stroke-linejoin="round">
<style id="preview-theme">
  svg { color: #24292f; background: #ffffff; }
  @media (prefers-color-scheme: dark) {
    svg { color: #e6edf3; background: #0d1117; }
  }
</style>
<rect x="0.5" y="0.5" width="319" height="179" rx="6" stroke-opacity="0.25"/>
<rect x="12" y="12" width="110" height="6" rx="3" fill="currentColor" stroke="none" fill-opacity="0.55"/>
<rect x="12" y="22" width="170" height="4" rx="2" fill="currentColor" stroke="none" fill-opacity="0.25"/>

<!-- ribbons (drawn under nodes) -->
<g fill="currentColor" stroke="none">
  <!-- left→middle ribbons -->
  <path d="M40,52 C 90,52 90,70 140,70 L140,94 C 90,94 90,68 40,68 Z" fill-opacity="0.28"/>
  <path d="M40,80 C 90,80 90,100 140,100 L140,118 C 90,118 90,88 40,88 Z" fill-opacity="0.38"/>
  <path d="M40,98 C 90,98 90,128 140,128 L140,144 C 90,144 90,112 40,112 Z" fill-opacity="0.2"/>
  <path d="M40,124 C 90,124 90,152 140,152 L140,160 C 90,160 90,140 40,140 Z" fill-opacity="0.5"/>

  <!-- middle→right ribbons -->
  <path d="M188,70 C 238,70 238,58 288,58 L288,78 C 238,78 238,94 188,94 Z" fill-opacity="0.5"/>
  <path d="M188,100 C 238,100 238,92 288,92 L288,110 C 238,110 238,118 188,118 Z" fill-opacity="0.3"/>
  <path d="M188,128 C 238,128 238,128 288,128 L288,146 C 238,146 238,144 188,144 Z" fill-opacity="0.2"/>
</g>

<!-- nodes -->
<g fill="currentColor" stroke="none" fill-opacity="0.85">
  <rect x="36" y="48" width="8" height="24"/>
  <rect x="36" y="76" width="8" height="16"/>
  <rect x="36" y="96" width="8" height="18"/>
  <rect x="36" y="118" width="8" height="28"/>

  <rect x="140" y="66" width="8" height="30"/>
  <rect x="140" y="100" width="8" height="22"/>
  <rect x="140" y="126" width="8" height="40"/>

  <rect x="288" y="54" width="8" height="28"/>
  <rect x="288" y="86" width="8" height="28"/>
  <rect x="288" y="120" width="8" height="32"/>
</g>

<!-- node labels -->
<g fill="currentColor" stroke="none" fill-opacity="0.7">
  <rect x="52" y="56" width="28" height="3" rx="1"/>
  <rect x="52" y="82" width="24" height="3" rx="1"/>
  <rect x="52" y="102" width="28" height="3" rx="1"/>
  <rect x="52" y="128" width="22" height="3" rx="1"/>

  <rect x="156" y="78" width="22" height="3" rx="1"/>
  <rect x="156" y="108" width="20" height="3" rx="1"/>
  <rect x="156" y="142" width="24" height="3" rx="1"/>

  <rect x="254" y="66" width="28" height="3" rx="1"/>
  <rect x="254" y="98" width="28" height="3" rx="1"/>
  <rect x="254" y="134" width="28" height="3" rx="1"/>
</g>
</svg>
