<svg xmlns="http://www.w3.org/2000/svg" viewBox="0 0 320 180" width="320" height="180" fill="none" stroke="currentColor" stroke-width="1.5" stroke-linecap="round" stroke-linejoin="round">
<style id="preview-theme">
  svg { color: #24292f; background: #ffffff; }
  @media (prefers-color-scheme: dark) {
    svg { color: #e6edf3; background: #0d1117; }
  }
</style>
<rect x="0.5" y="0.5" width="319" height="179" rx="6" stroke-opacity="0.25"/>
<rect x="12" y="12" width="80" height="6" rx="3" fill="currentColor" stroke="none" fill-opacity="0.55"/>
<rect x="12" y="22" width="140" height="4" rx="2" fill="currentColor" stroke="none" fill-opacity="0.2"/>

<line x1="96"  y1="40" x2="96"  y2="160" stroke-opacity="0.3"/>
<line x1="224" y1="40" x2="224" y2="160" stroke-opacity="0.3"/>
<g font-family="system-ui,Segoe UI,Arial" font-size="8" fill="currentColor" fill-opacity="0.6" stroke="none">
  <text x="96"  y="34" text-anchor="middle">2024</text>
  <text x="224" y="34" text-anchor="middle">2025</text>
</g>
<circle cx="96" cy="60" r="3" fill="currentColor" fill-opacity="1.05" stroke="none"/>
<circle cx="224" cy="50" r="3" fill="currentColor" fill-opacity="1.05" stroke="none"/>
<line x1="96" y1="60" x2="224" y2="50" stroke="currentColor" stroke-opacity="0.85" stroke-width="2.2"/>
<circle cx="96" cy="70" r="3" fill="currentColor" fill-opacity="0.55" stroke="none"/>
<circle cx="224" cy="78" r="3" fill="currentColor" fill-opacity="0.55" stroke="none"/>
<line x1="96" y1="70" x2="224" y2="78" stroke="currentColor" stroke-opacity="0.35" stroke-width="1.4"/>
<circle cx="96" cy="82" r="3" fill="currentColor" fill-opacity="0.6000000000000001" stroke="none"/>
<circle cx="224" cy="76" r="3" fill="currentColor" fill-opacity="0.6000000000000001" stroke="none"/>
<line x1="96" y1="82" x2="224" y2="76" stroke="currentColor" stroke-opacity="0.4" stroke-width="1.4"/>
<circle cx="96" cy="96" r="3" fill="currentColor" fill-opacity="0.55" stroke="none"/>
<circle cx="224" cy="104" r="3" fill="currentColor" fill-opacity="0.55" stroke="none"/>
<line x1="96" y1="96" x2="224" y2="104" stroke="currentColor" stroke-opacity="0.35" stroke-width="1.4"/>
<circle cx="96" cy="112" r="3" fill="currentColor" fill-opacity="0.75" stroke="none"/>
<circle cx="224" cy="94" r="3" fill="currentColor" fill-opacity="0.75" stroke="none"/>
<line x1="96" y1="112" x2="224" y2="94" stroke="currentColor" stroke-opacity="0.55" stroke-width="1.4"/>
<circle cx="96" cy="126" r="3" fill="currentColor" fill-opacity="0.5" stroke="none"/>
<circle cx="224" cy="140" r="3" fill="currentColor" fill-opacity="0.5" stroke="none"/>
<line x1="96" y1="126" x2="224" y2="140" stroke="currentColor" stroke-opacity="0.3" stroke-width="1.4"/>
<circle cx="96" cy="142" r="3" fill="currentColor" fill-opacity="0.65" stroke="none"/>
<circle cx="224" cy="130" r="3" fill="currentColor" fill-opacity="0.65" stroke="none"/>
<line x1="96" y1="142" x2="224" y2="130" stroke="currentColor" stroke-opacity="0.45" stroke-width="1.4"/>
<circle cx="96" cy="152" r="3" fill="currentColor" fill-opacity="0.5" stroke="none"/>
<circle cx="224" cy="150" r="3" fill="currentColor" fill-opacity="0.5" stroke="none"/>
<line x1="96" y1="152" x2="224" y2="150" stroke="currentColor" stroke-opacity="0.3" stroke-width="1.4"/>
<g font-family="system-ui,Segoe UI,Arial" font-size="7" fill="currentColor" fill-opacity="0.65" stroke="none">
  <text x="92" y="63" text-anchor="end">North</text>
  <text x="228" y="53">North ▲</text>
</g>
</svg>
