<svg xmlns="http://www.w3.org/2000/svg" viewBox="0 0 320 180" width="320" height="180" fill="none" stroke="currentColor" stroke-width="1.5" stroke-linecap="round" stroke-linejoin="round">
<rect x="0.5" y="0.5" width="319" height="179" rx="6" stroke-opacity="0.25"/>
<rect x="12" y="12" width="110" height="6" rx="3" fill="currentColor" stroke="none" fill-opacity="0.55"/>
<rect x="12" y="22" width="170" height="4" rx="2" fill="currentColor" stroke="none" fill-opacity="0.25"/>

<g font-family="system-ui,Segoe UI,Arial" fill="currentColor" stroke="none">
  <!-- table frame -->
  <rect x="16" y="44" width="288" height="122" rx="2" fill-opacity="0.05"/>
  <rect x="16.5" y="44.5" width="287" height="121" rx="2" fill="none" stroke="currentColor" stroke-opacity="0.3"/>
  <!-- header -->
  <rect x="16" y="44" width="288" height="18" fill-opacity="0.12"/>
  <rect x="24" y="51" width="48" height="5" rx="2" fill-opacity="0.9"/>
  <rect x="128" y="51" width="26" height="5" rx="2" fill-opacity="0.9"/>
  <rect x="180" y="51" width="22" height="5" rx="2" fill-opacity="0.9"/>
  <rect x="222" y="51" width="60" height="5" rx="2" fill-opacity="0.9"/>
  <!-- divider lines -->
  <g stroke="currentColor" stroke-opacity="0.2">
    <line x1="16" y1="62" x2="304" y2="62"/>
    <line x1="16" y1="88" x2="304" y2="88"/>
    <line x1="16" y1="114" x2="304" y2="114"/>
    <line x1="16" y1="140" x2="304" y2="140"/>
    <line x1="120" y1="44" x2="120" y2="166"/>
    <line x1="172" y1="44" x2="172" y2="166"/>
    <line x1="214" y1="44" x2="214" y2="166"/>
  </g>
</g>

<!-- row sparklines -->
<g fill="none" stroke="currentColor" stroke-width="1.3">
  <polyline points="222,80 232,72 242,78 252,68 262,72 272,66 282,74 292,70" stroke-opacity="0.85"/>
  <circle cx="292" cy="70" r="1.8" fill="currentColor" stroke="none" fill-opacity="0.9"/>

  <polyline points="222,106 232,100 242,108 252,96 262,104 272,100 282,94 292,102" stroke-opacity="0.85"/>
  <circle cx="292" cy="102" r="1.8" fill="currentColor" stroke="none" fill-opacity="0.9"/>

  <polyline points="222,132 232,128 242,122 252,130 262,120 272,126 282,118 292,122" stroke-opacity="0.85"/>
  <circle cx="292" cy="122" r="1.8" fill="currentColor" stroke="none" fill-opacity="0.9"/>

  <polyline points="222,158 232,152 242,148 252,156 262,150 272,154 282,146 292,152" stroke-opacity="0.85"/>
  <circle cx="292" cy="152" r="1.8" fill="currentColor" stroke="none" fill-opacity="0.9"/>
</g>

<!-- row labels + values + deltas -->
<g font-family="system-ui,Segoe UI,Arial" fill="currentColor" stroke="none">
  <rect x="24" y="77" width="48" height="4" rx="2" fill-opacity="0.75"/>
  <rect x="130" y="77" width="32" height="4" rx="2" fill-opacity="0.6"/>
  <polygon points="178,79 182,75 186,79" fill-opacity="0.8"/>
  <rect x="188" y="77" width="16" height="4" rx="2" fill-opacity="0.7"/>

  <rect x="24" y="103" width="40" height="4" rx="2" fill-opacity="0.75"/>
  <rect x="130" y="103" width="26" height="4" rx="2" fill-opacity="0.6"/>
  <polygon points="178,103 182,107 186,103" fill-opacity="0.6"/>
  <rect x="188" y="103" width="14" height="4" rx="2" fill-opacity="0.6"/>

  <rect x="24" y="129" width="48" height="4" rx="2" fill-opacity="0.75"/>
  <rect x="130" y="129" width="30" height="4" rx="2" fill-opacity="0.6"/>
  <polygon points="178,131 182,127 186,131" fill-opacity="0.8"/>
  <rect x="188" y="129" width="16" height="4" rx="2" fill-opacity="0.7"/>

  <rect x="24" y="155" width="44" height="4" rx="2" fill-opacity="0.75"/>
  <rect x="130" y="155" width="28" height="4" rx="2" fill-opacity="0.6"/>
  <polygon points="178,155 182,159 186,155" fill-opacity="0.6"/>
  <rect x="188" y="155" width="12" height="4" rx="2" fill-opacity="0.6"/>
</g>
</svg>
