<svg xmlns="http://www.w3.org/2000/svg" viewBox="0 0 320 180" width="320" height="180" fill="none" stroke="currentColor" stroke-width="1.5" stroke-linecap="round" stroke-linejoin="round">
<style id="preview-theme">
  svg { color: #24292f; background: #ffffff; }
  @media (prefers-color-scheme: dark) {
    svg { color: #e6edf3; background: #0d1117; }
  }
</style>
<rect x="0.5" y="0.5" width="319" height="179" rx="6" stroke-opacity="0.25"/>
<g fill="currentColor" stroke="none">
  <rect x="30" y="30" width="40" height="120" fill-opacity="0.9"/>
  <rect x="30" y="30" width="40" height="30" fill-opacity="0.55"/>
  <rect x="30" y="60" width="40" height="40" fill-opacity="0.35"/>
  <rect x="90" y="50" width="40" height="100" fill-opacity="0.9"/>
  <rect x="90" y="50" width="40" height="25" fill-opacity="0.55"/>
  <rect x="90" y="75" width="40" height="35" fill-opacity="0.35"/>
  <rect x="150" y="40" width="40" height="110" fill-opacity="0.9"/>
  <rect x="150" y="40" width="40" height="30" fill-opacity="0.55"/>
  <rect x="150" y="70" width="40" height="40" fill-opacity="0.35"/>
  <rect x="210" y="60" width="40" height="90" fill-opacity="0.9"/>
  <rect x="210" y="60" width="40" height="22" fill-opacity="0.55"/>
  <rect x="210" y="82" width="40" height="28" fill-opacity="0.35"/>
  <rect x="270" y="45" width="40" height="105" fill-opacity="0.9"/>
  <rect x="270" y="45" width="40" height="28" fill-opacity="0.55"/>
  <rect x="270" y="73" width="40" height="37" fill-opacity="0.35"/>
  <line x1="12" y1="150" x2="318" y2="150" stroke="currentColor" stroke-opacity="0.4"/>
</g>
</svg>
