<svg xmlns="http://www.w3.org/2000/svg" viewBox="0 0 320 180" width="320" height="180" fill="none" stroke="currentColor" stroke-width="1.5" stroke-linecap="round" stroke-linejoin="round">
<style id="preview-theme">
  svg { color: #24292f; background: #ffffff; }
  @media (prefers-color-scheme: dark) {
    svg { color: #e6edf3; background: #0d1117; }
  }
</style>
<rect x="0.5" y="0.5" width="319" height="179" rx="6" stroke-opacity="0.25"/>
<rect x="12" y="12" width="80" height="6" rx="3" fill="currentColor" stroke="none" fill-opacity="0.55"/>
<rect x="12" y="22" width="140" height="4" rx="2" fill="currentColor" stroke="none" fill-opacity="0.2"/>

<g font-family="system-ui,Segoe UI,Arial" font-size="8" fill="currentColor" fill-opacity="0.6" stroke="none">
  <text x="12" y="54">A</text><text x="12" y="76">B</text>
  <text x="12" y="98">C</text><text x="12" y="120">D</text><text x="12" y="142">E</text>
</g>
<rect x="60" y="46" width="57.6" height="12" fill="currentColor" fill-opacity="0.85" stroke="none"/>
<rect x="117.6" y="46" width="33.6" height="12" fill="currentColor" fill-opacity="0.6" stroke="none"/>
<rect x="151.2" y="46" width="45.6" height="12" fill="currentColor" fill-opacity="0.4" stroke="none"/>
<rect x="196.8" y="46" width="64.8" height="12" fill="currentColor" fill-opacity="0.25" stroke="none"/>
<rect x="261.6" y="46" width="38.4" height="12" fill="currentColor" fill-opacity="0.12" stroke="none"/>
<rect x="60" y="68" width="38.4" height="12" fill="currentColor" fill-opacity="0.85" stroke="none"/>
<rect x="98.4" y="68" width="48" height="12" fill="currentColor" fill-opacity="0.6" stroke="none"/>
<rect x="146.4" y="68" width="55.2" height="12" fill="currentColor" fill-opacity="0.4" stroke="none"/>
<rect x="201.6" y="68" width="55.2" height="12" fill="currentColor" fill-opacity="0.25" stroke="none"/>
<rect x="256.8" y="68" width="43.2" height="12" fill="currentColor" fill-opacity="0.12" stroke="none"/>
<rect x="60" y="90" width="67.2" height="12" fill="currentColor" fill-opacity="0.85" stroke="none"/>
<rect x="127.2" y="90" width="26.4" height="12" fill="currentColor" fill-opacity="0.6" stroke="none"/>
<rect x="153.6" y="90" width="48" height="12" fill="currentColor" fill-opacity="0.4" stroke="none"/>
<rect x="201.6" y="90" width="57.6" height="12" fill="currentColor" fill-opacity="0.25" stroke="none"/>
<rect x="259.2" y="90" width="40.8" height="12" fill="currentColor" fill-opacity="0.12" stroke="none"/>
<rect x="60" y="112" width="26.4" height="12" fill="currentColor" fill-opacity="0.85" stroke="none"/>
<rect x="86.4" y="112" width="45.6" height="12" fill="currentColor" fill-opacity="0.6" stroke="none"/>
<rect x="132" y="112" width="62.4" height="12" fill="currentColor" fill-opacity="0.4" stroke="none"/>
<rect x="194.4" y="112" width="60" height="12" fill="currentColor" fill-opacity="0.25" stroke="none"/>
<rect x="254.4" y="112" width="45.6" height="12" fill="currentColor" fill-opacity="0.12" stroke="none"/>
<rect x="60" y="134" width="48" height="12" fill="currentColor" fill-opacity="0.85" stroke="none"/>
<rect x="108" y="134" width="36" height="12" fill="currentColor" fill-opacity="0.6" stroke="none"/>
<rect x="144" y="134" width="57.6" height="12" fill="currentColor" fill-opacity="0.4" stroke="none"/>
<rect x="201.6" y="134" width="52.8" height="12" fill="currentColor" fill-opacity="0.25" stroke="none"/>
<rect x="254.4" y="134" width="45.6" height="12" fill="currentColor" fill-opacity="0.12" stroke="none"/>
<g font-family="system-ui,Segoe UI,Arial" font-size="7" fill="currentColor" fill-opacity="0.5" stroke="none">
  <text x="60" y="160">0%</text>
  <text x="154" y="160" text-anchor="middle">50%</text>
  <text x="300" y="160" text-anchor="end">100%</text>
</g>
<line x1="60" y1="152" x2="300" y2="152" stroke-opacity="0.25"/>
</svg>
