<svg xmlns="http://www.w3.org/2000/svg" viewBox="0 0 320 180" width="320" height="180" fill="none" stroke="currentColor" stroke-width="1.5" stroke-linecap="round" stroke-linejoin="round">
<style id="preview-theme">
  svg { color: #24292f; background: #ffffff; }
  @media (prefers-color-scheme: dark) {
    svg { color: #e6edf3; background: #0d1117; }
  }
</style>
<rect x="0.5" y="0.5" width="319" height="179" rx="6" stroke-opacity="0.25"/>
<g transform="translate(160 90)" fill="currentColor" stroke="currentColor" stroke-width="1">
  <path d="M 0,-20 A 20,20 0 0 1 17,-10 L 34,-20 A 40,40 0 0 0 0,-40 Z" fill-opacity="0.85" stroke-opacity="0.4"/>
  <path d="M 17,-10 A 20,20 0 0 1 17,10 L 34,20 A 40,40 0 0 0 34,-20 Z" fill-opacity="0.65" stroke-opacity="0.4"/>
  <path d="M 17,10 A 20,20 0 0 1 -17,10 L -34,20 A 40,40 0 0 0 34,20 Z" fill-opacity="0.45" stroke-opacity="0.4"/>
  <path d="M -17,10 A 20,20 0 0 1 -17,-10 L -34,-20 A 40,40 0 0 0 -34,20 Z" fill-opacity="0.3"  stroke-opacity="0.4"/>
  <path d="M -17,-10 A 20,20 0 0 1 0,-20 L 0,-40 A 40,40 0 0 0 -34,-20 Z" fill-opacity="0.55" stroke-opacity="0.4"/>
  <path d="M 34,-20 L 54,-30 A 60,60 0 0 0 0,-60 L 0,-40 A 40,40 0 0 1 34,-20 Z" fill-opacity="0.5" stroke-opacity="0.4"/>
  <path d="M 34,20 L 54,30 A 60,60 0 0 0 54,-30 L 34,-20 A 40,40 0 0 1 34,20 Z" fill-opacity="0.4" stroke-opacity="0.4"/>
  <path d="M -34,20 L -54,30 A 60,60 0 0 0 54,30 L 34,20 A 40,40 0 0 1 -34,20 Z" fill-opacity="0.3" stroke-opacity="0.4"/>
  <path d="M -34,-20 L -54,-30 A 60,60 0 0 0 -54,30 L -34,20 A 40,40 0 0 1 -34,-20 Z" fill-opacity="0.35" stroke-opacity="0.4"/>
  <path d="M 0,-40 L 0,-60 A 60,60 0 0 0 -54,-30 L -34,-20 A 40,40 0 0 1 0,-40 Z" fill-opacity="0.45" stroke-opacity="0.4"/>
  <circle r="20" fill-opacity="0.12"/>
</g>
</svg>
