<svg xmlns="http://www.w3.org/2000/svg" viewBox="0 0 320 180" width="320" height="180" fill="none" stroke="currentColor" stroke-width="1.5" stroke-linecap="round" stroke-linejoin="round">
<style id="preview-theme">
  svg { color: #24292f; background: #ffffff; }
  @media (prefers-color-scheme: dark) {
    svg { color: #e6edf3; background: #0d1117; }
  }
</style>
<rect x="0.5" y="0.5" width="319" height="179" rx="6" stroke-opacity="0.25"/>
<g fill="currentColor" stroke="none">
  <path d="M 16,90 L 16,60 L 60,50 L 100,70 L 140,40 L 180,55 L 220,30 L 260,50 L 304,35 L 304,90 Z" fill-opacity="0.45"/>
  <path d="M 16,90 L 16,120 L 60,130 L 100,110 L 140,140 L 180,125 L 220,150 L 260,130 L 304,145 L 304,90 Z" fill-opacity="0.2"/>
  <line x1="16" y1="90" x2="304" y2="90" stroke="currentColor" stroke-opacity="0.7" stroke-width="1.5"/>
  <polyline points="16,60 60,50 100,70 140,40 180,55 220,30 260,50 304,35" fill="none" stroke="currentColor" stroke-opacity="0.8" stroke-width="1.5"/>
  <polyline points="16,120 60,130 100,110 140,140 180,125 220,150 260,130 304,145" fill="none" stroke="currentColor" stroke-opacity="0.6" stroke-width="1.5" stroke-dasharray="2 2"/>
</g>
</svg>
