<svg xmlns="http://www.w3.org/2000/svg" viewBox="0 0 320 180" width="320" height="180" fill="none" stroke="currentColor" stroke-width="1.5" stroke-linecap="round" stroke-linejoin="round">
<style id="preview-theme">
  svg { color: #24292f; background: #ffffff; }
  @media (prefers-color-scheme: dark) {
    svg { color: #e6edf3; background: #0d1117; }
  }
</style>
<rect x="0.5" y="0.5" width="319" height="179" rx="6" stroke-opacity="0.25"/>
<g fill="currentColor" stroke="none">
  <rect x="12" y="20" width="296" height="14" rx="2" fill-opacity="0.2"/>
  <rect x="20" y="25" width="50" height="4" rx="2" fill-opacity="0.6"/>
  <rect x="90" y="25" width="70" height="4" rx="2" fill-opacity="0.6"/>
  <rect x="180" y="25" width="50" height="4" rx="2" fill-opacity="0.6"/>
  <rect x="250" y="25" width="50" height="4" rx="2" fill-opacity="0.6"/>
</g>
<g stroke="currentColor" stroke-opacity="0.25" stroke-width="1">
  <line x1="12" y1="44" x2="308" y2="44"/>
  <line x1="12" y1="66" x2="308" y2="66"/>
  <line x1="12" y1="88" x2="308" y2="88"/>
  <line x1="12" y1="110" x2="308" y2="110"/>
  <line x1="12" y1="132" x2="308" y2="132"/>
  <line x1="12" y1="154" x2="308" y2="154"/>
</g>
<g fill="currentColor" stroke="none" fill-opacity="0.45">
  <rect x="20" y="52" width="40" height="4" rx="2"/>
  <rect x="90" y="52" width="56" height="4" rx="2"/>
  <rect x="180" y="52" width="36" height="4" rx="2"/>
  <rect x="250" y="52" width="36" height="4" rx="2"/>
  <rect x="20" y="74" width="44" height="4" rx="2"/>
  <rect x="90" y="74" width="48" height="4" rx="2"/>
  <rect x="180" y="74" width="30" height="4" rx="2"/>
  <rect x="250" y="74" width="44" height="4" rx="2"/>
  <rect x="20" y="96" width="40" height="4" rx="2"/>
  <rect x="90" y="96" width="60" height="4" rx="2"/>
  <rect x="180" y="96" width="30" height="4" rx="2"/>
  <rect x="250" y="96" width="40" height="4" rx="2"/>
  <rect x="20" y="118" width="36" height="4" rx="2"/>
  <rect x="90" y="118" width="52" height="4" rx="2"/>
  <rect x="180" y="118" width="36" height="4" rx="2"/>
  <rect x="250" y="118" width="36" height="4" rx="2"/>
  <rect x="20" y="140" width="44" height="4" rx="2"/>
  <rect x="90" y="140" width="48" height="4" rx="2"/>
  <rect x="180" y="140" width="32" height="4" rx="2"/>
  <rect x="250" y="140" width="40" height="4" rx="2"/>
</g>
<rect x="12" y="158" width="296" height="10" fill-opacity="0.12" stroke="none"/>
</svg>
