<svg xmlns="http://www.w3.org/2000/svg" viewBox="0 0 320 180" width="320" height="180" fill="none" stroke="currentColor" stroke-width="1.5" stroke-linecap="round" stroke-linejoin="round">
<rect x="0.5" y="0.5" width="319" height="179" rx="6" stroke-opacity="0.25"/>
<rect x="12" y="12" width="80" height="6" rx="3" fill="currentColor" stroke="none" fill-opacity="0.55"/>
<rect x="12" y="22" width="140" height="4" rx="2" fill="currentColor" stroke="none" fill-opacity="0.2"/>

<line x1="160" y1="44" x2="160" y2="158" stroke="currentColor" stroke-opacity="0.45"/>
<rect x="44" y="48" width="116" height="10" rx="2" fill="currentColor" fill-opacity="0.54" stroke="none"/>
<rect x="160" y="48" width="112" height="10" rx="2" fill="currentColor" fill-opacity="0.9" stroke="none"/>
<rect x="68" y="62" width="92" height="10" rx="2" fill="currentColor" fill-opacity="0.48" stroke="none"/>
<rect x="160" y="62" width="100" height="10" rx="2" fill="currentColor" fill-opacity="0.8" stroke="none"/>
<rect x="82" y="76" width="78" height="10" rx="2" fill="currentColor" fill-opacity="0.42" stroke="none"/>
<rect x="160" y="76" width="86" height="10" rx="2" fill="currentColor" fill-opacity="0.7" stroke="none"/>
<rect x="96" y="90" width="64" height="10" rx="2" fill="currentColor" fill-opacity="0.36" stroke="none"/>
<rect x="160" y="90" width="70" height="10" rx="2" fill="currentColor" fill-opacity="0.6" stroke="none"/>
<rect x="112" y="104" width="48" height="10" rx="2" fill="currentColor" fill-opacity="0.3" stroke="none"/>
<rect x="160" y="104" width="56" height="10" rx="2" fill="currentColor" fill-opacity="0.5" stroke="none"/>
<rect x="124" y="118" width="36" height="10" rx="2" fill="currentColor" fill-opacity="0.24" stroke="none"/>
<rect x="160" y="118" width="44" height="10" rx="2" fill="currentColor" fill-opacity="0.4" stroke="none"/>
<rect x="136" y="132" width="24" height="10" rx="2" fill="currentColor" fill-opacity="0.18" stroke="none"/>
<rect x="160" y="132" width="28" height="10" rx="2" fill="currentColor" fill-opacity="0.3" stroke="none"/>
<rect x="146" y="146" width="14" height="10" rx="2" fill="currentColor" fill-opacity="0.15" stroke="none"/>
<rect x="160" y="146" width="18" height="10" rx="2" fill="currentColor" fill-opacity="0.25" stroke="none"/>
<g font-family="system-ui,Segoe UI,Arial" font-size="8" fill="currentColor" fill-opacity="0.6" stroke="none">
  <text x="38" y="40">−</text>
  <text x="278" y="40">+</text>
</g>
</svg>
