<svg xmlns="http://www.w3.org/2000/svg" viewBox="0 0 320 180" width="320" height="180" fill="none" stroke="currentColor" stroke-width="1.5" stroke-linecap="round" stroke-linejoin="round">
<style id="preview-theme">
  svg { color: #24292f; background: #ffffff; }
  @media (prefers-color-scheme: dark) {
    svg { color: #e6edf3; background: #0d1117; }
  }
</style>
<rect x="0.5" y="0.5" width="319" height="179" rx="6" stroke-opacity="0.25"/>
<rect x="12" y="12" width="80" height="6" rx="3" fill="currentColor" stroke="none" fill-opacity="0.55"/>
<rect x="12" y="22" width="140" height="4" rx="2" fill="currentColor" stroke="none" fill-opacity="0.2"/>
<line x1="30" y1="150" x2="300" y2="150" stroke-opacity="0.35"/>
<line x1="30" y1="150" x2="30" y2="50" stroke-opacity="0.35"/>

<line x1="30" y1="95" x2="300" y2="95" stroke-dasharray="4 3" stroke-opacity="0.35"/>
<polyline points="30,130 60,120 90,125 120,110 150,100 180,95 210,80 240,85 270,70 300,60" stroke="currentColor" stroke-width="2"/>
<g fill="currentColor" stroke="none" fill-opacity="0.85">
  <circle cx="30" cy="130" r="2"/><circle cx="90" cy="125" r="2"/>
  <circle cx="150" cy="100" r="2"/><circle cx="210" cy="80" r="2"/>
  <circle cx="270" cy="70" r="2"/><circle cx="300" cy="60" r="2.5"/>
</g>
<text x="240" y="108" font-family="system-ui,Segoe UI,Arial" font-size="8" fill="currentColor" fill-opacity="0.55" stroke="none">target</text>
</svg>
