<svg xmlns="http://www.w3.org/2000/svg" viewBox="0 0 320 180" width="320" height="180" fill="none" stroke="currentColor" stroke-width="1.5" stroke-linecap="round" stroke-linejoin="round">
<style id="preview-theme">
  svg { color: #24292f; background: #ffffff; }
  @media (prefers-color-scheme: dark) {
    svg { color: #e6edf3; background: #0d1117; }
  }
</style>
<rect x="0.5" y="0.5" width="319" height="179" rx="6" stroke-opacity="0.25"/>
<g fill="currentColor" stroke="currentColor" stroke-opacity="0.5" stroke-width="1">
  <path d="M 70,30 Q 40,60 50,90 Q 40,120 70,150 Q 85,120 80,90 Q 85,60 70,30 Z" fill-opacity="0.55"/>
  <line x1="50" y1="90" x2="80" y2="90" stroke-opacity="0.9" stroke-width="2"/>
  <circle cx="65" cy="90" r="3" fill-opacity="0.9"/>
  <path d="M 150,40 Q 115,70 125,100 Q 115,130 150,155 Q 170,130 165,100 Q 170,70 150,40 Z" fill-opacity="0.55"/>
  <line x1="125" y1="97" x2="165" y2="97" stroke-opacity="0.9" stroke-width="2"/>
  <circle cx="145" cy="97" r="3" fill-opacity="0.9"/>
  <path d="M 235,35 Q 200,65 210,95 Q 200,125 235,150 Q 255,125 250,95 Q 255,65 235,35 Z" fill-opacity="0.55"/>
  <line x1="210" y1="92" x2="250" y2="92" stroke-opacity="0.9" stroke-width="2"/>
  <circle cx="230" cy="92" r="3" fill-opacity="0.9"/>
</g>
<line x1="16" y1="160" x2="304" y2="160" stroke="currentColor" stroke-opacity="0.4"/>
</svg>
