<svg xmlns="http://www.w3.org/2000/svg" viewBox="0 0 320 180" width="320" height="180" fill="none" stroke="currentColor" stroke-width="1.5" stroke-linecap="round" stroke-linejoin="round">
<rect x="0.5" y="0.5" width="319" height="179" rx="6" stroke-opacity="0.25"/>
<rect x="12" y="12" width="80" height="6" rx="3" fill="currentColor" stroke="none" fill-opacity="0.55"/>
<rect x="12" y="22" width="140" height="4" rx="2" fill="currentColor" stroke="none" fill-opacity="0.2"/>
<line x1="30" y1="150" x2="300" y2="150" stroke-opacity="0.35"/>
<line x1="30" y1="150" x2="30" y2="50" stroke-opacity="0.35"/>

<g fill="currentColor" stroke="none">
  <!-- start -->
  <rect x="40"  y="60"  width="24" height="90" fill-opacity="0.55"/>
  <!-- +1 -->
  <rect x="72"  y="44"  width="24" height="16" fill-opacity="0.85"/>
  <!-- +2 -->
  <rect x="104" y="34"  width="24" height="10" fill-opacity="0.85"/>
  <!-- -1 -->
  <rect x="136" y="44"  width="24" height="18" fill-opacity="0.35"/>
  <!-- +3 -->
  <rect x="168" y="36"  width="24" height="8"  fill-opacity="0.85"/>
  <!-- -2 -->
  <rect x="200" y="44"  width="24" height="22" fill-opacity="0.35"/>
  <!-- +4 -->
  <rect x="232" y="38"  width="24" height="6"  fill-opacity="0.85"/>
  <!-- end -->
  <rect x="264" y="38"  width="24" height="112" fill-opacity="0.55"/>
</g>
<g stroke="currentColor" stroke-dasharray="3 2" stroke-opacity="0.45">
  <line x1="64"  y1="60" x2="72"  y2="60"/>
  <line x1="96"  y1="44" x2="104" y2="44"/>
  <line x1="128" y1="34" x2="136" y2="34"/>
  <line x1="160" y1="62" x2="168" y2="62"/>
  <line x1="192" y1="36" x2="200" y2="36"/>
  <line x1="224" y1="66" x2="232" y2="66"/>
  <line x1="256" y1="38" x2="264" y2="38"/>
</g>
</svg>
