<svg xmlns="http://www.w3.org/2000/svg" viewBox="0 0 320 180" width="320" height="180" fill="none" stroke="currentColor" stroke-width="1.5" stroke-linecap="round" stroke-linejoin="round">
<style id="preview-theme">
  svg { color: #24292f; background: #ffffff; }
  @media (prefers-color-scheme: dark) {
    svg { color: #e6edf3; background: #0d1117; }
  }
</style>
<rect x="0.5" y="0.5" width="319" height="179" rx="6" stroke-opacity="0.25"/>
<g fill="currentColor" stroke="none">
  <rect x="40" y="30" width="40" height="24" fill-opacity="0.15"/>
  <rect x="80" y="30" width="40" height="24" fill-opacity="0.35"/>
  <rect x="120" y="30" width="40" height="24" fill-opacity="0.75"/>
  <rect x="160" y="30" width="40" height="24" fill-opacity="0.5"/>
  <rect x="200" y="30" width="40" height="24" fill-opacity="0.25"/>
  <rect x="240" y="30" width="40" height="24" fill-opacity="0.1"/>
  <rect x="40" y="54" width="40" height="24" fill-opacity="0.25"/>
  <rect x="80" y="54" width="40" height="24" fill-opacity="0.6"/>
  <rect x="120" y="54" width="40" height="24" fill-opacity="0.85"/>
  <rect x="160" y="54" width="40" height="24" fill-opacity="0.65"/>
  <rect x="200" y="54" width="40" height="24" fill-opacity="0.4"/>
  <rect x="240" y="54" width="40" height="24" fill-opacity="0.2"/>
  <rect x="40" y="78" width="40" height="24" fill-opacity="0.4"/>
  <rect x="80" y="78" width="40" height="24" fill-opacity="0.7"/>
  <rect x="120" y="78" width="40" height="24" fill-opacity="0.95"/>
  <rect x="160" y="78" width="40" height="24" fill-opacity="0.75"/>
  <rect x="200" y="78" width="40" height="24" fill-opacity="0.5"/>
  <rect x="240" y="78" width="40" height="24" fill-opacity="0.3"/>
  <rect x="40" y="102" width="40" height="24" fill-opacity="0.2"/>
  <rect x="80" y="102" width="40" height="24" fill-opacity="0.45"/>
  <rect x="120" y="102" width="40" height="24" fill-opacity="0.7"/>
  <rect x="160" y="102" width="40" height="24" fill-opacity="0.55"/>
  <rect x="200" y="102" width="40" height="24" fill-opacity="0.35"/>
  <rect x="240" y="102" width="40" height="24" fill-opacity="0.15"/>
  <rect x="40" y="126" width="40" height="24" fill-opacity="0.1"/>
  <rect x="80" y="126" width="40" height="24" fill-opacity="0.3"/>
  <rect x="120" y="126" width="40" height="24" fill-opacity="0.5"/>
  <rect x="160" y="126" width="40" height="24" fill-opacity="0.35"/>
  <rect x="200" y="126" width="40" height="24" fill-opacity="0.2"/>
  <rect x="240" y="126" width="40" height="24" fill-opacity="0.08"/>
</g>
</svg>
