<svg xmlns="http://www.w3.org/2000/svg" viewBox="0 0 320 180" width="320" height="180" fill="none" stroke="currentColor" stroke-width="1.5" stroke-linecap="round" stroke-linejoin="round">
<style id="preview-theme">
  svg { color: #24292f; background: #ffffff; }
  @media (prefers-color-scheme: dark) {
    svg { color: #e6edf3; background: #0d1117; }
  }
</style>
<rect x="0.5" y="0.5" width="319" height="179" rx="6" stroke-opacity="0.25"/>
<rect x="12" y="12" width="80" height="6" rx="3" fill="currentColor" stroke="none" fill-opacity="0.55"/>
<rect x="12" y="22" width="140" height="4" rx="2" fill="currentColor" stroke="none" fill-opacity="0.2"/>
<line x1="30" y1="150" x2="300" y2="150" stroke-opacity="0.35"/>
<line x1="30" y1="150" x2="30" y2="50" stroke-opacity="0.35"/>

<g fill="currentColor" stroke="none">
  <rect x="42" y="92" width="14" height="58" rx="2" fill-opacity="0.85"/>
  <rect x="58" y="104" width="14" height="46" rx="2" fill-opacity="0.35"/>
  <rect x="86" y="80" width="14" height="70" rx="2" fill-opacity="0.85"/>
  <rect x="102" y="88" width="14" height="62" rx="2" fill-opacity="0.35"/>
  <rect x="130" y="68" width="14" height="82" rx="2" fill-opacity="0.85"/>
  <rect x="146" y="78" width="14" height="72" rx="2" fill-opacity="0.35"/>
  <rect x="174" y="84" width="14" height="66" rx="2" fill-opacity="0.85"/>
  <rect x="190" y="72" width="14" height="78" rx="2" fill-opacity="0.35"/>
  <rect x="218" y="58" width="14" height="92" rx="2" fill-opacity="0.85"/>
  <rect x="234" y="70" width="14" height="80" rx="2" fill-opacity="0.35"/>
  <rect x="262" y="50" width="14" height="100" rx="2" fill-opacity="0.85"/>
  <rect x="278" y="66" width="14" height="84" rx="2" fill-opacity="0.35"/>
</g>
<g stroke="currentColor" stroke-opacity="0.55" stroke-width="1.2" fill="none">
  <polyline points="49,92 71,88 93,80 115,72 137,58 159,50 181,70 203,68 225,58 247,54 269,50"/>
</g>
<g fill="currentColor" stroke="none" fill-opacity="0.8">
  <text x="12" y="44" font-family="system-ui,Segoe UI,Arial" font-size="8">CY</text>
  <rect x="28" y="38" width="8" height="6" fill-opacity="0.85"/>
  <text x="42" y="44" font-family="system-ui,Segoe UI,Arial" font-size="8">PY</text>
  <rect x="58" y="38" width="8" height="6" fill-opacity="0.35"/>
</g>
</svg>
