<svg xmlns="http://www.w3.org/2000/svg" viewBox="0 0 320 180" width="320" height="180" fill="none" stroke="currentColor" stroke-width="1.5" stroke-linecap="round" stroke-linejoin="round">
<style id="preview-theme">
  svg { color: #24292f; background: #ffffff; }
  @media (prefers-color-scheme: dark) {
    svg { color: #e6edf3; background: #0d1117; }
  }
</style>
<rect x="0.5" y="0.5" width="319" height="179" rx="6" stroke-opacity="0.25"/>
<g fill="currentColor" stroke="currentColor" stroke-opacity="0.5" stroke-width="1">
  <rect x="16" y="24" width="80" height="14" fill-opacity="0.9"/>
  <rect x="96" y="24" width="60" height="14" fill-opacity="0.9" fill="none" stroke="currentColor" stroke-opacity="0.85"/>
  <rect x="156" y="24" width="70" height="14" fill="url(#crosshatch)" fill-opacity="0.6"/>
  <rect x="226" y="24" width="78" height="14" fill-opacity="0.45"/>
  <rect x="16" y="50" width="64" height="14" fill-opacity="0.9"/>
  <rect x="80" y="50" width="44" height="14" fill-opacity="0.9" fill="none" stroke="currentColor" stroke-opacity="0.85"/>
  <rect x="124" y="50" width="54" height="14" fill-opacity="0.6"/>
  <rect x="178" y="50" width="60" height="14" fill-opacity="0.45"/>
  <rect x="16" y="76" width="100" height="14" fill-opacity="0.9"/>
  <rect x="116" y="76" width="70" height="14" fill-opacity="0.9" fill="none" stroke="currentColor" stroke-opacity="0.85"/>
  <rect x="186" y="76" width="80" height="14" fill-opacity="0.6"/>
  <rect x="266" y="76" width="38" height="14" fill-opacity="0.45"/>
</g>
<g fill="currentColor" stroke="none">
  <polygon points="278,108 290,100 290,116" fill-opacity="0.85"/>
  <rect x="292" y="106" width="20" height="6" fill-opacity="0.45"/>
  <polygon points="278,130 290,122 290,138" fill-opacity="0.85"/>
  <rect x="292" y="128" width="16" height="6" fill-opacity="0.45"/>
  <polygon points="278,152 290,144 290,160" fill-opacity="0.85"/>
</g>
<g fill="currentColor" stroke="none" fill-opacity="0.45" font-family="system-ui" font-size="8">
  <text x="16" y="108">AC</text><text x="40" y="108">PY</text><text x="70" y="108">PL</text><text x="104" y="108">FC</text>
</g>
</svg>
