<svg xmlns="http://www.w3.org/2000/svg" viewBox="0 0 560 300" font-family="sans-serif">
  <title>cvd simulation: accessible-okabe-ito</title>
  <style id="theme-swatch-frame">svg{color:#1f2937;background:#ffffff;}@media (prefers-color-scheme: dark){svg{color:#e5e7eb;background:#111827;}}text{fill:currentColor;}.row-label{font-size:10px;font-weight:bold;fill-opacity:0.8;}.hex{font-family:monospace;font-size:6px;fill-opacity:0.7;}.title{font-size:13px;font-weight:bold;}.sub{font-size:9px;fill-opacity:0.7;}.caption{font-size:8px;fill-opacity:0.8;}</style>
  <rect x="0" y="0" width="560" height="28" fill="#0072B2"/>
  <text x="12" y="18" class="title" fill="#ffffff">CVD Simulation · Accessible / Okabe-Ito</text>
  <text x="548" y="18" class="sub" fill="#ffffff" text-anchor="end" fill-opacity="0.85">Machado 2009 · severity 1.0</text>
  <text x="12" y="68" class="row-label">Normal vision</text>
  <rect x="110" y="48" width="48" height="34" fill="#0072B2" rx="2" ry="2"/>
  <text x="134.0" y="91" class="hex" text-anchor="middle">#0072B2</text>
  <rect x="161" y="48" width="48" height="34" fill="#E69F00" rx="2" ry="2"/>
  <text x="185.0" y="91" class="hex" text-anchor="middle">#E69F00</text>
  <rect x="212" y="48" width="48" height="34" fill="#009E73" rx="2" ry="2"/>
  <text x="236.0" y="91" class="hex" text-anchor="middle">#009E73</text>
  <rect x="263" y="48" width="48" height="34" fill="#56B4E9" rx="2" ry="2"/>
  <text x="287.0" y="91" class="hex" text-anchor="middle">#56B4E9</text>
  <rect x="314" y="48" width="48" height="34" fill="#F0E442" rx="2" ry="2"/>
  <text x="338.0" y="91" class="hex" text-anchor="middle">#F0E442</text>
  <rect x="365" y="48" width="48" height="34" fill="#D55E00" rx="2" ry="2"/>
  <text x="389.0" y="91" class="hex" text-anchor="middle">#D55E00</text>
  <rect x="416" y="48" width="48" height="34" fill="#CC79A7" rx="2" ry="2"/>
  <text x="440.0" y="91" class="hex" text-anchor="middle">#CC79A7</text>
  <rect x="467" y="48" width="48" height="34" fill="#000000" rx="2" ry="2"/>
  <text x="491.0" y="91" class="hex" text-anchor="middle">#000000</text>
  <text x="12" y="128" class="row-label">Deuteranopia</text>
  <rect x="110" y="108" width="48" height="34" fill="#3A55B1" rx="2" ry="2"/>
  <text x="134.0" y="151" class="hex" text-anchor="middle">#3A55B1</text>
  <rect x="161" y="108" width="48" height="34" fill="#DDAB04" rx="2" ry="2"/>
  <text x="185.0" y="151" class="hex" text-anchor="middle">#DDAB04</text>
  <rect x="212" y="108" width="48" height="34" fill="#6E7076" rx="2" ry="2"/>
  <text x="236.0" y="151" class="hex" text-anchor="middle">#6E7076</text>
  <rect x="263" y="108" width="48" height="34" fill="#859CE8" rx="2" ry="2"/>
  <text x="287.0" y="151" class="hex" text-anchor="middle">#859CE8</text>
  <rect x="314" y="108" width="48" height="34" fill="#FFE047" rx="2" ry="2"/>
  <text x="338.0" y="151" class="hex" text-anchor="middle">#FFE047</text>
  <rect x="365" y="108" width="48" height="34" fill="#9F7B01" rx="2" ry="2"/>
  <text x="389.0" y="151" class="hex" text-anchor="middle">#9F7B01</text>
  <rect x="416" y="108" width="48" height="34" fill="#8D92A5" rx="2" ry="2"/>
  <text x="440.0" y="151" class="hex" text-anchor="middle">#8D92A5</text>
  <rect x="467" y="108" width="48" height="34" fill="#000000" rx="2" ry="2"/>
  <text x="491.0" y="151" class="hex" text-anchor="middle">#000000</text>
  <text x="12" y="188" class="row-label">Protanopia</text>
  <rect x="110" y="168" width="48" height="34" fill="#546BB6" rx="2" ry="2"/>
  <text x="134.0" y="211" class="hex" text-anchor="middle">#546BB6</text>
  <rect x="161" y="168" width="48" height="34" fill="#CA9700" rx="2" ry="2"/>
  <text x="185.0" y="211" class="hex" text-anchor="middle">#CA9700</text>
  <rect x="212" y="168" width="48" height="34" fill="#8F8871" rx="2" ry="2"/>
  <text x="236.0" y="211" class="hex" text-anchor="middle">#8F8871</text>
  <rect x="263" y="168" width="48" height="34" fill="#9BAEEC" rx="2" ry="2"/>
  <text x="287.0" y="211" class="hex" text-anchor="middle">#9BAEEC</text>
  <rect x="314" y="168" width="48" height="34" fill="#FFD53A" rx="2" ry="2"/>
  <text x="338.0" y="211" class="hex" text-anchor="middle">#FFD53A</text>
  <rect x="365" y="168" width="48" height="34" fill="#836200" rx="2" ry="2"/>
  <text x="389.0" y="211" class="hex" text-anchor="middle">#836200</text>
  <rect x="416" y="168" width="48" height="34" fill="#7C87A9" rx="2" ry="2"/>
  <text x="440.0" y="211" class="hex" text-anchor="middle">#7C87A9</text>
  <rect x="467" y="168" width="48" height="34" fill="#000000" rx="2" ry="2"/>
  <text x="491.0" y="211" class="hex" text-anchor="middle">#000000</text>
  <text x="12" y="248" class="row-label">Tritanopia</text>
  <rect x="110" y="228" width="48" height="34" fill="#008485" rx="2" ry="2"/>
  <text x="134.0" y="271" class="hex" text-anchor="middle">#008485</text>
  <rect x="161" y="228" width="48" height="34" fill="#FF826F" rx="2" ry="2"/>
  <text x="185.0" y="271" class="hex" text-anchor="middle">#FF826F</text>
  <rect x="212" y="228" width="48" height="34" fill="#00A490" rx="2" ry="2"/>
  <text x="236.0" y="271" class="hex" text-anchor="middle">#00A490</text>
  <rect x="263" y="228" width="48" height="34" fill="#34C3C4" rx="2" ry="2"/>
  <text x="287.0" y="271" class="hex" text-anchor="middle">#34C3C4</text>
  <rect x="314" y="228" width="48" height="34" fill="#FFCBB3" rx="2" ry="2"/>
  <text x="338.0" y="271" class="hex" text-anchor="middle">#FFCBB3</text>
  <rect x="365" y="228" width="48" height="34" fill="#FF4742" rx="2" ry="2"/>
  <text x="389.0" y="271" class="hex" text-anchor="middle">#FF4742</text>
  <rect x="416" y="228" width="48" height="34" fill="#D97987" rx="2" ry="2"/>
  <text x="440.0" y="271" class="hex" text-anchor="middle">#D97987</text>
  <rect x="467" y="228" width="48" height="34" fill="#000000" rx="2" ry="2"/>
  <text x="491.0" y="271" class="hex" text-anchor="middle">#000000</text>
  <text x="12" y="288" class="caption" fill-opacity="0.65">Rows 2-4 show how palette appears to viewers with the named color-vision deficiency.</text>
</svg>
