<svg xmlns="http://www.w3.org/2000/svg" viewBox="0 0 560 300" font-family="sans-serif">
  <title>cvd preview: brand-ibm-carbon-dark</title>
  <style>svg{background:#ffffff;color:#1f2937;}text{fill:currentColor;}.title{font-size:12px;font-weight:bold;}.row{font-size:9px;font-weight:bold;fill-opacity:0.8;}.hex{font-family:monospace;font-size:6.5px;fill:#ffffff;fill-opacity:0.9;}.note{font-size:8px;fill-opacity:0.6;}</style>
  <text x="12" y="18" class="title">Colorblind vision preview — IBM Carbon (Dark)</text>
  <text x="548" y="18" class="note" text-anchor="end">brand-ibm-carbon-dark</text>
  <text x="12" y="32" class="note">Machado-Oliveira-Fernandes 2009 simulation matrices at severity 1.0</text>
  <text x="12" y="62" class="row">Normal vision</text>
  <rect x="100" y="44" width="52" height="48" fill="#2B6EEE" rx="2" ry="2"/>
  <text x="126" y="88" class="hex" text-anchor="middle">#2B6EEE</text>
  <rect x="156" y="44" width="52" height="48" fill="#7F41D7" rx="2" ry="2"/>
  <text x="182" y="88" class="hex" text-anchor="middle">#7F41D7</text>
  <rect x="212" y="44" width="52" height="48" fill="#2BA0EE" rx="2" ry="2"/>
  <text x="238" y="88" class="hex" text-anchor="middle">#2BA0EE</text>
  <rect x="268" y="44" width="52" height="48" fill="#2BEEEE" rx="2" ry="2"/>
  <text x="294" y="88" class="hex" text-anchor="middle">#2BEEEE</text>
  <rect x="324" y="44" width="52" height="48" fill="#E13882" rx="2" ry="2"/>
  <text x="350" y="88" class="hex" text-anchor="middle">#E13882</text>
  <rect x="380" y="44" width="52" height="48" fill="#F1565E" rx="2" ry="2"/>
  <text x="406" y="88" class="hex" text-anchor="middle">#F1565E</text>
  <rect x="436" y="44" width="52" height="48" fill="#EE2B34" rx="2" ry="2"/>
  <text x="462" y="88" class="hex" text-anchor="middle">#EE2B34</text>
  <rect x="492" y="44" width="52" height="48" fill="#3FDA6E" rx="2" ry="2"/>
  <text x="518" y="88" class="hex" text-anchor="middle">#3FDA6E</text>
  <text x="12" y="122" class="row">Deuteranopia</text>
  <rect x="100" y="104" width="52" height="48" fill="#3861EB" rx="2" ry="2"/>
  <text x="126" y="148" class="hex" text-anchor="middle">#3861EB</text>
  <rect x="156" y="104" width="52" height="48" fill="#3659D2" rx="2" ry="2"/>
  <text x="182" y="148" class="hex" text-anchor="middle">#3659D2</text>
  <rect x="212" y="104" width="52" height="48" fill="#6383ED" rx="2" ry="2"/>
  <text x="238" y="148" class="hex" text-anchor="middle">#6383ED</text>
  <rect x="268" y="104" width="52" height="48" fill="#A6B7F0" rx="2" ry="2"/>
  <text x="294" y="148" class="hex" text-anchor="middle">#A6B7F0</text>
  <rect x="324" y="104" width="52" height="48" fill="#656B7E" rx="2" ry="2"/>
  <text x="350" y="148" class="hex" text-anchor="middle">#656B7E</text>
  <rect x="380" y="104" width="52" height="48" fill="#8D825C" rx="2" ry="2"/>
  <text x="406" y="148" class="hex" text-anchor="middle">#8D825C</text>
  <rect x="436" y="104" width="52" height="48" fill="#716231" rx="2" ry="2"/>
  <text x="462" y="148" class="hex" text-anchor="middle">#716231</text>
  <rect x="492" y="104" width="52" height="48" fill="#BAAA73" rx="2" ry="2"/>
  <text x="518" y="148" class="hex" text-anchor="middle">#BAAA73</text>
  <text x="12" y="182" class="row">Protanopia</text>
  <rect x="100" y="164" width="52" height="48" fill="#4A73F5" rx="2" ry="2"/>
  <text x="126" y="208" class="hex" text-anchor="middle">#4A73F5</text>
  <rect x="156" y="164" width="52" height="48" fill="#2C57DF" rx="2" ry="2"/>
  <text x="182" y="208" class="hex" text-anchor="middle">#2C57DF</text>
  <rect x="212" y="164" width="52" height="48" fill="#7E9AF3" rx="2" ry="2"/>
  <text x="238" y="208" class="hex" text-anchor="middle">#7E9AF3</text>
  <rect x="268" y="164" width="52" height="48" fill="#D0D8EF" rx="2" ry="2"/>
  <text x="294" y="208" class="hex" text-anchor="middle">#D0D8EF</text>
  <rect x="324" y="164" width="52" height="48" fill="#435385" rx="2" ry="2"/>
  <text x="350" y="208" class="hex" text-anchor="middle">#435385</text>
  <rect x="380" y="164" width="52" height="48" fill="#6C695E" rx="2" ry="2"/>
  <text x="406" y="208" class="hex" text-anchor="middle">#6C695E</text>
  <rect x="436" y="164" width="52" height="48" fill="#474234" rx="2" ry="2"/>
  <text x="462" y="208" class="hex" text-anchor="middle">#474234</text>
  <rect x="492" y="164" width="52" height="48" fill="#D9BD69" rx="2" ry="2"/>
  <text x="518" y="208" class="hex" text-anchor="middle">#D9BD69</text>
  <text x="12" y="242" class="row">Tritanopia</text>
  <rect x="100" y="224" width="52" height="48" fill="#038695" rx="2" ry="2"/>
  <text x="126" y="268" class="hex" text-anchor="middle">#038695</text>
  <rect x="156" y="224" width="52" height="48" fill="#74526F" rx="2" ry="2"/>
  <text x="182" y="268" class="hex" text-anchor="middle">#74526F</text>
  <rect x="212" y="224" width="52" height="48" fill="#00B5B7" rx="2" ry="2"/>
  <text x="238" y="268" class="hex" text-anchor="middle">#00B5B7</text>
  <rect x="268" y="224" width="52" height="48" fill="#00FDED" rx="2" ry="2"/>
  <text x="294" y="268" class="hex" text-anchor="middle">#00FDED</text>
  <rect x="324" y="224" width="52" height="48" fill="#FF364F" rx="2" ry="2"/>
  <text x="350" y="268" class="hex" text-anchor="middle">#FF364F</text>
  <rect x="380" y="224" width="52" height="48" fill="#FF4B59" rx="2" ry="2"/>
  <text x="406" y="268" class="hex" text-anchor="middle">#FF4B59</text>
  <rect x="436" y="224" width="52" height="48" fill="#FF1D2F" rx="2" ry="2"/>
  <text x="462" y="268" class="hex" text-anchor="middle">#FF1D2F</text>
  <rect x="492" y="224" width="52" height="48" fill="#2BD6B8" rx="2" ry="2"/>
  <text x="518" y="268" class="hex" text-anchor="middle">#2BD6B8</text>
  <text x="12" y="292" class="note">Safety rating: unsafe · min ΔE = 7.02 · worst under tritanopia</text>
</svg>
