<svg xmlns="http://www.w3.org/2000/svg" viewBox="0 0 520 340" font-family="sans-serif">
  <title>theme: brand-stripe</title>
  <style id="theme-swatch-frame">svg{color:#1f2937;background:#ffffff;}@media (prefers-color-scheme: dark){svg{color:#e5e7eb;background:#111827;}}text{fill:currentColor;}.hex{font-family:monospace;font-size:6.5px;fill-opacity:0.7;}.label{font-size:8px;font-weight:bold;fill-opacity:0.75;}.caption{font-size:8px;fill-opacity:0.85;}.title{font-size:13px;font-weight:bold;}.sub{font-size:9px;fill-opacity:0.7;}.chip-label{font-size:8px;font-weight:bold;}.badge{font-size:9px;font-weight:bold;}</style>
  <rect x="0" y="0" width="520" height="28" fill="#635BFF"/>
  <text x="12" y="18" class="title" fill="#ffffff">Stripe Indigo</text>
  <text x="508" y="18" class="sub" fill="#ffffff" text-anchor="end" fill-opacity="0.85">brand-stripe · light</text>
  <rect x="12" y="38" width="60" height="16" rx="3" ry="3" fill="#10893E"/>
  <text x="42" y="50" class="badge" fill="#ffffff" text-anchor="middle">AAA 15.54:1</text>
  <text x="78" y="50" class="caption">text contrast (fg on bg)</text>
  <text x="12" y="68" class="label">DATA COLORS</text>
  <rect x="12" y="74" width="56" height="38" fill="#635BFF" rx="2" ry="2"/>
  <text x="40" y="121" class="hex" text-anchor="middle">#635BFF</text>
  <rect x="72" y="74" width="56" height="38" fill="#00D924" rx="2" ry="2"/>
  <text x="100" y="121" class="hex" text-anchor="middle">#00D924</text>
  <rect x="132" y="74" width="56" height="38" fill="#FF5996" rx="2" ry="2"/>
  <text x="160" y="121" class="hex" text-anchor="middle">#FF5996</text>
  <rect x="192" y="74" width="56" height="38" fill="#F5BE58" rx="2" ry="2"/>
  <text x="220" y="121" class="hex" text-anchor="middle">#F5BE58</text>
  <rect x="252" y="74" width="56" height="38" fill="#0A2540" rx="2" ry="2"/>
  <text x="280" y="121" class="hex" text-anchor="middle">#0A2540</text>
  <rect x="312" y="74" width="56" height="38" fill="#00D4FF" rx="2" ry="2"/>
  <text x="340" y="121" class="hex" text-anchor="middle">#00D4FF</text>
  <rect x="372" y="74" width="56" height="38" fill="#EF5A5A" rx="2" ry="2"/>
  <text x="400" y="121" class="hex" text-anchor="middle">#EF5A5A</text>
  <rect x="432" y="74" width="56" height="38" fill="#8792A2" rx="2" ry="2"/>
  <text x="460" y="121" class="hex" text-anchor="middle">#8792A2</text>
  <text x="12" y="136" class="label">SEMANTIC</text>
  <rect x="12" y="140" width="95" height="20" fill="#00D924" rx="3" ry="3"/>
  <text x="18" y="153" class="chip-label" fill="#ffffff">GOOD</text>
  <text x="103" y="153" class="hex" fill="#ffffff" text-anchor="end" fill-opacity="0.9">#00D924</text>
  <rect x="111" y="140" width="95" height="20" fill="#EF5A5A" rx="3" ry="3"/>
  <text x="117" y="153" class="chip-label" fill="#ffffff">BAD</text>
  <text x="202" y="153" class="hex" fill="#ffffff" text-anchor="end" fill-opacity="0.9">#EF5A5A</text>
  <rect x="210" y="140" width="95" height="20" fill="#8792A2" rx="3" ry="3"/>
  <text x="216" y="153" class="chip-label" fill="#ffffff">NEUTRAL</text>
  <text x="301" y="153" class="hex" fill="#ffffff" text-anchor="end" fill-opacity="0.9">#8792A2</text>
  <rect x="309" y="140" width="95" height="20" fill="#F5BE58" rx="3" ry="3"/>
  <text x="315" y="153" class="chip-label" fill="#000000">WARNING</text>
  <text x="400" y="153" class="hex" fill="#000000" text-anchor="end" fill-opacity="0.9">#F5BE58</text>
  <rect x="408" y="140" width="95" height="20" fill="#635BFF" rx="3" ry="3"/>
  <text x="414" y="153" class="chip-label" fill="#ffffff">INFO</text>
  <text x="499" y="153" class="hex" fill="#ffffff" text-anchor="end" fill-opacity="0.9">#635BFF</text>
  <text x="12" y="176" class="label">SEQUENTIAL RAMPS (light · mid · dark)</text>
  <text x="12" y="191" class="caption">positive</text>
  <rect x="62" y="179" width="22" height="16" fill="#ACEDB6" rx="1" ry="1"/>
  <rect x="86" y="179" width="22" height="16" fill="#00D924" rx="1" ry="1"/>
  <rect x="110" y="179" width="22" height="16" fill="#006210" rx="1" ry="1"/>
  <text x="130" y="191" class="caption">warning</text>
  <rect x="180" y="179" width="22" height="16" fill="#F5E4C6" rx="1" ry="1"/>
  <rect x="204" y="179" width="22" height="16" fill="#F5BE58" rx="1" ry="1"/>
  <rect x="228" y="179" width="22" height="16" fill="#6E5528" rx="1" ry="1"/>
  <text x="248" y="191" class="caption">negative</text>
  <rect x="298" y="179" width="22" height="16" fill="#F3C6C6" rx="1" ry="1"/>
  <rect x="322" y="179" width="22" height="16" fill="#EF5A5A" rx="1" ry="1"/>
  <rect x="346" y="179" width="22" height="16" fill="#6C2828" rx="1" ry="1"/>
  <text x="366" y="191" class="caption">primary</text>
  <rect x="416" y="179" width="22" height="16" fill="#C9C7F8" rx="1" ry="1"/>
  <rect x="440" y="179" width="22" height="16" fill="#635BFF" rx="1" ry="1"/>
  <rect x="464" y="179" width="22" height="16" fill="#2D2973" rx="1" ry="1"/>
  <text x="12" y="210" class="label">NEUTRALS</text>
  <rect x="12" y="214" width="104" height="20" fill="#919DA9" rx="3" ry="3" stroke="currentColor" stroke-opacity="0.15"/>
  <text x="18" y="227" class="chip-label" fill-opacity="0.75">MUTED</text>
  <text x="112" y="227" class="hex" text-anchor="end">#919DA9</text>
  <rect x="120" y="214" width="104" height="20" fill="#C2C8CF" rx="3" ry="3" stroke="currentColor" stroke-opacity="0.15"/>
  <text x="126" y="227" class="chip-label" fill-opacity="0.75">DISABLED</text>
  <text x="220" y="227" class="hex" text-anchor="end">#C2C8CF</text>
  <rect x="228" y="214" width="104" height="20" fill="#E2E5E8" rx="3" ry="3" stroke="currentColor" stroke-opacity="0.15"/>
  <text x="234" y="227" class="chip-label" fill-opacity="0.75">GRIDLINE</text>
  <text x="328" y="227" class="hex" text-anchor="end">#E2E5E8</text>
  <rect x="336" y="214" width="104" height="20" fill="#CED3D9" rx="3" ry="3" stroke="currentColor" stroke-opacity="0.15"/>
  <text x="342" y="227" class="chip-label" fill-opacity="0.75">DIVIDER</text>
  <text x="436" y="227" class="hex" text-anchor="end">#CED3D9</text>
  <text x="12" y="248" class="label">USAGE</text>
  <text x="12" y="264" class="caption">55/30/15 (primary/secondary/accent) · max 4 colors / page</text>
  <text x="12" y="282" class="label">UI</text>
  <rect x="12" y="288" width="200" height="22" fill="#FFFFFF" stroke="#0A2540" stroke-opacity="0.3"/>
  <text x="22" y="302" font-size="11" fill="#0A2540">Aa Sample 1,234</text>
  <rect x="12" y="310" width="200" height="2" fill="#635BFF"/>
  <text x="220" y="302" class="caption">bg #FFFFFF · fg #0A2540 · accent #635BFF</text>
  <text x="508" y="332" class="caption" text-anchor="end" fill-opacity="0.7">Fintech indigo — modern, precise, founder-grade</text>
</svg>
