<svg xmlns="http://www.w3.org/2000/svg" viewBox="0 0 560 300" font-family="sans-serif">
  <title>cvd simulation: consulting-authority</title>
  <style id="theme-swatch-frame">svg{color:#1f2937;background:#ffffff;}@media (prefers-color-scheme: dark){svg{color:#e5e7eb;background:#111827;}}text{fill:currentColor;}.row-label{font-size:10px;font-weight:bold;fill-opacity:0.8;}.hex{font-family:monospace;font-size:6px;fill-opacity:0.7;}.title{font-size:13px;font-weight:bold;}.sub{font-size:9px;fill-opacity:0.7;}.caption{font-size:8px;fill-opacity:0.8;}</style>
  <rect x="0" y="0" width="560" height="28" fill="#005587"/>
  <text x="12" y="18" class="title" fill="#ffffff">CVD Simulation · Consulting / Authority</text>
  <text x="548" y="18" class="sub" fill="#ffffff" text-anchor="end" fill-opacity="0.85">Machado 2009 · severity 1.0</text>
  <text x="12" y="68" class="row-label">Normal vision</text>
  <rect x="110" y="48" width="48" height="34" fill="#005587" rx="2" ry="2"/>
  <text x="134.0" y="91" class="hex" text-anchor="middle">#005587</text>
  <rect x="161" y="48" width="48" height="34" fill="#0076A8" rx="2" ry="2"/>
  <text x="185.0" y="91" class="hex" text-anchor="middle">#0076A8</text>
  <rect x="212" y="48" width="48" height="34" fill="#003F6C" rx="2" ry="2"/>
  <text x="236.0" y="91" class="hex" text-anchor="middle">#003F6C</text>
  <rect x="263" y="48" width="48" height="34" fill="#6B7A8D" rx="2" ry="2"/>
  <text x="287.0" y="91" class="hex" text-anchor="middle">#6B7A8D</text>
  <rect x="314" y="48" width="48" height="34" fill="#D4A846" rx="2" ry="2"/>
  <text x="338.0" y="91" class="hex" text-anchor="middle">#D4A846</text>
  <rect x="365" y="48" width="48" height="34" fill="#7A8A99" rx="2" ry="2"/>
  <text x="389.0" y="91" class="hex" text-anchor="middle">#7A8A99</text>
  <rect x="416" y="48" width="48" height="34" fill="#2D6A4F" rx="2" ry="2"/>
  <text x="440.0" y="91" class="hex" text-anchor="middle">#2D6A4F</text>
  <rect x="467" y="48" width="48" height="34" fill="#A4262C" rx="2" ry="2"/>
  <text x="491.0" y="91" class="hex" text-anchor="middle">#A4262C</text>
  <text x="12" y="128" class="row-label">Deuteranopia</text>
  <rect x="110" y="108" width="48" height="34" fill="#2A4086" rx="2" ry="2"/>
  <text x="134.0" y="151" class="hex" text-anchor="middle">#2A4086</text>
  <rect x="161" y="108" width="48" height="34" fill="#3F57A8" rx="2" ry="2"/>
  <text x="185.0" y="151" class="hex" text-anchor="middle">#3F57A8</text>
  <rect x="212" y="108" width="48" height="34" fill="#1E2F6B" rx="2" ry="2"/>
  <text x="236.0" y="151" class="hex" text-anchor="middle">#1E2F6B</text>
  <rect x="263" y="108" width="48" height="34" fill="#70778D" rx="2" ry="2"/>
  <text x="287.0" y="151" class="hex" text-anchor="middle">#70778D</text>
  <rect x="314" y="108" width="48" height="34" fill="#CEB049" rx="2" ry="2"/>
  <text x="338.0" y="151" class="hex" text-anchor="middle">#CEB049</text>
  <rect x="365" y="108" width="48" height="34" fill="#818699" rx="2" ry="2"/>
  <text x="389.0" y="151" class="hex" text-anchor="middle">#818699</text>
  <rect x="416" y="108" width="48" height="34" fill="#5A5851" rx="2" ry="2"/>
  <text x="440.0" y="151" class="hex" text-anchor="middle">#5A5851</text>
  <rect x="467" y="108" width="48" height="34" fill="#534A2A" rx="2" ry="2"/>
  <text x="491.0" y="151" class="hex" text-anchor="middle">#534A2A</text>
  <text x="12" y="188" class="row-label">Protanopia</text>
  <rect x="110" y="168" width="48" height="34" fill="#3E508A" rx="2" ry="2"/>
  <text x="134.0" y="211" class="hex" text-anchor="middle">#3E508A</text>
  <rect x="161" y="168" width="48" height="34" fill="#5A6DAB" rx="2" ry="2"/>
  <text x="185.0" y="211" class="hex" text-anchor="middle">#5A6DAB</text>
  <rect x="212" y="168" width="48" height="34" fill="#2C3C6F" rx="2" ry="2"/>
  <text x="236.0" y="211" class="hex" text-anchor="middle">#2C3C6F</text>
  <rect x="263" y="168" width="48" height="34" fill="#747A8E" rx="2" ry="2"/>
  <text x="287.0" y="211" class="hex" text-anchor="middle">#747A8E</text>
  <rect x="314" y="168" width="48" height="34" fill="#C3A341" rx="2" ry="2"/>
  <text x="338.0" y="211" class="hex" text-anchor="middle">#C3A341</text>
  <rect x="365" y="168" width="48" height="34" fill="#848A9A" rx="2" ry="2"/>
  <text x="389.0" y="211" class="hex" text-anchor="middle">#848A9A</text>
  <rect x="416" y="168" width="48" height="34" fill="#66604E" rx="2" ry="2"/>
  <text x="440.0" y="211" class="hex" text-anchor="middle">#66604E</text>
  <rect x="467" y="168" width="48" height="34" fill="#38352C" rx="2" ry="2"/>
  <text x="491.0" y="211" class="hex" text-anchor="middle">#38352C</text>
  <text x="12" y="248" class="row-label">Tritanopia</text>
  <rect x="110" y="228" width="48" height="34" fill="#006364" rx="2" ry="2"/>
  <text x="134.0" y="271" class="hex" text-anchor="middle">#006364</text>
  <rect x="161" y="228" width="48" height="34" fill="#008785" rx="2" ry="2"/>
  <text x="185.0" y="271" class="hex" text-anchor="middle">#008785</text>
  <rect x="212" y="228" width="48" height="34" fill="#004B4C" rx="2" ry="2"/>
  <text x="236.0" y="271" class="hex" text-anchor="middle">#004B4C</text>
  <rect x="263" y="228" width="48" height="34" fill="#647E80" rx="2" ry="2"/>
  <text x="287.0" y="271" class="hex" text-anchor="middle">#647E80</text>
  <rect x="314" y="228" width="48" height="34" fill="#F1968A" rx="2" ry="2"/>
  <text x="338.0" y="271" class="hex" text-anchor="middle">#F1968A</text>
  <rect x="365" y="228" width="48" height="34" fill="#738D8E" rx="2" ry="2"/>
  <text x="389.0" y="271" class="hex" text-anchor="middle">#738D8E</text>
  <rect x="416" y="228" width="48" height="34" fill="#226B61" rx="2" ry="2"/>
  <text x="440.0" y="271" class="hex" text-anchor="middle">#226B61</text>
  <rect x="467" y="228" width="48" height="34" fill="#C31D28" rx="2" ry="2"/>
  <text x="491.0" y="271" class="hex" text-anchor="middle">#C31D28</text>
  <text x="12" y="288" class="caption" fill-opacity="0.65">Rows 2-4 show how palette appears to viewers with the named color-vision deficiency.</text>
</svg>
