<svg xmlns="http://www.w3.org/2000/svg" viewBox="0 0 560 300" font-family="sans-serif">
  <title>cvd preview: corporate-financial-dark</title>
  <style>svg{background:#ffffff;color:#1f2937;}text{fill:currentColor;}.title{font-size:12px;font-weight:bold;}.row{font-size:9px;font-weight:bold;fill-opacity:0.8;}.hex{font-family:monospace;font-size:6.5px;fill:#ffffff;fill-opacity:0.9;}.note{font-size:8px;fill-opacity:0.6;}</style>
  <text x="12" y="18" class="title">Colorblind vision preview — Corporate / Financial (Dark)</text>
  <text x="548" y="18" class="note" text-anchor="end">corporate-financial-dark</text>
  <text x="12" y="32" class="note">Machado-Oliveira-Fernandes 2009 simulation matrices at severity 1.0</text>
  <text x="12" y="62" class="row">Normal vision</text>
  <rect x="100" y="44" width="52" height="48" fill="#2B9DEE" rx="2" ry="2"/>
  <text x="126" y="88" class="hex" text-anchor="middle">#2B9DEE</text>
  <rect x="156" y="44" width="52" height="48" fill="#2B99EE" rx="2" ry="2"/>
  <text x="182" y="88" class="hex" text-anchor="middle">#2B99EE</text>
  <rect x="212" y="44" width="52" height="48" fill="#D4A846" rx="2" ry="2"/>
  <text x="238" y="88" class="hex" text-anchor="middle">#D4A846</text>
  <rect x="268" y="44" width="52" height="48" fill="#7D8A9C" rx="2" ry="2"/>
  <text x="294" y="88" class="hex" text-anchor="middle">#7D8A9C</text>
  <rect x="324" y="44" width="52" height="48" fill="#9F60B9" rx="2" ry="2"/>
  <text x="350" y="88" class="hex" text-anchor="middle">#9F60B9</text>
  <rect x="380" y="44" width="52" height="48" fill="#44D581" rx="2" ry="2"/>
  <text x="406" y="88" class="hex" text-anchor="middle">#44D581</text>
  <rect x="436" y="44" width="52" height="48" fill="#E88731" rx="2" ry="2"/>
  <text x="462" y="88" class="hex" text-anchor="middle">#E88731</text>
  <rect x="492" y="44" width="52" height="48" fill="#95A5A6" rx="2" ry="2"/>
  <text x="518" y="88" class="hex" text-anchor="middle">#95A5A6</text>
  <text x="12" y="122" class="row">Deuteranopia</text>
  <rect x="100" y="104" width="52" height="48" fill="#6181ED" rx="2" ry="2"/>
  <text x="126" y="148" class="hex" text-anchor="middle">#6181ED</text>
  <rect x="156" y="104" width="52" height="48" fill="#5D7EED" rx="2" ry="2"/>
  <text x="182" y="148" class="hex" text-anchor="middle">#5D7EED</text>
  <rect x="212" y="104" width="52" height="48" fill="#CEB049" rx="2" ry="2"/>
  <text x="238" y="148" class="hex" text-anchor="middle">#CEB049</text>
  <rect x="268" y="104" width="52" height="48" fill="#81879C" rx="2" ry="2"/>
  <text x="294" y="148" class="hex" text-anchor="middle">#81879C</text>
  <rect x="324" y="104" width="52" height="48" fill="#6376B5" rx="2" ry="2"/>
  <text x="350" y="148" class="hex" text-anchor="middle">#6376B5</text>
  <rect x="380" y="104" width="52" height="48" fill="#B3A885" rx="2" ry="2"/>
  <text x="406" y="148" class="hex" text-anchor="middle">#B3A885</text>
  <rect x="436" y="104" width="52" height="48" fill="#BE9E33" rx="2" ry="2"/>
  <text x="462" y="148" class="hex" text-anchor="middle">#BE9E33</text>
  <rect x="492" y="104" width="52" height="48" fill="#9FA1A6" rx="2" ry="2"/>
  <text x="518" y="148" class="hex" text-anchor="middle">#9FA1A6</text>
  <text x="12" y="182" class="row">Protanopia</text>
  <rect x="100" y="164" width="52" height="48" fill="#7B98F3" rx="2" ry="2"/>
  <text x="126" y="208" class="hex" text-anchor="middle">#7B98F3</text>
  <rect x="156" y="164" width="52" height="48" fill="#7795F3" rx="2" ry="2"/>
  <text x="182" y="208" class="hex" text-anchor="middle">#7795F3</text>
  <rect x="212" y="164" width="52" height="48" fill="#C3A341" rx="2" ry="2"/>
  <text x="238" y="208" class="hex" text-anchor="middle">#C3A341</text>
  <rect x="268" y="164" width="52" height="48" fill="#848A9D" rx="2" ry="2"/>
  <text x="294" y="208" class="hex" text-anchor="middle">#848A9D</text>
  <rect x="324" y="164" width="52" height="48" fill="#5770BD" rx="2" ry="2"/>
  <text x="350" y="208" class="hex" text-anchor="middle">#5770BD</text>
  <rect x="380" y="164" width="52" height="48" fill="#D0BC7D" rx="2" ry="2"/>
  <text x="406" y="208" class="hex" text-anchor="middle">#D0BC7D</text>
  <rect x="436" y="164" width="52" height="48" fill="#A78A2C" rx="2" ry="2"/>
  <text x="462" y="208" class="hex" text-anchor="middle">#A78A2C</text>
  <rect x="492" y="164" width="52" height="48" fill="#A2A3A6" rx="2" ry="2"/>
  <text x="518" y="208" class="hex" text-anchor="middle">#A2A3A6</text>
  <text x="12" y="242" class="row">Tritanopia</text>
  <rect x="100" y="224" width="52" height="48" fill="#00B2B5" rx="2" ry="2"/>
  <text x="126" y="268" class="hex" text-anchor="middle">#00B2B5</text>
  <rect x="156" y="224" width="52" height="48" fill="#00AEB2" rx="2" ry="2"/>
  <text x="182" y="268" class="hex" text-anchor="middle">#00AEB2</text>
  <rect x="212" y="224" width="52" height="48" fill="#F1968A" rx="2" ry="2"/>
  <text x="238" y="268" class="hex" text-anchor="middle">#F1968A</text>
  <rect x="268" y="224" width="52" height="48" fill="#768E8F" rx="2" ry="2"/>
  <text x="294" y="268" class="hex" text-anchor="middle">#768E8F</text>
  <rect x="324" y="224" width="52" height="48" fill="#9F687B" rx="2" ry="2"/>
  <text x="350" y="268" class="hex" text-anchor="middle">#9F687B</text>
  <rect x="380" y="224" width="52" height="48" fill="#2ED4BB" rx="2" ry="2"/>
  <text x="406" y="268" class="hex" text-anchor="middle">#2ED4BB</text>
  <rect x="436" y="224" width="52" height="48" fill="#FF736D" rx="2" ry="2"/>
  <text x="462" y="268" class="hex" text-anchor="middle">#FF736D</text>
  <rect x="492" y="224" width="52" height="48" fill="#91A7A5" rx="2" ry="2"/>
  <text x="518" y="268" class="hex" text-anchor="middle">#91A7A5</text>
  <text x="12" y="292" class="note">Safety rating: unsafe · min ΔE = 1.55 · worst under tritanopia</text>
</svg>
