<svg xmlns="http://www.w3.org/2000/svg" viewBox="0 0 560 300" font-family="sans-serif">
  <title>cvd simulation: corporate-financial</title>
  <style id="theme-swatch-frame">svg{color:#1f2937;background:#ffffff;}@media (prefers-color-scheme: dark){svg{color:#e5e7eb;background:#111827;}}text{fill:currentColor;}.row-label{font-size:10px;font-weight:bold;fill-opacity:0.8;}.hex{font-family:monospace;font-size:6px;fill-opacity:0.7;}.title{font-size:13px;font-weight:bold;}.sub{font-size:9px;fill-opacity:0.7;}.caption{font-size:8px;fill-opacity:0.8;}</style>
  <rect x="0" y="0" width="560" height="28" fill="#003052"/>
  <text x="12" y="18" class="title" fill="#ffffff">CVD Simulation · Corporate / Financial</text>
  <text x="548" y="18" class="sub" fill="#ffffff" text-anchor="end" fill-opacity="0.85">Machado 2009 · severity 1.0</text>
  <text x="12" y="68" class="row-label">Normal vision</text>
  <rect x="110" y="48" width="48" height="34" fill="#003052" rx="2" ry="2"/>
  <text x="134.0" y="91" class="hex" text-anchor="middle">#003052</text>
  <rect x="161" y="48" width="48" height="34" fill="#0078D4" rx="2" ry="2"/>
  <text x="185.0" y="91" class="hex" text-anchor="middle">#0078D4</text>
  <rect x="212" y="48" width="48" height="34" fill="#D4A846" rx="2" ry="2"/>
  <text x="236.0" y="91" class="hex" text-anchor="middle">#D4A846</text>
  <rect x="263" y="48" width="48" height="34" fill="#6B7A8D" rx="2" ry="2"/>
  <text x="287.0" y="91" class="hex" text-anchor="middle">#6B7A8D</text>
  <rect x="314" y="48" width="48" height="34" fill="#9B59B6" rx="2" ry="2"/>
  <text x="338.0" y="91" class="hex" text-anchor="middle">#9B59B6</text>
  <rect x="365" y="48" width="48" height="34" fill="#2ECC71" rx="2" ry="2"/>
  <text x="389.0" y="91" class="hex" text-anchor="middle">#2ECC71</text>
  <rect x="416" y="48" width="48" height="34" fill="#E67E22" rx="2" ry="2"/>
  <text x="440.0" y="91" class="hex" text-anchor="middle">#E67E22</text>
  <rect x="467" y="48" width="48" height="34" fill="#95A5A6" rx="2" ry="2"/>
  <text x="491.0" y="91" class="hex" text-anchor="middle">#95A5A6</text>
  <text x="12" y="128" class="row-label">Deuteranopia</text>
  <rect x="110" y="108" width="48" height="34" fill="#172452" rx="2" ry="2"/>
  <text x="134.0" y="151" class="hex" text-anchor="middle">#172452</text>
  <rect x="161" y="108" width="48" height="34" fill="#375BD3" rx="2" ry="2"/>
  <text x="185.0" y="151" class="hex" text-anchor="middle">#375BD3</text>
  <rect x="212" y="108" width="48" height="34" fill="#CEB049" rx="2" ry="2"/>
  <text x="236.0" y="151" class="hex" text-anchor="middle">#CEB049</text>
  <rect x="263" y="108" width="48" height="34" fill="#70778D" rx="2" ry="2"/>
  <text x="287.0" y="151" class="hex" text-anchor="middle">#70778D</text>
  <rect x="314" y="108" width="48" height="34" fill="#5C70B2" rx="2" ry="2"/>
  <text x="338.0" y="151" class="hex" text-anchor="middle">#5C70B2</text>
  <rect x="365" y="108" width="48" height="34" fill="#A79B76" rx="2" ry="2"/>
  <text x="389.0" y="151" class="hex" text-anchor="middle">#A79B76</text>
  <rect x="416" y="108" width="48" height="34" fill="#B99724" rx="2" ry="2"/>
  <text x="440.0" y="151" class="hex" text-anchor="middle">#B99724</text>
  <rect x="467" y="108" width="48" height="34" fill="#9FA1A6" rx="2" ry="2"/>
  <text x="491.0" y="151" class="hex" text-anchor="middle">#9FA1A6</text>
  <text x="12" y="188" class="row-label">Protanopia</text>
  <rect x="110" y="168" width="48" height="34" fill="#222E54" rx="2" ry="2"/>
  <text x="134.0" y="211" class="hex" text-anchor="middle">#222E54</text>
  <rect x="161" y="168" width="48" height="34" fill="#5373D9" rx="2" ry="2"/>
  <text x="185.0" y="211" class="hex" text-anchor="middle">#5373D9</text>
  <rect x="212" y="168" width="48" height="34" fill="#C3A341" rx="2" ry="2"/>
  <text x="236.0" y="211" class="hex" text-anchor="middle">#C3A341</text>
  <rect x="263" y="168" width="48" height="34" fill="#747A8E" rx="2" ry="2"/>
  <text x="287.0" y="211" class="hex" text-anchor="middle">#747A8E</text>
  <rect x="314" y="168" width="48" height="34" fill="#506ABB" rx="2" ry="2"/>
  <text x="338.0" y="211" class="hex" text-anchor="middle">#506ABB</text>
  <rect x="365" y="168" width="48" height="34" fill="#C7B16D" rx="2" ry="2"/>
  <text x="389.0" y="211" class="hex" text-anchor="middle">#C7B16D</text>
  <rect x="416" y="168" width="48" height="34" fill="#A1811D" rx="2" ry="2"/>
  <text x="440.0" y="211" class="hex" text-anchor="middle">#A1811D</text>
  <rect x="467" y="168" width="48" height="34" fill="#A2A3A6" rx="2" ry="2"/>
  <text x="491.0" y="211" class="hex" text-anchor="middle">#A2A3A6</text>
  <text x="12" y="248" class="row-label">Tritanopia</text>
  <rect x="110" y="228" width="48" height="34" fill="#00393A" rx="2" ry="2"/>
  <text x="134.0" y="271" class="hex" text-anchor="middle">#00393A</text>
  <rect x="161" y="228" width="48" height="34" fill="#008F93" rx="2" ry="2"/>
  <text x="185.0" y="271" class="hex" text-anchor="middle">#008F93</text>
  <rect x="212" y="228" width="48" height="34" fill="#F1968A" rx="2" ry="2"/>
  <text x="236.0" y="271" class="hex" text-anchor="middle">#F1968A</text>
  <rect x="263" y="228" width="48" height="34" fill="#647E80" rx="2" ry="2"/>
  <text x="287.0" y="271" class="hex" text-anchor="middle">#647E80</text>
  <rect x="314" y="228" width="48" height="34" fill="#9B6276" rx="2" ry="2"/>
  <text x="338.0" y="271" class="hex" text-anchor="middle">#9B6276</text>
  <rect x="365" y="228" width="48" height="34" fill="#16CBB0" rx="2" ry="2"/>
  <text x="389.0" y="271" class="hex" text-anchor="middle">#16CBB0</text>
  <rect x="416" y="228" width="48" height="34" fill="#FF6863" rx="2" ry="2"/>
  <text x="440.0" y="271" class="hex" text-anchor="middle">#FF6863</text>
  <rect x="467" y="228" width="48" height="34" fill="#91A6A5" rx="2" ry="2"/>
  <text x="491.0" y="271" class="hex" text-anchor="middle">#91A6A5</text>
  <text x="12" y="288" class="caption" fill-opacity="0.65">Rows 2-4 show how palette appears to viewers with the named color-vision deficiency.</text>
</svg>
