<svg xmlns="http://www.w3.org/2000/svg" viewBox="0 0 560 300" font-family="sans-serif">
  <title>cvd preview: education-edtech-dark</title>
  <style>svg{background:#ffffff;color:#1f2937;}text{fill:currentColor;}.title{font-size:12px;font-weight:bold;}.row{font-size:9px;font-weight:bold;fill-opacity:0.8;}.hex{font-family:monospace;font-size:6.5px;fill:#ffffff;fill-opacity:0.9;}.note{font-size:8px;fill-opacity:0.6;}</style>
  <text x="12" y="18" class="title">Colorblind vision preview — Education / EdTech (Dark)</text>
  <text x="548" y="18" class="note" text-anchor="end">education-edtech-dark</text>
  <text x="12" y="32" class="note">Machado-Oliveira-Fernandes 2009 simulation matrices at severity 1.0</text>
  <text x="12" y="62" class="row">Normal vision</text>
  <rect x="100" y="44" width="52" height="48" fill="#6F5EBB" rx="2" ry="2"/>
  <text x="126" y="88" class="hex" text-anchor="middle">#6F5EBB</text>
  <rect x="156" y="44" width="52" height="48" fill="#2BEEDA" rx="2" ry="2"/>
  <text x="182" y="88" class="hex" text-anchor="middle">#2BEEDA</text>
  <rect x="212" y="44" width="52" height="48" fill="#EE8D2B" rx="2" ry="2"/>
  <text x="238" y="88" class="hex" text-anchor="middle">#EE8D2B</text>
  <rect x="268" y="44" width="52" height="48" fill="#774ECA" rx="2" ry="2"/>
  <text x="294" y="88" class="hex" text-anchor="middle">#774ECA</text>
  <rect x="324" y="44" width="52" height="48" fill="#5DBB61" rx="2" ry="2"/>
  <text x="350" y="88" class="hex" text-anchor="middle">#5DBB61</text>
  <rect x="380" y="44" width="52" height="48" fill="#E63374" rx="2" ry="2"/>
  <text x="406" y="88" class="hex" text-anchor="middle">#E63374</text>
  <rect x="436" y="44" width="52" height="48" fill="#2BD9EE" rx="2" ry="2"/>
  <text x="462" y="88" class="hex" text-anchor="middle">#2BD9EE</text>
  <rect x="492" y="44" width="52" height="48" fill="#A97E6F" rx="2" ry="2"/>
  <text x="518" y="88" class="hex" text-anchor="middle">#A97E6F</text>
  <text x="12" y="122" class="row">Deuteranopia</text>
  <rect x="100" y="104" width="52" height="48" fill="#4F67B8" rx="2" ry="2"/>
  <text x="126" y="148" class="hex" text-anchor="middle">#4F67B8</text>
  <rect x="156" y="104" width="52" height="48" fill="#ABB6DD" rx="2" ry="2"/>
  <text x="182" y="148" class="hex" text-anchor="middle">#ABB6DD</text>
  <rect x="212" y="104" width="52" height="48" fill="#C7A42D" rx="2" ry="2"/>
  <text x="238" y="148" class="hex" text-anchor="middle">#C7A42D</text>
  <rect x="268" y="104" width="52" height="48" fill="#415FC6" rx="2" ry="2"/>
  <text x="294" y="148" class="hex" text-anchor="middle">#415FC6</text>
  <rect x="324" y="104" width="52" height="48" fill="#AD9C65" rx="2" ry="2"/>
  <text x="350" y="148" class="hex" text-anchor="middle">#AD9C65</text>
  <rect x="380" y="104" width="52" height="48" fill="#666870" rx="2" ry="2"/>
  <text x="406" y="148" class="hex" text-anchor="middle">#666870</text>
  <rect x="436" y="104" width="52" height="48" fill="#94A9EF" rx="2" ry="2"/>
  <text x="462" y="148" class="hex" text-anchor="middle">#94A9EF</text>
  <rect x="492" y="104" width="52" height="48" fill="#91896F" rx="2" ry="2"/>
  <text x="518" y="148" class="hex" text-anchor="middle">#91896F</text>
  <text x="12" y="182" class="row">Protanopia</text>
  <rect x="100" y="164" width="52" height="48" fill="#4E69C0" rx="2" ry="2"/>
  <text x="126" y="208" class="hex" text-anchor="middle">#4E69C0</text>
  <rect x="156" y="164" width="52" height="48" fill="#D4D6DA" rx="2" ry="2"/>
  <text x="182" y="208" class="hex" text-anchor="middle">#D4D6DA</text>
  <rect x="212" y="164" width="52" height="48" fill="#B08E26" rx="2" ry="2"/>
  <text x="238" y="208" class="hex" text-anchor="middle">#B08E26</text>
  <rect x="268" y="164" width="52" height="48" fill="#3B5FD0" rx="2" ry="2"/>
  <text x="294" y="208" class="hex" text-anchor="middle">#3B5FD0</text>
  <rect x="324" y="164" width="52" height="48" fill="#BFA75D" rx="2" ry="2"/>
  <text x="350" y="208" class="hex" text-anchor="middle">#BFA75D</text>
  <rect x="380" y="164" width="52" height="48" fill="#414E77" rx="2" ry="2"/>
  <text x="406" y="208" class="hex" text-anchor="middle">#414E77</text>
  <rect x="436" y="164" width="52" height="48" fill="#BAC7F0" rx="2" ry="2"/>
  <text x="462" y="208" class="hex" text-anchor="middle">#BAC7F0</text>
  <rect x="492" y="164" width="52" height="48" fill="#88816E" rx="2" ry="2"/>
  <text x="518" y="208" class="hex" text-anchor="middle">#88816E</text>
  <text x="12" y="242" class="row">Tritanopia</text>
  <rect x="100" y="224" width="52" height="48" fill="#636B7A" rx="2" ry="2"/>
  <text x="126" y="268" class="hex" text-anchor="middle">#636B7A</text>
  <rect x="156" y="224" width="52" height="48" fill="#00FAE7" rx="2" ry="2"/>
  <text x="182" y="268" class="hex" text-anchor="middle">#00FAE7</text>
  <rect x="212" y="224" width="52" height="48" fill="#FF7770" rx="2" ry="2"/>
  <text x="238" y="268" class="hex" text-anchor="middle">#FF7770</text>
  <rect x="268" y="224" width="52" height="48" fill="#6B5D74" rx="2" ry="2"/>
  <text x="294" y="268" class="hex" text-anchor="middle">#6B5D74</text>
  <rect x="324" y="224" width="52" height="48" fill="#55B59F" rx="2" ry="2"/>
  <text x="350" y="268" class="hex" text-anchor="middle">#55B59F</text>
  <rect x="380" y="224" width="52" height="48" fill="#FF2F48" rx="2" ry="2"/>
  <text x="406" y="268" class="hex" text-anchor="middle">#FF2F48</text>
  <rect x="436" y="224" width="52" height="48" fill="#00EADF" rx="2" ry="2"/>
  <text x="462" y="268" class="hex" text-anchor="middle">#00EADF</text>
  <rect x="492" y="224" width="52" height="48" fill="#B7797A" rx="2" ry="2"/>
  <text x="518" y="268" class="hex" text-anchor="middle">#B7797A</text>
  <text x="12" y="292" class="note">Safety rating: unsafe · min ΔE = 7.57 · worst under tritanopia</text>
</svg>
