<svg xmlns="http://www.w3.org/2000/svg" viewBox="0 0 560 300" font-family="sans-serif">
  <title>cvd simulation: education-edtech</title>
  <style id="theme-swatch-frame">svg{color:#1f2937;background:#ffffff;}@media (prefers-color-scheme: dark){svg{color:#e5e7eb;background:#111827;}}text{fill:currentColor;}.row-label{font-size:10px;font-weight:bold;fill-opacity:0.8;}.hex{font-family:monospace;font-size:6px;fill-opacity:0.7;}.title{font-size:13px;font-weight:bold;}.sub{font-size:9px;fill-opacity:0.7;}.caption{font-size:8px;fill-opacity:0.8;}</style>
  <rect x="0" y="0" width="560" height="28" fill="#4A3B8C"/>
  <text x="12" y="18" class="title" fill="#ffffff">CVD Simulation · Education / EdTech</text>
  <text x="548" y="18" class="sub" fill="#ffffff" text-anchor="end" fill-opacity="0.85">Machado 2009 · severity 1.0</text>
  <text x="12" y="68" class="row-label">Normal vision</text>
  <rect x="110" y="48" width="48" height="34" fill="#4A3B8C" rx="2" ry="2"/>
  <text x="134.0" y="91" class="hex" text-anchor="middle">#4A3B8C</text>
  <rect x="161" y="48" width="48" height="34" fill="#00897B" rx="2" ry="2"/>
  <text x="185.0" y="91" class="hex" text-anchor="middle">#00897B</text>
  <rect x="212" y="48" width="48" height="34" fill="#F57C00" rx="2" ry="2"/>
  <text x="236.0" y="91" class="hex" text-anchor="middle">#F57C00</text>
  <rect x="263" y="48" width="48" height="34" fill="#5E35B1" rx="2" ry="2"/>
  <text x="287.0" y="91" class="hex" text-anchor="middle">#5E35B1</text>
  <rect x="314" y="48" width="48" height="34" fill="#43A047" rx="2" ry="2"/>
  <text x="338.0" y="91" class="hex" text-anchor="middle">#43A047</text>
  <rect x="365" y="48" width="48" height="34" fill="#D81B60" rx="2" ry="2"/>
  <text x="389.0" y="91" class="hex" text-anchor="middle">#D81B60</text>
  <rect x="416" y="48" width="48" height="34" fill="#00ACC1" rx="2" ry="2"/>
  <text x="440.0" y="91" class="hex" text-anchor="middle">#00ACC1</text>
  <rect x="467" y="48" width="48" height="34" fill="#6D4C41" rx="2" ry="2"/>
  <text x="491.0" y="91" class="hex" text-anchor="middle">#6D4C41</text>
  <text x="12" y="128" class="row-label">Deuteranopia</text>
  <rect x="110" y="108" width="48" height="34" fill="#2E4389" rx="2" ry="2"/>
  <text x="134.0" y="151" class="hex" text-anchor="middle">#2E4389</text>
  <rect x="161" y="108" width="48" height="34" fill="#5A627D" rx="2" ry="2"/>
  <text x="185.0" y="151" class="hex" text-anchor="middle">#5A627D</text>
  <rect x="212" y="108" width="48" height="34" fill="#C59802" rx="2" ry="2"/>
  <text x="236.0" y="151" class="hex" text-anchor="middle">#C59802</text>
  <rect x="263" y="108" width="48" height="34" fill="#2846AD" rx="2" ry="2"/>
  <text x="287.0" y="151" class="hex" text-anchor="middle">#2846AD</text>
  <rect x="314" y="108" width="48" height="34" fill="#92824B" rx="2" ry="2"/>
  <text x="338.0" y="151" class="hex" text-anchor="middle">#92824B</text>
  <rect x="365" y="108" width="48" height="34" fill="#51535C" rx="2" ry="2"/>
  <text x="389.0" y="151" class="hex" text-anchor="middle">#51535C</text>
  <rect x="416" y="108" width="48" height="34" fill="#687DC2" rx="2" ry="2"/>
  <text x="440.0" y="151" class="hex" text-anchor="middle">#687DC2</text>
  <rect x="467" y="108" width="48" height="34" fill="#5B5541" rx="2" ry="2"/>
  <text x="491.0" y="151" class="hex" text-anchor="middle">#5B5541</text>
  <text x="12" y="188" class="row-label">Protanopia</text>
  <rect x="110" y="168" width="48" height="34" fill="#2D4590" rx="2" ry="2"/>
  <text x="134.0" y="211" class="hex" text-anchor="middle">#2D4590</text>
  <rect x="161" y="168" width="48" height="34" fill="#77787B" rx="2" ry="2"/>
  <text x="185.0" y="211" class="hex" text-anchor="middle">#77787B</text>
  <rect x="212" y="168" width="48" height="34" fill="#A87E00" rx="2" ry="2"/>
  <text x="236.0" y="211" class="hex" text-anchor="middle">#A87E00</text>
  <rect x="263" y="168" width="48" height="34" fill="#2246B7" rx="2" ry="2"/>
  <text x="287.0" y="211" class="hex" text-anchor="middle">#2246B7</text>
  <rect x="314" y="168" width="48" height="34" fill="#A48C43" rx="2" ry="2"/>
  <text x="338.0" y="211" class="hex" text-anchor="middle">#A48C43</text>
  <rect x="365" y="168" width="48" height="34" fill="#2A3863" rx="2" ry="2"/>
  <text x="389.0" y="211" class="hex" text-anchor="middle">#2A3863</text>
  <rect x="416" y="168" width="48" height="34" fill="#8E9AC3" rx="2" ry="2"/>
  <text x="440.0" y="211" class="hex" text-anchor="middle">#8E9AC3</text>
  <rect x="467" y="168" width="48" height="34" fill="#534F40" rx="2" ry="2"/>
  <text x="491.0" y="211" class="hex" text-anchor="middle">#534F40</text>
  <text x="12" y="248" class="row-label">Tritanopia</text>
  <rect x="110" y="228" width="48" height="34" fill="#3F4654" rx="2" ry="2"/>
  <text x="134.0" y="271" class="hex" text-anchor="middle">#3F4654</text>
  <rect x="161" y="228" width="48" height="34" fill="#009284" rx="2" ry="2"/>
  <text x="185.0" y="271" class="hex" text-anchor="middle">#009284</text>
  <rect x="212" y="228" width="48" height="34" fill="#FF6057" rx="2" ry="2"/>
  <text x="236.0" y="271" class="hex" text-anchor="middle">#FF6057</text>
  <rect x="263" y="228" width="48" height="34" fill="#52445B" rx="2" ry="2"/>
  <text x="287.0" y="271" class="hex" text-anchor="middle">#52445B</text>
  <rect x="314" y="228" width="48" height="34" fill="#3B9A84" rx="2" ry="2"/>
  <text x="338.0" y="271" class="hex" text-anchor="middle">#3B9A84</text>
  <rect x="365" y="228" width="48" height="34" fill="#FC1631" rx="2" ry="2"/>
  <text x="389.0" y="271" class="hex" text-anchor="middle">#FC1631</text>
  <rect x="416" y="228" width="48" height="34" fill="#00BDB2" rx="2" ry="2"/>
  <text x="440.0" y="271" class="hex" text-anchor="middle">#00BDB2</text>
  <rect x="467" y="228" width="48" height="34" fill="#774849" rx="2" ry="2"/>
  <text x="491.0" y="271" class="hex" text-anchor="middle">#774849</text>
  <text x="12" y="288" class="caption" fill-opacity="0.65">Rows 2-4 show how palette appears to viewers with the named color-vision deficiency.</text>
</svg>
