<svg xmlns="http://www.w3.org/2000/svg" viewBox="0 0 520 340" font-family="sans-serif">
  <title>theme: education-edtech</title>
  <style id="theme-swatch-frame">svg{color:#1f2937;background:#ffffff;}@media (prefers-color-scheme: dark){svg{color:#e5e7eb;background:#111827;}}text{fill:currentColor;}.hex{font-family:monospace;font-size:6.5px;fill-opacity:0.7;}.label{font-size:8px;font-weight:bold;fill-opacity:0.75;}.caption{font-size:8px;fill-opacity:0.85;}.title{font-size:13px;font-weight:bold;}.sub{font-size:9px;fill-opacity:0.7;}.chip-label{font-size:8px;font-weight:bold;}.badge{font-size:9px;font-weight:bold;}</style>
  <rect x="0" y="0" width="520" height="28" fill="#4A3B8C"/>
  <text x="12" y="18" class="title" fill="#ffffff">Education / EdTech</text>
  <text x="508" y="18" class="sub" fill="#ffffff" text-anchor="end" fill-opacity="0.85">education-edtech · light</text>
  <rect x="12" y="38" width="60" height="16" rx="3" ry="3" fill="#10893E"/>
  <text x="42" y="50" class="badge" fill="#ffffff" text-anchor="middle">AAA 15.91:1</text>
  <text x="78" y="50" class="caption">text contrast (fg on bg)</text>
  <text x="12" y="68" class="label">DATA COLORS</text>
  <rect x="12" y="74" width="56" height="38" fill="#4A3B8C" rx="2" ry="2"/>
  <text x="40.0" y="121" class="hex" text-anchor="middle">#4A3B8C</text>
  <rect x="72" y="74" width="56" height="38" fill="#00897B" rx="2" ry="2"/>
  <text x="100.0" y="121" class="hex" text-anchor="middle">#00897B</text>
  <rect x="132" y="74" width="56" height="38" fill="#F57C00" rx="2" ry="2"/>
  <text x="160.0" y="121" class="hex" text-anchor="middle">#F57C00</text>
  <rect x="192" y="74" width="56" height="38" fill="#5E35B1" rx="2" ry="2"/>
  <text x="220.0" y="121" class="hex" text-anchor="middle">#5E35B1</text>
  <rect x="252" y="74" width="56" height="38" fill="#43A047" rx="2" ry="2"/>
  <text x="280.0" y="121" class="hex" text-anchor="middle">#43A047</text>
  <rect x="312" y="74" width="56" height="38" fill="#D81B60" rx="2" ry="2"/>
  <text x="340.0" y="121" class="hex" text-anchor="middle">#D81B60</text>
  <rect x="372" y="74" width="56" height="38" fill="#00ACC1" rx="2" ry="2"/>
  <text x="400.0" y="121" class="hex" text-anchor="middle">#00ACC1</text>
  <rect x="432" y="74" width="56" height="38" fill="#6D4C41" rx="2" ry="2"/>
  <text x="460.0" y="121" class="hex" text-anchor="middle">#6D4C41</text>
  <text x="12" y="136" class="label">SEMANTIC</text>
  <rect x="12" y="140" width="95" height="20" fill="#43A047" rx="3" ry="3"/>
  <text x="18" y="153" class="chip-label" fill="#ffffff">GOOD</text>
  <text x="103" y="153" class="hex" fill="#ffffff" text-anchor="end" fill-opacity="0.9">#43A047</text>
  <rect x="111" y="140" width="95" height="20" fill="#D81B60" rx="3" ry="3"/>
  <text x="117" y="153" class="chip-label" fill="#ffffff">BAD</text>
  <text x="202" y="153" class="hex" fill="#ffffff" text-anchor="end" fill-opacity="0.9">#D81B60</text>
  <rect x="210" y="140" width="95" height="20" fill="#78909C" rx="3" ry="3"/>
  <text x="216" y="153" class="chip-label" fill="#ffffff">NEUTRAL</text>
  <text x="301" y="153" class="hex" fill="#ffffff" text-anchor="end" fill-opacity="0.9">#78909C</text>
  <rect x="309" y="140" width="95" height="20" fill="#F57C00" rx="3" ry="3"/>
  <text x="315" y="153" class="chip-label" fill="#ffffff">WARNING</text>
  <text x="400" y="153" class="hex" fill="#ffffff" text-anchor="end" fill-opacity="0.9">#F57C00</text>
  <rect x="408" y="140" width="95" height="20" fill="#00897B" rx="3" ry="3"/>
  <text x="414" y="153" class="chip-label" fill="#ffffff">INFO</text>
  <text x="499" y="153" class="hex" fill="#ffffff" text-anchor="end" fill-opacity="0.9">#00897B</text>
  <text x="12" y="176" class="label">SEQUENTIAL RAMPS (light · mid · dark)</text>
  <text x="12" y="191" class="caption">positive</text>
  <rect x="62" y="179" width="22" height="16" fill="#A3D8A5" rx="1" ry="1"/>
  <rect x="86" y="179" width="22" height="16" fill="#42A047" rx="1" ry="1"/>
  <rect x="110" y="179" width="22" height="16" fill="#1D461F" rx="1" ry="1"/>
  <text x="130" y="191" class="caption">warning</text>
  <rect x="180" y="179" width="22" height="16" fill="#FEC78F" rx="1" ry="1"/>
  <rect x="204" y="179" width="22" height="16" fill="#F57B00" rx="1" ry="1"/>
  <rect x="228" y="179" width="22" height="16" fill="#753B00" rx="1" ry="1"/>
  <text x="248" y="191" class="caption">negative</text>
  <rect x="298" y="179" width="22" height="16" fill="#F299BA" rx="1" ry="1"/>
  <rect x="322" y="179" width="22" height="16" fill="#D81A5F" rx="1" ry="1"/>
  <rect x="346" y="179" width="22" height="16" fill="#660C2D" rx="1" ry="1"/>
  <text x="366" y="191" class="caption">primary</text>
  <rect x="416" y="179" width="22" height="16" fill="#9B8FD0" rx="1" ry="1"/>
  <rect x="440" y="179" width="22" height="16" fill="#493B8C" rx="1" ry="1"/>
  <rect x="464" y="179" width="22" height="16" fill="#1C1635" rx="1" ry="1"/>
  <text x="12" y="210" class="label">NEUTRALS</text>
  <rect x="12" y="214" width="104" height="20" fill="#8F8CA3" rx="3" ry="3" stroke="currentColor" stroke-opacity="0.15"/>
  <text x="18" y="227" class="chip-label" fill-opacity="0.75">MUTED</text>
  <text x="112" y="227" class="hex" text-anchor="end">#8F8CA3</text>
  <rect x="120" y="214" width="104" height="20" fill="#CAC6D9" rx="3" ry="3" stroke="currentColor" stroke-opacity="0.15"/>
  <text x="126" y="227" class="chip-label" fill-opacity="0.75">DISABLED</text>
  <text x="220" y="227" class="hex" text-anchor="end">#CAC6D9</text>
  <rect x="228" y="214" width="104" height="20" fill="#EAE6F2" rx="3" ry="3" stroke="currentColor" stroke-opacity="0.15"/>
  <text x="234" y="227" class="chip-label" fill-opacity="0.75">GRIDLINE</text>
  <text x="328" y="227" class="hex" text-anchor="end">#EAE6F2</text>
  <rect x="336" y="214" width="104" height="20" fill="#D4CFE0" rx="3" ry="3" stroke="currentColor" stroke-opacity="0.15"/>
  <text x="342" y="227" class="chip-label" fill-opacity="0.75">DIVIDER</text>
  <text x="436" y="227" class="hex" text-anchor="end">#D4CFE0</text>
  <text x="12" y="248" class="label">USAGE</text>
  <text x="12" y="264" class="caption">55/30/15 (primary/secondary/accent) · max 5 colors / page</text>
  <text x="12" y="282" class="label">UI</text>
  <rect x="12" y="288" width="200" height="22" fill="#FAF7FF" stroke="#1C1B2E" stroke-opacity="0.3"/>
  <text x="22" y="302" font-size="11" fill="#1C1B2E">Aa Sample 1,234</text>
  <rect x="12" y="310" width="200" height="2" fill="#4A3B8C"/>
  <text x="220" y="302" class="caption">bg #FAF7FF · fg #1C1B2E · accent #4A3B8C</text>
  <text x="508" y="332" class="caption" text-anchor="end" fill-opacity="0.7">Scholarly yet modern — warm purples, encouraging</text>
</svg>
