<svg xmlns="http://www.w3.org/2000/svg" viewBox="0 0 560 300" font-family="sans-serif">
  <title>cvd simulation: healthcare-pharma</title>
  <style id="theme-swatch-frame">svg{color:#1f2937;background:#ffffff;}@media (prefers-color-scheme: dark){svg{color:#e5e7eb;background:#111827;}}text{fill:currentColor;}.row-label{font-size:10px;font-weight:bold;fill-opacity:0.8;}.hex{font-family:monospace;font-size:6px;fill-opacity:0.7;}.title{font-size:13px;font-weight:bold;}.sub{font-size:9px;fill-opacity:0.7;}.caption{font-size:8px;fill-opacity:0.8;}</style>
  <rect x="0" y="0" width="560" height="28" fill="#0077B6"/>
  <text x="12" y="18" class="title" fill="#ffffff">CVD Simulation · Healthcare / Pharma</text>
  <text x="548" y="18" class="sub" fill="#ffffff" text-anchor="end" fill-opacity="0.85">Machado 2009 · severity 1.0</text>
  <text x="12" y="68" class="row-label">Normal vision</text>
  <rect x="110" y="48" width="48" height="34" fill="#0077B6" rx="2" ry="2"/>
  <text x="134.0" y="91" class="hex" text-anchor="middle">#0077B6</text>
  <rect x="161" y="48" width="48" height="34" fill="#48CAE4" rx="2" ry="2"/>
  <text x="185.0" y="91" class="hex" text-anchor="middle">#48CAE4</text>
  <rect x="212" y="48" width="48" height="34" fill="#00B4D8" rx="2" ry="2"/>
  <text x="236.0" y="91" class="hex" text-anchor="middle">#00B4D8</text>
  <rect x="263" y="48" width="48" height="34" fill="#90E0EF" rx="2" ry="2"/>
  <text x="287.0" y="91" class="hex" text-anchor="middle">#90E0EF</text>
  <rect x="314" y="48" width="48" height="34" fill="#023E8A" rx="2" ry="2"/>
  <text x="338.0" y="91" class="hex" text-anchor="middle">#023E8A</text>
  <rect x="365" y="48" width="48" height="34" fill="#38B64B" rx="2" ry="2"/>
  <text x="389.0" y="91" class="hex" text-anchor="middle">#38B64B</text>
  <rect x="416" y="48" width="48" height="34" fill="#E63946" rx="2" ry="2"/>
  <text x="440.0" y="91" class="hex" text-anchor="middle">#E63946</text>
  <rect x="467" y="48" width="48" height="34" fill="#457B9D" rx="2" ry="2"/>
  <text x="491.0" y="91" class="hex" text-anchor="middle">#457B9D</text>
  <text x="12" y="128" class="row-label">Deuteranopia</text>
  <rect x="110" y="108" width="48" height="34" fill="#3D59B5" rx="2" ry="2"/>
  <text x="134.0" y="151" class="hex" text-anchor="middle">#3D59B5</text>
  <rect x="161" y="108" width="48" height="34" fill="#94A7E5" rx="2" ry="2"/>
  <text x="185.0" y="151" class="hex" text-anchor="middle">#94A7E5</text>
  <rect x="212" y="108" width="48" height="34" fill="#6A83D9" rx="2" ry="2"/>
  <text x="236.0" y="151" class="hex" text-anchor="middle">#6A83D9</text>
  <rect x="263" y="108" width="48" height="34" fill="#BFCAEF" rx="2" ry="2"/>
  <text x="287.0" y="151" class="hex" text-anchor="middle">#BFCAEF</text>
  <rect x="314" y="108" width="48" height="34" fill="#173188" rx="2" ry="2"/>
  <text x="338.0" y="151" class="hex" text-anchor="middle">#173188</text>
  <rect x="365" y="108" width="48" height="34" fill="#A08E50" rx="2" ry="2"/>
  <text x="389.0" y="151" class="hex" text-anchor="middle">#A08E50</text>
  <rect x="416" y="108" width="48" height="34" fill="#766A44" rx="2" ry="2"/>
  <text x="440.0" y="151" class="hex" text-anchor="middle">#766A44</text>
  <rect x="467" y="108" width="48" height="34" fill="#5F6D9D" rx="2" ry="2"/>
  <text x="491.0" y="151" class="hex" text-anchor="middle">#5F6D9D</text>
  <text x="12" y="188" class="row-label">Protanopia</text>
  <rect x="110" y="168" width="48" height="34" fill="#5870BA" rx="2" ry="2"/>
  <text x="134.0" y="211" class="hex" text-anchor="middle">#5870BA</text>
  <rect x="161" y="168" width="48" height="34" fill="#B1BEE6" rx="2" ry="2"/>
  <text x="185.0" y="211" class="hex" text-anchor="middle">#B1BEE6</text>
  <rect x="212" y="168" width="48" height="34" fill="#91A3DB" rx="2" ry="2"/>
  <text x="236.0" y="211" class="hex" text-anchor="middle">#91A3DB</text>
  <rect x="263" y="168" width="48" height="34" fill="#D1D8F0" rx="2" ry="2"/>
  <text x="287.0" y="211" class="hex" text-anchor="middle">#D1D8F0</text>
  <rect x="314" y="168" width="48" height="34" fill="#253F8E" rx="2" ry="2"/>
  <text x="338.0" y="211" class="hex" text-anchor="middle">#253F8E</text>
  <rect x="365" y="168" width="48" height="34" fill="#B99D46" rx="2" ry="2"/>
  <text x="389.0" y="211" class="hex" text-anchor="middle">#B99D46</text>
  <rect x="416" y="168" width="48" height="34" fill="#514E46" rx="2" ry="2"/>
  <text x="440.0" y="211" class="hex" text-anchor="middle">#514E46</text>
  <rect x="467" y="168" width="48" height="34" fill="#6C789F" rx="2" ry="2"/>
  <text x="491.0" y="211" class="hex" text-anchor="middle">#6C789F</text>
  <text x="12" y="248" class="row-label">Tritanopia</text>
  <rect x="110" y="228" width="48" height="34" fill="#008A8A" rx="2" ry="2"/>
  <text x="134.0" y="271" class="hex" text-anchor="middle">#008A8A</text>
  <rect x="161" y="228" width="48" height="34" fill="#22D8D1" rx="2" ry="2"/>
  <text x="185.0" y="271" class="hex" text-anchor="middle">#22D8D1</text>
  <rect x="212" y="228" width="48" height="34" fill="#00C7BE" rx="2" ry="2"/>
  <text x="236.0" y="271" class="hex" text-anchor="middle">#00C7BE</text>
  <rect x="263" y="228" width="48" height="34" fill="#79E8E4" rx="2" ry="2"/>
  <text x="287.0" y="271" class="hex" text-anchor="middle">#79E8E4</text>
  <rect x="314" y="228" width="48" height="34" fill="#004E55" rx="2" ry="2"/>
  <text x="338.0" y="271" class="hex" text-anchor="middle">#004E55</text>
  <rect x="365" y="228" width="48" height="34" fill="#2BB095" rx="2" ry="2"/>
  <text x="389.0" y="271" class="hex" text-anchor="middle">#2BB095</text>
  <rect x="416" y="228" width="48" height="34" fill="#FF2D3E" rx="2" ry="2"/>
  <text x="440.0" y="271" class="hex" text-anchor="middle">#FF2D3E</text>
  <rect x="467" y="228" width="48" height="34" fill="#318485" rx="2" ry="2"/>
  <text x="491.0" y="271" class="hex" text-anchor="middle">#318485</text>
  <text x="12" y="288" class="caption" fill-opacity="0.65">Rows 2-4 show how palette appears to viewers with the named color-vision deficiency.</text>
</svg>
