<svg xmlns="http://www.w3.org/2000/svg" viewBox="0 0 560 300" font-family="sans-serif">
  <title>cvd simulation: hr-people-analytics</title>
  <style id="theme-swatch-frame">svg{color:#1f2937;background:#ffffff;}@media (prefers-color-scheme: dark){svg{color:#e5e7eb;background:#111827;}}text{fill:currentColor;}.row-label{font-size:10px;font-weight:bold;fill-opacity:0.8;}.hex{font-family:monospace;font-size:6px;fill-opacity:0.7;}.title{font-size:13px;font-weight:bold;}.sub{font-size:9px;fill-opacity:0.7;}.caption{font-size:8px;fill-opacity:0.8;}</style>
  <rect x="0" y="0" width="560" height="28" fill="#00796B"/>
  <text x="12" y="18" class="title" fill="#ffffff">CVD Simulation · HR / People Analytics</text>
  <text x="548" y="18" class="sub" fill="#ffffff" text-anchor="end" fill-opacity="0.85">Machado 2009 · severity 1.0</text>
  <text x="12" y="68" class="row-label">Normal vision</text>
  <rect x="110" y="48" width="48" height="34" fill="#00796B" rx="2" ry="2"/>
  <text x="134.0" y="91" class="hex" text-anchor="middle">#00796B</text>
  <rect x="161" y="48" width="48" height="34" fill="#FF7043" rx="2" ry="2"/>
  <text x="185.0" y="91" class="hex" text-anchor="middle">#FF7043</text>
  <rect x="212" y="48" width="48" height="34" fill="#5C6BC0" rx="2" ry="2"/>
  <text x="236.0" y="91" class="hex" text-anchor="middle">#5C6BC0</text>
  <rect x="263" y="48" width="48" height="34" fill="#26A69A" rx="2" ry="2"/>
  <text x="287.0" y="91" class="hex" text-anchor="middle">#26A69A</text>
  <rect x="314" y="48" width="48" height="34" fill="#EC407A" rx="2" ry="2"/>
  <text x="338.0" y="91" class="hex" text-anchor="middle">#EC407A</text>
  <rect x="365" y="48" width="48" height="34" fill="#8D6E63" rx="2" ry="2"/>
  <text x="389.0" y="91" class="hex" text-anchor="middle">#8D6E63</text>
  <rect x="416" y="48" width="48" height="34" fill="#7CB342" rx="2" ry="2"/>
  <text x="440.0" y="91" class="hex" text-anchor="middle">#7CB342</text>
  <rect x="467" y="48" width="48" height="34" fill="#AB47BC" rx="2" ry="2"/>
  <text x="491.0" y="91" class="hex" text-anchor="middle">#AB47BC</text>
  <text x="12" y="128" class="row-label">Deuteranopia</text>
  <rect x="110" y="108" width="48" height="34" fill="#50566D" rx="2" ry="2"/>
  <text x="134.0" y="151" class="hex" text-anchor="middle">#50566D</text>
  <rect x="161" y="108" width="48" height="34" fill="#AF9643" rx="2" ry="2"/>
  <text x="185.0" y="151" class="hex" text-anchor="middle">#AF9643</text>
  <rect x="212" y="108" width="48" height="34" fill="#526BBE" rx="2" ry="2"/>
  <text x="236.0" y="151" class="hex" text-anchor="middle">#526BBE</text>
  <rect x="263" y="108" width="48" height="34" fill="#7A829C" rx="2" ry="2"/>
  <text x="287.0" y="151" class="hex" text-anchor="middle">#7A829C</text>
  <rect x="314" y="108" width="48" height="34" fill="#727376" rx="2" ry="2"/>
  <text x="338.0" y="151" class="hex" text-anchor="middle">#727376</text>
  <rect x="365" y="108" width="48" height="34" fill="#7C7663" rx="2" ry="2"/>
  <text x="389.0" y="151" class="hex" text-anchor="middle">#7C7663</text>
  <rect x="416" y="108" width="48" height="34" fill="#B99E46" rx="2" ry="2"/>
  <text x="440.0" y="151" class="hex" text-anchor="middle">#B99E46</text>
  <rect x="467" y="108" width="48" height="34" fill="#5168B7" rx="2" ry="2"/>
  <text x="491.0" y="151" class="hex" text-anchor="middle">#5168B7</text>
  <text x="12" y="188" class="row-label">Protanopia</text>
  <rect x="110" y="168" width="48" height="34" fill="#696A6B" rx="2" ry="2"/>
  <text x="134.0" y="211" class="hex" text-anchor="middle">#696A6B</text>
  <rect x="161" y="168" width="48" height="34" fill="#8F7C40" rx="2" ry="2"/>
  <text x="185.0" y="211" class="hex" text-anchor="middle">#8F7C40</text>
  <rect x="212" y="168" width="48" height="34" fill="#5772C4" rx="2" ry="2"/>
  <text x="236.0" y="211" class="hex" text-anchor="middle">#5772C4</text>
  <rect x="263" y="168" width="48" height="34" fill="#95969A" rx="2" ry="2"/>
  <text x="287.0" y="211" class="hex" text-anchor="middle">#95969A</text>
  <rect x="314" y="168" width="48" height="34" fill="#4E5A7C" rx="2" ry="2"/>
  <text x="338.0" y="211" class="hex" text-anchor="middle">#4E5A7C</text>
  <rect x="365" y="168" width="48" height="34" fill="#757062" rx="2" ry="2"/>
  <text x="389.0" y="211" class="hex" text-anchor="middle">#757062</text>
  <rect x="416" y="168" width="48" height="34" fill="#C2A13C" rx="2" ry="2"/>
  <text x="440.0" y="211" class="hex" text-anchor="middle">#C2A13C</text>
  <rect x="467" y="168" width="48" height="34" fill="#3E5EC2" rx="2" ry="2"/>
  <text x="491.0" y="211" class="hex" text-anchor="middle">#3E5EC2</text>
  <text x="12" y="248" class="row-label">Tritanopia</text>
  <rect x="110" y="228" width="48" height="34" fill="#008074" rx="2" ry="2"/>
  <text x="134.0" y="271" class="hex" text-anchor="middle">#008074</text>
  <rect x="161" y="228" width="48" height="34" fill="#FF5E63" rx="2" ry="2"/>
  <text x="185.0" y="271" class="hex" text-anchor="middle">#FF5E63</text>
  <rect x="212" y="228" width="48" height="34" fill="#497985" rx="2" ry="2"/>
  <text x="236.0" y="271" class="hex" text-anchor="middle">#497985</text>
  <rect x="263" y="228" width="48" height="34" fill="#07AEA2" rx="2" ry="2"/>
  <text x="287.0" y="271" class="hex" text-anchor="middle">#07AEA2</text>
  <rect x="314" y="228" width="48" height="34" fill="#FF3B52" rx="2" ry="2"/>
  <text x="338.0" y="271" class="hex" text-anchor="middle">#FF3B52</text>
  <rect x="365" y="228" width="48" height="34" fill="#976A6B" rx="2" ry="2"/>
  <text x="389.0" y="271" class="hex" text-anchor="middle">#976A6B</text>
  <rect x="416" y="228" width="48" height="34" fill="#82A790" rx="2" ry="2"/>
  <text x="440.0" y="271" class="hex" text-anchor="middle">#82A790</text>
  <rect x="467" y="228" width="48" height="34" fill="#B0506B" rx="2" ry="2"/>
  <text x="491.0" y="271" class="hex" text-anchor="middle">#B0506B</text>
  <text x="12" y="288" class="caption" fill-opacity="0.65">Rows 2-4 show how palette appears to viewers with the named color-vision deficiency.</text>
</svg>
