<svg xmlns="http://www.w3.org/2000/svg" viewBox="0 0 560 300" font-family="sans-serif">
  <title>cvd simulation: marketing-digital</title>
  <style id="theme-swatch-frame">svg{color:#1f2937;background:#ffffff;}@media (prefers-color-scheme: dark){svg{color:#e5e7eb;background:#111827;}}text{fill:currentColor;}.row-label{font-size:10px;font-weight:bold;fill-opacity:0.8;}.hex{font-family:monospace;font-size:6px;fill-opacity:0.7;}.title{font-size:13px;font-weight:bold;}.sub{font-size:9px;fill-opacity:0.7;}.caption{font-size:8px;fill-opacity:0.8;}</style>
  <rect x="0" y="0" width="560" height="28" fill="#E91E63"/>
  <text x="12" y="18" class="title" fill="#ffffff">CVD Simulation · Marketing / Digital</text>
  <text x="548" y="18" class="sub" fill="#ffffff" text-anchor="end" fill-opacity="0.85">Machado 2009 · severity 1.0</text>
  <text x="12" y="68" class="row-label">Normal vision</text>
  <rect x="110" y="48" width="48" height="34" fill="#E91E63" rx="2" ry="2"/>
  <text x="134.0" y="91" class="hex" text-anchor="middle">#E91E63</text>
  <rect x="161" y="48" width="48" height="34" fill="#9C27B0" rx="2" ry="2"/>
  <text x="185.0" y="91" class="hex" text-anchor="middle">#9C27B0</text>
  <rect x="212" y="48" width="48" height="34" fill="#00BCD4" rx="2" ry="2"/>
  <text x="236.0" y="91" class="hex" text-anchor="middle">#00BCD4</text>
  <rect x="263" y="48" width="48" height="34" fill="#FFC107" rx="2" ry="2"/>
  <text x="287.0" y="91" class="hex" text-anchor="middle">#FFC107</text>
  <rect x="314" y="48" width="48" height="34" fill="#3F51B5" rx="2" ry="2"/>
  <text x="338.0" y="91" class="hex" text-anchor="middle">#3F51B5</text>
  <rect x="365" y="48" width="48" height="34" fill="#FF5722" rx="2" ry="2"/>
  <text x="389.0" y="91" class="hex" text-anchor="middle">#FF5722</text>
  <rect x="416" y="48" width="48" height="34" fill="#4CAF50" rx="2" ry="2"/>
  <text x="440.0" y="91" class="hex" text-anchor="middle">#4CAF50</text>
  <rect x="467" y="48" width="48" height="34" fill="#607D8B" rx="2" ry="2"/>
  <text x="491.0" y="91" class="hex" text-anchor="middle">#607D8B</text>
  <text x="12" y="128" class="row-label">Deuteranopia</text>
  <rect x="110" y="108" width="48" height="34" fill="#595A5E" rx="2" ry="2"/>
  <text x="134.0" y="151" class="hex" text-anchor="middle">#595A5E</text>
  <rect x="161" y="108" width="48" height="34" fill="#334EAA" rx="2" ry="2"/>
  <text x="185.0" y="151" class="hex" text-anchor="middle">#334EAA</text>
  <rect x="212" y="108" width="48" height="34" fill="#7288D6" rx="2" ry="2"/>
  <text x="236.0" y="151" class="hex" text-anchor="middle">#7288D6</text>
  <rect x="263" y="108" width="48" height="34" fill="#FFCA0C" rx="2" ry="2"/>
  <text x="287.0" y="151" class="hex" text-anchor="middle">#FFCA0C</text>
  <rect x="314" y="108" width="48" height="34" fill="#3451B2" rx="2" ry="2"/>
  <text x="338.0" y="151" class="hex" text-anchor="middle">#3451B2</text>
  <rect x="365" y="108" width="48" height="34" fill="#A18422" rx="2" ry="2"/>
  <text x="389.0" y="151" class="hex" text-anchor="middle">#A18422</text>
  <rect x="416" y="108" width="48" height="34" fill="#A08F54" rx="2" ry="2"/>
  <text x="440.0" y="151" class="hex" text-anchor="middle">#A08F54</text>
  <rect x="467" y="108" width="48" height="34" fill="#6F768B" rx="2" ry="2"/>
  <text x="491.0" y="151" class="hex" text-anchor="middle">#6F768B</text>
  <text x="12" y="188" class="row-label">Protanopia</text>
  <rect x="110" y="168" width="48" height="34" fill="#2F3C66" rx="2" ry="2"/>
  <text x="134.0" y="211" class="hex" text-anchor="middle">#2F3C66</text>
  <rect x="161" y="168" width="48" height="34" fill="#1D42B7" rx="2" ry="2"/>
  <text x="185.0" y="211" class="hex" text-anchor="middle">#1D42B7</text>
  <rect x="212" y="168" width="48" height="34" fill="#9BA9D6" rx="2" ry="2"/>
  <text x="236.0" y="211" class="hex" text-anchor="middle">#9BA9D6</text>
  <rect x="263" y="168" width="48" height="34" fill="#F1B600" rx="2" ry="2"/>
  <text x="287.0" y="211" class="hex" text-anchor="middle">#F1B600</text>
  <rect x="314" y="168" width="48" height="34" fill="#3A59BA" rx="2" ry="2"/>
  <text x="338.0" y="211" class="hex" text-anchor="middle">#3A59BA</text>
  <rect x="365" y="168" width="48" height="34" fill="#7B651F" rx="2" ry="2"/>
  <text x="389.0" y="211" class="hex" text-anchor="middle">#7B651F</text>
  <rect x="416" y="168" width="48" height="34" fill="#B39A4B" rx="2" ry="2"/>
  <text x="440.0" y="211" class="hex" text-anchor="middle">#B39A4B</text>
  <rect x="467" y="168" width="48" height="34" fill="#767B8C" rx="2" ry="2"/>
  <text x="491.0" y="211" class="hex" text-anchor="middle">#767B8C</text>
  <text x="12" y="248" class="row-label">Tritanopia</text>
  <rect x="110" y="228" width="48" height="34" fill="#FF1834" rx="2" ry="2"/>
  <text x="134.0" y="271" class="hex" text-anchor="middle">#FF1834</text>
  <rect x="161" y="228" width="48" height="34" fill="#A13251" rx="2" ry="2"/>
  <text x="185.0" y="271" class="hex" text-anchor="middle">#A13251</text>
  <rect x="212" y="228" width="48" height="34" fill="#00CEC2" rx="2" ry="2"/>
  <text x="236.0" y="271" class="hex" text-anchor="middle">#00CEC2</text>
  <rect x="263" y="228" width="48" height="34" fill="#FFA189" rx="2" ry="2"/>
  <text x="287.0" y="271" class="hex" text-anchor="middle">#FFA189</text>
  <rect x="314" y="228" width="48" height="34" fill="#28616F" rx="2" ry="2"/>
  <text x="338.0" y="271" class="hex" text-anchor="middle">#28616F</text>
  <rect x="365" y="228" width="48" height="34" fill="#FF4248" rx="2" ry="2"/>
  <text x="389.0" y="271" class="hex" text-anchor="middle">#FF4248</text>
  <rect x="416" y="228" width="48" height="34" fill="#44A992" rx="2" ry="2"/>
  <text x="440.0" y="271" class="hex" text-anchor="middle">#44A992</text>
  <rect x="467" y="228" width="48" height="34" fill="#568181" rx="2" ry="2"/>
  <text x="491.0" y="271" class="hex" text-anchor="middle">#568181</text>
  <text x="12" y="288" class="caption" fill-opacity="0.65">Rows 2-4 show how palette appears to viewers with the named color-vision deficiency.</text>
</svg>
