<svg xmlns="http://www.w3.org/2000/svg" viewBox="0 0 560 300" font-family="sans-serif">
  <title>cvd simulation: nord-frost</title>
  <style id="theme-swatch-frame">svg{color:#1f2937;background:#ffffff;}@media (prefers-color-scheme: dark){svg{color:#e5e7eb;background:#111827;}}text{fill:currentColor;}.row-label{font-size:10px;font-weight:bold;fill-opacity:0.8;}.hex{font-family:monospace;font-size:6px;fill-opacity:0.7;}.title{font-size:13px;font-weight:bold;}.sub{font-size:9px;fill-opacity:0.7;}.caption{font-size:8px;fill-opacity:0.8;}</style>
  <rect x="0" y="0" width="560" height="28" fill="#5E81AC"/>
  <text x="12" y="18" class="title" fill="#ffffff">CVD Simulation · Nord / Frost</text>
  <text x="548" y="18" class="sub" fill="#ffffff" text-anchor="end" fill-opacity="0.85">Machado 2009 · severity 1.0</text>
  <text x="12" y="68" class="row-label">Normal vision</text>
  <rect x="110" y="48" width="48" height="34" fill="#5E81AC" rx="2" ry="2"/>
  <text x="134.0" y="91" class="hex" text-anchor="middle">#5E81AC</text>
  <rect x="161" y="48" width="48" height="34" fill="#88C0D0" rx="2" ry="2"/>
  <text x="185.0" y="91" class="hex" text-anchor="middle">#88C0D0</text>
  <rect x="212" y="48" width="48" height="34" fill="#81A1C1" rx="2" ry="2"/>
  <text x="236.0" y="91" class="hex" text-anchor="middle">#81A1C1</text>
  <rect x="263" y="48" width="48" height="34" fill="#8FBCBB" rx="2" ry="2"/>
  <text x="287.0" y="91" class="hex" text-anchor="middle">#8FBCBB</text>
  <rect x="314" y="48" width="48" height="34" fill="#A3BE8C" rx="2" ry="2"/>
  <text x="338.0" y="91" class="hex" text-anchor="middle">#A3BE8C</text>
  <rect x="365" y="48" width="48" height="34" fill="#EBCB8B" rx="2" ry="2"/>
  <text x="389.0" y="91" class="hex" text-anchor="middle">#EBCB8B</text>
  <rect x="416" y="48" width="48" height="34" fill="#D08770" rx="2" ry="2"/>
  <text x="440.0" y="91" class="hex" text-anchor="middle">#D08770</text>
  <rect x="467" y="48" width="48" height="34" fill="#B48EAD" rx="2" ry="2"/>
  <text x="491.0" y="91" class="hex" text-anchor="middle">#B48EAD</text>
  <text x="12" y="128" class="row-label">Deuteranopia</text>
  <rect x="110" y="108" width="48" height="34" fill="#6A79AB" rx="2" ry="2"/>
  <text x="134.0" y="151" class="hex" text-anchor="middle">#6A79AB</text>
  <rect x="161" y="108" width="48" height="34" fill="#A8B1D0" rx="2" ry="2"/>
  <text x="185.0" y="151" class="hex" text-anchor="middle">#A8B1D0</text>
  <rect x="212" y="108" width="48" height="34" fill="#8E9AC0" rx="2" ry="2"/>
  <text x="236.0" y="151" class="hex" text-anchor="middle">#8E9AC0</text>
  <rect x="263" y="108" width="48" height="34" fill="#ACAFBC" rx="2" ry="2"/>
  <text x="287.0" y="151" class="hex" text-anchor="middle">#ACAFBC</text>
  <rect x="314" y="108" width="48" height="34" fill="#BFB48E" rx="2" ry="2"/>
  <text x="338.0" y="151" class="hex" text-anchor="middle">#BFB48E</text>
  <rect x="365" y="108" width="48" height="34" fill="#E5D18D" rx="2" ry="2"/>
  <text x="389.0" y="151" class="hex" text-anchor="middle">#E5D18D</text>
  <rect x="416" y="108" width="48" height="34" fill="#A79A70" rx="2" ry="2"/>
  <text x="440.0" y="151" class="hex" text-anchor="middle">#A79A70</text>
  <rect x="467" y="108" width="48" height="34" fill="#959AAC" rx="2" ry="2"/>
  <text x="491.0" y="151" class="hex" text-anchor="middle">#959AAC</text>
  <text x="12" y="188" class="row-label">Protanopia</text>
  <rect x="110" y="168" width="48" height="34" fill="#7381AE" rx="2" ry="2"/>
  <text x="134.0" y="211" class="hex" text-anchor="middle">#7381AE</text>
  <rect x="161" y="168" width="48" height="34" fill="#B4BBD1" rx="2" ry="2"/>
  <text x="185.0" y="211" class="hex" text-anchor="middle">#B4BBD1</text>
  <rect x="212" y="168" width="48" height="34" fill="#96A0C3" rx="2" ry="2"/>
  <text x="236.0" y="211" class="hex" text-anchor="middle">#96A0C3</text>
  <rect x="263" y="168" width="48" height="34" fill="#B5B7BB" rx="2" ry="2"/>
  <text x="287.0" y="211" class="hex" text-anchor="middle">#B5B7BB</text>
  <rect x="314" y="168" width="48" height="34" fill="#C4B68A" rx="2" ry="2"/>
  <text x="338.0" y="211" class="hex" text-anchor="middle">#C4B68A</text>
  <rect x="365" y="168" width="48" height="34" fill="#DDC888" rx="2" ry="2"/>
  <text x="389.0" y="211" class="hex" text-anchor="middle">#DDC888</text>
  <rect x="416" y="168" width="48" height="34" fill="#978D6F" rx="2" ry="2"/>
  <text x="440.0" y="211" class="hex" text-anchor="middle">#978D6F</text>
  <rect x="467" y="168" width="48" height="34" fill="#8D95AE" rx="2" ry="2"/>
  <text x="491.0" y="211" class="hex" text-anchor="middle">#8D95AE</text>
  <text x="12" y="248" class="row-label">Tritanopia</text>
  <rect x="110" y="228" width="48" height="34" fill="#4D8A8E" rx="2" ry="2"/>
  <text x="134.0" y="271" class="hex" text-anchor="middle">#4D8A8E</text>
  <rect x="161" y="228" width="48" height="34" fill="#77C7C5" rx="2" ry="2"/>
  <text x="185.0" y="271" class="hex" text-anchor="middle">#77C7C5</text>
  <rect x="212" y="228" width="48" height="34" fill="#73A8AB" rx="2" ry="2"/>
  <text x="236.0" y="271" class="hex" text-anchor="middle">#73A8AB</text>
  <rect x="263" y="228" width="48" height="34" fill="#84BFBB" rx="2" ry="2"/>
  <text x="287.0" y="271" class="hex" text-anchor="middle">#84BFBB</text>
  <rect x="314" y="228" width="48" height="34" fill="#A5B9AF" rx="2" ry="2"/>
  <text x="338.0" y="271" class="hex" text-anchor="middle">#A5B9AF</text>
  <rect x="365" y="228" width="48" height="34" fill="#FFBFB8" rx="2" ry="2"/>
  <text x="389.0" y="271" class="hex" text-anchor="middle">#FFBFB8</text>
  <rect x="416" y="228" width="48" height="34" fill="#E77E80" rx="2" ry="2"/>
  <text x="440.0" y="271" class="hex" text-anchor="middle">#E77E80</text>
  <rect x="467" y="228" width="48" height="34" fill="#B89098" rx="2" ry="2"/>
  <text x="491.0" y="271" class="hex" text-anchor="middle">#B89098</text>
  <text x="12" y="288" class="caption" fill-opacity="0.65">Rows 2-4 show how palette appears to viewers with the named color-vision deficiency.</text>
</svg>
