<svg xmlns="http://www.w3.org/2000/svg" viewBox="0 0 560 300" font-family="sans-serif">
  <title>cvd simulation: public-sector-gov</title>
  <style id="theme-swatch-frame">svg{color:#1f2937;background:#ffffff;}@media (prefers-color-scheme: dark){svg{color:#e5e7eb;background:#111827;}}text{fill:currentColor;}.row-label{font-size:10px;font-weight:bold;fill-opacity:0.8;}.hex{font-family:monospace;font-size:6px;fill-opacity:0.7;}.title{font-size:13px;font-weight:bold;}.sub{font-size:9px;fill-opacity:0.7;}.caption{font-size:8px;fill-opacity:0.8;}</style>
  <rect x="0" y="0" width="560" height="28" fill="#1A3A5F"/>
  <text x="12" y="18" class="title" fill="#ffffff">CVD Simulation · Public Sector / Government</text>
  <text x="548" y="18" class="sub" fill="#ffffff" text-anchor="end" fill-opacity="0.85">Machado 2009 · severity 1.0</text>
  <text x="12" y="68" class="row-label">Normal vision</text>
  <rect x="110" y="48" width="48" height="34" fill="#1A3A5F" rx="2" ry="2"/>
  <text x="134.0" y="91" class="hex" text-anchor="middle">#1A3A5F</text>
  <rect x="161" y="48" width="48" height="34" fill="#C41E3A" rx="2" ry="2"/>
  <text x="185.0" y="91" class="hex" text-anchor="middle">#C41E3A</text>
  <rect x="212" y="48" width="48" height="34" fill="#5A6D7F" rx="2" ry="2"/>
  <text x="236.0" y="91" class="hex" text-anchor="middle">#5A6D7F</text>
  <rect x="263" y="48" width="48" height="34" fill="#D4A017" rx="2" ry="2"/>
  <text x="287.0" y="91" class="hex" text-anchor="middle">#D4A017</text>
  <rect x="314" y="48" width="48" height="34" fill="#2E5E4E" rx="2" ry="2"/>
  <text x="338.0" y="91" class="hex" text-anchor="middle">#2E5E4E</text>
  <rect x="365" y="48" width="48" height="34" fill="#8B5A3C" rx="2" ry="2"/>
  <text x="389.0" y="91" class="hex" text-anchor="middle">#8B5A3C</text>
  <rect x="416" y="48" width="48" height="34" fill="#6B7F2C" rx="2" ry="2"/>
  <text x="440.0" y="91" class="hex" text-anchor="middle">#6B7F2C</text>
  <rect x="467" y="48" width="48" height="34" fill="#A89384" rx="2" ry="2"/>
  <text x="491.0" y="91" class="hex" text-anchor="middle">#A89384</text>
  <text x="12" y="128" class="row-label">Deuteranopia</text>
  <rect x="110" y="108" width="48" height="34" fill="#26335E" rx="2" ry="2"/>
  <text x="134.0" y="151" class="hex" text-anchor="middle">#26335E</text>
  <rect x="161" y="108" width="48" height="34" fill="#554E37" rx="2" ry="2"/>
  <text x="185.0" y="151" class="hex" text-anchor="middle">#554E37</text>
  <rect x="212" y="108" width="48" height="34" fill="#62697F" rx="2" ry="2"/>
  <text x="236.0" y="151" class="hex" text-anchor="middle">#62697F</text>
  <rect x="263" y="108" width="48" height="34" fill="#D2A81B" rx="2" ry="2"/>
  <text x="287.0" y="151" class="hex" text-anchor="middle">#D2A81B</text>
  <rect x="314" y="108" width="48" height="34" fill="#50504F" rx="2" ry="2"/>
  <text x="338.0" y="151" class="hex" text-anchor="middle">#50504F</text>
  <rect x="365" y="108" width="48" height="34" fill="#73663C" rx="2" ry="2"/>
  <text x="389.0" y="151" class="hex" text-anchor="middle">#73663C</text>
  <rect x="416" y="108" width="48" height="34" fill="#8B752F" rx="2" ry="2"/>
  <text x="440.0" y="151" class="hex" text-anchor="middle">#8B752F</text>
  <rect x="467" y="108" width="48" height="34" fill="#9E9884" rx="2" ry="2"/>
  <text x="491.0" y="151" class="hex" text-anchor="middle">#9E9884</text>
  <text x="12" y="188" class="row-label">Protanopia</text>
  <rect x="110" y="168" width="48" height="34" fill="#2E3A61" rx="2" ry="2"/>
  <text x="134.0" y="211" class="hex" text-anchor="middle">#2E3A61</text>
  <rect x="161" y="168" width="48" height="34" fill="#31343B" rx="2" ry="2"/>
  <text x="185.0" y="211" class="hex" text-anchor="middle">#31343B</text>
  <rect x="212" y="168" width="48" height="34" fill="#666D80" rx="2" ry="2"/>
  <text x="236.0" y="211" class="hex" text-anchor="middle">#666D80</text>
  <rect x="263" y="168" width="48" height="34" fill="#C49810" rx="2" ry="2"/>
  <text x="287.0" y="211" class="hex" text-anchor="middle">#C49810</text>
  <rect x="314" y="168" width="48" height="34" fill="#5A574D" rx="2" ry="2"/>
  <text x="338.0" y="211" class="hex" text-anchor="middle">#5A574D</text>
  <rect x="365" y="168" width="48" height="34" fill="#685D3A" rx="2" ry="2"/>
  <text x="389.0" y="211" class="hex" text-anchor="middle">#685D3A</text>
  <rect x="416" y="168" width="48" height="34" fill="#8D7428" rx="2" ry="2"/>
  <text x="440.0" y="211" class="hex" text-anchor="middle">#8D7428</text>
  <rect x="467" y="168" width="48" height="34" fill="#999483" rx="2" ry="2"/>
  <text x="491.0" y="211" class="hex" text-anchor="middle">#999483</text>
  <text x="12" y="248" class="row-label">Tritanopia</text>
  <rect x="110" y="228" width="48" height="34" fill="#0B4245" rx="2" ry="2"/>
  <text x="134.0" y="271" class="hex" text-anchor="middle">#0B4245</text>
  <rect x="161" y="228" width="48" height="34" fill="#E91527" rx="2" ry="2"/>
  <text x="185.0" y="271" class="hex" text-anchor="middle">#E91527</text>
  <rect x="212" y="228" width="48" height="34" fill="#527172" rx="2" ry="2"/>
  <text x="236.0" y="271" class="hex" text-anchor="middle">#527172</text>
  <rect x="263" y="228" width="48" height="34" fill="#FA8877" rx="2" ry="2"/>
  <text x="287.0" y="271" class="hex" text-anchor="middle">#FA8877</text>
  <rect x="314" y="228" width="48" height="34" fill="#255F59" rx="2" ry="2"/>
  <text x="338.0" y="271" class="hex" text-anchor="middle">#255F59</text>
  <rect x="365" y="228" width="48" height="34" fill="#9D5251" rx="2" ry="2"/>
  <text x="389.0" y="271" class="hex" text-anchor="middle">#9D5251</text>
  <rect x="416" y="228" width="48" height="34" fill="#757466" rx="2" ry="2"/>
  <text x="440.0" y="271" class="hex" text-anchor="middle">#757466</text>
  <rect x="467" y="228" width="48" height="34" fill="#B08F8F" rx="2" ry="2"/>
  <text x="491.0" y="271" class="hex" text-anchor="middle">#B08F8F</text>
  <text x="12" y="288" class="caption" fill-opacity="0.65">Rows 2-4 show how palette appears to viewers with the named color-vision deficiency.</text>
</svg>
