<svg xmlns="http://www.w3.org/2000/svg" viewBox="0 0 560 300" font-family="sans-serif">
  <title>cvd simulation: real-estate-hospitality</title>
  <style id="theme-swatch-frame">svg{color:#1f2937;background:#ffffff;}@media (prefers-color-scheme: dark){svg{color:#e5e7eb;background:#111827;}}text{fill:currentColor;}.row-label{font-size:10px;font-weight:bold;fill-opacity:0.8;}.hex{font-family:monospace;font-size:6px;fill-opacity:0.7;}.title{font-size:13px;font-weight:bold;}.sub{font-size:9px;fill-opacity:0.7;}.caption{font-size:8px;fill-opacity:0.8;}</style>
  <rect x="0" y="0" width="560" height="28" fill="#8C6239"/>
  <text x="12" y="18" class="title" fill="#ffffff">CVD Simulation · Real Estate / Hospitality</text>
  <text x="548" y="18" class="sub" fill="#ffffff" text-anchor="end" fill-opacity="0.85">Machado 2009 · severity 1.0</text>
  <text x="12" y="68" class="row-label">Normal vision</text>
  <rect x="110" y="48" width="48" height="34" fill="#8C6239" rx="2" ry="2"/>
  <text x="134.0" y="91" class="hex" text-anchor="middle">#8C6239</text>
  <rect x="161" y="48" width="48" height="34" fill="#3E5C47" rx="2" ry="2"/>
  <text x="185.0" y="91" class="hex" text-anchor="middle">#3E5C47</text>
  <rect x="212" y="48" width="48" height="34" fill="#C9A96E" rx="2" ry="2"/>
  <text x="236.0" y="91" class="hex" text-anchor="middle">#C9A96E</text>
  <rect x="263" y="48" width="48" height="34" fill="#5D4E37" rx="2" ry="2"/>
  <text x="287.0" y="91" class="hex" text-anchor="middle">#5D4E37</text>
  <rect x="314" y="48" width="48" height="34" fill="#B8794A" rx="2" ry="2"/>
  <text x="338.0" y="91" class="hex" text-anchor="middle">#B8794A</text>
  <rect x="365" y="48" width="48" height="34" fill="#2C3E50" rx="2" ry="2"/>
  <text x="389.0" y="91" class="hex" text-anchor="middle">#2C3E50</text>
  <rect x="416" y="48" width="48" height="34" fill="#D4AF37" rx="2" ry="2"/>
  <text x="440.0" y="91" class="hex" text-anchor="middle">#D4AF37</text>
  <rect x="467" y="48" width="48" height="34" fill="#A8C4A2" rx="2" ry="2"/>
  <text x="491.0" y="91" class="hex" text-anchor="middle">#A8C4A2</text>
  <text x="12" y="128" class="row-label">Deuteranopia</text>
  <rect x="110" y="108" width="48" height="34" fill="#7B6C3A" rx="2" ry="2"/>
  <text x="134.0" y="151" class="hex" text-anchor="middle">#7B6C3A</text>
  <rect x="161" y="108" width="48" height="34" fill="#565348" rx="2" ry="2"/>
  <text x="185.0" y="151" class="hex" text-anchor="middle">#565348</text>
  <rect x="212" y="108" width="48" height="34" fill="#C2AF6F" rx="2" ry="2"/>
  <text x="236.0" y="151" class="hex" text-anchor="middle">#C2AF6F</text>
  <rect x="263" y="108" width="48" height="34" fill="#595138" rx="2" ry="2"/>
  <text x="287.0" y="151" class="hex" text-anchor="middle">#595138</text>
  <rect x="314" y="108" width="48" height="34" fill="#9B884B" rx="2" ry="2"/>
  <text x="338.0" y="151" class="hex" text-anchor="middle">#9B884B</text>
  <rect x="365" y="108" width="48" height="34" fill="#333A50" rx="2" ry="2"/>
  <text x="389.0" y="151" class="hex" text-anchor="middle">#333A50</text>
  <rect x="416" y="108" width="48" height="34" fill="#D8B43A" rx="2" ry="2"/>
  <text x="440.0" y="151" class="hex" text-anchor="middle">#D8B43A</text>
  <rect x="467" y="108" width="48" height="34" fill="#C1BBA3" rx="2" ry="2"/>
  <text x="491.0" y="151" class="hex" text-anchor="middle">#C1BBA3</text>
  <text x="12" y="188" class="row-label">Protanopia</text>
  <rect x="110" y="168" width="48" height="34" fill="#716337" rx="2" ry="2"/>
  <text x="134.0" y="211" class="hex" text-anchor="middle">#716337</text>
  <rect x="161" y="168" width="48" height="34" fill="#5C5646" rx="2" ry="2"/>
  <text x="185.0" y="211" class="hex" text-anchor="middle">#5C5646</text>
  <rect x="212" y="168" width="48" height="34" fill="#BAA76B" rx="2" ry="2"/>
  <text x="236.0" y="211" class="hex" text-anchor="middle">#BAA76B</text>
  <rect x="263" y="168" width="48" height="34" fill="#554D36" rx="2" ry="2"/>
  <text x="287.0" y="211" class="hex" text-anchor="middle">#554D36</text>
  <rect x="314" y="168" width="48" height="34" fill="#8C7C47" rx="2" ry="2"/>
  <text x="338.0" y="211" class="hex" text-anchor="middle">#8C7C47</text>
  <rect x="365" y="168" width="48" height="34" fill="#383E51" rx="2" ry="2"/>
  <text x="389.0" y="211" class="hex" text-anchor="middle">#383E51</text>
  <rect x="416" y="168" width="48" height="34" fill="#CDA731" rx="2" ry="2"/>
  <text x="440.0" y="211" class="hex" text-anchor="middle">#CDA731</text>
  <rect x="467" y="168" width="48" height="34" fill="#C7BDA0" rx="2" ry="2"/>
  <text x="491.0" y="211" class="hex" text-anchor="middle">#C7BDA0</text>
  <text x="12" y="248" class="row-label">Tritanopia</text>
  <rect x="110" y="228" width="48" height="34" fill="#9E5956" rx="2" ry="2"/>
  <text x="134.0" y="271" class="hex" text-anchor="middle">#9E5956</text>
  <rect x="161" y="228" width="48" height="34" fill="#3A5B55" rx="2" ry="2"/>
  <text x="185.0" y="271" class="hex" text-anchor="middle">#3A5B55</text>
  <rect x="212" y="228" width="48" height="34" fill="#DC9E97" rx="2" ry="2"/>
  <text x="236.0" y="271" class="hex" text-anchor="middle">#DC9E97</text>
  <rect x="263" y="228" width="48" height="34" fill="#654947" rx="2" ry="2"/>
  <text x="287.0" y="271" class="hex" text-anchor="middle">#654947</text>
  <rect x="314" y="228" width="48" height="34" fill="#D16D6B" rx="2" ry="2"/>
  <text x="338.0" y="271" class="hex" text-anchor="middle">#D16D6B</text>
  <rect x="365" y="228" width="48" height="34" fill="#244243" rx="2" ry="2"/>
  <text x="389.0" y="271" class="hex" text-anchor="middle">#244243</text>
  <rect x="416" y="228" width="48" height="34" fill="#F39A8B" rx="2" ry="2"/>
  <text x="440.0" y="271" class="hex" text-anchor="middle">#F39A8B</text>
  <rect x="467" y="228" width="48" height="34" fill="#A7C1BA" rx="2" ry="2"/>
  <text x="491.0" y="271" class="hex" text-anchor="middle">#A7C1BA</text>
  <text x="12" y="288" class="caption" fill-opacity="0.65">Rows 2-4 show how palette appears to viewers with the named color-vision deficiency.</text>
</svg>
