<svg xmlns="http://www.w3.org/2000/svg" viewBox="0 0 560 300" font-family="sans-serif">
  <title>cvd simulation: supply-chain-logistics</title>
  <style id="theme-swatch-frame">svg{color:#1f2937;background:#ffffff;}@media (prefers-color-scheme: dark){svg{color:#e5e7eb;background:#111827;}}text{fill:currentColor;}.row-label{font-size:10px;font-weight:bold;fill-opacity:0.8;}.hex{font-family:monospace;font-size:6px;fill-opacity:0.7;}.title{font-size:13px;font-weight:bold;}.sub{font-size:9px;fill-opacity:0.7;}.caption{font-size:8px;fill-opacity:0.8;}</style>
  <rect x="0" y="0" width="560" height="28" fill="#012A4A"/>
  <text x="12" y="18" class="title" fill="#ffffff">CVD Simulation · Supply Chain / Logistics</text>
  <text x="548" y="18" class="sub" fill="#ffffff" text-anchor="end" fill-opacity="0.85">Machado 2009 · severity 1.0</text>
  <text x="12" y="68" class="row-label">Normal vision</text>
  <rect x="110" y="48" width="48" height="34" fill="#012A4A" rx="2" ry="2"/>
  <text x="134.0" y="91" class="hex" text-anchor="middle">#012A4A</text>
  <rect x="161" y="48" width="48" height="34" fill="#01497C" rx="2" ry="2"/>
  <text x="185.0" y="91" class="hex" text-anchor="middle">#01497C</text>
  <rect x="212" y="48" width="48" height="34" fill="#014F86" rx="2" ry="2"/>
  <text x="236.0" y="91" class="hex" text-anchor="middle">#014F86</text>
  <rect x="263" y="48" width="48" height="34" fill="#2A6F97" rx="2" ry="2"/>
  <text x="287.0" y="91" class="hex" text-anchor="middle">#2A6F97</text>
  <rect x="314" y="48" width="48" height="34" fill="#468FAF" rx="2" ry="2"/>
  <text x="338.0" y="91" class="hex" text-anchor="middle">#468FAF</text>
  <rect x="365" y="48" width="48" height="34" fill="#8AD4EB" rx="2" ry="2"/>
  <text x="389.0" y="91" class="hex" text-anchor="middle">#8AD4EB</text>
  <rect x="416" y="48" width="48" height="34" fill="#FE9666" rx="2" ry="2"/>
  <text x="440.0" y="91" class="hex" text-anchor="middle">#FE9666</text>
  <rect x="467" y="48" width="48" height="34" fill="#A66999" rx="2" ry="2"/>
  <text x="491.0" y="91" class="hex" text-anchor="middle">#A66999</text>
  <text x="12" y="128" class="row-label">Deuteranopia</text>
  <rect x="110" y="108" width="48" height="34" fill="#14204A" rx="2" ry="2"/>
  <text x="134.0" y="151" class="hex" text-anchor="middle">#14204A</text>
  <rect x="161" y="108" width="48" height="34" fill="#23377B" rx="2" ry="2"/>
  <text x="185.0" y="151" class="hex" text-anchor="middle">#23377B</text>
  <rect x="212" y="108" width="48" height="34" fill="#263C85" rx="2" ry="2"/>
  <text x="236.0" y="151" class="hex" text-anchor="middle">#263C85</text>
  <rect x="263" y="108" width="48" height="34" fill="#4D5E97" rx="2" ry="2"/>
  <text x="287.0" y="151" class="hex" text-anchor="middle">#4D5E97</text>
  <rect x="314" y="108" width="48" height="34" fill="#6D7CAF" rx="2" ry="2"/>
  <text x="338.0" y="151" class="hex" text-anchor="middle">#6D7CAF</text>
  <rect x="365" y="108" width="48" height="34" fill="#B4C0EB" rx="2" ry="2"/>
  <text x="389.0" y="151" class="hex" text-anchor="middle">#B4C0EB</text>
  <rect x="416" y="108" width="48" height="34" fill="#C7B166" rx="2" ry="2"/>
  <text x="440.0" y="151" class="hex" text-anchor="middle">#C7B166</text>
  <rect x="467" y="108" width="48" height="34" fill="#747C97" rx="2" ry="2"/>
  <text x="491.0" y="151" class="hex" text-anchor="middle">#747C97</text>
  <text x="12" y="188" class="row-label">Protanopia</text>
  <rect x="110" y="168" width="48" height="34" fill="#1D284C" rx="2" ry="2"/>
  <text x="134.0" y="211" class="hex" text-anchor="middle">#1D284C</text>
  <rect x="161" y="168" width="48" height="34" fill="#34467F" rx="2" ry="2"/>
  <text x="185.0" y="211" class="hex" text-anchor="middle">#34467F</text>
  <rect x="212" y="168" width="48" height="34" fill="#384B89" rx="2" ry="2"/>
  <text x="236.0" y="211" class="hex" text-anchor="middle">#384B89</text>
  <rect x="263" y="168" width="48" height="34" fill="#5C6B99" rx="2" ry="2"/>
  <text x="287.0" y="211" class="hex" text-anchor="middle">#5C6B99</text>
  <rect x="314" y="168" width="48" height="34" fill="#7D8AB1" rx="2" ry="2"/>
  <text x="338.0" y="211" class="hex" text-anchor="middle">#7D8AB1</text>
  <rect x="365" y="168" width="48" height="34" fill="#C4CEEC" rx="2" ry="2"/>
  <text x="389.0" y="211" class="hex" text-anchor="middle">#C4CEEC</text>
  <rect x="416" y="168" width="48" height="34" fill="#B09D63" rx="2" ry="2"/>
  <text x="440.0" y="211" class="hex" text-anchor="middle">#B09D63</text>
  <rect x="467" y="168" width="48" height="34" fill="#68759B" rx="2" ry="2"/>
  <text x="491.0" y="211" class="hex" text-anchor="middle">#68759B</text>
  <text x="12" y="248" class="row-label">Tritanopia</text>
  <rect x="110" y="228" width="48" height="34" fill="#003234" rx="2" ry="2"/>
  <text x="134.0" y="271" class="hex" text-anchor="middle">#003234</text>
  <rect x="161" y="228" width="48" height="34" fill="#005658" rx="2" ry="2"/>
  <text x="185.0" y="271" class="hex" text-anchor="middle">#005658</text>
  <rect x="212" y="228" width="48" height="34" fill="#005D5F" rx="2" ry="2"/>
  <text x="236.0" y="271" class="hex" text-anchor="middle">#005D5F</text>
  <rect x="263" y="228" width="48" height="34" fill="#117A7B" rx="2" ry="2"/>
  <text x="287.0" y="271" class="hex" text-anchor="middle">#117A7B</text>
  <rect x="314" y="228" width="48" height="34" fill="#2E9998" rx="2" ry="2"/>
  <text x="338.0" y="271" class="hex" text-anchor="middle">#2E9998</text>
  <rect x="365" y="228" width="48" height="34" fill="#73DDDB" rx="2" ry="2"/>
  <text x="389.0" y="271" class="hex" text-anchor="middle">#73DDDB</text>
  <rect x="416" y="228" width="48" height="34" fill="#FF8788" rx="2" ry="2"/>
  <text x="440.0" y="271" class="hex" text-anchor="middle">#FF8788</text>
  <rect x="467" y="228" width="48" height="34" fill="#AD6B78" rx="2" ry="2"/>
  <text x="491.0" y="271" class="hex" text-anchor="middle">#AD6B78</text>
  <text x="12" y="288" class="caption" fill-opacity="0.65">Rows 2-4 show how palette appears to viewers with the named color-vision deficiency.</text>
</svg>
