<svg xmlns="http://www.w3.org/2000/svg" viewBox="0 0 560 300" font-family="sans-serif">
  <title>cvd preview: sustainability-esg-earthday</title>
  <style>svg{background:#ffffff;color:#1f2937;}text{fill:currentColor;}.title{font-size:12px;font-weight:bold;}.row{font-size:9px;font-weight:bold;fill-opacity:0.8;}.hex{font-family:monospace;font-size:6.5px;fill:#ffffff;fill-opacity:0.9;}.note{font-size:8px;fill-opacity:0.6;}</style>
  <text x="12" y="18" class="title">Colorblind vision preview — Sustainability ESG (Earth Day)</text>
  <text x="548" y="18" class="note" text-anchor="end">sustainability-esg-earthday</text>
  <text x="12" y="32" class="note">Machado-Oliveira-Fernandes 2009 simulation matrices at severity 1.0</text>
  <text x="12" y="62" class="row">Normal vision</text>
  <rect x="100" y="44" width="52" height="48" fill="#1B7A3E" rx="2" ry="2"/>
  <text x="126" y="88" class="hex" text-anchor="middle">#1B7A3E</text>
  <rect x="156" y="44" width="52" height="48" fill="#3BB371" rx="2" ry="2"/>
  <text x="182" y="88" class="hex" text-anchor="middle">#3BB371</text>
  <rect x="212" y="44" width="52" height="48" fill="#E6B800" rx="2" ry="2"/>
  <text x="238" y="88" class="hex" text-anchor="middle">#E6B800</text>
  <rect x="268" y="44" width="52" height="48" fill="#D8F3DC" rx="2" ry="2"/>
  <text x="294" y="88" class="hex" text-anchor="middle">#D8F3DC</text>
  <rect x="324" y="44" width="52" height="48" fill="#8B5E3C" rx="2" ry="2"/>
  <text x="350" y="88" class="hex" text-anchor="middle">#8B5E3C</text>
  <rect x="380" y="44" width="52" height="48" fill="#D4A846" rx="2" ry="2"/>
  <text x="406" y="88" class="hex" text-anchor="middle">#D4A846</text>
  <rect x="436" y="44" width="52" height="48" fill="#E76F51" rx="2" ry="2"/>
  <text x="462" y="88" class="hex" text-anchor="middle">#E76F51</text>
  <rect x="492" y="44" width="52" height="48" fill="#264653" rx="2" ry="2"/>
  <text x="518" y="88" class="hex" text-anchor="middle">#264653</text>
  <text x="12" y="122" class="row">Deuteranopia</text>
  <rect x="100" y="104" width="52" height="48" fill="#655D41" rx="2" ry="2"/>
  <text x="126" y="148" class="hex" text-anchor="middle">#655D41</text>
  <rect x="156" y="104" width="52" height="48" fill="#968E74" rx="2" ry="2"/>
  <text x="182" y="148" class="hex" text-anchor="middle">#968E74</text>
  <rect x="212" y="104" width="52" height="48" fill="#F3BC05" rx="2" ry="2"/>
  <text x="238" y="148" class="hex" text-anchor="middle">#F3BC05</text>
  <rect x="268" y="104" width="52" height="48" fill="#EEEADD" rx="2" ry="2"/>
  <text x="294" y="148" class="hex" text-anchor="middle">#EEEADD</text>
  <rect x="324" y="104" width="52" height="48" fill="#76693D" rx="2" ry="2"/>
  <text x="350" y="148" class="hex" text-anchor="middle">#76693D</text>
  <rect x="380" y="104" width="52" height="48" fill="#CEB049" rx="2" ry="2"/>
  <text x="406" y="148" class="hex" text-anchor="middle">#CEB049</text>
  <rect x="436" y="104" width="52" height="48" fill="#A28F50" rx="2" ry="2"/>
  <text x="462" y="148" class="hex" text-anchor="middle">#A28F50</text>
  <rect x="492" y="104" width="52" height="48" fill="#373E53" rx="2" ry="2"/>
  <text x="518" y="148" class="hex" text-anchor="middle">#373E53</text>
  <text x="12" y="182" class="row">Protanopia</text>
  <rect x="100" y="164" width="52" height="48" fill="#78693B" rx="2" ry="2"/>
  <text x="126" y="208" class="hex" text-anchor="middle">#78693B</text>
  <rect x="156" y="164" width="52" height="48" fill="#AE9F6E" rx="2" ry="2"/>
  <text x="182" y="208" class="hex" text-anchor="middle">#AE9F6E</text>
  <rect x="212" y="164" width="52" height="48" fill="#E5AB00" rx="2" ry="2"/>
  <text x="238" y="208" class="hex" text-anchor="middle">#E5AB00</text>
  <rect x="268" y="164" width="52" height="48" fill="#F4EEDB" rx="2" ry="2"/>
  <text x="294" y="208" class="hex" text-anchor="middle">#F4EEDB</text>
  <rect x="324" y="164" width="52" height="48" fill="#6C603A" rx="2" ry="2"/>
  <text x="350" y="208" class="hex" text-anchor="middle">#6C603A</text>
  <rect x="380" y="164" width="52" height="48" fill="#C3A341" rx="2" ry="2"/>
  <text x="406" y="208" class="hex" text-anchor="middle">#C3A341</text>
  <rect x="436" y="164" width="52" height="48" fill="#877A4F" rx="2" ry="2"/>
  <text x="462" y="208" class="hex" text-anchor="middle">#877A4F</text>
  <rect x="492" y="164" width="52" height="48" fill="#3E4454" rx="2" ry="2"/>
  <text x="518" y="208" class="hex" text-anchor="middle">#3E4454</text>
  <text x="12" y="242" class="row">Tritanopia</text>
  <rect x="100" y="224" width="52" height="48" fill="#0D7967" rx="2" ry="2"/>
  <text x="126" y="268" class="hex" text-anchor="middle">#0D7967</text>
  <rect x="156" y="224" width="52" height="48" fill="#28B39E" rx="2" ry="2"/>
  <text x="182" y="268" class="hex" text-anchor="middle">#28B39E</text>
  <rect x="212" y="224" width="52" height="48" fill="#FF9980" rx="2" ry="2"/>
  <text x="238" y="268" class="hex" text-anchor="middle">#FF9980</text>
  <rect x="268" y="224" width="52" height="48" fill="#D5F2EC" rx="2" ry="2"/>
  <text x="294" y="268" class="hex" text-anchor="middle">#D5F2EC</text>
  <rect x="324" y="224" width="52" height="48" fill="#9D5654" rx="2" ry="2"/>
  <text x="350" y="268" class="hex" text-anchor="middle">#9D5654</text>
  <rect x="380" y="224" width="52" height="48" fill="#F1968A" rx="2" ry="2"/>
  <text x="406" y="268" class="hex" text-anchor="middle">#F1968A</text>
  <rect x="436" y="224" width="52" height="48" fill="#FF6166" rx="2" ry="2"/>
  <text x="462" y="268" class="hex" text-anchor="middle">#FF6166</text>
  <rect x="492" y="224" width="52" height="48" fill="#1B4A4A" rx="2" ry="2"/>
  <text x="518" y="268" class="hex" text-anchor="middle">#1B4A4A</text>
  <text x="12" y="292" class="note">Safety rating: unsafe · min ΔE = 5.97 · worst under protanopia</text>
</svg>
