<svg xmlns="http://www.w3.org/2000/svg" viewBox="0 0 560 300" font-family="sans-serif">
  <title>cvd simulation: sustainability-esg</title>
  <style id="theme-swatch-frame">svg{color:#1f2937;background:#ffffff;}@media (prefers-color-scheme: dark){svg{color:#e5e7eb;background:#111827;}}text{fill:currentColor;}.row-label{font-size:10px;font-weight:bold;fill-opacity:0.8;}.hex{font-family:monospace;font-size:6px;fill-opacity:0.7;}.title{font-size:13px;font-weight:bold;}.sub{font-size:9px;fill-opacity:0.7;}.caption{font-size:8px;fill-opacity:0.8;}</style>
  <rect x="0" y="0" width="560" height="28" fill="#2D6A4F"/>
  <text x="12" y="18" class="title" fill="#ffffff">CVD Simulation · Sustainability / ESG</text>
  <text x="548" y="18" class="sub" fill="#ffffff" text-anchor="end" fill-opacity="0.85">Machado 2009 · severity 1.0</text>
  <text x="12" y="68" class="row-label">Normal vision</text>
  <rect x="110" y="48" width="48" height="34" fill="#2D6A4F" rx="2" ry="2"/>
  <text x="134.0" y="91" class="hex" text-anchor="middle">#2D6A4F</text>
  <rect x="161" y="48" width="48" height="34" fill="#52B788" rx="2" ry="2"/>
  <text x="185.0" y="91" class="hex" text-anchor="middle">#52B788</text>
  <rect x="212" y="48" width="48" height="34" fill="#95D5B2" rx="2" ry="2"/>
  <text x="236.0" y="91" class="hex" text-anchor="middle">#95D5B2</text>
  <rect x="263" y="48" width="48" height="34" fill="#D8F3DC" rx="2" ry="2"/>
  <text x="287.0" y="91" class="hex" text-anchor="middle">#D8F3DC</text>
  <rect x="314" y="48" width="48" height="34" fill="#8B5E3C" rx="2" ry="2"/>
  <text x="338.0" y="91" class="hex" text-anchor="middle">#8B5E3C</text>
  <rect x="365" y="48" width="48" height="34" fill="#D4A846" rx="2" ry="2"/>
  <text x="389.0" y="91" class="hex" text-anchor="middle">#D4A846</text>
  <rect x="416" y="48" width="48" height="34" fill="#E76F51" rx="2" ry="2"/>
  <text x="440.0" y="91" class="hex" text-anchor="middle">#E76F51</text>
  <rect x="467" y="48" width="48" height="34" fill="#264653" rx="2" ry="2"/>
  <text x="491.0" y="91" class="hex" text-anchor="middle">#264653</text>
  <text x="12" y="128" class="row-label">Deuteranopia</text>
  <rect x="110" y="108" width="48" height="34" fill="#5A5851" rx="2" ry="2"/>
  <text x="134.0" y="151" class="hex" text-anchor="middle">#5A5851</text>
  <rect x="161" y="108" width="48" height="34" fill="#9D998B" rx="2" ry="2"/>
  <text x="185.0" y="151" class="hex" text-anchor="middle">#9D998B</text>
  <rect x="212" y="108" width="48" height="34" fill="#C5C1B4" rx="2" ry="2"/>
  <text x="236.0" y="151" class="hex" text-anchor="middle">#C5C1B4</text>
  <rect x="263" y="108" width="48" height="34" fill="#EEEADD" rx="2" ry="2"/>
  <text x="287.0" y="151" class="hex" text-anchor="middle">#EEEADD</text>
  <rect x="314" y="108" width="48" height="34" fill="#76693D" rx="2" ry="2"/>
  <text x="338.0" y="151" class="hex" text-anchor="middle">#76693D</text>
  <rect x="365" y="108" width="48" height="34" fill="#CEB049" rx="2" ry="2"/>
  <text x="389.0" y="151" class="hex" text-anchor="middle">#CEB049</text>
  <rect x="416" y="108" width="48" height="34" fill="#A28F50" rx="2" ry="2"/>
  <text x="440.0" y="151" class="hex" text-anchor="middle">#A28F50</text>
  <rect x="467" y="108" width="48" height="34" fill="#373E53" rx="2" ry="2"/>
  <text x="491.0" y="151" class="hex" text-anchor="middle">#373E53</text>
  <text x="12" y="188" class="row-label">Protanopia</text>
  <rect x="110" y="168" width="48" height="34" fill="#66604E" rx="2" ry="2"/>
  <text x="134.0" y="211" class="hex" text-anchor="middle">#66604E</text>
  <rect x="161" y="168" width="48" height="34" fill="#B1A786" rx="2" ry="2"/>
  <text x="185.0" y="211" class="hex" text-anchor="middle">#B1A786</text>
  <rect x="212" y="168" width="48" height="34" fill="#D2CAB0" rx="2" ry="2"/>
  <text x="236.0" y="211" class="hex" text-anchor="middle">#D2CAB0</text>
  <rect x="263" y="168" width="48" height="34" fill="#F4EEDB" rx="2" ry="2"/>
  <text x="287.0" y="211" class="hex" text-anchor="middle">#F4EEDB</text>
  <rect x="314" y="168" width="48" height="34" fill="#6C603A" rx="2" ry="2"/>
  <text x="338.0" y="211" class="hex" text-anchor="middle">#6C603A</text>
  <rect x="365" y="168" width="48" height="34" fill="#C3A341" rx="2" ry="2"/>
  <text x="389.0" y="211" class="hex" text-anchor="middle">#C3A341</text>
  <rect x="416" y="168" width="48" height="34" fill="#877A4F" rx="2" ry="2"/>
  <text x="440.0" y="211" class="hex" text-anchor="middle">#877A4F</text>
  <rect x="467" y="168" width="48" height="34" fill="#3E4454" rx="2" ry="2"/>
  <text x="491.0" y="211" class="hex" text-anchor="middle">#3E4454</text>
  <text x="12" y="248" class="row-label">Tritanopia</text>
  <rect x="110" y="228" width="48" height="34" fill="#226B61" rx="2" ry="2"/>
  <text x="134.0" y="271" class="hex" text-anchor="middle">#226B61</text>
  <rect x="161" y="228" width="48" height="34" fill="#41B8A8" rx="2" ry="2"/>
  <text x="185.0" y="271" class="hex" text-anchor="middle">#41B8A8</text>
  <rect x="212" y="228" width="48" height="34" fill="#8BD5CA" rx="2" ry="2"/>
  <text x="236.0" y="271" class="hex" text-anchor="middle">#8BD5CA</text>
  <rect x="263" y="228" width="48" height="34" fill="#D5F2EC" rx="2" ry="2"/>
  <text x="287.0" y="271" class="hex" text-anchor="middle">#D5F2EC</text>
  <rect x="314" y="228" width="48" height="34" fill="#9D5554" rx="2" ry="2"/>
  <text x="338.0" y="271" class="hex" text-anchor="middle">#9D5554</text>
  <rect x="365" y="228" width="48" height="34" fill="#F1968A" rx="2" ry="2"/>
  <text x="389.0" y="271" class="hex" text-anchor="middle">#F1968A</text>
  <rect x="416" y="228" width="48" height="34" fill="#FF6166" rx="2" ry="2"/>
  <text x="440.0" y="271" class="hex" text-anchor="middle">#FF6166</text>
  <rect x="467" y="228" width="48" height="34" fill="#1B4A4A" rx="2" ry="2"/>
  <text x="491.0" y="271" class="hex" text-anchor="middle">#1B4A4A</text>
  <text x="12" y="288" class="caption" fill-opacity="0.65">Rows 2-4 show how palette appears to viewers with the named color-vision deficiency.</text>
</svg>
