<svg xmlns="http://www.w3.org/2000/svg" viewBox="0 0 560 300" font-family="sans-serif">
  <title>cvd simulation: tailwind-slate</title>
  <style id="theme-swatch-frame">svg{color:#1f2937;background:#ffffff;}@media (prefers-color-scheme: dark){svg{color:#e5e7eb;background:#111827;}}text{fill:currentColor;}.row-label{font-size:10px;font-weight:bold;fill-opacity:0.8;}.hex{font-family:monospace;font-size:6px;fill-opacity:0.7;}.title{font-size:13px;font-weight:bold;}.sub{font-size:9px;fill-opacity:0.7;}.caption{font-size:8px;fill-opacity:0.8;}</style>
  <rect x="0" y="0" width="560" height="28" fill="#0EA5E9"/>
  <text x="12" y="18" class="title" fill="#ffffff">CVD Simulation · Tailwind Slate + Sky</text>
  <text x="548" y="18" class="sub" fill="#ffffff" text-anchor="end" fill-opacity="0.85">Machado 2009 · severity 1.0</text>
  <text x="12" y="68" class="row-label">Normal vision</text>
  <rect x="110" y="48" width="48" height="34" fill="#0EA5E9" rx="2" ry="2"/>
  <text x="134.0" y="91" class="hex" text-anchor="middle">#0EA5E9</text>
  <rect x="161" y="48" width="48" height="34" fill="#8B5CF6" rx="2" ry="2"/>
  <text x="185.0" y="91" class="hex" text-anchor="middle">#8B5CF6</text>
  <rect x="212" y="48" width="48" height="34" fill="#F59E0B" rx="2" ry="2"/>
  <text x="236.0" y="91" class="hex" text-anchor="middle">#F59E0B</text>
  <rect x="263" y="48" width="48" height="34" fill="#10B981" rx="2" ry="2"/>
  <text x="287.0" y="91" class="hex" text-anchor="middle">#10B981</text>
  <rect x="314" y="48" width="48" height="34" fill="#EF4444" rx="2" ry="2"/>
  <text x="338.0" y="91" class="hex" text-anchor="middle">#EF4444</text>
  <rect x="365" y="48" width="48" height="34" fill="#EC4899" rx="2" ry="2"/>
  <text x="389.0" y="91" class="hex" text-anchor="middle">#EC4899</text>
  <rect x="416" y="48" width="48" height="34" fill="#14B8A6" rx="2" ry="2"/>
  <text x="440.0" y="91" class="hex" text-anchor="middle">#14B8A6</text>
  <rect x="467" y="48" width="48" height="34" fill="#6366F1" rx="2" ry="2"/>
  <text x="491.0" y="91" class="hex" text-anchor="middle">#6366F1</text>
  <text x="12" y="128" class="row-label">Deuteranopia</text>
  <rect x="110" y="108" width="48" height="34" fill="#5E7EE9" rx="2" ry="2"/>
  <text x="134.0" y="151" class="hex" text-anchor="middle">#5E7EE9</text>
  <rect x="161" y="108" width="48" height="34" fill="#4A70F1" rx="2" ry="2"/>
  <text x="185.0" y="151" class="hex" text-anchor="middle">#4A70F1</text>
  <rect x="212" y="108" width="48" height="34" fill="#DFAF0F" rx="2" ry="2"/>
  <text x="236.0" y="151" class="hex" text-anchor="middle">#DFAF0F</text>
  <rect x="263" y="108" width="48" height="34" fill="#888785" rx="2" ry="2"/>
  <text x="287.0" y="151" class="hex" text-anchor="middle">#888785</text>
  <rect x="314" y="108" width="48" height="34" fill="#837442" rx="2" ry="2"/>
  <text x="338.0" y="151" class="hex" text-anchor="middle">#837442</text>
  <rect x="365" y="108" width="48" height="34" fill="#727A95" rx="2" ry="2"/>
  <text x="389.0" y="151" class="hex" text-anchor="middle">#727A95</text>
  <rect x="416" y="108" width="48" height="34" fill="#8089A9" rx="2" ry="2"/>
  <text x="440.0" y="151" class="hex" text-anchor="middle">#8089A9</text>
  <rect x="467" y="108" width="48" height="34" fill="#456CED" rx="2" ry="2"/>
  <text x="491.0" y="151" class="hex" text-anchor="middle">#456CED</text>
  <text x="12" y="188" class="row-label">Protanopia</text>
  <rect x="110" y="168" width="48" height="34" fill="#809AED" rx="2" ry="2"/>
  <text x="134.0" y="211" class="hex" text-anchor="middle">#809AED</text>
  <rect x="161" y="168" width="48" height="34" fill="#4471FE" rx="2" ry="2"/>
  <text x="185.0" y="211" class="hex" text-anchor="middle">#4471FE</text>
  <rect x="212" y="168" width="48" height="34" fill="#C99903" rx="2" ry="2"/>
  <text x="236.0" y="211" class="hex" text-anchor="middle">#C99903</text>
  <rect x="263" y="168" width="48" height="34" fill="#ABA07F" rx="2" ry="2"/>
  <text x="287.0" y="211" class="hex" text-anchor="middle">#ABA07F</text>
  <rect x="314" y="168" width="48" height="34" fill="#5E5843" rx="2" ry="2"/>
  <text x="338.0" y="211" class="hex" text-anchor="middle">#5E5843</text>
  <rect x="365" y="168" width="48" height="34" fill="#50639D" rx="2" ry="2"/>
  <text x="389.0" y="211" class="hex" text-anchor="middle">#50639D</text>
  <rect x="416" y="168" width="48" height="34" fill="#A3A3A6" rx="2" ry="2"/>
  <text x="440.0" y="211" class="hex" text-anchor="middle">#A3A3A6</text>
  <rect x="467" y="168" width="48" height="34" fill="#4973F8" rx="2" ry="2"/>
  <text x="491.0" y="211" class="hex" text-anchor="middle">#4973F8</text>
  <text x="12" y="248" class="row-label">Tritanopia</text>
  <rect x="110" y="228" width="48" height="34" fill="#00BBB9" rx="2" ry="2"/>
  <text x="134.0" y="271" class="hex" text-anchor="middle">#00BBB9</text>
  <rect x="161" y="228" width="48" height="34" fill="#7B6F8B" rx="2" ry="2"/>
  <text x="185.0" y="271" class="hex" text-anchor="middle">#7B6F8B</text>
  <rect x="212" y="228" width="48" height="34" fill="#FF8272" rx="2" ry="2"/>
  <text x="236.0" y="271" class="hex" text-anchor="middle">#FF8272</text>
  <rect x="263" y="228" width="48" height="34" fill="#00BEA7" rx="2" ry="2"/>
  <text x="287.0" y="271" class="hex" text-anchor="middle">#00BEA7</text>
  <rect x="314" y="228" width="48" height="34" fill="#FF3745" rx="2" ry="2"/>
  <text x="338.0" y="271" class="hex" text-anchor="middle">#FF3745</text>
  <rect x="365" y="228" width="48" height="34" fill="#FF4761" rx="2" ry="2"/>
  <text x="389.0" y="271" class="hex" text-anchor="middle">#FF4761</text>
  <rect x="416" y="228" width="48" height="34" fill="#00C2B2" rx="2" ry="2"/>
  <text x="440.0" y="271" class="hex" text-anchor="middle">#00C2B2</text>
  <rect x="467" y="228" width="48" height="34" fill="#497B90" rx="2" ry="2"/>
  <text x="491.0" y="271" class="hex" text-anchor="middle">#497B90</text>
  <text x="12" y="288" class="caption" fill-opacity="0.65">Rows 2-4 show how palette appears to viewers with the named color-vision deficiency.</text>
</svg>
