<svg xmlns="http://www.w3.org/2000/svg" viewBox="0 0 560 300" font-family="sans-serif">
  <title>cvd simulation: tech-monitoring</title>
  <style id="theme-swatch-frame">svg{color:#1f2937;background:#ffffff;}@media (prefers-color-scheme: dark){svg{color:#e5e7eb;background:#111827;}}text{fill:currentColor;}.row-label{font-size:10px;font-weight:bold;fill-opacity:0.8;}.hex{font-family:monospace;font-size:6px;fill-opacity:0.7;}.title{font-size:13px;font-weight:bold;}.sub{font-size:9px;fill-opacity:0.7;}.caption{font-size:8px;fill-opacity:0.8;}</style>
  <rect x="0" y="0" width="560" height="28" fill="#0078D4"/>
  <text x="12" y="18" class="title" fill="#ffffff">CVD Simulation · Technology / IT / Monitoring</text>
  <text x="548" y="18" class="sub" fill="#ffffff" text-anchor="end" fill-opacity="0.85">Machado 2009 · severity 1.0</text>
  <text x="12" y="68" class="row-label">Normal vision</text>
  <rect x="110" y="48" width="48" height="34" fill="#0078D4" rx="2" ry="2"/>
  <text x="134.0" y="91" class="hex" text-anchor="middle">#0078D4</text>
  <rect x="161" y="48" width="48" height="34" fill="#50E6FF" rx="2" ry="2"/>
  <text x="185.0" y="91" class="hex" text-anchor="middle">#50E6FF</text>
  <rect x="212" y="48" width="48" height="34" fill="#9B59B6" rx="2" ry="2"/>
  <text x="236.0" y="91" class="hex" text-anchor="middle">#9B59B6</text>
  <rect x="263" y="48" width="48" height="34" fill="#FF8C00" rx="2" ry="2"/>
  <text x="287.0" y="91" class="hex" text-anchor="middle">#FF8C00</text>
  <rect x="314" y="48" width="48" height="34" fill="#10893E" rx="2" ry="2"/>
  <text x="338.0" y="91" class="hex" text-anchor="middle">#10893E</text>
  <rect x="365" y="48" width="48" height="34" fill="#E81123" rx="2" ry="2"/>
  <text x="389.0" y="91" class="hex" text-anchor="middle">#E81123</text>
  <rect x="416" y="48" width="48" height="34" fill="#FFB900" rx="2" ry="2"/>
  <text x="440.0" y="91" class="hex" text-anchor="middle">#FFB900</text>
  <rect x="467" y="48" width="48" height="34" fill="#6B6B6B" rx="2" ry="2"/>
  <text x="491.0" y="91" class="hex" text-anchor="middle">#6B6B6B</text>
  <text x="12" y="128" class="row-label">Deuteranopia</text>
  <rect x="110" y="108" width="48" height="34" fill="#375BD3" rx="2" ry="2"/>
  <text x="134.0" y="151" class="hex" text-anchor="middle">#375BD3</text>
  <rect x="161" y="108" width="48" height="34" fill="#A9BDFF" rx="2" ry="2"/>
  <text x="185.0" y="151" class="hex" text-anchor="middle">#A9BDFF</text>
  <rect x="212" y="108" width="48" height="34" fill="#5C70B2" rx="2" ry="2"/>
  <text x="236.0" y="151" class="hex" text-anchor="middle">#5C70B2</text>
  <rect x="263" y="108" width="48" height="34" fill="#D6A603" rx="2" ry="2"/>
  <text x="287.0" y="151" class="hex" text-anchor="middle">#D6A603</text>
  <rect x="314" y="108" width="48" height="34" fill="#6E6442" rx="2" ry="2"/>
  <text x="338.0" y="151" class="hex" text-anchor="middle">#6E6442</text>
  <rect x="365" y="108" width="48" height="34" fill="#5C4E20" rx="2" ry="2"/>
  <text x="389.0" y="151" class="hex" text-anchor="middle">#5C4E20</text>
  <rect x="416" y="108" width="48" height="34" fill="#FDC405" rx="2" ry="2"/>
  <text x="440.0" y="151" class="hex" text-anchor="middle">#FDC405</text>
  <rect x="467" y="108" width="48" height="34" fill="#6B6B6B" rx="2" ry="2"/>
  <text x="491.0" y="151" class="hex" text-anchor="middle">#6B6B6B</text>
  <text x="12" y="188" class="row-label">Protanopia</text>
  <rect x="110" y="168" width="48" height="34" fill="#5373D9" rx="2" ry="2"/>
  <text x="134.0" y="211" class="hex" text-anchor="middle">#5373D9</text>
  <rect x="161" y="168" width="48" height="34" fill="#CAD7FF" rx="2" ry="2"/>
  <text x="185.0" y="211" class="hex" text-anchor="middle">#CAD7FF</text>
  <rect x="212" y="168" width="48" height="34" fill="#506ABB" rx="2" ry="2"/>
  <text x="236.0" y="211" class="hex" text-anchor="middle">#506ABB</text>
  <rect x="263" y="168" width="48" height="34" fill="#BA8B00" rx="2" ry="2"/>
  <text x="287.0" y="211" class="hex" text-anchor="middle">#BA8B00</text>
  <rect x="314" y="168" width="48" height="34" fill="#86743B" rx="2" ry="2"/>
  <text x="338.0" y="211" class="hex" text-anchor="middle">#86743B</text>
  <rect x="365" y="168" width="48" height="34" fill="#2E2C23" rx="2" ry="2"/>
  <text x="389.0" y="211" class="hex" text-anchor="middle">#2E2C23</text>
  <rect x="416" y="168" width="48" height="34" fill="#EAAF00" rx="2" ry="2"/>
  <text x="440.0" y="211" class="hex" text-anchor="middle">#EAAF00</text>
  <rect x="467" y="168" width="48" height="34" fill="#6B6B6B" rx="2" ry="2"/>
  <text x="491.0" y="211" class="hex" text-anchor="middle">#6B6B6B</text>
  <text x="12" y="248" class="row-label">Tritanopia</text>
  <rect x="110" y="228" width="48" height="34" fill="#008F93" rx="2" ry="2"/>
  <text x="134.0" y="271" class="hex" text-anchor="middle">#008F93</text>
  <rect x="161" y="228" width="48" height="34" fill="#25F5ED" rx="2" ry="2"/>
  <text x="185.0" y="271" class="hex" text-anchor="middle">#25F5ED</text>
  <rect x="212" y="228" width="48" height="34" fill="#9B6276" rx="2" ry="2"/>
  <text x="236.0" y="271" class="hex" text-anchor="middle">#9B6276</text>
  <rect x="263" y="228" width="48" height="34" fill="#FF6E62" rx="2" ry="2"/>
  <text x="287.0" y="271" class="hex" text-anchor="middle">#FF6E62</text>
  <rect x="314" y="228" width="48" height="34" fill="#008772" rx="2" ry="2"/>
  <text x="338.0" y="271" class="hex" text-anchor="middle">#008772</text>
  <rect x="365" y="228" width="48" height="34" fill="#FF0318" rx="2" ry="2"/>
  <text x="389.0" y="271" class="hex" text-anchor="middle">#FF0318</text>
  <rect x="416" y="228" width="48" height="34" fill="#FF9881" rx="2" ry="2"/>
  <text x="440.0" y="271" class="hex" text-anchor="middle">#FF9881</text>
  <rect x="467" y="228" width="48" height="34" fill="#6B6B6B" rx="2" ry="2"/>
  <text x="491.0" y="271" class="hex" text-anchor="middle">#6B6B6B</text>
  <text x="12" y="288" class="caption" fill-opacity="0.65">Rows 2-4 show how palette appears to viewers with the named color-vision deficiency.</text>
</svg>
