<svg xmlns="http://www.w3.org/2000/svg" viewBox="0 0 560 300" font-family="sans-serif">
  <title>cvd preview: telecom-network-dark</title>
  <style>svg{background:#ffffff;color:#1f2937;}text{fill:currentColor;}.title{font-size:12px;font-weight:bold;}.row{font-size:9px;font-weight:bold;fill-opacity:0.8;}.hex{font-family:monospace;font-size:6.5px;fill:#ffffff;fill-opacity:0.9;}.note{font-size:8px;fill-opacity:0.6;}</style>
  <text x="12" y="18" class="title">Colorblind vision preview — Telecom / Network (Dark)</text>
  <text x="548" y="18" class="note" text-anchor="end">telecom-network-dark</text>
  <text x="12" y="32" class="note">Machado-Oliveira-Fernandes 2009 simulation matrices at severity 1.0</text>
  <text x="12" y="62" class="row">Normal vision</text>
  <rect x="100" y="44" width="52" height="48" fill="#2BD2EE" rx="2" ry="2"/>
  <text x="126" y="88" class="hex" text-anchor="middle">#2BD2EE</text>
  <rect x="156" y="44" width="52" height="48" fill="#EE802B" rx="2" ry="2"/>
  <text x="182" y="88" class="hex" text-anchor="middle">#EE802B</text>
  <rect x="212" y="44" width="52" height="48" fill="#328DE7" rx="2" ry="2"/>
  <text x="238" y="88" class="hex" text-anchor="middle">#328DE7</text>
  <rect x="268" y="44" width="52" height="48" fill="#2BD9EE" rx="2" ry="2"/>
  <text x="294" y="88" class="hex" text-anchor="middle">#2BD9EE</text>
  <rect x="324" y="44" width="52" height="48" fill="#AC3EDA" rx="2" ry="2"/>
  <text x="350" y="88" class="hex" text-anchor="middle">#AC3EDA</text>
  <rect x="380" y="44" width="52" height="48" fill="#E53935" rx="2" ry="2"/>
  <text x="406" y="88" class="hex" text-anchor="middle">#E53935</text>
  <rect x="436" y="44" width="52" height="48" fill="#2BDDEE" rx="2" ry="2"/>
  <text x="462" y="88" class="hex" text-anchor="middle">#2BDDEE</text>
  <rect x="492" y="44" width="52" height="48" fill="#7794A1" rx="2" ry="2"/>
  <text x="518" y="88" class="hex" text-anchor="middle">#7794A1</text>
  <text x="12" y="122" class="row">Deuteranopia</text>
  <rect x="100" y="104" width="52" height="48" fill="#8EA5EF" rx="2" ry="2"/>
  <text x="126" y="148" class="hex" text-anchor="middle">#8EA5EF</text>
  <rect x="156" y="104" width="52" height="48" fill="#BC9B2C" rx="2" ry="2"/>
  <text x="182" y="148" class="hex" text-anchor="middle">#BC9B2C</text>
  <rect x="212" y="104" width="52" height="48" fill="#5778E5" rx="2" ry="2"/>
  <text x="238" y="148" class="hex" text-anchor="middle">#5778E5</text>
  <rect x="268" y="104" width="52" height="48" fill="#94A9EF" rx="2" ry="2"/>
  <text x="294" y="148" class="hex" text-anchor="middle">#94A9EF</text>
  <rect x="324" y="104" width="52" height="48" fill="#4364D4" rx="2" ry="2"/>
  <text x="350" y="148" class="hex" text-anchor="middle">#4364D4</text>
  <rect x="380" y="104" width="52" height="48" fill="#796933" rx="2" ry="2"/>
  <text x="406" y="148" class="hex" text-anchor="middle">#796933</text>
  <rect x="436" y="104" width="52" height="48" fill="#98ACF0" rx="2" ry="2"/>
  <text x="462" y="148" class="hex" text-anchor="middle">#98ACF0</text>
  <rect x="492" y="104" width="52" height="48" fill="#868CA1" rx="2" ry="2"/>
  <text x="518" y="148" class="hex" text-anchor="middle">#868CA1</text>
  <text x="12" y="182" class="row">Protanopia</text>
  <rect x="100" y="164" width="52" height="48" fill="#B3C2F0" rx="2" ry="2"/>
  <text x="126" y="208" class="hex" text-anchor="middle">#B3C2F0</text>
  <rect x="156" y="164" width="52" height="48" fill="#A28426" rx="2" ry="2"/>
  <text x="182" y="208" class="hex" text-anchor="middle">#A28426</text>
  <rect x="212" y="164" width="52" height="48" fill="#6D8BEC" rx="2" ry="2"/>
  <text x="238" y="208" class="hex" text-anchor="middle">#6D8BEC</text>
  <rect x="268" y="164" width="52" height="48" fill="#BAC7F0" rx="2" ry="2"/>
  <text x="294" y="208" class="hex" text-anchor="middle">#BAC7F0</text>
  <rect x="324" y="164" width="52" height="48" fill="#2F5AE2" rx="2" ry="2"/>
  <text x="350" y="208" class="hex" text-anchor="middle">#2F5AE2</text>
  <rect x="380" y="164" width="52" height="48" fill="#544C34" rx="2" ry="2"/>
  <text x="406" y="208" class="hex" text-anchor="middle">#544C34</text>
  <rect x="436" y="164" width="52" height="48" fill="#BECAF0" rx="2" ry="2"/>
  <text x="462" y="208" class="hex" text-anchor="middle">#BECAF0</text>
  <rect x="492" y="164" width="52" height="48" fill="#8D92A2" rx="2" ry="2"/>
  <text x="518" y="208" class="hex" text-anchor="middle">#8D92A2</text>
  <text x="12" y="242" class="row">Tritanopia</text>
  <rect x="100" y="224" width="52" height="48" fill="#00E3DA" rx="2" ry="2"/>
  <text x="126" y="268" class="hex" text-anchor="middle">#00E3DA</text>
  <rect x="156" y="224" width="52" height="48" fill="#FF6B67" rx="2" ry="2"/>
  <text x="182" y="268" class="hex" text-anchor="middle">#FF6B67</text>
  <rect x="212" y="224" width="52" height="48" fill="#0BA2A8" rx="2" ry="2"/>
  <text x="238" y="268" class="hex" text-anchor="middle">#0BA2A8</text>
  <rect x="268" y="224" width="52" height="48" fill="#00EADF" rx="2" ry="2"/>
  <text x="294" y="268" class="hex" text-anchor="middle">#00EADF</text>
  <rect x="324" y="224" width="52" height="48" fill="#AC4D6E" rx="2" ry="2"/>
  <text x="350" y="268" class="hex" text-anchor="middle">#AC4D6E</text>
  <rect x="380" y="224" width="52" height="48" fill="#FF2B39" rx="2" ry="2"/>
  <text x="406" y="268" class="hex" text-anchor="middle">#FF2B39</text>
  <rect x="436" y="224" width="52" height="48" fill="#00EEE1" rx="2" ry="2"/>
  <text x="462" y="268" class="hex" text-anchor="middle">#00EEE1</text>
  <rect x="492" y="224" width="52" height="48" fill="#6D9898" rx="2" ry="2"/>
  <text x="518" y="268" class="hex" text-anchor="middle">#6D9898</text>
  <text x="12" y="292" class="note">Safety rating: unsafe · min ΔE = 1.45 · worst under tritanopia</text>
</svg>
