<svg xmlns="http://www.w3.org/2000/svg" viewBox="0 0 320 180" width="320" height="180" fill="none" stroke="currentColor" stroke-width="1.5" stroke-linecap="round" stroke-linejoin="round">
<rect x="0.5" y="0.5" width="319" height="179" rx="6" stroke-opacity="0.25"/>

<g fill="currentColor" stroke="none" fill-opacity="0.55">
  <rect x="12" y="12" width="110" height="6" rx="3"/>
  <rect x="12" y="22" width="170" height="4" rx="2" fill-opacity="0.25"/>
</g>

<g font-family="system-ui,Segoe UI,Arial" fill="currentColor" stroke="none">
  <!-- label -->
  <rect x="20" y="52" width="40" height="4" rx="2" fill-opacity="0.45"/>

  <!-- closed dropdown (left) -->
  <rect x="20" y="64" width="120" height="24" rx="3" fill-opacity="0.06"/>
  <rect x="20.5" y="64.5" width="119" height="23" rx="3" fill="none" stroke="currentColor" stroke-opacity="0.45"/>
  <rect x="30" y="74" width="48" height="4" rx="2" fill-opacity="0.65"/>
  <polyline points="122,74 128,80 134,74" fill="none" stroke="currentColor" stroke-opacity="0.65" stroke-width="1.3"/>

  <!-- arrow -->
  <g stroke-opacity="0.45">
    <line x1="152" y1="76" x2="172" y2="76"/>
    <polyline points="166,70 172,76 166,82"/>
  </g>

  <!-- open dropdown with search (right) -->
  <rect x="184" y="52" width="120" height="116" rx="3" fill-opacity="0.06"/>
  <rect x="184.5" y="52.5" width="119" height="115" rx="3" fill="none" stroke="currentColor" stroke-opacity="0.55"/>

  <!-- search box -->
  <rect x="192" y="60" width="104" height="18" rx="2" fill-opacity="0.1"/>
  <rect x="192.5" y="60.5" width="103" height="17" rx="2" fill="none" stroke="currentColor" stroke-opacity="0.45"/>
  <circle cx="201" cy="69" r="3" fill="none" stroke="currentColor" stroke-opacity="0.7" stroke-width="1.2"/>
  <line x1="203" y1="71" x2="206" y2="74" stroke="currentColor" stroke-opacity="0.7" stroke-width="1.2"/>
  <rect x="212" y="67" width="52" height="4" rx="2" fill-opacity="0.35"/>

  <!-- items -->
  <g fill-opacity="0.45">
    <rect x="196" y="86" width="8" height="8" rx="1"/>
    <rect x="210" y="88" width="56" height="4" rx="2"/>

    <rect x="196" y="102" width="8" height="8" rx="1" fill-opacity="0.8"/>
    <path d="M198 106 L200 108 L203 104" stroke="#fff" stroke-width="1.2" stroke-opacity="0.95" fill="none"/>
    <rect x="210" y="104" width="70" height="4" rx="2" fill-opacity="0.8"/>

    <rect x="196" y="118" width="8" height="8" rx="1"/>
    <rect x="210" y="120" width="64" height="4" rx="2"/>

    <rect x="196" y="134" width="8" height="8" rx="1"/>
    <rect x="210" y="136" width="48" height="4" rx="2"/>

    <rect x="196" y="150" width="8" height="8" rx="1"/>
    <rect x="210" y="152" width="60" height="4" rx="2"/>
  </g>
</g>
</svg>
