<svg xmlns="http://www.w3.org/2000/svg" viewBox="0 0 320 180" width="320" height="180" fill="none" stroke="currentColor" stroke-width="1.5" stroke-linecap="round" stroke-linejoin="round">
<rect x="0.5" y="0.5" width="319" height="179" rx="6" stroke-opacity="0.25"/>

<g fill="currentColor" stroke="none" fill-opacity="0.55">
  <rect x="12" y="12" width="110" height="6" rx="3"/>
  <rect x="12" y="22" width="170" height="4" rx="2" fill-opacity="0.25"/>
</g>

<g font-family="system-ui,Segoe UI,Arial" fill="currentColor" stroke="none">
  <!-- frame -->
  <rect x="40" y="42" width="240" height="126" rx="4" fill-opacity="0.06"/>
  <rect x="40.5" y="42.5" width="239" height="125" rx="4" fill="none" stroke="currentColor" stroke-opacity="0.45"/>

  <!-- header -->
  <rect x="52" y="52" width="60" height="5" rx="2" fill-opacity="0.55"/>
  <line x1="48" y1="66" x2="272" y2="66" stroke="currentColor" stroke-opacity="0.2"/>

  <!-- row 1: collapsed parent -->
  <polyline points="56,80 62,76 62,84 56,80" fill="currentColor" fill-opacity="0.65" stroke="none"/>
  <rect x="72" y="74" width="8" height="8" rx="1" fill-opacity="0.45"/>
  <rect x="86" y="76" width="78" height="4" rx="2" fill-opacity="0.55"/>

  <!-- row 2: expanded parent -->
  <polygon points="56,98 64,94 60,104" fill="currentColor" fill-opacity="0.75" stroke="none"/>
  <rect x="72" y="92" width="8" height="8" rx="1" fill-opacity="0.8"/>
  <path d="M74 96 L76 98 L79 94" stroke="#fff" stroke-width="1.2" stroke-opacity="0.95" fill="none"/>
  <rect x="86" y="94" width="92" height="4" rx="2" fill-opacity="0.9"/>

  <!-- row 2 children -->
  <g fill-opacity="0.45">
    <polygon points="88,114 96,110 92,120" fill-opacity="0.65"/>
    <rect x="104" y="108" width="8" height="8" rx="1" fill-opacity="0.55"/>
    <rect x="118" y="110" width="70" height="4" rx="2"/>
  </g>
  <g fill-opacity="0.55">
    <rect x="120" y="126" width="8" height="8" rx="1" fill-opacity="0.85"/>
    <path d="M122 130 L124 132 L127 128" stroke="#fff" stroke-width="1.2" stroke-opacity="0.95" fill="none"/>
    <rect x="134" y="128" width="58" height="4" rx="2" fill-opacity="0.85"/>
  </g>
  <g fill-opacity="0.45">
    <rect x="120" y="142" width="8" height="8" rx="1"/>
    <rect x="134" y="144" width="64" height="4" rx="2"/>
  </g>

  <!-- row 3: collapsed sibling -->
  <polyline points="56,160 62,156 62,164 56,160" fill="currentColor" fill-opacity="0.65" stroke="none"/>
  <rect x="72" y="154" width="8" height="8" rx="1" fill-opacity="0.45"/>
  <rect x="86" y="156" width="72" height="4" rx="2" fill-opacity="0.55"/>
</g>
</svg>
