<svg xmlns="http://www.w3.org/2000/svg" viewBox="0 0 160 48" fill="none" stroke="currentColor" stroke-width="1.6" stroke-linecap="round" stroke-linejoin="round" font-family="Segoe UI, Inter, system-ui, sans-serif">
<style id="preview-theme">
  svg { color: #24292f; background: #ffffff; }
  @media (prefers-color-scheme: dark) {
    svg { color: #e6edf3; background: #0d1117; }
  }
</style>
  <title>logo-ecommerce</title>
  <desc>ACME Shop placeholder logo — shopping bag with handles. Badge uses currentColor; glyph is white.</desc>
  <rect x="2" y="2" width="44" height="44" rx="10" ry="10" fill="currentColor" fill-opacity="0.92" stroke="none"/>
  <rect x="2" y="2" width="44" height="44" rx="10" ry="10" fill="#fff" fill-opacity="0.08" stroke="none"/>
  <g transform="translate(12,12)">
    <g fill="none" stroke="#fff" stroke-width="1.8" stroke-linecap="round" stroke-linejoin="round">
  <path d="M4 8 H20 L19 21 Q19 22 18 22 H6 Q5 22 5 21 Z" fill="#fff" fill-opacity="0.3"/>
  <path d="M4 8 H20 L19 21 Q19 22 18 22 H6 Q5 22 5 21 Z"/>
  <path d="M8 9 V6 Q8 3 12 3 Q16 3 16 6 V9" />
  <circle cx="9" cy="13" r="0.9" fill="#fff" stroke="none"/>
  <circle cx="15" cy="13" r="0.9" fill="#fff" stroke="none"/>
</g>
  </g>
  <text x="56" y="22" fill="currentColor" stroke="none" font-size="14" font-weight="700" fill-opacity="0.96">ACME Shop</text>
  <line x1="56" y1="27" x2="72" y2="27" stroke="currentColor" stroke-opacity="0.45" stroke-width="1.2"/>
  <text x="56" y="38" fill="currentColor" stroke="none" font-size="7.5" letter-spacing="1.6" font-weight="600" fill-opacity="0.6">ECOMMERCE · DIGITAL</text>
</svg>
