<svg xmlns="http://www.w3.org/2000/svg" viewBox="0 0 160 48" fill="none" stroke="currentColor" stroke-width="1.6" stroke-linecap="round" stroke-linejoin="round" font-family="Segoe UI, Inter, system-ui, sans-serif">
<style id="preview-theme">
  svg { color: #24292f; background: #ffffff; }
  @media (prefers-color-scheme: dark) {
    svg { color: #e6edf3; background: #0d1117; }
  }
</style>
  <title>logo-agriculture</title>
  <desc>ACME Agri placeholder logo — symmetric wheat stalk. Badge uses currentColor; glyph is white.</desc>
  <rect x="2" y="2" width="44" height="44" rx="10" ry="10" fill="currentColor" fill-opacity="0.92" stroke="none"/>
  <rect x="2" y="2" width="44" height="44" rx="10" ry="10" fill="#fff" fill-opacity="0.08" stroke="none"/>
  <g transform="translate(12,12)">
    <g fill="none" stroke="#fff" stroke-width="1.8" stroke-linecap="round" stroke-linejoin="round">
  <path d="M12 22 V4"/>
  <path d="M12 7 Q8 6 7 3 Q10 3 12 6" fill="#fff" fill-opacity="0.4"/>
  <path d="M12 7 Q16 6 17 3 Q14 3 12 6" fill="#fff" fill-opacity="0.4"/>
  <path d="M12 11 Q8 10 7 7 Q10 7 12 10" fill="#fff" fill-opacity="0.55"/>
  <path d="M12 11 Q16 10 17 7 Q14 7 12 10" fill="#fff" fill-opacity="0.55"/>
  <path d="M12 15 Q8 14 7 11 Q10 11 12 14" fill="#fff" fill-opacity="0.7"/>
  <path d="M12 15 Q16 14 17 11 Q14 11 12 14" fill="#fff" fill-opacity="0.7"/>
</g>
  </g>
  <text x="56" y="22" fill="currentColor" stroke="none" font-size="14" font-weight="700" fill-opacity="0.96">ACME Agri</text>
  <line x1="56" y1="27" x2="72" y2="27" stroke="currentColor" stroke-opacity="0.45" stroke-width="1.2"/>
  <text x="56" y="38" fill="currentColor" stroke="none" font-size="7.5" letter-spacing="1.6" font-weight="600" fill-opacity="0.6">AGRICULTURE · FARMING</text>
</svg>
