<svg xmlns="http://www.w3.org/2000/svg" viewBox="0 0 160 48" fill="none" stroke="currentColor" stroke-width="1.6" stroke-linecap="round" stroke-linejoin="round" font-family="Segoe UI, Inter, system-ui, sans-serif">
<style id="preview-theme">
  svg { color: #24292f; background: #ffffff; }
  @media (prefers-color-scheme: dark) {
    svg { color: #e6edf3; background: #0d1117; }
  }
</style>
  <title>logo-hospitality</title>
  <desc>ACME Hospitality placeholder logo — hot cup with steam curls. Badge uses currentColor; glyph is white.</desc>
  <rect x="2" y="2" width="44" height="44" rx="10" ry="10" fill="currentColor" fill-opacity="0.92" stroke="none"/>
  <rect x="2" y="2" width="44" height="44" rx="10" ry="10" fill="#fff" fill-opacity="0.08" stroke="none"/>
  <g transform="translate(12,12)">
    <g fill="none" stroke="#fff" stroke-width="1.8" stroke-linecap="round" stroke-linejoin="round">
  <path d="M4 9 H18 V16 Q18 20 11 20 Q4 20 4 16 Z" fill="#fff" fill-opacity="0.3"/>
  <path d="M18 11 H21 Q22 11 22 13 V15 Q22 17 21 17 H18" />
  <path d="M8 2 Q10 4 8 6 Q6 8 8 10" stroke-opacity="0.75"/>
  <path d="M13 2 Q15 4 13 6 Q11 8 13 10" stroke-opacity="0.55"/>
</g>
  </g>
  <text x="56" y="22" fill="currentColor" stroke="none" font-size="14" font-weight="700" fill-opacity="0.96">ACME Hospitality</text>
  <line x1="56" y1="27" x2="72" y2="27" stroke="currentColor" stroke-opacity="0.45" stroke-width="1.2"/>
  <text x="56" y="38" fill="currentColor" stroke="none" font-size="7.5" letter-spacing="1.6" font-weight="600" fill-opacity="0.6">HOSPITALITY · F&amp;B</text>
</svg>
