<svg xmlns="http://www.w3.org/2000/svg" viewBox="0 0 240 519" font-family="Segoe UI, Inter, system-ui, sans-serif">
<title>aging-bucket-page-mobile</title>
<rect x="0" y="0" width="240" height="519" fill="#FFFFFF"/>
<rect x="0" y="0" width="240" height="3" fill="#2563EB"/>
<rect x="7.38" y="9.84" width="225.23" height="28.29" rx="4" fill="#F8FAFC" stroke="#E5E7EB"/>
<rect x="7.38" y="9.84" width="4" height="28.29" rx="2" fill="#2563EB"/>
<text x="21.38" y="27.3798" fill="#111827" font-family="Segoe UI, Inter, system-ui, sans-serif" font-size="11" font-weight="700">Mobile Title</text>
<rect x="142.60999999999999" y="17.761200000000002" width="70" height="12.7" rx="3" fill="#EFF6FF" stroke="#DBEAFE"/>
<text x="177.60999999999999" y="28.511400000000002" fill="#6B7280" font-family="Segoe UI, Inter, system-ui, sans-serif" font-size="10.7502" font-weight="500" text-anchor="middle">Q4 · FY26</text>
<rect x="11.379999999999999" y="50.5" width="217.23" height="10.706666666666665" rx="3" fill="#FFFFFF" stroke="#E5E7EB"/>
<rect x="11.379999999999999" y="50.5" width="3" height="10.706666666666665" fill="#2563EB"/>
<text x="19.38" y="53.94733333333333" fill="#6B7280" font-family="Segoe UI, Inter, system-ui, sans-serif" font-size="2.7954666666666665" font-weight="500">Revenue</text>
<text x="19.38" y="58.648799999999994" fill="#111827" font-family="Segoe UI, Inter, system-ui, sans-serif" font-size="5.082666666666666" font-weight="700">$1.24M</text>
<rect x="11.379999999999999" y="63.20666666666666" width="217.23" height="10.706666666666665" rx="3" fill="#FFFFFF" stroke="#E5E7EB"/>
<rect x="11.379999999999999" y="63.20666666666666" width="3" height="10.706666666666665" fill="#2563EB"/>
<text x="19.38" y="66.654" fill="#6B7280" font-family="Segoe UI, Inter, system-ui, sans-serif" font-size="2.7954666666666665" font-weight="500">Margin</text>
<text x="19.38" y="71.35546666666666" fill="#111827" font-family="Segoe UI, Inter, system-ui, sans-serif" font-size="5.082666666666666" font-weight="700">38.2%</text>
<rect x="11.379999999999999" y="75.91333333333333" width="217.23" height="10.706666666666665" rx="3" fill="#FFFFFF" stroke="#E5E7EB"/>
<rect x="11.379999999999999" y="75.91333333333333" width="3" height="10.706666666666665" fill="#2563EB"/>
<text x="19.38" y="79.36066666666666" fill="#6B7280" font-family="Segoe UI, Inter, system-ui, sans-serif" font-size="2.7954666666666665" font-weight="500">CSAT</text>
<text x="19.38" y="84.06213333333332" fill="#111827" font-family="Segoe UI, Inter, system-ui, sans-serif" font-size="5.082666666666666" font-weight="700">4.7</text>
<rect x="7.38" y="99.0" width="225.23" height="374.49" rx="3" fill="#FFFFFF" stroke="#E5E7EB"/>
<rect x="7.38" y="99.0" width="225.23" height="14" fill="#EFF6FF"/>
<text x="15.379999999999999" y="109.0" fill="#111827" font-family="Segoe UI, Inter, system-ui, sans-serif" font-size="7.5" font-weight="700">Item</text>
<text x="57.226" y="109.0" fill="#111827" font-family="Segoe UI, Inter, system-ui, sans-serif" font-size="7.5" font-weight="700">Value</text>
<text x="99.07199999999999" y="109.0" fill="#111827" font-family="Segoe UI, Inter, system-ui, sans-serif" font-size="7.5" font-weight="700">Δ%</text>
<text x="140.91799999999998" y="109.0" fill="#111827" font-family="Segoe UI, Inter, system-ui, sans-serif" font-size="7.5" font-weight="700">Status</text>
<text x="182.76399999999998" y="109.0" fill="#111827" font-family="Segoe UI, Inter, system-ui, sans-serif" font-size="7.5" font-weight="700">Trend</text>
<line x1="7.38" y1="113.0" x2="232.60999999999999" y2="113.0" stroke="#E5E7EB"/>
<rect x="15.379999999999999" y="116.0" width="29.3" height="4" fill="#6B7280" rx="1" opacity="0.5"/>
<rect x="57.226" y="116.0" width="20.9" height="4" fill="#111827" rx="1" opacity="0.7"/>
<rect x="99.07199999999999" y="116.0" width="20.9" height="4" fill="#111827" rx="1" opacity="0.7"/>
<circle cx="146.91799999999998" cy="118.0" r="2.5" fill="#10B981"/>
<polyline points="184.8,118.8 186.8,118.6 188.8,116.7 190.8,119.9 192.8,116.8" fill="none" stroke="#2563EB" stroke-width="1"/>
<rect x="7.38" y="123.0" width="225.23" height="10" fill="#F3F4F6"/>
<rect x="15.379999999999999" y="126.0" width="29.3" height="4" fill="#6B7280" rx="1" opacity="0.5"/>
<rect x="57.226" y="126.0" width="20.9" height="4" fill="#111827" rx="1" opacity="0.7"/>
<rect x="99.07199999999999" y="126.0" width="20.9" height="4" fill="#111827" rx="1" opacity="0.7"/>
<circle cx="146.91799999999998" cy="128.0" r="2.5" fill="#F59E0B"/>
<polyline points="184.8,128.3 186.8,127.7 188.8,126.6 190.8,129.6 192.8,129.4" fill="none" stroke="#2563EB" stroke-width="1"/>
<rect x="15.379999999999999" y="136.0" width="29.3" height="4" fill="#6B7280" rx="1" opacity="0.5"/>
<rect x="57.226" y="136.0" width="20.9" height="4" fill="#111827" rx="1" opacity="0.7"/>
<rect x="99.07199999999999" y="136.0" width="20.9" height="4" fill="#111827" rx="1" opacity="0.7"/>
<circle cx="146.91799999999998" cy="138.0" r="2.5" fill="#EF4444"/>
<polyline points="184.8,139.4 186.8,139.6 188.8,139.4 190.8,136.2 192.8,139.7" fill="none" stroke="#2563EB" stroke-width="1"/>
<rect x="7.38" y="143.0" width="225.23" height="10" fill="#F3F4F6"/>
<rect x="15.379999999999999" y="146.0" width="29.3" height="4" fill="#6B7280" rx="1" opacity="0.5"/>
<rect x="57.226" y="146.0" width="20.9" height="4" fill="#111827" rx="1" opacity="0.7"/>
<rect x="99.07199999999999" y="146.0" width="20.9" height="4" fill="#111827" rx="1" opacity="0.7"/>
<circle cx="146.91799999999998" cy="148.0" r="2.5" fill="#10B981"/>
<polyline points="184.8,149.2 186.8,146.8 188.8,146.7 190.8,147.7 192.8,146.7" fill="none" stroke="#2563EB" stroke-width="1"/>
<rect x="15.379999999999999" y="156.0" width="29.3" height="4" fill="#6B7280" rx="1" opacity="0.5"/>
<rect x="57.226" y="156.0" width="20.9" height="4" fill="#111827" rx="1" opacity="0.7"/>
<rect x="99.07199999999999" y="156.0" width="20.9" height="4" fill="#111827" rx="1" opacity="0.7"/>
<circle cx="146.91799999999998" cy="158.0" r="2.5" fill="#F59E0B"/>
<polyline points="184.8,158.2 186.8,158.4 188.8,158.3 190.8,159.4 192.8,157.6" fill="none" stroke="#2563EB" stroke-width="1"/>
<rect x="7.38" y="163.0" width="225.23" height="10" fill="#F3F4F6"/>
<rect x="15.379999999999999" y="166.0" width="29.3" height="4" fill="#6B7280" rx="1" opacity="0.5"/>
<rect x="57.226" y="166.0" width="20.9" height="4" fill="#111827" rx="1" opacity="0.7"/>
<rect x="99.07199999999999" y="166.0" width="20.9" height="4" fill="#111827" rx="1" opacity="0.7"/>
<circle cx="146.91799999999998" cy="168.0" r="2.5" fill="#EF4444"/>
<polyline points="184.8,167.5 186.8,166.6 188.8,169.1 190.8,169.2 192.8,166.4" fill="none" stroke="#2563EB" stroke-width="1"/>
<rect x="15.379999999999999" y="176.0" width="29.3" height="4" fill="#6B7280" rx="1" opacity="0.5"/>
<rect x="57.226" y="176.0" width="20.9" height="4" fill="#111827" rx="1" opacity="0.7"/>
<rect x="99.07199999999999" y="176.0" width="20.9" height="4" fill="#111827" rx="1" opacity="0.7"/>
<circle cx="146.91799999999998" cy="178.0" r="2.5" fill="#10B981"/>
<polyline points="184.8,176.8 186.8,178.9 188.8,178.1 190.8,179.3 192.8,176.2" fill="none" stroke="#2563EB" stroke-width="1"/>
<rect x="7.38" y="183.0" width="225.23" height="10" fill="#F3F4F6"/>
<rect x="15.379999999999999" y="186.0" width="29.3" height="4" fill="#6B7280" rx="1" opacity="0.5"/>
<rect x="57.226" y="186.0" width="20.9" height="4" fill="#111827" rx="1" opacity="0.7"/>
<rect x="99.07199999999999" y="186.0" width="20.9" height="4" fill="#111827" rx="1" opacity="0.7"/>
<circle cx="146.91799999999998" cy="188.0" r="2.5" fill="#F59E0B"/>
<polyline points="184.8,186.9 186.8,188.1 188.8,188.3 190.8,188.2 192.8,186.1" fill="none" stroke="#2563EB" stroke-width="1"/>
<rect x="15.379999999999999" y="196.0" width="29.3" height="4" fill="#6B7280" rx="1" opacity="0.5"/>
<rect x="57.226" y="196.0" width="20.9" height="4" fill="#111827" rx="1" opacity="0.7"/>
<rect x="99.07199999999999" y="196.0" width="20.9" height="4" fill="#111827" rx="1" opacity="0.7"/>
<circle cx="146.91799999999998" cy="198.0" r="2.5" fill="#EF4444"/>
<polyline points="184.8,197.2 186.8,198.3 188.8,199.9 190.8,196.3 192.8,198.6" fill="none" stroke="#2563EB" stroke-width="1"/>
<rect x="7.38" y="203.0" width="225.23" height="10" fill="#F3F4F6"/>
<rect x="15.379999999999999" y="206.0" width="29.3" height="4" fill="#6B7280" rx="1" opacity="0.5"/>
<rect x="57.226" y="206.0" width="20.9" height="4" fill="#111827" rx="1" opacity="0.7"/>
<rect x="99.07199999999999" y="206.0" width="20.9" height="4" fill="#111827" rx="1" opacity="0.7"/>
<circle cx="146.91799999999998" cy="208.0" r="2.5" fill="#10B981"/>
<polyline points="184.8,209.4 186.8,206.2 188.8,208.4 190.8,209.2 192.8,206.1" fill="none" stroke="#2563EB" stroke-width="1"/>
<rect x="15.379999999999999" y="216.0" width="29.3" height="4" fill="#6B7280" rx="1" opacity="0.5"/>
<rect x="57.226" y="216.0" width="20.9" height="4" fill="#111827" rx="1" opacity="0.7"/>
<rect x="99.07199999999999" y="216.0" width="20.9" height="4" fill="#111827" rx="1" opacity="0.7"/>
<circle cx="146.91799999999998" cy="218.0" r="2.5" fill="#F59E0B"/>
<polyline points="184.8,218.9 186.8,218.5 188.8,216.4 190.8,216.8 192.8,218.8" fill="none" stroke="#2563EB" stroke-width="1"/>
<rect x="7.38" y="223.0" width="225.23" height="10" fill="#F3F4F6"/>
<rect x="15.379999999999999" y="226.0" width="29.3" height="4" fill="#6B7280" rx="1" opacity="0.5"/>
<rect x="57.226" y="226.0" width="20.9" height="4" fill="#111827" rx="1" opacity="0.7"/>
<rect x="99.07199999999999" y="226.0" width="20.9" height="4" fill="#111827" rx="1" opacity="0.7"/>
<circle cx="146.91799999999998" cy="228.0" r="2.5" fill="#EF4444"/>
<polyline points="184.8,226.1 186.8,228.3 188.8,226.4 190.8,229.7 192.8,226.6" fill="none" stroke="#2563EB" stroke-width="1"/>
<rect x="15.379999999999999" y="236.0" width="29.3" height="4" fill="#6B7280" rx="1" opacity="0.5"/>
<rect x="57.226" y="236.0" width="20.9" height="4" fill="#111827" rx="1" opacity="0.7"/>
<rect x="99.07199999999999" y="236.0" width="20.9" height="4" fill="#111827" rx="1" opacity="0.7"/>
<circle cx="146.91799999999998" cy="238.0" r="2.5" fill="#10B981"/>
<polyline points="184.8,239.3 186.8,237.9 188.8,236.2 190.8,239.6 192.8,238.5" fill="none" stroke="#2563EB" stroke-width="1"/>
<rect x="7.38" y="243.0" width="225.23" height="10" fill="#F3F4F6"/>
<rect x="15.379999999999999" y="246.0" width="29.3" height="4" fill="#6B7280" rx="1" opacity="0.5"/>
<rect x="57.226" y="246.0" width="20.9" height="4" fill="#111827" rx="1" opacity="0.7"/>
<rect x="99.07199999999999" y="246.0" width="20.9" height="4" fill="#111827" rx="1" opacity="0.7"/>
<circle cx="146.91799999999998" cy="248.0" r="2.5" fill="#F59E0B"/>
<polyline points="184.8,248.2 186.8,249.4 188.8,249.6 190.8,248.4 192.8,248.6" fill="none" stroke="#2563EB" stroke-width="1"/>
<rect x="15.379999999999999" y="256.0" width="29.3" height="4" fill="#6B7280" rx="1" opacity="0.5"/>
<rect x="57.226" y="256.0" width="20.9" height="4" fill="#111827" rx="1" opacity="0.7"/>
<rect x="99.07199999999999" y="256.0" width="20.9" height="4" fill="#111827" rx="1" opacity="0.7"/>
<circle cx="146.91799999999998" cy="258.0" r="2.5" fill="#EF4444"/>
<polyline points="184.8,259.3 186.8,259.8 188.8,256.2 190.8,259.2 192.8,256.8" fill="none" stroke="#2563EB" stroke-width="1"/>
<rect x="7.38" y="263.0" width="225.23" height="10" fill="#F3F4F6"/>
<rect x="15.379999999999999" y="266.0" width="29.3" height="4" fill="#6B7280" rx="1" opacity="0.5"/>
<rect x="57.226" y="266.0" width="20.9" height="4" fill="#111827" rx="1" opacity="0.7"/>
<rect x="99.07199999999999" y="266.0" width="20.9" height="4" fill="#111827" rx="1" opacity="0.7"/>
<circle cx="146.91799999999998" cy="268.0" r="2.5" fill="#10B981"/>
<polyline points="184.8,267.7 186.8,266.9 188.8,267.0 190.8,266.9 192.8,266.6" fill="none" stroke="#2563EB" stroke-width="1"/>
<rect x="15.379999999999999" y="276.0" width="29.3" height="4" fill="#6B7280" rx="1" opacity="0.5"/>
<rect x="57.226" y="276.0" width="20.9" height="4" fill="#111827" rx="1" opacity="0.7"/>
<rect x="99.07199999999999" y="276.0" width="20.9" height="4" fill="#111827" rx="1" opacity="0.7"/>
<circle cx="146.91799999999998" cy="278.0" r="2.5" fill="#F59E0B"/>
<polyline points="184.8,279.8 186.8,277.4 188.8,277.6 190.8,278.0 192.8,278.9" fill="none" stroke="#2563EB" stroke-width="1"/>
<rect x="7.38" y="283.0" width="225.23" height="10" fill="#F3F4F6"/>
<rect x="15.379999999999999" y="286.0" width="29.3" height="4" fill="#6B7280" rx="1" opacity="0.5"/>
<rect x="57.226" y="286.0" width="20.9" height="4" fill="#111827" rx="1" opacity="0.7"/>
<rect x="99.07199999999999" y="286.0" width="20.9" height="4" fill="#111827" rx="1" opacity="0.7"/>
<circle cx="146.91799999999998" cy="288.0" r="2.5" fill="#EF4444"/>
<polyline points="184.8,286.8 186.8,286.8 188.8,287.2 190.8,286.8 192.8,287.8" fill="none" stroke="#2563EB" stroke-width="1"/>
<rect x="15.379999999999999" y="296.0" width="29.3" height="4" fill="#6B7280" rx="1" opacity="0.5"/>
<rect x="57.226" y="296.0" width="20.9" height="4" fill="#111827" rx="1" opacity="0.7"/>
<rect x="99.07199999999999" y="296.0" width="20.9" height="4" fill="#111827" rx="1" opacity="0.7"/>
<circle cx="146.91799999999998" cy="298.0" r="2.5" fill="#10B981"/>
<polyline points="184.8,296.1 186.8,299.2 188.8,299.9 190.8,298.5 192.8,299.3" fill="none" stroke="#2563EB" stroke-width="1"/>
<rect x="7.38" y="303.0" width="225.23" height="10" fill="#F3F4F6"/>
<rect x="15.379999999999999" y="306.0" width="29.3" height="4" fill="#6B7280" rx="1" opacity="0.5"/>
<rect x="57.226" y="306.0" width="20.9" height="4" fill="#111827" rx="1" opacity="0.7"/>
<rect x="99.07199999999999" y="306.0" width="20.9" height="4" fill="#111827" rx="1" opacity="0.7"/>
<circle cx="146.91799999999998" cy="308.0" r="2.5" fill="#F59E0B"/>
<polyline points="184.8,307.4 186.8,308.9 188.8,308.3 190.8,309.3 192.8,309.0" fill="none" stroke="#2563EB" stroke-width="1"/>
<rect x="15.379999999999999" y="316.0" width="29.3" height="4" fill="#6B7280" rx="1" opacity="0.5"/>
<rect x="57.226" y="316.0" width="20.9" height="4" fill="#111827" rx="1" opacity="0.7"/>
<rect x="99.07199999999999" y="316.0" width="20.9" height="4" fill="#111827" rx="1" opacity="0.7"/>
<circle cx="146.91799999999998" cy="318.0" r="2.5" fill="#EF4444"/>
<polyline points="184.8,319.9 186.8,318.2 188.8,318.3 190.8,316.4 192.8,316.8" fill="none" stroke="#2563EB" stroke-width="1"/>
<rect x="7.38" y="323.0" width="225.23" height="10" fill="#F3F4F6"/>
<rect x="15.379999999999999" y="326.0" width="29.3" height="4" fill="#6B7280" rx="1" opacity="0.5"/>
<rect x="57.226" y="326.0" width="20.9" height="4" fill="#111827" rx="1" opacity="0.7"/>
<rect x="99.07199999999999" y="326.0" width="20.9" height="4" fill="#111827" rx="1" opacity="0.7"/>
<circle cx="146.91799999999998" cy="328.0" r="2.5" fill="#10B981"/>
<polyline points="184.8,327.3 186.8,328.9 188.8,329.4 190.8,330.0 192.8,327.7" fill="none" stroke="#2563EB" stroke-width="1"/>
<rect x="15.379999999999999" y="336.0" width="29.3" height="4" fill="#6B7280" rx="1" opacity="0.5"/>
<rect x="57.226" y="336.0" width="20.9" height="4" fill="#111827" rx="1" opacity="0.7"/>
<rect x="99.07199999999999" y="336.0" width="20.9" height="4" fill="#111827" rx="1" opacity="0.7"/>
<circle cx="146.91799999999998" cy="338.0" r="2.5" fill="#F59E0B"/>
<polyline points="184.8,338.2 186.8,339.7 188.8,337.0 190.8,339.3 192.8,339.9" fill="none" stroke="#2563EB" stroke-width="1"/>
<rect x="7.38" y="343.0" width="225.23" height="10" fill="#F3F4F6"/>
<rect x="15.379999999999999" y="346.0" width="29.3" height="4" fill="#6B7280" rx="1" opacity="0.5"/>
<rect x="57.226" y="346.0" width="20.9" height="4" fill="#111827" rx="1" opacity="0.7"/>
<rect x="99.07199999999999" y="346.0" width="20.9" height="4" fill="#111827" rx="1" opacity="0.7"/>
<circle cx="146.91799999999998" cy="348.0" r="2.5" fill="#EF4444"/>
<polyline points="184.8,347.7 186.8,348.2 188.8,347.9 190.8,347.4 192.8,348.3" fill="none" stroke="#2563EB" stroke-width="1"/>
<rect x="15.379999999999999" y="356.0" width="29.3" height="4" fill="#6B7280" rx="1" opacity="0.5"/>
<rect x="57.226" y="356.0" width="20.9" height="4" fill="#111827" rx="1" opacity="0.7"/>
<rect x="99.07199999999999" y="356.0" width="20.9" height="4" fill="#111827" rx="1" opacity="0.7"/>
<circle cx="146.91799999999998" cy="358.0" r="2.5" fill="#10B981"/>
<polyline points="184.8,358.5 186.8,356.9 188.8,359.6 190.8,358.0 192.8,357.8" fill="none" stroke="#2563EB" stroke-width="1"/>
<rect x="7.38" y="363.0" width="225.23" height="10" fill="#F3F4F6"/>
<rect x="15.379999999999999" y="366.0" width="29.3" height="4" fill="#6B7280" rx="1" opacity="0.5"/>
<rect x="57.226" y="366.0" width="20.9" height="4" fill="#111827" rx="1" opacity="0.7"/>
<rect x="99.07199999999999" y="366.0" width="20.9" height="4" fill="#111827" rx="1" opacity="0.7"/>
<circle cx="146.91799999999998" cy="368.0" r="2.5" fill="#F59E0B"/>
<polyline points="184.8,368.5 186.8,367.3 188.8,368.6 190.8,366.3 192.8,369.6" fill="none" stroke="#2563EB" stroke-width="1"/>
<rect x="15.379999999999999" y="376.0" width="29.3" height="4" fill="#6B7280" rx="1" opacity="0.5"/>
<rect x="57.226" y="376.0" width="20.9" height="4" fill="#111827" rx="1" opacity="0.7"/>
<rect x="99.07199999999999" y="376.0" width="20.9" height="4" fill="#111827" rx="1" opacity="0.7"/>
<circle cx="146.91799999999998" cy="378.0" r="2.5" fill="#EF4444"/>
<polyline points="184.8,380.0 186.8,376.0 188.8,379.3 190.8,376.5 192.8,377.7" fill="none" stroke="#2563EB" stroke-width="1"/>
<rect x="7.38" y="383.0" width="225.23" height="10" fill="#F3F4F6"/>
<rect x="15.379999999999999" y="386.0" width="29.3" height="4" fill="#6B7280" rx="1" opacity="0.5"/>
<rect x="57.226" y="386.0" width="20.9" height="4" fill="#111827" rx="1" opacity="0.7"/>
<rect x="99.07199999999999" y="386.0" width="20.9" height="4" fill="#111827" rx="1" opacity="0.7"/>
<circle cx="146.91799999999998" cy="388.0" r="2.5" fill="#10B981"/>
<polyline points="184.8,387.1 186.8,389.8 188.8,388.2 190.8,387.6 192.8,386.9" fill="none" stroke="#2563EB" stroke-width="1"/>
<rect x="15.379999999999999" y="396.0" width="29.3" height="4" fill="#6B7280" rx="1" opacity="0.5"/>
<rect x="57.226" y="396.0" width="20.9" height="4" fill="#111827" rx="1" opacity="0.7"/>
<rect x="99.07199999999999" y="396.0" width="20.9" height="4" fill="#111827" rx="1" opacity="0.7"/>
<circle cx="146.91799999999998" cy="398.0" r="2.5" fill="#F59E0B"/>
<polyline points="184.8,399.5 186.8,399.2 188.8,397.4 190.8,398.3 192.8,397.0" fill="none" stroke="#2563EB" stroke-width="1"/>
<rect x="7.38" y="403.0" width="225.23" height="10" fill="#F3F4F6"/>
<rect x="15.379999999999999" y="406.0" width="29.3" height="4" fill="#6B7280" rx="1" opacity="0.5"/>
<rect x="57.226" y="406.0" width="20.9" height="4" fill="#111827" rx="1" opacity="0.7"/>
<rect x="99.07199999999999" y="406.0" width="20.9" height="4" fill="#111827" rx="1" opacity="0.7"/>
<circle cx="146.91799999999998" cy="408.0" r="2.5" fill="#EF4444"/>
<polyline points="184.8,406.7 186.8,407.1 188.8,407.3 190.8,408.5 192.8,406.2" fill="none" stroke="#2563EB" stroke-width="1"/>
<rect x="15.379999999999999" y="416.0" width="29.3" height="4" fill="#6B7280" rx="1" opacity="0.5"/>
<rect x="57.226" y="416.0" width="20.9" height="4" fill="#111827" rx="1" opacity="0.7"/>
<rect x="99.07199999999999" y="416.0" width="20.9" height="4" fill="#111827" rx="1" opacity="0.7"/>
<circle cx="146.91799999999998" cy="418.0" r="2.5" fill="#10B981"/>
<polyline points="184.8,416.2 186.8,417.1 188.8,416.4 190.8,419.6 192.8,418.3" fill="none" stroke="#2563EB" stroke-width="1"/>
<rect x="7.38" y="423.0" width="225.23" height="10" fill="#F3F4F6"/>
<rect x="15.379999999999999" y="426.0" width="29.3" height="4" fill="#6B7280" rx="1" opacity="0.5"/>
<rect x="57.226" y="426.0" width="20.9" height="4" fill="#111827" rx="1" opacity="0.7"/>
<rect x="99.07199999999999" y="426.0" width="20.9" height="4" fill="#111827" rx="1" opacity="0.7"/>
<circle cx="146.91799999999998" cy="428.0" r="2.5" fill="#F59E0B"/>
<polyline points="184.8,427.2 186.8,428.1 188.8,428.0 190.8,428.7 192.8,426.3" fill="none" stroke="#2563EB" stroke-width="1"/>
<rect x="15.379999999999999" y="436.0" width="29.3" height="4" fill="#6B7280" rx="1" opacity="0.5"/>
<rect x="57.226" y="436.0" width="20.9" height="4" fill="#111827" rx="1" opacity="0.7"/>
<rect x="99.07199999999999" y="436.0" width="20.9" height="4" fill="#111827" rx="1" opacity="0.7"/>
<circle cx="146.91799999999998" cy="438.0" r="2.5" fill="#EF4444"/>
<polyline points="184.8,436.4 186.8,436.5 188.8,437.8 190.8,439.4 192.8,439.7" fill="none" stroke="#2563EB" stroke-width="1"/>
<rect x="7.38" y="443.0" width="225.23" height="10" fill="#F3F4F6"/>
<rect x="15.379999999999999" y="446.0" width="29.3" height="4" fill="#6B7280" rx="1" opacity="0.5"/>
<rect x="57.226" y="446.0" width="20.9" height="4" fill="#111827" rx="1" opacity="0.7"/>
<rect x="99.07199999999999" y="446.0" width="20.9" height="4" fill="#111827" rx="1" opacity="0.7"/>
<circle cx="146.91799999999998" cy="448.0" r="2.5" fill="#10B981"/>
<polyline points="184.8,446.0 186.8,447.7 188.8,447.8 190.8,449.7 192.8,449.7" fill="none" stroke="#2563EB" stroke-width="1"/>
<rect x="15.379999999999999" y="456.0" width="29.3" height="4" fill="#6B7280" rx="1" opacity="0.5"/>
<rect x="57.226" y="456.0" width="20.9" height="4" fill="#111827" rx="1" opacity="0.7"/>
<rect x="99.07199999999999" y="456.0" width="20.9" height="4" fill="#111827" rx="1" opacity="0.7"/>
<circle cx="146.91799999999998" cy="458.0" r="2.5" fill="#F59E0B"/>
<polyline points="184.8,458.0 186.8,456.3 188.8,456.5 190.8,456.2 192.8,456.4" fill="none" stroke="#2563EB" stroke-width="1"/>
<rect x="7.38" y="480.87" width="225.23" height="28.29" rx="3" fill="#F8FAFC" stroke="#E5E7EB"/>
<rect x="14.379999999999999" y="486.528" width="48.3075" height="16.974" rx="8.487" fill="#2563EB"/>
<text x="38.53375" y="499.2585" fill="#FFFFFF" font-family="Segoe UI, Inter, system-ui, sans-serif" font-size="9" font-weight="600" text-anchor="middle">Overview</text>
<text x="92.84125" y="499.2585" fill="#6B7280" font-family="Segoe UI, Inter, system-ui, sans-serif" font-size="9" font-weight="600" text-anchor="middle">Sales</text>
<text x="147.14874999999998" y="499.2585" fill="#6B7280" font-family="Segoe UI, Inter, system-ui, sans-serif" font-size="9" font-weight="600" text-anchor="middle">Finance</text>
<text x="201.45624999999998" y="499.2585" fill="#6B7280" font-family="Segoe UI, Inter, system-ui, sans-serif" font-size="9" font-weight="600" text-anchor="middle">Ops</text>
<line x1="7.38" y1="509.16" x2="232.60999999999999" y2="509.16" stroke="#E5E7EB" stroke-width="1"/>
<text x="120.0" y="514" fill="#6B7280" font-family="Segoe UI, Inter, system-ui, sans-serif" font-size="7" font-weight="600" text-anchor="middle">aging-bucket-page-mobile</text>
</svg>