<svg xmlns="http://www.w3.org/2000/svg" viewBox="0 0 480 270" font-family="Segoe UI, Inter, system-ui, sans-serif">
<title>budget-actual-grid</title>
<rect x="0" y="0" width="480" height="270" fill="#FFFFFF"/>
<rect x="0" y="0" width="480" height="3" fill="#2563EB"/>
<rect x="4.62" y="4.62" width="470.77" height="18.75" rx="4" fill="#F8FAFC" stroke="#E5E7EB"/>
<rect x="4.62" y="4.62" width="4" height="18.75" rx="2" fill="#2563EB"/>
<text x="18.62" y="16.245" fill="#111827" font-family="Segoe UI, Inter, system-ui, sans-serif" font-size="10.3125" font-weight="700">Title</text>
<rect x="385.39" y="9.870000000000001" width="70" height="8.4" rx="3" fill="#EFF6FF" stroke="#DBEAFE"/>
<text x="420.39" y="16.995" fill="#6B7280" font-family="Segoe UI, Inter, system-ui, sans-serif" font-size="7.125" font-weight="500" text-anchor="middle">Q4 · FY26</text>
<rect x="4.62" y="26.83" width="470.77" height="17.31" rx="3" fill="#F8FAFC" stroke="#E5E7EB"/>
<rect x="10.620000000000001" y="30.291999999999998" width="86.954" height="10.386" rx="5.193" fill="#FFFFFF" stroke="#E5E7EB"/>
<text x="18.62" y="37.354479999999995" fill="#6B7280" font-family="Segoe UI, Inter, system-ui, sans-serif" font-size="5.193" font-weight="500">Region</text>
<text x="87.574" y="37.14676" fill="#9CA3AF" font-family="Segoe UI, Inter, system-ui, sans-serif" font-size="4.6737" font-weight="500" text-anchor="end">▾</text>
<rect x="103.574" y="30.291999999999998" width="86.954" height="10.386" rx="5.193" fill="#FFFFFF" stroke="#E5E7EB"/>
<text x="111.574" y="37.354479999999995" fill="#6B7280" font-family="Segoe UI, Inter, system-ui, sans-serif" font-size="5.193" font-weight="500">Period</text>
<text x="180.528" y="37.14676" fill="#9CA3AF" font-family="Segoe UI, Inter, system-ui, sans-serif" font-size="4.6737" font-weight="500" text-anchor="end">▾</text>
<rect x="196.528" y="30.291999999999998" width="86.954" height="10.386" rx="5.193" fill="#FFFFFF" stroke="#E5E7EB"/>
<text x="204.528" y="37.354479999999995" fill="#6B7280" font-family="Segoe UI, Inter, system-ui, sans-serif" font-size="5.193" font-weight="500">Product</text>
<text x="273.48199999999997" y="37.14676" fill="#9CA3AF" font-family="Segoe UI, Inter, system-ui, sans-serif" font-size="4.6737" font-weight="500" text-anchor="end">▾</text>
<rect x="289.48199999999997" y="30.291999999999998" width="86.954" height="10.386" rx="5.193" fill="#FFFFFF" stroke="#E5E7EB"/>
<text x="297.48199999999997" y="37.354479999999995" fill="#6B7280" font-family="Segoe UI, Inter, system-ui, sans-serif" font-size="5.193" font-weight="500">Segment</text>
<text x="366.436" y="37.14676" fill="#9CA3AF" font-family="Segoe UI, Inter, system-ui, sans-serif" font-size="4.6737" font-weight="500" text-anchor="end">▾</text>
<rect x="382.436" y="30.291999999999998" width="86.954" height="10.386" rx="5.193" fill="#FFFFFF" stroke="#E5E7EB"/>
<text x="390.436" y="37.354479999999995" fill="#6B7280" font-family="Segoe UI, Inter, system-ui, sans-serif" font-size="5.193" font-weight="500">Channel</text>
<text x="459.39" y="37.14676" fill="#9CA3AF" font-family="Segoe UI, Inter, system-ui, sans-serif" font-size="4.6737" font-weight="500" text-anchor="end">▾</text>
<rect x="8.620000000000001" y="51.6" width="54.34625" height="13.905000000000001" rx="3" fill="#FFFFFF" stroke="#E5E7EB"/>
<rect x="8.620000000000001" y="51.6" width="54.34625" height="2" fill="#2563EB"/>
<rect x="66.96625" y="51.6" width="54.34625" height="13.905000000000001" rx="3" fill="#FFFFFF" stroke="#E5E7EB"/>
<rect x="66.96625" y="51.6" width="54.34625" height="2" fill="#F59E0B"/>
<rect x="125.3125" y="51.6" width="54.34625" height="13.905000000000001" rx="3" fill="#FFFFFF" stroke="#E5E7EB"/>
<rect x="125.3125" y="51.6" width="54.34625" height="2" fill="#10B981"/>
<rect x="183.65875" y="51.6" width="54.34625" height="13.905000000000001" rx="3" fill="#FFFFFF" stroke="#E5E7EB"/>
<rect x="183.65875" y="51.6" width="54.34625" height="2" fill="#2563EB"/>
<rect x="242.005" y="51.6" width="54.34625" height="13.905000000000001" rx="3" fill="#FFFFFF" stroke="#E5E7EB"/>
<rect x="242.005" y="51.6" width="54.34625" height="2" fill="#F59E0B"/>
<rect x="300.35125" y="51.6" width="54.34625" height="13.905000000000001" rx="3" fill="#FFFFFF" stroke="#E5E7EB"/>
<rect x="300.35125" y="51.6" width="54.34625" height="2" fill="#10B981"/>
<rect x="358.6975" y="51.6" width="54.34625" height="13.905000000000001" rx="3" fill="#FFFFFF" stroke="#E5E7EB"/>
<rect x="358.6975" y="51.6" width="54.34625" height="2" fill="#2563EB"/>
<rect x="417.04375" y="51.6" width="54.34625" height="13.905000000000001" rx="3" fill="#FFFFFF" stroke="#E5E7EB"/>
<rect x="417.04375" y="51.6" width="54.34625" height="2" fill="#F59E0B"/>
<rect x="8.620000000000001" y="69.505" width="54.34625" height="13.905000000000001" rx="3" fill="#FFFFFF" stroke="#E5E7EB"/>
<rect x="8.620000000000001" y="69.505" width="54.34625" height="2" fill="#10B981"/>
<rect x="66.96625" y="69.505" width="54.34625" height="13.905000000000001" rx="3" fill="#FFFFFF" stroke="#E5E7EB"/>
<rect x="66.96625" y="69.505" width="54.34625" height="2" fill="#2563EB"/>
<rect x="125.3125" y="69.505" width="54.34625" height="13.905000000000001" rx="3" fill="#FFFFFF" stroke="#E5E7EB"/>
<rect x="125.3125" y="69.505" width="54.34625" height="2" fill="#F59E0B"/>
<rect x="183.65875" y="69.505" width="54.34625" height="13.905000000000001" rx="3" fill="#FFFFFF" stroke="#E5E7EB"/>
<rect x="183.65875" y="69.505" width="54.34625" height="2" fill="#10B981"/>
<rect x="8.620000000000001" y="94.87" width="54.34625" height="13.760000000000002" rx="3" fill="#FFFFFF" stroke="#E5E7EB"/>
<rect x="8.620000000000001" y="94.87" width="54.34625" height="2" fill="#2563EB"/>
<rect x="66.96625" y="94.87" width="54.34625" height="13.760000000000002" rx="3" fill="#FFFFFF" stroke="#E5E7EB"/>
<rect x="66.96625" y="94.87" width="54.34625" height="2" fill="#F59E0B"/>
<rect x="125.3125" y="94.87" width="54.34625" height="13.760000000000002" rx="3" fill="#FFFFFF" stroke="#E5E7EB"/>
<rect x="125.3125" y="94.87" width="54.34625" height="2" fill="#10B981"/>
<rect x="183.65875" y="94.87" width="54.34625" height="13.760000000000002" rx="3" fill="#FFFFFF" stroke="#E5E7EB"/>
<rect x="183.65875" y="94.87" width="54.34625" height="2" fill="#2563EB"/>
<rect x="242.005" y="94.87" width="54.34625" height="13.760000000000002" rx="3" fill="#FFFFFF" stroke="#E5E7EB"/>
<rect x="242.005" y="94.87" width="54.34625" height="2" fill="#F59E0B"/>
<rect x="300.35125" y="94.87" width="54.34625" height="13.760000000000002" rx="3" fill="#FFFFFF" stroke="#E5E7EB"/>
<rect x="300.35125" y="94.87" width="54.34625" height="2" fill="#10B981"/>
<rect x="358.6975" y="94.87" width="54.34625" height="13.760000000000002" rx="3" fill="#FFFFFF" stroke="#E5E7EB"/>
<rect x="358.6975" y="94.87" width="54.34625" height="2" fill="#2563EB"/>
<rect x="417.04375" y="94.87" width="54.34625" height="13.760000000000002" rx="3" fill="#FFFFFF" stroke="#E5E7EB"/>
<rect x="417.04375" y="94.87" width="54.34625" height="2" fill="#F59E0B"/>
<rect x="8.620000000000001" y="112.63000000000001" width="54.34625" height="13.760000000000002" rx="3" fill="#FFFFFF" stroke="#E5E7EB"/>
<rect x="8.620000000000001" y="112.63000000000001" width="54.34625" height="2" fill="#10B981"/>
<rect x="66.96625" y="112.63000000000001" width="54.34625" height="13.760000000000002" rx="3" fill="#FFFFFF" stroke="#E5E7EB"/>
<rect x="66.96625" y="112.63000000000001" width="54.34625" height="2" fill="#2563EB"/>
<rect x="125.3125" y="112.63000000000001" width="54.34625" height="13.760000000000002" rx="3" fill="#FFFFFF" stroke="#E5E7EB"/>
<rect x="125.3125" y="112.63000000000001" width="54.34625" height="2" fill="#F59E0B"/>
<rect x="183.65875" y="112.63000000000001" width="54.34625" height="13.760000000000002" rx="3" fill="#FFFFFF" stroke="#E5E7EB"/>
<rect x="183.65875" y="112.63000000000001" width="54.34625" height="2" fill="#10B981"/>
<rect x="4.62" y="133.85" width="470.77" height="70.67" rx="3" fill="#FFFFFF" stroke="#E5E7EB"/>
<text x="12.620000000000001" y="145.85" fill="#6B7280" font-family="Segoe UI, Inter, system-ui, sans-serif" font-size="8" font-weight="600">Trend Chart</text>
<rect x="21.1" y="182.3" width="39.8" height="14.2" rx="1" fill="#2563EB"/>
<rect x="78.0" y="164.3" width="39.8" height="32.2" rx="1" fill="#60A5FA"/>
<rect x="134.8" y="176.6" width="39.8" height="20.0" rx="1" fill="#2563EB"/>
<rect x="191.7" y="173.6" width="39.8" height="22.9" rx="1" fill="#60A5FA"/>
<rect x="248.5" y="168.4" width="39.8" height="28.2" rx="1" fill="#2563EB"/>
<rect x="305.4" y="177.6" width="39.8" height="19.0" rx="1" fill="#60A5FA"/>
<rect x="362.2" y="177.7" width="39.8" height="18.8" rx="1" fill="#2563EB"/>
<rect x="419.1" y="183.0" width="39.8" height="13.5" rx="1" fill="#60A5FA"/>
<line x1="12.620000000000001" y1="196.51999999999998" x2="467.39" y2="196.51999999999998" stroke="#E5E7EB"/>
<polyline points="41.0,165.5 97.9,173.2 154.7,170.4 211.6,173.2 268.4,185.0 325.3,164.4 382.1,169.9 439.0,184.9" fill="none" stroke="#F59E0B" stroke-width="1.6"/>
<circle cx="41.0" cy="165.5" r="1.8" fill="#F59E0B"/>
<circle cx="97.9" cy="173.2" r="1.8" fill="#F59E0B"/>
<circle cx="154.7" cy="170.4" r="1.8" fill="#F59E0B"/>
<circle cx="211.6" cy="173.2" r="1.8" fill="#F59E0B"/>
<circle cx="268.4" cy="185.0" r="1.8" fill="#F59E0B"/>
<circle cx="325.3" cy="164.4" r="1.8" fill="#F59E0B"/>
<circle cx="382.1" cy="169.9" r="1.8" fill="#F59E0B"/>
<circle cx="439.0" cy="184.9" r="1.8" fill="#F59E0B"/>
<rect x="4.62" y="207.98" width="470.77" height="57.4" rx="3" fill="#FFFFFF" stroke="#E5E7EB"/>
<rect x="4.62" y="207.98" width="470.77" height="12" fill="#EFF6FF"/>
<line x1="83.1" y1="207.98" x2="83.1" y2="265.38" stroke="#E5E7EB" stroke-opacity="0.6"/>
<line x1="161.5" y1="207.98" x2="161.5" y2="265.38" stroke="#E5E7EB" stroke-opacity="0.6"/>
<line x1="240.0" y1="207.98" x2="240.0" y2="265.38" stroke="#E5E7EB" stroke-opacity="0.6"/>
<line x1="318.5" y1="207.98" x2="318.5" y2="265.38" stroke="#E5E7EB" stroke-opacity="0.6"/>
<line x1="396.9" y1="207.98" x2="396.9" y2="265.38" stroke="#E5E7EB" stroke-opacity="0.6"/>
<line x1="4.62" y1="220.0" x2="475.39" y2="220.0" stroke="#E5E7EB" stroke-opacity="0.5"/>
<line x1="4.62" y1="231.3" x2="475.39" y2="231.3" stroke="#E5E7EB" stroke-opacity="0.5"/>
<line x1="4.62" y1="242.7" x2="475.39" y2="242.7" stroke="#E5E7EB" stroke-opacity="0.5"/>
<line x1="4.62" y1="254.0" x2="475.39" y2="254.0" stroke="#E5E7EB" stroke-opacity="0.5"/>
<line x1="4.62" y1="265.4" x2="475.39" y2="265.4" stroke="#E5E7EB" stroke-opacity="0.5"/>
<text x="43.9" y="216.98" fill="#111827" font-family="Segoe UI, Inter, system-ui, sans-serif" font-size="7" font-weight="700" text-anchor="middle">Q1</text>
<text x="122.3" y="216.98" fill="#111827" font-family="Segoe UI, Inter, system-ui, sans-serif" font-size="7" font-weight="700" text-anchor="middle">Q2</text>
<text x="200.8" y="216.98" fill="#111827" font-family="Segoe UI, Inter, system-ui, sans-serif" font-size="7" font-weight="700" text-anchor="middle">Q3</text>
<text x="279.2" y="216.98" fill="#111827" font-family="Segoe UI, Inter, system-ui, sans-serif" font-size="7" font-weight="700" text-anchor="middle">Q4</text>
<text x="357.7" y="216.98" fill="#111827" font-family="Segoe UI, Inter, system-ui, sans-serif" font-size="7" font-weight="700" text-anchor="middle">YTD</text>
<text x="436.2" y="216.98" fill="#111827" font-family="Segoe UI, Inter, system-ui, sans-serif" font-size="7" font-weight="700" text-anchor="middle">Δ</text>
<rect x="7.62" y="221.98" width="54.9" height="3" fill="#111827" opacity="0.5" rx="1"/>
<rect x="84.1" y="221.0" width="76.5" height="9.3" fill="#EF4444" opacity="0.18"/>
<rect x="162.5" y="221.0" width="76.5" height="9.3" fill="#F59E0B" opacity="0.32"/>
<rect x="241.0" y="221.0" width="76.5" height="9.3" fill="#10B981" opacity="0.42"/>
<rect x="319.5" y="221.0" width="76.5" height="9.3" fill="#EF4444" opacity="0.23"/>
<rect x="397.9" y="221.0" width="76.5" height="9.3" fill="#EF4444" opacity="0.15"/>
<rect x="7.62" y="233.32999999999998" width="54.9" height="3" fill="#111827" opacity="0.5" rx="1"/>
<rect x="84.1" y="232.3" width="76.5" height="9.3" fill="#10B981" opacity="0.37"/>
<rect x="162.5" y="232.3" width="76.5" height="9.3" fill="#F59E0B" opacity="0.31"/>
<rect x="241.0" y="232.3" width="76.5" height="9.3" fill="#F59E0B" opacity="0.32"/>
<rect x="319.5" y="232.3" width="76.5" height="9.3" fill="#EF4444" opacity="0.19"/>
<rect x="397.9" y="232.3" width="76.5" height="9.3" fill="#10B981" opacity="0.38"/>
<rect x="7.62" y="244.67999999999998" width="54.9" height="3" fill="#111827" opacity="0.5" rx="1"/>
<rect x="84.1" y="243.7" width="76.5" height="9.3" fill="#EF4444" opacity="0.21"/>
<rect x="162.5" y="243.7" width="76.5" height="9.3" fill="#F59E0B" opacity="0.32"/>
<rect x="241.0" y="243.7" width="76.5" height="9.3" fill="#F59E0B" opacity="0.31"/>
<rect x="319.5" y="243.7" width="76.5" height="9.3" fill="#EF4444" opacity="0.15"/>
<rect x="397.9" y="243.7" width="76.5" height="9.3" fill="#EF4444" opacity="0.17"/>
<rect x="7.62" y="256.03" width="54.9" height="3" fill="#111827" opacity="0.5" rx="1"/>
<rect x="84.1" y="255.0" width="76.5" height="9.3" fill="#F59E0B" opacity="0.31"/>
<rect x="162.5" y="255.0" width="76.5" height="9.3" fill="#F59E0B" opacity="0.24"/>
<rect x="241.0" y="255.0" width="76.5" height="9.3" fill="#F59E0B" opacity="0.31"/>
<rect x="319.5" y="255.0" width="76.5" height="9.3" fill="#EF4444" opacity="0.16"/>
<rect x="397.9" y="255.0" width="76.5" height="9.3" fill="#F59E0B" opacity="0.29"/>
<circle cx="465.39" cy="14.620000000000001" r="8" fill="#2563EB" stroke="#FFFFFF" stroke-width="1.5"/>
<text x="465.39" y="17.62" fill="#FFFFFF" font-family="Segoe UI, Inter, system-ui, sans-serif" font-size="8" font-weight="700" text-anchor="middle">1</text>
<circle cx="465.39" cy="36.83" r="8" fill="#2563EB" stroke="#FFFFFF" stroke-width="1.5"/>
<text x="465.39" y="39.83" fill="#FFFFFF" font-family="Segoe UI, Inter, system-ui, sans-serif" font-size="8" font-weight="700" text-anchor="middle">2</text>
<circle cx="465.39" cy="57.6" r="8" fill="#2563EB" stroke="#FFFFFF" stroke-width="1.5"/>
<text x="465.39" y="60.6" fill="#FFFFFF" font-family="Segoe UI, Inter, system-ui, sans-serif" font-size="8" font-weight="700" text-anchor="middle">3</text>
<circle cx="465.39" cy="100.87" r="8" fill="#2563EB" stroke="#FFFFFF" stroke-width="1.5"/>
<text x="465.39" y="103.87" fill="#FFFFFF" font-family="Segoe UI, Inter, system-ui, sans-serif" font-size="8" font-weight="700" text-anchor="middle">4</text>
<circle cx="465.39" cy="143.85" r="8" fill="#2563EB" stroke="#FFFFFF" stroke-width="1.5"/>
<text x="465.39" y="146.85" fill="#FFFFFF" font-family="Segoe UI, Inter, system-ui, sans-serif" font-size="8" font-weight="700" text-anchor="middle">5</text>
<circle cx="465.39" cy="217.98" r="8" fill="#2563EB" stroke="#FFFFFF" stroke-width="1.5"/>
<text x="465.39" y="220.98" fill="#FFFFFF" font-family="Segoe UI, Inter, system-ui, sans-serif" font-size="8" font-weight="700" text-anchor="middle">6</text>
<text x="240.0" y="265" fill="#6B7280" font-family="Segoe UI, Inter, system-ui, sans-serif" font-size="7" font-weight="600" text-anchor="middle">budget-actual-grid</text>
</svg>