<svg xmlns="http://www.w3.org/2000/svg" viewBox="0 0 480 270" font-family="Segoe UI, Inter, system-ui, sans-serif">
<title>chiclet-nav-strip</title>
<rect x="0" y="0" width="480" height="270" fill="#FFFFFF"/>
<rect x="0" y="0" width="480" height="3" fill="#2563EB"/>
<rect x="4.62" y="4.62" width="470.77" height="18.75" rx="4" fill="#F8FAFC" stroke="#E5E7EB"/>
<rect x="4.62" y="4.62" width="4" height="18.75" rx="2" fill="#2563EB"/>
<text x="18.62" y="16.245" fill="#111827" font-family="Segoe UI, Inter, system-ui, sans-serif" font-size="10.3125" font-weight="700">Header Bar</text>
<rect x="385.39" y="9.870000000000001" width="70" height="8.4" rx="3" fill="#EFF6FF" stroke="#DBEAFE"/>
<text x="420.39" y="16.995" fill="#6B7280" font-family="Segoe UI, Inter, system-ui, sans-serif" font-size="7.125" font-weight="500" text-anchor="middle">Q4 · FY26</text>
<rect x="4.62" y="26.83" width="470.77" height="22.79" rx="3" fill="#F8FAFC" stroke="#E5E7EB"/>
<rect x="10.620000000000001" y="31.387999999999998" width="86.954" height="13.674" rx="6.837" fill="#FFFFFF" stroke="#E5E7EB"/>
<text x="18.62" y="40.686319999999995" fill="#6B7280" font-family="Segoe UI, Inter, system-ui, sans-serif" font-size="6.837" font-weight="500">Region</text>
<text x="87.574" y="40.412839999999996" fill="#9CA3AF" font-family="Segoe UI, Inter, system-ui, sans-serif" font-size="6.1533" font-weight="500" text-anchor="end">▾</text>
<rect x="103.574" y="31.387999999999998" width="86.954" height="13.674" rx="6.837" fill="#FFFFFF" stroke="#E5E7EB"/>
<text x="111.574" y="40.686319999999995" fill="#6B7280" font-family="Segoe UI, Inter, system-ui, sans-serif" font-size="6.837" font-weight="500">Period</text>
<text x="180.528" y="40.412839999999996" fill="#9CA3AF" font-family="Segoe UI, Inter, system-ui, sans-serif" font-size="6.1533" font-weight="500" text-anchor="end">▾</text>
<rect x="196.528" y="31.387999999999998" width="86.954" height="13.674" rx="6.837" fill="#FFFFFF" stroke="#E5E7EB"/>
<text x="204.528" y="40.686319999999995" fill="#6B7280" font-family="Segoe UI, Inter, system-ui, sans-serif" font-size="6.837" font-weight="500">Product</text>
<text x="273.48199999999997" y="40.412839999999996" fill="#9CA3AF" font-family="Segoe UI, Inter, system-ui, sans-serif" font-size="6.1533" font-weight="500" text-anchor="end">▾</text>
<rect x="289.48199999999997" y="31.387999999999998" width="86.954" height="13.674" rx="6.837" fill="#FFFFFF" stroke="#E5E7EB"/>
<text x="297.48199999999997" y="40.686319999999995" fill="#6B7280" font-family="Segoe UI, Inter, system-ui, sans-serif" font-size="6.837" font-weight="500">Segment</text>
<text x="366.436" y="40.412839999999996" fill="#9CA3AF" font-family="Segoe UI, Inter, system-ui, sans-serif" font-size="6.1533" font-weight="500" text-anchor="end">▾</text>
<rect x="382.436" y="31.387999999999998" width="86.954" height="13.674" rx="6.837" fill="#FFFFFF" stroke="#E5E7EB"/>
<text x="390.436" y="40.686319999999995" fill="#6B7280" font-family="Segoe UI, Inter, system-ui, sans-serif" font-size="6.837" font-weight="500">Channel</text>
<text x="459.39" y="40.412839999999996" fill="#9CA3AF" font-family="Segoe UI, Inter, system-ui, sans-serif" font-size="6.1533" font-weight="500" text-anchor="end">▾</text>
<rect x="10.620000000000001" y="59.08" width="110.1925" height="13.379999999999999" rx="4" fill="#FFFFFF" stroke="#E5E7EB"/>
<rect x="10.620000000000001" y="59.08" width="3" height="13.379999999999999" fill="#2563EB"/>
<text x="18.62" y="64.0236" fill="#6B7280" font-family="Segoe UI, Inter, system-ui, sans-serif" font-size="2.9436" font-weight="500">Revenue</text>
<text x="18.62" y="70.7066" fill="#111827" font-family="Segoe UI, Inter, system-ui, sans-serif" font-size="4.682999999999999" font-weight="700">$1.24M</text>
<rect x="126.8125" y="59.08" width="110.1925" height="13.379999999999999" rx="4" fill="#FFFFFF" stroke="#E5E7EB"/>
<rect x="126.8125" y="59.08" width="3" height="13.379999999999999" fill="#2563EB"/>
<text x="134.8125" y="64.0236" fill="#6B7280" font-family="Segoe UI, Inter, system-ui, sans-serif" font-size="2.9436" font-weight="500">Orders</text>
<text x="134.8125" y="70.7066" fill="#111827" font-family="Segoe UI, Inter, system-ui, sans-serif" font-size="4.682999999999999" font-weight="700">48,912</text>
<rect x="243.005" y="59.08" width="110.1925" height="13.379999999999999" rx="4" fill="#FFFFFF" stroke="#E5E7EB"/>
<rect x="243.005" y="59.08" width="3" height="13.379999999999999" fill="#2563EB"/>
<text x="251.005" y="64.0236" fill="#6B7280" font-family="Segoe UI, Inter, system-ui, sans-serif" font-size="2.9436" font-weight="500">Margin</text>
<text x="251.005" y="70.7066" fill="#111827" font-family="Segoe UI, Inter, system-ui, sans-serif" font-size="4.682999999999999" font-weight="700">38.2%</text>
<rect x="359.1975" y="59.08" width="110.1925" height="13.379999999999999" rx="4" fill="#FFFFFF" stroke="#E5E7EB"/>
<rect x="359.1975" y="59.08" width="3" height="13.379999999999999" fill="#2563EB"/>
<text x="367.1975" y="64.0236" fill="#6B7280" font-family="Segoe UI, Inter, system-ui, sans-serif" font-size="2.9436" font-weight="500">CSAT</text>
<text x="367.1975" y="70.7066" fill="#111827" font-family="Segoe UI, Inter, system-ui, sans-serif" font-size="4.682999999999999" font-weight="700">4.7 / 5</text>
<rect x="4.62" y="81.92" width="470.77" height="107.02" rx="3" fill="#FFFFFF" stroke="#E5E7EB"/>
<text x="12.620000000000001" y="93.92" fill="#6B7280" font-family="Segoe UI, Inter, system-ui, sans-serif" font-size="8" font-weight="600">Hero</text>
<polygon points="12.6,180.94 12.6,155.9 45.1,122.7 77.6,159.7 110.1,156.1 142.6,148.1 175.0,118.9 207.5,138.9 240.0,149.4 272.5,132.4 305.0,123.0 337.5,140.2 369.9,122.7 402.4,160.3 434.9,159.2 467.4,155.4 467.4,180.94" fill="#2563EB" opacity="0.18"/>
<polyline points="12.6,155.9 45.1,122.7 77.6,159.7 110.1,156.1 142.6,148.1 175.0,118.9 207.5,138.9 240.0,149.4 272.5,132.4 305.0,123.0 337.5,140.2 369.9,122.7 402.4,160.3 434.9,159.2 467.4,155.4" fill="none" stroke="#2563EB" stroke-width="1.8"/>
<polyline points="12.6,162.8 45.1,166.5 77.6,151.3 110.1,151.2 142.6,145.4 175.0,148.3 207.5,157.8 240.0,148.3 272.5,140.8 305.0,165.9 337.5,145.8 369.9,158.0 402.4,144.7 434.9,153.9 467.4,154.6" fill="none" stroke="#F59E0B" stroke-width="1.3" stroke-dasharray="3 2"/>
<line x1="12.620000000000001" y1="180.94" x2="467.39" y2="180.94" stroke="#E5E7EB"/>
<rect x="4.62" y="192.4" width="470.77" height="60.29" rx="3" fill="#FFFFFF" stroke="#E5E7EB"/>
<text x="12.620000000000001" y="204.4" fill="#6B7280" font-family="Segoe UI, Inter, system-ui, sans-serif" font-size="8" font-weight="600">Breakdown</text>
<polygon points="12.6,244.69 12.6,236.9 45.1,229.6 77.6,230.0 110.1,224.2 142.6,232.5 175.0,234.8 207.5,223.1 240.0,232.7 272.5,237.5 305.0,232.7 337.5,224.3 369.9,226.0 402.4,228.8 434.9,237.6 467.4,233.1 467.4,244.69" fill="#2563EB" opacity="0.18"/>
<polyline points="12.6,236.9 45.1,229.6 77.6,230.0 110.1,224.2 142.6,232.5 175.0,234.8 207.5,223.1 240.0,232.7 272.5,237.5 305.0,232.7 337.5,224.3 369.9,226.0 402.4,228.8 434.9,237.6 467.4,233.1" fill="none" stroke="#2563EB" stroke-width="1.8"/>
<polyline points="12.6,233.7 45.1,240.4 77.6,228.0 110.1,236.5 142.6,233.6 175.0,238.4 207.5,233.0 240.0,239.5 272.5,232.9 305.0,236.6 337.5,239.9 369.9,236.0 402.4,233.3 434.9,238.5 467.4,239.2" fill="none" stroke="#F59E0B" stroke-width="1.3" stroke-dasharray="3 2"/>
<line x1="12.620000000000001" y1="244.69" x2="467.39" y2="244.69" stroke="#E5E7EB"/>
<rect x="4.62" y="256.15" width="470.77" height="9.23" rx="2" fill="#F8FAFC" stroke="#E5E7EB"/>
<text x="14.620000000000001" y="262.1495" fill="#6B7280" font-family="Segoe UI, Inter, system-ui, sans-serif" font-size="5.0765" font-weight="400">Source: Data warehouse · Last refresh 08:15</text>
<text x="415.39" y="262.1495" fill="#6B7280" font-family="Segoe UI, Inter, system-ui, sans-serif" font-size="5.0765" font-weight="500" text-anchor="start">Confidential</text>
<rect x="455.39" y="258.4575" width="14" height="4.6" rx="2" fill="#2563EB" opacity="0.15"/>
<text x="462.39" y="262.611" fill="#2563EB" font-family="Segoe UI, Inter, system-ui, sans-serif" font-size="4.615" font-weight="700" text-anchor="middle">1</text>
<circle cx="465.39" cy="14.620000000000001" r="8" fill="#2563EB" stroke="#FFFFFF" stroke-width="1.5"/>
<text x="465.39" y="17.62" fill="#FFFFFF" font-family="Segoe UI, Inter, system-ui, sans-serif" font-size="8" font-weight="700" text-anchor="middle">1</text>
<circle cx="465.39" cy="36.83" r="8" fill="#2563EB" stroke="#FFFFFF" stroke-width="1.5"/>
<text x="465.39" y="39.83" fill="#FFFFFF" font-family="Segoe UI, Inter, system-ui, sans-serif" font-size="8" font-weight="700" text-anchor="middle">2</text>
<circle cx="465.39" cy="63.08" r="8" fill="#2563EB" stroke="#FFFFFF" stroke-width="1.5"/>
<text x="465.39" y="66.08" fill="#FFFFFF" font-family="Segoe UI, Inter, system-ui, sans-serif" font-size="8" font-weight="700" text-anchor="middle">3</text>
<circle cx="465.39" cy="91.92" r="8" fill="#2563EB" stroke="#FFFFFF" stroke-width="1.5"/>
<text x="465.39" y="94.92" fill="#FFFFFF" font-family="Segoe UI, Inter, system-ui, sans-serif" font-size="8" font-weight="700" text-anchor="middle">4</text>
<circle cx="465.39" cy="202.4" r="8" fill="#2563EB" stroke="#FFFFFF" stroke-width="1.5"/>
<text x="465.39" y="205.4" fill="#FFFFFF" font-family="Segoe UI, Inter, system-ui, sans-serif" font-size="8" font-weight="700" text-anchor="middle">5</text>
<circle cx="465.39" cy="266.15" r="8" fill="#2563EB" stroke="#FFFFFF" stroke-width="1.5"/>
<text x="465.39" y="269.15" fill="#FFFFFF" font-family="Segoe UI, Inter, system-ui, sans-serif" font-size="8" font-weight="700" text-anchor="middle">6</text>
<text x="240.0" y="265" fill="#6B7280" font-family="Segoe UI, Inter, system-ui, sans-serif" font-size="7" font-weight="600" text-anchor="middle">chiclet-nav-strip</text>
</svg>