<svg xmlns="http://www.w3.org/2000/svg" viewBox="0 0 480 270" font-family="Segoe UI, Inter, system-ui, sans-serif">
<title>cohort-retention-grid</title>
<rect x="0" y="0" width="480" height="270" fill="#FFFFFF"/>
<rect x="0" y="0" width="480" height="3" fill="#2563EB"/>
<rect x="4.62" y="4.62" width="470.77" height="17.31" rx="3" fill="#F8FAFC" stroke="#E5E7EB"/>
<rect x="10.620000000000001" y="8.082" width="86.954" height="10.386" rx="5.193" fill="#FFFFFF" stroke="#E5E7EB"/>
<text x="18.62" y="15.144480000000001" fill="#6B7280" font-family="Segoe UI, Inter, system-ui, sans-serif" font-size="5.193" font-weight="500">Region</text>
<text x="87.574" y="14.93676" fill="#9CA3AF" font-family="Segoe UI, Inter, system-ui, sans-serif" font-size="4.6737" font-weight="500" text-anchor="end">▾</text>
<rect x="103.574" y="8.082" width="86.954" height="10.386" rx="5.193" fill="#FFFFFF" stroke="#E5E7EB"/>
<text x="111.574" y="15.144480000000001" fill="#6B7280" font-family="Segoe UI, Inter, system-ui, sans-serif" font-size="5.193" font-weight="500">Period</text>
<text x="180.528" y="14.93676" fill="#9CA3AF" font-family="Segoe UI, Inter, system-ui, sans-serif" font-size="4.6737" font-weight="500" text-anchor="end">▾</text>
<rect x="196.528" y="8.082" width="86.954" height="10.386" rx="5.193" fill="#FFFFFF" stroke="#E5E7EB"/>
<text x="204.528" y="15.144480000000001" fill="#6B7280" font-family="Segoe UI, Inter, system-ui, sans-serif" font-size="5.193" font-weight="500">Product</text>
<text x="273.48199999999997" y="14.93676" fill="#9CA3AF" font-family="Segoe UI, Inter, system-ui, sans-serif" font-size="4.6737" font-weight="500" text-anchor="end">▾</text>
<rect x="289.48199999999997" y="8.082" width="86.954" height="10.386" rx="5.193" fill="#FFFFFF" stroke="#E5E7EB"/>
<text x="297.48199999999997" y="15.144480000000001" fill="#6B7280" font-family="Segoe UI, Inter, system-ui, sans-serif" font-size="5.193" font-weight="500">Segment</text>
<text x="366.436" y="14.93676" fill="#9CA3AF" font-family="Segoe UI, Inter, system-ui, sans-serif" font-size="4.6737" font-weight="500" text-anchor="end">▾</text>
<rect x="382.436" y="8.082" width="86.954" height="10.386" rx="5.193" fill="#FFFFFF" stroke="#E5E7EB"/>
<text x="390.436" y="15.144480000000001" fill="#6B7280" font-family="Segoe UI, Inter, system-ui, sans-serif" font-size="5.193" font-weight="500">Channel</text>
<text x="459.39" y="14.93676" fill="#9CA3AF" font-family="Segoe UI, Inter, system-ui, sans-serif" font-size="4.6737" font-weight="500" text-anchor="end">▾</text>
<rect x="4.62" y="25.38" width="470.77" height="99.52" rx="3" fill="#FFFFFF" stroke="#E5E7EB"/>
<rect x="4.62" y="25.38" width="470.77" height="12" fill="#EFF6FF"/>
<line x1="83.1" y1="25.38" x2="83.1" y2="124.89999999999999" stroke="#E5E7EB" stroke-opacity="0.6"/>
<line x1="161.5" y1="25.38" x2="161.5" y2="124.89999999999999" stroke="#E5E7EB" stroke-opacity="0.6"/>
<line x1="240.0" y1="25.38" x2="240.0" y2="124.89999999999999" stroke="#E5E7EB" stroke-opacity="0.6"/>
<line x1="318.5" y1="25.38" x2="318.5" y2="124.89999999999999" stroke="#E5E7EB" stroke-opacity="0.6"/>
<line x1="396.9" y1="25.38" x2="396.9" y2="124.89999999999999" stroke="#E5E7EB" stroke-opacity="0.6"/>
<line x1="4.62" y1="37.4" x2="475.39" y2="37.4" stroke="#E5E7EB" stroke-opacity="0.5"/>
<line x1="4.62" y1="48.3" x2="475.39" y2="48.3" stroke="#E5E7EB" stroke-opacity="0.5"/>
<line x1="4.62" y1="59.3" x2="475.39" y2="59.3" stroke="#E5E7EB" stroke-opacity="0.5"/>
<line x1="4.62" y1="70.2" x2="475.39" y2="70.2" stroke="#E5E7EB" stroke-opacity="0.5"/>
<line x1="4.62" y1="81.1" x2="475.39" y2="81.1" stroke="#E5E7EB" stroke-opacity="0.5"/>
<line x1="4.62" y1="92.1" x2="475.39" y2="92.1" stroke="#E5E7EB" stroke-opacity="0.5"/>
<line x1="4.62" y1="103.0" x2="475.39" y2="103.0" stroke="#E5E7EB" stroke-opacity="0.5"/>
<line x1="4.62" y1="114.0" x2="475.39" y2="114.0" stroke="#E5E7EB" stroke-opacity="0.5"/>
<line x1="4.62" y1="124.9" x2="475.39" y2="124.9" stroke="#E5E7EB" stroke-opacity="0.5"/>
<text x="43.9" y="34.379999999999995" fill="#111827" font-family="Segoe UI, Inter, system-ui, sans-serif" font-size="7" font-weight="700" text-anchor="middle">Q1</text>
<text x="122.3" y="34.379999999999995" fill="#111827" font-family="Segoe UI, Inter, system-ui, sans-serif" font-size="7" font-weight="700" text-anchor="middle">Q2</text>
<text x="200.8" y="34.379999999999995" fill="#111827" font-family="Segoe UI, Inter, system-ui, sans-serif" font-size="7" font-weight="700" text-anchor="middle">Q3</text>
<text x="279.2" y="34.379999999999995" fill="#111827" font-family="Segoe UI, Inter, system-ui, sans-serif" font-size="7" font-weight="700" text-anchor="middle">Q4</text>
<text x="357.7" y="34.379999999999995" fill="#111827" font-family="Segoe UI, Inter, system-ui, sans-serif" font-size="7" font-weight="700" text-anchor="middle">YTD</text>
<text x="436.2" y="34.379999999999995" fill="#111827" font-family="Segoe UI, Inter, system-ui, sans-serif" font-size="7" font-weight="700" text-anchor="middle">Δ</text>
<rect x="7.62" y="39.379999999999995" width="54.9" height="3" fill="#111827" opacity="0.5" rx="1"/>
<rect x="84.1" y="38.4" width="76.5" height="8.9" fill="#10B981" opacity="0.34"/>
<rect x="162.5" y="38.4" width="76.5" height="8.9" fill="#F59E0B" opacity="0.29"/>
<rect x="241.0" y="38.4" width="76.5" height="8.9" fill="#F59E0B" opacity="0.27"/>
<rect x="319.5" y="38.4" width="76.5" height="8.9" fill="#10B981" opacity="0.42"/>
<rect x="397.9" y="38.4" width="76.5" height="8.9" fill="#EF4444" opacity="0.23"/>
<rect x="7.62" y="50.31999999999999" width="54.9" height="3" fill="#111827" opacity="0.5" rx="1"/>
<rect x="84.1" y="49.3" width="76.5" height="8.9" fill="#10B981" opacity="0.35"/>
<rect x="162.5" y="49.3" width="76.5" height="8.9" fill="#EF4444" opacity="0.23"/>
<rect x="241.0" y="49.3" width="76.5" height="8.9" fill="#F59E0B" opacity="0.25"/>
<rect x="319.5" y="49.3" width="76.5" height="8.9" fill="#F59E0B" opacity="0.25"/>
<rect x="397.9" y="49.3" width="76.5" height="8.9" fill="#10B981" opacity="0.37"/>
<rect x="7.62" y="61.25999999999999" width="54.9" height="3" fill="#111827" opacity="0.5" rx="1"/>
<rect x="84.1" y="60.3" width="76.5" height="8.9" fill="#F59E0B" opacity="0.30"/>
<rect x="162.5" y="60.3" width="76.5" height="8.9" fill="#F59E0B" opacity="0.31"/>
<rect x="241.0" y="60.3" width="76.5" height="8.9" fill="#10B981" opacity="0.39"/>
<rect x="319.5" y="60.3" width="76.5" height="8.9" fill="#F59E0B" opacity="0.29"/>
<rect x="397.9" y="60.3" width="76.5" height="8.9" fill="#EF4444" opacity="0.19"/>
<rect x="7.62" y="72.19999999999999" width="54.9" height="3" fill="#111827" opacity="0.5" rx="1"/>
<rect x="84.1" y="71.2" width="76.5" height="8.9" fill="#10B981" opacity="0.37"/>
<rect x="162.5" y="71.2" width="76.5" height="8.9" fill="#F59E0B" opacity="0.26"/>
<rect x="241.0" y="71.2" width="76.5" height="8.9" fill="#F59E0B" opacity="0.29"/>
<rect x="319.5" y="71.2" width="76.5" height="8.9" fill="#10B981" opacity="0.43"/>
<rect x="397.9" y="71.2" width="76.5" height="8.9" fill="#10B981" opacity="0.44"/>
<rect x="7.62" y="83.13999999999999" width="54.9" height="3" fill="#111827" opacity="0.5" rx="1"/>
<rect x="84.1" y="82.1" width="76.5" height="8.9" fill="#10B981" opacity="0.33"/>
<rect x="162.5" y="82.1" width="76.5" height="8.9" fill="#F59E0B" opacity="0.26"/>
<rect x="241.0" y="82.1" width="76.5" height="8.9" fill="#EF4444" opacity="0.23"/>
<rect x="319.5" y="82.1" width="76.5" height="8.9" fill="#EF4444" opacity="0.24"/>
<rect x="397.9" y="82.1" width="76.5" height="8.9" fill="#F59E0B" opacity="0.31"/>
<rect x="7.62" y="94.07999999999998" width="54.9" height="3" fill="#111827" opacity="0.5" rx="1"/>
<rect x="84.1" y="93.1" width="76.5" height="8.9" fill="#EF4444" opacity="0.16"/>
<rect x="162.5" y="93.1" width="76.5" height="8.9" fill="#F59E0B" opacity="0.25"/>
<rect x="241.0" y="93.1" width="76.5" height="8.9" fill="#F59E0B" opacity="0.30"/>
<rect x="319.5" y="93.1" width="76.5" height="8.9" fill="#EF4444" opacity="0.19"/>
<rect x="397.9" y="93.1" width="76.5" height="8.9" fill="#EF4444" opacity="0.20"/>
<rect x="7.62" y="105.02" width="54.9" height="3" fill="#111827" opacity="0.5" rx="1"/>
<rect x="84.1" y="104.0" width="76.5" height="8.9" fill="#10B981" opacity="0.40"/>
<rect x="162.5" y="104.0" width="76.5" height="8.9" fill="#EF4444" opacity="0.17"/>
<rect x="241.0" y="104.0" width="76.5" height="8.9" fill="#EF4444" opacity="0.23"/>
<rect x="319.5" y="104.0" width="76.5" height="8.9" fill="#10B981" opacity="0.42"/>
<rect x="397.9" y="104.0" width="76.5" height="8.9" fill="#10B981" opacity="0.45"/>
<rect x="7.62" y="115.96" width="54.9" height="3" fill="#111827" opacity="0.5" rx="1"/>
<rect x="84.1" y="115.0" width="76.5" height="8.9" fill="#F59E0B" opacity="0.31"/>
<rect x="162.5" y="115.0" width="76.5" height="8.9" fill="#10B981" opacity="0.34"/>
<rect x="241.0" y="115.0" width="76.5" height="8.9" fill="#10B981" opacity="0.42"/>
<rect x="319.5" y="115.0" width="76.5" height="8.9" fill="#10B981" opacity="0.35"/>
<rect x="397.9" y="115.0" width="76.5" height="8.9" fill="#F59E0B" opacity="0.30"/>
<rect x="4.62" y="128.37" width="470.77" height="52.79" rx="3" fill="#FFFFFF" stroke="#E5E7EB"/>
<text x="12.620000000000001" y="140.37" fill="#6B7280" font-family="Segoe UI, Inter, system-ui, sans-serif" font-size="8" font-weight="600">Supporting Chart</text>
<polygon points="12.6,173.16 12.6,166.4 45.1,160.7 77.6,161.2 110.1,161.5 142.6,166.1 175.0,164.2 207.5,157.9 240.0,159.9 272.5,159.0 305.0,159.1 337.5,165.9 369.9,160.8 402.4,157.7 434.9,166.7 467.4,157.2 467.4,173.16" fill="#2563EB" opacity="0.18"/>
<polyline points="12.6,166.4 45.1,160.7 77.6,161.2 110.1,161.5 142.6,166.1 175.0,164.2 207.5,157.9 240.0,159.9 272.5,159.0 305.0,159.1 337.5,165.9 369.9,160.8 402.4,157.7 434.9,166.7 467.4,157.2" fill="none" stroke="#2563EB" stroke-width="1.8"/>
<polyline points="12.6,169.5 45.1,166.3 77.6,161.3 110.1,164.4 142.6,161.3 175.0,162.3 207.5,163.2 240.0,161.0 272.5,164.3 305.0,163.1 337.5,163.6 369.9,161.1 402.4,161.8 434.9,162.3 467.4,161.8" fill="none" stroke="#F59E0B" stroke-width="1.3" stroke-dasharray="3 2"/>
<line x1="12.620000000000001" y1="173.16" x2="467.39" y2="173.16" stroke="#E5E7EB"/>
<rect x="4.62" y="184.62" width="470.77" height="80.77" rx="3" fill="#FFFFFF" stroke="#E5E7EB"/>
<rect x="4.62" y="184.62" width="470.77" height="14" fill="#EFF6FF"/>
<text x="12.620000000000001" y="194.62" fill="#111827" font-family="Segoe UI, Inter, system-ui, sans-serif" font-size="7.5" font-weight="700">Item</text>
<text x="103.574" y="194.62" fill="#111827" font-family="Segoe UI, Inter, system-ui, sans-serif" font-size="7.5" font-weight="700">Value</text>
<text x="194.528" y="194.62" fill="#111827" font-family="Segoe UI, Inter, system-ui, sans-serif" font-size="7.5" font-weight="700">Δ%</text>
<text x="285.48199999999997" y="194.62" fill="#111827" font-family="Segoe UI, Inter, system-ui, sans-serif" font-size="7.5" font-weight="700">Status</text>
<text x="376.436" y="194.62" fill="#111827" font-family="Segoe UI, Inter, system-ui, sans-serif" font-size="7.5" font-weight="700">Trend</text>
<line x1="4.62" y1="198.62" x2="475.39" y2="198.62" stroke="#E5E7EB"/>
<rect x="12.620000000000001" y="201.62" width="63.7" height="4" fill="#6B7280" rx="1" opacity="0.5"/>
<rect x="103.574" y="201.62" width="45.5" height="4" fill="#111827" rx="1" opacity="0.7"/>
<rect x="194.528" y="201.62" width="45.5" height="4" fill="#111827" rx="1" opacity="0.7"/>
<circle cx="291.48199999999997" cy="203.62" r="2.5" fill="#10B981"/>
<polyline points="378.4,203.7 380.4,203.6 382.4,205.0 384.4,205.1 386.4,203.1" fill="none" stroke="#2563EB" stroke-width="1"/>
<rect x="4.62" y="208.62" width="470.77" height="10" fill="#F3F4F6"/>
<rect x="12.620000000000001" y="211.62" width="63.7" height="4" fill="#6B7280" rx="1" opacity="0.5"/>
<rect x="103.574" y="211.62" width="45.5" height="4" fill="#111827" rx="1" opacity="0.7"/>
<rect x="194.528" y="211.62" width="45.5" height="4" fill="#111827" rx="1" opacity="0.7"/>
<circle cx="291.48199999999997" cy="213.62" r="2.5" fill="#F59E0B"/>
<polyline points="378.4,213.6 380.4,211.7 382.4,212.6 384.4,213.3 386.4,212.0" fill="none" stroke="#2563EB" stroke-width="1"/>
<rect x="12.620000000000001" y="221.62" width="63.7" height="4" fill="#6B7280" rx="1" opacity="0.5"/>
<rect x="103.574" y="221.62" width="45.5" height="4" fill="#111827" rx="1" opacity="0.7"/>
<rect x="194.528" y="221.62" width="45.5" height="4" fill="#111827" rx="1" opacity="0.7"/>
<circle cx="291.48199999999997" cy="223.62" r="2.5" fill="#EF4444"/>
<polyline points="378.4,222.8 380.4,224.8 382.4,222.8 384.4,223.4 386.4,223.4" fill="none" stroke="#2563EB" stroke-width="1"/>
<rect x="4.62" y="228.62" width="470.77" height="10" fill="#F3F4F6"/>
<rect x="12.620000000000001" y="231.62" width="63.7" height="4" fill="#6B7280" rx="1" opacity="0.5"/>
<rect x="103.574" y="231.62" width="45.5" height="4" fill="#111827" rx="1" opacity="0.7"/>
<rect x="194.528" y="231.62" width="45.5" height="4" fill="#111827" rx="1" opacity="0.7"/>
<circle cx="291.48199999999997" cy="233.62" r="2.5" fill="#10B981"/>
<polyline points="378.4,232.8 380.4,234.4 382.4,233.9 384.4,235.3 386.4,231.8" fill="none" stroke="#2563EB" stroke-width="1"/>
<rect x="12.620000000000001" y="241.62" width="63.7" height="4" fill="#6B7280" rx="1" opacity="0.5"/>
<rect x="103.574" y="241.62" width="45.5" height="4" fill="#111827" rx="1" opacity="0.7"/>
<rect x="194.528" y="241.62" width="45.5" height="4" fill="#111827" rx="1" opacity="0.7"/>
<circle cx="291.48199999999997" cy="243.62" r="2.5" fill="#F59E0B"/>
<polyline points="378.4,242.7 380.4,244.7 382.4,243.0 384.4,244.7 386.4,243.3" fill="none" stroke="#2563EB" stroke-width="1"/>
<rect x="4.62" y="248.62" width="470.77" height="10" fill="#F3F4F6"/>
<rect x="12.620000000000001" y="251.62" width="63.7" height="4" fill="#6B7280" rx="1" opacity="0.5"/>
<rect x="103.574" y="251.62" width="45.5" height="4" fill="#111827" rx="1" opacity="0.7"/>
<rect x="194.528" y="251.62" width="45.5" height="4" fill="#111827" rx="1" opacity="0.7"/>
<circle cx="291.48199999999997" cy="253.62" r="2.5" fill="#EF4444"/>
<polyline points="378.4,255.3 380.4,255.3 382.4,253.3 384.4,254.6 386.4,253.0" fill="none" stroke="#2563EB" stroke-width="1"/>
<text x="240.0" y="265" fill="#6B7280" font-family="Segoe UI, Inter, system-ui, sans-serif" font-size="7" font-weight="600" text-anchor="middle">cohort-retention-grid</text>
</svg>