<svg xmlns="http://www.w3.org/2000/svg" viewBox="0 0 240 519" font-family="Segoe UI, Inter, system-ui, sans-serif">
<title>cohort-retention-grid-mobile</title>
<rect x="0" y="0" width="240" height="519" fill="#0F172A"/>
<rect x="0" y="0" width="240" height="3" fill="#38BDF8"/>
<rect x="7.38" y="9.84" width="225.23" height="28.29" rx="4" fill="#111827" stroke="#334155"/>
<rect x="7.38" y="9.84" width="4" height="28.29" rx="2" fill="#38BDF8"/>
<text x="21.38" y="27.3798" fill="#F1F5F9" font-family="Segoe UI, Inter, system-ui, sans-serif" font-size="11" font-weight="700">Mobile Title</text>
<rect x="142.60999999999999" y="17.761200000000002" width="70" height="12.7" rx="3" fill="#0C2A4A" stroke="#1E40AF"/>
<text x="177.60999999999999" y="28.511400000000002" fill="#94A3B8" font-family="Segoe UI, Inter, system-ui, sans-serif" font-size="10.7502" font-weight="500" text-anchor="middle">Q4 · FY26</text>
<rect x="7.38" y="45.5" width="225.23" height="427.99" rx="3" fill="#1E293B" stroke="#334155"/>
<text x="15.379999999999999" y="57.5" fill="#94A3B8" font-family="Segoe UI, Inter, system-ui, sans-serif" font-size="8" font-weight="600">Cohort Retention</text>
<rect x="15.4" y="63.5" width="16.4" height="10.8" fill="#38BDF8" opacity="0.50"/>
<rect x="32.8" y="63.5" width="16.4" height="10.8" fill="#38BDF8" opacity="0.45"/>
<rect x="50.3" y="63.5" width="16.4" height="10.8" fill="#FBBF24" opacity="0.20"/>
<rect x="67.7" y="63.5" width="16.4" height="10.8" fill="#FBBF24" opacity="0.32"/>
<rect x="85.1" y="63.5" width="16.4" height="10.8" fill="#38BDF8" opacity="0.58"/>
<rect x="102.6" y="63.5" width="16.4" height="10.8" fill="#FBBF24" opacity="0.21"/>
<rect x="120.0" y="63.5" width="16.4" height="10.8" fill="#38BDF8" opacity="0.49"/>
<rect x="137.4" y="63.5" width="16.4" height="10.8" fill="#38BDF8" opacity="0.35"/>
<rect x="154.9" y="63.5" width="16.4" height="10.8" fill="#38BDF8" opacity="0.34"/>
<rect x="172.3" y="63.5" width="16.4" height="10.8" fill="#FBBF24" opacity="0.26"/>
<rect x="189.7" y="63.5" width="16.4" height="10.8" fill="#FBBF24" opacity="0.25"/>
<rect x="207.2" y="63.5" width="16.4" height="10.8" fill="#FBBF24" opacity="0.28"/>
<rect x="15.4" y="75.3" width="16.4" height="10.8" fill="#FBBF24" opacity="0.26"/>
<rect x="32.8" y="75.3" width="16.4" height="10.8" fill="#38BDF8" opacity="0.64"/>
<rect x="50.3" y="75.3" width="16.4" height="10.8" fill="#FBBF24" opacity="0.15"/>
<rect x="67.7" y="75.3" width="16.4" height="10.8" fill="#38BDF8" opacity="0.42"/>
<rect x="85.1" y="75.3" width="16.4" height="10.8" fill="#38BDF8" opacity="0.39"/>
<rect x="102.6" y="75.3" width="16.4" height="10.8" fill="#38BDF8" opacity="0.59"/>
<rect x="120.0" y="75.3" width="16.4" height="10.8" fill="#38BDF8" opacity="0.49"/>
<rect x="137.4" y="75.3" width="16.4" height="10.8" fill="#FBBF24" opacity="0.19"/>
<rect x="154.9" y="75.3" width="16.4" height="10.8" fill="#38BDF8" opacity="0.55"/>
<rect x="172.3" y="75.3" width="16.4" height="10.8" fill="#FBBF24" opacity="0.15"/>
<rect x="189.7" y="75.3" width="16.4" height="10.8" fill="#38BDF8" opacity="0.48"/>
<rect x="207.2" y="75.3" width="16.4" height="10.8" fill="#FBBF24" opacity="0.25"/>
<rect x="15.4" y="87.1" width="16.4" height="10.8" fill="#FBBF24" opacity="0.15"/>
<rect x="32.8" y="87.1" width="16.4" height="10.8" fill="#FBBF24" opacity="0.19"/>
<rect x="50.3" y="87.1" width="16.4" height="10.8" fill="#FBBF24" opacity="0.27"/>
<rect x="67.7" y="87.1" width="16.4" height="10.8" fill="#38BDF8" opacity="0.51"/>
<rect x="85.1" y="87.1" width="16.4" height="10.8" fill="#38BDF8" opacity="0.41"/>
<rect x="102.6" y="87.1" width="16.4" height="10.8" fill="#FBBF24" opacity="0.17"/>
<rect x="120.0" y="87.1" width="16.4" height="10.8" fill="#FBBF24" opacity="0.32"/>
<rect x="137.4" y="87.1" width="16.4" height="10.8" fill="#38BDF8" opacity="0.47"/>
<rect x="154.9" y="87.1" width="16.4" height="10.8" fill="#FBBF24" opacity="0.32"/>
<rect x="172.3" y="87.1" width="16.4" height="10.8" fill="#FBBF24" opacity="0.20"/>
<rect x="189.7" y="87.1" width="16.4" height="10.8" fill="#FBBF24" opacity="0.28"/>
<rect x="207.2" y="87.1" width="16.4" height="10.8" fill="#38BDF8" opacity="0.34"/>
<rect x="15.4" y="99.0" width="16.4" height="10.8" fill="#FBBF24" opacity="0.22"/>
<rect x="32.8" y="99.0" width="16.4" height="10.8" fill="#FBBF24" opacity="0.27"/>
<rect x="50.3" y="99.0" width="16.4" height="10.8" fill="#FBBF24" opacity="0.15"/>
<rect x="67.7" y="99.0" width="16.4" height="10.8" fill="#38BDF8" opacity="0.44"/>
<rect x="85.1" y="99.0" width="16.4" height="10.8" fill="#FBBF24" opacity="0.31"/>
<rect x="102.6" y="99.0" width="16.4" height="10.8" fill="#FBBF24" opacity="0.31"/>
<rect x="120.0" y="99.0" width="16.4" height="10.8" fill="#FBBF24" opacity="0.23"/>
<rect x="137.4" y="99.0" width="16.4" height="10.8" fill="#FBBF24" opacity="0.28"/>
<rect x="154.9" y="99.0" width="16.4" height="10.8" fill="#38BDF8" opacity="0.57"/>
<rect x="172.3" y="99.0" width="16.4" height="10.8" fill="#FBBF24" opacity="0.27"/>
<rect x="189.7" y="99.0" width="16.4" height="10.8" fill="#FBBF24" opacity="0.16"/>
<rect x="207.2" y="99.0" width="16.4" height="10.8" fill="#FBBF24" opacity="0.21"/>
<rect x="15.4" y="110.8" width="16.4" height="10.8" fill="#FBBF24" opacity="0.29"/>
<rect x="32.8" y="110.8" width="16.4" height="10.8" fill="#FBBF24" opacity="0.18"/>
<rect x="50.3" y="110.8" width="16.4" height="10.8" fill="#FBBF24" opacity="0.28"/>
<rect x="67.7" y="110.8" width="16.4" height="10.8" fill="#FBBF24" opacity="0.30"/>
<rect x="85.1" y="110.8" width="16.4" height="10.8" fill="#38BDF8" opacity="0.47"/>
<rect x="102.6" y="110.8" width="16.4" height="10.8" fill="#FBBF24" opacity="0.27"/>
<rect x="120.0" y="110.8" width="16.4" height="10.8" fill="#38BDF8" opacity="0.50"/>
<rect x="137.4" y="110.8" width="16.4" height="10.8" fill="#FBBF24" opacity="0.23"/>
<rect x="154.9" y="110.8" width="16.4" height="10.8" fill="#FBBF24" opacity="0.30"/>
<rect x="172.3" y="110.8" width="16.4" height="10.8" fill="#38BDF8" opacity="0.34"/>
<rect x="189.7" y="110.8" width="16.4" height="10.8" fill="#38BDF8" opacity="0.41"/>
<rect x="207.2" y="110.8" width="16.4" height="10.8" fill="#38BDF8" opacity="0.37"/>
<rect x="15.4" y="122.6" width="16.4" height="10.8" fill="#FBBF24" opacity="0.21"/>
<rect x="32.8" y="122.6" width="16.4" height="10.8" fill="#FBBF24" opacity="0.25"/>
<rect x="50.3" y="122.6" width="16.4" height="10.8" fill="#FBBF24" opacity="0.20"/>
<rect x="67.7" y="122.6" width="16.4" height="10.8" fill="#FBBF24" opacity="0.28"/>
<rect x="85.1" y="122.6" width="16.4" height="10.8" fill="#FBBF24" opacity="0.15"/>
<rect x="102.6" y="122.6" width="16.4" height="10.8" fill="#FBBF24" opacity="0.15"/>
<rect x="120.0" y="122.6" width="16.4" height="10.8" fill="#38BDF8" opacity="0.62"/>
<rect x="137.4" y="122.6" width="16.4" height="10.8" fill="#FBBF24" opacity="0.17"/>
<rect x="154.9" y="122.6" width="16.4" height="10.8" fill="#38BDF8" opacity="0.35"/>
<rect x="172.3" y="122.6" width="16.4" height="10.8" fill="#38BDF8" opacity="0.55"/>
<rect x="189.7" y="122.6" width="16.4" height="10.8" fill="#FBBF24" opacity="0.15"/>
<rect x="207.2" y="122.6" width="16.4" height="10.8" fill="#FBBF24" opacity="0.26"/>
<rect x="15.4" y="134.4" width="16.4" height="10.8" fill="#FBBF24" opacity="0.15"/>
<rect x="32.8" y="134.4" width="16.4" height="10.8" fill="#FBBF24" opacity="0.19"/>
<rect x="50.3" y="134.4" width="16.4" height="10.8" fill="#FBBF24" opacity="0.15"/>
<rect x="67.7" y="134.4" width="16.4" height="10.8" fill="#FBBF24" opacity="0.26"/>
<rect x="85.1" y="134.4" width="16.4" height="10.8" fill="#FBBF24" opacity="0.24"/>
<rect x="102.6" y="134.4" width="16.4" height="10.8" fill="#FBBF24" opacity="0.26"/>
<rect x="120.0" y="134.4" width="16.4" height="10.8" fill="#FBBF24" opacity="0.22"/>
<rect x="137.4" y="134.4" width="16.4" height="10.8" fill="#38BDF8" opacity="0.61"/>
<rect x="154.9" y="134.4" width="16.4" height="10.8" fill="#FBBF24" opacity="0.15"/>
<rect x="172.3" y="134.4" width="16.4" height="10.8" fill="#38BDF8" opacity="0.43"/>
<rect x="189.7" y="134.4" width="16.4" height="10.8" fill="#38BDF8" opacity="0.36"/>
<rect x="207.2" y="134.4" width="16.4" height="10.8" fill="#38BDF8" opacity="0.50"/>
<rect x="15.4" y="146.3" width="16.4" height="10.8" fill="#FBBF24" opacity="0.30"/>
<rect x="32.8" y="146.3" width="16.4" height="10.8" fill="#FBBF24" opacity="0.18"/>
<rect x="50.3" y="146.3" width="16.4" height="10.8" fill="#FBBF24" opacity="0.27"/>
<rect x="67.7" y="146.3" width="16.4" height="10.8" fill="#FBBF24" opacity="0.23"/>
<rect x="85.1" y="146.3" width="16.4" height="10.8" fill="#FBBF24" opacity="0.15"/>
<rect x="102.6" y="146.3" width="16.4" height="10.8" fill="#FBBF24" opacity="0.24"/>
<rect x="120.0" y="146.3" width="16.4" height="10.8" fill="#FBBF24" opacity="0.17"/>
<rect x="137.4" y="146.3" width="16.4" height="10.8" fill="#38BDF8" opacity="0.45"/>
<rect x="154.9" y="146.3" width="16.4" height="10.8" fill="#38BDF8" opacity="0.69"/>
<rect x="172.3" y="146.3" width="16.4" height="10.8" fill="#FBBF24" opacity="0.15"/>
<rect x="189.7" y="146.3" width="16.4" height="10.8" fill="#FBBF24" opacity="0.26"/>
<rect x="207.2" y="146.3" width="16.4" height="10.8" fill="#FBBF24" opacity="0.30"/>
<rect x="15.4" y="158.1" width="16.4" height="10.8" fill="#FBBF24" opacity="0.15"/>
<rect x="32.8" y="158.1" width="16.4" height="10.8" fill="#FBBF24" opacity="0.16"/>
<rect x="50.3" y="158.1" width="16.4" height="10.8" fill="#FBBF24" opacity="0.28"/>
<rect x="67.7" y="158.1" width="16.4" height="10.8" fill="#FBBF24" opacity="0.15"/>
<rect x="85.1" y="158.1" width="16.4" height="10.8" fill="#FBBF24" opacity="0.15"/>
<rect x="102.6" y="158.1" width="16.4" height="10.8" fill="#FBBF24" opacity="0.27"/>
<rect x="120.0" y="158.1" width="16.4" height="10.8" fill="#FBBF24" opacity="0.23"/>
<rect x="137.4" y="158.1" width="16.4" height="10.8" fill="#FBBF24" opacity="0.18"/>
<rect x="154.9" y="158.1" width="16.4" height="10.8" fill="#FBBF24" opacity="0.18"/>
<rect x="172.3" y="158.1" width="16.4" height="10.8" fill="#38BDF8" opacity="0.55"/>
<rect x="189.7" y="158.1" width="16.4" height="10.8" fill="#38BDF8" opacity="0.45"/>
<rect x="207.2" y="158.1" width="16.4" height="10.8" fill="#FBBF24" opacity="0.27"/>
<rect x="15.4" y="169.9" width="16.4" height="10.8" fill="#FBBF24" opacity="0.23"/>
<rect x="32.8" y="169.9" width="16.4" height="10.8" fill="#FBBF24" opacity="0.29"/>
<rect x="50.3" y="169.9" width="16.4" height="10.8" fill="#FBBF24" opacity="0.20"/>
<rect x="67.7" y="169.9" width="16.4" height="10.8" fill="#FBBF24" opacity="0.25"/>
<rect x="85.1" y="169.9" width="16.4" height="10.8" fill="#FBBF24" opacity="0.15"/>
<rect x="102.6" y="169.9" width="16.4" height="10.8" fill="#FBBF24" opacity="0.28"/>
<rect x="120.0" y="169.9" width="16.4" height="10.8" fill="#FBBF24" opacity="0.24"/>
<rect x="137.4" y="169.9" width="16.4" height="10.8" fill="#FBBF24" opacity="0.18"/>
<rect x="154.9" y="169.9" width="16.4" height="10.8" fill="#FBBF24" opacity="0.29"/>
<rect x="172.3" y="169.9" width="16.4" height="10.8" fill="#38BDF8" opacity="0.35"/>
<rect x="189.7" y="169.9" width="16.4" height="10.8" fill="#FBBF24" opacity="0.31"/>
<rect x="207.2" y="169.9" width="16.4" height="10.8" fill="#38BDF8" opacity="0.60"/>
<rect x="15.4" y="181.7" width="16.4" height="10.8" fill="#FBBF24" opacity="0.28"/>
<rect x="32.8" y="181.7" width="16.4" height="10.8" fill="#FBBF24" opacity="0.25"/>
<rect x="50.3" y="181.7" width="16.4" height="10.8" fill="#FBBF24" opacity="0.28"/>
<rect x="67.7" y="181.7" width="16.4" height="10.8" fill="#FBBF24" opacity="0.29"/>
<rect x="85.1" y="181.7" width="16.4" height="10.8" fill="#FBBF24" opacity="0.29"/>
<rect x="102.6" y="181.7" width="16.4" height="10.8" fill="#FBBF24" opacity="0.21"/>
<rect x="120.0" y="181.7" width="16.4" height="10.8" fill="#FBBF24" opacity="0.20"/>
<rect x="137.4" y="181.7" width="16.4" height="10.8" fill="#FBBF24" opacity="0.23"/>
<rect x="154.9" y="181.7" width="16.4" height="10.8" fill="#FBBF24" opacity="0.24"/>
<rect x="172.3" y="181.7" width="16.4" height="10.8" fill="#FBBF24" opacity="0.15"/>
<rect x="189.7" y="181.7" width="16.4" height="10.8" fill="#FBBF24" opacity="0.16"/>
<rect x="207.2" y="181.7" width="16.4" height="10.8" fill="#38BDF8" opacity="0.53"/>
<rect x="15.4" y="193.6" width="16.4" height="10.8" fill="#FBBF24" opacity="0.28"/>
<rect x="32.8" y="193.6" width="16.4" height="10.8" fill="#FBBF24" opacity="0.16"/>
<rect x="50.3" y="193.6" width="16.4" height="10.8" fill="#FBBF24" opacity="0.15"/>
<rect x="67.7" y="193.6" width="16.4" height="10.8" fill="#FBBF24" opacity="0.24"/>
<rect x="85.1" y="193.6" width="16.4" height="10.8" fill="#FBBF24" opacity="0.19"/>
<rect x="102.6" y="193.6" width="16.4" height="10.8" fill="#FBBF24" opacity="0.26"/>
<rect x="120.0" y="193.6" width="16.4" height="10.8" fill="#FBBF24" opacity="0.26"/>
<rect x="137.4" y="193.6" width="16.4" height="10.8" fill="#FBBF24" opacity="0.18"/>
<rect x="154.9" y="193.6" width="16.4" height="10.8" fill="#FBBF24" opacity="0.18"/>
<rect x="172.3" y="193.6" width="16.4" height="10.8" fill="#FBBF24" opacity="0.25"/>
<rect x="189.7" y="193.6" width="16.4" height="10.8" fill="#FBBF24" opacity="0.17"/>
<rect x="207.2" y="193.6" width="16.4" height="10.8" fill="#FBBF24" opacity="0.25"/>
<rect x="15.4" y="205.4" width="16.4" height="10.8" fill="#FBBF24" opacity="0.29"/>
<rect x="32.8" y="205.4" width="16.4" height="10.8" fill="#FBBF24" opacity="0.16"/>
<rect x="50.3" y="205.4" width="16.4" height="10.8" fill="#FBBF24" opacity="0.24"/>
<rect x="67.7" y="205.4" width="16.4" height="10.8" fill="#FBBF24" opacity="0.20"/>
<rect x="85.1" y="205.4" width="16.4" height="10.8" fill="#FBBF24" opacity="0.24"/>
<rect x="102.6" y="205.4" width="16.4" height="10.8" fill="#FBBF24" opacity="0.26"/>
<rect x="120.0" y="205.4" width="16.4" height="10.8" fill="#FBBF24" opacity="0.16"/>
<rect x="137.4" y="205.4" width="16.4" height="10.8" fill="#FBBF24" opacity="0.28"/>
<rect x="154.9" y="205.4" width="16.4" height="10.8" fill="#FBBF24" opacity="0.15"/>
<rect x="172.3" y="205.4" width="16.4" height="10.8" fill="#FBBF24" opacity="0.29"/>
<rect x="189.7" y="205.4" width="16.4" height="10.8" fill="#FBBF24" opacity="0.26"/>
<rect x="207.2" y="205.4" width="16.4" height="10.8" fill="#FBBF24" opacity="0.24"/>
<rect x="15.4" y="217.2" width="16.4" height="10.8" fill="#FBBF24" opacity="0.30"/>
<rect x="32.8" y="217.2" width="16.4" height="10.8" fill="#FBBF24" opacity="0.16"/>
<rect x="50.3" y="217.2" width="16.4" height="10.8" fill="#FBBF24" opacity="0.24"/>
<rect x="67.7" y="217.2" width="16.4" height="10.8" fill="#FBBF24" opacity="0.20"/>
<rect x="85.1" y="217.2" width="16.4" height="10.8" fill="#FBBF24" opacity="0.18"/>
<rect x="102.6" y="217.2" width="16.4" height="10.8" fill="#FBBF24" opacity="0.23"/>
<rect x="120.0" y="217.2" width="16.4" height="10.8" fill="#FBBF24" opacity="0.15"/>
<rect x="137.4" y="217.2" width="16.4" height="10.8" fill="#FBBF24" opacity="0.20"/>
<rect x="154.9" y="217.2" width="16.4" height="10.8" fill="#FBBF24" opacity="0.16"/>
<rect x="172.3" y="217.2" width="16.4" height="10.8" fill="#FBBF24" opacity="0.15"/>
<rect x="189.7" y="217.2" width="16.4" height="10.8" fill="#FBBF24" opacity="0.19"/>
<rect x="207.2" y="217.2" width="16.4" height="10.8" fill="#FBBF24" opacity="0.16"/>
<rect x="15.4" y="229.0" width="16.4" height="10.8" fill="#FBBF24" opacity="0.20"/>
<rect x="32.8" y="229.0" width="16.4" height="10.8" fill="#FBBF24" opacity="0.15"/>
<rect x="50.3" y="229.0" width="16.4" height="10.8" fill="#FBBF24" opacity="0.30"/>
<rect x="67.7" y="229.0" width="16.4" height="10.8" fill="#FBBF24" opacity="0.26"/>
<rect x="85.1" y="229.0" width="16.4" height="10.8" fill="#FBBF24" opacity="0.28"/>
<rect x="102.6" y="229.0" width="16.4" height="10.8" fill="#FBBF24" opacity="0.15"/>
<rect x="120.0" y="229.0" width="16.4" height="10.8" fill="#FBBF24" opacity="0.15"/>
<rect x="137.4" y="229.0" width="16.4" height="10.8" fill="#FBBF24" opacity="0.24"/>
<rect x="154.9" y="229.0" width="16.4" height="10.8" fill="#FBBF24" opacity="0.23"/>
<rect x="172.3" y="229.0" width="16.4" height="10.8" fill="#FBBF24" opacity="0.30"/>
<rect x="189.7" y="229.0" width="16.4" height="10.8" fill="#FBBF24" opacity="0.21"/>
<rect x="207.2" y="229.0" width="16.4" height="10.8" fill="#FBBF24" opacity="0.21"/>
<rect x="15.4" y="240.8" width="16.4" height="10.8" fill="#FBBF24" opacity="0.18"/>
<rect x="32.8" y="240.8" width="16.4" height="10.8" fill="#FBBF24" opacity="0.29"/>
<rect x="50.3" y="240.8" width="16.4" height="10.8" fill="#FBBF24" opacity="0.15"/>
<rect x="67.7" y="240.8" width="16.4" height="10.8" fill="#FBBF24" opacity="0.22"/>
<rect x="85.1" y="240.8" width="16.4" height="10.8" fill="#FBBF24" opacity="0.24"/>
<rect x="102.6" y="240.8" width="16.4" height="10.8" fill="#FBBF24" opacity="0.28"/>
<rect x="120.0" y="240.8" width="16.4" height="10.8" fill="#FBBF24" opacity="0.21"/>
<rect x="137.4" y="240.8" width="16.4" height="10.8" fill="#FBBF24" opacity="0.15"/>
<rect x="154.9" y="240.8" width="16.4" height="10.8" fill="#FBBF24" opacity="0.29"/>
<rect x="172.3" y="240.8" width="16.4" height="10.8" fill="#FBBF24" opacity="0.26"/>
<rect x="189.7" y="240.8" width="16.4" height="10.8" fill="#FBBF24" opacity="0.26"/>
<rect x="207.2" y="240.8" width="16.4" height="10.8" fill="#FBBF24" opacity="0.18"/>
<rect x="15.4" y="252.7" width="16.4" height="10.8" fill="#FBBF24" opacity="0.25"/>
<rect x="32.8" y="252.7" width="16.4" height="10.8" fill="#FBBF24" opacity="0.15"/>
<rect x="50.3" y="252.7" width="16.4" height="10.8" fill="#FBBF24" opacity="0.15"/>
<rect x="67.7" y="252.7" width="16.4" height="10.8" fill="#FBBF24" opacity="0.21"/>
<rect x="85.1" y="252.7" width="16.4" height="10.8" fill="#FBBF24" opacity="0.29"/>
<rect x="102.6" y="252.7" width="16.4" height="10.8" fill="#FBBF24" opacity="0.17"/>
<rect x="120.0" y="252.7" width="16.4" height="10.8" fill="#FBBF24" opacity="0.20"/>
<rect x="137.4" y="252.7" width="16.4" height="10.8" fill="#FBBF24" opacity="0.29"/>
<rect x="154.9" y="252.7" width="16.4" height="10.8" fill="#FBBF24" opacity="0.19"/>
<rect x="172.3" y="252.7" width="16.4" height="10.8" fill="#FBBF24" opacity="0.27"/>
<rect x="189.7" y="252.7" width="16.4" height="10.8" fill="#FBBF24" opacity="0.15"/>
<rect x="207.2" y="252.7" width="16.4" height="10.8" fill="#FBBF24" opacity="0.23"/>
<rect x="15.4" y="264.5" width="16.4" height="10.8" fill="#FBBF24" opacity="0.19"/>
<rect x="32.8" y="264.5" width="16.4" height="10.8" fill="#FBBF24" opacity="0.29"/>
<rect x="50.3" y="264.5" width="16.4" height="10.8" fill="#FBBF24" opacity="0.23"/>
<rect x="67.7" y="264.5" width="16.4" height="10.8" fill="#FBBF24" opacity="0.28"/>
<rect x="85.1" y="264.5" width="16.4" height="10.8" fill="#FBBF24" opacity="0.15"/>
<rect x="102.6" y="264.5" width="16.4" height="10.8" fill="#FBBF24" opacity="0.15"/>
<rect x="120.0" y="264.5" width="16.4" height="10.8" fill="#FBBF24" opacity="0.25"/>
<rect x="137.4" y="264.5" width="16.4" height="10.8" fill="#FBBF24" opacity="0.15"/>
<rect x="154.9" y="264.5" width="16.4" height="10.8" fill="#FBBF24" opacity="0.17"/>
<rect x="172.3" y="264.5" width="16.4" height="10.8" fill="#FBBF24" opacity="0.22"/>
<rect x="189.7" y="264.5" width="16.4" height="10.8" fill="#FBBF24" opacity="0.23"/>
<rect x="207.2" y="264.5" width="16.4" height="10.8" fill="#FBBF24" opacity="0.29"/>
<rect x="15.4" y="276.3" width="16.4" height="10.8" fill="#FBBF24" opacity="0.26"/>
<rect x="32.8" y="276.3" width="16.4" height="10.8" fill="#FBBF24" opacity="0.19"/>
<rect x="50.3" y="276.3" width="16.4" height="10.8" fill="#FBBF24" opacity="0.17"/>
<rect x="67.7" y="276.3" width="16.4" height="10.8" fill="#FBBF24" opacity="0.21"/>
<rect x="85.1" y="276.3" width="16.4" height="10.8" fill="#FBBF24" opacity="0.28"/>
<rect x="102.6" y="276.3" width="16.4" height="10.8" fill="#FBBF24" opacity="0.18"/>
<rect x="120.0" y="276.3" width="16.4" height="10.8" fill="#FBBF24" opacity="0.15"/>
<rect x="137.4" y="276.3" width="16.4" height="10.8" fill="#FBBF24" opacity="0.28"/>
<rect x="154.9" y="276.3" width="16.4" height="10.8" fill="#FBBF24" opacity="0.25"/>
<rect x="172.3" y="276.3" width="16.4" height="10.8" fill="#FBBF24" opacity="0.29"/>
<rect x="189.7" y="276.3" width="16.4" height="10.8" fill="#FBBF24" opacity="0.22"/>
<rect x="207.2" y="276.3" width="16.4" height="10.8" fill="#FBBF24" opacity="0.22"/>
<rect x="15.4" y="288.1" width="16.4" height="10.8" fill="#FBBF24" opacity="0.15"/>
<rect x="32.8" y="288.1" width="16.4" height="10.8" fill="#FBBF24" opacity="0.15"/>
<rect x="50.3" y="288.1" width="16.4" height="10.8" fill="#FBBF24" opacity="0.27"/>
<rect x="67.7" y="288.1" width="16.4" height="10.8" fill="#FBBF24" opacity="0.23"/>
<rect x="85.1" y="288.1" width="16.4" height="10.8" fill="#FBBF24" opacity="0.15"/>
<rect x="102.6" y="288.1" width="16.4" height="10.8" fill="#FBBF24" opacity="0.15"/>
<rect x="120.0" y="288.1" width="16.4" height="10.8" fill="#FBBF24" opacity="0.25"/>
<rect x="137.4" y="288.1" width="16.4" height="10.8" fill="#FBBF24" opacity="0.18"/>
<rect x="154.9" y="288.1" width="16.4" height="10.8" fill="#FBBF24" opacity="0.29"/>
<rect x="172.3" y="288.1" width="16.4" height="10.8" fill="#FBBF24" opacity="0.28"/>
<rect x="189.7" y="288.1" width="16.4" height="10.8" fill="#FBBF24" opacity="0.19"/>
<rect x="207.2" y="288.1" width="16.4" height="10.8" fill="#FBBF24" opacity="0.23"/>
<rect x="15.4" y="300.0" width="16.4" height="10.8" fill="#FBBF24" opacity="0.20"/>
<rect x="32.8" y="300.0" width="16.4" height="10.8" fill="#FBBF24" opacity="0.23"/>
<rect x="50.3" y="300.0" width="16.4" height="10.8" fill="#FBBF24" opacity="0.20"/>
<rect x="67.7" y="300.0" width="16.4" height="10.8" fill="#FBBF24" opacity="0.27"/>
<rect x="85.1" y="300.0" width="16.4" height="10.8" fill="#FBBF24" opacity="0.15"/>
<rect x="102.6" y="300.0" width="16.4" height="10.8" fill="#FBBF24" opacity="0.17"/>
<rect x="120.0" y="300.0" width="16.4" height="10.8" fill="#FBBF24" opacity="0.22"/>
<rect x="137.4" y="300.0" width="16.4" height="10.8" fill="#FBBF24" opacity="0.15"/>
<rect x="154.9" y="300.0" width="16.4" height="10.8" fill="#FBBF24" opacity="0.15"/>
<rect x="172.3" y="300.0" width="16.4" height="10.8" fill="#FBBF24" opacity="0.15"/>
<rect x="189.7" y="300.0" width="16.4" height="10.8" fill="#FBBF24" opacity="0.25"/>
<rect x="207.2" y="300.0" width="16.4" height="10.8" fill="#FBBF24" opacity="0.15"/>
<rect x="15.4" y="311.8" width="16.4" height="10.8" fill="#FBBF24" opacity="0.26"/>
<rect x="32.8" y="311.8" width="16.4" height="10.8" fill="#FBBF24" opacity="0.21"/>
<rect x="50.3" y="311.8" width="16.4" height="10.8" fill="#FBBF24" opacity="0.15"/>
<rect x="67.7" y="311.8" width="16.4" height="10.8" fill="#FBBF24" opacity="0.28"/>
<rect x="85.1" y="311.8" width="16.4" height="10.8" fill="#FBBF24" opacity="0.18"/>
<rect x="102.6" y="311.8" width="16.4" height="10.8" fill="#FBBF24" opacity="0.15"/>
<rect x="120.0" y="311.8" width="16.4" height="10.8" fill="#FBBF24" opacity="0.15"/>
<rect x="137.4" y="311.8" width="16.4" height="10.8" fill="#FBBF24" opacity="0.16"/>
<rect x="154.9" y="311.8" width="16.4" height="10.8" fill="#FBBF24" opacity="0.20"/>
<rect x="172.3" y="311.8" width="16.4" height="10.8" fill="#FBBF24" opacity="0.22"/>
<rect x="189.7" y="311.8" width="16.4" height="10.8" fill="#FBBF24" opacity="0.15"/>
<rect x="207.2" y="311.8" width="16.4" height="10.8" fill="#FBBF24" opacity="0.21"/>
<rect x="15.4" y="323.6" width="16.4" height="10.8" fill="#FBBF24" opacity="0.26"/>
<rect x="32.8" y="323.6" width="16.4" height="10.8" fill="#FBBF24" opacity="0.18"/>
<rect x="50.3" y="323.6" width="16.4" height="10.8" fill="#FBBF24" opacity="0.15"/>
<rect x="67.7" y="323.6" width="16.4" height="10.8" fill="#FBBF24" opacity="0.29"/>
<rect x="85.1" y="323.6" width="16.4" height="10.8" fill="#FBBF24" opacity="0.22"/>
<rect x="102.6" y="323.6" width="16.4" height="10.8" fill="#FBBF24" opacity="0.28"/>
<rect x="120.0" y="323.6" width="16.4" height="10.8" fill="#FBBF24" opacity="0.29"/>
<rect x="137.4" y="323.6" width="16.4" height="10.8" fill="#FBBF24" opacity="0.20"/>
<rect x="154.9" y="323.6" width="16.4" height="10.8" fill="#FBBF24" opacity="0.17"/>
<rect x="172.3" y="323.6" width="16.4" height="10.8" fill="#FBBF24" opacity="0.23"/>
<rect x="189.7" y="323.6" width="16.4" height="10.8" fill="#FBBF24" opacity="0.26"/>
<rect x="207.2" y="323.6" width="16.4" height="10.8" fill="#FBBF24" opacity="0.28"/>
<rect x="15.4" y="335.4" width="16.4" height="10.8" fill="#FBBF24" opacity="0.19"/>
<rect x="32.8" y="335.4" width="16.4" height="10.8" fill="#FBBF24" opacity="0.22"/>
<rect x="50.3" y="335.4" width="16.4" height="10.8" fill="#FBBF24" opacity="0.15"/>
<rect x="67.7" y="335.4" width="16.4" height="10.8" fill="#FBBF24" opacity="0.17"/>
<rect x="85.1" y="335.4" width="16.4" height="10.8" fill="#FBBF24" opacity="0.30"/>
<rect x="102.6" y="335.4" width="16.4" height="10.8" fill="#FBBF24" opacity="0.16"/>
<rect x="120.0" y="335.4" width="16.4" height="10.8" fill="#FBBF24" opacity="0.26"/>
<rect x="137.4" y="335.4" width="16.4" height="10.8" fill="#FBBF24" opacity="0.15"/>
<rect x="154.9" y="335.4" width="16.4" height="10.8" fill="#FBBF24" opacity="0.15"/>
<rect x="172.3" y="335.4" width="16.4" height="10.8" fill="#FBBF24" opacity="0.15"/>
<rect x="189.7" y="335.4" width="16.4" height="10.8" fill="#FBBF24" opacity="0.15"/>
<rect x="207.2" y="335.4" width="16.4" height="10.8" fill="#FBBF24" opacity="0.19"/>
<rect x="15.4" y="347.3" width="16.4" height="10.8" fill="#FBBF24" opacity="0.19"/>
<rect x="32.8" y="347.3" width="16.4" height="10.8" fill="#FBBF24" opacity="0.28"/>
<rect x="50.3" y="347.3" width="16.4" height="10.8" fill="#FBBF24" opacity="0.22"/>
<rect x="67.7" y="347.3" width="16.4" height="10.8" fill="#FBBF24" opacity="0.15"/>
<rect x="85.1" y="347.3" width="16.4" height="10.8" fill="#FBBF24" opacity="0.30"/>
<rect x="102.6" y="347.3" width="16.4" height="10.8" fill="#FBBF24" opacity="0.30"/>
<rect x="120.0" y="347.3" width="16.4" height="10.8" fill="#FBBF24" opacity="0.24"/>
<rect x="137.4" y="347.3" width="16.4" height="10.8" fill="#FBBF24" opacity="0.20"/>
<rect x="154.9" y="347.3" width="16.4" height="10.8" fill="#FBBF24" opacity="0.19"/>
<rect x="172.3" y="347.3" width="16.4" height="10.8" fill="#FBBF24" opacity="0.19"/>
<rect x="189.7" y="347.3" width="16.4" height="10.8" fill="#FBBF24" opacity="0.23"/>
<rect x="207.2" y="347.3" width="16.4" height="10.8" fill="#FBBF24" opacity="0.26"/>
<rect x="15.4" y="359.1" width="16.4" height="10.8" fill="#FBBF24" opacity="0.25"/>
<rect x="32.8" y="359.1" width="16.4" height="10.8" fill="#FBBF24" opacity="0.16"/>
<rect x="50.3" y="359.1" width="16.4" height="10.8" fill="#FBBF24" opacity="0.30"/>
<rect x="67.7" y="359.1" width="16.4" height="10.8" fill="#FBBF24" opacity="0.21"/>
<rect x="85.1" y="359.1" width="16.4" height="10.8" fill="#FBBF24" opacity="0.21"/>
<rect x="102.6" y="359.1" width="16.4" height="10.8" fill="#FBBF24" opacity="0.21"/>
<rect x="120.0" y="359.1" width="16.4" height="10.8" fill="#FBBF24" opacity="0.18"/>
<rect x="137.4" y="359.1" width="16.4" height="10.8" fill="#FBBF24" opacity="0.20"/>
<rect x="154.9" y="359.1" width="16.4" height="10.8" fill="#FBBF24" opacity="0.15"/>
<rect x="172.3" y="359.1" width="16.4" height="10.8" fill="#FBBF24" opacity="0.16"/>
<rect x="189.7" y="359.1" width="16.4" height="10.8" fill="#FBBF24" opacity="0.18"/>
<rect x="207.2" y="359.1" width="16.4" height="10.8" fill="#FBBF24" opacity="0.28"/>
<rect x="15.4" y="370.9" width="16.4" height="10.8" fill="#FBBF24" opacity="0.26"/>
<rect x="32.8" y="370.9" width="16.4" height="10.8" fill="#FBBF24" opacity="0.16"/>
<rect x="50.3" y="370.9" width="16.4" height="10.8" fill="#FBBF24" opacity="0.22"/>
<rect x="67.7" y="370.9" width="16.4" height="10.8" fill="#FBBF24" opacity="0.26"/>
<rect x="85.1" y="370.9" width="16.4" height="10.8" fill="#FBBF24" opacity="0.30"/>
<rect x="102.6" y="370.9" width="16.4" height="10.8" fill="#FBBF24" opacity="0.15"/>
<rect x="120.0" y="370.9" width="16.4" height="10.8" fill="#FBBF24" opacity="0.24"/>
<rect x="137.4" y="370.9" width="16.4" height="10.8" fill="#FBBF24" opacity="0.16"/>
<rect x="154.9" y="370.9" width="16.4" height="10.8" fill="#FBBF24" opacity="0.29"/>
<rect x="172.3" y="370.9" width="16.4" height="10.8" fill="#FBBF24" opacity="0.15"/>
<rect x="189.7" y="370.9" width="16.4" height="10.8" fill="#FBBF24" opacity="0.23"/>
<rect x="207.2" y="370.9" width="16.4" height="10.8" fill="#FBBF24" opacity="0.29"/>
<rect x="15.4" y="382.7" width="16.4" height="10.8" fill="#FBBF24" opacity="0.28"/>
<rect x="32.8" y="382.7" width="16.4" height="10.8" fill="#FBBF24" opacity="0.15"/>
<rect x="50.3" y="382.7" width="16.4" height="10.8" fill="#FBBF24" opacity="0.30"/>
<rect x="67.7" y="382.7" width="16.4" height="10.8" fill="#FBBF24" opacity="0.17"/>
<rect x="85.1" y="382.7" width="16.4" height="10.8" fill="#FBBF24" opacity="0.22"/>
<rect x="102.6" y="382.7" width="16.4" height="10.8" fill="#FBBF24" opacity="0.26"/>
<rect x="120.0" y="382.7" width="16.4" height="10.8" fill="#FBBF24" opacity="0.30"/>
<rect x="137.4" y="382.7" width="16.4" height="10.8" fill="#FBBF24" opacity="0.22"/>
<rect x="154.9" y="382.7" width="16.4" height="10.8" fill="#FBBF24" opacity="0.20"/>
<rect x="172.3" y="382.7" width="16.4" height="10.8" fill="#FBBF24" opacity="0.15"/>
<rect x="189.7" y="382.7" width="16.4" height="10.8" fill="#FBBF24" opacity="0.15"/>
<rect x="207.2" y="382.7" width="16.4" height="10.8" fill="#FBBF24" opacity="0.15"/>
<rect x="15.4" y="394.6" width="16.4" height="10.8" fill="#FBBF24" opacity="0.15"/>
<rect x="32.8" y="394.6" width="16.4" height="10.8" fill="#FBBF24" opacity="0.25"/>
<rect x="50.3" y="394.6" width="16.4" height="10.8" fill="#FBBF24" opacity="0.25"/>
<rect x="67.7" y="394.6" width="16.4" height="10.8" fill="#FBBF24" opacity="0.19"/>
<rect x="85.1" y="394.6" width="16.4" height="10.8" fill="#FBBF24" opacity="0.23"/>
<rect x="102.6" y="394.6" width="16.4" height="10.8" fill="#FBBF24" opacity="0.16"/>
<rect x="120.0" y="394.6" width="16.4" height="10.8" fill="#FBBF24" opacity="0.19"/>
<rect x="137.4" y="394.6" width="16.4" height="10.8" fill="#FBBF24" opacity="0.30"/>
<rect x="154.9" y="394.6" width="16.4" height="10.8" fill="#FBBF24" opacity="0.26"/>
<rect x="172.3" y="394.6" width="16.4" height="10.8" fill="#FBBF24" opacity="0.21"/>
<rect x="189.7" y="394.6" width="16.4" height="10.8" fill="#FBBF24" opacity="0.27"/>
<rect x="207.2" y="394.6" width="16.4" height="10.8" fill="#FBBF24" opacity="0.17"/>
<rect x="15.4" y="406.4" width="16.4" height="10.8" fill="#FBBF24" opacity="0.20"/>
<rect x="32.8" y="406.4" width="16.4" height="10.8" fill="#FBBF24" opacity="0.15"/>
<rect x="50.3" y="406.4" width="16.4" height="10.8" fill="#FBBF24" opacity="0.21"/>
<rect x="67.7" y="406.4" width="16.4" height="10.8" fill="#FBBF24" opacity="0.15"/>
<rect x="85.1" y="406.4" width="16.4" height="10.8" fill="#FBBF24" opacity="0.28"/>
<rect x="102.6" y="406.4" width="16.4" height="10.8" fill="#FBBF24" opacity="0.16"/>
<rect x="120.0" y="406.4" width="16.4" height="10.8" fill="#FBBF24" opacity="0.28"/>
<rect x="137.4" y="406.4" width="16.4" height="10.8" fill="#FBBF24" opacity="0.16"/>
<rect x="154.9" y="406.4" width="16.4" height="10.8" fill="#FBBF24" opacity="0.17"/>
<rect x="172.3" y="406.4" width="16.4" height="10.8" fill="#FBBF24" opacity="0.27"/>
<rect x="189.7" y="406.4" width="16.4" height="10.8" fill="#FBBF24" opacity="0.15"/>
<rect x="207.2" y="406.4" width="16.4" height="10.8" fill="#FBBF24" opacity="0.24"/>
<rect x="15.4" y="418.2" width="16.4" height="10.8" fill="#FBBF24" opacity="0.20"/>
<rect x="32.8" y="418.2" width="16.4" height="10.8" fill="#FBBF24" opacity="0.15"/>
<rect x="50.3" y="418.2" width="16.4" height="10.8" fill="#FBBF24" opacity="0.15"/>
<rect x="67.7" y="418.2" width="16.4" height="10.8" fill="#FBBF24" opacity="0.18"/>
<rect x="85.1" y="418.2" width="16.4" height="10.8" fill="#FBBF24" opacity="0.22"/>
<rect x="102.6" y="418.2" width="16.4" height="10.8" fill="#FBBF24" opacity="0.22"/>
<rect x="120.0" y="418.2" width="16.4" height="10.8" fill="#FBBF24" opacity="0.19"/>
<rect x="137.4" y="418.2" width="16.4" height="10.8" fill="#FBBF24" opacity="0.16"/>
<rect x="154.9" y="418.2" width="16.4" height="10.8" fill="#FBBF24" opacity="0.15"/>
<rect x="172.3" y="418.2" width="16.4" height="10.8" fill="#FBBF24" opacity="0.27"/>
<rect x="189.7" y="418.2" width="16.4" height="10.8" fill="#FBBF24" opacity="0.22"/>
<rect x="207.2" y="418.2" width="16.4" height="10.8" fill="#FBBF24" opacity="0.27"/>
<rect x="15.4" y="430.0" width="16.4" height="10.8" fill="#FBBF24" opacity="0.16"/>
<rect x="32.8" y="430.0" width="16.4" height="10.8" fill="#FBBF24" opacity="0.15"/>
<rect x="50.3" y="430.0" width="16.4" height="10.8" fill="#FBBF24" opacity="0.27"/>
<rect x="67.7" y="430.0" width="16.4" height="10.8" fill="#FBBF24" opacity="0.24"/>
<rect x="85.1" y="430.0" width="16.4" height="10.8" fill="#FBBF24" opacity="0.23"/>
<rect x="102.6" y="430.0" width="16.4" height="10.8" fill="#FBBF24" opacity="0.15"/>
<rect x="120.0" y="430.0" width="16.4" height="10.8" fill="#FBBF24" opacity="0.15"/>
<rect x="137.4" y="430.0" width="16.4" height="10.8" fill="#FBBF24" opacity="0.17"/>
<rect x="154.9" y="430.0" width="16.4" height="10.8" fill="#FBBF24" opacity="0.28"/>
<rect x="172.3" y="430.0" width="16.4" height="10.8" fill="#FBBF24" opacity="0.28"/>
<rect x="189.7" y="430.0" width="16.4" height="10.8" fill="#FBBF24" opacity="0.30"/>
<rect x="207.2" y="430.0" width="16.4" height="10.8" fill="#FBBF24" opacity="0.28"/>
<rect x="15.4" y="441.8" width="16.4" height="10.8" fill="#FBBF24" opacity="0.24"/>
<rect x="32.8" y="441.8" width="16.4" height="10.8" fill="#FBBF24" opacity="0.29"/>
<rect x="50.3" y="441.8" width="16.4" height="10.8" fill="#FBBF24" opacity="0.25"/>
<rect x="67.7" y="441.8" width="16.4" height="10.8" fill="#FBBF24" opacity="0.15"/>
<rect x="85.1" y="441.8" width="16.4" height="10.8" fill="#FBBF24" opacity="0.26"/>
<rect x="102.6" y="441.8" width="16.4" height="10.8" fill="#FBBF24" opacity="0.15"/>
<rect x="120.0" y="441.8" width="16.4" height="10.8" fill="#FBBF24" opacity="0.18"/>
<rect x="137.4" y="441.8" width="16.4" height="10.8" fill="#FBBF24" opacity="0.28"/>
<rect x="154.9" y="441.8" width="16.4" height="10.8" fill="#FBBF24" opacity="0.30"/>
<rect x="172.3" y="441.8" width="16.4" height="10.8" fill="#FBBF24" opacity="0.23"/>
<rect x="189.7" y="441.8" width="16.4" height="10.8" fill="#FBBF24" opacity="0.15"/>
<rect x="207.2" y="441.8" width="16.4" height="10.8" fill="#FBBF24" opacity="0.26"/>
<rect x="15.4" y="453.7" width="16.4" height="10.8" fill="#FBBF24" opacity="0.25"/>
<rect x="32.8" y="453.7" width="16.4" height="10.8" fill="#FBBF24" opacity="0.15"/>
<rect x="50.3" y="453.7" width="16.4" height="10.8" fill="#FBBF24" opacity="0.18"/>
<rect x="67.7" y="453.7" width="16.4" height="10.8" fill="#FBBF24" opacity="0.21"/>
<rect x="85.1" y="453.7" width="16.4" height="10.8" fill="#FBBF24" opacity="0.20"/>
<rect x="102.6" y="453.7" width="16.4" height="10.8" fill="#FBBF24" opacity="0.15"/>
<rect x="120.0" y="453.7" width="16.4" height="10.8" fill="#FBBF24" opacity="0.15"/>
<rect x="137.4" y="453.7" width="16.4" height="10.8" fill="#FBBF24" opacity="0.29"/>
<rect x="154.9" y="453.7" width="16.4" height="10.8" fill="#FBBF24" opacity="0.16"/>
<rect x="172.3" y="453.7" width="16.4" height="10.8" fill="#FBBF24" opacity="0.19"/>
<rect x="189.7" y="453.7" width="16.4" height="10.8" fill="#FBBF24" opacity="0.25"/>
<rect x="207.2" y="453.7" width="16.4" height="10.8" fill="#FBBF24" opacity="0.16"/>
<rect x="7.38" y="480.87" width="225.23" height="28.29" rx="3" fill="#111827" stroke="#334155"/>
<rect x="14.379999999999999" y="486.528" width="48.3075" height="16.974" rx="8.487" fill="#38BDF8"/>
<text x="38.53375" y="499.2585" fill="#FFFFFF" font-family="Segoe UI, Inter, system-ui, sans-serif" font-size="9" font-weight="600" text-anchor="middle">Overview</text>
<text x="92.84125" y="499.2585" fill="#94A3B8" font-family="Segoe UI, Inter, system-ui, sans-serif" font-size="9" font-weight="600" text-anchor="middle">Sales</text>
<text x="147.14874999999998" y="499.2585" fill="#94A3B8" font-family="Segoe UI, Inter, system-ui, sans-serif" font-size="9" font-weight="600" text-anchor="middle">Finance</text>
<text x="201.45624999999998" y="499.2585" fill="#94A3B8" font-family="Segoe UI, Inter, system-ui, sans-serif" font-size="9" font-weight="600" text-anchor="middle">Ops</text>
<line x1="7.38" y1="509.16" x2="232.60999999999999" y2="509.16" stroke="#334155" stroke-width="1"/>
<text x="120.0" y="514" fill="#94A3B8" font-family="Segoe UI, Inter, system-ui, sans-serif" font-size="7" font-weight="600" text-anchor="middle">cohort-retention-grid-mobile</text>
</svg>