<svg xmlns="http://www.w3.org/2000/svg" viewBox="0 0 480 270" font-family="Segoe UI, Inter, system-ui, sans-serif">
<title>comparison-side-by-side</title>
<rect x="0" y="0" width="480" height="270" fill="#0F172A"/>
<rect x="0" y="0" width="480" height="3" fill="#38BDF8"/>
<rect x="4.62" y="4.62" width="470.77" height="18.75" rx="4" fill="#111827" stroke="#334155"/>
<rect x="4.62" y="4.62" width="4" height="18.75" rx="2" fill="#38BDF8"/>
<text x="18.62" y="16.245" fill="#F1F5F9" font-family="Segoe UI, Inter, system-ui, sans-serif" font-size="10.3125" font-weight="700">Title Bar</text>
<rect x="385.39" y="9.870000000000001" width="70" height="8.4" rx="3" fill="#0C2A4A" stroke="#1E40AF"/>
<text x="420.39" y="16.995" fill="#94A3B8" font-family="Segoe UI, Inter, system-ui, sans-serif" font-size="7.125" font-weight="500" text-anchor="middle">Q4 · FY26</text>
<rect x="4.62" y="26.83" width="470.77" height="17.31" rx="3" fill="#111827" stroke="#334155"/>
<rect x="10.620000000000001" y="30.291999999999998" width="86.954" height="10.386" rx="5.193" fill="#1E293B" stroke="#334155"/>
<text x="18.62" y="37.354479999999995" fill="#94A3B8" font-family="Segoe UI, Inter, system-ui, sans-serif" font-size="5.193" font-weight="500">Region</text>
<text x="87.574" y="37.14676" fill="#64748B" font-family="Segoe UI, Inter, system-ui, sans-serif" font-size="4.6737" font-weight="500" text-anchor="end">▾</text>
<rect x="103.574" y="30.291999999999998" width="86.954" height="10.386" rx="5.193" fill="#1E293B" stroke="#334155"/>
<text x="111.574" y="37.354479999999995" fill="#94A3B8" font-family="Segoe UI, Inter, system-ui, sans-serif" font-size="5.193" font-weight="500">Period</text>
<text x="180.528" y="37.14676" fill="#64748B" font-family="Segoe UI, Inter, system-ui, sans-serif" font-size="4.6737" font-weight="500" text-anchor="end">▾</text>
<rect x="196.528" y="30.291999999999998" width="86.954" height="10.386" rx="5.193" fill="#1E293B" stroke="#334155"/>
<text x="204.528" y="37.354479999999995" fill="#94A3B8" font-family="Segoe UI, Inter, system-ui, sans-serif" font-size="5.193" font-weight="500">Product</text>
<text x="273.48199999999997" y="37.14676" fill="#64748B" font-family="Segoe UI, Inter, system-ui, sans-serif" font-size="4.6737" font-weight="500" text-anchor="end">▾</text>
<rect x="289.48199999999997" y="30.291999999999998" width="86.954" height="10.386" rx="5.193" fill="#1E293B" stroke="#334155"/>
<text x="297.48199999999997" y="37.354479999999995" fill="#94A3B8" font-family="Segoe UI, Inter, system-ui, sans-serif" font-size="5.193" font-weight="500">Segment</text>
<text x="366.436" y="37.14676" fill="#64748B" font-family="Segoe UI, Inter, system-ui, sans-serif" font-size="4.6737" font-weight="500" text-anchor="end">▾</text>
<rect x="382.436" y="30.291999999999998" width="86.954" height="10.386" rx="5.193" fill="#1E293B" stroke="#334155"/>
<text x="390.436" y="37.354479999999995" fill="#94A3B8" font-family="Segoe UI, Inter, system-ui, sans-serif" font-size="5.193" font-weight="500">Channel</text>
<text x="459.39" y="37.14676" fill="#64748B" font-family="Segoe UI, Inter, system-ui, sans-serif" font-size="4.6737" font-weight="500" text-anchor="end">▾</text>
<rect x="4.62" y="47.6" width="270.29" height="205.1" rx="3" fill="#1E293B" stroke="#334155"/>
<text x="12.620000000000001" y="59.6" fill="#94A3B8" font-family="Segoe UI, Inter, system-ui, sans-serif" font-size="8" font-weight="600">Compare Left</text>
<polygon points="12.6,244.7 12.6,160.5 30.8,119.9 48.9,189.2 67.1,145.6 85.3,123.3 103.4,191.7 121.6,183.8 139.8,110.2 157.9,128.4 176.1,125.6 194.3,110.3 212.4,120.6 230.6,104.2 248.7,180.7 266.9,149.4 266.9,244.7" fill="#38BDF8" opacity="0.18"/>
<polyline points="12.6,160.5 30.8,119.9 48.9,189.2 67.1,145.6 85.3,123.3 103.4,191.7 121.6,183.8 139.8,110.2 157.9,128.4 176.1,125.6 194.3,110.3 212.4,120.6 230.6,104.2 248.7,180.7 266.9,149.4" fill="none" stroke="#38BDF8" stroke-width="1.8"/>
<polyline points="12.6,212.7 30.8,150.9 48.9,196.9 67.1,146.9 85.3,171.7 103.4,160.7 121.6,184.9 139.8,141.0 157.9,181.9 176.1,194.6 194.3,212.6 212.4,186.4 230.6,189.4 248.7,206.5 266.9,145.9" fill="none" stroke="#FBBF24" stroke-width="1.3" stroke-dasharray="3 2"/>
<line x1="12.620000000000001" y1="244.7" x2="266.91" y2="244.7" stroke="#334155"/>
<rect x="279.52" y="47.6" width="195.87" height="205.1" rx="3" fill="#1E293B" stroke="#334155"/>
<text x="287.52" y="59.6" fill="#94A3B8" font-family="Segoe UI, Inter, system-ui, sans-serif" font-size="8" font-weight="600">Compare Right</text>
<polygon points="287.5,244.7 287.5,183.7 300.4,154.5 313.2,140.2 326.1,160.5 338.9,118.8 351.8,193.7 364.6,155.1 377.5,104.9 390.3,129.5 403.2,119.4 416.0,196.9 428.8,141.3 441.7,154.4 454.5,124.4 467.4,189.0 467.4,244.7" fill="#38BDF8" opacity="0.18"/>
<polyline points="287.5,183.7 300.4,154.5 313.2,140.2 326.1,160.5 338.9,118.8 351.8,193.7 364.6,155.1 377.5,104.9 390.3,129.5 403.2,119.4 416.0,196.9 428.8,141.3 441.7,154.4 454.5,124.4 467.4,189.0" fill="none" stroke="#38BDF8" stroke-width="1.8"/>
<polyline points="287.5,182.4 300.4,185.1 313.2,169.8 326.1,160.5 338.9,185.3 351.8,172.3 364.6,170.8 377.5,178.9 390.3,160.5 403.2,148.4 416.0,206.1 428.8,183.4 441.7,142.6 454.5,176.3 467.4,161.0" fill="none" stroke="#FBBF24" stroke-width="1.3" stroke-dasharray="3 2"/>
<line x1="287.52" y1="244.7" x2="467.39" y2="244.7" stroke="#334155"/>
<rect x="4.62" y="256.15" width="470.77" height="9.23" rx="2" fill="#111827" stroke="#334155"/>
<text x="14.620000000000001" y="262.1495" fill="#94A3B8" font-family="Segoe UI, Inter, system-ui, sans-serif" font-size="5.0765" font-weight="400">Source: Data warehouse · Last refresh 08:15</text>
<text x="415.39" y="262.1495" fill="#94A3B8" font-family="Segoe UI, Inter, system-ui, sans-serif" font-size="5.0765" font-weight="500" text-anchor="start">Confidential</text>
<rect x="455.39" y="258.4575" width="14" height="4.6" rx="2" fill="#38BDF8" opacity="0.15"/>
<text x="462.39" y="262.611" fill="#38BDF8" font-family="Segoe UI, Inter, system-ui, sans-serif" font-size="4.615" font-weight="700" text-anchor="middle">1</text>
<text x="240.0" y="265" fill="#94A3B8" font-family="Segoe UI, Inter, system-ui, sans-serif" font-size="7" font-weight="600" text-anchor="middle">comparison-side-by-side</text>
</svg>