<svg xmlns="http://www.w3.org/2000/svg" viewBox="0 0 480 270" font-family="Segoe UI, Inter, system-ui, sans-serif">
<title>customer-360</title>
<rect x="0" y="0" width="480" height="270" fill="#FFFFFF"/>
<rect x="0" y="0" width="480" height="3" fill="#2563EB"/>
<rect x="4.62" y="4.62" width="470.77" height="18.75" rx="4" fill="#F8FAFC" stroke="#E5E7EB"/>
<rect x="4.62" y="4.62" width="4" height="18.75" rx="2" fill="#2563EB"/>
<text x="18.62" y="16.245" fill="#111827" font-family="Segoe UI, Inter, system-ui, sans-serif" font-size="10.3125" font-weight="700">Title Bar</text>
<rect x="385.39" y="9.870000000000001" width="70" height="8.4" rx="3" fill="#EFF6FF" stroke="#DBEAFE"/>
<text x="420.39" y="16.995" fill="#6B7280" font-family="Segoe UI, Inter, system-ui, sans-serif" font-size="7.125" font-weight="500" text-anchor="middle">Q4 · FY26</text>
<rect x="4.62" y="26.83" width="470.77" height="18.75" rx="4" fill="#F8FAFC" stroke="#E5E7EB"/>
<rect x="4.62" y="26.83" width="4" height="18.75" rx="2" fill="#2563EB"/>
<text x="18.62" y="38.455" fill="#111827" font-family="Segoe UI, Inter, system-ui, sans-serif" font-size="10.3125" font-weight="700">Profile Header</text>
<rect x="385.39" y="32.08" width="70" height="8.4" rx="3" fill="#EFF6FF" stroke="#DBEAFE"/>
<text x="420.39" y="39.205" fill="#6B7280" font-family="Segoe UI, Inter, system-ui, sans-serif" font-size="7.125" font-weight="500" text-anchor="middle">Q4 · FY26</text>
<rect x="10.620000000000001" y="55.04" width="110.1925" height="13.379999999999999" rx="4" fill="#FFFFFF" stroke="#E5E7EB"/>
<rect x="10.620000000000001" y="55.04" width="3" height="13.379999999999999" fill="#2563EB"/>
<text x="18.62" y="59.983599999999996" fill="#6B7280" font-family="Segoe UI, Inter, system-ui, sans-serif" font-size="2.9436" font-weight="500">Revenue</text>
<text x="18.62" y="66.66659999999999" fill="#111827" font-family="Segoe UI, Inter, system-ui, sans-serif" font-size="4.682999999999999" font-weight="700">$1.24M</text>
<rect x="126.8125" y="55.04" width="110.1925" height="13.379999999999999" rx="4" fill="#FFFFFF" stroke="#E5E7EB"/>
<rect x="126.8125" y="55.04" width="3" height="13.379999999999999" fill="#2563EB"/>
<text x="134.8125" y="59.983599999999996" fill="#6B7280" font-family="Segoe UI, Inter, system-ui, sans-serif" font-size="2.9436" font-weight="500">Orders</text>
<text x="134.8125" y="66.66659999999999" fill="#111827" font-family="Segoe UI, Inter, system-ui, sans-serif" font-size="4.682999999999999" font-weight="700">48,912</text>
<rect x="243.005" y="55.04" width="110.1925" height="13.379999999999999" rx="4" fill="#FFFFFF" stroke="#E5E7EB"/>
<rect x="243.005" y="55.04" width="3" height="13.379999999999999" fill="#2563EB"/>
<text x="251.005" y="59.983599999999996" fill="#6B7280" font-family="Segoe UI, Inter, system-ui, sans-serif" font-size="2.9436" font-weight="500">Margin</text>
<text x="251.005" y="66.66659999999999" fill="#111827" font-family="Segoe UI, Inter, system-ui, sans-serif" font-size="4.682999999999999" font-weight="700">38.2%</text>
<rect x="359.1975" y="55.04" width="110.1925" height="13.379999999999999" rx="4" fill="#FFFFFF" stroke="#E5E7EB"/>
<rect x="359.1975" y="55.04" width="3" height="13.379999999999999" fill="#2563EB"/>
<text x="367.1975" y="59.983599999999996" fill="#6B7280" font-family="Segoe UI, Inter, system-ui, sans-serif" font-size="2.9436" font-weight="500">CSAT</text>
<text x="367.1975" y="66.66659999999999" fill="#111827" font-family="Segoe UI, Inter, system-ui, sans-serif" font-size="4.682999999999999" font-weight="700">4.7 / 5</text>
<rect x="4.62" y="77.88" width="470.77" height="85.1" rx="3" fill="#FFFFFF" stroke="#E5E7EB"/>
<rect x="4.62" y="77.88" width="470.77" height="12" fill="#EFF6FF"/>
<line x1="83.1" y1="77.88" x2="83.1" y2="162.98" stroke="#E5E7EB" stroke-opacity="0.6"/>
<line x1="161.5" y1="77.88" x2="161.5" y2="162.98" stroke="#E5E7EB" stroke-opacity="0.6"/>
<line x1="240.0" y1="77.88" x2="240.0" y2="162.98" stroke="#E5E7EB" stroke-opacity="0.6"/>
<line x1="318.5" y1="77.88" x2="318.5" y2="162.98" stroke="#E5E7EB" stroke-opacity="0.6"/>
<line x1="396.9" y1="77.88" x2="396.9" y2="162.98" stroke="#E5E7EB" stroke-opacity="0.6"/>
<line x1="4.62" y1="89.9" x2="475.39" y2="89.9" stroke="#E5E7EB" stroke-opacity="0.5"/>
<line x1="4.62" y1="100.3" x2="475.39" y2="100.3" stroke="#E5E7EB" stroke-opacity="0.5"/>
<line x1="4.62" y1="110.8" x2="475.39" y2="110.8" stroke="#E5E7EB" stroke-opacity="0.5"/>
<line x1="4.62" y1="121.2" x2="475.39" y2="121.2" stroke="#E5E7EB" stroke-opacity="0.5"/>
<line x1="4.62" y1="131.7" x2="475.39" y2="131.7" stroke="#E5E7EB" stroke-opacity="0.5"/>
<line x1="4.62" y1="142.1" x2="475.39" y2="142.1" stroke="#E5E7EB" stroke-opacity="0.5"/>
<line x1="4.62" y1="152.5" x2="475.39" y2="152.5" stroke="#E5E7EB" stroke-opacity="0.5"/>
<line x1="4.62" y1="163.0" x2="475.39" y2="163.0" stroke="#E5E7EB" stroke-opacity="0.5"/>
<text x="43.9" y="86.88" fill="#111827" font-family="Segoe UI, Inter, system-ui, sans-serif" font-size="7" font-weight="700" text-anchor="middle">Q1</text>
<text x="122.3" y="86.88" fill="#111827" font-family="Segoe UI, Inter, system-ui, sans-serif" font-size="7" font-weight="700" text-anchor="middle">Q2</text>
<text x="200.8" y="86.88" fill="#111827" font-family="Segoe UI, Inter, system-ui, sans-serif" font-size="7" font-weight="700" text-anchor="middle">Q3</text>
<text x="279.2" y="86.88" fill="#111827" font-family="Segoe UI, Inter, system-ui, sans-serif" font-size="7" font-weight="700" text-anchor="middle">Q4</text>
<text x="357.7" y="86.88" fill="#111827" font-family="Segoe UI, Inter, system-ui, sans-serif" font-size="7" font-weight="700" text-anchor="middle">YTD</text>
<text x="436.2" y="86.88" fill="#111827" font-family="Segoe UI, Inter, system-ui, sans-serif" font-size="7" font-weight="700" text-anchor="middle">Δ</text>
<rect x="7.62" y="91.88" width="54.9" height="3" fill="#111827" opacity="0.5" rx="1"/>
<rect x="84.1" y="90.9" width="76.5" height="8.4" fill="#10B981" opacity="0.34"/>
<rect x="162.5" y="90.9" width="76.5" height="8.4" fill="#F59E0B" opacity="0.29"/>
<rect x="241.0" y="90.9" width="76.5" height="8.4" fill="#F59E0B" opacity="0.27"/>
<rect x="319.5" y="90.9" width="76.5" height="8.4" fill="#10B981" opacity="0.42"/>
<rect x="397.9" y="90.9" width="76.5" height="8.4" fill="#EF4444" opacity="0.23"/>
<rect x="7.62" y="102.32285714285713" width="54.9" height="3" fill="#111827" opacity="0.5" rx="1"/>
<rect x="84.1" y="101.3" width="76.5" height="8.4" fill="#10B981" opacity="0.35"/>
<rect x="162.5" y="101.3" width="76.5" height="8.4" fill="#EF4444" opacity="0.23"/>
<rect x="241.0" y="101.3" width="76.5" height="8.4" fill="#F59E0B" opacity="0.25"/>
<rect x="319.5" y="101.3" width="76.5" height="8.4" fill="#F59E0B" opacity="0.25"/>
<rect x="397.9" y="101.3" width="76.5" height="8.4" fill="#10B981" opacity="0.37"/>
<rect x="7.62" y="112.76571428571428" width="54.9" height="3" fill="#111827" opacity="0.5" rx="1"/>
<rect x="84.1" y="111.8" width="76.5" height="8.4" fill="#F59E0B" opacity="0.30"/>
<rect x="162.5" y="111.8" width="76.5" height="8.4" fill="#F59E0B" opacity="0.31"/>
<rect x="241.0" y="111.8" width="76.5" height="8.4" fill="#10B981" opacity="0.39"/>
<rect x="319.5" y="111.8" width="76.5" height="8.4" fill="#F59E0B" opacity="0.29"/>
<rect x="397.9" y="111.8" width="76.5" height="8.4" fill="#EF4444" opacity="0.19"/>
<rect x="7.62" y="123.20857142857142" width="54.9" height="3" fill="#111827" opacity="0.5" rx="1"/>
<rect x="84.1" y="122.2" width="76.5" height="8.4" fill="#10B981" opacity="0.37"/>
<rect x="162.5" y="122.2" width="76.5" height="8.4" fill="#F59E0B" opacity="0.26"/>
<rect x="241.0" y="122.2" width="76.5" height="8.4" fill="#F59E0B" opacity="0.29"/>
<rect x="319.5" y="122.2" width="76.5" height="8.4" fill="#10B981" opacity="0.43"/>
<rect x="397.9" y="122.2" width="76.5" height="8.4" fill="#10B981" opacity="0.44"/>
<rect x="7.62" y="133.65142857142857" width="54.9" height="3" fill="#111827" opacity="0.5" rx="1"/>
<rect x="84.1" y="132.7" width="76.5" height="8.4" fill="#10B981" opacity="0.33"/>
<rect x="162.5" y="132.7" width="76.5" height="8.4" fill="#F59E0B" opacity="0.26"/>
<rect x="241.0" y="132.7" width="76.5" height="8.4" fill="#EF4444" opacity="0.23"/>
<rect x="319.5" y="132.7" width="76.5" height="8.4" fill="#EF4444" opacity="0.24"/>
<rect x="397.9" y="132.7" width="76.5" height="8.4" fill="#F59E0B" opacity="0.31"/>
<rect x="7.62" y="144.09428571428572" width="54.9" height="3" fill="#111827" opacity="0.5" rx="1"/>
<rect x="84.1" y="143.1" width="76.5" height="8.4" fill="#EF4444" opacity="0.16"/>
<rect x="162.5" y="143.1" width="76.5" height="8.4" fill="#F59E0B" opacity="0.25"/>
<rect x="241.0" y="143.1" width="76.5" height="8.4" fill="#F59E0B" opacity="0.30"/>
<rect x="319.5" y="143.1" width="76.5" height="8.4" fill="#EF4444" opacity="0.19"/>
<rect x="397.9" y="143.1" width="76.5" height="8.4" fill="#EF4444" opacity="0.20"/>
<rect x="7.62" y="154.53714285714284" width="54.9" height="3" fill="#111827" opacity="0.5" rx="1"/>
<rect x="84.1" y="153.5" width="76.5" height="8.4" fill="#10B981" opacity="0.40"/>
<rect x="162.5" y="153.5" width="76.5" height="8.4" fill="#EF4444" opacity="0.17"/>
<rect x="241.0" y="153.5" width="76.5" height="8.4" fill="#EF4444" opacity="0.23"/>
<rect x="319.5" y="153.5" width="76.5" height="8.4" fill="#10B981" opacity="0.42"/>
<rect x="397.9" y="153.5" width="76.5" height="8.4" fill="#10B981" opacity="0.45"/>
<rect x="4.62" y="166.44" width="470.77" height="47.88" rx="3" fill="#FFFFFF" stroke="#E5E7EB"/>
<text x="12.620000000000001" y="178.44" fill="#6B7280" font-family="Segoe UI, Inter, system-ui, sans-serif" font-size="8" font-weight="600">Retention Curve</text>
<polygon points="12.6,206.32 12.6,197.8 45.1,194.5 77.6,197.3 110.1,194.2 142.6,197.4 175.0,197.8 207.5,201.2 240.0,197.5 272.5,197.8 305.0,196.4 337.5,198.0 369.9,193.3 402.4,193.6 434.9,195.3 467.4,201.5 467.4,206.32" fill="#2563EB" opacity="0.18"/>
<polyline points="12.6,197.8 45.1,194.5 77.6,197.3 110.1,194.2 142.6,197.4 175.0,197.8 207.5,201.2 240.0,197.5 272.5,197.8 305.0,196.4 337.5,198.0 369.9,193.3 402.4,193.6 434.9,195.3 467.4,201.5" fill="none" stroke="#2563EB" stroke-width="1.8"/>
<polyline points="12.6,201.9 45.1,198.9 77.6,199.0 110.1,200.2 142.6,202.0 175.0,203.2 207.5,202.1 240.0,200.2 272.5,203.2 305.0,200.0 337.5,198.4 369.9,200.6 402.4,198.4 434.9,203.9 467.4,200.5" fill="none" stroke="#F59E0B" stroke-width="1.3" stroke-dasharray="3 2"/>
<line x1="12.620000000000001" y1="206.32" x2="467.39" y2="206.32" stroke="#E5E7EB"/>
<rect x="4.62" y="217.79" width="470.77" height="47.6" rx="3" fill="#FFFFFF" stroke="#E5E7EB"/>
<text x="12.620000000000001" y="229.79" fill="#6B7280" font-family="Segoe UI, Inter, system-ui, sans-serif" font-size="8" font-weight="600">Top Segments</text>
<polygon points="12.6,257.39 12.6,248.0 45.1,251.5 77.6,247.8 110.1,251.0 142.6,250.7 175.0,248.6 207.5,252.5 240.0,247.6 272.5,252.7 305.0,244.3 337.5,249.4 369.9,252.8 402.4,247.4 434.9,245.8 467.4,249.7 467.4,257.39" fill="#2563EB" opacity="0.18"/>
<polyline points="12.6,248.0 45.1,251.5 77.6,247.8 110.1,251.0 142.6,250.7 175.0,248.6 207.5,252.5 240.0,247.6 272.5,252.7 305.0,244.3 337.5,249.4 369.9,252.8 402.4,247.4 434.9,245.8 467.4,249.7" fill="none" stroke="#2563EB" stroke-width="1.8"/>
<polyline points="12.6,248.7 45.1,252.9 77.6,251.9 110.1,252.9 142.6,252.9 175.0,248.2 207.5,249.3 240.0,249.2 272.5,254.3 305.0,248.9 337.5,248.7 369.9,253.2 402.4,249.4 434.9,248.7 467.4,249.8" fill="none" stroke="#F59E0B" stroke-width="1.3" stroke-dasharray="3 2"/>
<line x1="12.620000000000001" y1="257.39" x2="467.39" y2="257.39" stroke="#E5E7EB"/>
<text x="240.0" y="265" fill="#6B7280" font-family="Segoe UI, Inter, system-ui, sans-serif" font-size="7" font-weight="600" text-anchor="middle">customer-360</text>
</svg>