<svg xmlns="http://www.w3.org/2000/svg" viewBox="0 0 480 270" font-family="Segoe UI, Inter, system-ui, sans-serif">
<title>dimension-nav-hub</title>
<rect x="0" y="0" width="480" height="270" fill="#FFFFFF"/>
<rect x="0" y="0" width="480" height="3" fill="#2563EB"/>
<rect x="8.620000000000001" y="8.620000000000001" width="89.354" height="69.95666666666666" rx="3" fill="#FFFFFF" stroke="#E5E7EB"/>
<rect x="8.620000000000001" y="8.620000000000001" width="89.354" height="2" fill="#2563EB"/>
<rect x="12.620000000000001" y="14.620000000000001" width="49.1447" height="3" fill="#6B7280" rx="1"/>
<text x="12.620000000000001" y="47.096166666666676" fill="#111827" font-family="Segoe UI, Inter, system-ui, sans-serif" font-size="9" font-weight="700">127</text>
<rect x="13.620000000000001" y="65.41791882712097" width="14.270800000000001" height="7.2" fill="#60A5FA"/>
<rect x="29.890800000000002" y="62.269829419462305" width="14.270800000000001" height="10.3" fill="#60A5FA"/>
<rect x="46.16160000000001" y="54.479664162312304" width="14.270800000000001" height="18.1" fill="#60A5FA"/>
<rect x="62.4324" y="57.857601504789685" width="14.270800000000001" height="14.7" fill="#60A5FA"/>
<rect x="78.70320000000001" y="55.38247807051154" width="14.270800000000001" height="17.2" fill="#60A5FA"/>
<rect x="101.974" y="8.620000000000001" width="89.354" height="69.95666666666666" rx="3" fill="#FFFFFF" stroke="#E5E7EB"/>
<rect x="101.974" y="8.620000000000001" width="89.354" height="2" fill="#F59E0B"/>
<rect x="105.974" y="14.620000000000001" width="49.1447" height="3" fill="#6B7280" rx="1"/>
<text x="105.974" y="47.096166666666676" fill="#111827" font-family="Segoe UI, Inter, system-ui, sans-serif" font-size="9" font-weight="700">597</text>
<rect x="106.974" y="56.22212170498425" width="14.270800000000001" height="16.4" fill="#60A5FA"/>
<rect x="123.2448" y="66.45644444545297" width="14.270800000000001" height="6.1" fill="#60A5FA"/>
<rect x="139.5156" y="64.49442680238286" width="14.270800000000001" height="8.1" fill="#60A5FA"/>
<rect x="155.78640000000001" y="64.84060707541666" width="14.270800000000001" height="7.7" fill="#60A5FA"/>
<rect x="172.05720000000002" y="56.11565543500156" width="14.270800000000001" height="16.5" fill="#60A5FA"/>
<rect x="195.328" y="8.620000000000001" width="89.354" height="69.95666666666666" rx="3" fill="#FFFFFF" stroke="#E5E7EB"/>
<rect x="195.328" y="8.620000000000001" width="89.354" height="2" fill="#10B981"/>
<rect x="199.328" y="14.620000000000001" width="49.1447" height="3" fill="#6B7280" rx="1"/>
<text x="199.328" y="47.096166666666676" fill="#111827" font-family="Segoe UI, Inter, system-ui, sans-serif" font-size="9" font-weight="700">703</text>
<rect x="200.328" y="56.55452680606969" width="14.270800000000001" height="16.0" fill="#60A5FA"/>
<rect x="216.5988" y="62.10552102875663" width="14.270800000000001" height="10.5" fill="#60A5FA"/>
<rect x="232.8696" y="62.26093654973681" width="14.270800000000001" height="10.3" fill="#60A5FA"/>
<rect x="249.1404" y="68.34498151863363" width="14.270800000000001" height="4.2" fill="#60A5FA"/>
<rect x="265.4112" y="55.31101437983195" width="14.270800000000001" height="17.3" fill="#60A5FA"/>
<rect x="288.682" y="8.620000000000001" width="89.354" height="69.95666666666666" rx="3" fill="#FFFFFF" stroke="#E5E7EB"/>
<rect x="288.682" y="8.620000000000001" width="89.354" height="2" fill="#2563EB"/>
<rect x="292.682" y="14.620000000000001" width="49.1447" height="3" fill="#6B7280" rx="1"/>
<text x="292.682" y="47.096166666666676" fill="#111827" font-family="Segoe UI, Inter, system-ui, sans-serif" font-size="9" font-weight="700">357</text>
<rect x="293.682" y="55.66810200319793" width="14.270800000000001" height="16.9" fill="#60A5FA"/>
<rect x="309.9528" y="70.25725951533487" width="14.270800000000001" height="2.3" fill="#60A5FA"/>
<rect x="326.22360000000003" y="59.85468780558329" width="14.270800000000001" height="12.7" fill="#60A5FA"/>
<rect x="342.49440000000004" y="66.7573722877822" width="14.270800000000001" height="5.8" fill="#60A5FA"/>
<rect x="358.76520000000005" y="55.84031911516007" width="14.270800000000001" height="16.7" fill="#60A5FA"/>
<rect x="382.036" y="8.620000000000001" width="89.354" height="69.95666666666666" rx="3" fill="#FFFFFF" stroke="#E5E7EB"/>
<rect x="382.036" y="8.620000000000001" width="89.354" height="2" fill="#F59E0B"/>
<rect x="386.036" y="14.620000000000001" width="49.1447" height="3" fill="#6B7280" rx="1"/>
<text x="386.036" y="47.096166666666676" fill="#111827" font-family="Segoe UI, Inter, system-ui, sans-serif" font-size="9" font-weight="700">60</text>
<rect x="387.036" y="54.75207612902287" width="14.270800000000001" height="17.8" fill="#60A5FA"/>
<rect x="403.3068" y="61.153616300762366" width="14.270800000000001" height="11.4" fill="#60A5FA"/>
<rect x="419.5776" y="69.17073646237026" width="14.270800000000001" height="3.4" fill="#60A5FA"/>
<rect x="435.8484" y="63.07815208145771" width="14.270800000000001" height="9.5" fill="#60A5FA"/>
<rect x="452.1192" y="70.37677025852554" width="14.270800000000001" height="2.2" fill="#60A5FA"/>
<rect x="8.620000000000001" y="82.57666666666667" width="89.354" height="69.95666666666666" rx="3" fill="#FFFFFF" stroke="#E5E7EB"/>
<rect x="8.620000000000001" y="82.57666666666667" width="89.354" height="2" fill="#10B981"/>
<rect x="12.620000000000001" y="88.57666666666667" width="49.1447" height="3" fill="#6B7280" rx="1"/>
<text x="12.620000000000001" y="121.05283333333334" fill="#111827" font-family="Segoe UI, Inter, system-ui, sans-serif" font-size="9" font-weight="700">808</text>
<rect x="13.620000000000001" y="126.627712176155" width="14.270800000000001" height="19.9" fill="#60A5FA"/>
<rect x="29.890800000000002" y="140.36447392551395" width="14.270800000000001" height="6.2" fill="#60A5FA"/>
<rect x="46.16160000000001" y="130.55858470300302" width="14.270800000000001" height="16.0" fill="#60A5FA"/>
<rect x="62.4324" y="143.04531672351126" width="14.270800000000001" height="3.5" fill="#60A5FA"/>
<rect x="78.70320000000001" y="138.62709685263238" width="14.270800000000001" height="7.9" fill="#60A5FA"/>
<rect x="101.974" y="82.57666666666667" width="89.354" height="69.95666666666666" rx="3" fill="#FFFFFF" stroke="#E5E7EB"/>
<rect x="101.974" y="82.57666666666667" width="89.354" height="2" fill="#2563EB"/>
<rect x="105.974" y="88.57666666666667" width="49.1447" height="3" fill="#6B7280" rx="1"/>
<text x="105.974" y="121.05283333333334" fill="#111827" font-family="Segoe UI, Inter, system-ui, sans-serif" font-size="9" font-weight="700">108</text>
<rect x="106.974" y="134.182964057524" width="14.270800000000001" height="12.4" fill="#60A5FA"/>
<rect x="123.2448" y="134.4790728120321" width="14.270800000000001" height="12.1" fill="#60A5FA"/>
<rect x="139.5156" y="131.6495652645621" width="14.270800000000001" height="14.9" fill="#60A5FA"/>
<rect x="155.78640000000001" y="126.72402524552746" width="14.270800000000001" height="19.8" fill="#60A5FA"/>
<rect x="172.05720000000002" y="130.7447159222258" width="14.270800000000001" height="15.8" fill="#60A5FA"/>
<rect x="195.328" y="82.57666666666667" width="89.354" height="69.95666666666666" rx="3" fill="#FFFFFF" stroke="#E5E7EB"/>
<rect x="195.328" y="82.57666666666667" width="89.354" height="2" fill="#F59E0B"/>
<rect x="199.328" y="88.57666666666667" width="49.1447" height="3" fill="#6B7280" rx="1"/>
<text x="199.328" y="121.05283333333334" fill="#111827" font-family="Segoe UI, Inter, system-ui, sans-serif" font-size="9" font-weight="700">570</text>
<rect x="200.328" y="142.87523783472253" width="14.270800000000001" height="3.7" fill="#60A5FA"/>
<rect x="216.5988" y="126.29942582522659" width="14.270800000000001" height="20.2" fill="#60A5FA"/>
<rect x="232.8696" y="127.41237579407004" width="14.270800000000001" height="19.1" fill="#60A5FA"/>
<rect x="249.1404" y="132.35029681239752" width="14.270800000000001" height="14.2" fill="#60A5FA"/>
<rect x="265.4112" y="143.86849681194587" width="14.270800000000001" height="2.7" fill="#60A5FA"/>
<rect x="288.682" y="82.57666666666667" width="89.354" height="69.95666666666666" rx="3" fill="#FFFFFF" stroke="#E5E7EB"/>
<rect x="288.682" y="82.57666666666667" width="89.354" height="2" fill="#10B981"/>
<rect x="292.682" y="88.57666666666667" width="49.1447" height="3" fill="#6B7280" rx="1"/>
<text x="292.682" y="121.05283333333334" fill="#111827" font-family="Segoe UI, Inter, system-ui, sans-serif" font-size="9" font-weight="700">887</text>
<rect x="293.682" y="126.94837359254281" width="14.270800000000001" height="19.6" fill="#60A5FA"/>
<rect x="309.9528" y="139.40770278194313" width="14.270800000000001" height="7.1" fill="#60A5FA"/>
<rect x="326.22360000000003" y="143.61869149310178" width="14.270800000000001" height="2.9" fill="#60A5FA"/>
<rect x="342.49440000000004" y="133.25753950733883" width="14.270800000000001" height="13.3" fill="#60A5FA"/>
<rect x="358.76520000000005" y="139.43932225215318" width="14.270800000000001" height="7.1" fill="#60A5FA"/>
<rect x="382.036" y="82.57666666666667" width="89.354" height="69.95666666666666" rx="3" fill="#FFFFFF" stroke="#E5E7EB"/>
<rect x="382.036" y="82.57666666666667" width="89.354" height="2" fill="#2563EB"/>
<rect x="386.036" y="88.57666666666667" width="49.1447" height="3" fill="#6B7280" rx="1"/>
<text x="386.036" y="121.05283333333334" fill="#111827" font-family="Segoe UI, Inter, system-ui, sans-serif" font-size="9" font-weight="700">123</text>
<rect x="387.036" y="141.5751566090883" width="14.270800000000001" height="5.0" fill="#60A5FA"/>
<rect x="403.3068" y="133.37101430686363" width="14.270800000000001" height="13.2" fill="#60A5FA"/>
<rect x="419.5776" y="138.13500997131365" width="14.270800000000001" height="8.4" fill="#60A5FA"/>
<rect x="435.8484" y="141.30262798473012" width="14.270800000000001" height="5.2" fill="#60A5FA"/>
<rect x="452.1192" y="125.96118811038463" width="14.270800000000001" height="20.6" fill="#60A5FA"/>
<rect x="8.620000000000001" y="156.53333333333333" width="89.354" height="69.95666666666666" rx="3" fill="#FFFFFF" stroke="#E5E7EB"/>
<rect x="8.620000000000001" y="156.53333333333333" width="89.354" height="2" fill="#F59E0B"/>
<rect x="12.620000000000001" y="162.53333333333333" width="49.1447" height="3" fill="#6B7280" rx="1"/>
<text x="12.620000000000001" y="195.0095" fill="#111827" font-family="Segoe UI, Inter, system-ui, sans-serif" font-size="9" font-weight="700">352</text>
<rect x="13.620000000000001" y="210.79632884509252" width="14.270800000000001" height="9.7" fill="#60A5FA"/>
<rect x="29.890800000000002" y="218.46532244675885" width="14.270800000000001" height="2.0" fill="#60A5FA"/>
<rect x="46.16160000000001" y="210.7563721975505" width="14.270800000000001" height="9.7" fill="#60A5FA"/>
<rect x="62.4324" y="209.7497110071102" width="14.270800000000001" height="10.7" fill="#60A5FA"/>
<rect x="78.70320000000001" y="206.34277506925775" width="14.270800000000001" height="14.1" fill="#60A5FA"/>
<rect x="101.974" y="156.53333333333333" width="89.354" height="69.95666666666666" rx="3" fill="#FFFFFF" stroke="#E5E7EB"/>
<rect x="101.974" y="156.53333333333333" width="89.354" height="2" fill="#10B981"/>
<rect x="105.974" y="162.53333333333333" width="49.1447" height="3" fill="#6B7280" rx="1"/>
<text x="105.974" y="195.0095" fill="#111827" font-family="Segoe UI, Inter, system-ui, sans-serif" font-size="9" font-weight="700">717</text>
<rect x="106.974" y="214.38853434360965" width="14.270800000000001" height="6.1" fill="#60A5FA"/>
<rect x="123.2448" y="211.15546795416807" width="14.270800000000001" height="9.3" fill="#60A5FA"/>
<rect x="139.5156" y="200.45808131241614" width="14.270800000000001" height="20.0" fill="#60A5FA"/>
<rect x="155.78640000000001" y="204.82343348341485" width="14.270800000000001" height="15.7" fill="#60A5FA"/>
<rect x="172.05720000000002" y="214.5141278433473" width="14.270800000000001" height="6.0" fill="#60A5FA"/>
<rect x="4.62" y="233.94" width="470.77" height="18.75" rx="4" fill="#F8FAFC" stroke="#E5E7EB"/>
<rect x="4.62" y="233.94" width="4" height="18.75" rx="2" fill="#2563EB"/>
<text x="18.62" y="245.565" fill="#111827" font-family="Segoe UI, Inter, system-ui, sans-serif" font-size="10.3125" font-weight="700">Top Header Bar</text>
<rect x="385.39" y="239.19" width="70" height="8.4" rx="3" fill="#EFF6FF" stroke="#DBEAFE"/>
<text x="420.39" y="246.315" fill="#6B7280" font-family="Segoe UI, Inter, system-ui, sans-serif" font-size="7.125" font-weight="500" text-anchor="middle">Q4 · FY26</text>
<rect x="4.62" y="256.15" width="470.77" height="9.23" rx="2" fill="#F8FAFC" stroke="#E5E7EB"/>
<text x="14.620000000000001" y="262.1495" fill="#6B7280" font-family="Segoe UI, Inter, system-ui, sans-serif" font-size="5.0765" font-weight="400">Source: Data warehouse · Last refresh 08:15</text>
<text x="415.39" y="262.1495" fill="#6B7280" font-family="Segoe UI, Inter, system-ui, sans-serif" font-size="5.0765" font-weight="500" text-anchor="start">Confidential</text>
<rect x="455.39" y="258.4575" width="14" height="4.6" rx="2" fill="#2563EB" opacity="0.15"/>
<text x="462.39" y="262.611" fill="#2563EB" font-family="Segoe UI, Inter, system-ui, sans-serif" font-size="4.615" font-weight="700" text-anchor="middle">1</text>
<circle cx="465.39" cy="14.620000000000001" r="8" fill="#2563EB" stroke="#FFFFFF" stroke-width="1.5"/>
<text x="465.39" y="17.62" fill="#FFFFFF" font-family="Segoe UI, Inter, system-ui, sans-serif" font-size="8" font-weight="700" text-anchor="middle">1</text>
<circle cx="465.39" cy="243.94" r="8" fill="#2563EB" stroke="#FFFFFF" stroke-width="1.5"/>
<text x="465.39" y="246.94" fill="#FFFFFF" font-family="Segoe UI, Inter, system-ui, sans-serif" font-size="8" font-weight="700" text-anchor="middle">2</text>
<circle cx="465.39" cy="266.15" r="8" fill="#2563EB" stroke="#FFFFFF" stroke-width="1.5"/>
<text x="465.39" y="269.15" fill="#FFFFFF" font-family="Segoe UI, Inter, system-ui, sans-serif" font-size="8" font-weight="700" text-anchor="middle">3</text>
<text x="240.0" y="265" fill="#6B7280" font-family="Segoe UI, Inter, system-ui, sans-serif" font-size="7" font-weight="600" text-anchor="middle">dimension-nav-hub</text>
</svg>