<svg xmlns="http://www.w3.org/2000/svg" viewBox="0 0 480 270" font-family="Segoe UI, Inter, system-ui, sans-serif">
<title>esg-carbon-scorecard</title>
<rect x="0" y="0" width="480" height="270" fill="#0F172A"/>
<rect x="0" y="0" width="480" height="3" fill="#38BDF8"/>
<rect x="4.62" y="4.62" width="470.77" height="18.75" rx="4" fill="#111827" stroke="#334155"/>
<rect x="4.62" y="4.62" width="4" height="18.75" rx="2" fill="#38BDF8"/>
<text x="18.62" y="16.245" fill="#F1F5F9" font-family="Segoe UI, Inter, system-ui, sans-serif" font-size="10.3125" font-weight="700">Title Bar</text>
<rect x="385.39" y="9.870000000000001" width="70" height="8.4" rx="3" fill="#0C2A4A" stroke="#1E40AF"/>
<text x="420.39" y="16.995" fill="#94A3B8" font-family="Segoe UI, Inter, system-ui, sans-serif" font-size="7.125" font-weight="500" text-anchor="middle">Q4 · FY26</text>
<rect x="4.62" y="26.83" width="470.77" height="17.31" rx="3" fill="#111827" stroke="#334155"/>
<rect x="10.620000000000001" y="30.291999999999998" width="86.954" height="10.386" rx="5.193" fill="#1E293B" stroke="#334155"/>
<text x="18.62" y="37.354479999999995" fill="#94A3B8" font-family="Segoe UI, Inter, system-ui, sans-serif" font-size="5.193" font-weight="500">Region</text>
<text x="87.574" y="37.14676" fill="#64748B" font-family="Segoe UI, Inter, system-ui, sans-serif" font-size="4.6737" font-weight="500" text-anchor="end">▾</text>
<rect x="103.574" y="30.291999999999998" width="86.954" height="10.386" rx="5.193" fill="#1E293B" stroke="#334155"/>
<text x="111.574" y="37.354479999999995" fill="#94A3B8" font-family="Segoe UI, Inter, system-ui, sans-serif" font-size="5.193" font-weight="500">Period</text>
<text x="180.528" y="37.14676" fill="#64748B" font-family="Segoe UI, Inter, system-ui, sans-serif" font-size="4.6737" font-weight="500" text-anchor="end">▾</text>
<rect x="196.528" y="30.291999999999998" width="86.954" height="10.386" rx="5.193" fill="#1E293B" stroke="#334155"/>
<text x="204.528" y="37.354479999999995" fill="#94A3B8" font-family="Segoe UI, Inter, system-ui, sans-serif" font-size="5.193" font-weight="500">Product</text>
<text x="273.48199999999997" y="37.14676" fill="#64748B" font-family="Segoe UI, Inter, system-ui, sans-serif" font-size="4.6737" font-weight="500" text-anchor="end">▾</text>
<rect x="289.48199999999997" y="30.291999999999998" width="86.954" height="10.386" rx="5.193" fill="#1E293B" stroke="#334155"/>
<text x="297.48199999999997" y="37.354479999999995" fill="#94A3B8" font-family="Segoe UI, Inter, system-ui, sans-serif" font-size="5.193" font-weight="500">Segment</text>
<text x="366.436" y="37.14676" fill="#64748B" font-family="Segoe UI, Inter, system-ui, sans-serif" font-size="4.6737" font-weight="500" text-anchor="end">▾</text>
<rect x="382.436" y="30.291999999999998" width="86.954" height="10.386" rx="5.193" fill="#1E293B" stroke="#334155"/>
<text x="390.436" y="37.354479999999995" fill="#94A3B8" font-family="Segoe UI, Inter, system-ui, sans-serif" font-size="5.193" font-weight="500">Channel</text>
<text x="459.39" y="37.14676" fill="#64748B" font-family="Segoe UI, Inter, system-ui, sans-serif" font-size="4.6737" font-weight="500" text-anchor="end">▾</text>
<rect x="4.62" y="47.6" width="270.29" height="118.27" rx="3" fill="#1E293B" stroke="#334155"/>
<text x="12.620000000000001" y="59.6" fill="#94A3B8" font-family="Segoe UI, Inter, system-ui, sans-serif" font-size="8" font-weight="600">Scope Emission Stack</text>
<polygon points="12.6,157.87 12.6,90.2 30.8,110.1 48.9,135.3 67.1,132.3 85.3,130.4 103.4,95.0 121.6,116.9 139.8,132.2 157.9,130.6 176.1,87.5 194.3,127.8 212.4,102.2 230.6,119.5 248.7,90.8 266.9,112.5 266.9,157.87" fill="#38BDF8" opacity="0.18"/>
<polyline points="12.6,90.2 30.8,110.1 48.9,135.3 67.1,132.3 85.3,130.4 103.4,95.0 121.6,116.9 139.8,132.2 157.9,130.6 176.1,87.5 194.3,127.8 212.4,102.2 230.6,119.5 248.7,90.8 266.9,112.5" fill="none" stroke="#38BDF8" stroke-width="1.8"/>
<polyline points="12.6,121.4 30.8,106.6 48.9,110.8 67.1,116.2 85.3,112.1 103.4,119.6 121.6,143.0 139.8,127.1 157.9,135.5 176.1,140.5 194.3,124.1 212.4,127.4 230.6,106.2 248.7,143.6 266.9,142.0" fill="none" stroke="#FBBF24" stroke-width="1.3" stroke-dasharray="3 2"/>
<line x1="12.620000000000001" y1="157.87" x2="266.91" y2="157.87" stroke="#334155"/>
<rect x="279.52" y="47.6" width="195.87" height="118.27" rx="3" fill="#1E293B" stroke="#334155"/>
<text x="287.52" y="59.6" fill="#94A3B8" font-family="Segoe UI, Inter, system-ui, sans-serif" font-size="8" font-weight="600">Intensity Trend</text>
<rect x="290.9" y="123.3" width="15.7" height="34.6" rx="1" fill="#38BDF8"/>
<rect x="313.4" y="80.6" width="15.7" height="77.2" rx="1" fill="#60A5FA"/>
<rect x="335.9" y="84.4" width="15.7" height="73.5" rx="1" fill="#38BDF8"/>
<rect x="358.3" y="102.6" width="15.7" height="55.3" rx="1" fill="#60A5FA"/>
<rect x="380.8" y="129.4" width="15.7" height="28.5" rx="1" fill="#38BDF8"/>
<rect x="403.3" y="93.8" width="15.7" height="64.1" rx="1" fill="#60A5FA"/>
<rect x="425.8" y="78.6" width="15.7" height="79.3" rx="1" fill="#38BDF8"/>
<rect x="448.3" y="98.5" width="15.7" height="59.3" rx="1" fill="#60A5FA"/>
<line x1="287.52" y1="157.87" x2="467.39" y2="157.87" stroke="#334155"/>
<polyline points="298.8,113.6 321.2,87.9 343.7,87.3 366.2,99.9 388.7,117.1 411.2,89.0 433.7,125.5 456.1,138.1" fill="none" stroke="#FBBF24" stroke-width="1.6"/>
<circle cx="298.8" cy="113.6" r="1.8" fill="#FBBF24"/>
<circle cx="321.2" cy="87.9" r="1.8" fill="#FBBF24"/>
<circle cx="343.7" cy="87.3" r="1.8" fill="#FBBF24"/>
<circle cx="366.2" cy="99.9" r="1.8" fill="#FBBF24"/>
<circle cx="388.7" cy="117.1" r="1.8" fill="#FBBF24"/>
<circle cx="411.2" cy="89.0" r="1.8" fill="#FBBF24"/>
<circle cx="433.7" cy="125.5" r="1.8" fill="#FBBF24"/>
<circle cx="456.1" cy="138.1" r="1.8" fill="#FBBF24"/>
<rect x="4.62" y="169.33" width="470.77" height="96.06" rx="3" fill="#1E293B" stroke="#334155"/>
<rect x="4.62" y="169.33" width="470.77" height="14" fill="#0C2A4A"/>
<text x="12.620000000000001" y="179.33" fill="#F1F5F9" font-family="Segoe UI, Inter, system-ui, sans-serif" font-size="7.5" font-weight="700">Item</text>
<text x="103.574" y="179.33" fill="#F1F5F9" font-family="Segoe UI, Inter, system-ui, sans-serif" font-size="7.5" font-weight="700">Value</text>
<text x="194.528" y="179.33" fill="#F1F5F9" font-family="Segoe UI, Inter, system-ui, sans-serif" font-size="7.5" font-weight="700">Δ%</text>
<text x="285.48199999999997" y="179.33" fill="#F1F5F9" font-family="Segoe UI, Inter, system-ui, sans-serif" font-size="7.5" font-weight="700">Status</text>
<text x="376.436" y="179.33" fill="#F1F5F9" font-family="Segoe UI, Inter, system-ui, sans-serif" font-size="7.5" font-weight="700">Trend</text>
<line x1="4.62" y1="183.33" x2="475.39" y2="183.33" stroke="#334155"/>
<rect x="12.620000000000001" y="186.33" width="63.7" height="4" fill="#94A3B8" rx="1" opacity="0.5"/>
<rect x="103.574" y="186.33" width="45.5" height="4" fill="#F1F5F9" rx="1" opacity="0.7"/>
<rect x="194.528" y="186.33" width="45.5" height="4" fill="#F1F5F9" rx="1" opacity="0.7"/>
<circle cx="291.48199999999997" cy="188.33" r="2.5" fill="#34D399"/>
<polyline points="378.4,188.0 380.4,187.2 382.4,187.9 384.4,187.7 386.4,187.2" fill="none" stroke="#38BDF8" stroke-width="1"/>
<rect x="4.62" y="193.33" width="470.77" height="10" fill="#1F2937"/>
<rect x="12.620000000000001" y="196.33" width="63.7" height="4" fill="#94A3B8" rx="1" opacity="0.5"/>
<rect x="103.574" y="196.33" width="45.5" height="4" fill="#F1F5F9" rx="1" opacity="0.7"/>
<rect x="194.528" y="196.33" width="45.5" height="4" fill="#F1F5F9" rx="1" opacity="0.7"/>
<circle cx="291.48199999999997" cy="198.33" r="2.5" fill="#FBBF24"/>
<polyline points="378.4,196.9 380.4,196.3 382.4,199.0 384.4,196.9 386.4,196.5" fill="none" stroke="#38BDF8" stroke-width="1"/>
<rect x="12.620000000000001" y="206.33" width="63.7" height="4" fill="#94A3B8" rx="1" opacity="0.5"/>
<rect x="103.574" y="206.33" width="45.5" height="4" fill="#F1F5F9" rx="1" opacity="0.7"/>
<rect x="194.528" y="206.33" width="45.5" height="4" fill="#F1F5F9" rx="1" opacity="0.7"/>
<circle cx="291.48199999999997" cy="208.33" r="2.5" fill="#F87171"/>
<polyline points="378.4,207.1 380.4,208.8 382.4,210.3 384.4,206.6 386.4,208.9" fill="none" stroke="#38BDF8" stroke-width="1"/>
<rect x="4.62" y="213.33" width="470.77" height="10" fill="#1F2937"/>
<rect x="12.620000000000001" y="216.33" width="63.7" height="4" fill="#94A3B8" rx="1" opacity="0.5"/>
<rect x="103.574" y="216.33" width="45.5" height="4" fill="#F1F5F9" rx="1" opacity="0.7"/>
<rect x="194.528" y="216.33" width="45.5" height="4" fill="#F1F5F9" rx="1" opacity="0.7"/>
<circle cx="291.48199999999997" cy="218.33" r="2.5" fill="#34D399"/>
<polyline points="378.4,218.9 380.4,218.4 382.4,216.8 384.4,219.3 386.4,219.9" fill="none" stroke="#38BDF8" stroke-width="1"/>
<rect x="12.620000000000001" y="226.33" width="63.7" height="4" fill="#94A3B8" rx="1" opacity="0.5"/>
<rect x="103.574" y="226.33" width="45.5" height="4" fill="#F1F5F9" rx="1" opacity="0.7"/>
<rect x="194.528" y="226.33" width="45.5" height="4" fill="#F1F5F9" rx="1" opacity="0.7"/>
<circle cx="291.48199999999997" cy="228.33" r="2.5" fill="#FBBF24"/>
<polyline points="378.4,226.4 380.4,227.1 382.4,226.5 384.4,227.9 386.4,227.1" fill="none" stroke="#38BDF8" stroke-width="1"/>
<rect x="4.62" y="233.33" width="470.77" height="10" fill="#1F2937"/>
<rect x="12.620000000000001" y="236.33" width="63.7" height="4" fill="#94A3B8" rx="1" opacity="0.5"/>
<rect x="103.574" y="236.33" width="45.5" height="4" fill="#F1F5F9" rx="1" opacity="0.7"/>
<rect x="194.528" y="236.33" width="45.5" height="4" fill="#F1F5F9" rx="1" opacity="0.7"/>
<circle cx="291.48199999999997" cy="238.33" r="2.5" fill="#F87171"/>
<polyline points="378.4,236.9 380.4,236.8 382.4,239.8 384.4,238.7 386.4,237.5" fill="none" stroke="#38BDF8" stroke-width="1"/>
<rect x="12.620000000000001" y="246.33" width="63.7" height="4" fill="#94A3B8" rx="1" opacity="0.5"/>
<rect x="103.574" y="246.33" width="45.5" height="4" fill="#F1F5F9" rx="1" opacity="0.7"/>
<rect x="194.528" y="246.33" width="45.5" height="4" fill="#F1F5F9" rx="1" opacity="0.7"/>
<circle cx="291.48199999999997" cy="248.33" r="2.5" fill="#34D399"/>
<polyline points="378.4,246.4 380.4,246.4 382.4,248.0 384.4,249.7 386.4,250.0" fill="none" stroke="#38BDF8" stroke-width="1"/>
<rect x="4.62" y="253.33" width="470.77" height="10" fill="#1F2937"/>
<rect x="12.620000000000001" y="256.33000000000004" width="63.7" height="4" fill="#94A3B8" rx="1" opacity="0.5"/>
<rect x="103.574" y="256.33000000000004" width="45.5" height="4" fill="#F1F5F9" rx="1" opacity="0.7"/>
<rect x="194.528" y="256.33000000000004" width="45.5" height="4" fill="#F1F5F9" rx="1" opacity="0.7"/>
<circle cx="291.48199999999997" cy="258.33000000000004" r="2.5" fill="#FBBF24"/>
<polyline points="378.4,258.3 380.4,260.3 382.4,259.0 384.4,256.7 386.4,257.4" fill="none" stroke="#38BDF8" stroke-width="1"/>
<text x="240.0" y="265" fill="#94A3B8" font-family="Segoe UI, Inter, system-ui, sans-serif" font-size="7" font-weight="600" text-anchor="middle">esg-carbon-scorecard</text>
</svg>