<svg xmlns="http://www.w3.org/2000/svg" viewBox="0 0 480 270" font-family="Segoe UI, Inter, system-ui, sans-serif">
<title>exec-overview-16x9</title>
<rect x="0" y="0" width="480" height="270" fill="#FFFFFF"/>
<rect x="0" y="0" width="480" height="3" fill="#2563EB"/>
<rect x="4.62" y="4.62" width="470.77" height="18.75" rx="4" fill="#F8FAFC" stroke="#E5E7EB"/>
<rect x="4.62" y="4.62" width="4" height="18.75" rx="2" fill="#2563EB"/>
<text x="18.62" y="16.245" fill="#111827" font-family="Segoe UI, Inter, system-ui, sans-serif" font-size="10.3125" font-weight="700">Title Bar</text>
<rect x="385.39" y="9.870000000000001" width="70" height="8.4" rx="3" fill="#EFF6FF" stroke="#DBEAFE"/>
<text x="420.39" y="16.995" fill="#6B7280" font-family="Segoe UI, Inter, system-ui, sans-serif" font-size="7.125" font-weight="500" text-anchor="middle">Q4 · FY26</text>
<rect x="10.620000000000001" y="32.83" width="110.1925" height="13.379999999999999" rx="4" fill="#FFFFFF" stroke="#E5E7EB"/>
<rect x="10.620000000000001" y="32.83" width="3" height="13.379999999999999" fill="#2563EB"/>
<text x="18.62" y="37.7736" fill="#6B7280" font-family="Segoe UI, Inter, system-ui, sans-serif" font-size="2.9436" font-weight="500">Revenue</text>
<text x="18.62" y="44.4566" fill="#111827" font-family="Segoe UI, Inter, system-ui, sans-serif" font-size="4.682999999999999" font-weight="700">$1.24M</text>
<rect x="126.8125" y="32.83" width="110.1925" height="13.379999999999999" rx="4" fill="#FFFFFF" stroke="#E5E7EB"/>
<rect x="126.8125" y="32.83" width="3" height="13.379999999999999" fill="#2563EB"/>
<text x="134.8125" y="37.7736" fill="#6B7280" font-family="Segoe UI, Inter, system-ui, sans-serif" font-size="2.9436" font-weight="500">Orders</text>
<text x="134.8125" y="44.4566" fill="#111827" font-family="Segoe UI, Inter, system-ui, sans-serif" font-size="4.682999999999999" font-weight="700">48,912</text>
<rect x="243.005" y="32.83" width="110.1925" height="13.379999999999999" rx="4" fill="#FFFFFF" stroke="#E5E7EB"/>
<rect x="243.005" y="32.83" width="3" height="13.379999999999999" fill="#2563EB"/>
<text x="251.005" y="37.7736" fill="#6B7280" font-family="Segoe UI, Inter, system-ui, sans-serif" font-size="2.9436" font-weight="500">Margin</text>
<text x="251.005" y="44.4566" fill="#111827" font-family="Segoe UI, Inter, system-ui, sans-serif" font-size="4.682999999999999" font-weight="700">38.2%</text>
<rect x="359.1975" y="32.83" width="110.1925" height="13.379999999999999" rx="4" fill="#FFFFFF" stroke="#E5E7EB"/>
<rect x="359.1975" y="32.83" width="3" height="13.379999999999999" fill="#2563EB"/>
<text x="367.1975" y="37.7736" fill="#6B7280" font-family="Segoe UI, Inter, system-ui, sans-serif" font-size="2.9436" font-weight="500">CSAT</text>
<text x="367.1975" y="44.4566" fill="#111827" font-family="Segoe UI, Inter, system-ui, sans-serif" font-size="4.682999999999999" font-weight="700">4.7 / 5</text>
<rect x="4.62" y="55.67" width="270.29" height="209.71" rx="3" fill="#FFFFFF" stroke="#E5E7EB"/>
<text x="12.620000000000001" y="67.67" fill="#6B7280" font-family="Segoe UI, Inter, system-ui, sans-serif" font-size="8" font-weight="600">Hero</text>
<polygon points="12.6,257.38 12.6,198.2 30.8,119.4 48.9,207.0 67.1,198.5 85.3,179.7 103.4,110.3 121.6,157.7 139.8,182.6 157.9,142.5 176.1,120.0 194.3,160.9 212.4,119.5 230.6,208.6 248.7,205.9 266.9,196.8 266.9,257.38" fill="#2563EB" opacity="0.18"/>
<polyline points="12.6,198.2 30.8,119.4 48.9,207.0 67.1,198.5 85.3,179.7 103.4,110.3 121.6,157.7 139.8,182.6 157.9,142.5 176.1,120.0 194.3,160.9 212.4,119.5 230.6,208.6 248.7,205.9 266.9,196.8" fill="none" stroke="#2563EB" stroke-width="1.8"/>
<polyline points="12.6,214.3 30.8,223.2 48.9,187.3 67.1,186.9 85.3,173.3 103.4,180.0 121.6,202.6 139.8,180.0 157.9,162.2 176.1,221.8 194.3,174.2 212.4,203.0 230.6,171.6 248.7,193.3 266.9,195.0" fill="none" stroke="#F59E0B" stroke-width="1.3" stroke-dasharray="3 2"/>
<line x1="12.620000000000001" y1="257.38" x2="266.91" y2="257.38" stroke="#E5E7EB"/>
<rect x="279.52" y="55.67" width="94.935" height="209.71" rx="3" fill="#FFFFFF" stroke="#E5E7EB"/>
<text x="287.52" y="67.67" fill="#6B7280" font-family="Segoe UI, Inter, system-ui, sans-serif" font-size="8" font-weight="600">Supporting Pair L</text>
<polygon points="287.5,257.38 287.5,207.4 293.2,186.1 298.8,128.2 304.4,126.7 310.1,177.8 315.7,155.7 321.3,109.0 327.0,166.4 332.6,155.6 338.3,148.4 343.9,173.1 349.5,157.9 355.2,178.3 360.8,159.3 366.5,198.7 366.5,257.38" fill="#2563EB" opacity="0.18"/>
<polyline points="287.5,207.4 293.2,186.1 298.8,128.2 304.4,126.7 310.1,177.8 315.7,155.7 321.3,109.0 327.0,166.4 332.6,155.6 338.3,148.4 343.9,173.1 349.5,157.9 355.2,178.3 360.8,159.3 366.5,198.7" fill="none" stroke="#2563EB" stroke-width="1.8"/>
<polyline points="287.5,188.8 293.2,151.5 298.8,200.9 304.4,174.2 310.1,168.2 315.7,184.9 321.3,218.8 327.0,183.5 332.6,165.6 338.3,221.2 343.9,194.4 349.5,228.4 355.2,185.1 360.8,214.3 366.5,188.4" fill="none" stroke="#F59E0B" stroke-width="1.3" stroke-dasharray="3 2"/>
<line x1="287.52" y1="257.38" x2="366.455" y2="257.38" stroke="#E5E7EB"/>
<rect x="380.455" y="55.67" width="94.935" height="209.71" rx="3" fill="#FFFFFF" stroke="#E5E7EB"/>
<text x="388.455" y="67.67" fill="#6B7280" font-family="Segoe UI, Inter, system-ui, sans-serif" font-size="8" font-weight="600">Supporting Pair R</text>
<circle cx="427.9" cy="171.0" r="34.2" fill="none" stroke="#2563EB" stroke-width="12.0" stroke-dasharray="90.19 214.74" stroke-dashoffset="0.00" transform="rotate(-90 427.9 171.0)"/>
<circle cx="427.9" cy="171.0" r="34.2" fill="none" stroke="#F59E0B" stroke-width="12.0" stroke-dasharray="53.68 214.74" stroke-dashoffset="-90.19" transform="rotate(-90 427.9 171.0)"/>
<circle cx="427.9" cy="171.0" r="34.2" fill="none" stroke="#10B981" stroke-width="12.0" stroke-dasharray="38.65 214.74" stroke-dashoffset="-143.87" transform="rotate(-90 427.9 171.0)"/>
<circle cx="427.9" cy="171.0" r="34.2" fill="none" stroke="#93C5FD" stroke-width="12.0" stroke-dasharray="32.21 214.74" stroke-dashoffset="-182.53" transform="rotate(-90 427.9 171.0)"/>
<text x="427.9225" y="174.01050000000004" fill="#111827" font-family="Segoe UI, Inter, system-ui, sans-serif" font-size="12" font-weight="700" text-anchor="middle">100%</text>
<text x="240.0" y="265" fill="#6B7280" font-family="Segoe UI, Inter, system-ui, sans-serif" font-size="7" font-weight="600" text-anchor="middle">exec-overview-16x9</text>
</svg>