<svg xmlns="http://www.w3.org/2000/svg" viewBox="0 0 480 339" font-family="Segoe UI, Inter, system-ui, sans-serif">
<title>exec-overview-16x9-a4</title>
<rect x="0" y="0" width="480" height="339" fill="#FFFFFF"/>
<rect x="0" y="0" width="480" height="3" fill="#2563EB"/>
<rect x="6.57" y="6.57" width="466.86" height="23.39" rx="4" fill="#F8FAFC" stroke="#E5E7EB"/>
<rect x="6.57" y="6.57" width="4" height="23.39" rx="2" fill="#2563EB"/>
<text x="20.57" y="21.071800000000003" fill="#111827" font-family="Segoe UI, Inter, system-ui, sans-serif" font-size="11" font-weight="700">Print Header</text>
<rect x="383.43" y="13.119200000000001" width="70" height="10.5" rx="3" fill="#EFF6FF" stroke="#DBEAFE"/>
<text x="418.43" y="22.0074" fill="#6B7280" font-family="Segoe UI, Inter, system-ui, sans-serif" font-size="8.8882" font-weight="500" text-anchor="middle">Q4 · FY26</text>
<rect x="6.57" y="34.88" width="466.86" height="23.39" rx="4" fill="#F8FAFC" stroke="#E5E7EB"/>
<rect x="6.57" y="34.88" width="4" height="23.39" rx="2" fill="#2563EB"/>
<text x="20.57" y="49.381800000000005" fill="#111827" font-family="Segoe UI, Inter, system-ui, sans-serif" font-size="11" font-weight="700">Title Bar</text>
<rect x="383.43" y="41.4292" width="70" height="10.5" rx="3" fill="#EFF6FF" stroke="#DBEAFE"/>
<text x="418.43" y="50.317400000000006" fill="#6B7280" font-family="Segoe UI, Inter, system-ui, sans-serif" font-size="8.8882" font-weight="500" text-anchor="middle">Q4 · FY26</text>
<rect x="12.57" y="69.2" width="109.215" height="20.009999999999998" rx="4" fill="#FFFFFF" stroke="#E5E7EB"/>
<rect x="12.57" y="69.2" width="3" height="20.009999999999998" fill="#2563EB"/>
<text x="20.57" y="75.6022" fill="#6B7280" font-family="Segoe UI, Inter, system-ui, sans-serif" font-size="4.4022" font-weight="500">Revenue</text>
<text x="20.57" y="84.6057" fill="#111827" font-family="Segoe UI, Inter, system-ui, sans-serif" font-size="7.003499999999999" font-weight="700">$1.24M</text>
<rect x="127.785" y="69.2" width="109.215" height="20.009999999999998" rx="4" fill="#FFFFFF" stroke="#E5E7EB"/>
<rect x="127.785" y="69.2" width="3" height="20.009999999999998" fill="#2563EB"/>
<text x="135.785" y="75.6022" fill="#6B7280" font-family="Segoe UI, Inter, system-ui, sans-serif" font-size="4.4022" font-weight="500">Orders</text>
<text x="135.785" y="84.6057" fill="#111827" font-family="Segoe UI, Inter, system-ui, sans-serif" font-size="7.003499999999999" font-weight="700">48,912</text>
<rect x="243.0" y="69.2" width="109.215" height="20.009999999999998" rx="4" fill="#FFFFFF" stroke="#E5E7EB"/>
<rect x="243.0" y="69.2" width="3" height="20.009999999999998" fill="#2563EB"/>
<text x="251.0" y="75.6022" fill="#6B7280" font-family="Segoe UI, Inter, system-ui, sans-serif" font-size="4.4022" font-weight="500">Margin</text>
<text x="251.0" y="84.6057" fill="#111827" font-family="Segoe UI, Inter, system-ui, sans-serif" font-size="7.003499999999999" font-weight="700">38.2%</text>
<rect x="358.215" y="69.2" width="109.215" height="20.009999999999998" rx="4" fill="#FFFFFF" stroke="#E5E7EB"/>
<rect x="358.215" y="69.2" width="3" height="20.009999999999998" fill="#2563EB"/>
<text x="366.215" y="75.6022" fill="#6B7280" font-family="Segoe UI, Inter, system-ui, sans-serif" font-size="4.4022" font-weight="500">CSAT</text>
<text x="366.215" y="84.6057" fill="#111827" font-family="Segoe UI, Inter, system-ui, sans-serif" font-size="7.003499999999999" font-weight="700">4.7 / 5</text>
<rect x="6.57" y="100.14" width="266.89" height="199.46" rx="3" fill="#FFFFFF" stroke="#E5E7EB"/>
<text x="14.57" y="112.14" fill="#6B7280" font-family="Segoe UI, Inter, system-ui, sans-serif" font-size="8" font-weight="600">Hero</text>
<polygon points="14.6,291.6 14.6,235.8 32.5,161.6 50.4,244.1 68.3,236.1 86.3,218.4 104.2,153.0 122.1,197.7 140.0,221.1 157.9,183.3 175.9,162.2 193.8,200.6 211.7,161.6 229.6,245.6 247.5,243.1 265.5,234.5 265.5,291.6" fill="#2563EB" opacity="0.18"/>
<polyline points="14.6,235.8 32.5,161.6 50.4,244.1 68.3,236.1 86.3,218.4 104.2,153.0 122.1,197.7 140.0,221.1 157.9,183.3 175.9,162.2 193.8,200.6 211.7,161.6 229.6,245.6 247.5,243.1 265.5,234.5" fill="none" stroke="#2563EB" stroke-width="1.8"/>
<polyline points="14.6,251.0 32.5,259.4 50.4,225.5 68.3,225.2 86.3,212.4 104.2,218.7 122.1,240.0 140.0,218.7 157.9,201.9 175.9,258.0 193.8,213.2 211.7,240.3 229.6,210.7 247.5,231.2 265.5,232.8" fill="none" stroke="#F59E0B" stroke-width="1.3" stroke-dasharray="3 2"/>
<line x1="14.57" y1="291.6" x2="265.46" y2="291.6" stroke="#E5E7EB"/>
<rect x="280.03" y="100.14" width="93.7" height="199.46" rx="3" fill="#FFFFFF" stroke="#E5E7EB"/>
<text x="288.03" y="112.14" fill="#6B7280" font-family="Segoe UI, Inter, system-ui, sans-serif" font-size="8" font-weight="600">Supporting Pair L</text>
<polygon points="288.0,291.6 288.0,244.5 293.6,224.4 299.1,169.8 304.7,168.5 310.2,216.6 315.8,195.8 321.3,151.8 326.9,205.8 332.4,195.7 338.0,188.9 343.5,212.1 349.1,197.9 354.6,217.1 360.2,199.2 365.7,236.3 365.7,291.6" fill="#2563EB" opacity="0.18"/>
<polyline points="288.0,244.5 293.6,224.4 299.1,169.8 304.7,168.5 310.2,216.6 315.8,195.8 321.3,151.8 326.9,205.8 332.4,195.7 338.0,188.9 343.5,212.1 349.1,197.9 354.6,217.1 360.2,199.2 365.7,236.3" fill="none" stroke="#2563EB" stroke-width="1.8"/>
<polyline points="288.0,227.0 293.6,191.8 299.1,238.4 304.7,213.3 310.2,207.6 315.8,223.3 321.3,255.2 326.9,222.0 332.4,205.1 338.0,257.5 343.5,232.3 349.1,264.3 354.6,223.5 360.2,251.0 365.7,226.6" fill="none" stroke="#F59E0B" stroke-width="1.3" stroke-dasharray="3 2"/>
<line x1="288.03" y1="291.6" x2="365.72999999999996" y2="291.6" stroke="#E5E7EB"/>
<rect x="379.72999999999996" y="100.14" width="93.7" height="199.46" rx="3" fill="#FFFFFF" stroke="#E5E7EB"/>
<text x="387.72999999999996" y="112.14" fill="#6B7280" font-family="Segoe UI, Inter, system-ui, sans-serif" font-size="8" font-weight="600">Supporting Pair R</text>
<circle cx="426.6" cy="209.8" r="33.7" fill="none" stroke="#2563EB" stroke-width="11.8" stroke-dasharray="89.02 211.94" stroke-dashoffset="0.00" transform="rotate(-90 426.6 209.8)"/>
<circle cx="426.6" cy="209.8" r="33.7" fill="none" stroke="#F59E0B" stroke-width="11.8" stroke-dasharray="52.99 211.94" stroke-dashoffset="-89.02" transform="rotate(-90 426.6 209.8)"/>
<circle cx="426.6" cy="209.8" r="33.7" fill="none" stroke="#10B981" stroke-width="11.8" stroke-dasharray="38.15 211.94" stroke-dashoffset="-142.00" transform="rotate(-90 426.6 209.8)"/>
<circle cx="426.6" cy="209.8" r="33.7" fill="none" stroke="#93C5FD" stroke-width="11.8" stroke-dasharray="31.79 211.94" stroke-dashoffset="-180.15" transform="rotate(-90 426.6 209.8)"/>
<text x="426.58" y="212.84300000000002" fill="#111827" font-family="Segoe UI, Inter, system-ui, sans-serif" font-size="12" font-weight="700" text-anchor="middle">100%</text>
<rect x="6.57" y="304.53" width="466.86" height="11.49" rx="2" fill="#F8FAFC" stroke="#E5E7EB"/>
<text x="16.57" y="311.9985" fill="#6B7280" font-family="Segoe UI, Inter, system-ui, sans-serif" font-size="6.319500000000001" font-weight="400">Source: Data warehouse · Last refresh 08:15</text>
<text x="413.43" y="311.9985" fill="#6B7280" font-family="Segoe UI, Inter, system-ui, sans-serif" font-size="6.319500000000001" font-weight="500" text-anchor="start">Confidential</text>
<rect x="453.43" y="307.4025" width="14" height="5.7" rx="2" fill="#2563EB" opacity="0.15"/>
<text x="460.43" y="312.573" fill="#2563EB" font-family="Segoe UI, Inter, system-ui, sans-serif" font-size="5.745" font-weight="700" text-anchor="middle">1</text>
<rect x="6.57" y="320.94" width="466.86" height="11.49" rx="2" fill="#F8FAFC" stroke="#E5E7EB"/>
<text x="16.57" y="328.4085" fill="#6B7280" font-family="Segoe UI, Inter, system-ui, sans-serif" font-size="6.319500000000001" font-weight="400">Source: Data warehouse · Last refresh 08:15</text>
<text x="413.43" y="328.4085" fill="#6B7280" font-family="Segoe UI, Inter, system-ui, sans-serif" font-size="6.319500000000001" font-weight="500" text-anchor="start">Confidential</text>
<rect x="453.43" y="323.8125" width="14" height="5.7" rx="2" fill="#2563EB" opacity="0.15"/>
<text x="460.43" y="328.983" fill="#2563EB" font-family="Segoe UI, Inter, system-ui, sans-serif" font-size="5.745" font-weight="700" text-anchor="middle">1</text>
<text x="240.0" y="334" fill="#6B7280" font-family="Segoe UI, Inter, system-ui, sans-serif" font-size="7" font-weight="600" text-anchor="middle">exec-overview-16x9-a4</text>
</svg>