<svg xmlns="http://www.w3.org/2000/svg" viewBox="0 0 480 270" font-family="Segoe UI, Inter, system-ui, sans-serif">
<title>finance-pnl-waterfall</title>
<rect x="0" y="0" width="480" height="270" fill="#FFFFFF"/>
<rect x="0" y="0" width="480" height="3" fill="#2563EB"/>
<rect x="4.62" y="4.62" width="470.77" height="18.75" rx="4" fill="#F8FAFC" stroke="#E5E7EB"/>
<rect x="4.62" y="4.62" width="4" height="18.75" rx="2" fill="#2563EB"/>
<text x="18.62" y="16.245" fill="#111827" font-family="Segoe UI, Inter, system-ui, sans-serif" font-size="10.3125" font-weight="700">Title Bar</text>
<rect x="385.39" y="9.870000000000001" width="70" height="8.4" rx="3" fill="#EFF6FF" stroke="#DBEAFE"/>
<text x="420.39" y="16.995" fill="#6B7280" font-family="Segoe UI, Inter, system-ui, sans-serif" font-size="7.125" font-weight="500" text-anchor="middle">Q4 · FY26</text>
<rect x="4.62" y="26.83" width="470.77" height="17.31" rx="3" fill="#F8FAFC" stroke="#E5E7EB"/>
<rect x="10.620000000000001" y="30.291999999999998" width="86.954" height="10.386" rx="5.193" fill="#FFFFFF" stroke="#E5E7EB"/>
<text x="18.62" y="37.354479999999995" fill="#6B7280" font-family="Segoe UI, Inter, system-ui, sans-serif" font-size="5.193" font-weight="500">Region</text>
<text x="87.574" y="37.14676" fill="#9CA3AF" font-family="Segoe UI, Inter, system-ui, sans-serif" font-size="4.6737" font-weight="500" text-anchor="end">▾</text>
<rect x="103.574" y="30.291999999999998" width="86.954" height="10.386" rx="5.193" fill="#FFFFFF" stroke="#E5E7EB"/>
<text x="111.574" y="37.354479999999995" fill="#6B7280" font-family="Segoe UI, Inter, system-ui, sans-serif" font-size="5.193" font-weight="500">Period</text>
<text x="180.528" y="37.14676" fill="#9CA3AF" font-family="Segoe UI, Inter, system-ui, sans-serif" font-size="4.6737" font-weight="500" text-anchor="end">▾</text>
<rect x="196.528" y="30.291999999999998" width="86.954" height="10.386" rx="5.193" fill="#FFFFFF" stroke="#E5E7EB"/>
<text x="204.528" y="37.354479999999995" fill="#6B7280" font-family="Segoe UI, Inter, system-ui, sans-serif" font-size="5.193" font-weight="500">Product</text>
<text x="273.48199999999997" y="37.14676" fill="#9CA3AF" font-family="Segoe UI, Inter, system-ui, sans-serif" font-size="4.6737" font-weight="500" text-anchor="end">▾</text>
<rect x="289.48199999999997" y="30.291999999999998" width="86.954" height="10.386" rx="5.193" fill="#FFFFFF" stroke="#E5E7EB"/>
<text x="297.48199999999997" y="37.354479999999995" fill="#6B7280" font-family="Segoe UI, Inter, system-ui, sans-serif" font-size="5.193" font-weight="500">Segment</text>
<text x="366.436" y="37.14676" fill="#9CA3AF" font-family="Segoe UI, Inter, system-ui, sans-serif" font-size="4.6737" font-weight="500" text-anchor="end">▾</text>
<rect x="382.436" y="30.291999999999998" width="86.954" height="10.386" rx="5.193" fill="#FFFFFF" stroke="#E5E7EB"/>
<text x="390.436" y="37.354479999999995" fill="#6B7280" font-family="Segoe UI, Inter, system-ui, sans-serif" font-size="5.193" font-weight="500">Channel</text>
<text x="459.39" y="37.14676" fill="#9CA3AF" font-family="Segoe UI, Inter, system-ui, sans-serif" font-size="4.6737" font-weight="500" text-anchor="end">▾</text>
<rect x="10.620000000000001" y="53.6" width="110.1925" height="13.379999999999999" rx="4" fill="#FFFFFF" stroke="#E5E7EB"/>
<rect x="10.620000000000001" y="53.6" width="3" height="13.379999999999999" fill="#2563EB"/>
<text x="18.62" y="58.5436" fill="#6B7280" font-family="Segoe UI, Inter, system-ui, sans-serif" font-size="2.9436" font-weight="500">Revenue</text>
<text x="18.62" y="65.22659999999999" fill="#111827" font-family="Segoe UI, Inter, system-ui, sans-serif" font-size="4.682999999999999" font-weight="700">$1.24M</text>
<rect x="126.8125" y="53.6" width="110.1925" height="13.379999999999999" rx="4" fill="#FFFFFF" stroke="#E5E7EB"/>
<rect x="126.8125" y="53.6" width="3" height="13.379999999999999" fill="#2563EB"/>
<text x="134.8125" y="58.5436" fill="#6B7280" font-family="Segoe UI, Inter, system-ui, sans-serif" font-size="2.9436" font-weight="500">Orders</text>
<text x="134.8125" y="65.22659999999999" fill="#111827" font-family="Segoe UI, Inter, system-ui, sans-serif" font-size="4.682999999999999" font-weight="700">48,912</text>
<rect x="243.005" y="53.6" width="110.1925" height="13.379999999999999" rx="4" fill="#FFFFFF" stroke="#E5E7EB"/>
<rect x="243.005" y="53.6" width="3" height="13.379999999999999" fill="#2563EB"/>
<text x="251.005" y="58.5436" fill="#6B7280" font-family="Segoe UI, Inter, system-ui, sans-serif" font-size="2.9436" font-weight="500">Margin</text>
<text x="251.005" y="65.22659999999999" fill="#111827" font-family="Segoe UI, Inter, system-ui, sans-serif" font-size="4.682999999999999" font-weight="700">38.2%</text>
<rect x="359.1975" y="53.6" width="110.1925" height="13.379999999999999" rx="4" fill="#FFFFFF" stroke="#E5E7EB"/>
<rect x="359.1975" y="53.6" width="3" height="13.379999999999999" fill="#2563EB"/>
<text x="367.1975" y="58.5436" fill="#6B7280" font-family="Segoe UI, Inter, system-ui, sans-serif" font-size="2.9436" font-weight="500">CSAT</text>
<text x="367.1975" y="65.22659999999999" fill="#111827" font-family="Segoe UI, Inter, system-ui, sans-serif" font-size="4.682999999999999" font-weight="700">4.7 / 5</text>
<rect x="4.62" y="76.44" width="470.77" height="88.27" rx="3" fill="#FFFFFF" stroke="#E5E7EB"/>
<text x="12.620000000000001" y="88.44" fill="#6B7280" font-family="Segoe UI, Inter, system-ui, sans-serif" font-size="8" font-weight="600">Hero Waterfall</text>
<rect x="20.4" y="125.8" width="49.4" height="3.0" fill="#2563EB"/>
<rect x="85.4" y="123.8" width="49.4" height="3.0" fill="#10B981"/>
<line x1="77.6" y1="125.8" x2="85.4" y2="125.8" stroke="#9CA3AF" stroke-dasharray="2 2"/>
<rect x="150.4" y="123.8" width="49.4" height="6.6" fill="#EF4444"/>
<line x1="142.6" y1="123.8" x2="150.4" y2="123.8" stroke="#9CA3AF" stroke-dasharray="2 2"/>
<rect x="215.3" y="125.5" width="49.4" height="4.8" fill="#10B981"/>
<line x1="207.5" y1="130.4" x2="215.3" y2="130.4" stroke="#9CA3AF" stroke-dasharray="2 2"/>
<rect x="280.3" y="119.7" width="49.4" height="5.9" fill="#10B981"/>
<line x1="272.5" y1="125.5" x2="280.3" y2="125.5" stroke="#9CA3AF" stroke-dasharray="2 2"/>
<rect x="345.3" y="114.3" width="49.4" height="5.4" fill="#10B981"/>
<line x1="337.5" y1="119.7" x2="345.3" y2="119.7" stroke="#9CA3AF" stroke-dasharray="2 2"/>
<rect x="410.2" y="102.8" width="49.4" height="11.5" fill="#2563EB"/>
<line x1="402.4" y1="114.3" x2="410.2" y2="114.3" stroke="#9CA3AF" stroke-dasharray="2 2"/>
<rect x="4.62" y="168.17" width="470.77" height="47.02" rx="3" fill="#FFFFFF" stroke="#E5E7EB"/>
<text x="12.620000000000001" y="180.17" fill="#6B7280" font-family="Segoe UI, Inter, system-ui, sans-serif" font-size="8" font-weight="600">Cost Breakdown</text>
<polygon points="12.6,207.19 12.6,202.5 45.1,196.9 77.6,200.0 110.1,196.5 142.6,196.3 175.0,201.6 207.5,196.3 240.0,195.4 272.5,203.4 305.0,195.4 337.5,202.2 369.9,200.1 402.4,203.0 434.9,196.8 467.4,198.0 467.4,207.19" fill="#2563EB" opacity="0.18"/>
<polyline points="12.6,202.5 45.1,196.9 77.6,200.0 110.1,196.5 142.6,196.3 175.0,201.6 207.5,196.3 240.0,195.4 272.5,203.4 305.0,195.4 337.5,202.2 369.9,200.1 402.4,203.0 434.9,196.8 467.4,198.0" fill="none" stroke="#2563EB" stroke-width="1.8"/>
<polyline points="12.6,202.7 45.1,204.8 77.6,202.4 110.1,203.1 142.6,199.8 175.0,202.8 207.5,204.8 240.0,200.8 272.5,198.4 305.0,198.8 337.5,204.3 369.9,198.7 402.4,204.6 434.9,204.3 467.4,204.4" fill="none" stroke="#F59E0B" stroke-width="1.3" stroke-dasharray="3 2"/>
<line x1="12.620000000000001" y1="207.19" x2="467.39" y2="207.19" stroke="#E5E7EB"/>
<rect x="4.62" y="218.65" width="470.77" height="46.73" rx="3" fill="#FFFFFF" stroke="#E5E7EB"/>
<text x="12.620000000000001" y="230.65" fill="#6B7280" font-family="Segoe UI, Inter, system-ui, sans-serif" font-size="8" font-weight="600">Variance Matrix</text>
<rect x="20.4" y="247.9" width="49.4" height="3.0" fill="#2563EB"/>
<rect x="85.4" y="247.9" width="49.4" height="3.0" fill="#EF4444"/>
<line x1="77.6" y1="247.9" x2="85.4" y2="247.9" stroke="#9CA3AF" stroke-dasharray="2 2"/>
<rect x="150.4" y="249.2" width="49.4" height="3.0" fill="#10B981"/>
<line x1="142.6" y1="250.2" x2="150.4" y2="250.2" stroke="#9CA3AF" stroke-dasharray="2 2"/>
<rect x="215.3" y="245.7" width="49.4" height="3.4" fill="#10B981"/>
<line x1="207.5" y1="249.2" x2="215.3" y2="249.2" stroke="#9CA3AF" stroke-dasharray="2 2"/>
<rect x="280.3" y="245.7" width="49.4" height="3.0" fill="#EF4444"/>
<line x1="272.5" y1="245.7" x2="280.3" y2="245.7" stroke="#9CA3AF" stroke-dasharray="2 2"/>
<rect x="345.3" y="246.1" width="49.4" height="3.0" fill="#10B981"/>
<line x1="337.5" y1="248.3" x2="345.3" y2="248.3" stroke="#9CA3AF" stroke-dasharray="2 2"/>
<rect x="410.2" y="246.1" width="49.4" height="3.0" fill="#2563EB"/>
<line x1="402.4" y1="246.1" x2="410.2" y2="246.1" stroke="#9CA3AF" stroke-dasharray="2 2"/>
<text x="240.0" y="265" fill="#6B7280" font-family="Segoe UI, Inter, system-ui, sans-serif" font-size="7" font-weight="600" text-anchor="middle">finance-pnl-waterfall</text>
</svg>