<svg xmlns="http://www.w3.org/2000/svg" viewBox="0 0 480 339" font-family="Segoe UI, Inter, system-ui, sans-serif">
<title>finance-pnl-waterfall-a4</title>
<rect x="0" y="0" width="480" height="339" fill="#0F172A"/>
<rect x="0" y="0" width="480" height="3" fill="#38BDF8"/>
<rect x="6.57" y="6.57" width="466.86" height="23.39" rx="4" fill="#111827" stroke="#334155"/>
<rect x="6.57" y="6.57" width="4" height="23.39" rx="2" fill="#38BDF8"/>
<text x="20.57" y="21.071800000000003" fill="#F1F5F9" font-family="Segoe UI, Inter, system-ui, sans-serif" font-size="11" font-weight="700">Print Header</text>
<rect x="383.43" y="13.119200000000001" width="70" height="10.5" rx="3" fill="#0C2A4A" stroke="#1E40AF"/>
<text x="418.43" y="22.0074" fill="#94A3B8" font-family="Segoe UI, Inter, system-ui, sans-serif" font-size="8.8882" font-weight="500" text-anchor="middle">Q4 · FY26</text>
<rect x="6.57" y="34.88" width="466.86" height="23.39" rx="4" fill="#111827" stroke="#334155"/>
<rect x="6.57" y="34.88" width="4" height="23.39" rx="2" fill="#38BDF8"/>
<text x="20.57" y="49.381800000000005" fill="#F1F5F9" font-family="Segoe UI, Inter, system-ui, sans-serif" font-size="11" font-weight="700">Title Bar</text>
<rect x="383.43" y="41.4292" width="70" height="10.5" rx="3" fill="#0C2A4A" stroke="#1E40AF"/>
<text x="418.43" y="50.317400000000006" fill="#94A3B8" font-family="Segoe UI, Inter, system-ui, sans-serif" font-size="8.8882" font-weight="500" text-anchor="middle">Q4 · FY26</text>
<rect x="6.57" y="63.2" width="466.86" height="21.75" rx="3" fill="#111827" stroke="#334155"/>
<rect x="12.57" y="67.55" width="86.172" height="13.049999999999999" rx="6.5249999999999995" fill="#1E293B" stroke="#334155"/>
<text x="20.57" y="76.42399999999999" fill="#94A3B8" font-family="Segoe UI, Inter, system-ui, sans-serif" font-size="6.5249999999999995" font-weight="500">Region</text>
<text x="88.74199999999999" y="76.163" fill="#64748B" font-family="Segoe UI, Inter, system-ui, sans-serif" font-size="5.8725" font-weight="500" text-anchor="end">▾</text>
<rect x="104.74199999999999" y="67.55" width="86.172" height="13.049999999999999" rx="6.5249999999999995" fill="#1E293B" stroke="#334155"/>
<text x="112.74199999999999" y="76.42399999999999" fill="#94A3B8" font-family="Segoe UI, Inter, system-ui, sans-serif" font-size="6.5249999999999995" font-weight="500">Period</text>
<text x="180.914" y="76.163" fill="#64748B" font-family="Segoe UI, Inter, system-ui, sans-serif" font-size="5.8725" font-weight="500" text-anchor="end">▾</text>
<rect x="196.914" y="67.55" width="86.172" height="13.049999999999999" rx="6.5249999999999995" fill="#1E293B" stroke="#334155"/>
<text x="204.914" y="76.42399999999999" fill="#94A3B8" font-family="Segoe UI, Inter, system-ui, sans-serif" font-size="6.5249999999999995" font-weight="500">Product</text>
<text x="273.086" y="76.163" fill="#64748B" font-family="Segoe UI, Inter, system-ui, sans-serif" font-size="5.8725" font-weight="500" text-anchor="end">▾</text>
<rect x="289.08599999999996" y="67.55" width="86.172" height="13.049999999999999" rx="6.5249999999999995" fill="#1E293B" stroke="#334155"/>
<text x="297.08599999999996" y="76.42399999999999" fill="#94A3B8" font-family="Segoe UI, Inter, system-ui, sans-serif" font-size="6.5249999999999995" font-weight="500">Segment</text>
<text x="365.2579999999999" y="76.163" fill="#64748B" font-family="Segoe UI, Inter, system-ui, sans-serif" font-size="5.8725" font-weight="500" text-anchor="end">▾</text>
<rect x="381.258" y="67.55" width="86.172" height="13.049999999999999" rx="6.5249999999999995" fill="#1E293B" stroke="#334155"/>
<text x="389.258" y="76.42399999999999" fill="#94A3B8" font-family="Segoe UI, Inter, system-ui, sans-serif" font-size="6.5249999999999995" font-weight="500">Channel</text>
<text x="457.42999999999995" y="76.163" fill="#64748B" font-family="Segoe UI, Inter, system-ui, sans-serif" font-size="5.8725" font-weight="500" text-anchor="end">▾</text>
<rect x="12.57" y="95.88" width="109.215" height="20.009999999999998" rx="4" fill="#1E293B" stroke="#334155"/>
<rect x="12.57" y="95.88" width="3" height="20.009999999999998" fill="#38BDF8"/>
<text x="20.57" y="102.28219999999999" fill="#94A3B8" font-family="Segoe UI, Inter, system-ui, sans-serif" font-size="4.4022" font-weight="500">Revenue</text>
<text x="20.57" y="111.28569999999999" fill="#F1F5F9" font-family="Segoe UI, Inter, system-ui, sans-serif" font-size="7.003499999999999" font-weight="700">$1.24M</text>
<rect x="127.785" y="95.88" width="109.215" height="20.009999999999998" rx="4" fill="#1E293B" stroke="#334155"/>
<rect x="127.785" y="95.88" width="3" height="20.009999999999998" fill="#38BDF8"/>
<text x="135.785" y="102.28219999999999" fill="#94A3B8" font-family="Segoe UI, Inter, system-ui, sans-serif" font-size="4.4022" font-weight="500">Orders</text>
<text x="135.785" y="111.28569999999999" fill="#F1F5F9" font-family="Segoe UI, Inter, system-ui, sans-serif" font-size="7.003499999999999" font-weight="700">48,912</text>
<rect x="243.0" y="95.88" width="109.215" height="20.009999999999998" rx="4" fill="#1E293B" stroke="#334155"/>
<rect x="243.0" y="95.88" width="3" height="20.009999999999998" fill="#38BDF8"/>
<text x="251.0" y="102.28219999999999" fill="#94A3B8" font-family="Segoe UI, Inter, system-ui, sans-serif" font-size="4.4022" font-weight="500">Margin</text>
<text x="251.0" y="111.28569999999999" fill="#F1F5F9" font-family="Segoe UI, Inter, system-ui, sans-serif" font-size="7.003499999999999" font-weight="700">38.2%</text>
<rect x="358.215" y="95.88" width="109.215" height="20.009999999999998" rx="4" fill="#1E293B" stroke="#334155"/>
<rect x="358.215" y="95.88" width="3" height="20.009999999999998" fill="#38BDF8"/>
<text x="366.215" y="102.28219999999999" fill="#94A3B8" font-family="Segoe UI, Inter, system-ui, sans-serif" font-size="4.4022" font-weight="500">CSAT</text>
<text x="366.215" y="111.28569999999999" fill="#F1F5F9" font-family="Segoe UI, Inter, system-ui, sans-serif" font-size="7.003499999999999" font-weight="700">4.7 / 5</text>
<rect x="6.57" y="126.82" width="466.86" height="79.21" rx="3" fill="#1E293B" stroke="#334155"/>
<text x="14.57" y="138.82" fill="#94A3B8" font-family="Segoe UI, Inter, system-ui, sans-serif" font-size="8" font-weight="600">Hero Waterfall</text>
<rect x="22.3" y="171.8" width="49.0" height="3.0" fill="#38BDF8"/>
<rect x="86.7" y="170.0" width="49.0" height="3.0" fill="#34D399"/>
<line x1="79.0" y1="171.8" x2="86.7" y2="171.8" stroke="#64748B" stroke-dasharray="2 2"/>
<rect x="151.1" y="170.0" width="49.0" height="5.6" fill="#F87171"/>
<line x1="143.4" y1="170.0" x2="151.1" y2="170.0" stroke="#64748B" stroke-dasharray="2 2"/>
<rect x="215.5" y="171.5" width="49.0" height="4.1" fill="#34D399"/>
<line x1="207.8" y1="175.7" x2="215.5" y2="175.7" stroke="#64748B" stroke-dasharray="2 2"/>
<rect x="279.9" y="166.6" width="49.0" height="5.0" fill="#34D399"/>
<line x1="272.2" y1="171.5" x2="279.9" y2="171.5" stroke="#64748B" stroke-dasharray="2 2"/>
<rect x="344.3" y="162.0" width="49.0" height="4.6" fill="#34D399"/>
<line x1="336.6" y1="166.6" x2="344.3" y2="166.6" stroke="#64748B" stroke-dasharray="2 2"/>
<rect x="408.8" y="152.3" width="49.0" height="9.7" fill="#38BDF8"/>
<line x1="401.0" y1="162.0" x2="408.8" y2="162.0" stroke="#64748B" stroke-dasharray="2 2"/>
<rect x="6.57" y="210.95" width="466.86" height="41.86" rx="3" fill="#1E293B" stroke="#334155"/>
<text x="14.57" y="222.95" fill="#94A3B8" font-family="Segoe UI, Inter, system-ui, sans-serif" font-size="8" font-weight="600">Cost Breakdown</text>
<polygon points="14.6,244.81 14.6,241.8 46.8,238.1 79.0,240.1 111.2,237.8 143.4,237.7 175.6,241.1 207.8,237.7 240.0,237.1 272.2,242.3 304.4,237.1 336.6,241.6 368.8,240.1 401.0,242.0 433.2,238.0 465.4,238.8 465.4,244.81" fill="#38BDF8" opacity="0.18"/>
<polyline points="14.6,241.8 46.8,238.1 79.0,240.1 111.2,237.8 143.4,237.7 175.6,241.1 207.8,237.7 240.0,237.1 272.2,242.3 304.4,237.1 336.6,241.6 368.8,240.1 401.0,242.0 433.2,238.0 465.4,238.8" fill="none" stroke="#38BDF8" stroke-width="1.8"/>
<polyline points="14.6,241.9 46.8,243.3 79.0,241.7 111.2,242.1 143.4,240.0 175.6,241.9 207.8,243.2 240.0,240.6 272.2,239.1 304.4,239.3 336.6,242.9 368.8,239.2 401.0,243.1 433.2,242.9 465.4,243.0" fill="none" stroke="#FBBF24" stroke-width="1.3" stroke-dasharray="3 2"/>
<line x1="14.57" y1="244.81" x2="465.43" y2="244.81" stroke="#334155"/>
<rect x="6.57" y="257.74" width="466.86" height="41.86" rx="3" fill="#1E293B" stroke="#334155"/>
<text x="14.57" y="269.74" fill="#94A3B8" font-family="Segoe UI, Inter, system-ui, sans-serif" font-size="8" font-weight="600">Variance Matrix</text>
<rect x="22.3" y="284.6" width="49.0" height="3.0" fill="#38BDF8"/>
<rect x="86.7" y="284.6" width="49.0" height="3.0" fill="#F87171"/>
<line x1="79.0" y1="284.6" x2="86.7" y2="284.6" stroke="#64748B" stroke-dasharray="2 2"/>
<rect x="151.1" y="285.5" width="49.0" height="3.0" fill="#34D399"/>
<line x1="143.4" y1="286.3" x2="151.1" y2="286.3" stroke="#64748B" stroke-dasharray="2 2"/>
<rect x="215.5" y="283.0" width="49.0" height="3.0" fill="#34D399"/>
<line x1="207.8" y1="285.5" x2="215.5" y2="285.5" stroke="#64748B" stroke-dasharray="2 2"/>
<rect x="279.9" y="283.0" width="49.0" height="3.0" fill="#F87171"/>
<line x1="272.2" y1="283.0" x2="279.9" y2="283.0" stroke="#64748B" stroke-dasharray="2 2"/>
<rect x="344.3" y="283.2" width="49.0" height="3.0" fill="#34D399"/>
<line x1="336.6" y1="284.9" x2="344.3" y2="284.9" stroke="#64748B" stroke-dasharray="2 2"/>
<rect x="408.8" y="283.2" width="49.0" height="3.0" fill="#38BDF8"/>
<line x1="401.0" y1="283.2" x2="408.8" y2="283.2" stroke="#64748B" stroke-dasharray="2 2"/>
<rect x="6.57" y="304.53" width="466.86" height="11.49" rx="2" fill="#111827" stroke="#334155"/>
<text x="16.57" y="311.9985" fill="#94A3B8" font-family="Segoe UI, Inter, system-ui, sans-serif" font-size="6.319500000000001" font-weight="400">Source: Data warehouse · Last refresh 08:15</text>
<text x="413.43" y="311.9985" fill="#94A3B8" font-family="Segoe UI, Inter, system-ui, sans-serif" font-size="6.319500000000001" font-weight="500" text-anchor="start">Confidential</text>
<rect x="453.43" y="307.4025" width="14" height="5.7" rx="2" fill="#38BDF8" opacity="0.15"/>
<text x="460.43" y="312.573" fill="#38BDF8" font-family="Segoe UI, Inter, system-ui, sans-serif" font-size="5.745" font-weight="700" text-anchor="middle">1</text>
<rect x="6.57" y="320.94" width="466.86" height="11.49" rx="2" fill="#111827" stroke="#334155"/>
<text x="16.57" y="328.4085" fill="#94A3B8" font-family="Segoe UI, Inter, system-ui, sans-serif" font-size="6.319500000000001" font-weight="400">Source: Data warehouse · Last refresh 08:15</text>
<text x="413.43" y="328.4085" fill="#94A3B8" font-family="Segoe UI, Inter, system-ui, sans-serif" font-size="6.319500000000001" font-weight="500" text-anchor="start">Confidential</text>
<rect x="453.43" y="323.8125" width="14" height="5.7" rx="2" fill="#38BDF8" opacity="0.15"/>
<text x="460.43" y="328.983" fill="#38BDF8" font-family="Segoe UI, Inter, system-ui, sans-serif" font-size="5.745" font-weight="700" text-anchor="middle">1</text>
<text x="240.0" y="334" fill="#94A3B8" font-family="Segoe UI, Inter, system-ui, sans-serif" font-size="7" font-weight="600" text-anchor="middle">finance-pnl-waterfall-a4</text>
</svg>