<svg xmlns="http://www.w3.org/2000/svg" viewBox="0 0 480 270" font-family="Segoe UI, Inter, system-ui, sans-serif">
<title>geo-territory-map</title>
<rect x="0" y="0" width="480" height="270" fill="#FFFFFF"/>
<rect x="0" y="0" width="480" height="3" fill="#2563EB"/>
<rect x="4.62" y="4.62" width="470.77" height="18.75" rx="4" fill="#F8FAFC" stroke="#E5E7EB"/>
<rect x="4.62" y="4.62" width="4" height="18.75" rx="2" fill="#2563EB"/>
<text x="18.62" y="16.245" fill="#111827" font-family="Segoe UI, Inter, system-ui, sans-serif" font-size="10.3125" font-weight="700">Title Bar</text>
<rect x="385.39" y="9.870000000000001" width="70" height="8.4" rx="3" fill="#EFF6FF" stroke="#DBEAFE"/>
<text x="420.39" y="16.995" fill="#6B7280" font-family="Segoe UI, Inter, system-ui, sans-serif" font-size="7.125" font-weight="500" text-anchor="middle">Q4 · FY26</text>
<rect x="4.62" y="26.83" width="470.77" height="38.65" rx="3" fill="#F8FAFC" stroke="#E5E7EB"/>
<rect x="10.620000000000001" y="34.56" width="86.954" height="23.189999999999998" rx="11.594999999999999" fill="#FFFFFF" stroke="#E5E7EB"/>
<text x="18.62" y="50.3292" fill="#6B7280" font-family="Segoe UI, Inter, system-ui, sans-serif" font-size="8" font-weight="500">Region</text>
<text x="87.574" y="49.8654" fill="#9CA3AF" font-family="Segoe UI, Inter, system-ui, sans-serif" font-size="7" font-weight="500" text-anchor="end">▾</text>
<rect x="103.574" y="34.56" width="86.954" height="23.189999999999998" rx="11.594999999999999" fill="#FFFFFF" stroke="#E5E7EB"/>
<text x="111.574" y="50.3292" fill="#6B7280" font-family="Segoe UI, Inter, system-ui, sans-serif" font-size="8" font-weight="500">Period</text>
<text x="180.528" y="49.8654" fill="#9CA3AF" font-family="Segoe UI, Inter, system-ui, sans-serif" font-size="7" font-weight="500" text-anchor="end">▾</text>
<rect x="196.528" y="34.56" width="86.954" height="23.189999999999998" rx="11.594999999999999" fill="#FFFFFF" stroke="#E5E7EB"/>
<text x="204.528" y="50.3292" fill="#6B7280" font-family="Segoe UI, Inter, system-ui, sans-serif" font-size="8" font-weight="500">Product</text>
<text x="273.48199999999997" y="49.8654" fill="#9CA3AF" font-family="Segoe UI, Inter, system-ui, sans-serif" font-size="7" font-weight="500" text-anchor="end">▾</text>
<rect x="289.48199999999997" y="34.56" width="86.954" height="23.189999999999998" rx="11.594999999999999" fill="#FFFFFF" stroke="#E5E7EB"/>
<text x="297.48199999999997" y="50.3292" fill="#6B7280" font-family="Segoe UI, Inter, system-ui, sans-serif" font-size="8" font-weight="500">Segment</text>
<text x="366.436" y="49.8654" fill="#9CA3AF" font-family="Segoe UI, Inter, system-ui, sans-serif" font-size="7" font-weight="500" text-anchor="end">▾</text>
<rect x="382.436" y="34.56" width="86.954" height="23.189999999999998" rx="11.594999999999999" fill="#FFFFFF" stroke="#E5E7EB"/>
<text x="390.436" y="50.3292" fill="#6B7280" font-family="Segoe UI, Inter, system-ui, sans-serif" font-size="8" font-weight="500">Channel</text>
<text x="459.39" y="49.8654" fill="#9CA3AF" font-family="Segoe UI, Inter, system-ui, sans-serif" font-size="7" font-weight="500" text-anchor="end">▾</text>
<rect x="4.62" y="68.94" width="470.77" height="68.65" rx="3" fill="#FFFFFF" stroke="#E5E7EB"/>
<text x="12.620000000000001" y="80.94" fill="#6B7280" font-family="Segoe UI, Inter, system-ui, sans-serif" font-size="8" font-weight="600">Map Hero</text>
<polygon points="12.6,129.59 12.6,101.1 45.1,115.9 77.6,104.6 110.1,105.2 142.6,104.7 175.0,118.9 207.5,116.4 240.0,119.3 272.5,115.4 305.0,108.9 337.5,113.5 369.9,101.1 402.4,102.0 434.9,117.9 467.4,105.5 467.4,129.59" fill="#2563EB" opacity="0.18"/>
<polyline points="12.6,101.1 45.1,115.9 77.6,104.6 110.1,105.2 142.6,104.7 175.0,118.9 207.5,116.4 240.0,119.3 272.5,115.4 305.0,108.9 337.5,113.5 369.9,101.1 402.4,102.0 434.9,117.9 467.4,105.5" fill="none" stroke="#2563EB" stroke-width="1.8"/>
<polyline points="12.6,109.1 45.1,112.1 77.6,114.0 110.1,113.8 142.6,111.2 175.0,114.1 207.5,115.5 240.0,110.5 272.5,116.7 305.0,108.5 337.5,115.7 369.9,108.8 402.4,117.4 434.9,116.5 467.4,121.1" fill="none" stroke="#F59E0B" stroke-width="1.3" stroke-dasharray="3 2"/>
<line x1="12.620000000000001" y1="129.59" x2="467.39" y2="129.59" stroke="#E5E7EB"/>
<rect x="4.62" y="141.06" width="470.77" height="36.35" rx="3" fill="#FFFFFF" stroke="#E5E7EB"/>
<text x="12.620000000000001" y="153.06" fill="#6B7280" font-family="Segoe UI, Inter, system-ui, sans-serif" font-size="8" font-weight="600">Ranked Bar Side</text>
<rect x="21.1" y="164.5" width="39.8" height="4.9" rx="1" fill="#2563EB"/>
<rect x="78.0" y="166.6" width="39.8" height="2.8" rx="1" fill="#60A5FA"/>
<rect x="134.8" y="166.9" width="39.8" height="2.5" rx="1" fill="#2563EB"/>
<rect x="191.7" y="166.5" width="39.8" height="2.9" rx="1" fill="#60A5FA"/>
<rect x="248.5" y="164.2" width="39.8" height="5.2" rx="1" fill="#2563EB"/>
<rect x="305.4" y="166.8" width="39.8" height="2.6" rx="1" fill="#60A5FA"/>
<rect x="362.2" y="165.0" width="39.8" height="4.4" rx="1" fill="#2563EB"/>
<rect x="419.1" y="164.0" width="39.8" height="5.4" rx="1" fill="#60A5FA"/>
<line x1="12.620000000000001" y1="169.41" x2="467.39" y2="169.41" stroke="#E5E7EB"/>
<rect x="8.620000000000001" y="185.87" width="462.77" height="3.793333333333333" rx="3" fill="#FFFFFF" stroke="#E5E7EB"/>
<rect x="8.620000000000001" y="185.87" width="3" height="3.793333333333333" fill="#2563EB"/>
<text x="16.62" y="186.89766666666668" fill="#6B7280" font-family="Segoe UI, Inter, system-ui, sans-serif" font-size="1.2745333333333333" font-weight="500">Revenue</text>
<text x="16.62" y="189.0412" fill="#111827" font-family="Segoe UI, Inter, system-ui, sans-serif" font-size="2.3173333333333335" font-weight="700">$1.24M</text>
<rect x="8.620000000000001" y="191.66333333333333" width="462.77" height="3.793333333333333" rx="3" fill="#FFFFFF" stroke="#E5E7EB"/>
<rect x="8.620000000000001" y="191.66333333333333" width="3" height="3.793333333333333" fill="#2563EB"/>
<text x="16.62" y="192.691" fill="#6B7280" font-family="Segoe UI, Inter, system-ui, sans-serif" font-size="1.2745333333333333" font-weight="500">Margin</text>
<text x="16.62" y="194.83453333333333" fill="#111827" font-family="Segoe UI, Inter, system-ui, sans-serif" font-size="2.3173333333333335" font-weight="700">38.2%</text>
<rect x="8.620000000000001" y="197.45666666666668" width="462.77" height="3.793333333333333" rx="3" fill="#FFFFFF" stroke="#E5E7EB"/>
<rect x="8.620000000000001" y="197.45666666666668" width="3" height="3.793333333333333" fill="#2563EB"/>
<text x="16.62" y="198.48433333333335" fill="#6B7280" font-family="Segoe UI, Inter, system-ui, sans-serif" font-size="1.2745333333333333" font-weight="500">CSAT</text>
<text x="16.62" y="200.62786666666668" fill="#111827" font-family="Segoe UI, Inter, system-ui, sans-serif" font-size="2.3173333333333335" font-weight="700">4.7</text>
<rect x="4.62" y="209.71" width="470.77" height="55.67" rx="3" fill="#FFFFFF" stroke="#E5E7EB"/>
<rect x="4.62" y="209.71" width="470.77" height="14" fill="#EFF6FF"/>
<text x="12.620000000000001" y="219.71" fill="#111827" font-family="Segoe UI, Inter, system-ui, sans-serif" font-size="7.5" font-weight="700">Item</text>
<text x="103.574" y="219.71" fill="#111827" font-family="Segoe UI, Inter, system-ui, sans-serif" font-size="7.5" font-weight="700">Value</text>
<text x="194.528" y="219.71" fill="#111827" font-family="Segoe UI, Inter, system-ui, sans-serif" font-size="7.5" font-weight="700">Δ%</text>
<text x="285.48199999999997" y="219.71" fill="#111827" font-family="Segoe UI, Inter, system-ui, sans-serif" font-size="7.5" font-weight="700">Status</text>
<text x="376.436" y="219.71" fill="#111827" font-family="Segoe UI, Inter, system-ui, sans-serif" font-size="7.5" font-weight="700">Trend</text>
<line x1="4.62" y1="223.71" x2="475.39" y2="223.71" stroke="#E5E7EB"/>
<rect x="12.620000000000001" y="226.71" width="63.7" height="4" fill="#6B7280" rx="1" opacity="0.5"/>
<rect x="103.574" y="226.71" width="45.5" height="4" fill="#111827" rx="1" opacity="0.7"/>
<rect x="194.528" y="226.71" width="45.5" height="4" fill="#111827" rx="1" opacity="0.7"/>
<circle cx="291.48199999999997" cy="228.71" r="2.5" fill="#10B981"/>
<polyline points="378.4,227.2 380.4,229.7 382.4,229.1 384.4,228.7 386.4,227.2" fill="none" stroke="#2563EB" stroke-width="1"/>
<rect x="4.62" y="233.71" width="470.77" height="10" fill="#F3F4F6"/>
<rect x="12.620000000000001" y="236.71" width="63.7" height="4" fill="#6B7280" rx="1" opacity="0.5"/>
<rect x="103.574" y="236.71" width="45.5" height="4" fill="#111827" rx="1" opacity="0.7"/>
<rect x="194.528" y="236.71" width="45.5" height="4" fill="#111827" rx="1" opacity="0.7"/>
<circle cx="291.48199999999997" cy="238.71" r="2.5" fill="#F59E0B"/>
<polyline points="378.4,236.8 380.4,239.1 382.4,239.8 384.4,236.8 386.4,239.8" fill="none" stroke="#2563EB" stroke-width="1"/>
<rect x="12.620000000000001" y="246.71" width="63.7" height="4" fill="#6B7280" rx="1" opacity="0.5"/>
<rect x="103.574" y="246.71" width="45.5" height="4" fill="#111827" rx="1" opacity="0.7"/>
<rect x="194.528" y="246.71" width="45.5" height="4" fill="#111827" rx="1" opacity="0.7"/>
<circle cx="291.48199999999997" cy="248.71" r="2.5" fill="#EF4444"/>
<polyline points="378.4,246.9 380.4,250.7 382.4,250.0 384.4,250.7 386.4,247.7" fill="none" stroke="#2563EB" stroke-width="1"/>
<circle cx="465.39" cy="14.620000000000001" r="8" fill="#2563EB" stroke="#FFFFFF" stroke-width="1.5"/>
<text x="465.39" y="17.62" fill="#FFFFFF" font-family="Segoe UI, Inter, system-ui, sans-serif" font-size="8" font-weight="700" text-anchor="middle">1</text>
<circle cx="465.39" cy="36.83" r="8" fill="#2563EB" stroke="#FFFFFF" stroke-width="1.5"/>
<text x="465.39" y="39.83" fill="#FFFFFF" font-family="Segoe UI, Inter, system-ui, sans-serif" font-size="8" font-weight="700" text-anchor="middle">2</text>
<circle cx="465.39" cy="78.94" r="8" fill="#2563EB" stroke="#FFFFFF" stroke-width="1.5"/>
<text x="465.39" y="81.94" fill="#FFFFFF" font-family="Segoe UI, Inter, system-ui, sans-serif" font-size="8" font-weight="700" text-anchor="middle">3</text>
<circle cx="465.39" cy="151.06" r="8" fill="#2563EB" stroke="#FFFFFF" stroke-width="1.5"/>
<text x="465.39" y="154.06" fill="#FFFFFF" font-family="Segoe UI, Inter, system-ui, sans-serif" font-size="8" font-weight="700" text-anchor="middle">4</text>
<circle cx="465.39" cy="190.87" r="8" fill="#2563EB" stroke="#FFFFFF" stroke-width="1.5"/>
<text x="465.39" y="193.87" fill="#FFFFFF" font-family="Segoe UI, Inter, system-ui, sans-serif" font-size="8" font-weight="700" text-anchor="middle">5</text>
<circle cx="465.39" cy="219.71" r="8" fill="#2563EB" stroke="#FFFFFF" stroke-width="1.5"/>
<text x="465.39" y="222.71" fill="#FFFFFF" font-family="Segoe UI, Inter, system-ui, sans-serif" font-size="8" font-weight="700" text-anchor="middle">6</text>
<text x="240.0" y="265" fill="#6B7280" font-family="Segoe UI, Inter, system-ui, sans-serif" font-size="7" font-weight="600" text-anchor="middle">geo-territory-map</text>
</svg>