<svg xmlns="http://www.w3.org/2000/svg" viewBox="0 0 480 339" font-family="Segoe UI, Inter, system-ui, sans-serif">
<title>hc-clinical-quality-a4</title>
<rect x="0" y="0" width="480" height="339" fill="#FFFFFF"/>
<rect x="0" y="0" width="480" height="3" fill="#2563EB"/>
<rect x="6.57" y="6.57" width="466.86" height="23.39" rx="4" fill="#F8FAFC" stroke="#E5E7EB"/>
<rect x="6.57" y="6.57" width="4" height="23.39" rx="2" fill="#2563EB"/>
<text x="20.57" y="21.071800000000003" fill="#111827" font-family="Segoe UI, Inter, system-ui, sans-serif" font-size="11" font-weight="700">Print Header</text>
<rect x="383.43" y="13.119200000000001" width="70" height="10.5" rx="3" fill="#EFF6FF" stroke="#DBEAFE"/>
<text x="418.43" y="22.0074" fill="#6B7280" font-family="Segoe UI, Inter, system-ui, sans-serif" font-size="8.8882" font-weight="500" text-anchor="middle">Q4 · FY26</text>
<rect x="6.57" y="34.88" width="466.86" height="23.39" rx="4" fill="#F8FAFC" stroke="#E5E7EB"/>
<rect x="6.57" y="34.88" width="4" height="23.39" rx="2" fill="#2563EB"/>
<text x="20.57" y="49.381800000000005" fill="#111827" font-family="Segoe UI, Inter, system-ui, sans-serif" font-size="11" font-weight="700">Title Bar</text>
<rect x="383.43" y="41.4292" width="70" height="10.5" rx="3" fill="#EFF6FF" stroke="#DBEAFE"/>
<text x="418.43" y="50.317400000000006" fill="#6B7280" font-family="Segoe UI, Inter, system-ui, sans-serif" font-size="8.8882" font-weight="500" text-anchor="middle">Q4 · FY26</text>
<rect x="6.57" y="63.2" width="466.86" height="21.75" rx="3" fill="#F8FAFC" stroke="#E5E7EB"/>
<rect x="12.57" y="67.55" width="86.172" height="13.049999999999999" rx="6.5249999999999995" fill="#FFFFFF" stroke="#E5E7EB"/>
<text x="20.57" y="76.42399999999999" fill="#6B7280" font-family="Segoe UI, Inter, system-ui, sans-serif" font-size="6.5249999999999995" font-weight="500">Region</text>
<text x="88.74199999999999" y="76.163" fill="#9CA3AF" font-family="Segoe UI, Inter, system-ui, sans-serif" font-size="5.8725" font-weight="500" text-anchor="end">▾</text>
<rect x="104.74199999999999" y="67.55" width="86.172" height="13.049999999999999" rx="6.5249999999999995" fill="#FFFFFF" stroke="#E5E7EB"/>
<text x="112.74199999999999" y="76.42399999999999" fill="#6B7280" font-family="Segoe UI, Inter, system-ui, sans-serif" font-size="6.5249999999999995" font-weight="500">Period</text>
<text x="180.914" y="76.163" fill="#9CA3AF" font-family="Segoe UI, Inter, system-ui, sans-serif" font-size="5.8725" font-weight="500" text-anchor="end">▾</text>
<rect x="196.914" y="67.55" width="86.172" height="13.049999999999999" rx="6.5249999999999995" fill="#FFFFFF" stroke="#E5E7EB"/>
<text x="204.914" y="76.42399999999999" fill="#6B7280" font-family="Segoe UI, Inter, system-ui, sans-serif" font-size="6.5249999999999995" font-weight="500">Product</text>
<text x="273.086" y="76.163" fill="#9CA3AF" font-family="Segoe UI, Inter, system-ui, sans-serif" font-size="5.8725" font-weight="500" text-anchor="end">▾</text>
<rect x="289.08599999999996" y="67.55" width="86.172" height="13.049999999999999" rx="6.5249999999999995" fill="#FFFFFF" stroke="#E5E7EB"/>
<text x="297.08599999999996" y="76.42399999999999" fill="#6B7280" font-family="Segoe UI, Inter, system-ui, sans-serif" font-size="6.5249999999999995" font-weight="500">Segment</text>
<text x="365.2579999999999" y="76.163" fill="#9CA3AF" font-family="Segoe UI, Inter, system-ui, sans-serif" font-size="5.8725" font-weight="500" text-anchor="end">▾</text>
<rect x="381.258" y="67.55" width="86.172" height="13.049999999999999" rx="6.5249999999999995" fill="#FFFFFF" stroke="#E5E7EB"/>
<text x="389.258" y="76.42399999999999" fill="#6B7280" font-family="Segoe UI, Inter, system-ui, sans-serif" font-size="6.5249999999999995" font-weight="500">Channel</text>
<text x="457.42999999999995" y="76.163" fill="#9CA3AF" font-family="Segoe UI, Inter, system-ui, sans-serif" font-size="5.8725" font-weight="500" text-anchor="end">▾</text>
<rect x="6.57" y="89.88" width="266.89" height="130.92" rx="3" fill="#FFFFFF" stroke="#E5E7EB"/>
<text x="14.57" y="101.88" fill="#6B7280" font-family="Segoe UI, Inter, system-ui, sans-serif" font-size="8" font-weight="600">Quality Scorecard</text>
<polygon points="14.6,212.79999999999998 14.6,180.1 32.5,138.0 50.4,181.1 68.3,182.6 86.3,134.3 104.2,145.2 122.1,174.8 140.0,166.0 157.9,168.1 175.9,133.4 193.8,183.4 211.7,177.4 229.6,154.7 247.5,134.0 265.5,164.2 265.5,212.79999999999998" fill="#2563EB" opacity="0.18"/>
<polyline points="14.6,180.1 32.5,138.0 50.4,181.1 68.3,182.6 86.3,134.3 104.2,145.2 122.1,174.8 140.0,166.0 157.9,168.1 175.9,133.4 193.8,183.4 211.7,177.4 229.6,154.7 247.5,134.0 265.5,164.2" fill="none" stroke="#2563EB" stroke-width="1.8"/>
<polyline points="14.6,190.8 32.5,191.8 50.4,165.4 68.3,183.6 86.3,184.7 104.2,186.1 122.1,181.3 140.0,188.8 157.9,158.6 175.9,164.3 193.8,195.9 211.7,176.7 229.6,186.4 247.5,188.4 265.5,164.7" fill="none" stroke="#F59E0B" stroke-width="1.3" stroke-dasharray="3 2"/>
<line x1="14.57" y1="212.79999999999998" x2="265.46" y2="212.79999999999998" stroke="#E5E7EB"/>
<rect x="280.03" y="89.88" width="193.4" height="130.92" rx="3" fill="#FFFFFF" stroke="#E5E7EB"/>
<text x="288.03" y="101.88" fill="#6B7280" font-family="Segoe UI, Inter, system-ui, sans-serif" font-size="8" font-weight="600">Benchmark Panel</text>
<polygon points="288.0,212.79999999999998 288.0,179.7 300.7,152.0 313.4,160.7 326.0,146.6 338.7,149.3 351.4,166.8 364.1,143.3 376.7,183.8 389.4,167.8 402.1,137.5 414.7,176.9 427.4,171.6 440.1,152.1 452.8,173.1 465.4,177.4 465.4,212.79999999999998" fill="#2563EB" opacity="0.18"/>
<polyline points="288.0,179.7 300.7,152.0 313.4,160.7 326.0,146.6 338.7,149.3 351.4,166.8 364.1,143.3 376.7,183.8 389.4,167.8 402.1,137.5 414.7,176.9 427.4,171.6 440.1,152.1 452.8,173.1 465.4,177.4" fill="none" stroke="#2563EB" stroke-width="1.8"/>
<polyline points="288.0,169.3 300.7,159.3 313.4,176.7 326.0,180.1 338.7,189.1 351.4,187.3 364.1,179.1 376.7,163.4 389.4,156.0 402.1,187.9 414.7,196.0 427.4,157.9 440.1,193.5 452.8,157.2 465.4,165.6" fill="none" stroke="#F59E0B" stroke-width="1.3" stroke-dasharray="3 2"/>
<line x1="288.03" y1="212.79999999999998" x2="465.42999999999995" y2="212.79999999999998" stroke="#E5E7EB"/>
<rect x="6.57" y="225.73" width="466.86" height="73.87" rx="3" fill="#FFFFFF" stroke="#E5E7EB"/>
<text x="14.57" y="237.73" fill="#6B7280" font-family="Segoe UI, Inter, system-ui, sans-serif" font-size="8" font-weight="600">Measure Detail Panel</text>
<polygon points="14.6,291.6 14.6,266.1 46.8,274.9 79.0,278.8 111.2,272.1 143.4,265.3 175.6,274.1 207.8,274.5 240.0,271.0 272.2,267.5 304.4,259.2 336.6,276.3 368.8,276.4 401.0,280.1 433.2,275.8 465.4,277.2 465.4,291.6" fill="#2563EB" opacity="0.18"/>
<polyline points="14.6,266.1 46.8,274.9 79.0,278.8 111.2,272.1 143.4,265.3 175.6,274.1 207.8,274.5 240.0,271.0 272.2,267.5 304.4,259.2 336.6,276.3 368.8,276.4 401.0,280.1 433.2,275.8 465.4,277.2" fill="none" stroke="#2563EB" stroke-width="1.8"/>
<polyline points="14.6,280.5 46.8,282.0 79.0,268.2 111.2,270.7 143.4,268.8 175.6,274.0 207.8,269.1 240.0,283.3 272.2,284.6 304.4,272.2 336.6,273.2 368.8,279.5 401.0,282.7 433.2,269.6 465.4,276.6" fill="none" stroke="#F59E0B" stroke-width="1.3" stroke-dasharray="3 2"/>
<line x1="14.57" y1="291.6" x2="465.43" y2="291.6" stroke="#E5E7EB"/>
<rect x="6.57" y="304.53" width="466.86" height="11.49" rx="2" fill="#F8FAFC" stroke="#E5E7EB"/>
<text x="16.57" y="311.9985" fill="#6B7280" font-family="Segoe UI, Inter, system-ui, sans-serif" font-size="6.319500000000001" font-weight="400">Source: Data warehouse · Last refresh 08:15</text>
<text x="413.43" y="311.9985" fill="#6B7280" font-family="Segoe UI, Inter, system-ui, sans-serif" font-size="6.319500000000001" font-weight="500" text-anchor="start">Confidential</text>
<rect x="453.43" y="307.4025" width="14" height="5.7" rx="2" fill="#2563EB" opacity="0.15"/>
<text x="460.43" y="312.573" fill="#2563EB" font-family="Segoe UI, Inter, system-ui, sans-serif" font-size="5.745" font-weight="700" text-anchor="middle">1</text>
<rect x="6.57" y="320.94" width="466.86" height="11.49" rx="2" fill="#F8FAFC" stroke="#E5E7EB"/>
<text x="16.57" y="328.4085" fill="#6B7280" font-family="Segoe UI, Inter, system-ui, sans-serif" font-size="6.319500000000001" font-weight="400">Source: Data warehouse · Last refresh 08:15</text>
<text x="413.43" y="328.4085" fill="#6B7280" font-family="Segoe UI, Inter, system-ui, sans-serif" font-size="6.319500000000001" font-weight="500" text-anchor="start">Confidential</text>
<rect x="453.43" y="323.8125" width="14" height="5.7" rx="2" fill="#2563EB" opacity="0.15"/>
<text x="460.43" y="328.983" fill="#2563EB" font-family="Segoe UI, Inter, system-ui, sans-serif" font-size="5.745" font-weight="700" text-anchor="middle">1</text>
<text x="240.0" y="334" fill="#6B7280" font-family="Segoe UI, Inter, system-ui, sans-serif" font-size="7" font-weight="600" text-anchor="middle">hc-clinical-quality-a4</text>
</svg>