<svg xmlns="http://www.w3.org/2000/svg" viewBox="0 0 480 270" font-family="Segoe UI, Inter, system-ui, sans-serif">
<title>hc-clinical-quality</title>
<rect x="0" y="0" width="480" height="270" fill="#FFFFFF"/>
<rect x="0" y="0" width="480" height="3" fill="#2563EB"/>
<rect x="4.62" y="4.62" width="470.77" height="18.75" rx="4" fill="#F8FAFC" stroke="#E5E7EB"/>
<rect x="4.62" y="4.62" width="4" height="18.75" rx="2" fill="#2563EB"/>
<text x="18.62" y="16.245" fill="#111827" font-family="Segoe UI, Inter, system-ui, sans-serif" font-size="10.3125" font-weight="700">Title Bar</text>
<rect x="385.39" y="9.870000000000001" width="70" height="8.4" rx="3" fill="#EFF6FF" stroke="#DBEAFE"/>
<text x="420.39" y="16.995" fill="#6B7280" font-family="Segoe UI, Inter, system-ui, sans-serif" font-size="7.125" font-weight="500" text-anchor="middle">Q4 · FY26</text>
<rect x="4.62" y="26.83" width="470.77" height="17.31" rx="3" fill="#F8FAFC" stroke="#E5E7EB"/>
<rect x="10.620000000000001" y="30.291999999999998" width="86.954" height="10.386" rx="5.193" fill="#FFFFFF" stroke="#E5E7EB"/>
<text x="18.62" y="37.354479999999995" fill="#6B7280" font-family="Segoe UI, Inter, system-ui, sans-serif" font-size="5.193" font-weight="500">Region</text>
<text x="87.574" y="37.14676" fill="#9CA3AF" font-family="Segoe UI, Inter, system-ui, sans-serif" font-size="4.6737" font-weight="500" text-anchor="end">▾</text>
<rect x="103.574" y="30.291999999999998" width="86.954" height="10.386" rx="5.193" fill="#FFFFFF" stroke="#E5E7EB"/>
<text x="111.574" y="37.354479999999995" fill="#6B7280" font-family="Segoe UI, Inter, system-ui, sans-serif" font-size="5.193" font-weight="500">Period</text>
<text x="180.528" y="37.14676" fill="#9CA3AF" font-family="Segoe UI, Inter, system-ui, sans-serif" font-size="4.6737" font-weight="500" text-anchor="end">▾</text>
<rect x="196.528" y="30.291999999999998" width="86.954" height="10.386" rx="5.193" fill="#FFFFFF" stroke="#E5E7EB"/>
<text x="204.528" y="37.354479999999995" fill="#6B7280" font-family="Segoe UI, Inter, system-ui, sans-serif" font-size="5.193" font-weight="500">Product</text>
<text x="273.48199999999997" y="37.14676" fill="#9CA3AF" font-family="Segoe UI, Inter, system-ui, sans-serif" font-size="4.6737" font-weight="500" text-anchor="end">▾</text>
<rect x="289.48199999999997" y="30.291999999999998" width="86.954" height="10.386" rx="5.193" fill="#FFFFFF" stroke="#E5E7EB"/>
<text x="297.48199999999997" y="37.354479999999995" fill="#6B7280" font-family="Segoe UI, Inter, system-ui, sans-serif" font-size="5.193" font-weight="500">Segment</text>
<text x="366.436" y="37.14676" fill="#9CA3AF" font-family="Segoe UI, Inter, system-ui, sans-serif" font-size="4.6737" font-weight="500" text-anchor="end">▾</text>
<rect x="382.436" y="30.291999999999998" width="86.954" height="10.386" rx="5.193" fill="#FFFFFF" stroke="#E5E7EB"/>
<text x="390.436" y="37.354479999999995" fill="#6B7280" font-family="Segoe UI, Inter, system-ui, sans-serif" font-size="5.193" font-weight="500">Channel</text>
<text x="459.39" y="37.14676" fill="#9CA3AF" font-family="Segoe UI, Inter, system-ui, sans-serif" font-size="4.6737" font-weight="500" text-anchor="end">▾</text>
<rect x="4.62" y="47.6" width="270.29" height="137.31" rx="3" fill="#FFFFFF" stroke="#E5E7EB"/>
<text x="12.620000000000001" y="59.6" fill="#6B7280" font-family="Segoe UI, Inter, system-ui, sans-serif" font-size="8" font-weight="600">Quality Scorecard</text>
<polygon points="12.6,176.91 12.6,142.1 30.8,97.3 48.9,143.1 67.1,144.8 85.3,93.4 103.4,104.9 121.6,136.4 139.8,127.1 157.9,129.3 176.1,92.4 194.3,145.6 212.4,139.2 230.6,115.0 248.7,93.0 266.9,125.2 266.9,176.91" fill="#2563EB" opacity="0.18"/>
<polyline points="12.6,142.1 30.8,97.3 48.9,143.1 67.1,144.8 85.3,93.4 103.4,104.9 121.6,136.4 139.8,127.1 157.9,129.3 176.1,92.4 194.3,145.6 212.4,139.2 230.6,115.0 248.7,93.0 266.9,125.2" fill="none" stroke="#2563EB" stroke-width="1.8"/>
<polyline points="12.6,153.4 30.8,154.6 48.9,126.4 67.1,145.8 85.3,147.0 103.4,148.4 121.6,143.4 139.8,151.4 157.9,119.2 176.1,125.3 194.3,158.9 212.4,138.4 230.6,148.8 248.7,150.9 266.9,125.7" fill="none" stroke="#F59E0B" stroke-width="1.3" stroke-dasharray="3 2"/>
<line x1="12.620000000000001" y1="176.91" x2="266.91" y2="176.91" stroke="#E5E7EB"/>
<rect x="279.52" y="47.6" width="195.87" height="137.31" rx="3" fill="#FFFFFF" stroke="#E5E7EB"/>
<text x="287.52" y="59.6" fill="#6B7280" font-family="Segoe UI, Inter, system-ui, sans-serif" font-size="8" font-weight="600">Benchmark Panel</text>
<polygon points="287.5,176.91 287.5,141.7 300.4,112.2 313.2,121.5 326.1,106.4 338.9,109.3 351.8,127.9 364.6,102.9 377.5,146.1 390.3,129.1 403.2,96.8 416.0,138.7 428.8,133.1 441.7,112.3 454.5,134.6 467.4,139.2 467.4,176.91" fill="#2563EB" opacity="0.18"/>
<polyline points="287.5,141.7 300.4,112.2 313.2,121.5 326.1,106.4 338.9,109.3 351.8,127.9 364.6,102.9 377.5,146.1 390.3,129.1 403.2,96.8 416.0,138.7 428.8,133.1 441.7,112.3 454.5,134.6 467.4,139.2" fill="none" stroke="#2563EB" stroke-width="1.8"/>
<polyline points="287.5,130.6 300.4,119.9 313.2,138.5 326.1,142.0 338.9,151.7 351.8,149.7 364.6,141.0 377.5,124.3 390.3,116.5 403.2,150.4 416.0,159.0 428.8,118.5 441.7,156.4 454.5,117.7 467.4,126.6" fill="none" stroke="#F59E0B" stroke-width="1.3" stroke-dasharray="3 2"/>
<line x1="287.52" y1="176.91" x2="467.39" y2="176.91" stroke="#E5E7EB"/>
<rect x="4.62" y="188.37" width="470.77" height="77.02" rx="3" fill="#FFFFFF" stroke="#E5E7EB"/>
<text x="12.620000000000001" y="200.37" fill="#6B7280" font-family="Segoe UI, Inter, system-ui, sans-serif" font-size="8" font-weight="600">Measure Detail Panel</text>
<polygon points="12.6,257.39 12.6,230.0 45.1,239.4 77.6,243.6 110.1,236.5 142.6,229.1 175.0,238.6 207.5,239.0 240.0,235.3 272.5,231.4 305.0,222.6 337.5,241.0 369.9,241.1 402.4,245.0 434.9,240.4 467.4,241.9 467.4,257.39" fill="#2563EB" opacity="0.18"/>
<polyline points="12.6,230.0 45.1,239.4 77.6,243.6 110.1,236.5 142.6,229.1 175.0,238.6 207.5,239.0 240.0,235.3 272.5,231.4 305.0,222.6 337.5,241.0 369.9,241.1 402.4,245.0 434.9,240.4 467.4,241.9" fill="none" stroke="#2563EB" stroke-width="1.8"/>
<polyline points="12.6,245.5 45.1,247.1 77.6,232.3 110.1,234.9 142.6,232.9 175.0,238.4 207.5,233.2 240.0,248.5 272.5,249.9 305.0,236.6 337.5,237.6 369.9,244.4 402.4,247.8 434.9,233.8 467.4,241.3" fill="none" stroke="#F59E0B" stroke-width="1.3" stroke-dasharray="3 2"/>
<line x1="12.620000000000001" y1="257.39" x2="467.39" y2="257.39" stroke="#E5E7EB"/>
<circle cx="465.39" cy="14.620000000000001" r="8" fill="#2563EB" stroke="#FFFFFF" stroke-width="1.5"/>
<text x="465.39" y="17.62" fill="#FFFFFF" font-family="Segoe UI, Inter, system-ui, sans-serif" font-size="8" font-weight="700" text-anchor="middle">1</text>
<circle cx="465.39" cy="36.83" r="8" fill="#2563EB" stroke="#FFFFFF" stroke-width="1.5"/>
<text x="465.39" y="39.83" fill="#FFFFFF" font-family="Segoe UI, Inter, system-ui, sans-serif" font-size="8" font-weight="700" text-anchor="middle">2</text>
<circle cx="264.91" cy="57.6" r="8" fill="#2563EB" stroke="#FFFFFF" stroke-width="1.5"/>
<text x="264.91" y="60.6" fill="#FFFFFF" font-family="Segoe UI, Inter, system-ui, sans-serif" font-size="8" font-weight="700" text-anchor="middle">3</text>
<circle cx="465.39" cy="57.6" r="8" fill="#2563EB" stroke="#FFFFFF" stroke-width="1.5"/>
<text x="465.39" y="60.6" fill="#FFFFFF" font-family="Segoe UI, Inter, system-ui, sans-serif" font-size="8" font-weight="700" text-anchor="middle">4</text>
<circle cx="465.39" cy="198.37" r="8" fill="#2563EB" stroke="#FFFFFF" stroke-width="1.5"/>
<text x="465.39" y="201.37" fill="#FFFFFF" font-family="Segoe UI, Inter, system-ui, sans-serif" font-size="8" font-weight="700" text-anchor="middle">5</text>
<text x="240.0" y="265" fill="#6B7280" font-family="Segoe UI, Inter, system-ui, sans-serif" font-size="7" font-weight="600" text-anchor="middle">hc-clinical-quality</text>
</svg>