<svg xmlns="http://www.w3.org/2000/svg" viewBox="0 0 480 270" font-family="Segoe UI, Inter, system-ui, sans-serif">
<title>hc-patient-flow</title>
<rect x="0" y="0" width="480" height="270" fill="#FFFFFF"/>
<rect x="0" y="0" width="480" height="3" fill="#2563EB"/>
<rect x="4.62" y="4.62" width="470.77" height="18.75" rx="4" fill="#F8FAFC" stroke="#E5E7EB"/>
<rect x="4.62" y="4.62" width="4" height="18.75" rx="2" fill="#2563EB"/>
<text x="18.62" y="16.245" fill="#111827" font-family="Segoe UI, Inter, system-ui, sans-serif" font-size="10.3125" font-weight="700">Title Bar</text>
<rect x="385.39" y="9.870000000000001" width="70" height="8.4" rx="3" fill="#EFF6FF" stroke="#DBEAFE"/>
<text x="420.39" y="16.995" fill="#6B7280" font-family="Segoe UI, Inter, system-ui, sans-serif" font-size="7.125" font-weight="500" text-anchor="middle">Q4 · FY26</text>
<rect x="4.62" y="26.83" width="470.77" height="17.31" rx="3" fill="#F8FAFC" stroke="#E5E7EB"/>
<rect x="10.620000000000001" y="30.291999999999998" width="86.954" height="10.386" rx="5.193" fill="#FFFFFF" stroke="#E5E7EB"/>
<text x="18.62" y="37.354479999999995" fill="#6B7280" font-family="Segoe UI, Inter, system-ui, sans-serif" font-size="5.193" font-weight="500">Region</text>
<text x="87.574" y="37.14676" fill="#9CA3AF" font-family="Segoe UI, Inter, system-ui, sans-serif" font-size="4.6737" font-weight="500" text-anchor="end">▾</text>
<rect x="103.574" y="30.291999999999998" width="86.954" height="10.386" rx="5.193" fill="#FFFFFF" stroke="#E5E7EB"/>
<text x="111.574" y="37.354479999999995" fill="#6B7280" font-family="Segoe UI, Inter, system-ui, sans-serif" font-size="5.193" font-weight="500">Period</text>
<text x="180.528" y="37.14676" fill="#9CA3AF" font-family="Segoe UI, Inter, system-ui, sans-serif" font-size="4.6737" font-weight="500" text-anchor="end">▾</text>
<rect x="196.528" y="30.291999999999998" width="86.954" height="10.386" rx="5.193" fill="#FFFFFF" stroke="#E5E7EB"/>
<text x="204.528" y="37.354479999999995" fill="#6B7280" font-family="Segoe UI, Inter, system-ui, sans-serif" font-size="5.193" font-weight="500">Product</text>
<text x="273.48199999999997" y="37.14676" fill="#9CA3AF" font-family="Segoe UI, Inter, system-ui, sans-serif" font-size="4.6737" font-weight="500" text-anchor="end">▾</text>
<rect x="289.48199999999997" y="30.291999999999998" width="86.954" height="10.386" rx="5.193" fill="#FFFFFF" stroke="#E5E7EB"/>
<text x="297.48199999999997" y="37.354479999999995" fill="#6B7280" font-family="Segoe UI, Inter, system-ui, sans-serif" font-size="5.193" font-weight="500">Segment</text>
<text x="366.436" y="37.14676" fill="#9CA3AF" font-family="Segoe UI, Inter, system-ui, sans-serif" font-size="4.6737" font-weight="500" text-anchor="end">▾</text>
<rect x="382.436" y="30.291999999999998" width="86.954" height="10.386" rx="5.193" fill="#FFFFFF" stroke="#E5E7EB"/>
<text x="390.436" y="37.354479999999995" fill="#6B7280" font-family="Segoe UI, Inter, system-ui, sans-serif" font-size="5.193" font-weight="500">Channel</text>
<text x="459.39" y="37.14676" fill="#9CA3AF" font-family="Segoe UI, Inter, system-ui, sans-serif" font-size="4.6737" font-weight="500" text-anchor="end">▾</text>
<rect x="4.62" y="47.6" width="270.29" height="107.31" rx="3" fill="#FFFFFF" stroke="#E5E7EB"/>
<text x="12.620000000000001" y="59.6" fill="#6B7280" font-family="Segoe UI, Inter, system-ui, sans-serif" font-size="8" font-weight="600">Patient Flow Sankey</text>
<path d="M 12.620000000000001 83.4 C 112.7 83.4 166.8 81.3 266.9 81.3" fill="none" stroke="#2563EB" stroke-width="10.0" opacity="0.55" stroke-linecap="round"/>
<path d="M 12.620000000000001 104.8 C 112.7 104.8 166.8 112.0 266.9 112.0" fill="none" stroke="#60A5FA" stroke-width="10.0" opacity="0.45" stroke-linecap="round"/>
<path d="M 12.620000000000001 124.1 C 112.7 124.1 166.8 104.8 266.9 104.8" fill="none" stroke="#F59E0B" stroke-width="10.0" opacity="0.35" stroke-linecap="round"/>
<rect x="10.6" y="65.6" width="6" height="71.3" fill="#111827" opacity="0.5"/>
<rect x="262.9" y="65.6" width="6" height="71.3" fill="#111827" opacity="0.5"/>
<rect x="279.52" y="47.6" width="195.87" height="107.31" rx="3" fill="#FFFFFF" stroke="#E5E7EB"/>
<text x="287.52" y="59.6" fill="#6B7280" font-family="Segoe UI, Inter, system-ui, sans-serif" font-size="8" font-weight="600">Wait Time Distribution</text>
<polygon points="287.5,146.91 287.5,113.3 300.4,121.1 313.2,123.8 326.1,97.3 338.9,101.1 351.8,101.7 364.6,108.1 377.5,118.2 390.3,106.8 403.2,119.9 416.0,109.4 428.8,100.7 441.7,122.6 454.5,83.4 467.4,84.6 467.4,146.91" fill="#2563EB" opacity="0.18"/>
<polyline points="287.5,113.3 300.4,121.1 313.2,123.8 326.1,97.3 338.9,101.1 351.8,101.7 364.6,108.1 377.5,118.2 390.3,106.8 403.2,119.9 416.0,109.4 428.8,100.7 441.7,122.6 454.5,83.4 467.4,84.6" fill="none" stroke="#2563EB" stroke-width="1.8"/>
<polyline points="287.5,114.9 300.4,124.2 313.2,119.5 326.1,106.4 338.9,128.0 351.8,116.5 364.6,124.4 377.5,112.0 390.3,108.5 403.2,112.0 416.0,122.0 428.8,121.6 441.7,123.6 454.5,106.2 467.4,113.2" fill="none" stroke="#F59E0B" stroke-width="1.3" stroke-dasharray="3 2"/>
<line x1="287.52" y1="146.91" x2="467.39" y2="146.91" stroke="#E5E7EB"/>
<rect x="4.62" y="158.37" width="470.77" height="107.02" rx="3" fill="#FFFFFF" stroke="#E5E7EB"/>
<text x="12.620000000000001" y="170.37" fill="#6B7280" font-family="Segoe UI, Inter, system-ui, sans-serif" font-size="8" font-weight="600">Census Heatmap</text>
<rect x="12.6" y="176.4" width="36.9" height="10.6" fill="#2563EB" opacity="0.34"/>
<rect x="50.5" y="176.4" width="36.9" height="10.6" fill="#F59E0B" opacity="0.15"/>
<rect x="88.4" y="176.4" width="36.9" height="10.6" fill="#F59E0B" opacity="0.15"/>
<rect x="126.3" y="176.4" width="36.9" height="10.6" fill="#2563EB" opacity="0.50"/>
<rect x="164.2" y="176.4" width="36.9" height="10.6" fill="#2563EB" opacity="0.37"/>
<rect x="202.1" y="176.4" width="36.9" height="10.6" fill="#2563EB" opacity="0.51"/>
<rect x="240.0" y="176.4" width="36.9" height="10.6" fill="#2563EB" opacity="0.49"/>
<rect x="277.9" y="176.4" width="36.9" height="10.6" fill="#2563EB" opacity="0.53"/>
<rect x="315.8" y="176.4" width="36.9" height="10.6" fill="#F59E0B" opacity="0.31"/>
<rect x="353.7" y="176.4" width="36.9" height="10.6" fill="#2563EB" opacity="0.49"/>
<rect x="391.6" y="176.4" width="36.9" height="10.6" fill="#2563EB" opacity="0.43"/>
<rect x="429.5" y="176.4" width="36.9" height="10.6" fill="#2563EB" opacity="0.44"/>
<rect x="12.6" y="187.9" width="36.9" height="10.6" fill="#F59E0B" opacity="0.24"/>
<rect x="50.5" y="187.9" width="36.9" height="10.6" fill="#2563EB" opacity="0.71"/>
<rect x="88.4" y="187.9" width="36.9" height="10.6" fill="#2563EB" opacity="0.48"/>
<rect x="126.3" y="187.9" width="36.9" height="10.6" fill="#2563EB" opacity="0.51"/>
<rect x="164.2" y="187.9" width="36.9" height="10.6" fill="#2563EB" opacity="0.43"/>
<rect x="202.1" y="187.9" width="36.9" height="10.6" fill="#F59E0B" opacity="0.19"/>
<rect x="240.0" y="187.9" width="36.9" height="10.6" fill="#F59E0B" opacity="0.30"/>
<rect x="277.9" y="187.9" width="36.9" height="10.6" fill="#F59E0B" opacity="0.22"/>
<rect x="315.8" y="187.9" width="36.9" height="10.6" fill="#2563EB" opacity="0.43"/>
<rect x="353.7" y="187.9" width="36.9" height="10.6" fill="#F59E0B" opacity="0.21"/>
<rect x="391.6" y="187.9" width="36.9" height="10.6" fill="#F59E0B" opacity="0.32"/>
<rect x="429.5" y="187.9" width="36.9" height="10.6" fill="#F59E0B" opacity="0.17"/>
<rect x="12.6" y="199.5" width="36.9" height="10.6" fill="#F59E0B" opacity="0.24"/>
<rect x="50.5" y="199.5" width="36.9" height="10.6" fill="#F59E0B" opacity="0.16"/>
<rect x="88.4" y="199.5" width="36.9" height="10.6" fill="#F59E0B" opacity="0.15"/>
<rect x="126.3" y="199.5" width="36.9" height="10.6" fill="#2563EB" opacity="0.54"/>
<rect x="164.2" y="199.5" width="36.9" height="10.6" fill="#2563EB" opacity="0.38"/>
<rect x="202.1" y="199.5" width="36.9" height="10.6" fill="#2563EB" opacity="0.49"/>
<rect x="240.0" y="199.5" width="36.9" height="10.6" fill="#F59E0B" opacity="0.17"/>
<rect x="277.9" y="199.5" width="36.9" height="10.6" fill="#F59E0B" opacity="0.29"/>
<rect x="315.8" y="199.5" width="36.9" height="10.6" fill="#F59E0B" opacity="0.32"/>
<rect x="353.7" y="199.5" width="36.9" height="10.6" fill="#F59E0B" opacity="0.15"/>
<rect x="391.6" y="199.5" width="36.9" height="10.6" fill="#F59E0B" opacity="0.29"/>
<rect x="429.5" y="199.5" width="36.9" height="10.6" fill="#F59E0B" opacity="0.15"/>
<rect x="12.6" y="211.1" width="36.9" height="10.6" fill="#F59E0B" opacity="0.19"/>
<rect x="50.5" y="211.1" width="36.9" height="10.6" fill="#F59E0B" opacity="0.22"/>
<rect x="88.4" y="211.1" width="36.9" height="10.6" fill="#F59E0B" opacity="0.30"/>
<rect x="126.3" y="211.1" width="36.9" height="10.6" fill="#2563EB" opacity="0.45"/>
<rect x="164.2" y="211.1" width="36.9" height="10.6" fill="#2563EB" opacity="0.58"/>
<rect x="202.1" y="211.1" width="36.9" height="10.6" fill="#F59E0B" opacity="0.15"/>
<rect x="240.0" y="211.1" width="36.9" height="10.6" fill="#2563EB" opacity="0.37"/>
<rect x="277.9" y="211.1" width="36.9" height="10.6" fill="#F59E0B" opacity="0.29"/>
<rect x="315.8" y="211.1" width="36.9" height="10.6" fill="#2563EB" opacity="0.35"/>
<rect x="353.7" y="211.1" width="36.9" height="10.6" fill="#2563EB" opacity="0.38"/>
<rect x="391.6" y="211.1" width="36.9" height="10.6" fill="#2563EB" opacity="0.34"/>
<rect x="429.5" y="211.1" width="36.9" height="10.6" fill="#2563EB" opacity="0.41"/>
<rect x="12.6" y="222.7" width="36.9" height="10.6" fill="#F59E0B" opacity="0.21"/>
<rect x="50.5" y="222.7" width="36.9" height="10.6" fill="#F59E0B" opacity="0.16"/>
<rect x="88.4" y="222.7" width="36.9" height="10.6" fill="#F59E0B" opacity="0.25"/>
<rect x="126.3" y="222.7" width="36.9" height="10.6" fill="#F59E0B" opacity="0.19"/>
<rect x="164.2" y="222.7" width="36.9" height="10.6" fill="#2563EB" opacity="0.64"/>
<rect x="202.1" y="222.7" width="36.9" height="10.6" fill="#F59E0B" opacity="0.32"/>
<rect x="240.0" y="222.7" width="36.9" height="10.6" fill="#2563EB" opacity="0.62"/>
<rect x="277.9" y="222.7" width="36.9" height="10.6" fill="#F59E0B" opacity="0.15"/>
<rect x="315.8" y="222.7" width="36.9" height="10.6" fill="#2563EB" opacity="0.52"/>
<rect x="353.7" y="222.7" width="36.9" height="10.6" fill="#2563EB" opacity="0.47"/>
<rect x="391.6" y="222.7" width="36.9" height="10.6" fill="#2563EB" opacity="0.45"/>
<rect x="429.5" y="222.7" width="36.9" height="10.6" fill="#2563EB" opacity="0.50"/>
<rect x="12.6" y="234.2" width="36.9" height="10.6" fill="#F59E0B" opacity="0.25"/>
<rect x="50.5" y="234.2" width="36.9" height="10.6" fill="#F59E0B" opacity="0.15"/>
<rect x="88.4" y="234.2" width="36.9" height="10.6" fill="#F59E0B" opacity="0.19"/>
<rect x="126.3" y="234.2" width="36.9" height="10.6" fill="#F59E0B" opacity="0.17"/>
<rect x="164.2" y="234.2" width="36.9" height="10.6" fill="#F59E0B" opacity="0.15"/>
<rect x="202.1" y="234.2" width="36.9" height="10.6" fill="#2563EB" opacity="0.68"/>
<rect x="240.0" y="234.2" width="36.9" height="10.6" fill="#2563EB" opacity="0.41"/>
<rect x="277.9" y="234.2" width="36.9" height="10.6" fill="#2563EB" opacity="0.47"/>
<rect x="315.8" y="234.2" width="36.9" height="10.6" fill="#2563EB" opacity="0.63"/>
<rect x="353.7" y="234.2" width="36.9" height="10.6" fill="#F59E0B" opacity="0.30"/>
<rect x="391.6" y="234.2" width="36.9" height="10.6" fill="#2563EB" opacity="0.43"/>
<rect x="429.5" y="234.2" width="36.9" height="10.6" fill="#2563EB" opacity="0.57"/>
<rect x="12.6" y="245.8" width="36.9" height="10.6" fill="#F59E0B" opacity="0.22"/>
<rect x="50.5" y="245.8" width="36.9" height="10.6" fill="#F59E0B" opacity="0.23"/>
<rect x="88.4" y="245.8" width="36.9" height="10.6" fill="#F59E0B" opacity="0.15"/>
<rect x="126.3" y="245.8" width="36.9" height="10.6" fill="#F59E0B" opacity="0.28"/>
<rect x="164.2" y="245.8" width="36.9" height="10.6" fill="#F59E0B" opacity="0.15"/>
<rect x="202.1" y="245.8" width="36.9" height="10.6" fill="#F59E0B" opacity="0.17"/>
<rect x="240.0" y="245.8" width="36.9" height="10.6" fill="#2563EB" opacity="0.68"/>
<rect x="277.9" y="245.8" width="36.9" height="10.6" fill="#F59E0B" opacity="0.20"/>
<rect x="315.8" y="245.8" width="36.9" height="10.6" fill="#F59E0B" opacity="0.28"/>
<rect x="353.7" y="245.8" width="36.9" height="10.6" fill="#2563EB" opacity="0.55"/>
<rect x="391.6" y="245.8" width="36.9" height="10.6" fill="#2563EB" opacity="0.46"/>
<rect x="429.5" y="245.8" width="36.9" height="10.6" fill="#F59E0B" opacity="0.18"/>
<text x="240.0" y="265" fill="#6B7280" font-family="Segoe UI, Inter, system-ui, sans-serif" font-size="7" font-weight="600" text-anchor="middle">hc-patient-flow</text>
</svg>