<svg xmlns="http://www.w3.org/2000/svg" viewBox="0 0 480 339" font-family="Segoe UI, Inter, system-ui, sans-serif">
<title>hr-compensation-bands-a4</title>
<rect x="0" y="0" width="480" height="339" fill="#FFFFFF"/>
<rect x="0" y="0" width="480" height="3" fill="#2563EB"/>
<rect x="6.57" y="6.57" width="466.86" height="23.39" rx="4" fill="#F8FAFC" stroke="#E5E7EB"/>
<rect x="6.57" y="6.57" width="4" height="23.39" rx="2" fill="#2563EB"/>
<text x="20.57" y="21.071800000000003" fill="#111827" font-family="Segoe UI, Inter, system-ui, sans-serif" font-size="11" font-weight="700">Print Header</text>
<rect x="383.43" y="13.119200000000001" width="70" height="10.5" rx="3" fill="#EFF6FF" stroke="#DBEAFE"/>
<text x="418.43" y="22.0074" fill="#6B7280" font-family="Segoe UI, Inter, system-ui, sans-serif" font-size="8.8882" font-weight="500" text-anchor="middle">Q4 · FY26</text>
<rect x="6.57" y="34.88" width="466.86" height="23.39" rx="4" fill="#F8FAFC" stroke="#E5E7EB"/>
<rect x="6.57" y="34.88" width="4" height="23.39" rx="2" fill="#2563EB"/>
<text x="20.57" y="49.381800000000005" fill="#111827" font-family="Segoe UI, Inter, system-ui, sans-serif" font-size="11" font-weight="700">Title Bar</text>
<rect x="383.43" y="41.4292" width="70" height="10.5" rx="3" fill="#EFF6FF" stroke="#DBEAFE"/>
<text x="418.43" y="50.317400000000006" fill="#6B7280" font-family="Segoe UI, Inter, system-ui, sans-serif" font-size="8.8882" font-weight="500" text-anchor="middle">Q4 · FY26</text>
<rect x="6.57" y="63.2" width="466.86" height="21.75" rx="3" fill="#F8FAFC" stroke="#E5E7EB"/>
<rect x="12.57" y="67.55" width="86.172" height="13.049999999999999" rx="6.5249999999999995" fill="#FFFFFF" stroke="#E5E7EB"/>
<text x="20.57" y="76.42399999999999" fill="#6B7280" font-family="Segoe UI, Inter, system-ui, sans-serif" font-size="6.5249999999999995" font-weight="500">Region</text>
<text x="88.74199999999999" y="76.163" fill="#9CA3AF" font-family="Segoe UI, Inter, system-ui, sans-serif" font-size="5.8725" font-weight="500" text-anchor="end">▾</text>
<rect x="104.74199999999999" y="67.55" width="86.172" height="13.049999999999999" rx="6.5249999999999995" fill="#FFFFFF" stroke="#E5E7EB"/>
<text x="112.74199999999999" y="76.42399999999999" fill="#6B7280" font-family="Segoe UI, Inter, system-ui, sans-serif" font-size="6.5249999999999995" font-weight="500">Period</text>
<text x="180.914" y="76.163" fill="#9CA3AF" font-family="Segoe UI, Inter, system-ui, sans-serif" font-size="5.8725" font-weight="500" text-anchor="end">▾</text>
<rect x="196.914" y="67.55" width="86.172" height="13.049999999999999" rx="6.5249999999999995" fill="#FFFFFF" stroke="#E5E7EB"/>
<text x="204.914" y="76.42399999999999" fill="#6B7280" font-family="Segoe UI, Inter, system-ui, sans-serif" font-size="6.5249999999999995" font-weight="500">Product</text>
<text x="273.086" y="76.163" fill="#9CA3AF" font-family="Segoe UI, Inter, system-ui, sans-serif" font-size="5.8725" font-weight="500" text-anchor="end">▾</text>
<rect x="289.08599999999996" y="67.55" width="86.172" height="13.049999999999999" rx="6.5249999999999995" fill="#FFFFFF" stroke="#E5E7EB"/>
<text x="297.08599999999996" y="76.42399999999999" fill="#6B7280" font-family="Segoe UI, Inter, system-ui, sans-serif" font-size="6.5249999999999995" font-weight="500">Segment</text>
<text x="365.2579999999999" y="76.163" fill="#9CA3AF" font-family="Segoe UI, Inter, system-ui, sans-serif" font-size="5.8725" font-weight="500" text-anchor="end">▾</text>
<rect x="381.258" y="67.55" width="86.172" height="13.049999999999999" rx="6.5249999999999995" fill="#FFFFFF" stroke="#E5E7EB"/>
<text x="389.258" y="76.42399999999999" fill="#6B7280" font-family="Segoe UI, Inter, system-ui, sans-serif" font-size="6.5249999999999995" font-weight="500">Channel</text>
<text x="457.42999999999995" y="76.163" fill="#9CA3AF" font-family="Segoe UI, Inter, system-ui, sans-serif" font-size="5.8725" font-weight="500" text-anchor="end">▾</text>
<rect x="6.57" y="89.88" width="266.89" height="102.6" rx="3" fill="#FFFFFF" stroke="#E5E7EB"/>
<text x="14.57" y="101.88" fill="#6B7280" font-family="Segoe UI, Inter, system-ui, sans-serif" font-size="8" font-weight="600">Salary Band Scatter</text>
<line x1="14.57" y1="127.0" x2="265.46" y2="127.0" stroke="#F3F4F6" stroke-dasharray="2 3"/>
<line x1="14.57" y1="146.2" x2="265.46" y2="146.2" stroke="#F3F4F6" stroke-dasharray="2 3"/>
<line x1="14.57" y1="165.3" x2="265.46" y2="165.3" stroke="#F3F4F6" stroke-dasharray="2 3"/>
<circle cx="56.6" cy="108.2" r="4.5" fill="#2563EB" opacity="0.75"/>
<circle cx="28.5" cy="161.0" r="3.2" fill="#F59E0B" opacity="0.75"/>
<circle cx="222.8" cy="132.6" r="4.3" fill="#10B981" opacity="0.75"/>
<circle cx="155.9" cy="166.5" r="2.4" fill="#2563EB" opacity="0.75"/>
<circle cx="229.9" cy="121.9" r="2.8" fill="#F59E0B" opacity="0.75"/>
<circle cx="242.0" cy="171.7" r="2.2" fill="#10B981" opacity="0.75"/>
<circle cx="97.9" cy="112.5" r="3.4" fill="#2563EB" opacity="0.75"/>
<circle cx="24.4" cy="120.0" r="4.1" fill="#F59E0B" opacity="0.75"/>
<circle cx="202.0" cy="144.9" r="2.2" fill="#10B981" opacity="0.75"/>
<circle cx="248.0" cy="178.3" r="3.8" fill="#2563EB" opacity="0.75"/>
<circle cx="45.8" cy="113.5" r="4.6" fill="#F59E0B" opacity="0.75"/>
<circle cx="214.6" cy="124.4" r="3.6" fill="#10B981" opacity="0.75"/>
<circle cx="253.0" cy="146.0" r="2.5" fill="#2563EB" opacity="0.75"/>
<circle cx="56.2" cy="124.0" r="2.6" fill="#F59E0B" opacity="0.75"/>
<rect x="280.03" y="89.88" width="193.4" height="102.6" rx="3" fill="#FFFFFF" stroke="#E5E7EB"/>
<text x="288.03" y="101.88" fill="#6B7280" font-family="Segoe UI, Inter, system-ui, sans-serif" font-size="8" font-weight="600">Comp Benchmark Panel</text>
<polygon points="288.0,184.48 288.0,134.6 300.7,156.7 313.4,140.1 326.0,158.2 338.7,135.8 351.4,128.4 364.1,136.8 376.7,161.1 389.4,129.3 402.1,132.4 414.7,164.5 427.4,134.3 440.1,142.5 452.8,159.7 465.4,150.7 465.4,184.48" fill="#2563EB" opacity="0.18"/>
<polyline points="288.0,134.6 300.7,156.7 313.4,140.1 326.0,158.2 338.7,135.8 351.4,128.4 364.1,136.8 376.7,161.1 389.4,129.3 402.1,132.4 414.7,164.5 427.4,134.3 440.1,142.5 452.8,159.7 465.4,150.7" fill="none" stroke="#2563EB" stroke-width="1.8"/>
<polyline points="288.0,156.9 300.7,150.3 313.4,145.7 326.0,150.2 338.7,144.2 351.4,164.2 364.1,152.9 376.7,163.4 389.4,158.6 402.1,154.5 414.7,150.9 427.4,173.0 440.1,152.6 452.8,146.7 465.4,167.6" fill="none" stroke="#F59E0B" stroke-width="1.3" stroke-dasharray="3 2"/>
<line x1="288.03" y1="184.48" x2="465.42999999999995" y2="184.48" stroke="#E5E7EB"/>
<rect x="6.57" y="197.41" width="466.86" height="102.19" rx="3" fill="#FFFFFF" stroke="#E5E7EB"/>
<text x="14.57" y="209.41" fill="#6B7280" font-family="Segoe UI, Inter, system-ui, sans-serif" font-size="8" font-weight="600">Comparatio Heatmap</text>
<rect x="14.6" y="215.4" width="36.6" height="9.9" fill="#2563EB" opacity="0.46"/>
<rect x="52.1" y="215.4" width="36.6" height="9.9" fill="#2563EB" opacity="0.58"/>
<rect x="89.7" y="215.4" width="36.6" height="9.9" fill="#F59E0B" opacity="0.23"/>
<rect x="127.3" y="215.4" width="36.6" height="9.9" fill="#F59E0B" opacity="0.22"/>
<rect x="164.9" y="215.4" width="36.6" height="9.9" fill="#2563EB" opacity="0.54"/>
<rect x="202.4" y="215.4" width="36.6" height="9.9" fill="#2563EB" opacity="0.44"/>
<rect x="240.0" y="215.4" width="36.6" height="9.9" fill="#2563EB" opacity="0.43"/>
<rect x="277.6" y="215.4" width="36.6" height="9.9" fill="#F59E0B" opacity="0.29"/>
<rect x="315.1" y="215.4" width="36.6" height="9.9" fill="#F59E0B" opacity="0.15"/>
<rect x="352.7" y="215.4" width="36.6" height="9.9" fill="#2563EB" opacity="0.34"/>
<rect x="390.3" y="215.4" width="36.6" height="9.9" fill="#F59E0B" opacity="0.28"/>
<rect x="427.9" y="215.4" width="36.6" height="9.9" fill="#2563EB" opacity="0.34"/>
<rect x="14.6" y="226.3" width="36.6" height="9.9" fill="#F59E0B" opacity="0.26"/>
<rect x="52.1" y="226.3" width="36.6" height="9.9" fill="#F59E0B" opacity="0.22"/>
<rect x="89.7" y="226.3" width="36.6" height="9.9" fill="#2563EB" opacity="0.39"/>
<rect x="127.3" y="226.3" width="36.6" height="9.9" fill="#F59E0B" opacity="0.32"/>
<rect x="164.9" y="226.3" width="36.6" height="9.9" fill="#F59E0B" opacity="0.26"/>
<rect x="202.4" y="226.3" width="36.6" height="9.9" fill="#2563EB" opacity="0.37"/>
<rect x="240.0" y="226.3" width="36.6" height="9.9" fill="#2563EB" opacity="0.57"/>
<rect x="277.6" y="226.3" width="36.6" height="9.9" fill="#F59E0B" opacity="0.23"/>
<rect x="315.1" y="226.3" width="36.6" height="9.9" fill="#F59E0B" opacity="0.24"/>
<rect x="352.7" y="226.3" width="36.6" height="9.9" fill="#2563EB" opacity="0.45"/>
<rect x="390.3" y="226.3" width="36.6" height="9.9" fill="#2563EB" opacity="0.43"/>
<rect x="427.9" y="226.3" width="36.6" height="9.9" fill="#2563EB" opacity="0.40"/>
<rect x="14.6" y="237.2" width="36.6" height="9.9" fill="#F59E0B" opacity="0.15"/>
<rect x="52.1" y="237.2" width="36.6" height="9.9" fill="#F59E0B" opacity="0.24"/>
<rect x="89.7" y="237.2" width="36.6" height="9.9" fill="#2563EB" opacity="0.49"/>
<rect x="127.3" y="237.2" width="36.6" height="9.9" fill="#F59E0B" opacity="0.21"/>
<rect x="164.9" y="237.2" width="36.6" height="9.9" fill="#2563EB" opacity="0.65"/>
<rect x="202.4" y="237.2" width="36.6" height="9.9" fill="#2563EB" opacity="0.56"/>
<rect x="240.0" y="237.2" width="36.6" height="9.9" fill="#2563EB" opacity="0.55"/>
<rect x="277.6" y="237.2" width="36.6" height="9.9" fill="#2563EB" opacity="0.48"/>
<rect x="315.1" y="237.2" width="36.6" height="9.9" fill="#2563EB" opacity="0.45"/>
<rect x="352.7" y="237.2" width="36.6" height="9.9" fill="#F59E0B" opacity="0.24"/>
<rect x="390.3" y="237.2" width="36.6" height="9.9" fill="#2563EB" opacity="0.43"/>
<rect x="427.9" y="237.2" width="36.6" height="9.9" fill="#F59E0B" opacity="0.22"/>
<rect x="14.6" y="248.1" width="36.6" height="9.9" fill="#F59E0B" opacity="0.18"/>
<rect x="52.1" y="248.1" width="36.6" height="9.9" fill="#F59E0B" opacity="0.21"/>
<rect x="89.7" y="248.1" width="36.6" height="9.9" fill="#F59E0B" opacity="0.17"/>
<rect x="127.3" y="248.1" width="36.6" height="9.9" fill="#2563EB" opacity="0.49"/>
<rect x="164.9" y="248.1" width="36.6" height="9.9" fill="#2563EB" opacity="0.63"/>
<rect x="202.4" y="248.1" width="36.6" height="9.9" fill="#2563EB" opacity="0.49"/>
<rect x="240.0" y="248.1" width="36.6" height="9.9" fill="#2563EB" opacity="0.33"/>
<rect x="277.6" y="248.1" width="36.6" height="9.9" fill="#F59E0B" opacity="0.22"/>
<rect x="315.1" y="248.1" width="36.6" height="9.9" fill="#F59E0B" opacity="0.17"/>
<rect x="352.7" y="248.1" width="36.6" height="9.9" fill="#2563EB" opacity="0.43"/>
<rect x="390.3" y="248.1" width="36.6" height="9.9" fill="#2563EB" opacity="0.33"/>
<rect x="427.9" y="248.1" width="36.6" height="9.9" fill="#2563EB" opacity="0.37"/>
<rect x="14.6" y="258.9" width="36.6" height="9.9" fill="#F59E0B" opacity="0.17"/>
<rect x="52.1" y="258.9" width="36.6" height="9.9" fill="#F59E0B" opacity="0.21"/>
<rect x="89.7" y="258.9" width="36.6" height="9.9" fill="#F59E0B" opacity="0.23"/>
<rect x="127.3" y="258.9" width="36.6" height="9.9" fill="#F59E0B" opacity="0.16"/>
<rect x="164.9" y="258.9" width="36.6" height="9.9" fill="#F59E0B" opacity="0.21"/>
<rect x="202.4" y="258.9" width="36.6" height="9.9" fill="#2563EB" opacity="0.62"/>
<rect x="240.0" y="258.9" width="36.6" height="9.9" fill="#F59E0B" opacity="0.25"/>
<rect x="277.6" y="258.9" width="36.6" height="9.9" fill="#2563EB" opacity="0.40"/>
<rect x="315.1" y="258.9" width="36.6" height="9.9" fill="#2563EB" opacity="0.61"/>
<rect x="352.7" y="258.9" width="36.6" height="9.9" fill="#F59E0B" opacity="0.25"/>
<rect x="390.3" y="258.9" width="36.6" height="9.9" fill="#2563EB" opacity="0.42"/>
<rect x="427.9" y="258.9" width="36.6" height="9.9" fill="#F59E0B" opacity="0.15"/>
<rect x="14.6" y="269.8" width="36.6" height="9.9" fill="#F59E0B" opacity="0.23"/>
<rect x="52.1" y="269.8" width="36.6" height="9.9" fill="#F59E0B" opacity="0.16"/>
<rect x="89.7" y="269.8" width="36.6" height="9.9" fill="#F59E0B" opacity="0.16"/>
<rect x="127.3" y="269.8" width="36.6" height="9.9" fill="#F59E0B" opacity="0.15"/>
<rect x="164.9" y="269.8" width="36.6" height="9.9" fill="#F59E0B" opacity="0.22"/>
<rect x="202.4" y="269.8" width="36.6" height="9.9" fill="#F59E0B" opacity="0.31"/>
<rect x="240.0" y="269.8" width="36.6" height="9.9" fill="#F59E0B" opacity="0.27"/>
<rect x="277.6" y="269.8" width="36.6" height="9.9" fill="#2563EB" opacity="0.42"/>
<rect x="315.1" y="269.8" width="36.6" height="9.9" fill="#2563EB" opacity="0.33"/>
<rect x="352.7" y="269.8" width="36.6" height="9.9" fill="#F59E0B" opacity="0.25"/>
<rect x="390.3" y="269.8" width="36.6" height="9.9" fill="#F59E0B" opacity="0.32"/>
<rect x="427.9" y="269.8" width="36.6" height="9.9" fill="#2563EB" opacity="0.58"/>
<rect x="14.6" y="280.7" width="36.6" height="9.9" fill="#F59E0B" opacity="0.17"/>
<rect x="52.1" y="280.7" width="36.6" height="9.9" fill="#F59E0B" opacity="0.15"/>
<rect x="89.7" y="280.7" width="36.6" height="9.9" fill="#F59E0B" opacity="0.20"/>
<rect x="127.3" y="280.7" width="36.6" height="9.9" fill="#F59E0B" opacity="0.22"/>
<rect x="164.9" y="280.7" width="36.6" height="9.9" fill="#F59E0B" opacity="0.29"/>
<rect x="202.4" y="280.7" width="36.6" height="9.9" fill="#F59E0B" opacity="0.15"/>
<rect x="240.0" y="280.7" width="36.6" height="9.9" fill="#F59E0B" opacity="0.24"/>
<rect x="277.6" y="280.7" width="36.6" height="9.9" fill="#F59E0B" opacity="0.15"/>
<rect x="315.1" y="280.7" width="36.6" height="9.9" fill="#F59E0B" opacity="0.15"/>
<rect x="352.7" y="280.7" width="36.6" height="9.9" fill="#F59E0B" opacity="0.23"/>
<rect x="390.3" y="280.7" width="36.6" height="9.9" fill="#2563EB" opacity="0.35"/>
<rect x="427.9" y="280.7" width="36.6" height="9.9" fill="#2563EB" opacity="0.35"/>
<rect x="6.57" y="304.53" width="466.86" height="11.49" rx="2" fill="#F8FAFC" stroke="#E5E7EB"/>
<text x="16.57" y="311.9985" fill="#6B7280" font-family="Segoe UI, Inter, system-ui, sans-serif" font-size="6.319500000000001" font-weight="400">Source: Data warehouse · Last refresh 08:15</text>
<text x="413.43" y="311.9985" fill="#6B7280" font-family="Segoe UI, Inter, system-ui, sans-serif" font-size="6.319500000000001" font-weight="500" text-anchor="start">Confidential</text>
<rect x="453.43" y="307.4025" width="14" height="5.7" rx="2" fill="#2563EB" opacity="0.15"/>
<text x="460.43" y="312.573" fill="#2563EB" font-family="Segoe UI, Inter, system-ui, sans-serif" font-size="5.745" font-weight="700" text-anchor="middle">1</text>
<rect x="6.57" y="320.94" width="466.86" height="11.49" rx="2" fill="#F8FAFC" stroke="#E5E7EB"/>
<text x="16.57" y="328.4085" fill="#6B7280" font-family="Segoe UI, Inter, system-ui, sans-serif" font-size="6.319500000000001" font-weight="400">Source: Data warehouse · Last refresh 08:15</text>
<text x="413.43" y="328.4085" fill="#6B7280" font-family="Segoe UI, Inter, system-ui, sans-serif" font-size="6.319500000000001" font-weight="500" text-anchor="start">Confidential</text>
<rect x="453.43" y="323.8125" width="14" height="5.7" rx="2" fill="#2563EB" opacity="0.15"/>
<text x="460.43" y="328.983" fill="#2563EB" font-family="Segoe UI, Inter, system-ui, sans-serif" font-size="5.745" font-weight="700" text-anchor="middle">1</text>
<text x="240.0" y="334" fill="#6B7280" font-family="Segoe UI, Inter, system-ui, sans-serif" font-size="7" font-weight="600" text-anchor="middle">hr-compensation-bands-a4</text>
</svg>