<svg xmlns="http://www.w3.org/2000/svg" viewBox="0 0 480 270" font-family="Segoe UI, Inter, system-ui, sans-serif">
<title>hr-dei-scorecard</title>
<rect x="0" y="0" width="480" height="270" fill="#FFFFFF"/>
<rect x="0" y="0" width="480" height="3" fill="#2563EB"/>
<rect x="4.62" y="4.62" width="470.77" height="18.75" rx="4" fill="#F8FAFC" stroke="#E5E7EB"/>
<rect x="4.62" y="4.62" width="4" height="18.75" rx="2" fill="#2563EB"/>
<text x="18.62" y="16.245" fill="#111827" font-family="Segoe UI, Inter, system-ui, sans-serif" font-size="10.3125" font-weight="700">Title Bar</text>
<rect x="385.39" y="9.870000000000001" width="70" height="8.4" rx="3" fill="#EFF6FF" stroke="#DBEAFE"/>
<text x="420.39" y="16.995" fill="#6B7280" font-family="Segoe UI, Inter, system-ui, sans-serif" font-size="7.125" font-weight="500" text-anchor="middle">Q4 · FY26</text>
<rect x="4.62" y="26.83" width="470.77" height="17.31" rx="3" fill="#F8FAFC" stroke="#E5E7EB"/>
<rect x="10.620000000000001" y="30.291999999999998" width="86.954" height="10.386" rx="5.193" fill="#FFFFFF" stroke="#E5E7EB"/>
<text x="18.62" y="37.354479999999995" fill="#6B7280" font-family="Segoe UI, Inter, system-ui, sans-serif" font-size="5.193" font-weight="500">Region</text>
<text x="87.574" y="37.14676" fill="#9CA3AF" font-family="Segoe UI, Inter, system-ui, sans-serif" font-size="4.6737" font-weight="500" text-anchor="end">▾</text>
<rect x="103.574" y="30.291999999999998" width="86.954" height="10.386" rx="5.193" fill="#FFFFFF" stroke="#E5E7EB"/>
<text x="111.574" y="37.354479999999995" fill="#6B7280" font-family="Segoe UI, Inter, system-ui, sans-serif" font-size="5.193" font-weight="500">Period</text>
<text x="180.528" y="37.14676" fill="#9CA3AF" font-family="Segoe UI, Inter, system-ui, sans-serif" font-size="4.6737" font-weight="500" text-anchor="end">▾</text>
<rect x="196.528" y="30.291999999999998" width="86.954" height="10.386" rx="5.193" fill="#FFFFFF" stroke="#E5E7EB"/>
<text x="204.528" y="37.354479999999995" fill="#6B7280" font-family="Segoe UI, Inter, system-ui, sans-serif" font-size="5.193" font-weight="500">Product</text>
<text x="273.48199999999997" y="37.14676" fill="#9CA3AF" font-family="Segoe UI, Inter, system-ui, sans-serif" font-size="4.6737" font-weight="500" text-anchor="end">▾</text>
<rect x="289.48199999999997" y="30.291999999999998" width="86.954" height="10.386" rx="5.193" fill="#FFFFFF" stroke="#E5E7EB"/>
<text x="297.48199999999997" y="37.354479999999995" fill="#6B7280" font-family="Segoe UI, Inter, system-ui, sans-serif" font-size="5.193" font-weight="500">Segment</text>
<text x="366.436" y="37.14676" fill="#9CA3AF" font-family="Segoe UI, Inter, system-ui, sans-serif" font-size="4.6737" font-weight="500" text-anchor="end">▾</text>
<rect x="382.436" y="30.291999999999998" width="86.954" height="10.386" rx="5.193" fill="#FFFFFF" stroke="#E5E7EB"/>
<text x="390.436" y="37.354479999999995" fill="#6B7280" font-family="Segoe UI, Inter, system-ui, sans-serif" font-size="5.193" font-weight="500">Channel</text>
<text x="459.39" y="37.14676" fill="#9CA3AF" font-family="Segoe UI, Inter, system-ui, sans-serif" font-size="4.6737" font-weight="500" text-anchor="end">▾</text>
<rect x="4.62" y="47.6" width="470.77" height="91.44" rx="3" fill="#FFFFFF" stroke="#E5E7EB"/>
<rect x="4.62" y="47.6" width="470.77" height="14" fill="#EFF6FF"/>
<text x="12.620000000000001" y="57.6" fill="#111827" font-family="Segoe UI, Inter, system-ui, sans-serif" font-size="7.5" font-weight="700">Item</text>
<text x="103.574" y="57.6" fill="#111827" font-family="Segoe UI, Inter, system-ui, sans-serif" font-size="7.5" font-weight="700">Value</text>
<text x="194.528" y="57.6" fill="#111827" font-family="Segoe UI, Inter, system-ui, sans-serif" font-size="7.5" font-weight="700">Δ%</text>
<text x="285.48199999999997" y="57.6" fill="#111827" font-family="Segoe UI, Inter, system-ui, sans-serif" font-size="7.5" font-weight="700">Status</text>
<text x="376.436" y="57.6" fill="#111827" font-family="Segoe UI, Inter, system-ui, sans-serif" font-size="7.5" font-weight="700">Trend</text>
<line x1="4.62" y1="61.6" x2="475.39" y2="61.6" stroke="#E5E7EB"/>
<rect x="12.620000000000001" y="64.6" width="63.7" height="4" fill="#6B7280" rx="1" opacity="0.5"/>
<rect x="103.574" y="64.6" width="45.5" height="4" fill="#111827" rx="1" opacity="0.7"/>
<rect x="194.528" y="64.6" width="45.5" height="4" fill="#111827" rx="1" opacity="0.7"/>
<circle cx="291.48199999999997" cy="66.6" r="2.5" fill="#10B981"/>
<polyline points="378.4,64.9 380.4,65.9 382.4,64.6 384.4,66.1 386.4,65.1" fill="none" stroke="#2563EB" stroke-width="1"/>
<rect x="4.62" y="71.6" width="470.77" height="10" fill="#F3F4F6"/>
<rect x="12.620000000000001" y="74.6" width="63.7" height="4" fill="#6B7280" rx="1" opacity="0.5"/>
<rect x="103.574" y="74.6" width="45.5" height="4" fill="#111827" rx="1" opacity="0.7"/>
<rect x="194.528" y="74.6" width="45.5" height="4" fill="#111827" rx="1" opacity="0.7"/>
<circle cx="291.48199999999997" cy="76.6" r="2.5" fill="#F59E0B"/>
<polyline points="378.4,76.4 380.4,75.9 382.4,77.9 384.4,78.1 386.4,78.1" fill="none" stroke="#2563EB" stroke-width="1"/>
<rect x="12.620000000000001" y="84.6" width="63.7" height="4" fill="#6B7280" rx="1" opacity="0.5"/>
<rect x="103.574" y="84.6" width="45.5" height="4" fill="#111827" rx="1" opacity="0.7"/>
<rect x="194.528" y="84.6" width="45.5" height="4" fill="#111827" rx="1" opacity="0.7"/>
<circle cx="291.48199999999997" cy="86.6" r="2.5" fill="#EF4444"/>
<polyline points="378.4,85.0 380.4,87.8 382.4,85.3 384.4,88.4 386.4,84.6" fill="none" stroke="#2563EB" stroke-width="1"/>
<rect x="4.62" y="91.6" width="470.77" height="10" fill="#F3F4F6"/>
<rect x="12.620000000000001" y="94.6" width="63.7" height="4" fill="#6B7280" rx="1" opacity="0.5"/>
<rect x="103.574" y="94.6" width="45.5" height="4" fill="#111827" rx="1" opacity="0.7"/>
<rect x="194.528" y="94.6" width="45.5" height="4" fill="#111827" rx="1" opacity="0.7"/>
<circle cx="291.48199999999997" cy="96.6" r="2.5" fill="#10B981"/>
<polyline points="378.4,96.6 380.4,96.1 382.4,96.5 384.4,95.9 386.4,98.4" fill="none" stroke="#2563EB" stroke-width="1"/>
<rect x="12.620000000000001" y="104.6" width="63.7" height="4" fill="#6B7280" rx="1" opacity="0.5"/>
<rect x="103.574" y="104.6" width="45.5" height="4" fill="#111827" rx="1" opacity="0.7"/>
<rect x="194.528" y="104.6" width="45.5" height="4" fill="#111827" rx="1" opacity="0.7"/>
<circle cx="291.48199999999997" cy="106.6" r="2.5" fill="#F59E0B"/>
<polyline points="378.4,108.1 380.4,105.1 382.4,108.4 384.4,105.0 386.4,106.8" fill="none" stroke="#2563EB" stroke-width="1"/>
<rect x="4.62" y="111.6" width="470.77" height="10" fill="#F3F4F6"/>
<rect x="12.620000000000001" y="114.6" width="63.7" height="4" fill="#6B7280" rx="1" opacity="0.5"/>
<rect x="103.574" y="114.6" width="45.5" height="4" fill="#111827" rx="1" opacity="0.7"/>
<rect x="194.528" y="114.6" width="45.5" height="4" fill="#111827" rx="1" opacity="0.7"/>
<circle cx="291.48199999999997" cy="116.6" r="2.5" fill="#EF4444"/>
<polyline points="378.4,117.3 380.4,114.9 382.4,117.8 384.4,118.4 386.4,117.0" fill="none" stroke="#2563EB" stroke-width="1"/>
<rect x="12.620000000000001" y="124.6" width="63.7" height="4" fill="#6B7280" rx="1" opacity="0.5"/>
<rect x="103.574" y="124.6" width="45.5" height="4" fill="#111827" rx="1" opacity="0.7"/>
<rect x="194.528" y="124.6" width="45.5" height="4" fill="#111827" rx="1" opacity="0.7"/>
<circle cx="291.48199999999997" cy="126.6" r="2.5" fill="#10B981"/>
<polyline points="378.4,127.2 380.4,126.8 382.4,126.4 384.4,126.3 386.4,128.2" fill="none" stroke="#2563EB" stroke-width="1"/>
<rect x="4.62" y="142.5" width="470.77" height="59.71" rx="3" fill="#FFFFFF" stroke="#E5E7EB"/>
<text x="12.620000000000001" y="154.5" fill="#6B7280" font-family="Segoe UI, Inter, system-ui, sans-serif" font-size="8" font-weight="600">Dei Trend</text>
<rect x="21.1" y="178.9" width="39.8" height="15.3" rx="1" fill="#2563EB"/>
<rect x="78.0" y="179.9" width="39.8" height="14.3" rx="1" fill="#60A5FA"/>
<rect x="134.8" y="177.5" width="39.8" height="16.7" rx="1" fill="#2563EB"/>
<rect x="191.7" y="170.9" width="39.8" height="23.3" rx="1" fill="#60A5FA"/>
<rect x="248.5" y="179.1" width="39.8" height="15.1" rx="1" fill="#2563EB"/>
<rect x="305.4" y="180.7" width="39.8" height="13.5" rx="1" fill="#60A5FA"/>
<rect x="362.2" y="172.6" width="39.8" height="21.6" rx="1" fill="#2563EB"/>
<rect x="419.1" y="173.0" width="39.8" height="21.2" rx="1" fill="#60A5FA"/>
<line x1="12.620000000000001" y1="194.21" x2="467.39" y2="194.21" stroke="#E5E7EB"/>
<polyline points="41.0,174.8 97.9,182.3 154.7,173.1 211.6,175.6 268.4,186.8 325.3,183.0 382.1,185.8 439.0,184.8" fill="none" stroke="#F59E0B" stroke-width="1.6"/>
<circle cx="41.0" cy="174.8" r="1.8" fill="#F59E0B"/>
<circle cx="97.9" cy="182.3" r="1.8" fill="#F59E0B"/>
<circle cx="154.7" cy="173.1" r="1.8" fill="#F59E0B"/>
<circle cx="211.6" cy="175.6" r="1.8" fill="#F59E0B"/>
<circle cx="268.4" cy="186.8" r="1.8" fill="#F59E0B"/>
<circle cx="325.3" cy="183.0" r="1.8" fill="#F59E0B"/>
<circle cx="382.1" cy="185.8" r="1.8" fill="#F59E0B"/>
<circle cx="439.0" cy="184.8" r="1.8" fill="#F59E0B"/>
<rect x="4.62" y="205.67" width="232.385" height="59.71" rx="3" fill="#FFFFFF" stroke="#E5E7EB"/>
<text x="12.620000000000001" y="217.67" fill="#6B7280" font-family="Segoe UI, Inter, system-ui, sans-serif" font-size="8" font-weight="600">Supporting Pair L</text>
<polygon points="12.6,257.38 12.6,249.6 28.1,246.3 43.5,237.2 59.0,237.0 74.4,245.0 89.9,241.5 105.4,234.2 120.8,243.2 136.3,241.5 151.7,240.4 167.2,244.2 182.6,241.9 198.1,245.1 213.5,242.1 229.0,248.2 229.0,257.38" fill="#2563EB" opacity="0.18"/>
<polyline points="12.6,249.6 28.1,246.3 43.5,237.2 59.0,237.0 74.4,245.0 89.9,241.5 105.4,234.2 120.8,243.2 136.3,241.5 151.7,240.4 167.2,244.2 182.6,241.9 198.1,245.1 213.5,242.1 229.0,248.2" fill="none" stroke="#2563EB" stroke-width="1.8"/>
<polyline points="12.6,246.7 28.1,240.9 43.5,248.6 59.0,244.4 74.4,243.5 89.9,246.1 105.4,251.4 120.8,245.9 136.3,243.1 151.7,251.7 167.2,247.6 182.6,252.9 198.1,246.1 213.5,250.7 229.0,246.6" fill="none" stroke="#F59E0B" stroke-width="1.3" stroke-dasharray="3 2"/>
<line x1="12.620000000000001" y1="257.38" x2="229.005" y2="257.38" stroke="#E5E7EB"/>
<rect x="243.005" y="205.67" width="232.385" height="59.71" rx="3" fill="#FFFFFF" stroke="#E5E7EB"/>
<text x="251.005" y="217.67" fill="#6B7280" font-family="Segoe UI, Inter, system-ui, sans-serif" font-size="8" font-weight="600">Supporting Pair R</text>
<circle cx="359.2" cy="238.5" r="21.5" fill="none" stroke="#2563EB" stroke-width="7.5" stroke-dasharray="56.73 135.06" stroke-dashoffset="0.00" transform="rotate(-90 359.2 238.5)"/>
<circle cx="359.2" cy="238.5" r="21.5" fill="none" stroke="#F59E0B" stroke-width="7.5" stroke-dasharray="33.77 135.06" stroke-dashoffset="-56.73" transform="rotate(-90 359.2 238.5)"/>
<circle cx="359.2" cy="238.5" r="21.5" fill="none" stroke="#10B981" stroke-width="7.5" stroke-dasharray="24.31 135.06" stroke-dashoffset="-90.49" transform="rotate(-90 359.2 238.5)"/>
<circle cx="359.2" cy="238.5" r="21.5" fill="none" stroke="#93C5FD" stroke-width="7.5" stroke-dasharray="20.26 135.06" stroke-dashoffset="-114.80" transform="rotate(-90 359.2 238.5)"/>
<text x="359.1975" y="241.51049999999998" fill="#111827" font-family="Segoe UI, Inter, system-ui, sans-serif" font-size="9.67302" font-weight="700" text-anchor="middle">100%</text>
<circle cx="465.39" cy="14.620000000000001" r="8" fill="#2563EB" stroke="#FFFFFF" stroke-width="1.5"/>
<text x="465.39" y="17.62" fill="#FFFFFF" font-family="Segoe UI, Inter, system-ui, sans-serif" font-size="8" font-weight="700" text-anchor="middle">1</text>
<circle cx="465.39" cy="36.83" r="8" fill="#2563EB" stroke="#FFFFFF" stroke-width="1.5"/>
<text x="465.39" y="39.83" fill="#FFFFFF" font-family="Segoe UI, Inter, system-ui, sans-serif" font-size="8" font-weight="700" text-anchor="middle">2</text>
<circle cx="465.39" cy="57.6" r="8" fill="#2563EB" stroke="#FFFFFF" stroke-width="1.5"/>
<text x="465.39" y="60.6" fill="#FFFFFF" font-family="Segoe UI, Inter, system-ui, sans-serif" font-size="8" font-weight="700" text-anchor="middle">3</text>
<circle cx="465.39" cy="152.5" r="8" fill="#2563EB" stroke="#FFFFFF" stroke-width="1.5"/>
<text x="465.39" y="155.5" fill="#FFFFFF" font-family="Segoe UI, Inter, system-ui, sans-serif" font-size="8" font-weight="700" text-anchor="middle">4</text>
<circle cx="465.39" cy="215.67" r="8" fill="#2563EB" stroke="#FFFFFF" stroke-width="1.5"/>
<text x="465.39" y="218.67" fill="#FFFFFF" font-family="Segoe UI, Inter, system-ui, sans-serif" font-size="8" font-weight="700" text-anchor="middle">5</text>
<text x="240.0" y="265" fill="#6B7280" font-family="Segoe UI, Inter, system-ui, sans-serif" font-size="7" font-weight="600" text-anchor="middle">hr-dei-scorecard</text>
</svg>