<svg xmlns="http://www.w3.org/2000/svg" viewBox="0 0 480 339" font-family="Segoe UI, Inter, system-ui, sans-serif">
<title>hr-dei-scorecard-a4</title>
<rect x="0" y="0" width="480" height="339" fill="#FFFFFF"/>
<rect x="0" y="0" width="480" height="3" fill="#2563EB"/>
<rect x="6.57" y="6.57" width="466.86" height="23.39" rx="4" fill="#F8FAFC" stroke="#E5E7EB"/>
<rect x="6.57" y="6.57" width="4" height="23.39" rx="2" fill="#2563EB"/>
<text x="20.57" y="21.071800000000003" fill="#111827" font-family="Segoe UI, Inter, system-ui, sans-serif" font-size="11" font-weight="700">Print Header</text>
<rect x="383.43" y="13.119200000000001" width="70" height="10.5" rx="3" fill="#EFF6FF" stroke="#DBEAFE"/>
<text x="418.43" y="22.0074" fill="#6B7280" font-family="Segoe UI, Inter, system-ui, sans-serif" font-size="8.8882" font-weight="500" text-anchor="middle">Q4 · FY26</text>
<rect x="6.57" y="34.88" width="466.86" height="23.39" rx="4" fill="#F8FAFC" stroke="#E5E7EB"/>
<rect x="6.57" y="34.88" width="4" height="23.39" rx="2" fill="#2563EB"/>
<text x="20.57" y="49.381800000000005" fill="#111827" font-family="Segoe UI, Inter, system-ui, sans-serif" font-size="11" font-weight="700">Title Bar</text>
<rect x="383.43" y="41.4292" width="70" height="10.5" rx="3" fill="#EFF6FF" stroke="#DBEAFE"/>
<text x="418.43" y="50.317400000000006" fill="#6B7280" font-family="Segoe UI, Inter, system-ui, sans-serif" font-size="8.8882" font-weight="500" text-anchor="middle">Q4 · FY26</text>
<rect x="6.57" y="63.2" width="466.86" height="21.75" rx="3" fill="#F8FAFC" stroke="#E5E7EB"/>
<rect x="12.57" y="67.55" width="86.172" height="13.049999999999999" rx="6.5249999999999995" fill="#FFFFFF" stroke="#E5E7EB"/>
<text x="20.57" y="76.42399999999999" fill="#6B7280" font-family="Segoe UI, Inter, system-ui, sans-serif" font-size="6.5249999999999995" font-weight="500">Region</text>
<text x="88.74199999999999" y="76.163" fill="#9CA3AF" font-family="Segoe UI, Inter, system-ui, sans-serif" font-size="5.8725" font-weight="500" text-anchor="end">▾</text>
<rect x="104.74199999999999" y="67.55" width="86.172" height="13.049999999999999" rx="6.5249999999999995" fill="#FFFFFF" stroke="#E5E7EB"/>
<text x="112.74199999999999" y="76.42399999999999" fill="#6B7280" font-family="Segoe UI, Inter, system-ui, sans-serif" font-size="6.5249999999999995" font-weight="500">Period</text>
<text x="180.914" y="76.163" fill="#9CA3AF" font-family="Segoe UI, Inter, system-ui, sans-serif" font-size="5.8725" font-weight="500" text-anchor="end">▾</text>
<rect x="196.914" y="67.55" width="86.172" height="13.049999999999999" rx="6.5249999999999995" fill="#FFFFFF" stroke="#E5E7EB"/>
<text x="204.914" y="76.42399999999999" fill="#6B7280" font-family="Segoe UI, Inter, system-ui, sans-serif" font-size="6.5249999999999995" font-weight="500">Product</text>
<text x="273.086" y="76.163" fill="#9CA3AF" font-family="Segoe UI, Inter, system-ui, sans-serif" font-size="5.8725" font-weight="500" text-anchor="end">▾</text>
<rect x="289.08599999999996" y="67.55" width="86.172" height="13.049999999999999" rx="6.5249999999999995" fill="#FFFFFF" stroke="#E5E7EB"/>
<text x="297.08599999999996" y="76.42399999999999" fill="#6B7280" font-family="Segoe UI, Inter, system-ui, sans-serif" font-size="6.5249999999999995" font-weight="500">Segment</text>
<text x="365.2579999999999" y="76.163" fill="#9CA3AF" font-family="Segoe UI, Inter, system-ui, sans-serif" font-size="5.8725" font-weight="500" text-anchor="end">▾</text>
<rect x="381.258" y="67.55" width="86.172" height="13.049999999999999" rx="6.5249999999999995" fill="#FFFFFF" stroke="#E5E7EB"/>
<text x="389.258" y="76.42399999999999" fill="#6B7280" font-family="Segoe UI, Inter, system-ui, sans-serif" font-size="6.5249999999999995" font-weight="500">Channel</text>
<text x="457.42999999999995" y="76.163" fill="#9CA3AF" font-family="Segoe UI, Inter, system-ui, sans-serif" font-size="5.8725" font-weight="500" text-anchor="end">▾</text>
<rect x="6.57" y="89.88" width="466.86" height="86.6" rx="3" fill="#FFFFFF" stroke="#E5E7EB"/>
<rect x="6.57" y="89.88" width="466.86" height="14" fill="#EFF6FF"/>
<text x="14.57" y="99.88" fill="#111827" font-family="Segoe UI, Inter, system-ui, sans-serif" font-size="7.5" font-weight="700">Item</text>
<text x="104.74199999999999" y="99.88" fill="#111827" font-family="Segoe UI, Inter, system-ui, sans-serif" font-size="7.5" font-weight="700">Value</text>
<text x="194.914" y="99.88" fill="#111827" font-family="Segoe UI, Inter, system-ui, sans-serif" font-size="7.5" font-weight="700">Δ%</text>
<text x="285.08599999999996" y="99.88" fill="#111827" font-family="Segoe UI, Inter, system-ui, sans-serif" font-size="7.5" font-weight="700">Status</text>
<text x="375.258" y="99.88" fill="#111827" font-family="Segoe UI, Inter, system-ui, sans-serif" font-size="7.5" font-weight="700">Trend</text>
<line x1="6.57" y1="103.88" x2="473.43" y2="103.88" stroke="#E5E7EB"/>
<rect x="14.57" y="106.88" width="63.1" height="4" fill="#6B7280" rx="1" opacity="0.5"/>
<rect x="104.74199999999999" y="106.88" width="45.1" height="4" fill="#111827" rx="1" opacity="0.7"/>
<rect x="194.914" y="106.88" width="45.1" height="4" fill="#111827" rx="1" opacity="0.7"/>
<circle cx="291.08599999999996" cy="108.88" r="2.5" fill="#10B981"/>
<polyline points="377.3,107.2 379.3,108.1 381.3,106.9 383.3,108.4 385.3,107.4" fill="none" stroke="#2563EB" stroke-width="1"/>
<rect x="6.57" y="113.88" width="466.86" height="10" fill="#F3F4F6"/>
<rect x="14.57" y="116.88" width="63.1" height="4" fill="#6B7280" rx="1" opacity="0.5"/>
<rect x="104.74199999999999" y="116.88" width="45.1" height="4" fill="#111827" rx="1" opacity="0.7"/>
<rect x="194.914" y="116.88" width="45.1" height="4" fill="#111827" rx="1" opacity="0.7"/>
<circle cx="291.08599999999996" cy="118.88" r="2.5" fill="#F59E0B"/>
<polyline points="377.3,118.7 379.3,118.2 381.3,120.1 383.3,120.4 385.3,120.3" fill="none" stroke="#2563EB" stroke-width="1"/>
<rect x="14.57" y="126.88" width="63.1" height="4" fill="#6B7280" rx="1" opacity="0.5"/>
<rect x="104.74199999999999" y="126.88" width="45.1" height="4" fill="#111827" rx="1" opacity="0.7"/>
<rect x="194.914" y="126.88" width="45.1" height="4" fill="#111827" rx="1" opacity="0.7"/>
<circle cx="291.08599999999996" cy="128.88" r="2.5" fill="#EF4444"/>
<polyline points="377.3,127.2 379.3,130.1 381.3,127.5 383.3,130.6 385.3,126.9" fill="none" stroke="#2563EB" stroke-width="1"/>
<rect x="6.57" y="133.88" width="466.86" height="10" fill="#F3F4F6"/>
<rect x="14.57" y="136.88" width="63.1" height="4" fill="#6B7280" rx="1" opacity="0.5"/>
<rect x="104.74199999999999" y="136.88" width="45.1" height="4" fill="#111827" rx="1" opacity="0.7"/>
<rect x="194.914" y="136.88" width="45.1" height="4" fill="#111827" rx="1" opacity="0.7"/>
<circle cx="291.08599999999996" cy="138.88" r="2.5" fill="#10B981"/>
<polyline points="377.3,138.9 379.3,138.4 381.3,138.8 383.3,138.2 385.3,140.6" fill="none" stroke="#2563EB" stroke-width="1"/>
<rect x="14.57" y="146.88" width="63.1" height="4" fill="#6B7280" rx="1" opacity="0.5"/>
<rect x="104.74199999999999" y="146.88" width="45.1" height="4" fill="#111827" rx="1" opacity="0.7"/>
<rect x="194.914" y="146.88" width="45.1" height="4" fill="#111827" rx="1" opacity="0.7"/>
<circle cx="291.08599999999996" cy="148.88" r="2.5" fill="#F59E0B"/>
<polyline points="377.3,150.4 379.3,147.4 381.3,150.7 383.3,147.3 385.3,149.0" fill="none" stroke="#2563EB" stroke-width="1"/>
<rect x="6.57" y="153.88" width="466.86" height="10" fill="#F3F4F6"/>
<rect x="14.57" y="156.88" width="63.1" height="4" fill="#6B7280" rx="1" opacity="0.5"/>
<rect x="104.74199999999999" y="156.88" width="45.1" height="4" fill="#111827" rx="1" opacity="0.7"/>
<rect x="194.914" y="156.88" width="45.1" height="4" fill="#111827" rx="1" opacity="0.7"/>
<circle cx="291.08599999999996" cy="158.88" r="2.5" fill="#EF4444"/>
<polyline points="377.3,159.6 379.3,157.2 381.3,160.1 383.3,160.7 385.3,159.2" fill="none" stroke="#2563EB" stroke-width="1"/>
<rect x="14.57" y="166.88" width="63.1" height="4" fill="#6B7280" rx="1" opacity="0.5"/>
<rect x="104.74199999999999" y="166.88" width="45.1" height="4" fill="#111827" rx="1" opacity="0.7"/>
<rect x="194.914" y="166.88" width="45.1" height="4" fill="#111827" rx="1" opacity="0.7"/>
<circle cx="291.08599999999996" cy="168.88" r="2.5" fill="#10B981"/>
<polyline points="377.3,169.5 379.3,169.1 381.3,168.7 383.3,168.6 385.3,170.5" fill="none" stroke="#2563EB" stroke-width="1"/>
<rect x="6.57" y="181.4" width="466.86" height="56.64" rx="3" fill="#FFFFFF" stroke="#E5E7EB"/>
<text x="14.57" y="193.4" fill="#6B7280" font-family="Segoe UI, Inter, system-ui, sans-serif" font-size="8" font-weight="600">Dei Trend</text>
<rect x="23.0" y="216.3" width="39.5" height="13.8" rx="1" fill="#2563EB"/>
<rect x="79.4" y="217.2" width="39.5" height="12.9" rx="1" fill="#60A5FA"/>
<rect x="135.7" y="215.1" width="39.5" height="14.9" rx="1" fill="#2563EB"/>
<rect x="192.1" y="209.2" width="39.5" height="20.9" rx="1" fill="#60A5FA"/>
<rect x="248.5" y="216.5" width="39.5" height="13.5" rx="1" fill="#2563EB"/>
<rect x="304.8" y="218.0" width="39.5" height="12.1" rx="1" fill="#60A5FA"/>
<rect x="361.2" y="210.7" width="39.5" height="19.4" rx="1" fill="#2563EB"/>
<rect x="417.5" y="211.0" width="39.5" height="19.0" rx="1" fill="#60A5FA"/>
<line x1="14.57" y1="230.04000000000002" x2="465.43" y2="230.04000000000002" stroke="#E5E7EB"/>
<polyline points="42.7,212.6 99.1,219.4 155.5,211.1 211.8,213.3 268.2,223.4 324.5,220.0 380.9,222.5 437.3,221.6" fill="none" stroke="#F59E0B" stroke-width="1.6"/>
<circle cx="42.7" cy="212.6" r="1.8" fill="#F59E0B"/>
<circle cx="99.1" cy="219.4" r="1.8" fill="#F59E0B"/>
<circle cx="155.5" cy="211.1" r="1.8" fill="#F59E0B"/>
<circle cx="211.8" cy="213.3" r="1.8" fill="#F59E0B"/>
<circle cx="268.2" cy="223.4" r="1.8" fill="#F59E0B"/>
<circle cx="324.5" cy="220.0" r="1.8" fill="#F59E0B"/>
<circle cx="380.9" cy="222.5" r="1.8" fill="#F59E0B"/>
<circle cx="437.3" cy="221.6" r="1.8" fill="#F59E0B"/>
<rect x="6.57" y="242.96" width="230.43" height="56.64" rx="3" fill="#FFFFFF" stroke="#E5E7EB"/>
<text x="14.57" y="254.96" fill="#6B7280" font-family="Segoe UI, Inter, system-ui, sans-serif" font-size="8" font-weight="600">Supporting Pair L</text>
<polygon points="14.6,291.6 14.6,284.7 29.9,281.7 45.2,273.7 60.5,273.5 75.8,280.6 91.2,277.5 106.5,271.0 121.8,279.0 137.1,277.5 152.4,276.5 167.7,279.9 183.1,277.8 198.4,280.6 213.7,278.0 229.0,283.5 229.0,291.6" fill="#2563EB" opacity="0.18"/>
<polyline points="14.6,284.7 29.9,281.7 45.2,273.7 60.5,273.5 75.8,280.6 91.2,277.5 106.5,271.0 121.8,279.0 137.1,277.5 152.4,276.5 167.7,279.9 183.1,277.8 198.4,280.6 213.7,278.0 229.0,283.5" fill="none" stroke="#2563EB" stroke-width="1.8"/>
<polyline points="14.6,282.1 29.9,276.9 45.2,283.8 60.5,280.1 75.8,279.2 91.2,281.5 106.5,286.2 121.8,281.4 137.1,278.9 152.4,286.6 167.7,282.9 183.1,287.6 198.4,281.6 213.7,285.6 229.0,282.0" fill="none" stroke="#F59E0B" stroke-width="1.3" stroke-dasharray="3 2"/>
<line x1="14.57" y1="291.6" x2="229.0" y2="291.6" stroke="#E5E7EB"/>
<rect x="243.0" y="242.96" width="230.43" height="56.64" rx="3" fill="#FFFFFF" stroke="#E5E7EB"/>
<text x="251.0" y="254.96" fill="#6B7280" font-family="Segoe UI, Inter, system-ui, sans-serif" font-size="8" font-weight="600">Supporting Pair R</text>
<circle cx="358.2" cy="274.1" r="20.4" fill="none" stroke="#2563EB" stroke-width="7.1" stroke-dasharray="53.81 128.12" stroke-dashoffset="0.00" transform="rotate(-90 358.2 274.1)"/>
<circle cx="358.2" cy="274.1" r="20.4" fill="none" stroke="#F59E0B" stroke-width="7.1" stroke-dasharray="32.03 128.12" stroke-dashoffset="-53.81" transform="rotate(-90 358.2 274.1)"/>
<circle cx="358.2" cy="274.1" r="20.4" fill="none" stroke="#10B981" stroke-width="7.1" stroke-dasharray="23.06 128.12" stroke-dashoffset="-85.84" transform="rotate(-90 358.2 274.1)"/>
<circle cx="358.2" cy="274.1" r="20.4" fill="none" stroke="#93C5FD" stroke-width="7.1" stroke-dasharray="19.22 128.12" stroke-dashoffset="-108.90" transform="rotate(-90 358.2 274.1)"/>
<text x="358.21500000000003" y="277.112" fill="#111827" font-family="Segoe UI, Inter, system-ui, sans-serif" font-size="9.17568" font-weight="700" text-anchor="middle">100%</text>
<rect x="6.57" y="304.53" width="466.86" height="11.49" rx="2" fill="#F8FAFC" stroke="#E5E7EB"/>
<text x="16.57" y="311.9985" fill="#6B7280" font-family="Segoe UI, Inter, system-ui, sans-serif" font-size="6.319500000000001" font-weight="400">Source: Data warehouse · Last refresh 08:15</text>
<text x="413.43" y="311.9985" fill="#6B7280" font-family="Segoe UI, Inter, system-ui, sans-serif" font-size="6.319500000000001" font-weight="500" text-anchor="start">Confidential</text>
<rect x="453.43" y="307.4025" width="14" height="5.7" rx="2" fill="#2563EB" opacity="0.15"/>
<text x="460.43" y="312.573" fill="#2563EB" font-family="Segoe UI, Inter, system-ui, sans-serif" font-size="5.745" font-weight="700" text-anchor="middle">1</text>
<rect x="6.57" y="320.94" width="466.86" height="11.49" rx="2" fill="#F8FAFC" stroke="#E5E7EB"/>
<text x="16.57" y="328.4085" fill="#6B7280" font-family="Segoe UI, Inter, system-ui, sans-serif" font-size="6.319500000000001" font-weight="400">Source: Data warehouse · Last refresh 08:15</text>
<text x="413.43" y="328.4085" fill="#6B7280" font-family="Segoe UI, Inter, system-ui, sans-serif" font-size="6.319500000000001" font-weight="500" text-anchor="start">Confidential</text>
<rect x="453.43" y="323.8125" width="14" height="5.7" rx="2" fill="#2563EB" opacity="0.15"/>
<text x="460.43" y="328.983" fill="#2563EB" font-family="Segoe UI, Inter, system-ui, sans-serif" font-size="5.745" font-weight="700" text-anchor="middle">1</text>
<text x="240.0" y="334" fill="#6B7280" font-family="Segoe UI, Inter, system-ui, sans-serif" font-size="7" font-weight="600" text-anchor="middle">hr-dei-scorecard-a4</text>
</svg>