<svg xmlns="http://www.w3.org/2000/svg" viewBox="0 0 480 270" font-family="Segoe UI, Inter, system-ui, sans-serif">
<title>hr-headcount-attrition</title>
<rect x="0" y="0" width="480" height="270" fill="#FFFFFF"/>
<rect x="0" y="0" width="480" height="3" fill="#2563EB"/>
<rect x="4.62" y="4.62" width="470.77" height="18.75" rx="4" fill="#F8FAFC" stroke="#E5E7EB"/>
<rect x="4.62" y="4.62" width="4" height="18.75" rx="2" fill="#2563EB"/>
<text x="18.62" y="16.245" fill="#111827" font-family="Segoe UI, Inter, system-ui, sans-serif" font-size="10.3125" font-weight="700">Title Bar</text>
<rect x="385.39" y="9.870000000000001" width="70" height="8.4" rx="3" fill="#EFF6FF" stroke="#DBEAFE"/>
<text x="420.39" y="16.995" fill="#6B7280" font-family="Segoe UI, Inter, system-ui, sans-serif" font-size="7.125" font-weight="500" text-anchor="middle">Q4 · FY26</text>
<rect x="4.62" y="26.83" width="470.77" height="17.31" rx="3" fill="#F8FAFC" stroke="#E5E7EB"/>
<rect x="10.620000000000001" y="30.291999999999998" width="86.954" height="10.386" rx="5.193" fill="#FFFFFF" stroke="#E5E7EB"/>
<text x="18.62" y="37.354479999999995" fill="#6B7280" font-family="Segoe UI, Inter, system-ui, sans-serif" font-size="5.193" font-weight="500">Region</text>
<text x="87.574" y="37.14676" fill="#9CA3AF" font-family="Segoe UI, Inter, system-ui, sans-serif" font-size="4.6737" font-weight="500" text-anchor="end">▾</text>
<rect x="103.574" y="30.291999999999998" width="86.954" height="10.386" rx="5.193" fill="#FFFFFF" stroke="#E5E7EB"/>
<text x="111.574" y="37.354479999999995" fill="#6B7280" font-family="Segoe UI, Inter, system-ui, sans-serif" font-size="5.193" font-weight="500">Period</text>
<text x="180.528" y="37.14676" fill="#9CA3AF" font-family="Segoe UI, Inter, system-ui, sans-serif" font-size="4.6737" font-weight="500" text-anchor="end">▾</text>
<rect x="196.528" y="30.291999999999998" width="86.954" height="10.386" rx="5.193" fill="#FFFFFF" stroke="#E5E7EB"/>
<text x="204.528" y="37.354479999999995" fill="#6B7280" font-family="Segoe UI, Inter, system-ui, sans-serif" font-size="5.193" font-weight="500">Product</text>
<text x="273.48199999999997" y="37.14676" fill="#9CA3AF" font-family="Segoe UI, Inter, system-ui, sans-serif" font-size="4.6737" font-weight="500" text-anchor="end">▾</text>
<rect x="289.48199999999997" y="30.291999999999998" width="86.954" height="10.386" rx="5.193" fill="#FFFFFF" stroke="#E5E7EB"/>
<text x="297.48199999999997" y="37.354479999999995" fill="#6B7280" font-family="Segoe UI, Inter, system-ui, sans-serif" font-size="5.193" font-weight="500">Segment</text>
<text x="366.436" y="37.14676" fill="#9CA3AF" font-family="Segoe UI, Inter, system-ui, sans-serif" font-size="4.6737" font-weight="500" text-anchor="end">▾</text>
<rect x="382.436" y="30.291999999999998" width="86.954" height="10.386" rx="5.193" fill="#FFFFFF" stroke="#E5E7EB"/>
<text x="390.436" y="37.354479999999995" fill="#6B7280" font-family="Segoe UI, Inter, system-ui, sans-serif" font-size="5.193" font-weight="500">Channel</text>
<text x="459.39" y="37.14676" fill="#9CA3AF" font-family="Segoe UI, Inter, system-ui, sans-serif" font-size="4.6737" font-weight="500" text-anchor="end">▾</text>
<rect x="10.620000000000001" y="53.6" width="110.1925" height="13.379999999999999" rx="4" fill="#FFFFFF" stroke="#E5E7EB"/>
<rect x="10.620000000000001" y="53.6" width="3" height="13.379999999999999" fill="#2563EB"/>
<text x="18.62" y="58.5436" fill="#6B7280" font-family="Segoe UI, Inter, system-ui, sans-serif" font-size="2.9436" font-weight="500">Revenue</text>
<text x="18.62" y="65.22659999999999" fill="#111827" font-family="Segoe UI, Inter, system-ui, sans-serif" font-size="4.682999999999999" font-weight="700">$1.24M</text>
<rect x="126.8125" y="53.6" width="110.1925" height="13.379999999999999" rx="4" fill="#FFFFFF" stroke="#E5E7EB"/>
<rect x="126.8125" y="53.6" width="3" height="13.379999999999999" fill="#2563EB"/>
<text x="134.8125" y="58.5436" fill="#6B7280" font-family="Segoe UI, Inter, system-ui, sans-serif" font-size="2.9436" font-weight="500">Orders</text>
<text x="134.8125" y="65.22659999999999" fill="#111827" font-family="Segoe UI, Inter, system-ui, sans-serif" font-size="4.682999999999999" font-weight="700">48,912</text>
<rect x="243.005" y="53.6" width="110.1925" height="13.379999999999999" rx="4" fill="#FFFFFF" stroke="#E5E7EB"/>
<rect x="243.005" y="53.6" width="3" height="13.379999999999999" fill="#2563EB"/>
<text x="251.005" y="58.5436" fill="#6B7280" font-family="Segoe UI, Inter, system-ui, sans-serif" font-size="2.9436" font-weight="500">Margin</text>
<text x="251.005" y="65.22659999999999" fill="#111827" font-family="Segoe UI, Inter, system-ui, sans-serif" font-size="4.682999999999999" font-weight="700">38.2%</text>
<rect x="359.1975" y="53.6" width="110.1925" height="13.379999999999999" rx="4" fill="#FFFFFF" stroke="#E5E7EB"/>
<rect x="359.1975" y="53.6" width="3" height="13.379999999999999" fill="#2563EB"/>
<text x="367.1975" y="58.5436" fill="#6B7280" font-family="Segoe UI, Inter, system-ui, sans-serif" font-size="2.9436" font-weight="500">CSAT</text>
<text x="367.1975" y="65.22659999999999" fill="#111827" font-family="Segoe UI, Inter, system-ui, sans-serif" font-size="4.682999999999999" font-weight="700">4.7 / 5</text>
<rect x="4.62" y="76.44" width="270.29" height="92.88" rx="3" fill="#FFFFFF" stroke="#E5E7EB"/>
<text x="12.620000000000001" y="88.44" fill="#6B7280" font-family="Segoe UI, Inter, system-ui, sans-serif" font-size="8" font-weight="600">Headcount Bridge</text>
<rect x="17.0" y="120.4" width="27.6" height="8.5" fill="#2563EB"/>
<rect x="53.3" y="109.8" width="27.6" height="10.6" fill="#10B981"/>
<line x1="48.9" y1="120.4" x2="53.3" y2="120.4" stroke="#9CA3AF" stroke-dasharray="2 2"/>
<rect x="89.6" y="106.3" width="27.6" height="3.6" fill="#10B981"/>
<line x1="85.3" y1="109.8" x2="89.6" y2="109.8" stroke="#9CA3AF" stroke-dasharray="2 2"/>
<rect x="126.0" y="106.3" width="27.6" height="4.0" fill="#EF4444"/>
<line x1="121.6" y1="106.3" x2="126.0" y2="106.3" stroke="#9CA3AF" stroke-dasharray="2 2"/>
<rect x="162.3" y="100.4" width="27.6" height="9.9" fill="#10B981"/>
<line x1="157.9" y1="110.3" x2="162.3" y2="110.3" stroke="#9CA3AF" stroke-dasharray="2 2"/>
<rect x="198.6" y="100.4" width="27.6" height="7.6" fill="#EF4444"/>
<line x1="194.3" y1="100.4" x2="198.6" y2="100.4" stroke="#9CA3AF" stroke-dasharray="2 2"/>
<rect x="234.9" y="108.1" width="27.6" height="9.9" fill="#2563EB"/>
<line x1="230.6" y1="108.1" x2="234.9" y2="108.1" stroke="#9CA3AF" stroke-dasharray="2 2"/>
<rect x="279.52" y="76.44" width="195.87" height="92.88" rx="3" fill="#FFFFFF" stroke="#E5E7EB"/>
<text x="287.52" y="88.44" fill="#6B7280" font-family="Segoe UI, Inter, system-ui, sans-serif" font-size="8" font-weight="600">Attrition Waterfall</text>
<rect x="290.6" y="126.5" width="19.5" height="3.0" fill="#2563EB"/>
<rect x="316.3" y="122.2" width="19.5" height="4.3" fill="#10B981"/>
<line x1="313.2" y1="126.5" x2="316.3" y2="126.5" stroke="#9CA3AF" stroke-dasharray="2 2"/>
<rect x="342.0" y="112.0" width="19.5" height="10.2" fill="#10B981"/>
<line x1="338.9" y1="122.2" x2="342.0" y2="122.2" stroke="#9CA3AF" stroke-dasharray="2 2"/>
<rect x="367.7" y="104.9" width="19.5" height="7.1" fill="#10B981"/>
<line x1="364.6" y1="112.0" x2="367.7" y2="112.0" stroke="#9CA3AF" stroke-dasharray="2 2"/>
<rect x="393.4" y="104.9" width="19.5" height="9.7" fill="#EF4444"/>
<line x1="390.3" y1="104.9" x2="393.4" y2="104.9" stroke="#9CA3AF" stroke-dasharray="2 2"/>
<rect x="419.1" y="106.6" width="19.5" height="7.9" fill="#10B981"/>
<line x1="416.0" y1="114.6" x2="419.1" y2="114.6" stroke="#9CA3AF" stroke-dasharray="2 2"/>
<rect x="444.8" y="105.5" width="19.5" height="3.0" fill="#2563EB"/>
<line x1="441.7" y1="106.6" x2="444.8" y2="106.6" stroke="#9CA3AF" stroke-dasharray="2 2"/>
<rect x="4.62" y="172.79" width="470.77" height="92.6" rx="3" fill="#FFFFFF" stroke="#E5E7EB"/>
<text x="12.620000000000001" y="184.79" fill="#6B7280" font-family="Segoe UI, Inter, system-ui, sans-serif" font-size="8" font-weight="600">Exit Reason Bar</text>
<rect x="21.1" y="217.3" width="39.8" height="40.1" rx="1" fill="#2563EB"/>
<rect x="78.0" y="229.1" width="39.8" height="28.2" rx="1" fill="#60A5FA"/>
<rect x="134.8" y="228.8" width="39.8" height="28.5" rx="1" fill="#2563EB"/>
<rect x="191.7" y="225.1" width="39.8" height="32.3" rx="1" fill="#60A5FA"/>
<rect x="248.5" y="205.5" width="39.8" height="51.9" rx="1" fill="#2563EB"/>
<rect x="305.4" y="210.0" width="39.8" height="47.4" rx="1" fill="#60A5FA"/>
<rect x="362.2" y="201.6" width="39.8" height="55.8" rx="1" fill="#2563EB"/>
<rect x="419.1" y="224.9" width="39.8" height="32.5" rx="1" fill="#60A5FA"/>
<line x1="12.620000000000001" y1="257.39" x2="467.39" y2="257.39" stroke="#E5E7EB"/>
<text x="240.0" y="265" fill="#6B7280" font-family="Segoe UI, Inter, system-ui, sans-serif" font-size="7" font-weight="600" text-anchor="middle">hr-headcount-attrition</text>
</svg>