<svg xmlns="http://www.w3.org/2000/svg" viewBox="0 0 480 270" font-family="Segoe UI, Inter, system-ui, sans-serif">
<title>it-incident-postmortem</title>
<rect x="0" y="0" width="480" height="270" fill="#0F172A"/>
<rect x="0" y="0" width="480" height="3" fill="#38BDF8"/>
<rect x="4.62" y="4.62" width="470.77" height="18.75" rx="4" fill="#111827" stroke="#334155"/>
<rect x="4.62" y="4.62" width="4" height="18.75" rx="2" fill="#38BDF8"/>
<text x="18.62" y="16.245" fill="#F1F5F9" font-family="Segoe UI, Inter, system-ui, sans-serif" font-size="10.3125" font-weight="700">Title Bar</text>
<rect x="385.39" y="9.870000000000001" width="70" height="8.4" rx="3" fill="#0C2A4A" stroke="#1E40AF"/>
<text x="420.39" y="16.995" fill="#94A3B8" font-family="Segoe UI, Inter, system-ui, sans-serif" font-size="7.125" font-weight="500" text-anchor="middle">Q4 · FY26</text>
<rect x="4.62" y="26.83" width="470.77" height="17.31" rx="3" fill="#111827" stroke="#334155"/>
<rect x="10.620000000000001" y="30.291999999999998" width="86.954" height="10.386" rx="5.193" fill="#1E293B" stroke="#334155"/>
<text x="18.62" y="37.354479999999995" fill="#94A3B8" font-family="Segoe UI, Inter, system-ui, sans-serif" font-size="5.193" font-weight="500">Region</text>
<text x="87.574" y="37.14676" fill="#64748B" font-family="Segoe UI, Inter, system-ui, sans-serif" font-size="4.6737" font-weight="500" text-anchor="end">▾</text>
<rect x="103.574" y="30.291999999999998" width="86.954" height="10.386" rx="5.193" fill="#1E293B" stroke="#334155"/>
<text x="111.574" y="37.354479999999995" fill="#94A3B8" font-family="Segoe UI, Inter, system-ui, sans-serif" font-size="5.193" font-weight="500">Period</text>
<text x="180.528" y="37.14676" fill="#64748B" font-family="Segoe UI, Inter, system-ui, sans-serif" font-size="4.6737" font-weight="500" text-anchor="end">▾</text>
<rect x="196.528" y="30.291999999999998" width="86.954" height="10.386" rx="5.193" fill="#1E293B" stroke="#334155"/>
<text x="204.528" y="37.354479999999995" fill="#94A3B8" font-family="Segoe UI, Inter, system-ui, sans-serif" font-size="5.193" font-weight="500">Product</text>
<text x="273.48199999999997" y="37.14676" fill="#64748B" font-family="Segoe UI, Inter, system-ui, sans-serif" font-size="4.6737" font-weight="500" text-anchor="end">▾</text>
<rect x="289.48199999999997" y="30.291999999999998" width="86.954" height="10.386" rx="5.193" fill="#1E293B" stroke="#334155"/>
<text x="297.48199999999997" y="37.354479999999995" fill="#94A3B8" font-family="Segoe UI, Inter, system-ui, sans-serif" font-size="5.193" font-weight="500">Segment</text>
<text x="366.436" y="37.14676" fill="#64748B" font-family="Segoe UI, Inter, system-ui, sans-serif" font-size="4.6737" font-weight="500" text-anchor="end">▾</text>
<rect x="382.436" y="30.291999999999998" width="86.954" height="10.386" rx="5.193" fill="#1E293B" stroke="#334155"/>
<text x="390.436" y="37.354479999999995" fill="#94A3B8" font-family="Segoe UI, Inter, system-ui, sans-serif" font-size="5.193" font-weight="500">Channel</text>
<text x="459.39" y="37.14676" fill="#64748B" font-family="Segoe UI, Inter, system-ui, sans-serif" font-size="4.6737" font-weight="500" text-anchor="end">▾</text>
<rect x="10.620000000000001" y="53.6" width="110.1925" height="13.379999999999999" rx="4" fill="#1E293B" stroke="#334155"/>
<rect x="10.620000000000001" y="53.6" width="3" height="13.379999999999999" fill="#38BDF8"/>
<text x="18.62" y="58.5436" fill="#94A3B8" font-family="Segoe UI, Inter, system-ui, sans-serif" font-size="2.9436" font-weight="500">Revenue</text>
<text x="18.62" y="65.22659999999999" fill="#F1F5F9" font-family="Segoe UI, Inter, system-ui, sans-serif" font-size="4.682999999999999" font-weight="700">$1.24M</text>
<rect x="126.8125" y="53.6" width="110.1925" height="13.379999999999999" rx="4" fill="#1E293B" stroke="#334155"/>
<rect x="126.8125" y="53.6" width="3" height="13.379999999999999" fill="#38BDF8"/>
<text x="134.8125" y="58.5436" fill="#94A3B8" font-family="Segoe UI, Inter, system-ui, sans-serif" font-size="2.9436" font-weight="500">Orders</text>
<text x="134.8125" y="65.22659999999999" fill="#F1F5F9" font-family="Segoe UI, Inter, system-ui, sans-serif" font-size="4.682999999999999" font-weight="700">48,912</text>
<rect x="243.005" y="53.6" width="110.1925" height="13.379999999999999" rx="4" fill="#1E293B" stroke="#334155"/>
<rect x="243.005" y="53.6" width="3" height="13.379999999999999" fill="#38BDF8"/>
<text x="251.005" y="58.5436" fill="#94A3B8" font-family="Segoe UI, Inter, system-ui, sans-serif" font-size="2.9436" font-weight="500">Margin</text>
<text x="251.005" y="65.22659999999999" fill="#F1F5F9" font-family="Segoe UI, Inter, system-ui, sans-serif" font-size="4.682999999999999" font-weight="700">38.2%</text>
<rect x="359.1975" y="53.6" width="110.1925" height="13.379999999999999" rx="4" fill="#1E293B" stroke="#334155"/>
<rect x="359.1975" y="53.6" width="3" height="13.379999999999999" fill="#38BDF8"/>
<text x="367.1975" y="58.5436" fill="#94A3B8" font-family="Segoe UI, Inter, system-ui, sans-serif" font-size="2.9436" font-weight="500">CSAT</text>
<text x="367.1975" y="65.22659999999999" fill="#F1F5F9" font-family="Segoe UI, Inter, system-ui, sans-serif" font-size="4.682999999999999" font-weight="700">4.7 / 5</text>
<rect x="4.62" y="76.44" width="270.29" height="121.15" rx="3" fill="#1E293B" stroke="#334155"/>
<text x="12.620000000000001" y="88.44" fill="#94A3B8" font-family="Segoe UI, Inter, system-ui, sans-serif" font-size="8" font-weight="600">Incident Timeline</text>
<polygon points="12.6,189.59 12.6,126.6 30.8,158.8 48.9,137.4 67.1,150.9 85.3,150.7 103.4,146.4 121.6,165.8 139.8,150.4 157.9,120.0 176.1,159.6 194.3,160.8 212.4,123.3 230.6,137.2 248.7,159.4 266.9,130.9 266.9,189.59" fill="#38BDF8" opacity="0.18"/>
<polyline points="12.6,126.6 30.8,158.8 48.9,137.4 67.1,150.9 85.3,150.7 103.4,146.4 121.6,165.8 139.8,150.4 157.9,120.0 176.1,159.6 194.3,160.8 212.4,123.3 230.6,137.2 248.7,159.4 266.9,130.9" fill="none" stroke="#38BDF8" stroke-width="1.8"/>
<polyline points="12.6,153.0 30.8,160.6 48.9,175.3 67.1,167.7 85.3,138.6 103.4,142.0 121.6,156.5 139.8,175.6 157.9,153.5 176.1,166.4 194.3,156.0 212.4,175.1 230.6,152.1 248.7,137.2 266.9,152.3" fill="none" stroke="#FBBF24" stroke-width="1.3" stroke-dasharray="3 2"/>
<line x1="12.620000000000001" y1="189.59" x2="266.91" y2="189.59" stroke="#334155"/>
<rect x="279.52" y="76.44" width="195.87" height="121.15" rx="3" fill="#1E293B" stroke="#334155"/>
<text x="287.52" y="88.44" fill="#94A3B8" font-family="Segoe UI, Inter, system-ui, sans-serif" font-size="8" font-weight="600">Rca Pareto</text>
<rect x="290.9" y="116.0" width="15.7" height="73.5" rx="1" fill="#38BDF8"/>
<rect x="313.4" y="154.4" width="15.7" height="35.2" rx="1" fill="#60A5FA"/>
<rect x="335.9" y="124.0" width="15.7" height="65.6" rx="1" fill="#38BDF8"/>
<rect x="358.3" y="136.8" width="15.7" height="52.8" rx="1" fill="#60A5FA"/>
<rect x="380.8" y="128.1" width="15.7" height="61.5" rx="1" fill="#38BDF8"/>
<rect x="403.3" y="124.4" width="15.7" height="65.2" rx="1" fill="#60A5FA"/>
<rect x="425.8" y="152.1" width="15.7" height="37.5" rx="1" fill="#38BDF8"/>
<rect x="448.3" y="144.6" width="15.7" height="45.0" rx="1" fill="#60A5FA"/>
<line x1="287.52" y1="189.59" x2="467.39" y2="189.59" stroke="#334155"/>
<polyline points="298.8,135.8 321.2,148.1 343.7,171.3 366.2,133.4 388.7,159.5 411.2,169.9 433.7,124.8 456.1,131.7" fill="none" stroke="#FBBF24" stroke-width="1.6"/>
<circle cx="298.8" cy="135.8" r="1.8" fill="#FBBF24"/>
<circle cx="321.2" cy="148.1" r="1.8" fill="#FBBF24"/>
<circle cx="343.7" cy="171.3" r="1.8" fill="#FBBF24"/>
<circle cx="366.2" cy="133.4" r="1.8" fill="#FBBF24"/>
<circle cx="388.7" cy="159.5" r="1.8" fill="#FBBF24"/>
<circle cx="411.2" cy="169.9" r="1.8" fill="#FBBF24"/>
<circle cx="433.7" cy="124.8" r="1.8" fill="#FBBF24"/>
<circle cx="456.1" cy="131.7" r="1.8" fill="#FBBF24"/>
<rect x="4.62" y="201.06" width="232.385" height="64.33" rx="3" fill="#1E293B" stroke="#334155"/>
<text x="12.620000000000001" y="213.06" fill="#94A3B8" font-family="Segoe UI, Inter, system-ui, sans-serif" font-size="8" font-weight="600">Supporting Pair L</text>
<polygon points="12.6,257.39 12.6,248.3 28.1,244.4 43.5,233.9 59.0,233.6 74.4,242.9 89.9,238.9 105.4,230.4 120.8,240.8 136.3,238.9 151.7,237.6 167.2,242.0 182.6,239.3 198.1,243.0 213.5,239.5 229.0,246.7 229.0,257.39" fill="#38BDF8" opacity="0.18"/>
<polyline points="12.6,248.3 28.1,244.4 43.5,233.9 59.0,233.6 74.4,242.9 89.9,238.9 105.4,230.4 120.8,240.8 136.3,238.9 151.7,237.6 167.2,242.0 182.6,239.3 198.1,243.0 213.5,239.5 229.0,246.7" fill="none" stroke="#38BDF8" stroke-width="1.8"/>
<polyline points="12.6,244.9 28.1,238.1 43.5,247.1 59.0,242.3 74.4,241.2 89.9,244.2 105.4,250.4 120.8,244.0 136.3,240.7 151.7,250.8 167.2,245.9 182.6,252.1 198.1,244.2 213.5,249.6 229.0,244.8" fill="none" stroke="#FBBF24" stroke-width="1.3" stroke-dasharray="3 2"/>
<line x1="12.620000000000001" y1="257.39" x2="229.005" y2="257.39" stroke="#334155"/>
<rect x="243.005" y="201.06" width="232.385" height="64.33" rx="3" fill="#1E293B" stroke="#334155"/>
<text x="251.005" y="213.06" fill="#94A3B8" font-family="Segoe UI, Inter, system-ui, sans-serif" font-size="8" font-weight="600">Supporting Pair R</text>
<circle cx="359.2" cy="236.4" r="23.2" fill="none" stroke="#38BDF8" stroke-width="8.1" stroke-dasharray="61.11 145.51" stroke-dashoffset="0.00" transform="rotate(-90 359.2 236.4)"/>
<circle cx="359.2" cy="236.4" r="23.2" fill="none" stroke="#FBBF24" stroke-width="8.1" stroke-dasharray="36.38 145.51" stroke-dashoffset="-61.11" transform="rotate(-90 359.2 236.4)"/>
<circle cx="359.2" cy="236.4" r="23.2" fill="none" stroke="#34D399" stroke-width="8.1" stroke-dasharray="26.19 145.51" stroke-dashoffset="-97.49" transform="rotate(-90 359.2 236.4)"/>
<circle cx="359.2" cy="236.4" r="23.2" fill="none" stroke="#7DD3FC" stroke-width="8.1" stroke-dasharray="21.83 145.51" stroke-dashoffset="-123.68" transform="rotate(-90 359.2 236.4)"/>
<text x="359.1975" y="239.44150000000002" fill="#F1F5F9" font-family="Segoe UI, Inter, system-ui, sans-serif" font-size="10.42146" font-weight="700" text-anchor="middle">100%</text>
<text x="240.0" y="265" fill="#94A3B8" font-family="Segoe UI, Inter, system-ui, sans-serif" font-size="7" font-weight="600" text-anchor="middle">it-incident-postmortem</text>
</svg>