<svg xmlns="http://www.w3.org/2000/svg" viewBox="0 0 480 270" font-family="Segoe UI, Inter, system-ui, sans-serif">
<title>it-sla-heatmap</title>
<rect x="0" y="0" width="480" height="270" fill="#FFFFFF"/>
<rect x="0" y="0" width="480" height="3" fill="#2563EB"/>
<rect x="4.62" y="4.62" width="470.77" height="18.75" rx="4" fill="#F8FAFC" stroke="#E5E7EB"/>
<rect x="4.62" y="4.62" width="4" height="18.75" rx="2" fill="#2563EB"/>
<text x="18.62" y="16.245" fill="#111827" font-family="Segoe UI, Inter, system-ui, sans-serif" font-size="10.3125" font-weight="700">Title Bar</text>
<rect x="385.39" y="9.870000000000001" width="70" height="8.4" rx="3" fill="#EFF6FF" stroke="#DBEAFE"/>
<text x="420.39" y="16.995" fill="#6B7280" font-family="Segoe UI, Inter, system-ui, sans-serif" font-size="7.125" font-weight="500" text-anchor="middle">Q4 · FY26</text>
<rect x="4.62" y="26.83" width="470.77" height="17.31" rx="3" fill="#F8FAFC" stroke="#E5E7EB"/>
<rect x="10.620000000000001" y="30.291999999999998" width="86.954" height="10.386" rx="5.193" fill="#FFFFFF" stroke="#E5E7EB"/>
<text x="18.62" y="37.354479999999995" fill="#6B7280" font-family="Segoe UI, Inter, system-ui, sans-serif" font-size="5.193" font-weight="500">Region</text>
<text x="87.574" y="37.14676" fill="#9CA3AF" font-family="Segoe UI, Inter, system-ui, sans-serif" font-size="4.6737" font-weight="500" text-anchor="end">▾</text>
<rect x="103.574" y="30.291999999999998" width="86.954" height="10.386" rx="5.193" fill="#FFFFFF" stroke="#E5E7EB"/>
<text x="111.574" y="37.354479999999995" fill="#6B7280" font-family="Segoe UI, Inter, system-ui, sans-serif" font-size="5.193" font-weight="500">Period</text>
<text x="180.528" y="37.14676" fill="#9CA3AF" font-family="Segoe UI, Inter, system-ui, sans-serif" font-size="4.6737" font-weight="500" text-anchor="end">▾</text>
<rect x="196.528" y="30.291999999999998" width="86.954" height="10.386" rx="5.193" fill="#FFFFFF" stroke="#E5E7EB"/>
<text x="204.528" y="37.354479999999995" fill="#6B7280" font-family="Segoe UI, Inter, system-ui, sans-serif" font-size="5.193" font-weight="500">Product</text>
<text x="273.48199999999997" y="37.14676" fill="#9CA3AF" font-family="Segoe UI, Inter, system-ui, sans-serif" font-size="4.6737" font-weight="500" text-anchor="end">▾</text>
<rect x="289.48199999999997" y="30.291999999999998" width="86.954" height="10.386" rx="5.193" fill="#FFFFFF" stroke="#E5E7EB"/>
<text x="297.48199999999997" y="37.354479999999995" fill="#6B7280" font-family="Segoe UI, Inter, system-ui, sans-serif" font-size="5.193" font-weight="500">Segment</text>
<text x="366.436" y="37.14676" fill="#9CA3AF" font-family="Segoe UI, Inter, system-ui, sans-serif" font-size="4.6737" font-weight="500" text-anchor="end">▾</text>
<rect x="382.436" y="30.291999999999998" width="86.954" height="10.386" rx="5.193" fill="#FFFFFF" stroke="#E5E7EB"/>
<text x="390.436" y="37.354479999999995" fill="#6B7280" font-family="Segoe UI, Inter, system-ui, sans-serif" font-size="5.193" font-weight="500">Channel</text>
<text x="459.39" y="37.14676" fill="#9CA3AF" font-family="Segoe UI, Inter, system-ui, sans-serif" font-size="4.6737" font-weight="500" text-anchor="end">▾</text>
<rect x="4.62" y="47.6" width="270.29" height="118.27" rx="3" fill="#FFFFFF" stroke="#E5E7EB"/>
<text x="12.620000000000001" y="59.6" fill="#6B7280" font-family="Segoe UI, Inter, system-ui, sans-serif" font-size="8" font-weight="600">Sla Service Heatmap</text>
<rect x="12.6" y="65.6" width="20.2" height="10.5" fill="#F59E0B" opacity="0.15"/>
<rect x="33.8" y="65.6" width="20.2" height="10.5" fill="#2563EB" opacity="0.51"/>
<rect x="55.0" y="65.6" width="20.2" height="10.5" fill="#2563EB" opacity="0.61"/>
<rect x="76.2" y="65.6" width="20.2" height="10.5" fill="#2563EB" opacity="0.47"/>
<rect x="97.4" y="65.6" width="20.2" height="10.5" fill="#F59E0B" opacity="0.18"/>
<rect x="118.6" y="65.6" width="20.2" height="10.5" fill="#F59E0B" opacity="0.15"/>
<rect x="139.8" y="65.6" width="20.2" height="10.5" fill="#2563EB" opacity="0.54"/>
<rect x="161.0" y="65.6" width="20.2" height="10.5" fill="#F59E0B" opacity="0.18"/>
<rect x="182.1" y="65.6" width="20.2" height="10.5" fill="#2563EB" opacity="0.49"/>
<rect x="203.3" y="65.6" width="20.2" height="10.5" fill="#F59E0B" opacity="0.30"/>
<rect x="224.5" y="65.6" width="20.2" height="10.5" fill="#2563EB" opacity="0.34"/>
<rect x="245.7" y="65.6" width="20.2" height="10.5" fill="#F59E0B" opacity="0.20"/>
<rect x="12.6" y="77.1" width="20.2" height="10.5" fill="#F59E0B" opacity="0.20"/>
<rect x="33.8" y="77.1" width="20.2" height="10.5" fill="#F59E0B" opacity="0.15"/>
<rect x="55.0" y="77.1" width="20.2" height="10.5" fill="#2563EB" opacity="0.44"/>
<rect x="76.2" y="77.1" width="20.2" height="10.5" fill="#F59E0B" opacity="0.30"/>
<rect x="97.4" y="77.1" width="20.2" height="10.5" fill="#2563EB" opacity="0.40"/>
<rect x="118.6" y="77.1" width="20.2" height="10.5" fill="#F59E0B" opacity="0.15"/>
<rect x="139.8" y="77.1" width="20.2" height="10.5" fill="#F59E0B" opacity="0.27"/>
<rect x="161.0" y="77.1" width="20.2" height="10.5" fill="#F59E0B" opacity="0.20"/>
<rect x="182.1" y="77.1" width="20.2" height="10.5" fill="#2563EB" opacity="0.49"/>
<rect x="203.3" y="77.1" width="20.2" height="10.5" fill="#F59E0B" opacity="0.28"/>
<rect x="224.5" y="77.1" width="20.2" height="10.5" fill="#2563EB" opacity="0.37"/>
<rect x="245.7" y="77.1" width="20.2" height="10.5" fill="#F59E0B" opacity="0.22"/>
<rect x="12.6" y="88.7" width="20.2" height="10.5" fill="#F59E0B" opacity="0.21"/>
<rect x="33.8" y="88.7" width="20.2" height="10.5" fill="#F59E0B" opacity="0.15"/>
<rect x="55.0" y="88.7" width="20.2" height="10.5" fill="#2563EB" opacity="0.44"/>
<rect x="76.2" y="88.7" width="20.2" height="10.5" fill="#F59E0B" opacity="0.16"/>
<rect x="97.4" y="88.7" width="20.2" height="10.5" fill="#F59E0B" opacity="0.32"/>
<rect x="118.6" y="88.7" width="20.2" height="10.5" fill="#2563EB" opacity="0.60"/>
<rect x="139.8" y="88.7" width="20.2" height="10.5" fill="#F59E0B" opacity="0.19"/>
<rect x="161.0" y="88.7" width="20.2" height="10.5" fill="#2563EB" opacity="0.45"/>
<rect x="182.1" y="88.7" width="20.2" height="10.5" fill="#2563EB" opacity="0.41"/>
<rect x="203.3" y="88.7" width="20.2" height="10.5" fill="#2563EB" opacity="0.45"/>
<rect x="224.5" y="88.7" width="20.2" height="10.5" fill="#2563EB" opacity="0.42"/>
<rect x="245.7" y="88.7" width="20.2" height="10.5" fill="#F59E0B" opacity="0.33"/>
<rect x="12.6" y="100.2" width="20.2" height="10.5" fill="#F59E0B" opacity="0.28"/>
<rect x="33.8" y="100.2" width="20.2" height="10.5" fill="#F59E0B" opacity="0.22"/>
<rect x="55.0" y="100.2" width="20.2" height="10.5" fill="#F59E0B" opacity="0.27"/>
<rect x="76.2" y="100.2" width="20.2" height="10.5" fill="#2563EB" opacity="0.41"/>
<rect x="97.4" y="100.2" width="20.2" height="10.5" fill="#2563EB" opacity="0.45"/>
<rect x="118.6" y="100.2" width="20.2" height="10.5" fill="#F59E0B" opacity="0.17"/>
<rect x="139.8" y="100.2" width="20.2" height="10.5" fill="#2563EB" opacity="0.48"/>
<rect x="161.0" y="100.2" width="20.2" height="10.5" fill="#2563EB" opacity="0.44"/>
<rect x="182.1" y="100.2" width="20.2" height="10.5" fill="#2563EB" opacity="0.39"/>
<rect x="203.3" y="100.2" width="20.2" height="10.5" fill="#2563EB" opacity="0.40"/>
<rect x="224.5" y="100.2" width="20.2" height="10.5" fill="#2563EB" opacity="0.45"/>
<rect x="245.7" y="100.2" width="20.2" height="10.5" fill="#2563EB" opacity="0.34"/>
<rect x="12.6" y="111.7" width="20.2" height="10.5" fill="#F59E0B" opacity="0.17"/>
<rect x="33.8" y="111.7" width="20.2" height="10.5" fill="#F59E0B" opacity="0.16"/>
<rect x="55.0" y="111.7" width="20.2" height="10.5" fill="#F59E0B" opacity="0.15"/>
<rect x="76.2" y="111.7" width="20.2" height="10.5" fill="#F59E0B" opacity="0.15"/>
<rect x="97.4" y="111.7" width="20.2" height="10.5" fill="#2563EB" opacity="0.39"/>
<rect x="118.6" y="111.7" width="20.2" height="10.5" fill="#F59E0B" opacity="0.30"/>
<rect x="139.8" y="111.7" width="20.2" height="10.5" fill="#2563EB" opacity="0.66"/>
<rect x="161.0" y="111.7" width="20.2" height="10.5" fill="#2563EB" opacity="0.53"/>
<rect x="182.1" y="111.7" width="20.2" height="10.5" fill="#2563EB" opacity="0.48"/>
<rect x="203.3" y="111.7" width="20.2" height="10.5" fill="#F59E0B" opacity="0.15"/>
<rect x="224.5" y="111.7" width="20.2" height="10.5" fill="#F59E0B" opacity="0.23"/>
<rect x="245.7" y="111.7" width="20.2" height="10.5" fill="#F59E0B" opacity="0.28"/>
<rect x="12.6" y="123.3" width="20.2" height="10.5" fill="#F59E0B" opacity="0.18"/>
<rect x="33.8" y="123.3" width="20.2" height="10.5" fill="#F59E0B" opacity="0.15"/>
<rect x="55.0" y="123.3" width="20.2" height="10.5" fill="#F59E0B" opacity="0.15"/>
<rect x="76.2" y="123.3" width="20.2" height="10.5" fill="#F59E0B" opacity="0.15"/>
<rect x="97.4" y="123.3" width="20.2" height="10.5" fill="#F59E0B" opacity="0.20"/>
<rect x="118.6" y="123.3" width="20.2" height="10.5" fill="#2563EB" opacity="0.59"/>
<rect x="139.8" y="123.3" width="20.2" height="10.5" fill="#F59E0B" opacity="0.25"/>
<rect x="161.0" y="123.3" width="20.2" height="10.5" fill="#2563EB" opacity="0.38"/>
<rect x="182.1" y="123.3" width="20.2" height="10.5" fill="#2563EB" opacity="0.35"/>
<rect x="203.3" y="123.3" width="20.2" height="10.5" fill="#F59E0B" opacity="0.19"/>
<rect x="224.5" y="123.3" width="20.2" height="10.5" fill="#2563EB" opacity="0.47"/>
<rect x="245.7" y="123.3" width="20.2" height="10.5" fill="#F59E0B" opacity="0.19"/>
<rect x="12.6" y="134.8" width="20.2" height="10.5" fill="#F59E0B" opacity="0.17"/>
<rect x="33.8" y="134.8" width="20.2" height="10.5" fill="#F59E0B" opacity="0.25"/>
<rect x="55.0" y="134.8" width="20.2" height="10.5" fill="#F59E0B" opacity="0.20"/>
<rect x="76.2" y="134.8" width="20.2" height="10.5" fill="#F59E0B" opacity="0.18"/>
<rect x="97.4" y="134.8" width="20.2" height="10.5" fill="#F59E0B" opacity="0.28"/>
<rect x="118.6" y="134.8" width="20.2" height="10.5" fill="#F59E0B" opacity="0.18"/>
<rect x="139.8" y="134.8" width="20.2" height="10.5" fill="#2563EB" opacity="0.36"/>
<rect x="161.0" y="134.8" width="20.2" height="10.5" fill="#F59E0B" opacity="0.15"/>
<rect x="182.1" y="134.8" width="20.2" height="10.5" fill="#2563EB" opacity="0.45"/>
<rect x="203.3" y="134.8" width="20.2" height="10.5" fill="#2563EB" opacity="0.45"/>
<rect x="224.5" y="134.8" width="20.2" height="10.5" fill="#2563EB" opacity="0.61"/>
<rect x="245.7" y="134.8" width="20.2" height="10.5" fill="#F59E0B" opacity="0.31"/>
<rect x="12.6" y="146.3" width="20.2" height="10.5" fill="#F59E0B" opacity="0.17"/>
<rect x="33.8" y="146.3" width="20.2" height="10.5" fill="#F59E0B" opacity="0.28"/>
<rect x="55.0" y="146.3" width="20.2" height="10.5" fill="#F59E0B" opacity="0.19"/>
<rect x="76.2" y="146.3" width="20.2" height="10.5" fill="#F59E0B" opacity="0.20"/>
<rect x="97.4" y="146.3" width="20.2" height="10.5" fill="#F59E0B" opacity="0.15"/>
<rect x="118.6" y="146.3" width="20.2" height="10.5" fill="#F59E0B" opacity="0.16"/>
<rect x="139.8" y="146.3" width="20.2" height="10.5" fill="#F59E0B" opacity="0.17"/>
<rect x="161.0" y="146.3" width="20.2" height="10.5" fill="#2563EB" opacity="0.61"/>
<rect x="182.1" y="146.3" width="20.2" height="10.5" fill="#2563EB" opacity="0.63"/>
<rect x="203.3" y="146.3" width="20.2" height="10.5" fill="#2563EB" opacity="0.61"/>
<rect x="224.5" y="146.3" width="20.2" height="10.5" fill="#2563EB" opacity="0.50"/>
<rect x="245.7" y="146.3" width="20.2" height="10.5" fill="#F59E0B" opacity="0.24"/>
<rect x="279.52" y="47.6" width="195.87" height="118.27" rx="3" fill="#FFFFFF" stroke="#E5E7EB"/>
<text x="287.52" y="59.6" fill="#6B7280" font-family="Segoe UI, Inter, system-ui, sans-serif" font-size="8" font-weight="600">Uptime Rings</text>
<polygon points="287.5,157.87 287.5,123.4 300.4,110.9 313.2,106.9 326.1,89.5 338.9,93.6 351.8,135.0 364.6,89.4 377.5,97.8 390.3,90.1 403.2,131.7 416.0,103.9 428.8,87.4 441.7,105.2 454.5,107.8 467.4,88.1 467.4,157.87" fill="#2563EB" opacity="0.18"/>
<polyline points="287.5,123.4 300.4,110.9 313.2,106.9 326.1,89.5 338.9,93.6 351.8,135.0 364.6,89.4 377.5,97.8 390.3,90.1 403.2,131.7 416.0,103.9 428.8,87.4 441.7,105.2 454.5,107.8 467.4,88.1" fill="none" stroke="#2563EB" stroke-width="1.8"/>
<polyline points="287.5,112.7 300.4,128.2 313.2,111.9 326.1,128.5 338.9,134.9 351.8,132.5 364.6,117.3 377.5,110.2 390.3,132.3 403.2,132.0 416.0,138.5 428.8,112.5 441.7,139.0 454.5,120.2 467.4,106.3" fill="none" stroke="#F59E0B" stroke-width="1.3" stroke-dasharray="3 2"/>
<line x1="287.52" y1="157.87" x2="467.39" y2="157.87" stroke="#E5E7EB"/>
<rect x="4.62" y="169.33" width="470.77" height="96.06" rx="3" fill="#FFFFFF" stroke="#E5E7EB"/>
<rect x="4.62" y="169.33" width="470.77" height="14" fill="#EFF6FF"/>
<text x="12.620000000000001" y="179.33" fill="#111827" font-family="Segoe UI, Inter, system-ui, sans-serif" font-size="7.5" font-weight="700">Item</text>
<text x="103.574" y="179.33" fill="#111827" font-family="Segoe UI, Inter, system-ui, sans-serif" font-size="7.5" font-weight="700">Value</text>
<text x="194.528" y="179.33" fill="#111827" font-family="Segoe UI, Inter, system-ui, sans-serif" font-size="7.5" font-weight="700">Δ%</text>
<text x="285.48199999999997" y="179.33" fill="#111827" font-family="Segoe UI, Inter, system-ui, sans-serif" font-size="7.5" font-weight="700">Status</text>
<text x="376.436" y="179.33" fill="#111827" font-family="Segoe UI, Inter, system-ui, sans-serif" font-size="7.5" font-weight="700">Trend</text>
<line x1="4.62" y1="183.33" x2="475.39" y2="183.33" stroke="#E5E7EB"/>
<rect x="12.620000000000001" y="186.33" width="63.7" height="4" fill="#6B7280" rx="1" opacity="0.5"/>
<rect x="103.574" y="186.33" width="45.5" height="4" fill="#111827" rx="1" opacity="0.7"/>
<rect x="194.528" y="186.33" width="45.5" height="4" fill="#111827" rx="1" opacity="0.7"/>
<circle cx="291.48199999999997" cy="188.33" r="2.5" fill="#10B981"/>
<polyline points="378.4,186.6 380.4,188.6 382.4,186.4 384.4,189.1 386.4,188.7" fill="none" stroke="#2563EB" stroke-width="1"/>
<rect x="4.62" y="193.33" width="470.77" height="10" fill="#F3F4F6"/>
<rect x="12.620000000000001" y="196.33" width="63.7" height="4" fill="#6B7280" rx="1" opacity="0.5"/>
<rect x="103.574" y="196.33" width="45.5" height="4" fill="#111827" rx="1" opacity="0.7"/>
<rect x="194.528" y="196.33" width="45.5" height="4" fill="#111827" rx="1" opacity="0.7"/>
<circle cx="291.48199999999997" cy="198.33" r="2.5" fill="#F59E0B"/>
<polyline points="378.4,198.2 380.4,196.5 382.4,196.7 384.4,196.6 386.4,197.4" fill="none" stroke="#2563EB" stroke-width="1"/>
<rect x="12.620000000000001" y="206.33" width="63.7" height="4" fill="#6B7280" rx="1" opacity="0.5"/>
<rect x="103.574" y="206.33" width="45.5" height="4" fill="#111827" rx="1" opacity="0.7"/>
<rect x="194.528" y="206.33" width="45.5" height="4" fill="#111827" rx="1" opacity="0.7"/>
<circle cx="291.48199999999997" cy="208.33" r="2.5" fill="#EF4444"/>
<polyline points="378.4,208.1 380.4,208.3 382.4,208.0 384.4,206.9 386.4,206.9" fill="none" stroke="#2563EB" stroke-width="1"/>
<rect x="4.62" y="213.33" width="470.77" height="10" fill="#F3F4F6"/>
<rect x="12.620000000000001" y="216.33" width="63.7" height="4" fill="#6B7280" rx="1" opacity="0.5"/>
<rect x="103.574" y="216.33" width="45.5" height="4" fill="#111827" rx="1" opacity="0.7"/>
<rect x="194.528" y="216.33" width="45.5" height="4" fill="#111827" rx="1" opacity="0.7"/>
<circle cx="291.48199999999997" cy="218.33" r="2.5" fill="#10B981"/>
<polyline points="378.4,217.3 380.4,216.4 382.4,218.7 384.4,219.7 386.4,219.9" fill="none" stroke="#2563EB" stroke-width="1"/>
<rect x="12.620000000000001" y="226.33" width="63.7" height="4" fill="#6B7280" rx="1" opacity="0.5"/>
<rect x="103.574" y="226.33" width="45.5" height="4" fill="#111827" rx="1" opacity="0.7"/>
<rect x="194.528" y="226.33" width="45.5" height="4" fill="#111827" rx="1" opacity="0.7"/>
<circle cx="291.48199999999997" cy="228.33" r="2.5" fill="#F59E0B"/>
<polyline points="378.4,227.0 380.4,230.1 382.4,228.2 384.4,229.5 386.4,228.0" fill="none" stroke="#2563EB" stroke-width="1"/>
<rect x="4.62" y="233.33" width="470.77" height="10" fill="#F3F4F6"/>
<rect x="12.620000000000001" y="236.33" width="63.7" height="4" fill="#6B7280" rx="1" opacity="0.5"/>
<rect x="103.574" y="236.33" width="45.5" height="4" fill="#111827" rx="1" opacity="0.7"/>
<rect x="194.528" y="236.33" width="45.5" height="4" fill="#111827" rx="1" opacity="0.7"/>
<circle cx="291.48199999999997" cy="238.33" r="2.5" fill="#EF4444"/>
<polyline points="378.4,239.9 380.4,236.6 382.4,239.6 384.4,236.6 386.4,239.1" fill="none" stroke="#2563EB" stroke-width="1"/>
<rect x="12.620000000000001" y="246.33" width="63.7" height="4" fill="#6B7280" rx="1" opacity="0.5"/>
<rect x="103.574" y="246.33" width="45.5" height="4" fill="#111827" rx="1" opacity="0.7"/>
<rect x="194.528" y="246.33" width="45.5" height="4" fill="#111827" rx="1" opacity="0.7"/>
<circle cx="291.48199999999997" cy="248.33" r="2.5" fill="#10B981"/>
<polyline points="378.4,248.9 380.4,250.2 382.4,246.8 384.4,249.5 386.4,250.0" fill="none" stroke="#2563EB" stroke-width="1"/>
<rect x="4.62" y="253.33" width="470.77" height="10" fill="#F3F4F6"/>
<rect x="12.620000000000001" y="256.33000000000004" width="63.7" height="4" fill="#6B7280" rx="1" opacity="0.5"/>
<rect x="103.574" y="256.33000000000004" width="45.5" height="4" fill="#111827" rx="1" opacity="0.7"/>
<rect x="194.528" y="256.33000000000004" width="45.5" height="4" fill="#111827" rx="1" opacity="0.7"/>
<circle cx="291.48199999999997" cy="258.33000000000004" r="2.5" fill="#F59E0B"/>
<polyline points="378.4,259.4 380.4,258.1 382.4,256.8 384.4,257.8 386.4,256.8" fill="none" stroke="#2563EB" stroke-width="1"/>
<circle cx="465.39" cy="14.620000000000001" r="8" fill="#2563EB" stroke="#FFFFFF" stroke-width="1.5"/>
<text x="465.39" y="17.62" fill="#FFFFFF" font-family="Segoe UI, Inter, system-ui, sans-serif" font-size="8" font-weight="700" text-anchor="middle">1</text>
<circle cx="465.39" cy="36.83" r="8" fill="#2563EB" stroke="#FFFFFF" stroke-width="1.5"/>
<text x="465.39" y="39.83" fill="#FFFFFF" font-family="Segoe UI, Inter, system-ui, sans-serif" font-size="8" font-weight="700" text-anchor="middle">2</text>
<circle cx="264.91" cy="57.6" r="8" fill="#2563EB" stroke="#FFFFFF" stroke-width="1.5"/>
<text x="264.91" y="60.6" fill="#FFFFFF" font-family="Segoe UI, Inter, system-ui, sans-serif" font-size="8" font-weight="700" text-anchor="middle">3</text>
<circle cx="465.39" cy="57.6" r="8" fill="#2563EB" stroke="#FFFFFF" stroke-width="1.5"/>
<text x="465.39" y="60.6" fill="#FFFFFF" font-family="Segoe UI, Inter, system-ui, sans-serif" font-size="8" font-weight="700" text-anchor="middle">4</text>
<circle cx="465.39" cy="179.33" r="8" fill="#2563EB" stroke="#FFFFFF" stroke-width="1.5"/>
<text x="465.39" y="182.33" fill="#FFFFFF" font-family="Segoe UI, Inter, system-ui, sans-serif" font-size="8" font-weight="700" text-anchor="middle">5</text>
<text x="240.0" y="265" fill="#6B7280" font-family="Segoe UI, Inter, system-ui, sans-serif" font-size="7" font-weight="600" text-anchor="middle">it-sla-heatmap</text>
</svg>