<svg xmlns="http://www.w3.org/2000/svg" viewBox="0 0 480 270" font-family="Segoe UI, Inter, system-ui, sans-serif">
<title>it-sla-heatmap-tv</title>
<rect x="0" y="0" width="480" height="270" fill="#0F172A"/>
<rect x="0" y="0" width="480" height="3" fill="#38BDF8"/>
<rect x="4.0" y="4.0" width="472.0" height="18.75" rx="4" fill="#111827" stroke="#334155"/>
<rect x="4.0" y="4.0" width="4" height="18.75" rx="2" fill="#38BDF8"/>
<text x="18.0" y="15.625" fill="#F1F5F9" font-family="Segoe UI, Inter, system-ui, sans-serif" font-size="10.3125" font-weight="700">Tv Headline</text>
<rect x="386.0" y="9.25" width="70" height="8.4" rx="3" fill="#0C2A4A" stroke="#1E40AF"/>
<text x="421.0" y="16.375" fill="#94A3B8" font-family="Segoe UI, Inter, system-ui, sans-serif" font-size="7.125" font-weight="500" text-anchor="middle">Q4 · FY26</text>
<rect x="4.0" y="25.75" width="472.0" height="18.75" rx="4" fill="#111827" stroke="#334155"/>
<rect x="4.0" y="25.75" width="4" height="18.75" rx="2" fill="#38BDF8"/>
<text x="18.0" y="37.375" fill="#F1F5F9" font-family="Segoe UI, Inter, system-ui, sans-serif" font-size="10.3125" font-weight="700">Title Bar</text>
<rect x="386.0" y="31.0" width="70" height="8.4" rx="3" fill="#0C2A4A" stroke="#1E40AF"/>
<text x="421.0" y="38.125" fill="#94A3B8" font-family="Segoe UI, Inter, system-ui, sans-serif" font-size="7.125" font-weight="500" text-anchor="middle">Q4 · FY26</text>
<rect x="4.0" y="47.5" width="472.0" height="17.5" rx="3" fill="#111827" stroke="#334155"/>
<rect x="10.0" y="51.0" width="87.2" height="10.5" rx="5.25" fill="#1E293B" stroke="#334155"/>
<text x="18.0" y="58.14" fill="#94A3B8" font-family="Segoe UI, Inter, system-ui, sans-serif" font-size="5.25" font-weight="500">Region</text>
<text x="87.2" y="57.93" fill="#64748B" font-family="Segoe UI, Inter, system-ui, sans-serif" font-size="4.7250000000000005" font-weight="500" text-anchor="end">▾</text>
<rect x="103.2" y="51.0" width="87.2" height="10.5" rx="5.25" fill="#1E293B" stroke="#334155"/>
<text x="111.2" y="58.14" fill="#94A3B8" font-family="Segoe UI, Inter, system-ui, sans-serif" font-size="5.25" font-weight="500">Period</text>
<text x="180.4" y="57.93" fill="#64748B" font-family="Segoe UI, Inter, system-ui, sans-serif" font-size="4.7250000000000005" font-weight="500" text-anchor="end">▾</text>
<rect x="196.4" y="51.0" width="87.2" height="10.5" rx="5.25" fill="#1E293B" stroke="#334155"/>
<text x="204.4" y="58.14" fill="#94A3B8" font-family="Segoe UI, Inter, system-ui, sans-serif" font-size="5.25" font-weight="500">Product</text>
<text x="273.6" y="57.93" fill="#64748B" font-family="Segoe UI, Inter, system-ui, sans-serif" font-size="4.7250000000000005" font-weight="500" text-anchor="end">▾</text>
<rect x="289.6" y="51.0" width="87.2" height="10.5" rx="5.25" fill="#1E293B" stroke="#334155"/>
<text x="297.6" y="58.14" fill="#94A3B8" font-family="Segoe UI, Inter, system-ui, sans-serif" font-size="5.25" font-weight="500">Segment</text>
<text x="366.8" y="57.93" fill="#64748B" font-family="Segoe UI, Inter, system-ui, sans-serif" font-size="4.7250000000000005" font-weight="500" text-anchor="end">▾</text>
<rect x="382.8" y="51.0" width="87.2" height="10.5" rx="5.25" fill="#1E293B" stroke="#334155"/>
<text x="390.8" y="58.14" fill="#94A3B8" font-family="Segoe UI, Inter, system-ui, sans-serif" font-size="5.25" font-weight="500">Channel</text>
<text x="460.0" y="57.93" fill="#64748B" font-family="Segoe UI, Inter, system-ui, sans-serif" font-size="4.7250000000000005" font-weight="500" text-anchor="end">▾</text>
<rect x="4.0" y="68.0" width="271.25" height="100.75" rx="3" fill="#1E293B" stroke="#334155"/>
<text x="12.0" y="80.0" fill="#94A3B8" font-family="Segoe UI, Inter, system-ui, sans-serif" font-size="8" font-weight="600">Sla Service Heatmap</text>
<rect x="12.0" y="86.0" width="20.3" height="11.5" fill="#FBBF24" opacity="0.15"/>
<rect x="33.3" y="86.0" width="20.3" height="11.5" fill="#38BDF8" opacity="0.51"/>
<rect x="54.5" y="86.0" width="20.3" height="11.5" fill="#38BDF8" opacity="0.61"/>
<rect x="75.8" y="86.0" width="20.3" height="11.5" fill="#38BDF8" opacity="0.47"/>
<rect x="97.1" y="86.0" width="20.3" height="11.5" fill="#FBBF24" opacity="0.18"/>
<rect x="118.4" y="86.0" width="20.3" height="11.5" fill="#FBBF24" opacity="0.15"/>
<rect x="139.6" y="86.0" width="20.3" height="11.5" fill="#38BDF8" opacity="0.54"/>
<rect x="160.9" y="86.0" width="20.3" height="11.5" fill="#FBBF24" opacity="0.18"/>
<rect x="182.2" y="86.0" width="20.3" height="11.5" fill="#38BDF8" opacity="0.49"/>
<rect x="203.4" y="86.0" width="20.3" height="11.5" fill="#FBBF24" opacity="0.30"/>
<rect x="224.7" y="86.0" width="20.3" height="11.5" fill="#38BDF8" opacity="0.34"/>
<rect x="246.0" y="86.0" width="20.3" height="11.5" fill="#FBBF24" opacity="0.20"/>
<rect x="12.0" y="98.5" width="20.3" height="11.5" fill="#FBBF24" opacity="0.20"/>
<rect x="33.3" y="98.5" width="20.3" height="11.5" fill="#FBBF24" opacity="0.15"/>
<rect x="54.5" y="98.5" width="20.3" height="11.5" fill="#38BDF8" opacity="0.44"/>
<rect x="75.8" y="98.5" width="20.3" height="11.5" fill="#FBBF24" opacity="0.30"/>
<rect x="97.1" y="98.5" width="20.3" height="11.5" fill="#38BDF8" opacity="0.40"/>
<rect x="118.4" y="98.5" width="20.3" height="11.5" fill="#FBBF24" opacity="0.15"/>
<rect x="139.6" y="98.5" width="20.3" height="11.5" fill="#FBBF24" opacity="0.27"/>
<rect x="160.9" y="98.5" width="20.3" height="11.5" fill="#FBBF24" opacity="0.20"/>
<rect x="182.2" y="98.5" width="20.3" height="11.5" fill="#38BDF8" opacity="0.49"/>
<rect x="203.4" y="98.5" width="20.3" height="11.5" fill="#FBBF24" opacity="0.28"/>
<rect x="224.7" y="98.5" width="20.3" height="11.5" fill="#38BDF8" opacity="0.37"/>
<rect x="246.0" y="98.5" width="20.3" height="11.5" fill="#FBBF24" opacity="0.22"/>
<rect x="12.0" y="110.9" width="20.3" height="11.5" fill="#FBBF24" opacity="0.21"/>
<rect x="33.3" y="110.9" width="20.3" height="11.5" fill="#FBBF24" opacity="0.15"/>
<rect x="54.5" y="110.9" width="20.3" height="11.5" fill="#38BDF8" opacity="0.44"/>
<rect x="75.8" y="110.9" width="20.3" height="11.5" fill="#FBBF24" opacity="0.16"/>
<rect x="97.1" y="110.9" width="20.3" height="11.5" fill="#FBBF24" opacity="0.32"/>
<rect x="118.4" y="110.9" width="20.3" height="11.5" fill="#38BDF8" opacity="0.60"/>
<rect x="139.6" y="110.9" width="20.3" height="11.5" fill="#FBBF24" opacity="0.19"/>
<rect x="160.9" y="110.9" width="20.3" height="11.5" fill="#38BDF8" opacity="0.45"/>
<rect x="182.2" y="110.9" width="20.3" height="11.5" fill="#38BDF8" opacity="0.41"/>
<rect x="203.4" y="110.9" width="20.3" height="11.5" fill="#38BDF8" opacity="0.45"/>
<rect x="224.7" y="110.9" width="20.3" height="11.5" fill="#38BDF8" opacity="0.42"/>
<rect x="246.0" y="110.9" width="20.3" height="11.5" fill="#FBBF24" opacity="0.33"/>
<rect x="12.0" y="123.4" width="20.3" height="11.5" fill="#FBBF24" opacity="0.28"/>
<rect x="33.3" y="123.4" width="20.3" height="11.5" fill="#FBBF24" opacity="0.22"/>
<rect x="54.5" y="123.4" width="20.3" height="11.5" fill="#FBBF24" opacity="0.27"/>
<rect x="75.8" y="123.4" width="20.3" height="11.5" fill="#38BDF8" opacity="0.41"/>
<rect x="97.1" y="123.4" width="20.3" height="11.5" fill="#38BDF8" opacity="0.45"/>
<rect x="118.4" y="123.4" width="20.3" height="11.5" fill="#FBBF24" opacity="0.17"/>
<rect x="139.6" y="123.4" width="20.3" height="11.5" fill="#38BDF8" opacity="0.48"/>
<rect x="160.9" y="123.4" width="20.3" height="11.5" fill="#38BDF8" opacity="0.44"/>
<rect x="182.2" y="123.4" width="20.3" height="11.5" fill="#38BDF8" opacity="0.39"/>
<rect x="203.4" y="123.4" width="20.3" height="11.5" fill="#38BDF8" opacity="0.40"/>
<rect x="224.7" y="123.4" width="20.3" height="11.5" fill="#38BDF8" opacity="0.45"/>
<rect x="246.0" y="123.4" width="20.3" height="11.5" fill="#38BDF8" opacity="0.34"/>
<rect x="12.0" y="135.8" width="20.3" height="11.5" fill="#FBBF24" opacity="0.17"/>
<rect x="33.3" y="135.8" width="20.3" height="11.5" fill="#FBBF24" opacity="0.16"/>
<rect x="54.5" y="135.8" width="20.3" height="11.5" fill="#FBBF24" opacity="0.15"/>
<rect x="75.8" y="135.8" width="20.3" height="11.5" fill="#FBBF24" opacity="0.15"/>
<rect x="97.1" y="135.8" width="20.3" height="11.5" fill="#38BDF8" opacity="0.39"/>
<rect x="118.4" y="135.8" width="20.3" height="11.5" fill="#FBBF24" opacity="0.30"/>
<rect x="139.6" y="135.8" width="20.3" height="11.5" fill="#38BDF8" opacity="0.66"/>
<rect x="160.9" y="135.8" width="20.3" height="11.5" fill="#38BDF8" opacity="0.53"/>
<rect x="182.2" y="135.8" width="20.3" height="11.5" fill="#38BDF8" opacity="0.48"/>
<rect x="203.4" y="135.8" width="20.3" height="11.5" fill="#FBBF24" opacity="0.15"/>
<rect x="224.7" y="135.8" width="20.3" height="11.5" fill="#FBBF24" opacity="0.23"/>
<rect x="246.0" y="135.8" width="20.3" height="11.5" fill="#FBBF24" opacity="0.28"/>
<rect x="12.0" y="148.3" width="20.3" height="11.5" fill="#FBBF24" opacity="0.18"/>
<rect x="33.3" y="148.3" width="20.3" height="11.5" fill="#FBBF24" opacity="0.15"/>
<rect x="54.5" y="148.3" width="20.3" height="11.5" fill="#FBBF24" opacity="0.15"/>
<rect x="75.8" y="148.3" width="20.3" height="11.5" fill="#FBBF24" opacity="0.15"/>
<rect x="97.1" y="148.3" width="20.3" height="11.5" fill="#FBBF24" opacity="0.20"/>
<rect x="118.4" y="148.3" width="20.3" height="11.5" fill="#38BDF8" opacity="0.59"/>
<rect x="139.6" y="148.3" width="20.3" height="11.5" fill="#FBBF24" opacity="0.25"/>
<rect x="160.9" y="148.3" width="20.3" height="11.5" fill="#38BDF8" opacity="0.38"/>
<rect x="182.2" y="148.3" width="20.3" height="11.5" fill="#38BDF8" opacity="0.35"/>
<rect x="203.4" y="148.3" width="20.3" height="11.5" fill="#FBBF24" opacity="0.19"/>
<rect x="224.7" y="148.3" width="20.3" height="11.5" fill="#38BDF8" opacity="0.47"/>
<rect x="246.0" y="148.3" width="20.3" height="11.5" fill="#FBBF24" opacity="0.19"/>
<rect x="279.25" y="68.0" width="196.75" height="100.75" rx="3" fill="#1E293B" stroke="#334155"/>
<text x="287.25" y="80.0" fill="#94A3B8" font-family="Segoe UI, Inter, system-ui, sans-serif" font-size="8" font-weight="600">Uptime Rings</text>
<polygon points="287.2,160.75 287.2,133.3 300.2,123.3 313.1,120.1 326.0,106.2 338.9,109.5 351.8,142.6 364.7,106.2 377.6,112.9 390.5,106.7 403.4,139.9 416.4,117.7 429.3,104.6 442.2,118.8 455.1,120.9 468.0,105.2 468.0,160.75" fill="#38BDF8" opacity="0.18"/>
<polyline points="287.2,133.3 300.2,123.3 313.1,120.1 326.0,106.2 338.9,109.5 351.8,142.6 364.7,106.2 377.6,112.9 390.5,106.7 403.4,139.9 416.4,117.7 429.3,104.6 442.2,118.8 455.1,120.9 468.0,105.2" fill="none" stroke="#38BDF8" stroke-width="1.8"/>
<polyline points="287.2,124.8 300.2,137.1 313.1,124.1 326.0,137.4 338.9,142.5 351.8,140.6 364.7,128.4 377.6,122.7 390.5,140.4 403.4,140.1 416.4,145.3 429.3,124.6 442.2,145.7 455.1,130.7 468.0,119.6" fill="none" stroke="#FBBF24" stroke-width="1.3" stroke-dasharray="3 2"/>
<line x1="287.25" y1="160.75" x2="468.0" y2="160.75" stroke="#334155"/>
<rect x="4.0" y="171.75" width="472.0" height="82.0" rx="3" fill="#1E293B" stroke="#334155"/>
<rect x="4.0" y="171.75" width="472.0" height="14" fill="#0C2A4A"/>
<text x="12.0" y="181.75" fill="#F1F5F9" font-family="Segoe UI, Inter, system-ui, sans-serif" font-size="7.5" font-weight="700">Item</text>
<text x="103.2" y="181.75" fill="#F1F5F9" font-family="Segoe UI, Inter, system-ui, sans-serif" font-size="7.5" font-weight="700">Value</text>
<text x="194.4" y="181.75" fill="#F1F5F9" font-family="Segoe UI, Inter, system-ui, sans-serif" font-size="7.5" font-weight="700">Δ%</text>
<text x="285.6" y="181.75" fill="#F1F5F9" font-family="Segoe UI, Inter, system-ui, sans-serif" font-size="7.5" font-weight="700">Status</text>
<text x="376.8" y="181.75" fill="#F1F5F9" font-family="Segoe UI, Inter, system-ui, sans-serif" font-size="7.5" font-weight="700">Trend</text>
<line x1="4.0" y1="185.75" x2="476.0" y2="185.75" stroke="#334155"/>
<rect x="12.0" y="188.75" width="63.8" height="4" fill="#94A3B8" rx="1" opacity="0.5"/>
<rect x="103.2" y="188.75" width="45.6" height="4" fill="#F1F5F9" rx="1" opacity="0.7"/>
<rect x="194.4" y="188.75" width="45.6" height="4" fill="#F1F5F9" rx="1" opacity="0.7"/>
<circle cx="291.6" cy="190.75" r="2.5" fill="#34D399"/>
<polyline points="378.8,189.0 380.8,191.0 382.8,188.8 384.8,191.5 386.8,191.1" fill="none" stroke="#38BDF8" stroke-width="1"/>
<rect x="4.0" y="195.75" width="472.0" height="10" fill="#1F2937"/>
<rect x="12.0" y="198.75" width="63.8" height="4" fill="#94A3B8" rx="1" opacity="0.5"/>
<rect x="103.2" y="198.75" width="45.6" height="4" fill="#F1F5F9" rx="1" opacity="0.7"/>
<rect x="194.4" y="198.75" width="45.6" height="4" fill="#F1F5F9" rx="1" opacity="0.7"/>
<circle cx="291.6" cy="200.75" r="2.5" fill="#FBBF24"/>
<polyline points="378.8,200.6 380.8,198.9 382.8,199.1 384.8,199.0 386.8,199.8" fill="none" stroke="#38BDF8" stroke-width="1"/>
<rect x="12.0" y="208.75" width="63.8" height="4" fill="#94A3B8" rx="1" opacity="0.5"/>
<rect x="103.2" y="208.75" width="45.6" height="4" fill="#F1F5F9" rx="1" opacity="0.7"/>
<rect x="194.4" y="208.75" width="45.6" height="4" fill="#F1F5F9" rx="1" opacity="0.7"/>
<circle cx="291.6" cy="210.75" r="2.5" fill="#F87171"/>
<polyline points="378.8,210.5 380.8,210.7 382.8,210.4 384.8,209.4 386.8,209.3" fill="none" stroke="#38BDF8" stroke-width="1"/>
<rect x="4.0" y="215.75" width="472.0" height="10" fill="#1F2937"/>
<rect x="12.0" y="218.75" width="63.8" height="4" fill="#94A3B8" rx="1" opacity="0.5"/>
<rect x="103.2" y="218.75" width="45.6" height="4" fill="#F1F5F9" rx="1" opacity="0.7"/>
<rect x="194.4" y="218.75" width="45.6" height="4" fill="#F1F5F9" rx="1" opacity="0.7"/>
<circle cx="291.6" cy="220.75" r="2.5" fill="#34D399"/>
<polyline points="378.8,219.7 380.8,218.8 382.8,221.1 384.8,222.1 386.8,222.4" fill="none" stroke="#38BDF8" stroke-width="1"/>
<rect x="12.0" y="228.75" width="63.8" height="4" fill="#94A3B8" rx="1" opacity="0.5"/>
<rect x="103.2" y="228.75" width="45.6" height="4" fill="#F1F5F9" rx="1" opacity="0.7"/>
<rect x="194.4" y="228.75" width="45.6" height="4" fill="#F1F5F9" rx="1" opacity="0.7"/>
<circle cx="291.6" cy="230.75" r="2.5" fill="#FBBF24"/>
<polyline points="378.8,229.4 380.8,232.5 382.8,230.7 384.8,231.9 386.8,230.4" fill="none" stroke="#38BDF8" stroke-width="1"/>
<rect x="4.0" y="235.75" width="472.0" height="10" fill="#1F2937"/>
<rect x="12.0" y="238.75" width="63.8" height="4" fill="#94A3B8" rx="1" opacity="0.5"/>
<rect x="103.2" y="238.75" width="45.6" height="4" fill="#F1F5F9" rx="1" opacity="0.7"/>
<rect x="194.4" y="238.75" width="45.6" height="4" fill="#F1F5F9" rx="1" opacity="0.7"/>
<circle cx="291.6" cy="240.75" r="2.5" fill="#F87171"/>
<polyline points="378.8,242.3 380.8,239.1 382.8,242.0 384.8,239.0 386.8,241.5" fill="none" stroke="#38BDF8" stroke-width="1"/>
<rect x="4.0" y="256.75" width="472.0" height="9.25" rx="3" fill="#F87171" opacity="0.08" stroke="#F87171" stroke-opacity="0.35"/>
<rect x="4.0" y="256.75" width="3" height="9.25" fill="#F87171"/>
<circle cx="18.0" cy="261.375" r="3" fill="#F87171"/>
<text x="28.0" y="264.375" fill="#F87171" font-family="Segoe UI, Inter, system-ui, sans-serif" font-size="5.0875" font-weight="600">ALERT · Line 3 downtime 4m · exception queue +12</text>
<text x="240.0" y="265" fill="#94A3B8" font-family="Segoe UI, Inter, system-ui, sans-serif" font-size="7" font-weight="600" text-anchor="middle">it-sla-heatmap-tv</text>
</svg>