<svg xmlns="http://www.w3.org/2000/svg" viewBox="0 0 480 270" font-family="Segoe UI, Inter, system-ui, sans-serif">
<title>it-service-catalog-tv</title>
<rect x="0" y="0" width="480" height="270" fill="#0F172A"/>
<rect x="0" y="0" width="480" height="3" fill="#38BDF8"/>
<rect x="4.0" y="4.0" width="472.0" height="18.75" rx="4" fill="#111827" stroke="#334155"/>
<rect x="4.0" y="4.0" width="4" height="18.75" rx="2" fill="#38BDF8"/>
<text x="18.0" y="15.625" fill="#F1F5F9" font-family="Segoe UI, Inter, system-ui, sans-serif" font-size="10.3125" font-weight="700">Tv Headline</text>
<rect x="386.0" y="9.25" width="70" height="8.4" rx="3" fill="#0C2A4A" stroke="#1E40AF"/>
<text x="421.0" y="16.375" fill="#94A3B8" font-family="Segoe UI, Inter, system-ui, sans-serif" font-size="7.125" font-weight="500" text-anchor="middle">Q4 · FY26</text>
<rect x="4.0" y="25.75" width="472.0" height="18.75" rx="4" fill="#111827" stroke="#334155"/>
<rect x="4.0" y="25.75" width="4" height="18.75" rx="2" fill="#38BDF8"/>
<text x="18.0" y="37.375" fill="#F1F5F9" font-family="Segoe UI, Inter, system-ui, sans-serif" font-size="10.3125" font-weight="700">Title Bar</text>
<rect x="386.0" y="31.0" width="70" height="8.4" rx="3" fill="#0C2A4A" stroke="#1E40AF"/>
<text x="421.0" y="38.125" fill="#94A3B8" font-family="Segoe UI, Inter, system-ui, sans-serif" font-size="7.125" font-weight="500" text-anchor="middle">Q4 · FY26</text>
<rect x="4.0" y="47.5" width="472.0" height="17.5" rx="3" fill="#111827" stroke="#334155"/>
<rect x="10.0" y="51.0" width="87.2" height="10.5" rx="5.25" fill="#1E293B" stroke="#334155"/>
<text x="18.0" y="58.14" fill="#94A3B8" font-family="Segoe UI, Inter, system-ui, sans-serif" font-size="5.25" font-weight="500">Region</text>
<text x="87.2" y="57.93" fill="#64748B" font-family="Segoe UI, Inter, system-ui, sans-serif" font-size="4.7250000000000005" font-weight="500" text-anchor="end">▾</text>
<rect x="103.2" y="51.0" width="87.2" height="10.5" rx="5.25" fill="#1E293B" stroke="#334155"/>
<text x="111.2" y="58.14" fill="#94A3B8" font-family="Segoe UI, Inter, system-ui, sans-serif" font-size="5.25" font-weight="500">Period</text>
<text x="180.4" y="57.93" fill="#64748B" font-family="Segoe UI, Inter, system-ui, sans-serif" font-size="4.7250000000000005" font-weight="500" text-anchor="end">▾</text>
<rect x="196.4" y="51.0" width="87.2" height="10.5" rx="5.25" fill="#1E293B" stroke="#334155"/>
<text x="204.4" y="58.14" fill="#94A3B8" font-family="Segoe UI, Inter, system-ui, sans-serif" font-size="5.25" font-weight="500">Product</text>
<text x="273.6" y="57.93" fill="#64748B" font-family="Segoe UI, Inter, system-ui, sans-serif" font-size="4.7250000000000005" font-weight="500" text-anchor="end">▾</text>
<rect x="289.6" y="51.0" width="87.2" height="10.5" rx="5.25" fill="#1E293B" stroke="#334155"/>
<text x="297.6" y="58.14" fill="#94A3B8" font-family="Segoe UI, Inter, system-ui, sans-serif" font-size="5.25" font-weight="500">Segment</text>
<text x="366.8" y="57.93" fill="#64748B" font-family="Segoe UI, Inter, system-ui, sans-serif" font-size="4.7250000000000005" font-weight="500" text-anchor="end">▾</text>
<rect x="382.8" y="51.0" width="87.2" height="10.5" rx="5.25" fill="#1E293B" stroke="#334155"/>
<text x="390.8" y="58.14" fill="#94A3B8" font-family="Segoe UI, Inter, system-ui, sans-serif" font-size="5.25" font-weight="500">Channel</text>
<text x="460.0" y="57.93" fill="#64748B" font-family="Segoe UI, Inter, system-ui, sans-serif" font-size="4.7250000000000005" font-weight="500" text-anchor="end">▾</text>
<rect x="8.0" y="72.0" width="29.40625" height="5.375" rx="3" fill="#1E293B" stroke="#334155"/>
<rect x="8.0" y="72.0" width="29.40625" height="2" fill="#38BDF8"/>
<rect x="41.40625" y="72.0" width="29.40625" height="5.375" rx="3" fill="#1E293B" stroke="#334155"/>
<rect x="41.40625" y="72.0" width="29.40625" height="2" fill="#FBBF24"/>
<rect x="74.8125" y="72.0" width="29.40625" height="5.375" rx="3" fill="#1E293B" stroke="#334155"/>
<rect x="74.8125" y="72.0" width="29.40625" height="2" fill="#34D399"/>
<rect x="108.21875" y="72.0" width="29.40625" height="5.375" rx="3" fill="#1E293B" stroke="#334155"/>
<rect x="108.21875" y="72.0" width="29.40625" height="2" fill="#38BDF8"/>
<rect x="141.625" y="72.0" width="29.40625" height="5.375" rx="3" fill="#1E293B" stroke="#334155"/>
<rect x="141.625" y="72.0" width="29.40625" height="2" fill="#FBBF24"/>
<rect x="175.03125" y="72.0" width="29.40625" height="5.375" rx="3" fill="#1E293B" stroke="#334155"/>
<rect x="175.03125" y="72.0" width="29.40625" height="2" fill="#34D399"/>
<rect x="208.4375" y="72.0" width="29.40625" height="5.375" rx="3" fill="#1E293B" stroke="#334155"/>
<rect x="208.4375" y="72.0" width="29.40625" height="2" fill="#38BDF8"/>
<rect x="241.84375" y="72.0" width="29.40625" height="5.375" rx="3" fill="#1E293B" stroke="#334155"/>
<rect x="241.84375" y="72.0" width="29.40625" height="2" fill="#FBBF24"/>
<rect x="8.0" y="81.375" width="29.40625" height="5.375" rx="3" fill="#1E293B" stroke="#334155"/>
<rect x="8.0" y="81.375" width="29.40625" height="2" fill="#34D399"/>
<rect x="41.40625" y="81.375" width="29.40625" height="5.375" rx="3" fill="#1E293B" stroke="#334155"/>
<rect x="41.40625" y="81.375" width="29.40625" height="2" fill="#38BDF8"/>
<rect x="74.8125" y="81.375" width="29.40625" height="5.375" rx="3" fill="#1E293B" stroke="#334155"/>
<rect x="74.8125" y="81.375" width="29.40625" height="2" fill="#FBBF24"/>
<rect x="108.21875" y="81.375" width="29.40625" height="5.375" rx="3" fill="#1E293B" stroke="#334155"/>
<rect x="108.21875" y="81.375" width="29.40625" height="2" fill="#34D399"/>
<rect x="279.25" y="68.0" width="196.75" height="22.75" rx="3" fill="#1E293B" stroke="#334155"/>
<text x="287.25" y="80.0" fill="#94A3B8" font-family="Segoe UI, Inter, system-ui, sans-serif" font-size="8" font-weight="600">Dependency Ribbon</text>
<polygon points="287.2,82.75 287.2,89.3 300.2,85.9 313.1,90.0 326.0,85.8 338.9,85.7 351.8,85.2 364.7,89.1 377.6,87.7 390.5,89.3 403.4,88.6 416.4,87.9 429.3,89.4 442.2,86.0 455.1,86.1 468.0,90.3 468.0,82.75" fill="#38BDF8" opacity="0.18"/>
<polyline points="287.2,89.3 300.2,85.9 313.1,90.0 326.0,85.8 338.9,85.7 351.8,85.2 364.7,89.1 377.6,87.7 390.5,89.3 403.4,88.6 416.4,87.9 429.3,89.4 442.2,86.0 455.1,86.1 468.0,90.3" fill="none" stroke="#38BDF8" stroke-width="1.8"/>
<polyline points="287.2,86.4 300.2,87.9 313.1,86.2 326.0,87.9 338.9,84.6 351.8,84.8 364.7,87.1 377.6,84.6 390.5,87.4 403.4,86.0 416.4,88.0 429.3,87.4 442.2,85.1 455.1,85.0 468.0,87.1" fill="none" stroke="#FBBF24" stroke-width="1.3" stroke-dasharray="3 2"/>
<line x1="287.25" y1="82.75" x2="468.0" y2="82.75" stroke="#334155"/>
<rect x="4.0" y="93.75" width="472.0" height="160.0" rx="3" fill="#1E293B" stroke="#334155"/>
<rect x="12.0" y="111.2" width="10" height="15.2" fill="#38BDF8" rx="1"/>
<text x="26.0" y="126.3" fill="#F1F5F9" font-family="Segoe UI, Inter, system-ui, sans-serif" font-size="8" font-weight="500">Actual</text>
<rect x="12.0" y="149.2" width="10" height="15.2" fill="#FBBF24" rx="1"/>
<text x="26.0" y="164.3" fill="#F1F5F9" font-family="Segoe UI, Inter, system-ui, sans-serif" font-size="8" font-weight="500">Plan</text>
<rect x="12.0" y="187.2" width="10" height="15.2" fill="#34D399" rx="1"/>
<text x="26.0" y="202.3" fill="#F1F5F9" font-family="Segoe UI, Inter, system-ui, sans-serif" font-size="8" font-weight="500">Forecast</text>
<rect x="12.0" y="225.2" width="10" height="15.2" fill="#7DD3FC" rx="1"/>
<text x="26.0" y="240.3" fill="#F1F5F9" font-family="Segoe UI, Inter, system-ui, sans-serif" font-size="8" font-weight="500">LY</text>
<rect x="4.0" y="256.75" width="472.0" height="9.25" rx="3" fill="#F87171" opacity="0.08" stroke="#F87171" stroke-opacity="0.35"/>
<rect x="4.0" y="256.75" width="3" height="9.25" fill="#F87171"/>
<circle cx="18.0" cy="261.375" r="3" fill="#F87171"/>
<text x="28.0" y="264.375" fill="#F87171" font-family="Segoe UI, Inter, system-ui, sans-serif" font-size="5.0875" font-weight="600">ALERT · Line 3 downtime 4m · exception queue +12</text>
<text x="240.0" y="265" fill="#94A3B8" font-family="Segoe UI, Inter, system-ui, sans-serif" font-size="7" font-weight="600" text-anchor="middle">it-service-catalog-tv</text>
</svg>