<svg xmlns="http://www.w3.org/2000/svg" viewBox="0 0 240 519" font-family="Segoe UI, Inter, system-ui, sans-serif">
<title>kpi-donut-row-mobile</title>
<rect x="0" y="0" width="240" height="519" fill="#0F172A"/>
<rect x="0" y="0" width="240" height="3" fill="#38BDF8"/>
<rect x="7.38" y="9.84" width="225.23" height="28.29" rx="4" fill="#111827" stroke="#334155"/>
<rect x="7.38" y="9.84" width="4" height="28.29" rx="2" fill="#38BDF8"/>
<text x="21.38" y="27.3798" fill="#F1F5F9" font-family="Segoe UI, Inter, system-ui, sans-serif" font-size="11" font-weight="700">Mobile Title</text>
<rect x="142.60999999999999" y="17.761200000000002" width="70" height="12.7" rx="3" fill="#0C2A4A" stroke="#1E40AF"/>
<text x="177.60999999999999" y="28.511400000000002" fill="#94A3B8" font-family="Segoe UI, Inter, system-ui, sans-serif" font-size="10.7502" font-weight="500" text-anchor="middle">Q4 · FY26</text>
<rect x="13.379999999999999" y="53.5" width="213.23" height="134.66333333333333" rx="3" fill="#1E293B" stroke="#334155"/>
<circle cx="86.7" cy="120.8" r="56.1" fill="none" stroke="#38BDF8" stroke-width="19.6" stroke-dasharray="148.04 352.48" stroke-dashoffset="0.00" transform="rotate(-90 86.7 120.8)"/>
<circle cx="86.7" cy="120.8" r="56.1" fill="none" stroke="#FBBF24" stroke-width="19.6" stroke-dasharray="88.12 352.48" stroke-dashoffset="-148.04" transform="rotate(-90 86.7 120.8)"/>
<circle cx="86.7" cy="120.8" r="56.1" fill="none" stroke="#34D399" stroke-width="19.6" stroke-dasharray="63.45 352.48" stroke-dashoffset="-236.16" transform="rotate(-90 86.7 120.8)"/>
<circle cx="86.7" cy="120.8" r="56.1" fill="none" stroke="#7DD3FC" stroke-width="19.6" stroke-dasharray="52.87 352.48" stroke-dashoffset="-299.61" transform="rotate(-90 86.7 120.8)"/>
<text x="86.71166666666666" y="123.83166666666666" fill="#F1F5F9" font-family="Segoe UI, Inter, system-ui, sans-serif" font-size="10" font-weight="700" text-anchor="middle">48%</text>
<text x="156.81016666666665" y="109.73859999999999" fill="#94A3B8" font-family="Segoe UI, Inter, system-ui, sans-serif" font-size="10" font-weight="500">Share A</text>
<text x="156.81016666666665" y="151.3376" fill="#F1F5F9" font-family="Segoe UI, Inter, system-ui, sans-serif" font-size="14" font-weight="700">48%</text>
<rect x="13.379999999999999" y="192.16333333333333" width="213.23" height="134.66333333333333" rx="3" fill="#1E293B" stroke="#334155"/>
<circle cx="86.7" cy="259.5" r="56.1" fill="none" stroke="#38BDF8" stroke-width="19.6" stroke-dasharray="148.04 352.48" stroke-dashoffset="0.00" transform="rotate(-90 86.7 259.5)"/>
<circle cx="86.7" cy="259.5" r="56.1" fill="none" stroke="#FBBF24" stroke-width="19.6" stroke-dasharray="88.12 352.48" stroke-dashoffset="-148.04" transform="rotate(-90 86.7 259.5)"/>
<circle cx="86.7" cy="259.5" r="56.1" fill="none" stroke="#34D399" stroke-width="19.6" stroke-dasharray="63.45 352.48" stroke-dashoffset="-236.16" transform="rotate(-90 86.7 259.5)"/>
<circle cx="86.7" cy="259.5" r="56.1" fill="none" stroke="#7DD3FC" stroke-width="19.6" stroke-dasharray="52.87 352.48" stroke-dashoffset="-299.61" transform="rotate(-90 86.7 259.5)"/>
<text x="86.71166666666666" y="262.495" fill="#F1F5F9" font-family="Segoe UI, Inter, system-ui, sans-serif" font-size="10" font-weight="700" text-anchor="middle">32%</text>
<text x="156.81016666666665" y="248.40193333333332" fill="#94A3B8" font-family="Segoe UI, Inter, system-ui, sans-serif" font-size="10" font-weight="500">Share B</text>
<text x="156.81016666666665" y="290.0009333333333" fill="#F1F5F9" font-family="Segoe UI, Inter, system-ui, sans-serif" font-size="14" font-weight="700">32%</text>
<rect x="13.379999999999999" y="330.82666666666665" width="213.23" height="134.66333333333333" rx="3" fill="#1E293B" stroke="#334155"/>
<circle cx="86.7" cy="398.2" r="56.1" fill="none" stroke="#38BDF8" stroke-width="19.6" stroke-dasharray="148.04 352.48" stroke-dashoffset="0.00" transform="rotate(-90 86.7 398.2)"/>
<circle cx="86.7" cy="398.2" r="56.1" fill="none" stroke="#FBBF24" stroke-width="19.6" stroke-dasharray="88.12 352.48" stroke-dashoffset="-148.04" transform="rotate(-90 86.7 398.2)"/>
<circle cx="86.7" cy="398.2" r="56.1" fill="none" stroke="#34D399" stroke-width="19.6" stroke-dasharray="63.45 352.48" stroke-dashoffset="-236.16" transform="rotate(-90 86.7 398.2)"/>
<circle cx="86.7" cy="398.2" r="56.1" fill="none" stroke="#7DD3FC" stroke-width="19.6" stroke-dasharray="52.87 352.48" stroke-dashoffset="-299.61" transform="rotate(-90 86.7 398.2)"/>
<text x="86.71166666666666" y="401.1583333333333" fill="#F1F5F9" font-family="Segoe UI, Inter, system-ui, sans-serif" font-size="10" font-weight="700" text-anchor="middle">67%</text>
<text x="156.81016666666665" y="387.0652666666667" fill="#94A3B8" font-family="Segoe UI, Inter, system-ui, sans-serif" font-size="10" font-weight="500">Share C</text>
<text x="156.81016666666665" y="428.66426666666666" fill="#F1F5F9" font-family="Segoe UI, Inter, system-ui, sans-serif" font-size="14" font-weight="700">67%</text>
<rect x="7.38" y="480.87" width="225.23" height="28.29" rx="3" fill="#111827" stroke="#334155"/>
<rect x="14.379999999999999" y="486.528" width="48.3075" height="16.974" rx="8.487" fill="#38BDF8"/>
<text x="38.53375" y="499.2585" fill="#FFFFFF" font-family="Segoe UI, Inter, system-ui, sans-serif" font-size="9" font-weight="600" text-anchor="middle">Overview</text>
<text x="92.84125" y="499.2585" fill="#94A3B8" font-family="Segoe UI, Inter, system-ui, sans-serif" font-size="9" font-weight="600" text-anchor="middle">Sales</text>
<text x="147.14874999999998" y="499.2585" fill="#94A3B8" font-family="Segoe UI, Inter, system-ui, sans-serif" font-size="9" font-weight="600" text-anchor="middle">Finance</text>
<text x="201.45624999999998" y="499.2585" fill="#94A3B8" font-family="Segoe UI, Inter, system-ui, sans-serif" font-size="9" font-weight="600" text-anchor="middle">Ops</text>
<line x1="7.38" y1="509.16" x2="232.60999999999999" y2="509.16" stroke="#334155" stroke-width="1"/>
<text x="120.0" y="514" fill="#94A3B8" font-family="Segoe UI, Inter, system-ui, sans-serif" font-size="7" font-weight="600" text-anchor="middle">kpi-donut-row-mobile</text>
</svg>