<svg xmlns="http://www.w3.org/2000/svg" viewBox="0 0 480 270" font-family="Segoe UI, Inter, system-ui, sans-serif">
<title>landing-navigation</title>
<rect x="0" y="0" width="480" height="270" fill="#0F172A"/>
<rect x="0" y="0" width="480" height="3" fill="#38BDF8"/>
<rect x="4.62" y="4.62" width="470.77" height="207.69" rx="3" fill="#1E293B" stroke="#334155"/>
<text x="12.620000000000001" y="16.62" fill="#94A3B8" font-family="Segoe UI, Inter, system-ui, sans-serif" font-size="8" font-weight="600">Hero Banner</text>
<polygon points="12.6,204.31 12.6,102.3 45.1,131.9 77.6,71.3 110.1,130.5 142.6,124.6 175.0,137.1 207.5,92.7 240.0,122.7 272.5,152.1 305.0,96.9 337.5,63.5 369.9,140.8 402.4,149.8 434.9,77.9 467.4,110.0 467.4,204.31" fill="#38BDF8" opacity="0.18"/>
<polyline points="12.6,102.3 45.1,131.9 77.6,71.3 110.1,130.5 142.6,124.6 175.0,137.1 207.5,92.7 240.0,122.7 272.5,152.1 305.0,96.9 337.5,63.5 369.9,140.8 402.4,149.8 434.9,77.9 467.4,110.0" fill="none" stroke="#38BDF8" stroke-width="1.8"/>
<polyline points="12.6,128.9 45.1,122.2 77.6,110.3 110.1,171.0 142.6,124.9 175.0,111.4 207.5,106.6 240.0,166.4 272.5,107.3 305.0,118.9 337.5,177.2 369.9,127.9 402.4,154.5 434.9,169.3 467.4,161.0" fill="none" stroke="#FBBF24" stroke-width="1.3" stroke-dasharray="3 2"/>
<line x1="12.620000000000001" y1="204.31" x2="467.39" y2="204.31" stroke="#334155"/>
<rect x="4.62" y="215.77" width="470.77" height="18.75" rx="4" fill="#111827" stroke="#334155"/>
<rect x="4.62" y="215.77" width="4" height="18.75" rx="2" fill="#38BDF8"/>
<text x="18.62" y="227.395" fill="#F1F5F9" font-family="Segoe UI, Inter, system-ui, sans-serif" font-size="10.3125" font-weight="700">Page Title</text>
<rect x="385.39" y="221.02" width="70" height="8.4" rx="3" fill="#0C2A4A" stroke="#1E40AF"/>
<text x="420.39" y="228.145" fill="#94A3B8" font-family="Segoe UI, Inter, system-ui, sans-serif" font-size="7.125" font-weight="500" text-anchor="middle">Q4 · FY26</text>
<rect x="8.620000000000001" y="241.98" width="54.34625" height="6.710000000000001" rx="3" fill="#1E293B" stroke="#334155"/>
<rect x="8.620000000000001" y="241.98" width="54.34625" height="2" fill="#38BDF8"/>
<rect x="66.96625" y="241.98" width="54.34625" height="6.710000000000001" rx="3" fill="#1E293B" stroke="#334155"/>
<rect x="66.96625" y="241.98" width="54.34625" height="2" fill="#FBBF24"/>
<rect x="125.3125" y="241.98" width="54.34625" height="6.710000000000001" rx="3" fill="#1E293B" stroke="#334155"/>
<rect x="125.3125" y="241.98" width="54.34625" height="2" fill="#34D399"/>
<rect x="183.65875" y="241.98" width="54.34625" height="6.710000000000001" rx="3" fill="#1E293B" stroke="#334155"/>
<rect x="183.65875" y="241.98" width="54.34625" height="2" fill="#38BDF8"/>
<rect x="242.005" y="241.98" width="54.34625" height="6.710000000000001" rx="3" fill="#1E293B" stroke="#334155"/>
<rect x="242.005" y="241.98" width="54.34625" height="2" fill="#FBBF24"/>
<rect x="300.35125" y="241.98" width="54.34625" height="6.710000000000001" rx="3" fill="#1E293B" stroke="#334155"/>
<rect x="300.35125" y="241.98" width="54.34625" height="2" fill="#34D399"/>
<rect x="358.6975" y="241.98" width="54.34625" height="6.710000000000001" rx="3" fill="#1E293B" stroke="#334155"/>
<rect x="358.6975" y="241.98" width="54.34625" height="2" fill="#38BDF8"/>
<rect x="417.04375" y="241.98" width="54.34625" height="6.710000000000001" rx="3" fill="#1E293B" stroke="#334155"/>
<rect x="417.04375" y="241.98" width="54.34625" height="2" fill="#FBBF24"/>
<rect x="4.62" y="256.15" width="470.77" height="9.23" rx="2" fill="#111827" stroke="#334155"/>
<text x="14.620000000000001" y="262.1495" fill="#94A3B8" font-family="Segoe UI, Inter, system-ui, sans-serif" font-size="5.0765" font-weight="400">Source: Data warehouse · Last refresh 08:15</text>
<text x="415.39" y="262.1495" fill="#94A3B8" font-family="Segoe UI, Inter, system-ui, sans-serif" font-size="5.0765" font-weight="500" text-anchor="start">Confidential</text>
<rect x="455.39" y="258.4575" width="14" height="4.6" rx="2" fill="#38BDF8" opacity="0.15"/>
<text x="462.39" y="262.611" fill="#38BDF8" font-family="Segoe UI, Inter, system-ui, sans-serif" font-size="4.615" font-weight="700" text-anchor="middle">1</text>
<text x="240.0" y="265" fill="#94A3B8" font-family="Segoe UI, Inter, system-ui, sans-serif" font-size="7" font-weight="600" text-anchor="middle">landing-navigation</text>
</svg>