<svg xmlns="http://www.w3.org/2000/svg" viewBox="0 0 240 519" font-family="Segoe UI, Inter, system-ui, sans-serif">
<title>landing-navigation-mobile</title>
<rect x="0" y="0" width="240" height="519" fill="#0F172A"/>
<rect x="0" y="0" width="240" height="3" fill="#38BDF8"/>
<rect x="7.38" y="9.84" width="225.23" height="28.29" rx="4" fill="#111827" stroke="#334155"/>
<rect x="7.38" y="9.84" width="4" height="28.29" rx="2" fill="#38BDF8"/>
<text x="21.38" y="27.3798" fill="#F1F5F9" font-family="Segoe UI, Inter, system-ui, sans-serif" font-size="11" font-weight="700">Mobile Title</text>
<rect x="142.60999999999999" y="17.761200000000002" width="70" height="12.7" rx="3" fill="#0C2A4A" stroke="#1E40AF"/>
<text x="177.60999999999999" y="28.511400000000002" fill="#94A3B8" font-family="Segoe UI, Inter, system-ui, sans-serif" font-size="10.7502" font-weight="500" text-anchor="middle">Q4 · FY26</text>
<rect x="11.379999999999999" y="49.5" width="69.74333333333333" height="101.9975" rx="3" fill="#1E293B" stroke="#334155"/>
<rect x="11.379999999999999" y="49.5" width="69.74333333333333" height="2" fill="#38BDF8"/>
<rect x="15.379999999999999" y="55.5" width="38.35883333333333" height="3" fill="#94A3B8" rx="1"/>
<text x="15.379999999999999" y="105.598625" fill="#F1F5F9" font-family="Segoe UI, Inter, system-ui, sans-serif" font-size="9" font-weight="700">261</text>
<rect x="16.38" y="142.8393027377532" width="10.348666666666665" height="2.7" fill="#60A5FA"/>
<rect x="28.728666666666662" y="127.9748081913257" width="10.348666666666665" height="17.5" fill="#60A5FA"/>
<rect x="41.07733333333333" y="129.82130412423496" width="10.348666666666665" height="15.7" fill="#60A5FA"/>
<rect x="53.42599999999999" y="125.32185016250779" width="10.348666666666665" height="20.2" fill="#60A5FA"/>
<rect x="65.77466666666666" y="129.5579054451939" width="10.348666666666665" height="15.9" fill="#60A5FA"/>
<rect x="85.12333333333332" y="49.5" width="69.74333333333333" height="101.9975" rx="3" fill="#1E293B" stroke="#334155"/>
<rect x="85.12333333333332" y="49.5" width="69.74333333333333" height="2" fill="#FBBF24"/>
<rect x="89.12333333333332" y="55.5" width="38.35883333333333" height="3" fill="#94A3B8" rx="1"/>
<text x="89.12333333333332" y="105.598625" fill="#F1F5F9" font-family="Segoe UI, Inter, system-ui, sans-serif" font-size="9" font-weight="700">764</text>
<rect x="90.12333333333332" y="136.0927899987734" width="10.348666666666665" height="9.4" fill="#60A5FA"/>
<rect x="102.47199999999998" y="117.34295192772225" width="10.348666666666665" height="28.2" fill="#60A5FA"/>
<rect x="114.82066666666665" y="130.657463046343" width="10.348666666666665" height="14.8" fill="#60A5FA"/>
<rect x="127.16933333333331" y="117.94184744780415" width="10.348666666666665" height="27.6" fill="#60A5FA"/>
<rect x="139.51799999999997" y="126.78420225136948" width="10.348666666666665" height="18.7" fill="#60A5FA"/>
<rect x="158.86666666666665" y="49.5" width="69.74333333333333" height="101.9975" rx="3" fill="#1E293B" stroke="#334155"/>
<rect x="158.86666666666665" y="49.5" width="69.74333333333333" height="2" fill="#34D399"/>
<rect x="162.86666666666665" y="55.5" width="38.35883333333333" height="3" fill="#94A3B8" rx="1"/>
<text x="162.86666666666665" y="105.598625" fill="#F1F5F9" font-family="Segoe UI, Inter, system-ui, sans-serif" font-size="9" font-weight="700">333</text>
<rect x="163.86666666666665" y="130.6852649494324" width="10.348666666666665" height="14.8" fill="#60A5FA"/>
<rect x="176.21533333333332" y="136.62629201603468" width="10.348666666666665" height="8.9" fill="#60A5FA"/>
<rect x="188.56399999999996" y="125.18439444018603" width="10.348666666666665" height="20.3" fill="#60A5FA"/>
<rect x="200.91266666666664" y="134.09425872653225" width="10.348666666666665" height="11.4" fill="#60A5FA"/>
<rect x="213.2613333333333" y="134.3798233617285" width="10.348666666666665" height="11.1" fill="#60A5FA"/>
<rect x="11.379999999999999" y="155.4975" width="69.74333333333333" height="101.9975" rx="3" fill="#1E293B" stroke="#334155"/>
<rect x="11.379999999999999" y="155.4975" width="69.74333333333333" height="2" fill="#38BDF8"/>
<rect x="15.379999999999999" y="161.4975" width="38.35883333333333" height="3" fill="#94A3B8" rx="1"/>
<text x="15.379999999999999" y="211.596125" fill="#F1F5F9" font-family="Segoe UI, Inter, system-ui, sans-serif" font-size="9" font-weight="700">137</text>
<rect x="16.38" y="238.38262211566428" width="10.348666666666665" height="13.1" fill="#60A5FA"/>
<rect x="28.728666666666662" y="234.30928224534375" width="10.348666666666665" height="17.2" fill="#60A5FA"/>
<rect x="41.07733333333333" y="246.96881839189737" width="10.348666666666665" height="4.5" fill="#60A5FA"/>
<rect x="53.42599999999999" y="233.2078093170284" width="10.348666666666665" height="18.3" fill="#60A5FA"/>
<rect x="65.77466666666666" y="240.38901805607182" width="10.348666666666665" height="11.1" fill="#60A5FA"/>
<rect x="85.12333333333332" y="155.4975" width="69.74333333333333" height="101.9975" rx="3" fill="#1E293B" stroke="#334155"/>
<rect x="85.12333333333332" y="155.4975" width="69.74333333333333" height="2" fill="#FBBF24"/>
<rect x="89.12333333333332" y="161.4975" width="38.35883333333333" height="3" fill="#94A3B8" rx="1"/>
<text x="89.12333333333332" y="211.596125" fill="#F1F5F9" font-family="Segoe UI, Inter, system-ui, sans-serif" font-size="9" font-weight="700">850</text>
<rect x="90.12333333333332" y="248.08100007085278" width="10.348666666666665" height="3.4" fill="#60A5FA"/>
<rect x="102.47199999999998" y="245.14033137115356" width="10.348666666666665" height="6.4" fill="#60A5FA"/>
<rect x="114.82066666666665" y="222.17553813575435" width="10.348666666666665" height="29.3" fill="#60A5FA"/>
<rect x="127.16933333333331" y="238.0682252393737" width="10.348666666666665" height="13.4" fill="#60A5FA"/>
<rect x="139.51799999999997" y="236.92042059680531" width="10.348666666666665" height="14.6" fill="#60A5FA"/>
<rect x="158.86666666666665" y="155.4975" width="69.74333333333333" height="101.9975" rx="3" fill="#1E293B" stroke="#334155"/>
<rect x="158.86666666666665" y="155.4975" width="69.74333333333333" height="2" fill="#34D399"/>
<rect x="162.86666666666665" y="161.4975" width="38.35883333333333" height="3" fill="#94A3B8" rx="1"/>
<text x="162.86666666666665" y="211.596125" fill="#F1F5F9" font-family="Segoe UI, Inter, system-ui, sans-serif" font-size="9" font-weight="700">415</text>
<rect x="163.86666666666665" y="223.65070187681914" width="10.348666666666665" height="27.8" fill="#60A5FA"/>
<rect x="176.21533333333332" y="237.66593450006417" width="10.348666666666665" height="13.8" fill="#60A5FA"/>
<rect x="188.56399999999996" y="236.5103361351843" width="10.348666666666665" height="15.0" fill="#60A5FA"/>
<rect x="200.91266666666664" y="229.14798644189324" width="10.348666666666665" height="22.3" fill="#60A5FA"/>
<rect x="213.2613333333333" y="248.01719179453403" width="10.348666666666665" height="3.5" fill="#60A5FA"/>
<rect x="11.379999999999999" y="261.495" width="69.74333333333333" height="101.9975" rx="3" fill="#1E293B" stroke="#334155"/>
<rect x="11.379999999999999" y="261.495" width="69.74333333333333" height="2" fill="#38BDF8"/>
<rect x="15.379999999999999" y="267.495" width="38.35883333333333" height="3" fill="#94A3B8" rx="1"/>
<text x="15.379999999999999" y="317.59362500000003" fill="#F1F5F9" font-family="Segoe UI, Inter, system-ui, sans-serif" font-size="9" font-weight="700">723</text>
<rect x="16.38" y="344.35841759981616" width="10.348666666666665" height="13.1" fill="#60A5FA"/>
<rect x="28.728666666666662" y="353.69049754794173" width="10.348666666666665" height="3.8" fill="#60A5FA"/>
<rect x="41.07733333333333" y="347.55638969524847" width="10.348666666666665" height="9.9" fill="#60A5FA"/>
<rect x="53.42599999999999" y="340.8427572476802" width="10.348666666666665" height="16.6" fill="#60A5FA"/>
<rect x="65.77466666666666" y="347.35209787403494" width="10.348666666666665" height="10.1" fill="#60A5FA"/>
<rect x="85.12333333333332" y="261.495" width="69.74333333333333" height="101.9975" rx="3" fill="#1E293B" stroke="#334155"/>
<rect x="85.12333333333332" y="261.495" width="69.74333333333333" height="2" fill="#FBBF24"/>
<rect x="89.12333333333332" y="267.495" width="38.35883333333333" height="3" fill="#94A3B8" rx="1"/>
<text x="89.12333333333332" y="317.59362500000003" fill="#F1F5F9" font-family="Segoe UI, Inter, system-ui, sans-serif" font-size="9" font-weight="700">601</text>
<rect x="90.12333333333332" y="346.2586417769007" width="10.348666666666665" height="11.2" fill="#60A5FA"/>
<rect x="102.47199999999998" y="330.1236940205826" width="10.348666666666665" height="27.4" fill="#60A5FA"/>
<rect x="114.82066666666665" y="339.79201501783524" width="10.348666666666665" height="17.7" fill="#60A5FA"/>
<rect x="127.16933333333331" y="342.34238699737926" width="10.348666666666665" height="15.2" fill="#60A5FA"/>
<rect x="139.51799999999997" y="335.5645802317856" width="10.348666666666665" height="21.9" fill="#60A5FA"/>
<rect x="158.86666666666665" y="261.495" width="69.74333333333333" height="101.9975" rx="3" fill="#1E293B" stroke="#334155"/>
<rect x="158.86666666666665" y="261.495" width="69.74333333333333" height="2" fill="#34D399"/>
<rect x="162.86666666666665" y="267.495" width="38.35883333333333" height="3" fill="#94A3B8" rx="1"/>
<text x="162.86666666666665" y="317.59362500000003" fill="#F1F5F9" font-family="Segoe UI, Inter, system-ui, sans-serif" font-size="9" font-weight="700">18</text>
<rect x="163.86666666666665" y="329.4661849768035" width="10.348666666666665" height="28.0" fill="#60A5FA"/>
<rect x="176.21533333333332" y="354.9272453684568" width="10.348666666666665" height="2.6" fill="#60A5FA"/>
<rect x="188.56399999999996" y="334.9098877719362" width="10.348666666666665" height="22.6" fill="#60A5FA"/>
<rect x="200.91266666666664" y="345.3718944255574" width="10.348666666666665" height="12.1" fill="#60A5FA"/>
<rect x="213.2613333333333" y="337.11309732721674" width="10.348666666666665" height="20.4" fill="#60A5FA"/>
<rect x="11.379999999999999" y="367.4925" width="69.74333333333333" height="101.9975" rx="3" fill="#1E293B" stroke="#334155"/>
<rect x="11.379999999999999" y="367.4925" width="69.74333333333333" height="2" fill="#38BDF8"/>
<rect x="15.379999999999999" y="373.4925" width="38.35883333333333" height="3" fill="#94A3B8" rx="1"/>
<text x="15.379999999999999" y="423.59112500000003" fill="#F1F5F9" font-family="Segoe UI, Inter, system-ui, sans-serif" font-size="9" font-weight="700">799</text>
<rect x="16.38" y="433.9055202155872" width="10.348666666666665" height="29.6" fill="#60A5FA"/>
<rect x="28.728666666666662" y="439.5751120110903" width="10.348666666666665" height="23.9" fill="#60A5FA"/>
<rect x="41.07733333333333" y="436.08588241490577" width="10.348666666666665" height="27.4" fill="#60A5FA"/>
<rect x="53.42599999999999" y="459.61828427565536" width="10.348666666666665" height="3.9" fill="#60A5FA"/>
<rect x="65.77466666666666" y="436.292080953128" width="10.348666666666665" height="27.2" fill="#60A5FA"/>
<rect x="85.12333333333332" y="367.4925" width="69.74333333333333" height="101.9975" rx="3" fill="#1E293B" stroke="#334155"/>
<rect x="85.12333333333332" y="367.4925" width="69.74333333333333" height="2" fill="#FBBF24"/>
<rect x="89.12333333333332" y="373.4925" width="38.35883333333333" height="3" fill="#94A3B8" rx="1"/>
<text x="89.12333333333332" y="423.59112500000003" fill="#F1F5F9" font-family="Segoe UI, Inter, system-ui, sans-serif" font-size="9" font-weight="700">529</text>
<rect x="90.12333333333332" y="456.0134577420385" width="10.348666666666665" height="7.5" fill="#60A5FA"/>
<rect x="102.47199999999998" y="459.70857609237345" width="10.348666666666665" height="3.8" fill="#60A5FA"/>
<rect x="114.82066666666665" y="443.49683682235593" width="10.348666666666665" height="20.0" fill="#60A5FA"/>
<rect x="127.16933333333331" y="433.30837431740724" width="10.348666666666665" height="30.2" fill="#60A5FA"/>
<rect x="139.51799999999997" y="447.3032445868805" width="10.348666666666665" height="16.2" fill="#60A5FA"/>
<rect x="158.86666666666665" y="367.4925" width="69.74333333333333" height="101.9975" rx="3" fill="#1E293B" stroke="#334155"/>
<rect x="158.86666666666665" y="367.4925" width="69.74333333333333" height="2" fill="#34D399"/>
<rect x="162.86666666666665" y="373.4925" width="38.35883333333333" height="3" fill="#94A3B8" rx="1"/>
<text x="162.86666666666665" y="423.59112500000003" fill="#F1F5F9" font-family="Segoe UI, Inter, system-ui, sans-serif" font-size="9" font-weight="700">785</text>
<rect x="163.86666666666665" y="440.4763526425367" width="10.348666666666665" height="23.0" fill="#60A5FA"/>
<rect x="176.21533333333332" y="459.30840301965634" width="10.348666666666665" height="4.2" fill="#60A5FA"/>
<rect x="188.56399999999996" y="451.9435379122482" width="10.348666666666665" height="11.5" fill="#60A5FA"/>
<rect x="200.91266666666664" y="452.6093853667906" width="10.348666666666665" height="10.9" fill="#60A5FA"/>
<rect x="213.2613333333333" y="439.9740652614735" width="10.348666666666665" height="23.5" fill="#60A5FA"/>
<rect x="7.38" y="480.87" width="225.23" height="28.29" rx="3" fill="#111827" stroke="#334155"/>
<rect x="14.379999999999999" y="486.528" width="48.3075" height="16.974" rx="8.487" fill="#38BDF8"/>
<text x="38.53375" y="499.2585" fill="#FFFFFF" font-family="Segoe UI, Inter, system-ui, sans-serif" font-size="9" font-weight="600" text-anchor="middle">Overview</text>
<text x="92.84125" y="499.2585" fill="#94A3B8" font-family="Segoe UI, Inter, system-ui, sans-serif" font-size="9" font-weight="600" text-anchor="middle">Sales</text>
<text x="147.14874999999998" y="499.2585" fill="#94A3B8" font-family="Segoe UI, Inter, system-ui, sans-serif" font-size="9" font-weight="600" text-anchor="middle">Finance</text>
<text x="201.45624999999998" y="499.2585" fill="#94A3B8" font-family="Segoe UI, Inter, system-ui, sans-serif" font-size="9" font-weight="600" text-anchor="middle">Ops</text>
<line x1="7.38" y1="509.16" x2="232.60999999999999" y2="509.16" stroke="#334155" stroke-width="1"/>
<text x="120.0" y="514" fill="#94A3B8" font-family="Segoe UI, Inter, system-ui, sans-serif" font-size="7" font-weight="600" text-anchor="middle">landing-navigation-mobile</text>
</svg>