<svg xmlns="http://www.w3.org/2000/svg" viewBox="0 0 480 270" font-family="Segoe UI, Inter, system-ui, sans-serif">
<title>left-rail-filter-analytical</title>
<rect x="0" y="0" width="480" height="270" fill="#0F172A"/>
<rect x="0" y="0" width="480" height="3" fill="#38BDF8"/>
<rect x="4.62" y="4.62" width="470.77" height="17.31" rx="3" fill="#111827" stroke="#334155"/>
<rect x="10.620000000000001" y="8.082" width="86.954" height="10.386" rx="5.193" fill="#1E293B" stroke="#334155"/>
<text x="18.62" y="15.144480000000001" fill="#94A3B8" font-family="Segoe UI, Inter, system-ui, sans-serif" font-size="5.193" font-weight="500">Region</text>
<text x="87.574" y="14.93676" fill="#64748B" font-family="Segoe UI, Inter, system-ui, sans-serif" font-size="4.6737" font-weight="500" text-anchor="end">▾</text>
<rect x="103.574" y="8.082" width="86.954" height="10.386" rx="5.193" fill="#1E293B" stroke="#334155"/>
<text x="111.574" y="15.144480000000001" fill="#94A3B8" font-family="Segoe UI, Inter, system-ui, sans-serif" font-size="5.193" font-weight="500">Period</text>
<text x="180.528" y="14.93676" fill="#64748B" font-family="Segoe UI, Inter, system-ui, sans-serif" font-size="4.6737" font-weight="500" text-anchor="end">▾</text>
<rect x="196.528" y="8.082" width="86.954" height="10.386" rx="5.193" fill="#1E293B" stroke="#334155"/>
<text x="204.528" y="15.144480000000001" fill="#94A3B8" font-family="Segoe UI, Inter, system-ui, sans-serif" font-size="5.193" font-weight="500">Product</text>
<text x="273.48199999999997" y="14.93676" fill="#64748B" font-family="Segoe UI, Inter, system-ui, sans-serif" font-size="4.6737" font-weight="500" text-anchor="end">▾</text>
<rect x="289.48199999999997" y="8.082" width="86.954" height="10.386" rx="5.193" fill="#1E293B" stroke="#334155"/>
<text x="297.48199999999997" y="15.144480000000001" fill="#94A3B8" font-family="Segoe UI, Inter, system-ui, sans-serif" font-size="5.193" font-weight="500">Segment</text>
<text x="366.436" y="14.93676" fill="#64748B" font-family="Segoe UI, Inter, system-ui, sans-serif" font-size="4.6737" font-weight="500" text-anchor="end">▾</text>
<rect x="382.436" y="8.082" width="86.954" height="10.386" rx="5.193" fill="#1E293B" stroke="#334155"/>
<text x="390.436" y="15.144480000000001" fill="#94A3B8" font-family="Segoe UI, Inter, system-ui, sans-serif" font-size="5.193" font-weight="500">Channel</text>
<text x="459.39" y="14.93676" fill="#64748B" font-family="Segoe UI, Inter, system-ui, sans-serif" font-size="4.6737" font-weight="500" text-anchor="end">▾</text>
<rect x="4.62" y="25.38" width="470.77" height="18.75" rx="4" fill="#111827" stroke="#334155"/>
<rect x="4.62" y="25.38" width="4" height="18.75" rx="2" fill="#38BDF8"/>
<text x="18.62" y="37.004999999999995" fill="#F1F5F9" font-family="Segoe UI, Inter, system-ui, sans-serif" font-size="10.3125" font-weight="700">Title</text>
<rect x="385.39" y="30.63" width="70" height="8.4" rx="3" fill="#0C2A4A" stroke="#1E40AF"/>
<text x="420.39" y="37.754999999999995" fill="#94A3B8" font-family="Segoe UI, Inter, system-ui, sans-serif" font-size="7.125" font-weight="500" text-anchor="middle">Q4 · FY26</text>
<rect x="10.620000000000001" y="53.6" width="110.1925" height="13.379999999999999" rx="4" fill="#1E293B" stroke="#334155"/>
<rect x="10.620000000000001" y="53.6" width="3" height="13.379999999999999" fill="#38BDF8"/>
<text x="18.62" y="58.5436" fill="#94A3B8" font-family="Segoe UI, Inter, system-ui, sans-serif" font-size="2.9436" font-weight="500">Revenue</text>
<text x="18.62" y="65.22659999999999" fill="#F1F5F9" font-family="Segoe UI, Inter, system-ui, sans-serif" font-size="4.682999999999999" font-weight="700">$1.24M</text>
<rect x="126.8125" y="53.6" width="110.1925" height="13.379999999999999" rx="4" fill="#1E293B" stroke="#334155"/>
<rect x="126.8125" y="53.6" width="3" height="13.379999999999999" fill="#38BDF8"/>
<text x="134.8125" y="58.5436" fill="#94A3B8" font-family="Segoe UI, Inter, system-ui, sans-serif" font-size="2.9436" font-weight="500">Orders</text>
<text x="134.8125" y="65.22659999999999" fill="#F1F5F9" font-family="Segoe UI, Inter, system-ui, sans-serif" font-size="4.682999999999999" font-weight="700">48,912</text>
<rect x="243.005" y="53.6" width="110.1925" height="13.379999999999999" rx="4" fill="#1E293B" stroke="#334155"/>
<rect x="243.005" y="53.6" width="3" height="13.379999999999999" fill="#38BDF8"/>
<text x="251.005" y="58.5436" fill="#94A3B8" font-family="Segoe UI, Inter, system-ui, sans-serif" font-size="2.9436" font-weight="500">Margin</text>
<text x="251.005" y="65.22659999999999" fill="#F1F5F9" font-family="Segoe UI, Inter, system-ui, sans-serif" font-size="4.682999999999999" font-weight="700">38.2%</text>
<rect x="359.1975" y="53.6" width="110.1925" height="13.379999999999999" rx="4" fill="#1E293B" stroke="#334155"/>
<rect x="359.1975" y="53.6" width="3" height="13.379999999999999" fill="#38BDF8"/>
<text x="367.1975" y="58.5436" fill="#94A3B8" font-family="Segoe UI, Inter, system-ui, sans-serif" font-size="2.9436" font-weight="500">CSAT</text>
<text x="367.1975" y="65.22659999999999" fill="#F1F5F9" font-family="Segoe UI, Inter, system-ui, sans-serif" font-size="4.682999999999999" font-weight="700">4.7 / 5</text>
<rect x="4.62" y="76.44" width="270.29" height="188.94" rx="3" fill="#1E293B" stroke="#334155"/>
<text x="12.620000000000001" y="88.44" fill="#94A3B8" font-family="Segoe UI, Inter, system-ui, sans-serif" font-size="8" font-weight="600">Hero</text>
<polygon points="12.6,257.38 12.6,205.1 30.8,135.5 48.9,212.9 67.1,205.4 85.3,188.8 103.4,127.5 121.6,169.4 139.8,191.3 157.9,155.9 176.1,136.1 194.3,172.1 212.4,135.6 230.6,214.3 248.7,211.9 266.9,203.9 266.9,257.38" fill="#38BDF8" opacity="0.18"/>
<polyline points="12.6,205.1 30.8,135.5 48.9,212.9 67.1,205.4 85.3,188.8 103.4,127.5 121.6,169.4 139.8,191.3 157.9,155.9 176.1,136.1 194.3,172.1 212.4,135.6 230.6,214.3 248.7,211.9 266.9,203.9" fill="none" stroke="#38BDF8" stroke-width="1.8"/>
<polyline points="12.6,219.4 30.8,227.2 48.9,195.5 67.1,195.1 85.3,183.1 103.4,189.1 121.6,209.0 139.8,189.0 157.9,173.3 176.1,225.9 194.3,183.9 212.4,209.3 230.6,181.6 248.7,200.8 266.9,202.3" fill="none" stroke="#FBBF24" stroke-width="1.3" stroke-dasharray="3 2"/>
<line x1="12.620000000000001" y1="257.38" x2="266.91" y2="257.38" stroke="#334155"/>
<rect x="279.52" y="76.44" width="94.935" height="188.94" rx="3" fill="#1E293B" stroke="#334155"/>
<text x="287.52" y="88.44" fill="#94A3B8" font-family="Segoe UI, Inter, system-ui, sans-serif" font-size="8" font-weight="600">Supporting Pair L</text>
<polygon points="287.5,257.38 287.5,213.3 293.2,194.4 298.8,143.3 304.4,142.0 310.1,187.1 315.7,167.6 321.3,126.4 327.0,177.0 332.6,167.5 338.3,161.2 343.9,182.9 349.5,169.6 355.2,187.6 360.8,170.8 366.5,205.6 366.5,257.38" fill="#38BDF8" opacity="0.18"/>
<polyline points="287.5,213.3 293.2,194.4 298.8,143.3 304.4,142.0 310.1,187.1 315.7,167.6 321.3,126.4 327.0,177.0 332.6,167.5 338.3,161.2 343.9,182.9 349.5,169.6 355.2,187.6 360.8,170.8 366.5,205.6" fill="none" stroke="#38BDF8" stroke-width="1.8"/>
<polyline points="287.5,196.8 293.2,163.9 298.8,207.5 304.4,184.0 310.1,178.6 315.7,193.4 321.3,223.3 327.0,192.2 332.6,176.3 338.3,225.4 343.9,201.8 349.5,231.8 355.2,193.5 360.8,219.4 366.5,196.5" fill="none" stroke="#FBBF24" stroke-width="1.3" stroke-dasharray="3 2"/>
<line x1="287.52" y1="257.38" x2="366.455" y2="257.38" stroke="#334155"/>
<rect x="380.455" y="76.44" width="94.935" height="188.94" rx="3" fill="#1E293B" stroke="#334155"/>
<text x="388.455" y="88.44" fill="#94A3B8" font-family="Segoe UI, Inter, system-ui, sans-serif" font-size="8" font-weight="600">Supporting Pair R</text>
<circle cx="427.9" cy="180.4" r="34.2" fill="none" stroke="#38BDF8" stroke-width="12.0" stroke-dasharray="90.19 214.74" stroke-dashoffset="0.00" transform="rotate(-90 427.9 180.4)"/>
<circle cx="427.9" cy="180.4" r="34.2" fill="none" stroke="#FBBF24" stroke-width="12.0" stroke-dasharray="53.68 214.74" stroke-dashoffset="-90.19" transform="rotate(-90 427.9 180.4)"/>
<circle cx="427.9" cy="180.4" r="34.2" fill="none" stroke="#34D399" stroke-width="12.0" stroke-dasharray="38.65 214.74" stroke-dashoffset="-143.87" transform="rotate(-90 427.9 180.4)"/>
<circle cx="427.9" cy="180.4" r="34.2" fill="none" stroke="#7DD3FC" stroke-width="12.0" stroke-dasharray="32.21 214.74" stroke-dashoffset="-182.53" transform="rotate(-90 427.9 180.4)"/>
<text x="427.9225" y="183.357" fill="#F1F5F9" font-family="Segoe UI, Inter, system-ui, sans-serif" font-size="12" font-weight="700" text-anchor="middle">100%</text>
<text x="240.0" y="265" fill="#94A3B8" font-family="Segoe UI, Inter, system-ui, sans-serif" font-size="7" font-weight="600" text-anchor="middle">left-rail-filter-analytical</text>
</svg>