<svg xmlns="http://www.w3.org/2000/svg" viewBox="0 0 480 270" font-family="Segoe UI, Inter, system-ui, sans-serif">
<title>mfg-line-status-tv</title>
<rect x="0" y="0" width="480" height="270" fill="#FFFFFF"/>
<rect x="0" y="0" width="480" height="3" fill="#2563EB"/>
<rect x="4.0" y="4.0" width="472.0" height="18.75" rx="4" fill="#F8FAFC" stroke="#E5E7EB"/>
<rect x="4.0" y="4.0" width="4" height="18.75" rx="2" fill="#2563EB"/>
<text x="18.0" y="15.625" fill="#111827" font-family="Segoe UI, Inter, system-ui, sans-serif" font-size="10.3125" font-weight="700">Tv Headline</text>
<rect x="386.0" y="9.25" width="70" height="8.4" rx="3" fill="#EFF6FF" stroke="#DBEAFE"/>
<text x="421.0" y="16.375" fill="#6B7280" font-family="Segoe UI, Inter, system-ui, sans-serif" font-size="7.125" font-weight="500" text-anchor="middle">Q4 · FY26</text>
<rect x="4.0" y="25.75" width="472.0" height="18.75" rx="4" fill="#F8FAFC" stroke="#E5E7EB"/>
<rect x="4.0" y="25.75" width="4" height="18.75" rx="2" fill="#2563EB"/>
<text x="18.0" y="37.375" fill="#111827" font-family="Segoe UI, Inter, system-ui, sans-serif" font-size="10.3125" font-weight="700">Title Bar</text>
<rect x="386.0" y="31.0" width="70" height="8.4" rx="3" fill="#EFF6FF" stroke="#DBEAFE"/>
<text x="421.0" y="38.125" fill="#6B7280" font-family="Segoe UI, Inter, system-ui, sans-serif" font-size="7.125" font-weight="500" text-anchor="middle">Q4 · FY26</text>
<rect x="10.0" y="53.5" width="110.5" height="13.5" rx="4" fill="#FFFFFF" stroke="#E5E7EB"/>
<rect x="10.0" y="53.5" width="3" height="13.5" fill="#2563EB"/>
<text x="18.0" y="58.47" fill="#6B7280" font-family="Segoe UI, Inter, system-ui, sans-serif" font-size="2.97" font-weight="500">Revenue</text>
<text x="18.0" y="65.195" fill="#111827" font-family="Segoe UI, Inter, system-ui, sans-serif" font-size="4.725" font-weight="700">$1.24M</text>
<rect x="126.5" y="53.5" width="110.5" height="13.5" rx="4" fill="#FFFFFF" stroke="#E5E7EB"/>
<rect x="126.5" y="53.5" width="3" height="13.5" fill="#2563EB"/>
<text x="134.5" y="58.47" fill="#6B7280" font-family="Segoe UI, Inter, system-ui, sans-serif" font-size="2.97" font-weight="500">Orders</text>
<text x="134.5" y="65.195" fill="#111827" font-family="Segoe UI, Inter, system-ui, sans-serif" font-size="4.725" font-weight="700">48,912</text>
<rect x="243.0" y="53.5" width="110.5" height="13.5" rx="4" fill="#FFFFFF" stroke="#E5E7EB"/>
<rect x="243.0" y="53.5" width="3" height="13.5" fill="#2563EB"/>
<text x="251.0" y="58.47" fill="#6B7280" font-family="Segoe UI, Inter, system-ui, sans-serif" font-size="2.97" font-weight="500">Margin</text>
<text x="251.0" y="65.195" fill="#111827" font-family="Segoe UI, Inter, system-ui, sans-serif" font-size="4.725" font-weight="700">38.2%</text>
<rect x="359.5" y="53.5" width="110.5" height="13.5" rx="4" fill="#FFFFFF" stroke="#E5E7EB"/>
<rect x="359.5" y="53.5" width="3" height="13.5" fill="#2563EB"/>
<text x="367.5" y="58.47" fill="#6B7280" font-family="Segoe UI, Inter, system-ui, sans-serif" font-size="2.97" font-weight="500">CSAT</text>
<text x="367.5" y="65.195" fill="#111827" font-family="Segoe UI, Inter, system-ui, sans-serif" font-size="4.725" font-weight="700">4.7 / 5</text>
<rect x="4.0" y="76.0" width="472.0" height="37.25" rx="3" fill="#FFFFFF" stroke="#E5E7EB"/>
<text x="12.0" y="88.0" fill="#6B7280" font-family="Segoe UI, Inter, system-ui, sans-serif" font-size="8" font-weight="600">Hourly Output</text>
<rect x="20.5" y="101.8" width="39.9" height="3.5" rx="1" fill="#2563EB"/>
<rect x="77.5" y="98.8" width="39.9" height="6.5" rx="1" fill="#60A5FA"/>
<rect x="134.6" y="100.7" width="39.9" height="4.6" rx="1" fill="#2563EB"/>
<rect x="191.6" y="101.6" width="39.9" height="3.6" rx="1" fill="#60A5FA"/>
<rect x="248.6" y="102.4" width="39.9" height="2.9" rx="1" fill="#2563EB"/>
<rect x="305.6" y="100.8" width="39.9" height="4.4" rx="1" fill="#60A5FA"/>
<rect x="362.6" y="101.1" width="39.9" height="4.1" rx="1" fill="#2563EB"/>
<rect x="419.6" y="102.7" width="39.9" height="2.5" rx="1" fill="#60A5FA"/>
<line x1="12.0" y1="105.25" x2="468.0" y2="105.25" stroke="#E5E7EB"/>
<polyline points="40.5,103.2 97.5,101.5 154.5,102.0 211.5,99.6 268.5,103.2 325.5,101.3 382.5,100.9 439.5,102.1" fill="none" stroke="#F59E0B" stroke-width="1.6"/>
<circle cx="40.5" cy="103.2" r="1.8" fill="#F59E0B"/>
<circle cx="97.5" cy="101.5" r="1.8" fill="#F59E0B"/>
<circle cx="154.5" cy="102.0" r="1.8" fill="#F59E0B"/>
<circle cx="211.5" cy="99.6" r="1.8" fill="#F59E0B"/>
<circle cx="268.5" cy="103.2" r="1.8" fill="#F59E0B"/>
<circle cx="325.5" cy="101.3" r="1.8" fill="#F59E0B"/>
<circle cx="382.5" cy="100.9" r="1.8" fill="#F59E0B"/>
<circle cx="439.5" cy="102.1" r="1.8" fill="#F59E0B"/>
<rect x="4.0" y="116.25" width="472.0" height="37.25" rx="3" fill="#FFFFFF" stroke="#E5E7EB"/>
<text x="12.0" y="128.25" fill="#6B7280" font-family="Segoe UI, Inter, system-ui, sans-serif" font-size="8" font-weight="600">Downtime Pareto</text>
<rect x="20.5" y="141.7" width="39.9" height="3.8" rx="1" fill="#2563EB"/>
<rect x="77.5" y="142.1" width="39.9" height="3.4" rx="1" fill="#60A5FA"/>
<rect x="134.6" y="141.0" width="39.9" height="4.5" rx="1" fill="#2563EB"/>
<rect x="191.6" y="140.7" width="39.9" height="4.8" rx="1" fill="#60A5FA"/>
<rect x="248.6" y="140.2" width="39.9" height="5.3" rx="1" fill="#2563EB"/>
<rect x="305.6" y="141.4" width="39.9" height="4.1" rx="1" fill="#60A5FA"/>
<rect x="362.6" y="142.4" width="39.9" height="3.1" rx="1" fill="#2563EB"/>
<rect x="419.6" y="142.7" width="39.9" height="2.8" rx="1" fill="#60A5FA"/>
<line x1="12.0" y1="145.5" x2="468.0" y2="145.5" stroke="#E5E7EB"/>
<polyline points="40.5,139.7 97.5,143.3 154.5,141.6 211.5,144.0 268.5,141.0 325.5,142.8 382.5,140.9 439.5,142.2" fill="none" stroke="#F59E0B" stroke-width="1.6"/>
<circle cx="40.5" cy="139.7" r="1.8" fill="#F59E0B"/>
<circle cx="97.5" cy="143.3" r="1.8" fill="#F59E0B"/>
<circle cx="154.5" cy="141.6" r="1.8" fill="#F59E0B"/>
<circle cx="211.5" cy="144.0" r="1.8" fill="#F59E0B"/>
<circle cx="268.5" cy="141.0" r="1.8" fill="#F59E0B"/>
<circle cx="325.5" cy="142.8" r="1.8" fill="#F59E0B"/>
<circle cx="382.5" cy="140.9" r="1.8" fill="#F59E0B"/>
<circle cx="439.5" cy="142.2" r="1.8" fill="#F59E0B"/>
<rect x="10.0" y="162.5" width="148.0" height="25.25" rx="3" fill="#FFFFFF" stroke="#E5E7EB"/>
<text x="16.0" y="172.5" fill="#6B7280" font-family="Segoe UI, Inter, system-ui, sans-serif" font-size="8" font-weight="500">Sessions</text>
<text x="16.0" y="184.5" fill="#111827" font-family="Segoe UI, Inter, system-ui, sans-serif" font-size="11" font-weight="700">2,972</text>
<polygon points="16.0,183.75 16.0,184.9 28.4,186.3 40.7,185.6 53.1,187.2 65.5,186.1 77.8,185.7 90.2,185.6 102.5,187.1 114.9,186.6 127.3,187.2 139.6,185.0 152.0,188.3 152.0,183.75" fill="#2563EB" opacity="0.15"/>
<polyline points="16.0,184.9 28.4,186.3 40.7,185.6 53.1,187.2 65.5,186.1 77.8,185.7 90.2,185.6 102.5,187.1 114.9,186.6 127.3,187.2 139.6,185.0 152.0,188.3" fill="none" stroke="#2563EB" stroke-width="1.4"/>
<rect x="166.0" y="162.5" width="148.0" height="25.25" rx="3" fill="#FFFFFF" stroke="#E5E7EB"/>
<text x="172.0" y="172.5" fill="#6B7280" font-family="Segoe UI, Inter, system-ui, sans-serif" font-size="8" font-weight="500">Revenue</text>
<text x="172.0" y="184.5" fill="#111827" font-family="Segoe UI, Inter, system-ui, sans-serif" font-size="11" font-weight="700">1,337</text>
<polygon points="172.0,183.75 172.0,186.7 184.4,188.2 196.7,188.0 209.1,187.0 221.5,186.4 233.8,187.0 246.2,184.1 258.5,186.3 270.9,186.7 283.3,187.0 295.6,186.0 308.0,187.5 308.0,183.75" fill="#2563EB" opacity="0.15"/>
<polyline points="172.0,186.7 184.4,188.2 196.7,188.0 209.1,187.0 221.5,186.4 233.8,187.0 246.2,184.1 258.5,186.3 270.9,186.7 283.3,187.0 295.6,186.0 308.0,187.5" fill="none" stroke="#2563EB" stroke-width="1.4"/>
<rect x="322.0" y="162.5" width="148.0" height="25.25" rx="3" fill="#FFFFFF" stroke="#E5E7EB"/>
<text x="328.0" y="172.5" fill="#6B7280" font-family="Segoe UI, Inter, system-ui, sans-serif" font-size="8" font-weight="500">Orders</text>
<text x="328.0" y="184.5" fill="#111827" font-family="Segoe UI, Inter, system-ui, sans-serif" font-size="11" font-weight="700">4,057</text>
<polygon points="328.0,183.75 328.0,184.9 340.4,183.8 352.7,186.6 365.1,185.5 377.5,186.6 389.8,183.8 402.2,186.0 414.5,187.8 426.9,184.0 439.3,185.6 451.6,187.5 464.0,187.3 464.0,183.75" fill="#2563EB" opacity="0.15"/>
<polyline points="328.0,184.9 340.4,183.8 352.7,186.6 365.1,185.5 377.5,186.6 389.8,183.8 402.2,186.0 414.5,187.8 426.9,184.0 439.3,185.6 451.6,187.5 464.0,187.3" fill="none" stroke="#2563EB" stroke-width="1.4"/>
<rect x="4.0" y="196.75" width="472.0" height="57.0" rx="3" fill="#FFFFFF" stroke="#E5E7EB"/>
<rect x="4.0" y="196.75" width="472.0" height="14" fill="#EFF6FF"/>
<text x="12.0" y="206.75" fill="#111827" font-family="Segoe UI, Inter, system-ui, sans-serif" font-size="7.5" font-weight="700">Item</text>
<text x="103.2" y="206.75" fill="#111827" font-family="Segoe UI, Inter, system-ui, sans-serif" font-size="7.5" font-weight="700">Value</text>
<text x="194.4" y="206.75" fill="#111827" font-family="Segoe UI, Inter, system-ui, sans-serif" font-size="7.5" font-weight="700">Δ%</text>
<text x="285.6" y="206.75" fill="#111827" font-family="Segoe UI, Inter, system-ui, sans-serif" font-size="7.5" font-weight="700">Status</text>
<text x="376.8" y="206.75" fill="#111827" font-family="Segoe UI, Inter, system-ui, sans-serif" font-size="7.5" font-weight="700">Trend</text>
<line x1="4.0" y1="210.75" x2="476.0" y2="210.75" stroke="#E5E7EB"/>
<rect x="12.0" y="213.75" width="63.8" height="4" fill="#6B7280" rx="1" opacity="0.5"/>
<rect x="103.2" y="213.75" width="45.6" height="4" fill="#111827" rx="1" opacity="0.7"/>
<rect x="194.4" y="213.75" width="45.6" height="4" fill="#111827" rx="1" opacity="0.7"/>
<circle cx="291.6" cy="215.75" r="2.5" fill="#10B981"/>
<polyline points="378.8,214.4 380.8,217.7 382.8,217.2 384.8,213.9 386.8,216.1" fill="none" stroke="#2563EB" stroke-width="1"/>
<rect x="4.0" y="220.75" width="472.0" height="10" fill="#F3F4F6"/>
<rect x="12.0" y="223.75" width="63.8" height="4" fill="#6B7280" rx="1" opacity="0.5"/>
<rect x="103.2" y="223.75" width="45.6" height="4" fill="#111827" rx="1" opacity="0.7"/>
<rect x="194.4" y="223.75" width="45.6" height="4" fill="#111827" rx="1" opacity="0.7"/>
<circle cx="291.6" cy="225.75" r="2.5" fill="#F59E0B"/>
<polyline points="378.8,227.5 380.8,224.9 382.8,226.6 384.8,224.2 386.8,224.5" fill="none" stroke="#2563EB" stroke-width="1"/>
<rect x="12.0" y="233.75" width="63.8" height="4" fill="#6B7280" rx="1" opacity="0.5"/>
<rect x="103.2" y="233.75" width="45.6" height="4" fill="#111827" rx="1" opacity="0.7"/>
<rect x="194.4" y="233.75" width="45.6" height="4" fill="#111827" rx="1" opacity="0.7"/>
<circle cx="291.6" cy="235.75" r="2.5" fill="#EF4444"/>
<polyline points="378.8,235.4 380.8,234.1 382.8,235.5 384.8,234.3 386.8,234.5" fill="none" stroke="#2563EB" stroke-width="1"/>
<rect x="4.0" y="240.75" width="472.0" height="10" fill="#F3F4F6"/>
<rect x="12.0" y="243.75" width="63.8" height="4" fill="#6B7280" rx="1" opacity="0.5"/>
<rect x="103.2" y="243.75" width="45.6" height="4" fill="#111827" rx="1" opacity="0.7"/>
<rect x="194.4" y="243.75" width="45.6" height="4" fill="#111827" rx="1" opacity="0.7"/>
<circle cx="291.6" cy="245.75" r="2.5" fill="#10B981"/>
<polyline points="378.8,245.8 380.8,246.3 382.8,244.7 384.8,245.0 386.8,244.4" fill="none" stroke="#2563EB" stroke-width="1"/>
<rect x="4.0" y="256.75" width="472.0" height="9.25" rx="3" fill="#EF4444" opacity="0.08" stroke="#EF4444" stroke-opacity="0.35"/>
<rect x="4.0" y="256.75" width="3" height="9.25" fill="#EF4444"/>
<circle cx="18.0" cy="261.375" r="3" fill="#EF4444"/>
<text x="28.0" y="264.375" fill="#EF4444" font-family="Segoe UI, Inter, system-ui, sans-serif" font-size="5.0875" font-weight="600">ALERT · Line 3 downtime 4m · exception queue +12</text>
<text x="240.0" y="265" fill="#6B7280" font-family="Segoe UI, Inter, system-ui, sans-serif" font-size="7" font-weight="600" text-anchor="middle">mfg-line-status-tv</text>
</svg>