<svg xmlns="http://www.w3.org/2000/svg" viewBox="0 0 240 519" font-family="Segoe UI, Inter, system-ui, sans-serif">
<title>mobile-portrait-9x16</title>
<rect x="0" y="0" width="240" height="519" fill="#0F172A"/>
<rect x="0" y="0" width="240" height="3" fill="#38BDF8"/>
<rect x="7.38" y="9.84" width="225.23" height="28.29" rx="4" fill="#111827" stroke="#334155"/>
<rect x="7.38" y="9.84" width="4" height="28.29" rx="2" fill="#38BDF8"/>
<text x="21.38" y="27.3798" fill="#F1F5F9" font-family="Segoe UI, Inter, system-ui, sans-serif" font-size="11" font-weight="700">Header Compact</text>
<rect x="142.60999999999999" y="17.761200000000002" width="70" height="12.7" rx="3" fill="#0C2A4A" stroke="#1E40AF"/>
<text x="177.60999999999999" y="28.511400000000002" fill="#94A3B8" font-family="Segoe UI, Inter, system-ui, sans-serif" font-size="10.7502" font-weight="500" text-anchor="middle">Q4 · FY26</text>
<rect x="11.379999999999999" y="50.5" width="217.23" height="10.706666666666665" rx="3" fill="#1E293B" stroke="#334155"/>
<rect x="11.379999999999999" y="50.5" width="3" height="10.706666666666665" fill="#38BDF8"/>
<text x="19.38" y="53.94733333333333" fill="#94A3B8" font-family="Segoe UI, Inter, system-ui, sans-serif" font-size="2.7954666666666665" font-weight="500">Revenue</text>
<text x="19.38" y="58.648799999999994" fill="#F1F5F9" font-family="Segoe UI, Inter, system-ui, sans-serif" font-size="5.082666666666666" font-weight="700">$1.24M</text>
<rect x="11.379999999999999" y="63.20666666666666" width="217.23" height="10.706666666666665" rx="3" fill="#1E293B" stroke="#334155"/>
<rect x="11.379999999999999" y="63.20666666666666" width="3" height="10.706666666666665" fill="#38BDF8"/>
<text x="19.38" y="66.654" fill="#94A3B8" font-family="Segoe UI, Inter, system-ui, sans-serif" font-size="2.7954666666666665" font-weight="500">Margin</text>
<text x="19.38" y="71.35546666666666" fill="#F1F5F9" font-family="Segoe UI, Inter, system-ui, sans-serif" font-size="5.082666666666666" font-weight="700">38.2%</text>
<rect x="11.379999999999999" y="75.91333333333333" width="217.23" height="10.706666666666665" rx="3" fill="#1E293B" stroke="#334155"/>
<rect x="11.379999999999999" y="75.91333333333333" width="3" height="10.706666666666665" fill="#38BDF8"/>
<text x="19.38" y="79.36066666666666" fill="#94A3B8" font-family="Segoe UI, Inter, system-ui, sans-serif" font-size="2.7954666666666665" font-weight="500">CSAT</text>
<text x="19.38" y="84.06213333333332" fill="#F1F5F9" font-family="Segoe UI, Inter, system-ui, sans-serif" font-size="5.082666666666666" font-weight="700">4.7</text>
<rect x="7.38" y="99.0" width="225.23" height="335.75" rx="3" fill="#1E293B" stroke="#334155"/>
<text x="15.379999999999999" y="111.0" fill="#94A3B8" font-family="Segoe UI, Inter, system-ui, sans-serif" font-size="8" font-weight="600">Hero Chart</text>
<polygon points="15.4,426.75 15.4,175.0 30.3,261.6 45.3,241.6 60.2,182.0 75.2,241.0 90.1,172.3 105.0,295.9 120.0,181.4 134.9,307.7 149.9,343.6 164.8,236.6 179.8,234.1 194.7,320.7 209.7,227.8 224.6,195.2 224.6,426.75" fill="#38BDF8" opacity="0.18"/>
<polyline points="15.4,175.0 30.3,261.6 45.3,241.6 60.2,182.0 75.2,241.0 90.1,172.3 105.0,295.9 120.0,181.4 134.9,307.7 149.9,343.6 164.8,236.6 179.8,234.1 194.7,320.7 209.7,227.8 224.6,195.2" fill="none" stroke="#38BDF8" stroke-width="1.8"/>
<polyline points="15.4,327.0 30.3,277.9 45.3,257.7 60.2,344.7 75.2,288.3 90.1,322.8 105.0,347.6 120.0,329.6 134.9,278.2 149.9,244.6 164.8,350.1 179.8,302.6 194.7,349.2 209.7,269.7 224.6,349.0" fill="none" stroke="#FBBF24" stroke-width="1.3" stroke-dasharray="3 2"/>
<line x1="15.379999999999999" y1="426.75" x2="224.60999999999999" y2="426.75" stroke="#334155"/>
<rect x="7.38" y="442.13" width="225.23" height="43.66" rx="3" fill="#1E293B" stroke="#334155"/>
<rect x="17.4" y="448.1" width="45.3" height="31.7" rx="15.8" fill="#0C2A4A" stroke="#1E40AF"/>
<text x="40.0" y="467.0" fill="#38BDF8" font-family="Segoe UI, Inter, system-ui, sans-serif" font-size="8" font-weight="600" text-anchor="middle">Export</text>
<rect x="70.7" y="448.1" width="45.3" height="31.7" rx="15.8" fill="#0C2A4A" stroke="#1E40AF"/>
<text x="93.3" y="467.0" fill="#38BDF8" font-family="Segoe UI, Inter, system-ui, sans-serif" font-size="8" font-weight="600" text-anchor="middle">Share</text>
<rect x="124.0" y="448.1" width="45.3" height="31.7" rx="15.8" fill="#0C2A4A" stroke="#1E40AF"/>
<text x="146.6" y="467.0" fill="#38BDF8" font-family="Segoe UI, Inter, system-ui, sans-serif" font-size="8" font-weight="600" text-anchor="middle">Subscribe</text>
<rect x="177.3" y="448.1" width="45.3" height="31.7" rx="15.8" fill="#0C2A4A" stroke="#1E40AF"/>
<text x="200.0" y="467.0" fill="#38BDF8" font-family="Segoe UI, Inter, system-ui, sans-serif" font-size="8" font-weight="600" text-anchor="middle">Comment</text>
<rect x="7.38" y="493.17" width="225.23" height="15.99" rx="2" fill="#111827" stroke="#334155"/>
<text x="17.38" y="503.56350000000003" fill="#94A3B8" font-family="Segoe UI, Inter, system-ui, sans-serif" font-size="7" font-weight="400">Source: Data warehouse · Last refresh 08:15</text>
<text x="172.60999999999999" y="503.56350000000003" fill="#94A3B8" font-family="Segoe UI, Inter, system-ui, sans-serif" font-size="7" font-weight="500" text-anchor="start">Confidential</text>
<rect x="212.60999999999999" y="497.1675" width="14" height="8.0" rx="2" fill="#38BDF8" opacity="0.15"/>
<text x="219.60999999999999" y="504.363" fill="#38BDF8" font-family="Segoe UI, Inter, system-ui, sans-serif" font-size="7" font-weight="700" text-anchor="middle">1</text>
<text x="120.0" y="514" fill="#94A3B8" font-family="Segoe UI, Inter, system-ui, sans-serif" font-size="7" font-weight="600" text-anchor="middle">mobile-portrait-9x16</text>
</svg>