<svg xmlns="http://www.w3.org/2000/svg" viewBox="0 0 480 270" font-family="Segoe UI, Inter, system-ui, sans-serif">
<title>ops-single-screen</title>
<rect x="0" y="0" width="480" height="270" fill="#FFFFFF"/>
<rect x="0" y="0" width="480" height="3" fill="#2563EB"/>
<rect x="4.62" y="4.62" width="470.77" height="18.75" rx="4" fill="#F8FAFC" stroke="#E5E7EB"/>
<rect x="4.62" y="4.62" width="4" height="18.75" rx="2" fill="#2563EB"/>
<text x="18.62" y="16.245" fill="#111827" font-family="Segoe UI, Inter, system-ui, sans-serif" font-size="10.3125" font-weight="700">Title Bar</text>
<rect x="385.39" y="9.870000000000001" width="70" height="8.4" rx="3" fill="#EFF6FF" stroke="#DBEAFE"/>
<text x="420.39" y="16.995" fill="#6B7280" font-family="Segoe UI, Inter, system-ui, sans-serif" font-size="7.125" font-weight="500" text-anchor="middle">Q4 · FY26</text>
<rect x="428.08" y="4.62" width="47.31" height="18.75" rx="3" fill="#FFFFFF" stroke="#E5E7EB"/>
<path d="M 449.7 14.0 A 5.6 5.6 0 1 1 444.1 8.4" fill="none" stroke="#10B981" stroke-width="1.6" stroke-linecap="round"/>
<path d="M 443.1 6.4 l 2 3 l 2 -3 z" fill="#10B981"/>
<text x="458.08" y="16.995" fill="#6B7280" font-family="Segoe UI, Inter, system-ui, sans-serif" font-size="6.5625" font-weight="500">Refreshed 2m ago</text>
<rect x="10.620000000000001" y="32.83" width="71.46166666666666" height="13.379999999999999" rx="4" fill="#FFFFFF" stroke="#E5E7EB"/>
<rect x="10.620000000000001" y="32.83" width="3" height="13.379999999999999" fill="#2563EB"/>
<text x="18.62" y="37.7736" fill="#6B7280" font-family="Segoe UI, Inter, system-ui, sans-serif" font-size="2.9436" font-weight="500">Revenue</text>
<text x="18.62" y="44.4566" fill="#111827" font-family="Segoe UI, Inter, system-ui, sans-serif" font-size="4.682999999999999" font-weight="700">$1.24M</text>
<rect x="88.08166666666666" y="32.83" width="71.46166666666666" height="13.379999999999999" rx="4" fill="#FFFFFF" stroke="#E5E7EB"/>
<rect x="88.08166666666666" y="32.83" width="3" height="13.379999999999999" fill="#2563EB"/>
<text x="96.08166666666666" y="37.7736" fill="#6B7280" font-family="Segoe UI, Inter, system-ui, sans-serif" font-size="2.9436" font-weight="500">Orders</text>
<text x="96.08166666666666" y="44.4566" fill="#111827" font-family="Segoe UI, Inter, system-ui, sans-serif" font-size="4.682999999999999" font-weight="700">48,912</text>
<rect x="165.54333333333332" y="32.83" width="71.46166666666666" height="13.379999999999999" rx="4" fill="#FFFFFF" stroke="#E5E7EB"/>
<rect x="165.54333333333332" y="32.83" width="3" height="13.379999999999999" fill="#2563EB"/>
<text x="173.54333333333332" y="37.7736" fill="#6B7280" font-family="Segoe UI, Inter, system-ui, sans-serif" font-size="2.9436" font-weight="500">Margin</text>
<text x="173.54333333333332" y="44.4566" fill="#111827" font-family="Segoe UI, Inter, system-ui, sans-serif" font-size="4.682999999999999" font-weight="700">38.2%</text>
<rect x="243.005" y="32.83" width="71.46166666666666" height="13.379999999999999" rx="4" fill="#FFFFFF" stroke="#E5E7EB"/>
<rect x="243.005" y="32.83" width="3" height="13.379999999999999" fill="#2563EB"/>
<text x="251.005" y="37.7736" fill="#6B7280" font-family="Segoe UI, Inter, system-ui, sans-serif" font-size="2.9436" font-weight="500">CSAT</text>
<text x="251.005" y="44.4566" fill="#111827" font-family="Segoe UI, Inter, system-ui, sans-serif" font-size="4.682999999999999" font-weight="700">4.7 / 5</text>
<rect x="320.46666666666664" y="32.83" width="71.46166666666666" height="13.379999999999999" rx="4" fill="#FFFFFF" stroke="#E5E7EB"/>
<rect x="320.46666666666664" y="32.83" width="3" height="13.379999999999999" fill="#2563EB"/>
<text x="328.46666666666664" y="37.7736" fill="#6B7280" font-family="Segoe UI, Inter, system-ui, sans-serif" font-size="2.9436" font-weight="500">Conv %</text>
<text x="328.46666666666664" y="44.4566" fill="#111827" font-family="Segoe UI, Inter, system-ui, sans-serif" font-size="4.682999999999999" font-weight="700">12.8%</text>
<rect x="397.9283333333333" y="32.83" width="71.46166666666666" height="13.379999999999999" rx="4" fill="#FFFFFF" stroke="#E5E7EB"/>
<rect x="397.9283333333333" y="32.83" width="3" height="13.379999999999999" fill="#2563EB"/>
<text x="405.9283333333333" y="37.7736" fill="#6B7280" font-family="Segoe UI, Inter, system-ui, sans-serif" font-size="2.9436" font-weight="500">AOV</text>
<text x="405.9283333333333" y="44.4566" fill="#111827" font-family="Segoe UI, Inter, system-ui, sans-serif" font-size="4.682999999999999" font-weight="700">$86</text>
<rect x="4.62" y="55.67" width="470.77" height="98.37" rx="3" fill="#FFFFFF" stroke="#E5E7EB"/>
<rect x="4.62" y="55.67" width="470.77" height="12" fill="#EFF6FF"/>
<line x1="83.1" y1="55.67" x2="83.1" y2="154.04000000000002" stroke="#E5E7EB" stroke-opacity="0.6"/>
<line x1="161.5" y1="55.67" x2="161.5" y2="154.04000000000002" stroke="#E5E7EB" stroke-opacity="0.6"/>
<line x1="240.0" y1="55.67" x2="240.0" y2="154.04000000000002" stroke="#E5E7EB" stroke-opacity="0.6"/>
<line x1="318.5" y1="55.67" x2="318.5" y2="154.04000000000002" stroke="#E5E7EB" stroke-opacity="0.6"/>
<line x1="396.9" y1="55.67" x2="396.9" y2="154.04000000000002" stroke="#E5E7EB" stroke-opacity="0.6"/>
<line x1="4.62" y1="67.7" x2="475.39" y2="67.7" stroke="#E5E7EB" stroke-opacity="0.5"/>
<line x1="4.62" y1="78.5" x2="475.39" y2="78.5" stroke="#E5E7EB" stroke-opacity="0.5"/>
<line x1="4.62" y1="89.3" x2="475.39" y2="89.3" stroke="#E5E7EB" stroke-opacity="0.5"/>
<line x1="4.62" y1="100.1" x2="475.39" y2="100.1" stroke="#E5E7EB" stroke-opacity="0.5"/>
<line x1="4.62" y1="110.9" x2="475.39" y2="110.9" stroke="#E5E7EB" stroke-opacity="0.5"/>
<line x1="4.62" y1="121.7" x2="475.39" y2="121.7" stroke="#E5E7EB" stroke-opacity="0.5"/>
<line x1="4.62" y1="132.4" x2="475.39" y2="132.4" stroke="#E5E7EB" stroke-opacity="0.5"/>
<line x1="4.62" y1="143.2" x2="475.39" y2="143.2" stroke="#E5E7EB" stroke-opacity="0.5"/>
<line x1="4.62" y1="154.0" x2="475.39" y2="154.0" stroke="#E5E7EB" stroke-opacity="0.5"/>
<text x="43.9" y="64.67" fill="#111827" font-family="Segoe UI, Inter, system-ui, sans-serif" font-size="7" font-weight="700" text-anchor="middle">Q1</text>
<text x="122.3" y="64.67" fill="#111827" font-family="Segoe UI, Inter, system-ui, sans-serif" font-size="7" font-weight="700" text-anchor="middle">Q2</text>
<text x="200.8" y="64.67" fill="#111827" font-family="Segoe UI, Inter, system-ui, sans-serif" font-size="7" font-weight="700" text-anchor="middle">Q3</text>
<text x="279.2" y="64.67" fill="#111827" font-family="Segoe UI, Inter, system-ui, sans-serif" font-size="7" font-weight="700" text-anchor="middle">Q4</text>
<text x="357.7" y="64.67" fill="#111827" font-family="Segoe UI, Inter, system-ui, sans-serif" font-size="7" font-weight="700" text-anchor="middle">YTD</text>
<text x="436.2" y="64.67" fill="#111827" font-family="Segoe UI, Inter, system-ui, sans-serif" font-size="7" font-weight="700" text-anchor="middle">Δ</text>
<rect x="7.62" y="69.67" width="54.9" height="3" fill="#111827" opacity="0.5" rx="1"/>
<rect x="84.1" y="68.7" width="76.5" height="8.8" fill="#F59E0B" opacity="0.32"/>
<rect x="162.5" y="68.7" width="76.5" height="8.8" fill="#EF4444" opacity="0.17"/>
<rect x="241.0" y="68.7" width="76.5" height="8.8" fill="#EF4444" opacity="0.16"/>
<rect x="319.5" y="68.7" width="76.5" height="8.8" fill="#EF4444" opacity="0.22"/>
<rect x="397.9" y="68.7" width="76.5" height="8.8" fill="#EF4444" opacity="0.23"/>
<rect x="7.62" y="80.46625" width="54.9" height="3" fill="#111827" opacity="0.5" rx="1"/>
<rect x="84.1" y="79.5" width="76.5" height="8.8" fill="#F59E0B" opacity="0.32"/>
<rect x="162.5" y="79.5" width="76.5" height="8.8" fill="#EF4444" opacity="0.18"/>
<rect x="241.0" y="79.5" width="76.5" height="8.8" fill="#10B981" opacity="0.40"/>
<rect x="319.5" y="79.5" width="76.5" height="8.8" fill="#F59E0B" opacity="0.30"/>
<rect x="397.9" y="79.5" width="76.5" height="8.8" fill="#10B981" opacity="0.38"/>
<rect x="7.62" y="91.2625" width="54.9" height="3" fill="#111827" opacity="0.5" rx="1"/>
<rect x="84.1" y="90.3" width="76.5" height="8.8" fill="#10B981" opacity="0.40"/>
<rect x="162.5" y="90.3" width="76.5" height="8.8" fill="#F59E0B" opacity="0.30"/>
<rect x="241.0" y="90.3" width="76.5" height="8.8" fill="#F59E0B" opacity="0.32"/>
<rect x="319.5" y="90.3" width="76.5" height="8.8" fill="#F59E0B" opacity="0.26"/>
<rect x="397.9" y="90.3" width="76.5" height="8.8" fill="#EF4444" opacity="0.21"/>
<rect x="7.62" y="102.05875" width="54.9" height="3" fill="#111827" opacity="0.5" rx="1"/>
<rect x="84.1" y="101.1" width="76.5" height="8.8" fill="#10B981" opacity="0.38"/>
<rect x="162.5" y="101.1" width="76.5" height="8.8" fill="#10B981" opacity="0.39"/>
<rect x="241.0" y="101.1" width="76.5" height="8.8" fill="#10B981" opacity="0.40"/>
<rect x="319.5" y="101.1" width="76.5" height="8.8" fill="#F59E0B" opacity="0.30"/>
<rect x="397.9" y="101.1" width="76.5" height="8.8" fill="#10B981" opacity="0.38"/>
<rect x="7.62" y="112.855" width="54.9" height="3" fill="#111827" opacity="0.5" rx="1"/>
<rect x="84.1" y="111.9" width="76.5" height="8.8" fill="#F59E0B" opacity="0.31"/>
<rect x="162.5" y="111.9" width="76.5" height="8.8" fill="#10B981" opacity="0.33"/>
<rect x="241.0" y="111.9" width="76.5" height="8.8" fill="#EF4444" opacity="0.18"/>
<rect x="319.5" y="111.9" width="76.5" height="8.8" fill="#10B981" opacity="0.39"/>
<rect x="397.9" y="111.9" width="76.5" height="8.8" fill="#10B981" opacity="0.43"/>
<rect x="7.62" y="123.65125" width="54.9" height="3" fill="#111827" opacity="0.5" rx="1"/>
<rect x="84.1" y="122.7" width="76.5" height="8.8" fill="#EF4444" opacity="0.24"/>
<rect x="162.5" y="122.7" width="76.5" height="8.8" fill="#EF4444" opacity="0.18"/>
<rect x="241.0" y="122.7" width="76.5" height="8.8" fill="#F59E0B" opacity="0.28"/>
<rect x="319.5" y="122.7" width="76.5" height="8.8" fill="#F59E0B" opacity="0.26"/>
<rect x="397.9" y="122.7" width="76.5" height="8.8" fill="#10B981" opacity="0.35"/>
<rect x="7.62" y="134.4475" width="54.9" height="3" fill="#111827" opacity="0.5" rx="1"/>
<rect x="84.1" y="133.4" width="76.5" height="8.8" fill="#10B981" opacity="0.41"/>
<rect x="162.5" y="133.4" width="76.5" height="8.8" fill="#F59E0B" opacity="0.27"/>
<rect x="241.0" y="133.4" width="76.5" height="8.8" fill="#F59E0B" opacity="0.28"/>
<rect x="319.5" y="133.4" width="76.5" height="8.8" fill="#EF4444" opacity="0.24"/>
<rect x="397.9" y="133.4" width="76.5" height="8.8" fill="#EF4444" opacity="0.22"/>
<rect x="7.62" y="145.24375" width="54.9" height="3" fill="#111827" opacity="0.5" rx="1"/>
<rect x="84.1" y="144.2" width="76.5" height="8.8" fill="#10B981" opacity="0.44"/>
<rect x="162.5" y="144.2" width="76.5" height="8.8" fill="#10B981" opacity="0.34"/>
<rect x="241.0" y="144.2" width="76.5" height="8.8" fill="#EF4444" opacity="0.20"/>
<rect x="319.5" y="144.2" width="76.5" height="8.8" fill="#EF4444" opacity="0.20"/>
<rect x="397.9" y="144.2" width="76.5" height="8.8" fill="#10B981" opacity="0.37"/>
<rect x="4.62" y="157.5" width="470.77" height="52.21" rx="3" fill="#FFFFFF" stroke="#E5E7EB"/>
<text x="12.620000000000001" y="169.5" fill="#6B7280" font-family="Segoe UI, Inter, system-ui, sans-serif" font-size="8" font-weight="600">Exception Feed</text>
<polygon points="12.6,201.71 12.6,185.6 45.1,196.6 77.6,192.5 110.1,185.7 142.6,186.1 175.0,194.1 207.5,195.0 240.0,195.1 272.5,196.3 305.0,190.4 337.5,185.4 369.9,192.4 402.4,195.0 434.9,184.7 467.4,193.0 467.4,201.71" fill="#2563EB" opacity="0.18"/>
<polyline points="12.6,185.6 45.1,196.6 77.6,192.5 110.1,185.7 142.6,186.1 175.0,194.1 207.5,195.0 240.0,195.1 272.5,196.3 305.0,190.4 337.5,185.4 369.9,192.4 402.4,195.0 434.9,184.7 467.4,193.0" fill="none" stroke="#2563EB" stroke-width="1.8"/>
<polyline points="12.6,197.3 45.1,193.5 77.6,190.2 110.1,195.5 142.6,197.4 175.0,190.9 207.5,190.2 240.0,197.3 272.5,192.7 305.0,195.0 337.5,192.1 369.9,196.3 402.4,196.2 434.9,197.7 467.4,195.3" fill="none" stroke="#F59E0B" stroke-width="1.3" stroke-dasharray="3 2"/>
<line x1="12.620000000000001" y1="201.71" x2="467.39" y2="201.71" stroke="#E5E7EB"/>
<rect x="10.620000000000001" y="219.17" width="108.6925" height="40.21" rx="3" fill="#FFFFFF" stroke="#E5E7EB"/>
<text x="16.62" y="229.17" fill="#6B7280" font-family="Segoe UI, Inter, system-ui, sans-serif" font-size="8" font-weight="500">Sessions</text>
<text x="16.62" y="241.17" fill="#111827" font-family="Segoe UI, Inter, system-ui, sans-serif" font-size="11" font-weight="700">3,031</text>
<polygon points="16.62,255.38 16.6,253.1 25.4,249.9 34.2,245.4 43.0,246.2 51.8,251.3 60.6,252.8 69.4,250.5 78.2,251.5 86.9,253.3 95.7,248.9 104.5,248.9 113.3,254.7 113.3125,255.38" fill="#2563EB" opacity="0.15"/>
<polyline points="16.6,253.1 25.4,249.9 34.2,245.4 43.0,246.2 51.8,251.3 60.6,252.8 69.4,250.5 78.2,251.5 86.9,253.3 95.7,248.9 104.5,248.9 113.3,254.7" fill="none" stroke="#2563EB" stroke-width="1.4"/>
<rect x="127.3125" y="219.17" width="108.6925" height="40.21" rx="3" fill="#FFFFFF" stroke="#E5E7EB"/>
<text x="133.3125" y="229.17" fill="#6B7280" font-family="Segoe UI, Inter, system-ui, sans-serif" font-size="8" font-weight="500">Revenue</text>
<text x="133.3125" y="241.17" fill="#111827" font-family="Segoe UI, Inter, system-ui, sans-serif" font-size="11" font-weight="700">8,612</text>
<polygon points="133.3125,255.38 133.3,250.2 142.1,249.5 150.9,254.9 159.7,246.7 168.5,248.3 177.3,248.7 186.1,255.1 194.8,253.7 203.6,252.6 212.4,250.4 221.2,251.4 230.0,246.2 230.005,255.38" fill="#2563EB" opacity="0.15"/>
<polyline points="133.3,250.2 142.1,249.5 150.9,254.9 159.7,246.7 168.5,248.3 177.3,248.7 186.1,255.1 194.8,253.7 203.6,252.6 212.4,250.4 221.2,251.4 230.0,246.2" fill="none" stroke="#2563EB" stroke-width="1.4"/>
<rect x="244.005" y="219.17" width="108.6925" height="40.21" rx="3" fill="#FFFFFF" stroke="#E5E7EB"/>
<text x="250.005" y="229.17" fill="#6B7280" font-family="Segoe UI, Inter, system-ui, sans-serif" font-size="8" font-weight="500">Orders</text>
<text x="250.005" y="241.17" fill="#111827" font-family="Segoe UI, Inter, system-ui, sans-serif" font-size="11" font-weight="700">4,937</text>
<polygon points="250.005,255.38 250.0,250.8 258.8,251.8 267.6,245.6 276.4,247.3 285.2,248.9 294.0,254.4 302.7,250.1 311.5,253.4 320.3,251.4 329.1,247.7 337.9,254.0 346.7,251.5 346.6975,255.38" fill="#2563EB" opacity="0.15"/>
<polyline points="250.0,250.8 258.8,251.8 267.6,245.6 276.4,247.3 285.2,248.9 294.0,254.4 302.7,250.1 311.5,253.4 320.3,251.4 329.1,247.7 337.9,254.0 346.7,251.5" fill="none" stroke="#2563EB" stroke-width="1.4"/>
<rect x="360.6975" y="219.17" width="108.6925" height="40.21" rx="3" fill="#FFFFFF" stroke="#E5E7EB"/>
<text x="366.6975" y="229.17" fill="#6B7280" font-family="Segoe UI, Inter, system-ui, sans-serif" font-size="8" font-weight="500">Leads</text>
<text x="366.6975" y="241.17" fill="#111827" font-family="Segoe UI, Inter, system-ui, sans-serif" font-size="11" font-weight="700">5,344</text>
<polygon points="366.6975,255.38 366.7,255.2 375.5,249.8 384.3,253.9 393.1,249.8 401.9,252.8 410.6,249.8 419.4,251.0 428.2,250.8 437.0,247.6 445.8,246.1 454.6,251.7 463.4,252.6 463.39,255.38" fill="#2563EB" opacity="0.15"/>
<polyline points="366.7,255.2 375.5,249.8 384.3,253.9 393.1,249.8 401.9,252.8 410.6,249.8 419.4,251.0 428.2,250.8 437.0,247.6 445.8,246.1 454.6,251.7 463.4,252.6" fill="none" stroke="#2563EB" stroke-width="1.4"/>
<text x="240.0" y="265" fill="#6B7280" font-family="Segoe UI, Inter, system-ui, sans-serif" font-size="7" font-weight="600" text-anchor="middle">ops-single-screen</text>
</svg>