<svg xmlns="http://www.w3.org/2000/svg" viewBox="0 0 480 270" font-family="Segoe UI, Inter, system-ui, sans-serif">
<title>ops-single-screen-tv</title>
<rect x="0" y="0" width="480" height="270" fill="#0F172A"/>
<rect x="0" y="0" width="480" height="3" fill="#38BDF8"/>
<rect x="4.0" y="4.0" width="472.0" height="18.75" rx="4" fill="#111827" stroke="#334155"/>
<rect x="4.0" y="4.0" width="4" height="18.75" rx="2" fill="#38BDF8"/>
<text x="18.0" y="15.625" fill="#F1F5F9" font-family="Segoe UI, Inter, system-ui, sans-serif" font-size="10.3125" font-weight="700">Tv Headline</text>
<rect x="386.0" y="9.25" width="70" height="8.4" rx="3" fill="#0C2A4A" stroke="#1E40AF"/>
<text x="421.0" y="16.375" fill="#94A3B8" font-family="Segoe UI, Inter, system-ui, sans-serif" font-size="7.125" font-weight="500" text-anchor="middle">Q4 · FY26</text>
<rect x="4.0" y="25.75" width="472.0" height="18.75" rx="4" fill="#111827" stroke="#334155"/>
<rect x="4.0" y="25.75" width="4" height="18.75" rx="2" fill="#38BDF8"/>
<text x="18.0" y="37.375" fill="#F1F5F9" font-family="Segoe UI, Inter, system-ui, sans-serif" font-size="10.3125" font-weight="700">Title Bar</text>
<rect x="386.0" y="31.0" width="70" height="8.4" rx="3" fill="#0C2A4A" stroke="#1E40AF"/>
<text x="421.0" y="38.125" fill="#94A3B8" font-family="Segoe UI, Inter, system-ui, sans-serif" font-size="7.125" font-weight="500" text-anchor="middle">Q4 · FY26</text>
<rect x="435.0" y="4.0" width="41.0" height="18.75" rx="3" fill="#1E293B" stroke="#334155"/>
<path d="M 456.6 13.4 A 5.6 5.6 0 1 1 451.0 7.8" fill="none" stroke="#34D399" stroke-width="1.6" stroke-linecap="round"/>
<path d="M 450.0 5.8 l 2 3 l 2 -3 z" fill="#34D399"/>
<text x="465.0" y="16.375" fill="#94A3B8" font-family="Segoe UI, Inter, system-ui, sans-serif" font-size="6.5625" font-weight="500">Refreshed 2m ago</text>
<rect x="10.0" y="53.5" width="71.66666666666667" height="13.5" rx="4" fill="#1E293B" stroke="#334155"/>
<rect x="10.0" y="53.5" width="3" height="13.5" fill="#38BDF8"/>
<text x="18.0" y="58.47" fill="#94A3B8" font-family="Segoe UI, Inter, system-ui, sans-serif" font-size="2.97" font-weight="500">Revenue</text>
<text x="18.0" y="65.195" fill="#F1F5F9" font-family="Segoe UI, Inter, system-ui, sans-serif" font-size="4.725" font-weight="700">$1.24M</text>
<rect x="87.66666666666667" y="53.5" width="71.66666666666667" height="13.5" rx="4" fill="#1E293B" stroke="#334155"/>
<rect x="87.66666666666667" y="53.5" width="3" height="13.5" fill="#38BDF8"/>
<text x="95.66666666666667" y="58.47" fill="#94A3B8" font-family="Segoe UI, Inter, system-ui, sans-serif" font-size="2.97" font-weight="500">Orders</text>
<text x="95.66666666666667" y="65.195" fill="#F1F5F9" font-family="Segoe UI, Inter, system-ui, sans-serif" font-size="4.725" font-weight="700">48,912</text>
<rect x="165.33333333333334" y="53.5" width="71.66666666666667" height="13.5" rx="4" fill="#1E293B" stroke="#334155"/>
<rect x="165.33333333333334" y="53.5" width="3" height="13.5" fill="#38BDF8"/>
<text x="173.33333333333334" y="58.47" fill="#94A3B8" font-family="Segoe UI, Inter, system-ui, sans-serif" font-size="2.97" font-weight="500">Margin</text>
<text x="173.33333333333334" y="65.195" fill="#F1F5F9" font-family="Segoe UI, Inter, system-ui, sans-serif" font-size="4.725" font-weight="700">38.2%</text>
<rect x="243.0" y="53.5" width="71.66666666666667" height="13.5" rx="4" fill="#1E293B" stroke="#334155"/>
<rect x="243.0" y="53.5" width="3" height="13.5" fill="#38BDF8"/>
<text x="251.0" y="58.47" fill="#94A3B8" font-family="Segoe UI, Inter, system-ui, sans-serif" font-size="2.97" font-weight="500">CSAT</text>
<text x="251.0" y="65.195" fill="#F1F5F9" font-family="Segoe UI, Inter, system-ui, sans-serif" font-size="4.725" font-weight="700">4.7 / 5</text>
<rect x="320.6666666666667" y="53.5" width="71.66666666666667" height="13.5" rx="4" fill="#1E293B" stroke="#334155"/>
<rect x="320.6666666666667" y="53.5" width="3" height="13.5" fill="#38BDF8"/>
<text x="328.6666666666667" y="58.47" fill="#94A3B8" font-family="Segoe UI, Inter, system-ui, sans-serif" font-size="2.97" font-weight="500">Conv %</text>
<text x="328.6666666666667" y="65.195" fill="#F1F5F9" font-family="Segoe UI, Inter, system-ui, sans-serif" font-size="4.725" font-weight="700">12.8%</text>
<rect x="398.33333333333337" y="53.5" width="71.66666666666667" height="13.5" rx="4" fill="#1E293B" stroke="#334155"/>
<rect x="398.33333333333337" y="53.5" width="3" height="13.5" fill="#38BDF8"/>
<text x="406.33333333333337" y="58.47" fill="#94A3B8" font-family="Segoe UI, Inter, system-ui, sans-serif" font-size="2.97" font-weight="500">AOV</text>
<text x="406.33333333333337" y="65.195" fill="#F1F5F9" font-family="Segoe UI, Inter, system-ui, sans-serif" font-size="4.725" font-weight="700">$86</text>
<rect x="4.0" y="76.0" width="472.0" height="83.25" rx="3" fill="#1E293B" stroke="#334155"/>
<rect x="4.0" y="76.0" width="472.0" height="12" fill="#0C2A4A"/>
<line x1="82.7" y1="76.0" x2="82.7" y2="159.25" stroke="#334155" stroke-opacity="0.6"/>
<line x1="161.3" y1="76.0" x2="161.3" y2="159.25" stroke="#334155" stroke-opacity="0.6"/>
<line x1="240.0" y1="76.0" x2="240.0" y2="159.25" stroke="#334155" stroke-opacity="0.6"/>
<line x1="318.7" y1="76.0" x2="318.7" y2="159.25" stroke="#334155" stroke-opacity="0.6"/>
<line x1="397.3" y1="76.0" x2="397.3" y2="159.25" stroke="#334155" stroke-opacity="0.6"/>
<line x1="4.0" y1="88.0" x2="476.0" y2="88.0" stroke="#334155" stroke-opacity="0.5"/>
<line x1="4.0" y1="98.2" x2="476.0" y2="98.2" stroke="#334155" stroke-opacity="0.5"/>
<line x1="4.0" y1="108.4" x2="476.0" y2="108.4" stroke="#334155" stroke-opacity="0.5"/>
<line x1="4.0" y1="118.5" x2="476.0" y2="118.5" stroke="#334155" stroke-opacity="0.5"/>
<line x1="4.0" y1="128.7" x2="476.0" y2="128.7" stroke="#334155" stroke-opacity="0.5"/>
<line x1="4.0" y1="138.9" x2="476.0" y2="138.9" stroke="#334155" stroke-opacity="0.5"/>
<line x1="4.0" y1="149.1" x2="476.0" y2="149.1" stroke="#334155" stroke-opacity="0.5"/>
<line x1="4.0" y1="159.2" x2="476.0" y2="159.2" stroke="#334155" stroke-opacity="0.5"/>
<text x="43.3" y="85.0" fill="#F1F5F9" font-family="Segoe UI, Inter, system-ui, sans-serif" font-size="7" font-weight="700" text-anchor="middle">Q1</text>
<text x="122.0" y="85.0" fill="#F1F5F9" font-family="Segoe UI, Inter, system-ui, sans-serif" font-size="7" font-weight="700" text-anchor="middle">Q2</text>
<text x="200.7" y="85.0" fill="#F1F5F9" font-family="Segoe UI, Inter, system-ui, sans-serif" font-size="7" font-weight="700" text-anchor="middle">Q3</text>
<text x="279.3" y="85.0" fill="#F1F5F9" font-family="Segoe UI, Inter, system-ui, sans-serif" font-size="7" font-weight="700" text-anchor="middle">Q4</text>
<text x="358.0" y="85.0" fill="#F1F5F9" font-family="Segoe UI, Inter, system-ui, sans-serif" font-size="7" font-weight="700" text-anchor="middle">YTD</text>
<text x="436.7" y="85.0" fill="#F1F5F9" font-family="Segoe UI, Inter, system-ui, sans-serif" font-size="7" font-weight="700" text-anchor="middle">Δ</text>
<rect x="7.0" y="90.0" width="55.1" height="3" fill="#F1F5F9" opacity="0.5" rx="1"/>
<rect x="83.7" y="89.0" width="76.7" height="8.2" fill="#FBBF24" opacity="0.32"/>
<rect x="162.3" y="89.0" width="76.7" height="8.2" fill="#F87171" opacity="0.17"/>
<rect x="241.0" y="89.0" width="76.7" height="8.2" fill="#F87171" opacity="0.16"/>
<rect x="319.7" y="89.0" width="76.7" height="8.2" fill="#F87171" opacity="0.22"/>
<rect x="398.3" y="89.0" width="76.7" height="8.2" fill="#F87171" opacity="0.23"/>
<rect x="7.0" y="100.17857142857143" width="55.1" height="3" fill="#F1F5F9" opacity="0.5" rx="1"/>
<rect x="83.7" y="99.2" width="76.7" height="8.2" fill="#FBBF24" opacity="0.32"/>
<rect x="162.3" y="99.2" width="76.7" height="8.2" fill="#F87171" opacity="0.18"/>
<rect x="241.0" y="99.2" width="76.7" height="8.2" fill="#34D399" opacity="0.40"/>
<rect x="319.7" y="99.2" width="76.7" height="8.2" fill="#FBBF24" opacity="0.30"/>
<rect x="398.3" y="99.2" width="76.7" height="8.2" fill="#34D399" opacity="0.38"/>
<rect x="7.0" y="110.35714285714286" width="55.1" height="3" fill="#F1F5F9" opacity="0.5" rx="1"/>
<rect x="83.7" y="109.4" width="76.7" height="8.2" fill="#34D399" opacity="0.40"/>
<rect x="162.3" y="109.4" width="76.7" height="8.2" fill="#FBBF24" opacity="0.30"/>
<rect x="241.0" y="109.4" width="76.7" height="8.2" fill="#FBBF24" opacity="0.32"/>
<rect x="319.7" y="109.4" width="76.7" height="8.2" fill="#FBBF24" opacity="0.26"/>
<rect x="398.3" y="109.4" width="76.7" height="8.2" fill="#F87171" opacity="0.21"/>
<rect x="7.0" y="120.53571428571428" width="55.1" height="3" fill="#F1F5F9" opacity="0.5" rx="1"/>
<rect x="83.7" y="119.5" width="76.7" height="8.2" fill="#34D399" opacity="0.38"/>
<rect x="162.3" y="119.5" width="76.7" height="8.2" fill="#34D399" opacity="0.39"/>
<rect x="241.0" y="119.5" width="76.7" height="8.2" fill="#34D399" opacity="0.40"/>
<rect x="319.7" y="119.5" width="76.7" height="8.2" fill="#FBBF24" opacity="0.30"/>
<rect x="398.3" y="119.5" width="76.7" height="8.2" fill="#34D399" opacity="0.38"/>
<rect x="7.0" y="130.71428571428572" width="55.1" height="3" fill="#F1F5F9" opacity="0.5" rx="1"/>
<rect x="83.7" y="129.7" width="76.7" height="8.2" fill="#FBBF24" opacity="0.31"/>
<rect x="162.3" y="129.7" width="76.7" height="8.2" fill="#34D399" opacity="0.33"/>
<rect x="241.0" y="129.7" width="76.7" height="8.2" fill="#F87171" opacity="0.18"/>
<rect x="319.7" y="129.7" width="76.7" height="8.2" fill="#34D399" opacity="0.39"/>
<rect x="398.3" y="129.7" width="76.7" height="8.2" fill="#34D399" opacity="0.43"/>
<rect x="7.0" y="140.89285714285714" width="55.1" height="3" fill="#F1F5F9" opacity="0.5" rx="1"/>
<rect x="83.7" y="139.9" width="76.7" height="8.2" fill="#F87171" opacity="0.24"/>
<rect x="162.3" y="139.9" width="76.7" height="8.2" fill="#F87171" opacity="0.18"/>
<rect x="241.0" y="139.9" width="76.7" height="8.2" fill="#FBBF24" opacity="0.28"/>
<rect x="319.7" y="139.9" width="76.7" height="8.2" fill="#FBBF24" opacity="0.26"/>
<rect x="398.3" y="139.9" width="76.7" height="8.2" fill="#34D399" opacity="0.35"/>
<rect x="7.0" y="151.07142857142856" width="55.1" height="3" fill="#F1F5F9" opacity="0.5" rx="1"/>
<rect x="83.7" y="150.1" width="76.7" height="8.2" fill="#34D399" opacity="0.41"/>
<rect x="162.3" y="150.1" width="76.7" height="8.2" fill="#FBBF24" opacity="0.27"/>
<rect x="241.0" y="150.1" width="76.7" height="8.2" fill="#FBBF24" opacity="0.28"/>
<rect x="319.7" y="150.1" width="76.7" height="8.2" fill="#F87171" opacity="0.24"/>
<rect x="398.3" y="150.1" width="76.7" height="8.2" fill="#F87171" opacity="0.22"/>
<rect x="4.0" y="162.25" width="472.0" height="44.25" rx="3" fill="#1E293B" stroke="#334155"/>
<text x="12.0" y="174.25" fill="#94A3B8" font-family="Segoe UI, Inter, system-ui, sans-serif" font-size="8" font-weight="600">Exception Feed</text>
<polygon points="12.0,198.5 12.0,188.7 44.6,195.4 77.1,192.9 109.7,188.8 142.3,189.1 174.9,193.9 207.4,194.4 240.0,194.5 272.6,195.2 305.1,191.6 337.7,188.6 370.3,192.9 402.9,194.4 435.4,188.2 468.0,193.2 468.0,198.5" fill="#38BDF8" opacity="0.18"/>
<polyline points="12.0,188.7 44.6,195.4 77.1,192.9 109.7,188.8 142.3,189.1 174.9,193.9 207.4,194.4 240.0,194.5 272.6,195.2 305.1,191.6 337.7,188.6 370.3,192.9 402.9,194.4 435.4,188.2 468.0,193.2" fill="none" stroke="#38BDF8" stroke-width="1.8"/>
<polyline points="12.0,195.8 44.6,193.5 77.1,191.5 109.7,194.7 142.3,195.9 174.9,191.9 207.4,191.5 240.0,195.8 272.6,193.1 305.1,194.4 337.7,192.7 370.3,195.2 402.9,195.2 435.4,196.1 468.0,194.6" fill="none" stroke="#FBBF24" stroke-width="1.3" stroke-dasharray="3 2"/>
<line x1="12.0" y1="198.5" x2="468.0" y2="198.5" stroke="#334155"/>
<rect x="10.0" y="215.5" width="109.0" height="32.25" rx="3" fill="#1E293B" stroke="#334155"/>
<text x="16.0" y="225.5" fill="#94A3B8" font-family="Segoe UI, Inter, system-ui, sans-serif" font-size="8" font-weight="500">Sessions</text>
<text x="16.0" y="237.5" fill="#F1F5F9" font-family="Segoe UI, Inter, system-ui, sans-serif" font-size="11" font-weight="700">3,031</text>
<polygon points="16.0,243.75 16.0,243.2 24.8,242.5 33.6,241.5 42.5,241.7 51.3,242.8 60.1,243.2 68.9,242.7 77.7,242.9 86.5,243.3 95.4,242.3 104.2,242.3 113.0,243.6 113.0,243.75" fill="#38BDF8" opacity="0.15"/>
<polyline points="16.0,243.2 24.8,242.5 33.6,241.5 42.5,241.7 51.3,242.8 60.1,243.2 68.9,242.7 77.7,242.9 86.5,243.3 95.4,242.3 104.2,242.3 113.0,243.6" fill="none" stroke="#38BDF8" stroke-width="1.4"/>
<rect x="127.0" y="215.5" width="109.0" height="32.25" rx="3" fill="#1E293B" stroke="#334155"/>
<text x="133.0" y="225.5" fill="#94A3B8" font-family="Segoe UI, Inter, system-ui, sans-serif" font-size="8" font-weight="500">Revenue</text>
<text x="133.0" y="237.5" fill="#F1F5F9" font-family="Segoe UI, Inter, system-ui, sans-serif" font-size="11" font-weight="700">8,612</text>
<polygon points="133.0,243.75 133.0,242.6 141.8,242.5 150.6,243.6 159.5,241.8 168.3,242.2 177.1,242.3 185.9,243.7 194.7,243.4 203.5,243.1 212.4,242.6 221.2,242.9 230.0,241.7 230.0,243.75" fill="#38BDF8" opacity="0.15"/>
<polyline points="133.0,242.6 141.8,242.5 150.6,243.6 159.5,241.8 168.3,242.2 177.1,242.3 185.9,243.7 194.7,243.4 203.5,243.1 212.4,242.6 221.2,242.9 230.0,241.7" fill="none" stroke="#38BDF8" stroke-width="1.4"/>
<rect x="244.0" y="215.5" width="109.0" height="32.25" rx="3" fill="#1E293B" stroke="#334155"/>
<text x="250.0" y="225.5" fill="#94A3B8" font-family="Segoe UI, Inter, system-ui, sans-serif" font-size="8" font-weight="500">Orders</text>
<text x="250.0" y="237.5" fill="#F1F5F9" font-family="Segoe UI, Inter, system-ui, sans-serif" font-size="11" font-weight="700">4,937</text>
<polygon points="250.0,243.75 250.0,242.7 258.8,243.0 267.6,241.6 276.5,242.0 285.3,242.3 294.1,243.5 302.9,242.6 311.7,243.3 320.5,242.9 329.4,242.1 338.2,243.4 347.0,242.9 347.0,243.75" fill="#38BDF8" opacity="0.15"/>
<polyline points="250.0,242.7 258.8,243.0 267.6,241.6 276.5,242.0 285.3,242.3 294.1,243.5 302.9,242.6 311.7,243.3 320.5,242.9 329.4,242.1 338.2,243.4 347.0,242.9" fill="none" stroke="#38BDF8" stroke-width="1.4"/>
<rect x="361.0" y="215.5" width="109.0" height="32.25" rx="3" fill="#1E293B" stroke="#334155"/>
<text x="367.0" y="225.5" fill="#94A3B8" font-family="Segoe UI, Inter, system-ui, sans-serif" font-size="8" font-weight="500">Leads</text>
<text x="367.0" y="237.5" fill="#F1F5F9" font-family="Segoe UI, Inter, system-ui, sans-serif" font-size="11" font-weight="700">5,344</text>
<polygon points="367.0,243.75 367.0,243.7 375.8,242.5 384.6,243.4 393.5,242.5 402.3,243.2 411.1,242.5 419.9,242.8 428.7,242.7 437.5,242.0 446.4,241.7 455.2,242.9 464.0,243.1 464.0,243.75" fill="#38BDF8" opacity="0.15"/>
<polyline points="367.0,243.7 375.8,242.5 384.6,243.4 393.5,242.5 402.3,243.2 411.1,242.5 419.9,242.8 428.7,242.7 437.5,242.0 446.4,241.7 455.2,242.9 464.0,243.1" fill="none" stroke="#38BDF8" stroke-width="1.4"/>
<rect x="4.0" y="256.75" width="472.0" height="9.25" rx="3" fill="#F87171" opacity="0.08" stroke="#F87171" stroke-opacity="0.35"/>
<rect x="4.0" y="256.75" width="3" height="9.25" fill="#F87171"/>
<circle cx="18.0" cy="261.375" r="3" fill="#F87171"/>
<text x="28.0" y="264.375" fill="#F87171" font-family="Segoe UI, Inter, system-ui, sans-serif" font-size="5.0875" font-weight="600">ALERT · Line 3 downtime 4m · exception queue +12</text>
<text x="240.0" y="265" fill="#94A3B8" font-family="Segoe UI, Inter, system-ui, sans-serif" font-size="7" font-weight="600" text-anchor="middle">ops-single-screen-tv</text>
</svg>