<svg xmlns="http://www.w3.org/2000/svg" viewBox="0 0 480 270" font-family="Segoe UI, Inter, system-ui, sans-serif">
<title>ops-activity-log</title>
<rect x="0" y="0" width="480" height="270" fill="#0F172A"/>
<rect x="0" y="0" width="480" height="3" fill="#38BDF8"/>
<rect x="4.62" y="4.62" width="470.77" height="18.75" rx="4" fill="#111827" stroke="#334155"/>
<rect x="4.62" y="4.62" width="4" height="18.75" rx="2" fill="#38BDF8"/>
<text x="18.62" y="16.245" fill="#F1F5F9" font-family="Segoe UI, Inter, system-ui, sans-serif" font-size="10.3125" font-weight="700">Title</text>
<rect x="385.39" y="9.870000000000001" width="70" height="8.4" rx="3" fill="#0C2A4A" stroke="#1E40AF"/>
<text x="420.39" y="16.995" fill="#94A3B8" font-family="Segoe UI, Inter, system-ui, sans-serif" font-size="7.125" font-weight="500" text-anchor="middle">Q4 · FY26</text>
<rect x="4.62" y="26.83" width="470.77" height="36.06" rx="3" fill="#1E293B" stroke="#334155"/>
<text x="12.620000000000001" y="38.83" fill="#94A3B8" font-family="Segoe UI, Inter, system-ui, sans-serif" font-size="8" font-weight="600">Action Tab Nav</text>
<polygon points="12.6,54.89 12.6,51.9 45.1,51.8 77.6,52.8 110.1,51.5 142.6,52.4 175.0,53.6 207.5,52.9 240.0,51.9 272.5,53.5 305.0,53.5 337.5,52.8 369.9,52.3 402.4,52.1 434.9,51.7 467.4,53.6 467.4,54.89" fill="#38BDF8" opacity="0.18"/>
<polyline points="12.6,51.9 45.1,51.8 77.6,52.8 110.1,51.5 142.6,52.4 175.0,53.6 207.5,52.9 240.0,51.9 272.5,53.5 305.0,53.5 337.5,52.8 369.9,52.3 402.4,52.1 434.9,51.7 467.4,53.6" fill="none" stroke="#38BDF8" stroke-width="1.8"/>
<polyline points="12.6,53.2 45.1,54.2 77.6,53.8 110.1,53.9 142.6,52.7 175.0,53.5 207.5,53.1 240.0,54.2 272.5,53.2 305.0,53.8 337.5,53.8 369.9,53.5 402.4,54.1 434.9,53.0 467.4,53.2" fill="none" stroke="#FBBF24" stroke-width="1.3" stroke-dasharray="3 2"/>
<line x1="12.620000000000001" y1="54.89" x2="467.39" y2="54.89" stroke="#334155"/>
<rect x="4.62" y="66.35" width="470.77" height="36.06" rx="3" fill="#1E293B" stroke="#334155"/>
<text x="12.620000000000001" y="78.35" fill="#94A3B8" font-family="Segoe UI, Inter, system-ui, sans-serif" font-size="8" font-weight="600">Status Banner</text>
<polygon points="12.6,94.41 12.6,92.8 45.1,92.6 77.6,91.9 110.1,91.2 142.6,91.8 175.0,93.4 207.5,91.7 240.0,92.6 272.5,92.6 305.0,93.0 337.5,93.2 369.9,93.3 402.4,92.4 434.9,92.4 467.4,92.8 467.4,94.41" fill="#38BDF8" opacity="0.18"/>
<polyline points="12.6,92.8 45.1,92.6 77.6,91.9 110.1,91.2 142.6,91.8 175.0,93.4 207.5,91.7 240.0,92.6 272.5,92.6 305.0,93.0 337.5,93.2 369.9,93.3 402.4,92.4 434.9,92.4 467.4,92.8" fill="none" stroke="#38BDF8" stroke-width="1.8"/>
<polyline points="12.6,93.7 45.1,92.9 77.6,93.7 110.1,92.1 142.6,92.0 175.0,92.8 207.5,92.0 240.0,93.7 272.5,93.1 305.0,93.2 337.5,93.0 369.9,92.3 402.4,92.8 434.9,92.4 467.4,92.4" fill="none" stroke="#FBBF24" stroke-width="1.3" stroke-dasharray="3 2"/>
<line x1="12.620000000000001" y1="94.41" x2="467.39" y2="94.41" stroke="#334155"/>
<rect x="4.62" y="105.87" width="470.77" height="36.06" rx="3" fill="#1E293B" stroke="#334155"/>
<text x="12.620000000000001" y="117.87" fill="#94A3B8" font-family="Segoe UI, Inter, system-ui, sans-serif" font-size="8" font-weight="600">Run Trend</text>
<rect x="21.1" y="131.9" width="39.8" height="2.0" rx="1" fill="#38BDF8"/>
<rect x="78.0" y="129.0" width="39.8" height="5.0" rx="1" fill="#60A5FA"/>
<rect x="134.8" y="130.9" width="39.8" height="3.0" rx="1" fill="#38BDF8"/>
<rect x="191.7" y="131.8" width="39.8" height="2.2" rx="1" fill="#60A5FA"/>
<rect x="248.5" y="131.2" width="39.8" height="2.8" rx="1" fill="#38BDF8"/>
<rect x="305.4" y="131.5" width="39.8" height="2.4" rx="1" fill="#60A5FA"/>
<rect x="362.2" y="130.3" width="39.8" height="3.6" rx="1" fill="#38BDF8"/>
<rect x="419.1" y="128.9" width="39.8" height="5.1" rx="1" fill="#60A5FA"/>
<line x1="12.620000000000001" y1="133.93" x2="467.39" y2="133.93" stroke="#334155"/>
<polyline points="41.0,129.1 97.9,129.6 154.7,131.0 211.6,130.9 268.4,130.3 325.3,129.7 382.1,130.2 439.0,130.0" fill="none" stroke="#FBBF24" stroke-width="1.6"/>
<circle cx="41.0" cy="129.1" r="1.8" fill="#FBBF24"/>
<circle cx="97.9" cy="129.6" r="1.8" fill="#FBBF24"/>
<circle cx="154.7" cy="131.0" r="1.8" fill="#FBBF24"/>
<circle cx="211.6" cy="130.9" r="1.8" fill="#FBBF24"/>
<circle cx="268.4" cy="130.3" r="1.8" fill="#FBBF24"/>
<circle cx="325.3" cy="129.7" r="1.8" fill="#FBBF24"/>
<circle cx="382.1" cy="130.2" r="1.8" fill="#FBBF24"/>
<circle cx="439.0" cy="130.0" r="1.8" fill="#FBBF24"/>
<rect x="4.62" y="145.38" width="470.77" height="64.33" rx="3" fill="#1E293B" stroke="#334155"/>
<rect x="4.62" y="145.38" width="470.77" height="12" fill="#0C2A4A"/>
<line x1="83.1" y1="145.38" x2="83.1" y2="209.70999999999998" stroke="#334155" stroke-opacity="0.6"/>
<line x1="161.5" y1="145.38" x2="161.5" y2="209.70999999999998" stroke="#334155" stroke-opacity="0.6"/>
<line x1="240.0" y1="145.38" x2="240.0" y2="209.70999999999998" stroke="#334155" stroke-opacity="0.6"/>
<line x1="318.5" y1="145.38" x2="318.5" y2="209.70999999999998" stroke="#334155" stroke-opacity="0.6"/>
<line x1="396.9" y1="145.38" x2="396.9" y2="209.70999999999998" stroke="#334155" stroke-opacity="0.6"/>
<line x1="4.62" y1="157.4" x2="475.39" y2="157.4" stroke="#334155" stroke-opacity="0.5"/>
<line x1="4.62" y1="167.8" x2="475.39" y2="167.8" stroke="#334155" stroke-opacity="0.5"/>
<line x1="4.62" y1="178.3" x2="475.39" y2="178.3" stroke="#334155" stroke-opacity="0.5"/>
<line x1="4.62" y1="188.8" x2="475.39" y2="188.8" stroke="#334155" stroke-opacity="0.5"/>
<line x1="4.62" y1="199.2" x2="475.39" y2="199.2" stroke="#334155" stroke-opacity="0.5"/>
<line x1="4.62" y1="209.7" x2="475.39" y2="209.7" stroke="#334155" stroke-opacity="0.5"/>
<text x="43.9" y="154.38" fill="#F1F5F9" font-family="Segoe UI, Inter, system-ui, sans-serif" font-size="7" font-weight="700" text-anchor="middle">Q1</text>
<text x="122.3" y="154.38" fill="#F1F5F9" font-family="Segoe UI, Inter, system-ui, sans-serif" font-size="7" font-weight="700" text-anchor="middle">Q2</text>
<text x="200.8" y="154.38" fill="#F1F5F9" font-family="Segoe UI, Inter, system-ui, sans-serif" font-size="7" font-weight="700" text-anchor="middle">Q3</text>
<text x="279.2" y="154.38" fill="#F1F5F9" font-family="Segoe UI, Inter, system-ui, sans-serif" font-size="7" font-weight="700" text-anchor="middle">Q4</text>
<text x="357.7" y="154.38" fill="#F1F5F9" font-family="Segoe UI, Inter, system-ui, sans-serif" font-size="7" font-weight="700" text-anchor="middle">YTD</text>
<text x="436.2" y="154.38" fill="#F1F5F9" font-family="Segoe UI, Inter, system-ui, sans-serif" font-size="7" font-weight="700" text-anchor="middle">Δ</text>
<rect x="7.62" y="159.38" width="54.9" height="3" fill="#F1F5F9" opacity="0.5" rx="1"/>
<rect x="84.1" y="158.4" width="76.5" height="8.5" fill="#FBBF24" opacity="0.32"/>
<rect x="162.5" y="158.4" width="76.5" height="8.5" fill="#F87171" opacity="0.17"/>
<rect x="241.0" y="158.4" width="76.5" height="8.5" fill="#F87171" opacity="0.16"/>
<rect x="319.5" y="158.4" width="76.5" height="8.5" fill="#F87171" opacity="0.22"/>
<rect x="397.9" y="158.4" width="76.5" height="8.5" fill="#F87171" opacity="0.23"/>
<rect x="7.62" y="169.846" width="54.9" height="3" fill="#F1F5F9" opacity="0.5" rx="1"/>
<rect x="84.1" y="168.8" width="76.5" height="8.5" fill="#FBBF24" opacity="0.32"/>
<rect x="162.5" y="168.8" width="76.5" height="8.5" fill="#F87171" opacity="0.18"/>
<rect x="241.0" y="168.8" width="76.5" height="8.5" fill="#34D399" opacity="0.40"/>
<rect x="319.5" y="168.8" width="76.5" height="8.5" fill="#FBBF24" opacity="0.30"/>
<rect x="397.9" y="168.8" width="76.5" height="8.5" fill="#34D399" opacity="0.38"/>
<rect x="7.62" y="180.31199999999998" width="54.9" height="3" fill="#F1F5F9" opacity="0.5" rx="1"/>
<rect x="84.1" y="179.3" width="76.5" height="8.5" fill="#34D399" opacity="0.40"/>
<rect x="162.5" y="179.3" width="76.5" height="8.5" fill="#FBBF24" opacity="0.30"/>
<rect x="241.0" y="179.3" width="76.5" height="8.5" fill="#FBBF24" opacity="0.32"/>
<rect x="319.5" y="179.3" width="76.5" height="8.5" fill="#FBBF24" opacity="0.26"/>
<rect x="397.9" y="179.3" width="76.5" height="8.5" fill="#F87171" opacity="0.21"/>
<rect x="7.62" y="190.778" width="54.9" height="3" fill="#F1F5F9" opacity="0.5" rx="1"/>
<rect x="84.1" y="189.8" width="76.5" height="8.5" fill="#34D399" opacity="0.38"/>
<rect x="162.5" y="189.8" width="76.5" height="8.5" fill="#34D399" opacity="0.39"/>
<rect x="241.0" y="189.8" width="76.5" height="8.5" fill="#34D399" opacity="0.40"/>
<rect x="319.5" y="189.8" width="76.5" height="8.5" fill="#FBBF24" opacity="0.30"/>
<rect x="397.9" y="189.8" width="76.5" height="8.5" fill="#34D399" opacity="0.38"/>
<rect x="7.62" y="201.244" width="54.9" height="3" fill="#F1F5F9" opacity="0.5" rx="1"/>
<rect x="84.1" y="200.2" width="76.5" height="8.5" fill="#FBBF24" opacity="0.31"/>
<rect x="162.5" y="200.2" width="76.5" height="8.5" fill="#34D399" opacity="0.33"/>
<rect x="241.0" y="200.2" width="76.5" height="8.5" fill="#F87171" opacity="0.18"/>
<rect x="319.5" y="200.2" width="76.5" height="8.5" fill="#34D399" opacity="0.39"/>
<rect x="397.9" y="200.2" width="76.5" height="8.5" fill="#34D399" opacity="0.43"/>
<rect x="4.62" y="213.17" width="470.77" height="52.21" rx="3" fill="#1E293B" stroke="#334155"/>
<rect x="4.62" y="213.17" width="470.77" height="14" fill="#0C2A4A"/>
<text x="12.620000000000001" y="223.17" fill="#F1F5F9" font-family="Segoe UI, Inter, system-ui, sans-serif" font-size="7.5" font-weight="700">Item</text>
<text x="103.574" y="223.17" fill="#F1F5F9" font-family="Segoe UI, Inter, system-ui, sans-serif" font-size="7.5" font-weight="700">Value</text>
<text x="194.528" y="223.17" fill="#F1F5F9" font-family="Segoe UI, Inter, system-ui, sans-serif" font-size="7.5" font-weight="700">Δ%</text>
<text x="285.48199999999997" y="223.17" fill="#F1F5F9" font-family="Segoe UI, Inter, system-ui, sans-serif" font-size="7.5" font-weight="700">Status</text>
<text x="376.436" y="223.17" fill="#F1F5F9" font-family="Segoe UI, Inter, system-ui, sans-serif" font-size="7.5" font-weight="700">Trend</text>
<line x1="4.62" y1="227.17" x2="475.39" y2="227.17" stroke="#334155"/>
<rect x="12.620000000000001" y="230.17" width="63.7" height="4" fill="#94A3B8" rx="1" opacity="0.5"/>
<rect x="103.574" y="230.17" width="45.5" height="4" fill="#F1F5F9" rx="1" opacity="0.7"/>
<rect x="194.528" y="230.17" width="45.5" height="4" fill="#F1F5F9" rx="1" opacity="0.7"/>
<circle cx="291.48199999999997" cy="232.17" r="2.5" fill="#34D399"/>
<polyline points="378.4,233.0 380.4,230.8 382.4,231.1 384.4,232.6 386.4,232.5" fill="none" stroke="#38BDF8" stroke-width="1"/>
<rect x="4.62" y="237.17" width="470.77" height="10" fill="#1F2937"/>
<rect x="12.620000000000001" y="240.17" width="63.7" height="4" fill="#94A3B8" rx="1" opacity="0.5"/>
<rect x="103.574" y="240.17" width="45.5" height="4" fill="#F1F5F9" rx="1" opacity="0.7"/>
<rect x="194.528" y="240.17" width="45.5" height="4" fill="#F1F5F9" rx="1" opacity="0.7"/>
<circle cx="291.48199999999997" cy="242.17" r="2.5" fill="#FBBF24"/>
<polyline points="378.4,242.6 380.4,243.4 382.4,241.3 384.4,242.0 386.4,241.6" fill="none" stroke="#38BDF8" stroke-width="1"/>
<rect x="12.620000000000001" y="250.17" width="63.7" height="4" fill="#94A3B8" rx="1" opacity="0.5"/>
<rect x="103.574" y="250.17" width="45.5" height="4" fill="#F1F5F9" rx="1" opacity="0.7"/>
<rect x="194.528" y="250.17" width="45.5" height="4" fill="#F1F5F9" rx="1" opacity="0.7"/>
<circle cx="291.48199999999997" cy="252.17" r="2.5" fill="#F87171"/>
<polyline points="378.4,251.2 380.4,250.9 382.4,252.7 384.4,253.5 386.4,253.6" fill="none" stroke="#38BDF8" stroke-width="1"/>
<text x="240.0" y="265" fill="#94A3B8" font-family="Segoe UI, Inter, system-ui, sans-serif" font-size="7" font-weight="600" text-anchor="middle">ops-activity-log</text>
</svg>