<svg xmlns="http://www.w3.org/2000/svg" viewBox="0 0 480 679" font-family="Segoe UI, Inter, system-ui, sans-serif">
<title>paginated-export-a4</title>
<rect x="0" y="0" width="480" height="679" fill="#FFFFFF"/>
<rect x="0" y="0" width="480" height="3" fill="#2563EB"/>
<rect x="9.29" y="9.29" width="461.43" height="47.05" rx="4" fill="#F8FAFC" stroke="#E5E7EB"/>
<rect x="9.29" y="9.29" width="4" height="47.05" rx="2" fill="#2563EB"/>
<text x="23.29" y="38.461" fill="#111827" font-family="Segoe UI, Inter, system-ui, sans-serif" font-size="11" font-weight="700">Print Header</text>
<rect x="380.72" y="22.464" width="70" height="21.2" rx="3" fill="#EFF6FF" stroke="#DBEAFE"/>
<text x="415.72" y="40.343" fill="#6B7280" font-family="Segoe UI, Inter, system-ui, sans-serif" font-size="17.878999999999998" font-weight="500" text-anchor="middle">Q4 · FY26</text>
<rect x="9.29" y="63.31" width="461.43" height="515.78" rx="3" fill="#FFFFFF" stroke="#E5E7EB"/>
<rect x="9.29" y="63.31" width="461.43" height="14" fill="#EFF6FF"/>
<text x="17.29" y="73.31" fill="#111827" font-family="Segoe UI, Inter, system-ui, sans-serif" font-size="7.5" font-weight="700">Item</text>
<text x="106.376" y="73.31" fill="#111827" font-family="Segoe UI, Inter, system-ui, sans-serif" font-size="7.5" font-weight="700">Value</text>
<text x="195.462" y="73.31" fill="#111827" font-family="Segoe UI, Inter, system-ui, sans-serif" font-size="7.5" font-weight="700">Δ%</text>
<text x="284.548" y="73.31" fill="#111827" font-family="Segoe UI, Inter, system-ui, sans-serif" font-size="7.5" font-weight="700">Status</text>
<text x="373.634" y="73.31" fill="#111827" font-family="Segoe UI, Inter, system-ui, sans-serif" font-size="7.5" font-weight="700">Trend</text>
<line x1="9.29" y1="77.31" x2="470.72" y2="77.31" stroke="#E5E7EB"/>
<rect x="17.29" y="80.31" width="62.4" height="4" fill="#6B7280" rx="1" opacity="0.5"/>
<rect x="106.376" y="80.31" width="44.5" height="4" fill="#111827" rx="1" opacity="0.7"/>
<rect x="195.462" y="80.31" width="44.5" height="4" fill="#111827" rx="1" opacity="0.7"/>
<circle cx="290.548" cy="82.31" r="2.5" fill="#10B981"/>
<polyline points="375.6,81.7 377.6,80.6 379.6,83.2 381.6,81.9 383.6,83.6" fill="none" stroke="#2563EB" stroke-width="1"/>
<rect x="9.29" y="87.31" width="461.43" height="10" fill="#F3F4F6"/>
<rect x="17.29" y="90.31" width="62.4" height="4" fill="#6B7280" rx="1" opacity="0.5"/>
<rect x="106.376" y="90.31" width="44.5" height="4" fill="#111827" rx="1" opacity="0.7"/>
<rect x="195.462" y="90.31" width="44.5" height="4" fill="#111827" rx="1" opacity="0.7"/>
<circle cx="290.548" cy="92.31" r="2.5" fill="#F59E0B"/>
<polyline points="375.6,94.2 377.6,90.4 379.6,92.3 381.6,93.2 383.6,92.7" fill="none" stroke="#2563EB" stroke-width="1"/>
<rect x="17.29" y="100.31" width="62.4" height="4" fill="#6B7280" rx="1" opacity="0.5"/>
<rect x="106.376" y="100.31" width="44.5" height="4" fill="#111827" rx="1" opacity="0.7"/>
<rect x="195.462" y="100.31" width="44.5" height="4" fill="#111827" rx="1" opacity="0.7"/>
<circle cx="290.548" cy="102.31" r="2.5" fill="#EF4444"/>
<polyline points="375.6,103.9 377.6,103.2 379.6,101.7 381.6,102.5 383.6,102.2" fill="none" stroke="#2563EB" stroke-width="1"/>
<rect x="9.29" y="107.31" width="461.43" height="10" fill="#F3F4F6"/>
<rect x="17.29" y="110.31" width="62.4" height="4" fill="#6B7280" rx="1" opacity="0.5"/>
<rect x="106.376" y="110.31" width="44.5" height="4" fill="#111827" rx="1" opacity="0.7"/>
<rect x="195.462" y="110.31" width="44.5" height="4" fill="#111827" rx="1" opacity="0.7"/>
<circle cx="290.548" cy="112.31" r="2.5" fill="#10B981"/>
<polyline points="375.6,113.5 377.6,113.5 379.6,114.0 381.6,110.8 383.6,110.6" fill="none" stroke="#2563EB" stroke-width="1"/>
<rect x="17.29" y="120.31" width="62.4" height="4" fill="#6B7280" rx="1" opacity="0.5"/>
<rect x="106.376" y="120.31" width="44.5" height="4" fill="#111827" rx="1" opacity="0.7"/>
<rect x="195.462" y="120.31" width="44.5" height="4" fill="#111827" rx="1" opacity="0.7"/>
<circle cx="290.548" cy="122.31" r="2.5" fill="#F59E0B"/>
<polyline points="375.6,121.9 377.6,121.5 379.6,123.2 381.6,121.2 383.6,121.5" fill="none" stroke="#2563EB" stroke-width="1"/>
<rect x="9.29" y="127.31" width="461.43" height="10" fill="#F3F4F6"/>
<rect x="17.29" y="130.31" width="62.4" height="4" fill="#6B7280" rx="1" opacity="0.5"/>
<rect x="106.376" y="130.31" width="44.5" height="4" fill="#111827" rx="1" opacity="0.7"/>
<rect x="195.462" y="130.31" width="44.5" height="4" fill="#111827" rx="1" opacity="0.7"/>
<circle cx="290.548" cy="132.31" r="2.5" fill="#EF4444"/>
<polyline points="375.6,131.2 377.6,131.8 379.6,132.9 381.6,131.3 383.6,134.0" fill="none" stroke="#2563EB" stroke-width="1"/>
<rect x="17.29" y="140.31" width="62.4" height="4" fill="#6B7280" rx="1" opacity="0.5"/>
<rect x="106.376" y="140.31" width="44.5" height="4" fill="#111827" rx="1" opacity="0.7"/>
<rect x="195.462" y="140.31" width="44.5" height="4" fill="#111827" rx="1" opacity="0.7"/>
<circle cx="290.548" cy="142.31" r="2.5" fill="#10B981"/>
<polyline points="375.6,141.4 377.6,144.2 379.6,143.7 381.6,143.8 383.6,140.6" fill="none" stroke="#2563EB" stroke-width="1"/>
<rect x="9.29" y="147.31" width="461.43" height="10" fill="#F3F4F6"/>
<rect x="17.29" y="150.31" width="62.4" height="4" fill="#6B7280" rx="1" opacity="0.5"/>
<rect x="106.376" y="150.31" width="44.5" height="4" fill="#111827" rx="1" opacity="0.7"/>
<rect x="195.462" y="150.31" width="44.5" height="4" fill="#111827" rx="1" opacity="0.7"/>
<circle cx="290.548" cy="152.31" r="2.5" fill="#F59E0B"/>
<polyline points="375.6,151.2 377.6,151.4 379.6,151.8 381.6,150.6 383.6,153.6" fill="none" stroke="#2563EB" stroke-width="1"/>
<rect x="17.29" y="160.31" width="62.4" height="4" fill="#6B7280" rx="1" opacity="0.5"/>
<rect x="106.376" y="160.31" width="44.5" height="4" fill="#111827" rx="1" opacity="0.7"/>
<rect x="195.462" y="160.31" width="44.5" height="4" fill="#111827" rx="1" opacity="0.7"/>
<circle cx="290.548" cy="162.31" r="2.5" fill="#EF4444"/>
<polyline points="375.6,162.1 377.6,161.1 379.6,162.0 381.6,162.1 383.6,163.5" fill="none" stroke="#2563EB" stroke-width="1"/>
<rect x="9.29" y="167.31" width="461.43" height="10" fill="#F3F4F6"/>
<rect x="17.29" y="170.31" width="62.4" height="4" fill="#6B7280" rx="1" opacity="0.5"/>
<rect x="106.376" y="170.31" width="44.5" height="4" fill="#111827" rx="1" opacity="0.7"/>
<rect x="195.462" y="170.31" width="44.5" height="4" fill="#111827" rx="1" opacity="0.7"/>
<circle cx="290.548" cy="172.31" r="2.5" fill="#10B981"/>
<polyline points="375.6,173.8 377.6,171.0 379.6,171.0 381.6,171.8 383.6,170.5" fill="none" stroke="#2563EB" stroke-width="1"/>
<rect x="17.29" y="180.31" width="62.4" height="4" fill="#6B7280" rx="1" opacity="0.5"/>
<rect x="106.376" y="180.31" width="44.5" height="4" fill="#111827" rx="1" opacity="0.7"/>
<rect x="195.462" y="180.31" width="44.5" height="4" fill="#111827" rx="1" opacity="0.7"/>
<circle cx="290.548" cy="182.31" r="2.5" fill="#F59E0B"/>
<polyline points="375.6,183.0 377.6,184.3 379.6,183.1 381.6,183.8 383.6,183.4" fill="none" stroke="#2563EB" stroke-width="1"/>
<rect x="9.29" y="187.31" width="461.43" height="10" fill="#F3F4F6"/>
<rect x="17.29" y="190.31" width="62.4" height="4" fill="#6B7280" rx="1" opacity="0.5"/>
<rect x="106.376" y="190.31" width="44.5" height="4" fill="#111827" rx="1" opacity="0.7"/>
<rect x="195.462" y="190.31" width="44.5" height="4" fill="#111827" rx="1" opacity="0.7"/>
<circle cx="290.548" cy="192.31" r="2.5" fill="#EF4444"/>
<polyline points="375.6,191.2 377.6,193.4 379.6,193.7 381.6,192.7 383.6,193.0" fill="none" stroke="#2563EB" stroke-width="1"/>
<rect x="17.29" y="200.31" width="62.4" height="4" fill="#6B7280" rx="1" opacity="0.5"/>
<rect x="106.376" y="200.31" width="44.5" height="4" fill="#111827" rx="1" opacity="0.7"/>
<rect x="195.462" y="200.31" width="44.5" height="4" fill="#111827" rx="1" opacity="0.7"/>
<circle cx="290.548" cy="202.31" r="2.5" fill="#10B981"/>
<polyline points="375.6,200.6 377.6,203.5 379.6,202.5 381.6,203.4 383.6,203.7" fill="none" stroke="#2563EB" stroke-width="1"/>
<rect x="9.29" y="207.31" width="461.43" height="10" fill="#F3F4F6"/>
<rect x="17.29" y="210.31" width="62.4" height="4" fill="#6B7280" rx="1" opacity="0.5"/>
<rect x="106.376" y="210.31" width="44.5" height="4" fill="#111827" rx="1" opacity="0.7"/>
<rect x="195.462" y="210.31" width="44.5" height="4" fill="#111827" rx="1" opacity="0.7"/>
<circle cx="290.548" cy="212.31" r="2.5" fill="#F59E0B"/>
<polyline points="375.6,212.1 377.6,213.6 379.6,213.0 381.6,212.5 383.6,214.0" fill="none" stroke="#2563EB" stroke-width="1"/>
<rect x="17.29" y="220.31" width="62.4" height="4" fill="#6B7280" rx="1" opacity="0.5"/>
<rect x="106.376" y="220.31" width="44.5" height="4" fill="#111827" rx="1" opacity="0.7"/>
<rect x="195.462" y="220.31" width="44.5" height="4" fill="#111827" rx="1" opacity="0.7"/>
<circle cx="290.548" cy="222.31" r="2.5" fill="#EF4444"/>
<polyline points="375.6,220.6 377.6,223.7 379.6,222.9 381.6,221.3 383.6,220.7" fill="none" stroke="#2563EB" stroke-width="1"/>
<rect x="9.29" y="227.31" width="461.43" height="10" fill="#F3F4F6"/>
<rect x="17.29" y="230.31" width="62.4" height="4" fill="#6B7280" rx="1" opacity="0.5"/>
<rect x="106.376" y="230.31" width="44.5" height="4" fill="#111827" rx="1" opacity="0.7"/>
<rect x="195.462" y="230.31" width="44.5" height="4" fill="#111827" rx="1" opacity="0.7"/>
<circle cx="290.548" cy="232.31" r="2.5" fill="#10B981"/>
<polyline points="375.6,231.4 377.6,233.3 379.6,231.5 381.6,232.2 383.6,232.5" fill="none" stroke="#2563EB" stroke-width="1"/>
<rect x="17.29" y="240.31" width="62.4" height="4" fill="#6B7280" rx="1" opacity="0.5"/>
<rect x="106.376" y="240.31" width="44.5" height="4" fill="#111827" rx="1" opacity="0.7"/>
<rect x="195.462" y="240.31" width="44.5" height="4" fill="#111827" rx="1" opacity="0.7"/>
<circle cx="290.548" cy="242.31" r="2.5" fill="#F59E0B"/>
<polyline points="375.6,240.5 377.6,244.1 379.6,243.1 381.6,241.1 383.6,242.7" fill="none" stroke="#2563EB" stroke-width="1"/>
<rect x="9.29" y="247.31" width="461.43" height="10" fill="#F3F4F6"/>
<rect x="17.29" y="250.31" width="62.4" height="4" fill="#6B7280" rx="1" opacity="0.5"/>
<rect x="106.376" y="250.31" width="44.5" height="4" fill="#111827" rx="1" opacity="0.7"/>
<rect x="195.462" y="250.31" width="44.5" height="4" fill="#111827" rx="1" opacity="0.7"/>
<circle cx="290.548" cy="252.31" r="2.5" fill="#EF4444"/>
<polyline points="375.6,253.0 377.6,250.5 379.6,251.8 381.6,252.3 383.6,250.9" fill="none" stroke="#2563EB" stroke-width="1"/>
<rect x="17.29" y="260.31" width="62.4" height="4" fill="#6B7280" rx="1" opacity="0.5"/>
<rect x="106.376" y="260.31" width="44.5" height="4" fill="#111827" rx="1" opacity="0.7"/>
<rect x="195.462" y="260.31" width="44.5" height="4" fill="#111827" rx="1" opacity="0.7"/>
<circle cx="290.548" cy="262.31" r="2.5" fill="#10B981"/>
<polyline points="375.6,263.9 377.6,263.8 379.6,260.6 381.6,263.7 383.6,263.3" fill="none" stroke="#2563EB" stroke-width="1"/>
<rect x="9.29" y="267.31" width="461.43" height="10" fill="#F3F4F6"/>
<rect x="17.29" y="270.31" width="62.4" height="4" fill="#6B7280" rx="1" opacity="0.5"/>
<rect x="106.376" y="270.31" width="44.5" height="4" fill="#111827" rx="1" opacity="0.7"/>
<rect x="195.462" y="270.31" width="44.5" height="4" fill="#111827" rx="1" opacity="0.7"/>
<circle cx="290.548" cy="272.31" r="2.5" fill="#F59E0B"/>
<polyline points="375.6,270.3 377.6,272.5 379.6,273.9 381.6,271.1 383.6,273.9" fill="none" stroke="#2563EB" stroke-width="1"/>
<rect x="17.29" y="280.31" width="62.4" height="4" fill="#6B7280" rx="1" opacity="0.5"/>
<rect x="106.376" y="280.31" width="44.5" height="4" fill="#111827" rx="1" opacity="0.7"/>
<rect x="195.462" y="280.31" width="44.5" height="4" fill="#111827" rx="1" opacity="0.7"/>
<circle cx="290.548" cy="282.31" r="2.5" fill="#EF4444"/>
<polyline points="375.6,283.4 377.6,282.3 379.6,283.1 381.6,282.0 383.6,280.9" fill="none" stroke="#2563EB" stroke-width="1"/>
<rect x="9.29" y="287.31" width="461.43" height="10" fill="#F3F4F6"/>
<rect x="17.29" y="290.31" width="62.4" height="4" fill="#6B7280" rx="1" opacity="0.5"/>
<rect x="106.376" y="290.31" width="44.5" height="4" fill="#111827" rx="1" opacity="0.7"/>
<rect x="195.462" y="290.31" width="44.5" height="4" fill="#111827" rx="1" opacity="0.7"/>
<circle cx="290.548" cy="292.31" r="2.5" fill="#10B981"/>
<polyline points="375.6,292.3 377.6,291.0 379.6,294.2 381.6,291.0 383.6,292.5" fill="none" stroke="#2563EB" stroke-width="1"/>
<rect x="17.29" y="300.31" width="62.4" height="4" fill="#6B7280" rx="1" opacity="0.5"/>
<rect x="106.376" y="300.31" width="44.5" height="4" fill="#111827" rx="1" opacity="0.7"/>
<rect x="195.462" y="300.31" width="44.5" height="4" fill="#111827" rx="1" opacity="0.7"/>
<circle cx="290.548" cy="302.31" r="2.5" fill="#F59E0B"/>
<polyline points="375.6,301.3 377.6,303.1 379.6,301.6 381.6,304.1 383.6,302.3" fill="none" stroke="#2563EB" stroke-width="1"/>
<rect x="9.29" y="307.31" width="461.43" height="10" fill="#F3F4F6"/>
<rect x="17.29" y="310.31" width="62.4" height="4" fill="#6B7280" rx="1" opacity="0.5"/>
<rect x="106.376" y="310.31" width="44.5" height="4" fill="#111827" rx="1" opacity="0.7"/>
<rect x="195.462" y="310.31" width="44.5" height="4" fill="#111827" rx="1" opacity="0.7"/>
<circle cx="290.548" cy="312.31" r="2.5" fill="#EF4444"/>
<polyline points="375.6,312.8 377.6,311.9 379.6,313.6 381.6,312.4 383.6,312.8" fill="none" stroke="#2563EB" stroke-width="1"/>
<rect x="17.29" y="320.31" width="62.4" height="4" fill="#6B7280" rx="1" opacity="0.5"/>
<rect x="106.376" y="320.31" width="44.5" height="4" fill="#111827" rx="1" opacity="0.7"/>
<rect x="195.462" y="320.31" width="44.5" height="4" fill="#111827" rx="1" opacity="0.7"/>
<circle cx="290.548" cy="322.31" r="2.5" fill="#10B981"/>
<polyline points="375.6,323.5 377.6,322.6 379.6,321.9 381.6,321.8 383.6,322.8" fill="none" stroke="#2563EB" stroke-width="1"/>
<rect x="9.29" y="327.31" width="461.43" height="10" fill="#F3F4F6"/>
<rect x="17.29" y="330.31" width="62.4" height="4" fill="#6B7280" rx="1" opacity="0.5"/>
<rect x="106.376" y="330.31" width="44.5" height="4" fill="#111827" rx="1" opacity="0.7"/>
<rect x="195.462" y="330.31" width="44.5" height="4" fill="#111827" rx="1" opacity="0.7"/>
<circle cx="290.548" cy="332.31" r="2.5" fill="#F59E0B"/>
<polyline points="375.6,333.4 377.6,332.4 379.6,332.4 381.6,333.6 383.6,334.0" fill="none" stroke="#2563EB" stroke-width="1"/>
<rect x="17.29" y="340.31" width="62.4" height="4" fill="#6B7280" rx="1" opacity="0.5"/>
<rect x="106.376" y="340.31" width="44.5" height="4" fill="#111827" rx="1" opacity="0.7"/>
<rect x="195.462" y="340.31" width="44.5" height="4" fill="#111827" rx="1" opacity="0.7"/>
<circle cx="290.548" cy="342.31" r="2.5" fill="#EF4444"/>
<polyline points="375.6,341.2 377.6,341.6 379.6,342.7 381.6,341.6 383.6,344.2" fill="none" stroke="#2563EB" stroke-width="1"/>
<rect x="9.29" y="347.31" width="461.43" height="10" fill="#F3F4F6"/>
<rect x="17.29" y="350.31" width="62.4" height="4" fill="#6B7280" rx="1" opacity="0.5"/>
<rect x="106.376" y="350.31" width="44.5" height="4" fill="#111827" rx="1" opacity="0.7"/>
<rect x="195.462" y="350.31" width="44.5" height="4" fill="#111827" rx="1" opacity="0.7"/>
<circle cx="290.548" cy="352.31" r="2.5" fill="#10B981"/>
<polyline points="375.6,353.9 377.6,350.9 379.6,350.8 381.6,352.1 383.6,352.1" fill="none" stroke="#2563EB" stroke-width="1"/>
<rect x="17.29" y="360.31" width="62.4" height="4" fill="#6B7280" rx="1" opacity="0.5"/>
<rect x="106.376" y="360.31" width="44.5" height="4" fill="#111827" rx="1" opacity="0.7"/>
<rect x="195.462" y="360.31" width="44.5" height="4" fill="#111827" rx="1" opacity="0.7"/>
<circle cx="290.548" cy="362.31" r="2.5" fill="#F59E0B"/>
<polyline points="375.6,363.9 377.6,362.9 379.6,361.7 381.6,362.0 383.6,360.7" fill="none" stroke="#2563EB" stroke-width="1"/>
<rect x="9.29" y="367.31" width="461.43" height="10" fill="#F3F4F6"/>
<rect x="17.29" y="370.31" width="62.4" height="4" fill="#6B7280" rx="1" opacity="0.5"/>
<rect x="106.376" y="370.31" width="44.5" height="4" fill="#111827" rx="1" opacity="0.7"/>
<rect x="195.462" y="370.31" width="44.5" height="4" fill="#111827" rx="1" opacity="0.7"/>
<circle cx="290.548" cy="372.31" r="2.5" fill="#EF4444"/>
<polyline points="375.6,373.9 377.6,371.8 379.6,374.1 381.6,370.8 383.6,373.0" fill="none" stroke="#2563EB" stroke-width="1"/>
<rect x="17.29" y="380.31" width="62.4" height="4" fill="#6B7280" rx="1" opacity="0.5"/>
<rect x="106.376" y="380.31" width="44.5" height="4" fill="#111827" rx="1" opacity="0.7"/>
<rect x="195.462" y="380.31" width="44.5" height="4" fill="#111827" rx="1" opacity="0.7"/>
<circle cx="290.548" cy="382.31" r="2.5" fill="#10B981"/>
<polyline points="375.6,380.8 377.6,382.7 379.6,381.7 381.6,381.5 383.6,382.0" fill="none" stroke="#2563EB" stroke-width="1"/>
<rect x="9.29" y="387.31" width="461.43" height="10" fill="#F3F4F6"/>
<rect x="17.29" y="390.31" width="62.4" height="4" fill="#6B7280" rx="1" opacity="0.5"/>
<rect x="106.376" y="390.31" width="44.5" height="4" fill="#111827" rx="1" opacity="0.7"/>
<rect x="195.462" y="390.31" width="44.5" height="4" fill="#111827" rx="1" opacity="0.7"/>
<circle cx="290.548" cy="392.31" r="2.5" fill="#F59E0B"/>
<polyline points="375.6,391.0 377.6,391.1 379.6,391.9 381.6,391.6 383.6,392.5" fill="none" stroke="#2563EB" stroke-width="1"/>
<rect x="17.29" y="400.31" width="62.4" height="4" fill="#6B7280" rx="1" opacity="0.5"/>
<rect x="106.376" y="400.31" width="44.5" height="4" fill="#111827" rx="1" opacity="0.7"/>
<rect x="195.462" y="400.31" width="44.5" height="4" fill="#111827" rx="1" opacity="0.7"/>
<circle cx="290.548" cy="402.31" r="2.5" fill="#EF4444"/>
<polyline points="375.6,401.4 377.6,403.5 379.6,400.7 381.6,403.8 383.6,404.2" fill="none" stroke="#2563EB" stroke-width="1"/>
<rect x="9.29" y="407.31" width="461.43" height="10" fill="#F3F4F6"/>
<rect x="17.29" y="410.31" width="62.4" height="4" fill="#6B7280" rx="1" opacity="0.5"/>
<rect x="106.376" y="410.31" width="44.5" height="4" fill="#111827" rx="1" opacity="0.7"/>
<rect x="195.462" y="410.31" width="44.5" height="4" fill="#111827" rx="1" opacity="0.7"/>
<circle cx="290.548" cy="412.31" r="2.5" fill="#10B981"/>
<polyline points="375.6,413.5 377.6,411.9 379.6,413.7 381.6,413.4 383.6,413.2" fill="none" stroke="#2563EB" stroke-width="1"/>
<rect x="17.29" y="420.31" width="62.4" height="4" fill="#6B7280" rx="1" opacity="0.5"/>
<rect x="106.376" y="420.31" width="44.5" height="4" fill="#111827" rx="1" opacity="0.7"/>
<rect x="195.462" y="420.31" width="44.5" height="4" fill="#111827" rx="1" opacity="0.7"/>
<circle cx="290.548" cy="422.31" r="2.5" fill="#F59E0B"/>
<polyline points="375.6,421.1 377.6,422.0 379.6,420.7 381.6,422.7 383.6,421.2" fill="none" stroke="#2563EB" stroke-width="1"/>
<rect x="9.29" y="427.31" width="461.43" height="10" fill="#F3F4F6"/>
<rect x="17.29" y="430.31" width="62.4" height="4" fill="#6B7280" rx="1" opacity="0.5"/>
<rect x="106.376" y="430.31" width="44.5" height="4" fill="#111827" rx="1" opacity="0.7"/>
<rect x="195.462" y="430.31" width="44.5" height="4" fill="#111827" rx="1" opacity="0.7"/>
<circle cx="290.548" cy="432.31" r="2.5" fill="#EF4444"/>
<polyline points="375.6,433.5 377.6,431.9 379.6,431.7 381.6,433.0 383.6,432.2" fill="none" stroke="#2563EB" stroke-width="1"/>
<rect x="17.29" y="440.31" width="62.4" height="4" fill="#6B7280" rx="1" opacity="0.5"/>
<rect x="106.376" y="440.31" width="44.5" height="4" fill="#111827" rx="1" opacity="0.7"/>
<rect x="195.462" y="440.31" width="44.5" height="4" fill="#111827" rx="1" opacity="0.7"/>
<circle cx="290.548" cy="442.31" r="2.5" fill="#10B981"/>
<polyline points="375.6,440.9 377.6,442.2 379.6,442.1 381.6,442.4 383.6,443.4" fill="none" stroke="#2563EB" stroke-width="1"/>
<rect x="9.29" y="447.31" width="461.43" height="10" fill="#F3F4F6"/>
<rect x="17.29" y="450.31" width="62.4" height="4" fill="#6B7280" rx="1" opacity="0.5"/>
<rect x="106.376" y="450.31" width="44.5" height="4" fill="#111827" rx="1" opacity="0.7"/>
<rect x="195.462" y="450.31" width="44.5" height="4" fill="#111827" rx="1" opacity="0.7"/>
<circle cx="290.548" cy="452.31" r="2.5" fill="#F59E0B"/>
<polyline points="375.6,452.3 377.6,450.6 379.6,452.3 381.6,450.9 383.6,450.6" fill="none" stroke="#2563EB" stroke-width="1"/>
<rect x="17.29" y="460.31" width="62.4" height="4" fill="#6B7280" rx="1" opacity="0.5"/>
<rect x="106.376" y="460.31" width="44.5" height="4" fill="#111827" rx="1" opacity="0.7"/>
<rect x="195.462" y="460.31" width="44.5" height="4" fill="#111827" rx="1" opacity="0.7"/>
<circle cx="290.548" cy="462.31" r="2.5" fill="#EF4444"/>
<polyline points="375.6,463.9 377.6,461.3 379.6,464.0 381.6,463.5 383.6,463.2" fill="none" stroke="#2563EB" stroke-width="1"/>
<rect x="9.29" y="467.31" width="461.43" height="10" fill="#F3F4F6"/>
<rect x="17.29" y="470.31" width="62.4" height="4" fill="#6B7280" rx="1" opacity="0.5"/>
<rect x="106.376" y="470.31" width="44.5" height="4" fill="#111827" rx="1" opacity="0.7"/>
<rect x="195.462" y="470.31" width="44.5" height="4" fill="#111827" rx="1" opacity="0.7"/>
<circle cx="290.548" cy="472.31" r="2.5" fill="#10B981"/>
<polyline points="375.6,470.5 377.6,470.7 379.6,470.9 381.6,470.8 383.6,471.8" fill="none" stroke="#2563EB" stroke-width="1"/>
<rect x="17.29" y="480.31" width="62.4" height="4" fill="#6B7280" rx="1" opacity="0.5"/>
<rect x="106.376" y="480.31" width="44.5" height="4" fill="#111827" rx="1" opacity="0.7"/>
<rect x="195.462" y="480.31" width="44.5" height="4" fill="#111827" rx="1" opacity="0.7"/>
<circle cx="290.548" cy="482.31" r="2.5" fill="#F59E0B"/>
<polyline points="375.6,482.9 377.6,483.5 379.6,481.1 381.6,483.7 383.6,482.4" fill="none" stroke="#2563EB" stroke-width="1"/>
<rect x="9.29" y="487.31" width="461.43" height="10" fill="#F3F4F6"/>
<rect x="17.29" y="490.31" width="62.4" height="4" fill="#6B7280" rx="1" opacity="0.5"/>
<rect x="106.376" y="490.31" width="44.5" height="4" fill="#111827" rx="1" opacity="0.7"/>
<rect x="195.462" y="490.31" width="44.5" height="4" fill="#111827" rx="1" opacity="0.7"/>
<circle cx="290.548" cy="492.31" r="2.5" fill="#EF4444"/>
<polyline points="375.6,494.1 377.6,494.1 379.6,490.4 381.6,490.8 383.6,492.5" fill="none" stroke="#2563EB" stroke-width="1"/>
<rect x="17.29" y="500.31" width="62.4" height="4" fill="#6B7280" rx="1" opacity="0.5"/>
<rect x="106.376" y="500.31" width="44.5" height="4" fill="#111827" rx="1" opacity="0.7"/>
<rect x="195.462" y="500.31" width="44.5" height="4" fill="#111827" rx="1" opacity="0.7"/>
<circle cx="290.548" cy="502.31" r="2.5" fill="#10B981"/>
<polyline points="375.6,503.7 377.6,502.5 379.6,500.5 381.6,504.1 383.6,503.9" fill="none" stroke="#2563EB" stroke-width="1"/>
<rect x="9.29" y="507.31" width="461.43" height="10" fill="#F3F4F6"/>
<rect x="17.29" y="510.31" width="62.4" height="4" fill="#6B7280" rx="1" opacity="0.5"/>
<rect x="106.376" y="510.31" width="44.5" height="4" fill="#111827" rx="1" opacity="0.7"/>
<rect x="195.462" y="510.31" width="44.5" height="4" fill="#111827" rx="1" opacity="0.7"/>
<circle cx="290.548" cy="512.31" r="2.5" fill="#F59E0B"/>
<polyline points="375.6,511.8 377.6,512.4 379.6,513.4 381.6,512.8 383.6,511.6" fill="none" stroke="#2563EB" stroke-width="1"/>
<rect x="17.29" y="520.31" width="62.4" height="4" fill="#6B7280" rx="1" opacity="0.5"/>
<rect x="106.376" y="520.31" width="44.5" height="4" fill="#111827" rx="1" opacity="0.7"/>
<rect x="195.462" y="520.31" width="44.5" height="4" fill="#111827" rx="1" opacity="0.7"/>
<circle cx="290.548" cy="522.31" r="2.5" fill="#EF4444"/>
<polyline points="375.6,521.5 377.6,520.4 379.6,520.7 381.6,521.6 383.6,524.1" fill="none" stroke="#2563EB" stroke-width="1"/>
<rect x="9.29" y="527.31" width="461.43" height="10" fill="#F3F4F6"/>
<rect x="17.29" y="530.31" width="62.4" height="4" fill="#6B7280" rx="1" opacity="0.5"/>
<rect x="106.376" y="530.31" width="44.5" height="4" fill="#111827" rx="1" opacity="0.7"/>
<rect x="195.462" y="530.31" width="44.5" height="4" fill="#111827" rx="1" opacity="0.7"/>
<circle cx="290.548" cy="532.31" r="2.5" fill="#10B981"/>
<polyline points="375.6,533.7 377.6,533.0 379.6,532.7 381.6,534.2 383.6,532.6" fill="none" stroke="#2563EB" stroke-width="1"/>
<rect x="17.29" y="540.31" width="62.4" height="4" fill="#6B7280" rx="1" opacity="0.5"/>
<rect x="106.376" y="540.31" width="44.5" height="4" fill="#111827" rx="1" opacity="0.7"/>
<rect x="195.462" y="540.31" width="44.5" height="4" fill="#111827" rx="1" opacity="0.7"/>
<circle cx="290.548" cy="542.31" r="2.5" fill="#F59E0B"/>
<polyline points="375.6,542.8 377.6,541.9 379.6,543.7 381.6,542.2 383.6,542.9" fill="none" stroke="#2563EB" stroke-width="1"/>
<rect x="9.29" y="547.31" width="461.43" height="10" fill="#F3F4F6"/>
<rect x="17.29" y="550.31" width="62.4" height="4" fill="#6B7280" rx="1" opacity="0.5"/>
<rect x="106.376" y="550.31" width="44.5" height="4" fill="#111827" rx="1" opacity="0.7"/>
<rect x="195.462" y="550.31" width="44.5" height="4" fill="#111827" rx="1" opacity="0.7"/>
<circle cx="290.548" cy="552.31" r="2.5" fill="#EF4444"/>
<polyline points="375.6,551.5 377.6,552.3 379.6,550.8 381.6,553.1 383.6,551.9" fill="none" stroke="#2563EB" stroke-width="1"/>
<rect x="17.29" y="560.31" width="62.4" height="4" fill="#6B7280" rx="1" opacity="0.5"/>
<rect x="106.376" y="560.31" width="44.5" height="4" fill="#111827" rx="1" opacity="0.7"/>
<rect x="195.462" y="560.31" width="44.5" height="4" fill="#111827" rx="1" opacity="0.7"/>
<circle cx="290.548" cy="562.31" r="2.5" fill="#10B981"/>
<polyline points="375.6,561.5 377.6,562.0 379.6,562.0 381.6,563.8 383.6,563.0" fill="none" stroke="#2563EB" stroke-width="1"/>
<rect x="9.29" y="586.07" width="461.43" height="23.23" rx="2" fill="#F8FAFC" stroke="#E5E7EB"/>
<text x="19.29" y="601.1695000000001" fill="#6B7280" font-family="Segoe UI, Inter, system-ui, sans-serif" font-size="7" font-weight="400">Source: Data warehouse · Last refresh 08:15</text>
<text x="410.72" y="601.1695000000001" fill="#6B7280" font-family="Segoe UI, Inter, system-ui, sans-serif" font-size="7" font-weight="500" text-anchor="start">Confidential</text>
<rect x="450.72" y="591.8775" width="14" height="11.6" rx="2" fill="#2563EB" opacity="0.15"/>
<text x="457.72" y="602.331" fill="#2563EB" font-family="Segoe UI, Inter, system-ui, sans-serif" font-size="7" font-weight="700" text-anchor="middle">1</text>
<rect x="9.29" y="616.27" width="461.43" height="23.23" rx="2" fill="#F8FAFC" stroke="#E5E7EB"/>
<text x="19.29" y="631.3695" fill="#6B7280" font-family="Segoe UI, Inter, system-ui, sans-serif" font-size="7" font-weight="400">Source: Data warehouse · Last refresh 08:15</text>
<text x="410.72" y="631.3695" fill="#6B7280" font-family="Segoe UI, Inter, system-ui, sans-serif" font-size="7" font-weight="500" text-anchor="start">Confidential</text>
<rect x="450.72" y="622.0775" width="14" height="11.6" rx="2" fill="#2563EB" opacity="0.15"/>
<text x="457.72" y="632.531" fill="#2563EB" font-family="Segoe UI, Inter, system-ui, sans-serif" font-size="7" font-weight="700" text-anchor="middle">1</text>
<rect x="9.29" y="646.47" width="461.43" height="23.23" rx="2" fill="#F8FAFC" stroke="#E5E7EB"/>
<text x="19.29" y="661.5695000000001" fill="#6B7280" font-family="Segoe UI, Inter, system-ui, sans-serif" font-size="7" font-weight="400">Source: Data warehouse · Last refresh 08:15</text>
<text x="410.72" y="661.5695000000001" fill="#6B7280" font-family="Segoe UI, Inter, system-ui, sans-serif" font-size="7" font-weight="500" text-anchor="start">Confidential</text>
<rect x="450.72" y="652.2775" width="14" height="11.6" rx="2" fill="#2563EB" opacity="0.15"/>
<text x="457.72" y="662.731" fill="#2563EB" font-family="Segoe UI, Inter, system-ui, sans-serif" font-size="7" font-weight="700" text-anchor="middle">1</text>
<text x="240.0" y="674" fill="#6B7280" font-family="Segoe UI, Inter, system-ui, sans-serif" font-size="7" font-weight="600" text-anchor="middle">paginated-export-a4</text>
</svg>