<svg xmlns="http://www.w3.org/2000/svg" viewBox="0 0 480 440" font-family="Segoe UI, Inter, system-ui, sans-serif">
<title>popup-mini-canvas</title>
<rect x="0" y="0" width="480" height="440" fill="#FFFFFF"/>
<rect x="0" y="0" width="480" height="3" fill="#2563EB"/>
<rect x="4.8" y="12.8" width="470.4" height="30.4" rx="4" fill="#F8FAFC" stroke="#E5E7EB"/>
<rect x="4.8" y="12.8" width="4" height="30.4" rx="2" fill="#2563EB"/>
<text x="18.8" y="31.648" fill="#111827" font-family="Segoe UI, Inter, system-ui, sans-serif" font-size="11" font-weight="700">Tooltip Header</text>
<rect x="385.2" y="21.312" width="70" height="13.7" rx="3" fill="#EFF6FF" stroke="#DBEAFE"/>
<text x="420.2" y="32.864000000000004" fill="#6B7280" font-family="Segoe UI, Inter, system-ui, sans-serif" font-size="11.552" font-weight="500" text-anchor="middle">Q4 · FY26</text>
<rect x="10.8" y="58.8" width="110.1" height="29.6" rx="4" fill="#FFFFFF" stroke="#E5E7EB"/>
<rect x="10.8" y="58.8" width="3" height="29.6" fill="#2563EB"/>
<text x="18.8" y="67.312" fill="#6B7280" font-family="Segoe UI, Inter, system-ui, sans-serif" font-size="6.5120000000000005" font-weight="500">Revenue</text>
<text x="18.8" y="79.672" fill="#111827" font-family="Segoe UI, Inter, system-ui, sans-serif" font-size="10.36" font-weight="700">$1.24M</text>
<rect x="126.89999999999999" y="58.8" width="110.1" height="29.6" rx="4" fill="#FFFFFF" stroke="#E5E7EB"/>
<rect x="126.89999999999999" y="58.8" width="3" height="29.6" fill="#2563EB"/>
<text x="134.89999999999998" y="67.312" fill="#6B7280" font-family="Segoe UI, Inter, system-ui, sans-serif" font-size="6.5120000000000005" font-weight="500">Orders</text>
<text x="134.89999999999998" y="79.672" fill="#111827" font-family="Segoe UI, Inter, system-ui, sans-serif" font-size="10.36" font-weight="700">48,912</text>
<rect x="243.0" y="58.8" width="110.1" height="29.6" rx="4" fill="#FFFFFF" stroke="#E5E7EB"/>
<rect x="243.0" y="58.8" width="3" height="29.6" fill="#2563EB"/>
<text x="251.0" y="67.312" fill="#6B7280" font-family="Segoe UI, Inter, system-ui, sans-serif" font-size="6.5120000000000005" font-weight="500">Margin</text>
<text x="251.0" y="79.672" fill="#111827" font-family="Segoe UI, Inter, system-ui, sans-serif" font-size="10.36" font-weight="700">38.2%</text>
<rect x="359.09999999999997" y="58.8" width="110.1" height="29.6" rx="4" fill="#FFFFFF" stroke="#E5E7EB"/>
<rect x="359.09999999999997" y="58.8" width="3" height="29.6" fill="#2563EB"/>
<text x="367.09999999999997" y="67.312" fill="#6B7280" font-family="Segoe UI, Inter, system-ui, sans-serif" font-size="6.5120000000000005" font-weight="500">CSAT</text>
<text x="367.09999999999997" y="79.672" fill="#111827" font-family="Segoe UI, Inter, system-ui, sans-serif" font-size="10.36" font-weight="700">4.7 / 5</text>
<rect x="4.8" y="104.0" width="470.4" height="323.2" rx="3" fill="#FFFFFF" stroke="#E5E7EB"/>
<text x="12.8" y="116.0" fill="#6B7280" font-family="Segoe UI, Inter, system-ui, sans-serif" font-size="8" font-weight="600">Hero Chart</text>
<polygon points="12.8,419.2 12.8,177.8 45.3,260.8 77.7,241.7 110.2,184.6 142.6,241.1 175.1,175.2 207.5,293.8 240.0,183.9 272.5,305.1 304.9,339.5 337.4,236.9 369.8,234.5 402.3,317.6 434.7,228.4 467.2,197.2 467.2,419.2" fill="#2563EB" opacity="0.18"/>
<polyline points="12.8,177.8 45.3,260.8 77.7,241.7 110.2,184.6 142.6,241.1 175.1,175.2 207.5,293.8 240.0,183.9 272.5,305.1 304.9,339.5 337.4,236.9 369.8,234.5 402.3,317.6 434.7,228.4 467.2,197.2" fill="none" stroke="#2563EB" stroke-width="1.8"/>
<polyline points="12.8,323.6 45.3,276.5 77.7,257.1 110.2,340.5 142.6,286.5 175.1,319.5 207.5,343.4 240.0,326.1 272.5,276.8 304.9,244.6 337.4,345.7 369.8,300.1 402.3,344.8 434.7,268.7 467.2,344.6" fill="none" stroke="#F59E0B" stroke-width="1.3" stroke-dasharray="3 2"/>
<line x1="12.8" y1="419.2" x2="467.2" y2="419.2" stroke="#E5E7EB"/>
<circle cx="465.2" cy="22.8" r="8" fill="#2563EB" stroke="#FFFFFF" stroke-width="1.5"/>
<text x="465.2" y="25.8" fill="#FFFFFF" font-family="Segoe UI, Inter, system-ui, sans-serif" font-size="8" font-weight="700" text-anchor="middle">1</text>
<circle cx="465.2" cy="62.8" r="8" fill="#2563EB" stroke="#FFFFFF" stroke-width="1.5"/>
<text x="465.2" y="65.8" fill="#FFFFFF" font-family="Segoe UI, Inter, system-ui, sans-serif" font-size="8" font-weight="700" text-anchor="middle">2</text>
<circle cx="465.2" cy="114.0" r="8" fill="#2563EB" stroke="#FFFFFF" stroke-width="1.5"/>
<text x="465.2" y="117.0" fill="#FFFFFF" font-family="Segoe UI, Inter, system-ui, sans-serif" font-size="8" font-weight="700" text-anchor="middle">3</text>
<text x="240.0" y="435" fill="#6B7280" font-family="Segoe UI, Inter, system-ui, sans-serif" font-size="7" font-weight="600" text-anchor="middle">popup-mini-canvas</text>
</svg>