<svg xmlns="http://www.w3.org/2000/svg" viewBox="0 0 480 270" font-family="Segoe UI, Inter, system-ui, sans-serif">
<title>qna-explore-page</title>
<rect x="0" y="0" width="480" height="270" fill="#0F172A"/>
<rect x="0" y="0" width="480" height="3" fill="#38BDF8"/>
<rect x="4.62" y="4.62" width="470.77" height="18.75" rx="4" fill="#111827" stroke="#334155"/>
<rect x="4.62" y="4.62" width="4" height="18.75" rx="2" fill="#38BDF8"/>
<text x="18.62" y="16.245" fill="#F1F5F9" font-family="Segoe UI, Inter, system-ui, sans-serif" font-size="10.3125" font-weight="700">Thin Header</text>
<rect x="385.39" y="9.870000000000001" width="70" height="8.4" rx="3" fill="#0C2A4A" stroke="#1E40AF"/>
<text x="420.39" y="16.995" fill="#94A3B8" font-family="Segoe UI, Inter, system-ui, sans-serif" font-size="7.125" font-weight="500" text-anchor="middle">Q4 · FY26</text>
<rect x="4.62" y="26.83" width="470.77" height="212.31" rx="3" fill="#1E293B" stroke="#334155"/>
<text x="12.620000000000001" y="38.83" fill="#94A3B8" font-family="Segoe UI, Inter, system-ui, sans-serif" font-size="8" font-weight="600">Qna Visual</text>
<polygon points="12.6,231.14 12.6,156.9 45.1,147.4 77.6,94.6 110.1,138.3 142.6,78.0 175.0,160.4 207.5,168.1 240.0,124.3 272.5,122.3 305.0,88.6 337.5,123.7 369.9,102.2 402.4,138.9 434.9,173.4 467.4,163.7 467.4,231.14" fill="#38BDF8" opacity="0.18"/>
<polyline points="12.6,156.9 45.1,147.4 77.6,94.6 110.1,138.3 142.6,78.0 175.0,160.4 207.5,168.1 240.0,124.3 272.5,122.3 305.0,88.6 337.5,123.7 369.9,102.2 402.4,138.9 434.9,173.4 467.4,163.7" fill="none" stroke="#38BDF8" stroke-width="1.8"/>
<polyline points="12.6,185.0 45.1,156.5 77.6,169.1 110.1,144.8 142.6,149.7 175.0,181.3 207.5,125.9 240.0,195.7 272.5,187.6 305.0,186.6 337.5,199.8 369.9,192.4 402.4,170.4 434.9,181.0 467.4,124.8" fill="none" stroke="#FBBF24" stroke-width="1.3" stroke-dasharray="3 2"/>
<line x1="12.620000000000001" y1="231.14" x2="467.39" y2="231.14" stroke="#334155"/>
<rect x="4.62" y="242.6" width="470.77" height="22.79" rx="3" fill="#1E293B" stroke="#334155"/>
<text x="12.620000000000001" y="254.6" fill="#94A3B8" font-family="Segoe UI, Inter, system-ui, sans-serif" font-size="8" font-weight="600">Suggested Questions Strip</text>
<polygon points="12.6,257.39 12.6,262.8 45.1,264.1 77.6,261.3 110.1,262.4 142.6,263.6 175.0,260.6 207.5,263.8 240.0,261.1 272.5,261.4 305.0,260.6 337.5,264.4 369.9,264.3 402.4,261.0 434.9,264.0 467.4,262.1 467.4,257.39" fill="#38BDF8" opacity="0.18"/>
<polyline points="12.6,262.8 45.1,264.1 77.6,261.3 110.1,262.4 142.6,263.6 175.0,260.6 207.5,263.8 240.0,261.1 272.5,261.4 305.0,260.6 337.5,264.4 369.9,264.3 402.4,261.0 434.9,264.0 467.4,262.1" fill="none" stroke="#38BDF8" stroke-width="1.8"/>
<polyline points="12.6,259.0 45.1,259.7 77.6,259.0 110.1,261.0 142.6,262.7 175.0,260.8 207.5,259.0 240.0,260.1 272.5,260.2 305.0,261.1 337.5,260.3 369.9,262.4 402.4,259.3 434.9,261.1 467.4,260.4" fill="none" stroke="#FBBF24" stroke-width="1.3" stroke-dasharray="3 2"/>
<line x1="12.620000000000001" y1="257.39" x2="467.39" y2="257.39" stroke="#334155"/>
<text x="240.0" y="265" fill="#94A3B8" font-family="Segoe UI, Inter, system-ui, sans-serif" font-size="7" font-weight="600" text-anchor="middle">qna-explore-page</text>
</svg>