<svg xmlns="http://www.w3.org/2000/svg" viewBox="0 0 480 270" font-family="Segoe UI, Inter, system-ui, sans-serif">
<title>sales-performance</title>
<rect x="0" y="0" width="480" height="270" fill="#0F172A"/>
<rect x="0" y="0" width="480" height="3" fill="#38BDF8"/>
<rect x="4.62" y="4.62" width="470.77" height="18.75" rx="4" fill="#111827" stroke="#334155"/>
<rect x="4.62" y="4.62" width="4" height="18.75" rx="2" fill="#38BDF8"/>
<text x="18.62" y="16.245" fill="#F1F5F9" font-family="Segoe UI, Inter, system-ui, sans-serif" font-size="10.3125" font-weight="700">Title Bar</text>
<rect x="385.39" y="9.870000000000001" width="70" height="8.4" rx="3" fill="#0C2A4A" stroke="#1E40AF"/>
<text x="420.39" y="16.995" fill="#94A3B8" font-family="Segoe UI, Inter, system-ui, sans-serif" font-size="7.125" font-weight="500" text-anchor="middle">Q4 · FY26</text>
<rect x="4.62" y="26.83" width="470.77" height="17.31" rx="3" fill="#111827" stroke="#334155"/>
<rect x="10.620000000000001" y="30.291999999999998" width="86.954" height="10.386" rx="5.193" fill="#1E293B" stroke="#334155"/>
<text x="18.62" y="37.354479999999995" fill="#94A3B8" font-family="Segoe UI, Inter, system-ui, sans-serif" font-size="5.193" font-weight="500">Region</text>
<text x="87.574" y="37.14676" fill="#64748B" font-family="Segoe UI, Inter, system-ui, sans-serif" font-size="4.6737" font-weight="500" text-anchor="end">▾</text>
<rect x="103.574" y="30.291999999999998" width="86.954" height="10.386" rx="5.193" fill="#1E293B" stroke="#334155"/>
<text x="111.574" y="37.354479999999995" fill="#94A3B8" font-family="Segoe UI, Inter, system-ui, sans-serif" font-size="5.193" font-weight="500">Period</text>
<text x="180.528" y="37.14676" fill="#64748B" font-family="Segoe UI, Inter, system-ui, sans-serif" font-size="4.6737" font-weight="500" text-anchor="end">▾</text>
<rect x="196.528" y="30.291999999999998" width="86.954" height="10.386" rx="5.193" fill="#1E293B" stroke="#334155"/>
<text x="204.528" y="37.354479999999995" fill="#94A3B8" font-family="Segoe UI, Inter, system-ui, sans-serif" font-size="5.193" font-weight="500">Product</text>
<text x="273.48199999999997" y="37.14676" fill="#64748B" font-family="Segoe UI, Inter, system-ui, sans-serif" font-size="4.6737" font-weight="500" text-anchor="end">▾</text>
<rect x="289.48199999999997" y="30.291999999999998" width="86.954" height="10.386" rx="5.193" fill="#1E293B" stroke="#334155"/>
<text x="297.48199999999997" y="37.354479999999995" fill="#94A3B8" font-family="Segoe UI, Inter, system-ui, sans-serif" font-size="5.193" font-weight="500">Segment</text>
<text x="366.436" y="37.14676" fill="#64748B" font-family="Segoe UI, Inter, system-ui, sans-serif" font-size="4.6737" font-weight="500" text-anchor="end">▾</text>
<rect x="382.436" y="30.291999999999998" width="86.954" height="10.386" rx="5.193" fill="#1E293B" stroke="#334155"/>
<text x="390.436" y="37.354479999999995" fill="#94A3B8" font-family="Segoe UI, Inter, system-ui, sans-serif" font-size="5.193" font-weight="500">Channel</text>
<text x="459.39" y="37.14676" fill="#64748B" font-family="Segoe UI, Inter, system-ui, sans-serif" font-size="4.6737" font-weight="500" text-anchor="end">▾</text>
<rect x="10.620000000000001" y="53.6" width="110.1925" height="13.379999999999999" rx="4" fill="#1E293B" stroke="#334155"/>
<rect x="10.620000000000001" y="53.6" width="3" height="13.379999999999999" fill="#38BDF8"/>
<text x="18.62" y="58.5436" fill="#94A3B8" font-family="Segoe UI, Inter, system-ui, sans-serif" font-size="2.9436" font-weight="500">Revenue</text>
<text x="18.62" y="65.22659999999999" fill="#F1F5F9" font-family="Segoe UI, Inter, system-ui, sans-serif" font-size="4.682999999999999" font-weight="700">$1.24M</text>
<rect x="126.8125" y="53.6" width="110.1925" height="13.379999999999999" rx="4" fill="#1E293B" stroke="#334155"/>
<rect x="126.8125" y="53.6" width="3" height="13.379999999999999" fill="#38BDF8"/>
<text x="134.8125" y="58.5436" fill="#94A3B8" font-family="Segoe UI, Inter, system-ui, sans-serif" font-size="2.9436" font-weight="500">Orders</text>
<text x="134.8125" y="65.22659999999999" fill="#F1F5F9" font-family="Segoe UI, Inter, system-ui, sans-serif" font-size="4.682999999999999" font-weight="700">48,912</text>
<rect x="243.005" y="53.6" width="110.1925" height="13.379999999999999" rx="4" fill="#1E293B" stroke="#334155"/>
<rect x="243.005" y="53.6" width="3" height="13.379999999999999" fill="#38BDF8"/>
<text x="251.005" y="58.5436" fill="#94A3B8" font-family="Segoe UI, Inter, system-ui, sans-serif" font-size="2.9436" font-weight="500">Margin</text>
<text x="251.005" y="65.22659999999999" fill="#F1F5F9" font-family="Segoe UI, Inter, system-ui, sans-serif" font-size="4.682999999999999" font-weight="700">38.2%</text>
<rect x="359.1975" y="53.6" width="110.1925" height="13.379999999999999" rx="4" fill="#1E293B" stroke="#334155"/>
<rect x="359.1975" y="53.6" width="3" height="13.379999999999999" fill="#38BDF8"/>
<text x="367.1975" y="58.5436" fill="#94A3B8" font-family="Segoe UI, Inter, system-ui, sans-serif" font-size="2.9436" font-weight="500">CSAT</text>
<text x="367.1975" y="65.22659999999999" fill="#F1F5F9" font-family="Segoe UI, Inter, system-ui, sans-serif" font-size="4.682999999999999" font-weight="700">4.7 / 5</text>
<rect x="4.62" y="76.44" width="270.29" height="188.94" rx="3" fill="#1E293B" stroke="#334155"/>
<text x="12.620000000000001" y="88.44" fill="#94A3B8" font-family="Segoe UI, Inter, system-ui, sans-serif" font-size="8" font-weight="600">Hero Trend</text>
<rect x="17.4" y="144.2" width="22.3" height="113.2" rx="1" fill="#38BDF8"/>
<rect x="49.2" y="150.4" width="22.3" height="107.0" rx="1" fill="#60A5FA"/>
<rect x="81.0" y="154.4" width="22.3" height="103.0" rx="1" fill="#38BDF8"/>
<rect x="112.7" y="166.8" width="22.3" height="90.6" rx="1" fill="#60A5FA"/>
<rect x="144.5" y="128.5" width="22.3" height="128.9" rx="1" fill="#38BDF8"/>
<rect x="176.3" y="178.1" width="22.3" height="79.2" rx="1" fill="#60A5FA"/>
<rect x="208.1" y="194.2" width="22.3" height="63.2" rx="1" fill="#38BDF8"/>
<rect x="239.9" y="208.9" width="22.3" height="48.5" rx="1" fill="#60A5FA"/>
<line x1="12.620000000000001" y1="257.38" x2="266.91" y2="257.38" stroke="#334155"/>
<polyline points="28.5,182.1 60.3,153.7 92.1,144.3 123.9,203.5 155.7,213.8 187.4,186.7 219.2,209.6 251.0,220.9" fill="none" stroke="#FBBF24" stroke-width="1.6"/>
<circle cx="28.5" cy="182.1" r="1.8" fill="#FBBF24"/>
<circle cx="60.3" cy="153.7" r="1.8" fill="#FBBF24"/>
<circle cx="92.1" cy="144.3" r="1.8" fill="#FBBF24"/>
<circle cx="123.9" cy="203.5" r="1.8" fill="#FBBF24"/>
<circle cx="155.7" cy="213.8" r="1.8" fill="#FBBF24"/>
<circle cx="187.4" cy="186.7" r="1.8" fill="#FBBF24"/>
<circle cx="219.2" cy="209.6" r="1.8" fill="#FBBF24"/>
<circle cx="251.0" cy="220.9" r="1.8" fill="#FBBF24"/>
<rect x="279.52" y="76.44" width="195.87" height="188.94" rx="3" fill="#1E293B" stroke="#334155"/>
<text x="287.52" y="88.44" fill="#94A3B8" font-family="Segoe UI, Inter, system-ui, sans-serif" font-size="8" font-weight="600">Supporting Grid 3</text>
<polygon points="287.5,257.38 287.5,170.2 300.4,215.5 313.2,202.5 326.1,173.9 338.9,189.1 351.8,158.9 364.6,131.7 377.5,191.2 390.3,217.2 403.2,169.1 416.0,169.0 428.8,168.2 441.7,155.4 454.5,188.3 467.4,176.8 467.4,257.38" fill="#38BDF8" opacity="0.18"/>
<polyline points="287.5,170.2 300.4,215.5 313.2,202.5 326.1,173.9 338.9,189.1 351.8,158.9 364.6,131.7 377.5,191.2 390.3,217.2 403.2,169.1 416.0,169.0 428.8,168.2 441.7,155.4 454.5,188.3 467.4,176.8" fill="none" stroke="#38BDF8" stroke-width="1.8"/>
<polyline points="287.5,172.7 300.4,205.8 313.2,174.2 326.1,192.5 338.9,169.9 351.8,209.8 364.6,171.8 377.5,186.6 390.3,165.7 403.2,200.0 416.0,202.5 428.8,177.8 441.7,174.9 454.5,192.4 467.4,197.3" fill="none" stroke="#FBBF24" stroke-width="1.3" stroke-dasharray="3 2"/>
<line x1="287.52" y1="257.38" x2="467.39" y2="257.38" stroke="#334155"/>
<text x="240.0" y="265" fill="#94A3B8" font-family="Segoe UI, Inter, system-ui, sans-serif" font-size="7" font-weight="600" text-anchor="middle">sales-performance</text>
</svg>