<svg xmlns="http://www.w3.org/2000/svg" viewBox="0 0 480 270" font-family="Segoe UI, Inter, system-ui, sans-serif">
<title>supply-inventory-abc</title>
<rect x="0" y="0" width="480" height="270" fill="#FFFFFF"/>
<rect x="0" y="0" width="480" height="3" fill="#2563EB"/>
<rect x="4.62" y="4.62" width="470.77" height="18.75" rx="4" fill="#F8FAFC" stroke="#E5E7EB"/>
<rect x="4.62" y="4.62" width="4" height="18.75" rx="2" fill="#2563EB"/>
<text x="18.62" y="16.245" fill="#111827" font-family="Segoe UI, Inter, system-ui, sans-serif" font-size="10.3125" font-weight="700">Title Bar</text>
<rect x="385.39" y="9.870000000000001" width="70" height="8.4" rx="3" fill="#EFF6FF" stroke="#DBEAFE"/>
<text x="420.39" y="16.995" fill="#6B7280" font-family="Segoe UI, Inter, system-ui, sans-serif" font-size="7.125" font-weight="500" text-anchor="middle">Q4 · FY26</text>
<rect x="4.62" y="26.83" width="470.77" height="17.31" rx="3" fill="#F8FAFC" stroke="#E5E7EB"/>
<rect x="10.620000000000001" y="30.291999999999998" width="86.954" height="10.386" rx="5.193" fill="#FFFFFF" stroke="#E5E7EB"/>
<text x="18.62" y="37.354479999999995" fill="#6B7280" font-family="Segoe UI, Inter, system-ui, sans-serif" font-size="5.193" font-weight="500">Region</text>
<text x="87.574" y="37.14676" fill="#9CA3AF" font-family="Segoe UI, Inter, system-ui, sans-serif" font-size="4.6737" font-weight="500" text-anchor="end">▾</text>
<rect x="103.574" y="30.291999999999998" width="86.954" height="10.386" rx="5.193" fill="#FFFFFF" stroke="#E5E7EB"/>
<text x="111.574" y="37.354479999999995" fill="#6B7280" font-family="Segoe UI, Inter, system-ui, sans-serif" font-size="5.193" font-weight="500">Period</text>
<text x="180.528" y="37.14676" fill="#9CA3AF" font-family="Segoe UI, Inter, system-ui, sans-serif" font-size="4.6737" font-weight="500" text-anchor="end">▾</text>
<rect x="196.528" y="30.291999999999998" width="86.954" height="10.386" rx="5.193" fill="#FFFFFF" stroke="#E5E7EB"/>
<text x="204.528" y="37.354479999999995" fill="#6B7280" font-family="Segoe UI, Inter, system-ui, sans-serif" font-size="5.193" font-weight="500">Product</text>
<text x="273.48199999999997" y="37.14676" fill="#9CA3AF" font-family="Segoe UI, Inter, system-ui, sans-serif" font-size="4.6737" font-weight="500" text-anchor="end">▾</text>
<rect x="289.48199999999997" y="30.291999999999998" width="86.954" height="10.386" rx="5.193" fill="#FFFFFF" stroke="#E5E7EB"/>
<text x="297.48199999999997" y="37.354479999999995" fill="#6B7280" font-family="Segoe UI, Inter, system-ui, sans-serif" font-size="5.193" font-weight="500">Segment</text>
<text x="366.436" y="37.14676" fill="#9CA3AF" font-family="Segoe UI, Inter, system-ui, sans-serif" font-size="4.6737" font-weight="500" text-anchor="end">▾</text>
<rect x="382.436" y="30.291999999999998" width="86.954" height="10.386" rx="5.193" fill="#FFFFFF" stroke="#E5E7EB"/>
<text x="390.436" y="37.354479999999995" fill="#6B7280" font-family="Segoe UI, Inter, system-ui, sans-serif" font-size="5.193" font-weight="500">Channel</text>
<text x="459.39" y="37.14676" fill="#9CA3AF" font-family="Segoe UI, Inter, system-ui, sans-serif" font-size="4.6737" font-weight="500" text-anchor="end">▾</text>
<rect x="10.620000000000001" y="53.6" width="110.1925" height="13.379999999999999" rx="4" fill="#FFFFFF" stroke="#E5E7EB"/>
<rect x="10.620000000000001" y="53.6" width="3" height="13.379999999999999" fill="#2563EB"/>
<text x="18.62" y="58.5436" fill="#6B7280" font-family="Segoe UI, Inter, system-ui, sans-serif" font-size="2.9436" font-weight="500">Revenue</text>
<text x="18.62" y="65.22659999999999" fill="#111827" font-family="Segoe UI, Inter, system-ui, sans-serif" font-size="4.682999999999999" font-weight="700">$1.24M</text>
<rect x="126.8125" y="53.6" width="110.1925" height="13.379999999999999" rx="4" fill="#FFFFFF" stroke="#E5E7EB"/>
<rect x="126.8125" y="53.6" width="3" height="13.379999999999999" fill="#2563EB"/>
<text x="134.8125" y="58.5436" fill="#6B7280" font-family="Segoe UI, Inter, system-ui, sans-serif" font-size="2.9436" font-weight="500">Orders</text>
<text x="134.8125" y="65.22659999999999" fill="#111827" font-family="Segoe UI, Inter, system-ui, sans-serif" font-size="4.682999999999999" font-weight="700">48,912</text>
<rect x="243.005" y="53.6" width="110.1925" height="13.379999999999999" rx="4" fill="#FFFFFF" stroke="#E5E7EB"/>
<rect x="243.005" y="53.6" width="3" height="13.379999999999999" fill="#2563EB"/>
<text x="251.005" y="58.5436" fill="#6B7280" font-family="Segoe UI, Inter, system-ui, sans-serif" font-size="2.9436" font-weight="500">Margin</text>
<text x="251.005" y="65.22659999999999" fill="#111827" font-family="Segoe UI, Inter, system-ui, sans-serif" font-size="4.682999999999999" font-weight="700">38.2%</text>
<rect x="359.1975" y="53.6" width="110.1925" height="13.379999999999999" rx="4" fill="#FFFFFF" stroke="#E5E7EB"/>
<rect x="359.1975" y="53.6" width="3" height="13.379999999999999" fill="#2563EB"/>
<text x="367.1975" y="58.5436" fill="#6B7280" font-family="Segoe UI, Inter, system-ui, sans-serif" font-size="2.9436" font-weight="500">CSAT</text>
<text x="367.1975" y="65.22659999999999" fill="#111827" font-family="Segoe UI, Inter, system-ui, sans-serif" font-size="4.682999999999999" font-weight="700">4.7 / 5</text>
<rect x="4.62" y="76.44" width="270.29" height="121.15" rx="3" fill="#FFFFFF" stroke="#E5E7EB"/>
<text x="12.620000000000001" y="88.44" fill="#6B7280" font-family="Segoe UI, Inter, system-ui, sans-serif" font-size="8" font-weight="600">Abc Matrix</text>
<polygon points="12.6,189.59 12.6,139.8 30.8,135.3 48.9,121.3 67.1,145.3 85.3,127.2 103.4,129.1 121.6,147.0 139.8,152.1 157.9,115.0 176.1,148.1 194.3,122.5 212.4,150.0 230.6,132.2 248.7,118.5 266.9,132.9 266.9,189.59" fill="#2563EB" opacity="0.18"/>
<polyline points="12.6,139.8 30.8,135.3 48.9,121.3 67.1,145.3 85.3,127.2 103.4,129.1 121.6,147.0 139.8,152.1 157.9,115.0 176.1,148.1 194.3,122.5 212.4,150.0 230.6,132.2 248.7,118.5 266.9,132.9" fill="none" stroke="#2563EB" stroke-width="1.8"/>
<polyline points="12.6,163.0 30.8,136.4 48.9,164.9 67.1,161.6 85.3,164.1 103.4,163.1 121.6,153.2 139.8,157.0 157.9,136.4 176.1,145.3 194.3,168.2 212.4,142.4 230.6,139.9 248.7,141.1 266.9,158.1" fill="none" stroke="#F59E0B" stroke-width="1.3" stroke-dasharray="3 2"/>
<line x1="12.620000000000001" y1="189.59" x2="266.91" y2="189.59" stroke="#E5E7EB"/>
<rect x="279.52" y="76.44" width="195.87" height="121.15" rx="3" fill="#FFFFFF" stroke="#E5E7EB"/>
<text x="287.52" y="88.44" fill="#6B7280" font-family="Segoe UI, Inter, system-ui, sans-serif" font-size="8" font-weight="600">Stockout Risk Heatmap</text>
<rect x="287.5" y="94.4" width="14.0" height="10.9" fill="#F59E0B" opacity="0.20"/>
<rect x="302.5" y="94.4" width="14.0" height="10.9" fill="#2563EB" opacity="0.66"/>
<rect x="317.5" y="94.4" width="14.0" height="10.9" fill="#F59E0B" opacity="0.18"/>
<rect x="332.5" y="94.4" width="14.0" height="10.9" fill="#2563EB" opacity="0.37"/>
<rect x="347.5" y="94.4" width="14.0" height="10.9" fill="#F59E0B" opacity="0.19"/>
<rect x="362.5" y="94.4" width="14.0" height="10.9" fill="#2563EB" opacity="0.49"/>
<rect x="377.5" y="94.4" width="14.0" height="10.9" fill="#2563EB" opacity="0.53"/>
<rect x="392.4" y="94.4" width="14.0" height="10.9" fill="#F59E0B" opacity="0.18"/>
<rect x="407.4" y="94.4" width="14.0" height="10.9" fill="#2563EB" opacity="0.50"/>
<rect x="422.4" y="94.4" width="14.0" height="10.9" fill="#2563EB" opacity="0.46"/>
<rect x="437.4" y="94.4" width="14.0" height="10.9" fill="#2563EB" opacity="0.40"/>
<rect x="452.4" y="94.4" width="14.0" height="10.9" fill="#F59E0B" opacity="0.17"/>
<rect x="287.5" y="106.3" width="14.0" height="10.9" fill="#F59E0B" opacity="0.26"/>
<rect x="302.5" y="106.3" width="14.0" height="10.9" fill="#2563EB" opacity="0.56"/>
<rect x="317.5" y="106.3" width="14.0" height="10.9" fill="#2563EB" opacity="0.61"/>
<rect x="332.5" y="106.3" width="14.0" height="10.9" fill="#2563EB" opacity="0.54"/>
<rect x="347.5" y="106.3" width="14.0" height="10.9" fill="#2563EB" opacity="0.55"/>
<rect x="362.5" y="106.3" width="14.0" height="10.9" fill="#2563EB" opacity="0.36"/>
<rect x="377.5" y="106.3" width="14.0" height="10.9" fill="#F59E0B" opacity="0.26"/>
<rect x="392.4" y="106.3" width="14.0" height="10.9" fill="#F59E0B" opacity="0.15"/>
<rect x="407.4" y="106.3" width="14.0" height="10.9" fill="#2563EB" opacity="0.42"/>
<rect x="422.4" y="106.3" width="14.0" height="10.9" fill="#F59E0B" opacity="0.33"/>
<rect x="437.4" y="106.3" width="14.0" height="10.9" fill="#2563EB" opacity="0.41"/>
<rect x="452.4" y="106.3" width="14.0" height="10.9" fill="#F59E0B" opacity="0.24"/>
<rect x="287.5" y="118.2" width="14.0" height="10.9" fill="#F59E0B" opacity="0.30"/>
<rect x="302.5" y="118.2" width="14.0" height="10.9" fill="#F59E0B" opacity="0.20"/>
<rect x="317.5" y="118.2" width="14.0" height="10.9" fill="#F59E0B" opacity="0.17"/>
<rect x="332.5" y="118.2" width="14.0" height="10.9" fill="#F59E0B" opacity="0.30"/>
<rect x="347.5" y="118.2" width="14.0" height="10.9" fill="#2563EB" opacity="0.52"/>
<rect x="362.5" y="118.2" width="14.0" height="10.9" fill="#F59E0B" opacity="0.21"/>
<rect x="377.5" y="118.2" width="14.0" height="10.9" fill="#F59E0B" opacity="0.21"/>
<rect x="392.4" y="118.2" width="14.0" height="10.9" fill="#2563EB" opacity="0.45"/>
<rect x="407.4" y="118.2" width="14.0" height="10.9" fill="#F59E0B" opacity="0.22"/>
<rect x="422.4" y="118.2" width="14.0" height="10.9" fill="#F59E0B" opacity="0.21"/>
<rect x="437.4" y="118.2" width="14.0" height="10.9" fill="#F59E0B" opacity="0.19"/>
<rect x="452.4" y="118.2" width="14.0" height="10.9" fill="#2563EB" opacity="0.39"/>
<rect x="287.5" y="130.1" width="14.0" height="10.9" fill="#F59E0B" opacity="0.29"/>
<rect x="302.5" y="130.1" width="14.0" height="10.9" fill="#F59E0B" opacity="0.26"/>
<rect x="317.5" y="130.1" width="14.0" height="10.9" fill="#F59E0B" opacity="0.15"/>
<rect x="332.5" y="130.1" width="14.0" height="10.9" fill="#F59E0B" opacity="0.22"/>
<rect x="347.5" y="130.1" width="14.0" height="10.9" fill="#2563EB" opacity="0.52"/>
<rect x="362.5" y="130.1" width="14.0" height="10.9" fill="#F59E0B" opacity="0.15"/>
<rect x="377.5" y="130.1" width="14.0" height="10.9" fill="#2563EB" opacity="0.47"/>
<rect x="392.4" y="130.1" width="14.0" height="10.9" fill="#2563EB" opacity="0.40"/>
<rect x="407.4" y="130.1" width="14.0" height="10.9" fill="#2563EB" opacity="0.37"/>
<rect x="422.4" y="130.1" width="14.0" height="10.9" fill="#2563EB" opacity="0.39"/>
<rect x="437.4" y="130.1" width="14.0" height="10.9" fill="#2563EB" opacity="0.46"/>
<rect x="452.4" y="130.1" width="14.0" height="10.9" fill="#2563EB" opacity="0.39"/>
<rect x="287.5" y="142.0" width="14.0" height="10.9" fill="#F59E0B" opacity="0.26"/>
<rect x="302.5" y="142.0" width="14.0" height="10.9" fill="#F59E0B" opacity="0.15"/>
<rect x="317.5" y="142.0" width="14.0" height="10.9" fill="#F59E0B" opacity="0.19"/>
<rect x="332.5" y="142.0" width="14.0" height="10.9" fill="#F59E0B" opacity="0.18"/>
<rect x="347.5" y="142.0" width="14.0" height="10.9" fill="#F59E0B" opacity="0.17"/>
<rect x="362.5" y="142.0" width="14.0" height="10.9" fill="#2563EB" opacity="0.36"/>
<rect x="377.5" y="142.0" width="14.0" height="10.9" fill="#F59E0B" opacity="0.19"/>
<rect x="392.4" y="142.0" width="14.0" height="10.9" fill="#F59E0B" opacity="0.15"/>
<rect x="407.4" y="142.0" width="14.0" height="10.9" fill="#2563EB" opacity="0.38"/>
<rect x="422.4" y="142.0" width="14.0" height="10.9" fill="#2563EB" opacity="0.42"/>
<rect x="437.4" y="142.0" width="14.0" height="10.9" fill="#2563EB" opacity="0.54"/>
<rect x="452.4" y="142.0" width="14.0" height="10.9" fill="#2563EB" opacity="0.52"/>
<rect x="287.5" y="153.9" width="14.0" height="10.9" fill="#F59E0B" opacity="0.15"/>
<rect x="302.5" y="153.9" width="14.0" height="10.9" fill="#F59E0B" opacity="0.21"/>
<rect x="317.5" y="153.9" width="14.0" height="10.9" fill="#F59E0B" opacity="0.17"/>
<rect x="332.5" y="153.9" width="14.0" height="10.9" fill="#F59E0B" opacity="0.26"/>
<rect x="347.5" y="153.9" width="14.0" height="10.9" fill="#F59E0B" opacity="0.29"/>
<rect x="362.5" y="153.9" width="14.0" height="10.9" fill="#F59E0B" opacity="0.30"/>
<rect x="377.5" y="153.9" width="14.0" height="10.9" fill="#F59E0B" opacity="0.29"/>
<rect x="392.4" y="153.9" width="14.0" height="10.9" fill="#2563EB" opacity="0.41"/>
<rect x="407.4" y="153.9" width="14.0" height="10.9" fill="#2563EB" opacity="0.39"/>
<rect x="422.4" y="153.9" width="14.0" height="10.9" fill="#2563EB" opacity="0.43"/>
<rect x="437.4" y="153.9" width="14.0" height="10.9" fill="#2563EB" opacity="0.53"/>
<rect x="452.4" y="153.9" width="14.0" height="10.9" fill="#2563EB" opacity="0.49"/>
<rect x="287.5" y="165.8" width="14.0" height="10.9" fill="#F59E0B" opacity="0.23"/>
<rect x="302.5" y="165.8" width="14.0" height="10.9" fill="#F59E0B" opacity="0.27"/>
<rect x="317.5" y="165.8" width="14.0" height="10.9" fill="#F59E0B" opacity="0.25"/>
<rect x="332.5" y="165.8" width="14.0" height="10.9" fill="#F59E0B" opacity="0.17"/>
<rect x="347.5" y="165.8" width="14.0" height="10.9" fill="#F59E0B" opacity="0.29"/>
<rect x="362.5" y="165.8" width="14.0" height="10.9" fill="#F59E0B" opacity="0.23"/>
<rect x="377.5" y="165.8" width="14.0" height="10.9" fill="#F59E0B" opacity="0.21"/>
<rect x="392.4" y="165.8" width="14.0" height="10.9" fill="#F59E0B" opacity="0.18"/>
<rect x="407.4" y="165.8" width="14.0" height="10.9" fill="#2563EB" opacity="0.42"/>
<rect x="422.4" y="165.8" width="14.0" height="10.9" fill="#F59E0B" opacity="0.26"/>
<rect x="437.4" y="165.8" width="14.0" height="10.9" fill="#F59E0B" opacity="0.31"/>
<rect x="452.4" y="165.8" width="14.0" height="10.9" fill="#F59E0B" opacity="0.15"/>
<rect x="287.5" y="177.7" width="14.0" height="10.9" fill="#F59E0B" opacity="0.18"/>
<rect x="302.5" y="177.7" width="14.0" height="10.9" fill="#F59E0B" opacity="0.29"/>
<rect x="317.5" y="177.7" width="14.0" height="10.9" fill="#F59E0B" opacity="0.29"/>
<rect x="332.5" y="177.7" width="14.0" height="10.9" fill="#F59E0B" opacity="0.18"/>
<rect x="347.5" y="177.7" width="14.0" height="10.9" fill="#F59E0B" opacity="0.20"/>
<rect x="362.5" y="177.7" width="14.0" height="10.9" fill="#F59E0B" opacity="0.29"/>
<rect x="377.5" y="177.7" width="14.0" height="10.9" fill="#F59E0B" opacity="0.28"/>
<rect x="392.4" y="177.7" width="14.0" height="10.9" fill="#F59E0B" opacity="0.23"/>
<rect x="407.4" y="177.7" width="14.0" height="10.9" fill="#2563EB" opacity="0.57"/>
<rect x="422.4" y="177.7" width="14.0" height="10.9" fill="#2563EB" opacity="0.59"/>
<rect x="437.4" y="177.7" width="14.0" height="10.9" fill="#2563EB" opacity="0.40"/>
<rect x="452.4" y="177.7" width="14.0" height="10.9" fill="#F59E0B" opacity="0.32"/>
<rect x="4.62" y="201.06" width="232.385" height="64.33" rx="3" fill="#FFFFFF" stroke="#E5E7EB"/>
<text x="12.620000000000001" y="213.06" fill="#6B7280" font-family="Segoe UI, Inter, system-ui, sans-serif" font-size="8" font-weight="600">Supporting Pair L</text>
<polygon points="12.6,257.39 12.6,248.3 28.1,244.4 43.5,233.9 59.0,233.6 74.4,242.9 89.9,238.9 105.4,230.4 120.8,240.8 136.3,238.9 151.7,237.6 167.2,242.0 182.6,239.3 198.1,243.0 213.5,239.5 229.0,246.7 229.0,257.39" fill="#2563EB" opacity="0.18"/>
<polyline points="12.6,248.3 28.1,244.4 43.5,233.9 59.0,233.6 74.4,242.9 89.9,238.9 105.4,230.4 120.8,240.8 136.3,238.9 151.7,237.6 167.2,242.0 182.6,239.3 198.1,243.0 213.5,239.5 229.0,246.7" fill="none" stroke="#2563EB" stroke-width="1.8"/>
<polyline points="12.6,244.9 28.1,238.1 43.5,247.1 59.0,242.3 74.4,241.2 89.9,244.2 105.4,250.4 120.8,244.0 136.3,240.7 151.7,250.8 167.2,245.9 182.6,252.1 198.1,244.2 213.5,249.6 229.0,244.8" fill="none" stroke="#F59E0B" stroke-width="1.3" stroke-dasharray="3 2"/>
<line x1="12.620000000000001" y1="257.39" x2="229.005" y2="257.39" stroke="#E5E7EB"/>
<rect x="243.005" y="201.06" width="232.385" height="64.33" rx="3" fill="#FFFFFF" stroke="#E5E7EB"/>
<text x="251.005" y="213.06" fill="#6B7280" font-family="Segoe UI, Inter, system-ui, sans-serif" font-size="8" font-weight="600">Supporting Pair R</text>
<circle cx="359.2" cy="236.4" r="23.2" fill="none" stroke="#2563EB" stroke-width="8.1" stroke-dasharray="61.11 145.51" stroke-dashoffset="0.00" transform="rotate(-90 359.2 236.4)"/>
<circle cx="359.2" cy="236.4" r="23.2" fill="none" stroke="#F59E0B" stroke-width="8.1" stroke-dasharray="36.38 145.51" stroke-dashoffset="-61.11" transform="rotate(-90 359.2 236.4)"/>
<circle cx="359.2" cy="236.4" r="23.2" fill="none" stroke="#10B981" stroke-width="8.1" stroke-dasharray="26.19 145.51" stroke-dashoffset="-97.49" transform="rotate(-90 359.2 236.4)"/>
<circle cx="359.2" cy="236.4" r="23.2" fill="none" stroke="#93C5FD" stroke-width="8.1" stroke-dasharray="21.83 145.51" stroke-dashoffset="-123.68" transform="rotate(-90 359.2 236.4)"/>
<text x="359.1975" y="239.44150000000002" fill="#111827" font-family="Segoe UI, Inter, system-ui, sans-serif" font-size="10.42146" font-weight="700" text-anchor="middle">100%</text>
<circle cx="465.39" cy="14.620000000000001" r="8" fill="#2563EB" stroke="#FFFFFF" stroke-width="1.5"/>
<text x="465.39" y="17.62" fill="#FFFFFF" font-family="Segoe UI, Inter, system-ui, sans-serif" font-size="8" font-weight="700" text-anchor="middle">1</text>
<circle cx="465.39" cy="36.83" r="8" fill="#2563EB" stroke="#FFFFFF" stroke-width="1.5"/>
<text x="465.39" y="39.83" fill="#FFFFFF" font-family="Segoe UI, Inter, system-ui, sans-serif" font-size="8" font-weight="700" text-anchor="middle">2</text>
<circle cx="465.39" cy="57.6" r="8" fill="#2563EB" stroke="#FFFFFF" stroke-width="1.5"/>
<text x="465.39" y="60.6" fill="#FFFFFF" font-family="Segoe UI, Inter, system-ui, sans-serif" font-size="8" font-weight="700" text-anchor="middle">3</text>
<circle cx="264.91" cy="86.44" r="8" fill="#2563EB" stroke="#FFFFFF" stroke-width="1.5"/>
<text x="264.91" y="89.44" fill="#FFFFFF" font-family="Segoe UI, Inter, system-ui, sans-serif" font-size="8" font-weight="700" text-anchor="middle">4</text>
<circle cx="465.39" cy="86.44" r="8" fill="#2563EB" stroke="#FFFFFF" stroke-width="1.5"/>
<text x="465.39" y="89.44" fill="#FFFFFF" font-family="Segoe UI, Inter, system-ui, sans-serif" font-size="8" font-weight="700" text-anchor="middle">5</text>
<circle cx="465.39" cy="211.06" r="8" fill="#2563EB" stroke="#FFFFFF" stroke-width="1.5"/>
<text x="465.39" y="214.06" fill="#FFFFFF" font-family="Segoe UI, Inter, system-ui, sans-serif" font-size="8" font-weight="700" text-anchor="middle">6</text>
<text x="240.0" y="265" fill="#6B7280" font-family="Segoe UI, Inter, system-ui, sans-serif" font-size="7" font-weight="600" text-anchor="middle">supply-inventory-abc</text>
</svg>