<svg xmlns="http://www.w3.org/2000/svg" viewBox="0 0 480 270" font-family="Segoe UI, Inter, system-ui, sans-serif">
<title>variance-dual-waterfall</title>
<rect x="0" y="0" width="480" height="270" fill="#FFFFFF"/>
<rect x="0" y="0" width="480" height="3" fill="#2563EB"/>
<rect x="4.62" y="4.62" width="470.77" height="18.75" rx="4" fill="#F8FAFC" stroke="#E5E7EB"/>
<rect x="4.62" y="4.62" width="4" height="18.75" rx="2" fill="#2563EB"/>
<text x="18.62" y="16.245" fill="#111827" font-family="Segoe UI, Inter, system-ui, sans-serif" font-size="10.3125" font-weight="700">Title</text>
<rect x="385.39" y="9.870000000000001" width="70" height="8.4" rx="3" fill="#EFF6FF" stroke="#DBEAFE"/>
<text x="420.39" y="16.995" fill="#6B7280" font-family="Segoe UI, Inter, system-ui, sans-serif" font-size="7.125" font-weight="500" text-anchor="middle">Q4 · FY26</text>
<rect x="4.62" y="26.83" width="470.77" height="41.25" rx="3" fill="#F8FAFC" stroke="#E5E7EB"/>
<rect x="10.620000000000001" y="35.08" width="86.954" height="24.75" rx="12.375" fill="#FFFFFF" stroke="#E5E7EB"/>
<text x="18.62" y="51.91" fill="#6B7280" font-family="Segoe UI, Inter, system-ui, sans-serif" font-size="8" font-weight="500">Region</text>
<text x="87.574" y="51.415" fill="#9CA3AF" font-family="Segoe UI, Inter, system-ui, sans-serif" font-size="7" font-weight="500" text-anchor="end">▾</text>
<rect x="103.574" y="35.08" width="86.954" height="24.75" rx="12.375" fill="#FFFFFF" stroke="#E5E7EB"/>
<text x="111.574" y="51.91" fill="#6B7280" font-family="Segoe UI, Inter, system-ui, sans-serif" font-size="8" font-weight="500">Period</text>
<text x="180.528" y="51.415" fill="#9CA3AF" font-family="Segoe UI, Inter, system-ui, sans-serif" font-size="7" font-weight="500" text-anchor="end">▾</text>
<rect x="196.528" y="35.08" width="86.954" height="24.75" rx="12.375" fill="#FFFFFF" stroke="#E5E7EB"/>
<text x="204.528" y="51.91" fill="#6B7280" font-family="Segoe UI, Inter, system-ui, sans-serif" font-size="8" font-weight="500">Product</text>
<text x="273.48199999999997" y="51.415" fill="#9CA3AF" font-family="Segoe UI, Inter, system-ui, sans-serif" font-size="7" font-weight="500" text-anchor="end">▾</text>
<rect x="289.48199999999997" y="35.08" width="86.954" height="24.75" rx="12.375" fill="#FFFFFF" stroke="#E5E7EB"/>
<text x="297.48199999999997" y="51.91" fill="#6B7280" font-family="Segoe UI, Inter, system-ui, sans-serif" font-size="8" font-weight="500">Segment</text>
<text x="366.436" y="51.415" fill="#9CA3AF" font-family="Segoe UI, Inter, system-ui, sans-serif" font-size="7" font-weight="500" text-anchor="end">▾</text>
<rect x="382.436" y="35.08" width="86.954" height="24.75" rx="12.375" fill="#FFFFFF" stroke="#E5E7EB"/>
<text x="390.436" y="51.91" fill="#6B7280" font-family="Segoe UI, Inter, system-ui, sans-serif" font-size="8" font-weight="500">Channel</text>
<text x="459.39" y="51.415" fill="#9CA3AF" font-family="Segoe UI, Inter, system-ui, sans-serif" font-size="7" font-weight="500" text-anchor="end">▾</text>
<rect x="4.62" y="71.54" width="470.77" height="73.85" rx="3" fill="#FFFFFF" stroke="#E5E7EB"/>
<text x="12.620000000000001" y="83.54" fill="#6B7280" font-family="Segoe UI, Inter, system-ui, sans-serif" font-size="8" font-weight="600">Waterfall Volume</text>
<rect x="20.4" y="114.5" width="49.4" height="3.4" fill="#2563EB"/>
<rect x="85.4" y="117.8" width="49.4" height="3.0" fill="#EF4444"/>
<line x1="77.6" y1="117.8" x2="85.4" y2="117.8" stroke="#9CA3AF" stroke-dasharray="2 2"/>
<rect x="150.4" y="118.6" width="49.4" height="3.0" fill="#10B981"/>
<line x1="142.6" y1="119.7" x2="150.4" y2="119.7" stroke="#9CA3AF" stroke-dasharray="2 2"/>
<rect x="215.3" y="118.6" width="49.4" height="3.5" fill="#EF4444"/>
<line x1="207.5" y1="118.6" x2="215.3" y2="118.6" stroke="#9CA3AF" stroke-dasharray="2 2"/>
<rect x="280.3" y="120.7" width="49.4" height="3.0" fill="#10B981"/>
<line x1="272.5" y1="122.1" x2="280.3" y2="122.1" stroke="#9CA3AF" stroke-dasharray="2 2"/>
<rect x="345.3" y="120.7" width="49.4" height="6.4" fill="#EF4444"/>
<line x1="337.5" y1="120.7" x2="345.3" y2="120.7" stroke="#9CA3AF" stroke-dasharray="2 2"/>
<rect x="410.2" y="127.1" width="49.4" height="3.0" fill="#2563EB"/>
<line x1="402.4" y1="127.1" x2="410.2" y2="127.1" stroke="#9CA3AF" stroke-dasharray="2 2"/>
<rect x="4.62" y="148.85" width="470.77" height="73.85" rx="3" fill="#FFFFFF" stroke="#E5E7EB"/>
<text x="12.620000000000001" y="160.85" fill="#6B7280" font-family="Segoe UI, Inter, system-ui, sans-serif" font-size="8" font-weight="600">Waterfall Price</text>
<rect x="20.4" y="190.5" width="49.4" height="3.0" fill="#2563EB"/>
<rect x="85.4" y="190.5" width="49.4" height="6.7" fill="#EF4444"/>
<line x1="77.6" y1="190.5" x2="85.4" y2="190.5" stroke="#9CA3AF" stroke-dasharray="2 2"/>
<rect x="150.4" y="188.8" width="49.4" height="8.4" fill="#10B981"/>
<line x1="142.6" y1="197.3" x2="150.4" y2="197.3" stroke="#9CA3AF" stroke-dasharray="2 2"/>
<rect x="215.3" y="188.8" width="49.4" height="4.3" fill="#EF4444"/>
<line x1="207.5" y1="188.8" x2="215.3" y2="188.8" stroke="#9CA3AF" stroke-dasharray="2 2"/>
<rect x="280.3" y="188.0" width="49.4" height="5.1" fill="#10B981"/>
<line x1="272.5" y1="193.2" x2="280.3" y2="193.2" stroke="#9CA3AF" stroke-dasharray="2 2"/>
<rect x="345.3" y="186.2" width="49.4" height="3.0" fill="#10B981"/>
<line x1="337.5" y1="188.0" x2="345.3" y2="188.0" stroke="#9CA3AF" stroke-dasharray="2 2"/>
<rect x="410.2" y="186.2" width="49.4" height="5.3" fill="#2563EB"/>
<line x1="402.4" y1="186.2" x2="410.2" y2="186.2" stroke="#9CA3AF" stroke-dasharray="2 2"/>
<rect x="4.62" y="226.15" width="470.77" height="39.23" rx="3" fill="#FFFFFF" stroke="#E5E7EB"/>
<text x="12.620000000000001" y="238.15" fill="#6B7280" font-family="Segoe UI, Inter, system-ui, sans-serif" font-size="8" font-weight="600">Variance Matrix</text>
<rect x="20.4" y="251.7" width="49.4" height="3.0" fill="#2563EB"/>
<rect x="85.4" y="251.7" width="49.4" height="3.0" fill="#EF4444"/>
<line x1="77.6" y1="251.7" x2="85.4" y2="251.7" stroke="#9CA3AF" stroke-dasharray="2 2"/>
<rect x="150.4" y="252.5" width="49.4" height="3.0" fill="#10B981"/>
<line x1="142.6" y1="253.1" x2="150.4" y2="253.1" stroke="#9CA3AF" stroke-dasharray="2 2"/>
<rect x="215.3" y="250.4" width="49.4" height="3.0" fill="#10B981"/>
<line x1="207.5" y1="252.5" x2="215.3" y2="252.5" stroke="#9CA3AF" stroke-dasharray="2 2"/>
<rect x="280.3" y="250.4" width="49.4" height="3.0" fill="#EF4444"/>
<line x1="272.5" y1="250.4" x2="280.3" y2="250.4" stroke="#9CA3AF" stroke-dasharray="2 2"/>
<rect x="345.3" y="250.6" width="49.4" height="3.0" fill="#10B981"/>
<line x1="337.5" y1="251.9" x2="345.3" y2="251.9" stroke="#9CA3AF" stroke-dasharray="2 2"/>
<rect x="410.2" y="250.6" width="49.4" height="3.0" fill="#2563EB"/>
<line x1="402.4" y1="250.6" x2="410.2" y2="250.6" stroke="#9CA3AF" stroke-dasharray="2 2"/>
<text x="240.0" y="265" fill="#6B7280" font-family="Segoe UI, Inter, system-ui, sans-serif" font-size="7" font-weight="600" text-anchor="middle">variance-dual-waterfall</text>
</svg>