<svg xmlns="http://www.w3.org/2000/svg" viewBox="0 0 480 270" font-family="Segoe UI, Inter, system-ui, sans-serif">
<title>what-if-parameter-page</title>
<rect x="0" y="0" width="480" height="270" fill="#0F172A"/>
<rect x="0" y="0" width="480" height="3" fill="#38BDF8"/>
<rect x="4.62" y="4.62" width="470.77" height="22.79" rx="3" fill="#111827" stroke="#334155"/>
<text x="18.62" y="11.0" fill="#94A3B8" font-family="Segoe UI, Inter, system-ui, sans-serif" font-size="5.0138" font-weight="600">Growth %</text>
<line x1="18.62" y1="17.8" x2="195.0" y2="17.8" stroke="#334155" stroke-width="3" stroke-linecap="round"/>
<line x1="18.62" y1="17.8" x2="133.3" y2="17.8" stroke="#38BDF8" stroke-width="3" stroke-linecap="round"/>
<circle cx="133.3" cy="17.8" r="4" fill="#FFFFFF" stroke="#38BDF8" stroke-width="2"/>
<rect x="199.0" y="10.8" width="32" height="14" rx="3" fill="#0C2A4A" stroke="#1E40AF"/>
<text x="215.0" y="20.8" fill="#38BDF8" font-family="Segoe UI, Inter, system-ui, sans-serif" font-size="4.1022" font-weight="700" text-anchor="middle">+8.0%</text>
<text x="249.005" y="11.0" fill="#94A3B8" font-family="Segoe UI, Inter, system-ui, sans-serif" font-size="5.0138" font-weight="600">Discount %</text>
<line x1="249.005" y1="17.8" x2="425.4" y2="17.8" stroke="#334155" stroke-width="3" stroke-linecap="round"/>
<line x1="249.005" y1="17.8" x2="301.9" y2="17.8" stroke="#38BDF8" stroke-width="3" stroke-linecap="round"/>
<circle cx="301.9" cy="17.8" r="4" fill="#FFFFFF" stroke="#38BDF8" stroke-width="2"/>
<rect x="429.4" y="10.8" width="32" height="14" rx="3" fill="#0C2A4A" stroke="#1E40AF"/>
<text x="445.4" y="20.8" fill="#38BDF8" font-family="Segoe UI, Inter, system-ui, sans-serif" font-size="4.1022" font-weight="700" text-anchor="middle">−5.0%</text>
<rect x="10.620000000000001" y="36.870000000000005" width="110.1925" height="13.379999999999999" rx="4" fill="#1E293B" stroke="#334155"/>
<rect x="10.620000000000001" y="36.870000000000005" width="3" height="13.379999999999999" fill="#38BDF8"/>
<text x="18.62" y="41.81360000000001" fill="#94A3B8" font-family="Segoe UI, Inter, system-ui, sans-serif" font-size="2.9436" font-weight="500">Revenue</text>
<text x="18.62" y="48.49660000000001" fill="#F1F5F9" font-family="Segoe UI, Inter, system-ui, sans-serif" font-size="4.682999999999999" font-weight="700">$1.24M</text>
<rect x="126.8125" y="36.870000000000005" width="110.1925" height="13.379999999999999" rx="4" fill="#1E293B" stroke="#334155"/>
<rect x="126.8125" y="36.870000000000005" width="3" height="13.379999999999999" fill="#38BDF8"/>
<text x="134.8125" y="41.81360000000001" fill="#94A3B8" font-family="Segoe UI, Inter, system-ui, sans-serif" font-size="2.9436" font-weight="500">Orders</text>
<text x="134.8125" y="48.49660000000001" fill="#F1F5F9" font-family="Segoe UI, Inter, system-ui, sans-serif" font-size="4.682999999999999" font-weight="700">48,912</text>
<rect x="243.005" y="36.870000000000005" width="110.1925" height="13.379999999999999" rx="4" fill="#1E293B" stroke="#334155"/>
<rect x="243.005" y="36.870000000000005" width="3" height="13.379999999999999" fill="#38BDF8"/>
<text x="251.005" y="41.81360000000001" fill="#94A3B8" font-family="Segoe UI, Inter, system-ui, sans-serif" font-size="2.9436" font-weight="500">Margin</text>
<text x="251.005" y="48.49660000000001" fill="#F1F5F9" font-family="Segoe UI, Inter, system-ui, sans-serif" font-size="4.682999999999999" font-weight="700">38.2%</text>
<rect x="359.1975" y="36.870000000000005" width="110.1925" height="13.379999999999999" rx="4" fill="#1E293B" stroke="#334155"/>
<rect x="359.1975" y="36.870000000000005" width="3" height="13.379999999999999" fill="#38BDF8"/>
<text x="367.1975" y="41.81360000000001" fill="#94A3B8" font-family="Segoe UI, Inter, system-ui, sans-serif" font-size="2.9436" font-weight="500">CSAT</text>
<text x="367.1975" y="48.49660000000001" fill="#F1F5F9" font-family="Segoe UI, Inter, system-ui, sans-serif" font-size="4.682999999999999" font-weight="700">4.7 / 5</text>
<rect x="4.62" y="59.71" width="470.77" height="111.63" rx="3" fill="#1E293B" stroke="#334155"/>
<text x="12.620000000000001" y="71.71000000000001" fill="#94A3B8" font-family="Segoe UI, Inter, system-ui, sans-serif" font-size="8" font-weight="600">Scenario analysis</text>
<polygon points="268.4,155.3 296.9,149.8 325.3,143.5 353.7,128.5 382.1,113.6 410.5,95.5 439.0,91.0 467.4,84.4 467.4,102.6 439.0,109.1 410.5,113.7 382.1,131.7 353.7,146.7 325.3,161.7 296.9,167.9 268.4,173.4" fill="#FBBF24" opacity="0.18"/>
<polygon points="12.6,163.34 12.6,136.8 41.0,119.6 69.5,111.0 97.9,105.1 126.3,107.0 154.7,117.0 183.2,126.8 211.6,144.2 240.0,157.2 240.0,163.34" fill="#38BDF8" opacity="0.18"/>
<polyline points="12.6,136.8 41.0,119.6 69.5,111.0 97.9,105.1 126.3,107.0 154.7,117.0 183.2,126.8 211.6,144.2 240.0,157.2" fill="none" stroke="#38BDF8" stroke-width="1.8"/>
<polyline points="268.4,158.4 296.9,153.5 325.3,145.1 353.7,132.9 382.1,117.4 410.5,100.8 439.0,93.5 467.4,89.0" fill="none" stroke="#FBBF24" stroke-width="1.6" stroke-dasharray="4 2"/>
<line x1="240.0" y1="77.71000000000001" x2="240.0" y2="163.34" stroke="#64748B" stroke-dasharray="2 3"/>
<text x="244.0" y="85.71000000000001" fill="#94A3B8" font-family="Segoe UI, Inter, system-ui, sans-serif" font-size="7" font-weight="600">scenario →</text>
<line x1="12.620000000000001" y1="163.34" x2="467.39" y2="163.34" stroke="#334155"/>
<rect x="4.62" y="174.81" width="470.77" height="90.58" rx="3" fill="#1E293B" stroke="#334155"/>
<rect x="4.62" y="174.81" width="470.77" height="14" fill="#0C2A4A"/>
<text x="12.620000000000001" y="184.81" fill="#F1F5F9" font-family="Segoe UI, Inter, system-ui, sans-serif" font-size="7.5" font-weight="700">Item</text>
<text x="103.574" y="184.81" fill="#F1F5F9" font-family="Segoe UI, Inter, system-ui, sans-serif" font-size="7.5" font-weight="700">Value</text>
<text x="194.528" y="184.81" fill="#F1F5F9" font-family="Segoe UI, Inter, system-ui, sans-serif" font-size="7.5" font-weight="700">Δ%</text>
<text x="285.48199999999997" y="184.81" fill="#F1F5F9" font-family="Segoe UI, Inter, system-ui, sans-serif" font-size="7.5" font-weight="700">Status</text>
<text x="376.436" y="184.81" fill="#F1F5F9" font-family="Segoe UI, Inter, system-ui, sans-serif" font-size="7.5" font-weight="700">Trend</text>
<line x1="4.62" y1="188.81" x2="475.39" y2="188.81" stroke="#334155"/>
<rect x="12.620000000000001" y="191.81" width="63.7" height="4" fill="#94A3B8" rx="1" opacity="0.5"/>
<rect x="103.574" y="191.81" width="45.5" height="4" fill="#F1F5F9" rx="1" opacity="0.7"/>
<rect x="194.528" y="191.81" width="45.5" height="4" fill="#F1F5F9" rx="1" opacity="0.7"/>
<circle cx="291.48199999999997" cy="193.81" r="2.5" fill="#34D399"/>
<polyline points="378.4,192.7 380.4,195.5 382.4,193.9 384.4,194.5 386.4,192.2" fill="none" stroke="#38BDF8" stroke-width="1"/>
<rect x="4.62" y="198.81" width="470.77" height="10" fill="#1F2937"/>
<rect x="12.620000000000001" y="201.81" width="63.7" height="4" fill="#94A3B8" rx="1" opacity="0.5"/>
<rect x="103.574" y="201.81" width="45.5" height="4" fill="#F1F5F9" rx="1" opacity="0.7"/>
<rect x="194.528" y="201.81" width="45.5" height="4" fill="#F1F5F9" rx="1" opacity="0.7"/>
<circle cx="291.48199999999997" cy="203.81" r="2.5" fill="#FBBF24"/>
<polyline points="378.4,202.9 380.4,204.5 382.4,205.0 384.4,202.5 386.4,204.5" fill="none" stroke="#38BDF8" stroke-width="1"/>
<rect x="12.620000000000001" y="211.81" width="63.7" height="4" fill="#94A3B8" rx="1" opacity="0.5"/>
<rect x="103.574" y="211.81" width="45.5" height="4" fill="#F1F5F9" rx="1" opacity="0.7"/>
<rect x="194.528" y="211.81" width="45.5" height="4" fill="#F1F5F9" rx="1" opacity="0.7"/>
<circle cx="291.48199999999997" cy="213.81" r="2.5" fill="#F87171"/>
<polyline points="378.4,213.5 380.4,213.8 382.4,213.4 384.4,213.8 386.4,215.5" fill="none" stroke="#38BDF8" stroke-width="1"/>
<rect x="4.62" y="218.81" width="470.77" height="10" fill="#1F2937"/>
<rect x="12.620000000000001" y="221.81" width="63.7" height="4" fill="#94A3B8" rx="1" opacity="0.5"/>
<rect x="103.574" y="221.81" width="45.5" height="4" fill="#F1F5F9" rx="1" opacity="0.7"/>
<rect x="194.528" y="221.81" width="45.5" height="4" fill="#F1F5F9" rx="1" opacity="0.7"/>
<circle cx="291.48199999999997" cy="223.81" r="2.5" fill="#34D399"/>
<polyline points="378.4,223.5 380.4,225.5 382.4,224.4 384.4,222.6 386.4,224.6" fill="none" stroke="#38BDF8" stroke-width="1"/>
<rect x="12.620000000000001" y="231.81" width="63.7" height="4" fill="#94A3B8" rx="1" opacity="0.5"/>
<rect x="103.574" y="231.81" width="45.5" height="4" fill="#F1F5F9" rx="1" opacity="0.7"/>
<rect x="194.528" y="231.81" width="45.5" height="4" fill="#F1F5F9" rx="1" opacity="0.7"/>
<circle cx="291.48199999999997" cy="233.81" r="2.5" fill="#FBBF24"/>
<polyline points="378.4,235.1 380.4,233.7 382.4,233.2 384.4,234.2 386.4,233.2" fill="none" stroke="#38BDF8" stroke-width="1"/>
<rect x="4.62" y="238.81" width="470.77" height="10" fill="#1F2937"/>
<rect x="12.620000000000001" y="241.81" width="63.7" height="4" fill="#94A3B8" rx="1" opacity="0.5"/>
<rect x="103.574" y="241.81" width="45.5" height="4" fill="#F1F5F9" rx="1" opacity="0.7"/>
<rect x="194.528" y="241.81" width="45.5" height="4" fill="#F1F5F9" rx="1" opacity="0.7"/>
<circle cx="291.48199999999997" cy="243.81" r="2.5" fill="#F87171"/>
<polyline points="378.4,244.2 380.4,242.0 382.4,245.7 384.4,244.5 386.4,241.9" fill="none" stroke="#38BDF8" stroke-width="1"/>
<rect x="12.620000000000001" y="251.81" width="63.7" height="4" fill="#94A3B8" rx="1" opacity="0.5"/>
<rect x="103.574" y="251.81" width="45.5" height="4" fill="#F1F5F9" rx="1" opacity="0.7"/>
<rect x="194.528" y="251.81" width="45.5" height="4" fill="#F1F5F9" rx="1" opacity="0.7"/>
<circle cx="291.48199999999997" cy="253.81" r="2.5" fill="#34D399"/>
<polyline points="378.4,253.0 380.4,254.1 382.4,253.4 384.4,252.9 386.4,252.8" fill="none" stroke="#38BDF8" stroke-width="1"/>
<text x="240.0" y="265" fill="#94A3B8" font-family="Segoe UI, Inter, system-ui, sans-serif" font-size="7" font-weight="600" text-anchor="middle">what-if-parameter-page</text>
</svg>