<svg xmlns="http://www.w3.org/2000/svg" viewBox="0 0 480 128" font-family="Segoe UI, Inter, system-ui, sans-serif">
<title>wide-flat-tooltip</title>
<rect x="0" y="0" width="480" height="128" fill="#FFFFFF"/>
<rect x="0" y="0" width="480" height="3" fill="#2563EB"/>
<rect x="2.4" y="6.4" width="475.2" height="10.4" rx="4" fill="#F8FAFC" stroke="#E5E7EB"/>
<rect x="2.4" y="6.4" width="4" height="10.4" rx="2" fill="#2563EB"/>
<text x="16.4" y="12.848" fill="#111827" font-family="Segoe UI, Inter, system-ui, sans-serif" font-size="5.720000000000001" font-weight="700">Tooltip Header</text>
<rect x="387.59999999999997" y="9.312000000000001" width="70" height="8.0" rx="3" fill="#EFF6FF" stroke="#DBEAFE"/>
<text x="422.59999999999997" y="13.264000000000001" fill="#6B7280" font-family="Segoe UI, Inter, system-ui, sans-serif" font-size="6" font-weight="500" text-anchor="middle">Q4 · FY26</text>
<rect x="2.4" y="21.6" width="475.2" height="60.8" rx="3" fill="#FFFFFF" stroke="#E5E7EB"/>
<text x="10.4" y="33.6" fill="#6B7280" font-family="Segoe UI, Inter, system-ui, sans-serif" font-size="8" font-weight="600">Tooltip Body</text>
<polygon points="10.4,74.4 10.4,50.7 43.2,63.5 76.0,66.9 108.8,60.8 141.6,54.4 174.4,58.6 207.2,55.5 240.0,52.4 272.8,56.1 305.6,56.2 338.4,65.7 371.2,58.8 404.0,55.8 436.8,54.4 469.6,57.8 469.6,74.4" fill="#2563EB" opacity="0.18"/>
<polyline points="10.4,50.7 43.2,63.5 76.0,66.9 108.8,60.8 141.6,54.4 174.4,58.6 207.2,55.5 240.0,52.4 272.8,56.1 305.6,56.2 338.4,65.7 371.2,58.8 404.0,55.8 436.8,54.4 469.6,57.8" fill="none" stroke="#2563EB" stroke-width="1.8"/>
<polyline points="10.4,66.7 43.2,64.3 76.0,66.3 108.8,59.0 141.6,67.2 174.4,68.9 207.2,66.6 240.0,59.6 272.8,68.6 305.6,68.5 338.4,58.7 371.2,65.5 404.0,60.5 436.8,66.9 469.6,58.2" fill="none" stroke="#F59E0B" stroke-width="1.3" stroke-dasharray="3 2"/>
<line x1="10.4" y1="74.4" x2="469.59999999999997" y2="74.4" stroke="#E5E7EB"/>
<rect x="2.4" y="87.2" width="475.2" height="34.4" rx="3" fill="#FFFFFF" stroke="#E5E7EB"/>
<text x="10.4" y="99.2" fill="#6B7280" font-family="Segoe UI, Inter, system-ui, sans-serif" font-size="8" font-weight="600">Tooltip Trend Row</text>
<rect x="19.0" y="111.7" width="40.2" height="1.9" rx="1" fill="#2563EB"/>
<rect x="76.4" y="111.3" width="40.2" height="2.3" rx="1" fill="#60A5FA"/>
<rect x="133.8" y="111.8" width="40.2" height="1.8" rx="1" fill="#2563EB"/>
<rect x="191.2" y="110.3" width="40.2" height="3.3" rx="1" fill="#60A5FA"/>
<rect x="248.6" y="109.8" width="40.2" height="3.8" rx="1" fill="#2563EB"/>
<rect x="306.0" y="111.3" width="40.2" height="2.3" rx="1" fill="#60A5FA"/>
<rect x="363.4" y="111.1" width="40.2" height="2.5" rx="1" fill="#2563EB"/>
<rect x="420.8" y="110.7" width="40.2" height="2.9" rx="1" fill="#60A5FA"/>
<line x1="10.4" y1="113.6" x2="469.59999999999997" y2="113.6" stroke="#E5E7EB"/>
<polyline points="39.1,112.1 96.5,112.4 153.9,112.1 211.3,111.2 268.7,111.1 326.1,111.4 383.5,112.4 440.9,110.8" fill="none" stroke="#F59E0B" stroke-width="1.6"/>
<circle cx="39.1" cy="112.1" r="1.8" fill="#F59E0B"/>
<circle cx="96.5" cy="112.4" r="1.8" fill="#F59E0B"/>
<circle cx="153.9" cy="112.1" r="1.8" fill="#F59E0B"/>
<circle cx="211.3" cy="111.2" r="1.8" fill="#F59E0B"/>
<circle cx="268.7" cy="111.1" r="1.8" fill="#F59E0B"/>
<circle cx="326.1" cy="111.4" r="1.8" fill="#F59E0B"/>
<circle cx="383.5" cy="112.4" r="1.8" fill="#F59E0B"/>
<circle cx="440.9" cy="110.8" r="1.8" fill="#F59E0B"/>
<text x="240.0" y="123" fill="#6B7280" font-family="Segoe UI, Inter, system-ui, sans-serif" font-size="7" font-weight="600" text-anchor="middle">wide-flat-tooltip</text>
</svg>